<svg width="77" height="77" viewBox="0 0 77 77" fill="none" xmlns="http://www.w3.org/2000/svg">
<g opacity="0.5">
<g opacity="0.5">
<path d="M61.0482 10.0884H54.0821V6.97204C54.0821 5.96378 52.9822 5.50552 51.974 5.50552H46.5661C45.283 1.83913 42.0748 0.00593481 38.4084 0.00593481C34.7824 -0.130384 31.4843 2.093 30.2507 5.50552H24.9345C23.9262 5.50552 22.9179 5.96378 22.9179 6.97204V10.0884H15.9517C11.8235 10.1325 8.44624 13.389 8.2522 17.5128V70.0337C8.2522 74.0667 11.9186 76.9998 15.9517 76.9998H61.0482C65.0813 76.9998 68.7477 74.0667 68.7477 70.0337V17.513C68.5536 13.389 65.1763 10.1325 61.0482 10.0884ZM26.5842 9.17191H31.6255C32.5055 9.06454 33.2124 8.39505 33.3671 7.52205C33.9099 5.15815 35.9838 3.46127 38.4084 3.39741C40.8106 3.47022 42.8533 5.17236 43.358 7.52205C43.5224 8.42523 44.2759 9.10331 45.1912 9.17191H50.4159V16.5047H26.5842V9.17191ZM65.0813 70.0339C65.0813 72.0504 63.0647 73.3336 61.0482 73.3336H15.9517C13.9351 73.3336 11.9186 72.0504 11.9186 70.0339V17.513C12.1056 15.414 13.8446 13.7934 15.9517 13.755H22.9178V18.4296C23.0146 19.4567 23.9041 20.2249 24.9343 20.1713H51.9738C53.0229 20.2286 53.9403 19.4709 54.0819 18.4296V13.7548H61.048C63.1549 13.7934 64.8941 15.4138 65.0811 17.5128V70.0339H65.0813Z" fill="#292930"/>
<path d="M31.4422 40.9778C30.7546 40.253 29.6132 40.2121 28.8756 40.8862L23.0094 46.4773L20.5346 43.9108C19.847 43.1861 18.7056 43.1454 17.9681 43.8192C17.258 44.5631 17.258 45.7335 17.9681 46.4773L21.726 50.3271C22.0513 50.6913 22.5211 50.8927 23.0092 50.8771C23.4927 50.8702 23.954 50.6725 24.2924 50.3271L31.4418 43.5443C32.1506 42.8941 32.198 41.7923 31.5476 41.0837C31.5143 41.0467 31.479 41.0115 31.4422 40.9778Z" fill="#292930"/>
<path d="M57.7486 44.9192H36.6669C35.6545 44.9192 34.8337 45.7399 34.8337 46.7524C34.8337 47.7649 35.6545 48.5856 36.6669 48.5856H57.7486C58.7611 48.5856 59.5818 47.7649 59.5818 46.7524C59.5818 45.7399 58.7611 44.9192 57.7486 44.9192Z" fill="#292930"/>
<path d="M31.4422 26.3122C30.7546 25.5875 29.6132 25.5466 28.8756 26.2207L23.0094 31.8118L20.5346 29.2453C19.847 28.5205 18.7056 28.4797 17.9681 29.1537C17.258 29.8976 17.258 31.0679 17.9681 31.8118L21.726 35.6616C22.0513 36.0258 22.5211 36.2272 23.0092 36.2116C23.4927 36.2047 23.954 36.007 24.2924 35.6616L31.4418 28.8788C32.1506 28.2286 32.198 27.1268 31.5476 26.4182C31.5143 26.3812 31.479 26.3459 31.4422 26.3122Z" fill="#292930"/>
<path d="M57.7486 30.2537H36.6669C35.6545 30.2537 34.8337 31.0744 34.8337 32.0869C34.8337 33.0993 35.6545 33.9201 36.6669 33.9201H57.7486C58.7611 33.9201 59.5818 33.0993 59.5818 32.0869C59.5818 31.0744 58.7611 30.2537 57.7486 30.2537Z" fill="#292930"/>
<path d="M31.4422 55.6432C30.7546 54.9185 29.6132 54.8778 28.8756 55.5516L23.0094 61.1428L20.5346 58.5763C19.847 57.8515 18.7056 57.8108 17.9681 58.4847C17.258 59.2286 17.258 60.3989 17.9681 61.1428L21.726 64.9925C22.0513 65.3568 22.5211 65.5582 23.0092 65.5425C23.4927 65.5357 23.954 65.338 24.2924 64.9925L31.4418 58.2098C32.1506 57.5596 32.198 56.4578 31.5476 55.7492C31.5143 55.7124 31.479 55.6771 31.4422 55.6432Z" fill="#292930"/>
<path d="M57.7486 59.5847H36.6669C35.6545 59.5847 34.8337 60.4054 34.8337 61.4179C34.8337 62.4304 35.6545 63.2511 36.6669 63.2511H57.7486C58.7611 63.2511 59.5818 62.4304 59.5818 61.4179C59.5818 60.4054 58.7611 59.5847 57.7486 59.5847Z" fill="#292930"/>
</g>
</g>
</svg>
