<svg width="78" height="78" viewBox="0 0 78 78" fill="none" xmlns="http://www.w3.org/2000/svg">
<path d="M40.7281 40.3712V40.3711V32.434V32.3155L40.8449 32.3354C42.5434 32.6243 43.4882 33.3486 44.001 34.3531C44.5086 35.3477 44.5844 36.6027 44.5844 37.9336V46.3125C44.5844 46.7708 44.7664 47.2104 45.0905 47.5345C45.4146 47.8586 45.8542 48.0406 46.3125 48.0406H59.7188C60.2301 48.0406 60.7205 48.2438 61.0821 48.6054C61.4437 48.967 61.6469 49.4574 61.6469 49.9688C61.6469 50.4801 61.4437 50.9705 61.0821 51.3321C60.7205 51.6937 60.2301 51.8969 59.7188 51.8969H56.0625C55.6042 51.8969 55.1646 52.0789 54.8405 52.403C54.5164 52.7271 54.3344 53.1667 54.3344 53.625C54.3344 54.0833 54.5164 54.5229 54.8405 54.847C55.1646 55.1711 55.6042 55.3531 56.0625 55.3531H59.7188C60.2301 55.3531 60.7205 55.5563 61.0821 55.9179C61.4437 56.2795 61.6469 56.7699 61.6469 57.2812C61.6469 57.7926 61.4437 58.283 61.0821 58.6446C60.7205 59.0062 60.2301 59.2094 59.7188 59.2094H56.0625C55.6042 59.2094 55.1646 59.3914 54.8405 59.7155C54.5164 60.0396 54.3344 60.4792 54.3344 60.9375C54.3344 61.3958 54.5164 61.8354 54.8405 62.1595C55.1646 62.4836 55.6042 62.6656 56.0625 62.6656H58.5C59.0114 62.6656 59.5018 62.8688 59.8634 63.2304C60.225 63.592 60.4281 64.0824 60.4281 64.5938C60.4281 65.1051 60.225 65.5955 59.8634 65.9571C59.5018 66.3187 59.0114 66.5219 58.5 66.5219H56.0625C55.6042 66.5219 55.1646 66.7039 54.8405 67.028C54.5164 67.3521 54.3344 67.7917 54.3344 68.25C54.3344 68.7083 54.5164 69.1479 54.8405 69.472C55.1646 69.7961 55.6042 69.9781 56.0625 69.9781H57.2812C57.6624 69.978 58.0351 70.0908 58.3522 70.3025C58.6693 70.5141 58.9165 70.8149 59.0627 71.167C59.2089 71.5191 59.2474 71.9066 59.1734 72.2805C59.0994 72.6545 58.9162 72.9981 58.647 73.268M40.7281 40.3712L57.2812 73.7344L57.2811 73.8344C57.5349 73.8348 57.7863 73.785 58.0207 73.6878C58.2551 73.5906 58.468 73.4479 58.647 73.268M40.7281 40.3712C40.7284 40.6912 40.6399 41.0049 40.4724 41.2775L40.7281 40.3712ZM58.647 73.268L58.5762 73.1974L58.6471 73.2679C58.647 73.2679 58.647 73.268 58.647 73.268ZM48.0406 44.4844V44.5844H48.1406H59.7188C60.7583 44.5846 61.7756 44.8857 62.6477 45.4513C63.5199 46.017 64.2097 46.8231 64.6338 47.7722C65.0579 48.7213 65.1981 49.7729 65.0376 50.8C64.8771 51.8271 64.4228 52.7858 63.7293 53.5603L63.6696 53.627L63.7294 53.6937C64.6478 54.718 65.1387 56.0553 65.1011 57.4305C65.0635 58.8056 64.5005 60.1141 63.5277 61.0867C63.3713 61.2421 63.2057 61.388 63.0318 61.5236L62.9593 61.5802L63.0096 61.6572C63.6845 62.6907 63.9832 63.9249 63.8556 65.1526C63.728 66.3803 63.1819 67.5266 62.309 68.3992C62.1525 68.5546 61.9869 68.7005 61.813 68.8361L61.7406 68.8927L61.7908 68.9696C62.3209 69.7817 62.6216 70.7219 62.6611 71.6908C62.7007 72.6597 62.4777 73.6213 62.0156 74.4739C61.5536 75.3265 60.8697 76.0383 60.0363 76.5341C59.2029 77.03 58.251 77.2914 57.2813 77.2906H57.2812H32.9062H32.9062C31.761 77.2915 30.6356 76.9926 29.6419 76.4236L29.5571 76.3751L29.5066 76.4586C29.353 76.7125 29.1365 76.9225 28.8781 77.0682C28.6196 77.214 28.3279 77.2906 28.0312 77.2906H15.8438C15.3854 77.2906 14.9459 77.1086 14.6218 76.7845C14.2977 76.4604 14.1156 76.0208 14.1156 75.5625V46.3125C14.1156 45.8542 14.2977 45.4146 14.6218 45.0905C14.9459 44.7664 15.3854 44.5844 15.8438 44.5844H28.0312C28.4896 44.5844 28.9291 44.7664 29.2532 45.0905C29.5773 45.4146 29.7594 45.8542 29.7594 46.3125V47.8102V47.995L29.9141 47.8939L33.9538 45.2552L33.9725 45.2429L33.9842 45.2239L37.257 39.9055L37.2719 39.8814V39.8531V30.4688C37.2719 30.0104 37.4539 29.5709 37.778 29.2468C38.1021 28.9227 38.5417 28.7406 39 28.7406C42.8248 28.7406 45.4677 29.9847 46.8898 32.4141C48.039 34.3778 48.0406 36.5925 48.0406 37.9336V44.4844ZM32.9062 77.3906H57.2812C58.269 77.3914 59.2386 77.1251 60.0874 76.6201C60.9363 76.115 61.6329 75.39 62.1035 74.5216C62.5742 73.6531 62.8013 72.6737 62.761 71.6867C62.7207 70.6998 62.4144 69.7421 61.8746 68.915L32.9062 77.3906ZM26.2031 73.8344H26.3031V73.7344V48.1406V48.0406H26.2031H17.6719H17.5719V48.1406V73.7344V73.8344H17.6719H26.2031ZM32.9061 73.8344H32.9062L40.4724 41.2776L37.2122 46.5742L37.2023 46.5903L37.199 46.609C37.1571 46.8422 37.0683 47.0645 36.9379 47.2625C36.8076 47.4603 36.6385 47.6297 36.4409 47.7603C36.4408 47.7603 36.4407 47.7604 36.4407 47.7604L29.8047 52.094L29.7594 52.1236V52.1777V70.6875V70.6876C29.7603 71.5219 30.0922 72.3217 30.6821 72.9117C31.272 73.5016 32.0719 73.8334 32.9061 73.8344Z" fill="#292930" stroke="#FFDC60" stroke-width="0.2"/>
<path d="M23.6656 70.8398C23.6656 71.7943 22.8919 72.568 21.9375 72.568C20.9831 72.568 20.2094 71.7943 20.2094 70.8398C20.2094 69.8854 20.9831 69.1117 21.9375 69.1117C22.8919 69.1117 23.6656 69.8854 23.6656 70.8398Z" fill="#292930" stroke="#FFDC60" stroke-width="0.2"/>
<path d="M31.7364 16.2294L31.7453 16.1776L31.7076 16.1409L26.9981 11.5502C26.7672 11.3251 26.6039 11.0399 26.5266 10.7269C26.4493 10.4138 26.4612 10.0854 26.5608 9.77872C26.6604 9.47205 26.8439 9.19938 27.0904 8.99153C27.3369 8.78368 27.6366 8.64895 27.9557 8.60256C27.9557 8.60256 27.9557 8.60256 27.9557 8.60256L34.4643 7.65681L34.5163 7.64925L34.5396 7.60211L37.4503 1.70473L37.3616 1.66094L37.4503 1.70472C37.593 1.41555 37.8138 1.17207 38.0876 1.00183C38.3615 0.831582 38.6775 0.741357 39 0.741357C39.3224 0.741357 39.6385 0.831582 39.9123 1.00183C40.1862 1.17207 40.407 1.41555 40.5497 1.70472L40.6393 1.66047L40.5497 1.70473L43.4604 7.60211L43.4836 7.64925L43.5357 7.65681L50.0442 8.60256C50.3633 8.64894 50.6631 8.78368 50.9096 8.99153C51.1561 9.19938 51.3395 9.47205 51.4392 9.77872C51.5388 10.0854 51.5507 10.4138 51.4734 10.7269C51.3961 11.0399 51.2328 11.3251 51.0019 11.5502L46.292 16.1409L46.2544 16.1776L46.2633 16.2294L47.3754 22.7118L47.3753 22.7118L47.376 22.715C47.5148 23.3892 47.1936 24.0155 46.6783 24.3896C46.163 24.7637 45.4681 24.8751 44.8708 24.535L44.8708 24.5349L44.8679 24.5334L39.0465 21.4729L39 21.4485L38.9534 21.4729L33.1318 24.5334L33.1783 24.6219L33.1318 24.5334C32.8464 24.6834 32.5247 24.7506 32.2031 24.7274C31.8814 24.7042 31.5727 24.5914 31.3119 24.4019C31.051 24.2124 30.8483 23.9537 30.7268 23.655C30.6053 23.3563 30.5698 23.0296 30.6243 22.7118L31.7364 16.2294ZM39.0897 6.5555L39 6.3738L38.9103 6.5555L37.2135 9.99359C37.0895 10.2448 36.9063 10.4621 36.6796 10.6268C36.4529 10.7915 36.1896 10.8986 35.9124 10.9389L32.1184 11.4902L31.9179 11.5193L32.063 11.6608L34.8084 14.3368C35.009 14.5324 35.159 14.7738 35.2456 15.0403C35.3322 15.3067 35.3527 15.5902 35.3053 15.8664L34.6573 19.6445L34.623 19.8442L34.8024 19.7499L38.1958 17.9661C38.4438 17.8357 38.7198 17.7676 39 17.7676C39.2802 17.7676 39.5561 17.8357 39.8041 17.9661L43.1976 19.7499L43.3769 19.8442L43.3427 19.6445L42.6946 15.8664C42.6473 15.5902 42.6678 15.3067 42.7543 15.0403C42.8409 14.7738 42.991 14.5324 43.1916 14.3368L43.1218 14.2652L43.1916 14.3368L45.9364 11.6608L46.0814 11.5193L45.881 11.4902L42.0876 10.9389L42.0732 11.0378L42.0876 10.9389C41.8103 10.8986 41.547 10.7915 41.3204 10.6268C41.0937 10.4621 40.9105 10.2448 40.7865 9.9936L39.0897 6.5555Z" fill="#292930" stroke="#FFDC60" stroke-width="0.2"/>
<path d="M76.574 27.8662L76.5903 27.8784C76.8403 28.0706 77.0331 28.3276 77.1476 28.6218C77.2646 28.9223 77.2951 29.2495 77.2358 29.5664C77.1765 29.8834 77.0297 30.1774 76.812 30.4153C76.5944 30.6531 76.3145 30.8254 76.004 30.9125L69.6716 32.6889L69.6209 32.7031L69.6039 32.7529L67.4774 38.9766L67.4773 38.9766L67.4764 38.9796C67.2747 39.6373 66.6943 40.0341 66.0641 40.1166C65.4339 40.199 64.7707 39.9649 64.4056 39.3785L64.4056 39.3785L64.4039 39.3759L60.7574 33.9022L60.7283 33.8585L60.6757 33.8577L54.0996 33.7585C53.7772 33.7536 53.4626 33.6586 53.1913 33.4843C52.9201 33.3099 52.703 33.0632 52.5647 32.7719C52.4264 32.4806 52.3723 32.1564 52.4086 31.836C52.4449 31.5156 52.5701 31.2117 52.7701 30.9588L52.6917 30.8968L52.7701 30.9588L56.849 25.7994L56.8816 25.7581L56.8661 25.7079L54.9284 19.4228C54.9284 19.4228 54.9284 19.4228 54.9284 19.4228C54.8335 19.1147 54.8266 18.7861 54.9086 18.4743C54.9906 18.1625 55.1582 17.8798 55.3925 17.6583C55.6268 17.4367 55.9183 17.2851 56.2342 17.2206C56.5502 17.1561 56.8778 17.1813 57.1802 17.2933C57.1802 17.2933 57.1802 17.2933 57.1802 17.2933L63.3475 19.5785L63.3968 19.5967L63.4398 19.5665L68.8178 15.7815L68.8179 15.7815C69.0816 15.5958 69.392 15.4875 69.714 15.469C70.036 15.4506 70.3567 15.5226 70.6399 15.6769C70.9231 15.8313 71.1575 16.0618 71.3165 16.3424C71.4755 16.623 71.5528 16.9425 71.5397 17.2648L71.2723 23.8364L71.2702 23.889L71.3122 23.9205L76.574 27.8662ZM67.0919 30.0288C67.2955 29.8363 67.5428 29.6961 67.8126 29.6204C67.8126 29.6204 67.8126 29.6204 67.8126 29.6204L71.5043 28.5856L71.6995 28.5309L71.5373 28.4093L68.47 26.1089L68.41 26.1889L68.47 26.1089C68.2459 25.9408 68.0659 25.7207 67.9458 25.4676C67.8256 25.2146 67.7687 24.9361 67.7801 24.6561L67.9359 20.8254L67.9442 20.623L67.7785 20.7396L64.6432 22.946L64.6432 22.946C64.4141 23.1073 64.1492 23.2104 63.8713 23.2466C63.5934 23.2827 63.3109 23.2507 63.0482 23.1534L59.4528 21.8213L59.2628 21.7509L59.3225 21.9445L60.452 25.6081L60.452 25.6081C60.5346 25.8758 60.5508 26.1596 60.4993 26.435C60.4478 26.7104 60.3301 26.9692 60.1564 27.189L57.7786 30.1964L57.6529 30.3554L57.8555 30.3584L61.6889 30.4163C61.6889 30.4163 61.6889 30.4163 61.689 30.4163C61.9691 30.4206 62.244 30.4929 62.49 30.6271C62.736 30.7612 62.9457 30.9531 63.101 31.1864L63.101 31.1864L65.2265 34.3771L65.3388 34.5457L65.4043 34.3539L66.6441 30.7256C66.7347 30.4604 66.8884 30.2213 67.0919 30.0288Z" fill="#292930" stroke="#FFDC60" stroke-width="0.2"/>
<path d="M23.9035 33.7587V33.7586L23.9003 33.7586L17.3242 33.8578L17.2716 33.8586L17.2425 33.9024L13.596 39.3761L13.5959 39.3761L13.5943 39.3787C13.2293 39.9649 12.5661 40.1991 11.9359 40.1167C11.3056 40.0344 10.7252 39.6376 10.5235 38.9798L10.5235 38.9797L10.5225 38.9767L8.39625 32.753L8.37925 32.7033L8.32863 32.6891L1.99616 30.9126C1.68571 30.8255 1.40582 30.6533 1.18814 30.4154C0.970457 30.1775 0.823667 29.8835 0.764366 29.5666C0.705065 29.2496 0.735618 28.9224 0.852572 28.6219C0.969525 28.3214 1.16821 28.0597 1.42617 27.8662L6.68797 23.9205L6.73003 23.889L6.72789 23.8364L6.46053 17.2648L6.46053 17.2648C6.44738 16.9425 6.52468 16.623 6.68369 16.3424C6.84269 16.0618 7.07705 15.8313 7.36026 15.6769C7.64347 15.5226 7.96422 15.4506 8.28622 15.469C8.60823 15.4875 8.91863 15.5958 9.18232 15.7815L9.18235 15.7815L14.5601 19.5665L14.6031 19.5967L14.6524 19.5785L20.8197 17.2933C21.1221 17.1813 21.4498 17.1561 21.7657 17.2206C22.0816 17.2851 22.3732 17.4367 22.6075 17.6583C22.8418 17.8798 23.0094 18.1625 23.0914 18.4744C23.1733 18.7862 23.1665 19.1148 23.0715 19.4229L21.1338 25.708L21.1183 25.7583L21.1509 25.7995L25.2298 30.9589L25.2297 30.959L25.2318 30.9615C25.6761 31.4873 25.6944 32.1906 25.4214 32.7654C25.1485 33.3402 24.5919 33.7706 23.9035 33.7587ZM14.8988 31.1871L14.9155 31.1619V31.1616C15.069 30.9395 15.2725 30.7563 15.5098 30.6269C15.7558 30.4928 16.0307 30.4204 16.3109 30.4162C16.3109 30.4162 16.3109 30.4162 16.3109 30.4162L20.1444 30.3583L20.347 30.3552L20.2213 30.1963L17.8435 27.1889C17.6698 26.9691 17.5521 26.7103 17.5006 26.4349C17.4491 26.1595 17.4653 25.8757 17.5479 25.6079L18.6778 21.9447L18.7375 21.751L18.5475 21.8214L14.9522 23.1535C14.6894 23.2509 14.4069 23.2828 14.1291 23.2467C13.8512 23.2106 13.5863 23.1074 13.3571 22.9461L10.2219 20.7391L10.0562 20.6225L10.0644 20.825L10.2203 24.6557C10.2316 24.9356 10.1748 25.2141 10.0546 25.4672C9.93439 25.7203 9.75446 25.9403 9.53031 26.1084L9.5303 26.1084L6.46301 28.4088L6.30094 28.5304L6.49599 28.5851L10.1874 29.621L10.1874 29.621C10.4572 29.6967 10.7045 29.8369 10.9081 30.0294C11.1117 30.2219 11.2653 30.461 11.3559 30.7262L12.5956 34.3539L12.6611 34.5457L12.7734 34.3771L14.8988 31.1871Z" fill="#292930" stroke="#FFDC60" stroke-width="0.2"/>
</svg>
