<svg width="76" height="76" viewBox="0 0 76 76" fill="none" xmlns="http://www.w3.org/2000/svg">
<g opacity="0.2">
<path d="M60.5667 32.2397C60.2486 31.9216 59.9238 31.6129 59.5948 31.3101L61.9914 7.34439C62.1788 5.47022 61.5615 3.59427 60.2975 2.19762C59.0336 0.800969 57.2286 0 55.3451 0H20.6549C18.7714 0 16.9661 0.800969 15.7023 2.19762C14.4385 3.59412 13.821 5.47007 14.0085 7.34439L16.4052 31.3101C16.0762 31.613 15.7516 31.9218 15.4335 32.2397C9.40559 38.2675 6.08594 46.2819 6.08594 54.8064C6.08594 62.2439 8.70111 69.4854 13.4498 75.197L14.1174 76H61.8826L62.5502 75.197C67.2989 69.4855 69.9141 62.244 69.9141 54.8064C69.9141 46.2819 66.5944 38.2675 60.5667 32.2397ZM19.0042 5.18566C19.4317 4.71334 20.018 4.45312 20.6551 4.45312H55.3451C55.9822 4.45312 56.5685 4.71334 56.996 5.18566C57.4235 5.65799 57.6239 6.26733 57.5605 6.9013L55.4435 28.0715C54.0866 27.1823 52.6692 26.4018 51.2019 25.7348L52.8844 8.90625H23.1153L24.7981 25.7346C23.3308 26.4018 21.9134 27.1822 20.5565 28.0715L18.4395 6.90116C18.3761 6.26718 18.5765 5.65799 19.0042 5.18566ZM47.964 13.3594L46.8858 24.1414C44.034 23.3195 41.0499 22.8923 38 22.8923C34.9501 22.8923 31.966 23.3195 29.1142 24.1414L28.036 13.3594H47.964ZM59.7684 71.5469H16.2316C12.5535 66.7666 10.5391 60.8623 10.5391 54.8064C10.5391 39.6644 22.858 27.3455 38 27.3455C53.1421 27.3455 65.4609 39.6644 65.4609 54.8064C65.4609 60.8625 63.4465 66.7666 59.7684 71.5469Z" fill="black"/>
<path d="M38 43.9375C33.0891 43.9375 29.0938 47.9328 29.0938 52.8438C29.0938 57.7547 33.0891 61.75 38 61.75C42.9109 61.75 46.9062 57.7547 46.9062 52.8438C46.9062 47.9328 42.9109 43.9375 38 43.9375ZM38 57.2969C35.5445 57.2969 33.5469 55.2992 33.5469 52.8438C33.5469 50.3883 35.5445 48.3906 38 48.3906C40.4555 48.3906 42.4531 50.3883 42.4531 52.8438C42.4531 55.2992 40.4555 57.2969 38 57.2969Z" fill="black"/>
</g>
</svg>
