<svg width="46" height="46" viewBox="0 0 46 46" fill="none" xmlns="http://www.w3.org/2000/svg">
<g clip-path="url(#clip0_250_32)">
<path d="M33.6063 34.2819C32.5005 34.3185 31.3958 34.1792 30.3337 33.8691C30.09 33.8053 29.8334 33.8105 29.5925 33.8839C27.3966 34.6535 25.0174 34.7306 22.7762 34.105C20.535 33.4794 18.5397 32.1811 17.0599 30.3854C16.4903 29.7121 16.2249 29.75 15.7752 30.512C14.928 32.0325 13.8975 33.4433 12.7067 34.7129C11.6519 35.7898 11.378 35.7436 10.7291 34.4106C8.83212 30.5111 8.47486 26.4418 9.46136 22.2509C9.69758 21.2325 10.1212 20.2558 10.4861 19.1824C11.4525 19.6903 12.4364 19.2886 13.437 19.1307C16.418 18.6676 18.8043 19.6846 20.5514 22.1389C20.8451 22.5465 21.0725 22.6309 21.5689 22.5067C23.8364 21.9336 26.0544 21.9699 28.0766 23.3348C29.2827 24.1477 29.7941 25.0852 30.4062 26.3772C30.5168 26.6319 30.6655 26.8682 30.8471 27.0782C30.8879 26.8614 31.4888 21.4405 32.0763 18.7765C32.449 16.9957 32.2786 15.144 31.587 13.4611C31.2273 12.5368 30.4115 12.146 29.4401 12.237C28.2055 12.3526 26.9606 12.1897 25.7973 11.7603C25.2263 11.5552 25.2315 11.3996 25.4774 10.8167C25.621 10.4965 25.6595 10.139 25.5873 9.79564C25.4292 9.33776 25.4141 8.84264 25.5439 8.37597C25.6738 7.9093 25.9424 7.49314 26.3143 7.1827C26.7958 6.72266 27.3568 6.35376 27.9699 6.09388C28.6458 5.84038 29.1606 6.45832 29.6949 6.77546C31.3007 7.72068 32.7881 8.82666 33.7707 10.4607C34.0455 10.9213 34.2498 11.4204 34.3767 11.9416C35.6484 17.336 36.819 22.7585 38.1784 28.1314C38.9545 31.2076 36.4705 34.091 33.6063 34.2819Z" fill="currentColor"/>
<path d="M10.2906 35.7528C9.39288 35.9516 8.54263 36.1547 7.68441 36.3097C7.59582 36.2989 7.51056 36.2693 7.43431 36.2229C7.35805 36.1766 7.29256 36.1145 7.24217 36.0408C5.93014 34.2452 5.0977 32.1447 4.82352 29.9378C4.50391 27.4031 4.62695 24.8321 5.18715 22.3395C5.56234 20.5177 6.10812 18.7353 6.81726 17.0158C7.71858 17.5861 8.58893 18.1384 9.49671 18.7105C7.30166 24.4864 7.31468 30.171 10.2906 35.7528Z" fill="currentColor"/>
</g>
<defs>
<clipPath id="clip0_250_32">
<rect width="35.9292" height="35.9292" fill="white" transform="translate(11.564) rotate(18.7753)"/>
</clipPath>
</defs>
</svg>
