<svg width="70" height="70" viewBox="0 0 70 70" fill="none" xmlns="http://www.w3.org/2000/svg">
<mask id="path-1-inside-1_116_25" fill="currentColor">
<path d="M69.6351 40.0409C68.5022 47.8247 64.7804 54.9999 59.07 60.4094C53.3596 65.8188 45.9935 69.147 38.1598 69.8571C30.3261 70.5672 22.4816 68.6179 15.8915 64.3235C9.30144 60.0291 4.35004 53.64 1.83594 46.1868C-0.678155 38.7336 -0.608365 30.6508 2.03405 23.2422C4.67647 15.8335 9.73746 9.5309 16.4007 5.35095C23.0639 1.171 30.9409 -0.642599 38.7612 0.202681C46.5814 1.04796 53.889 4.50284 59.5052 10.0101L58.548 10.9862C53.1512 5.6941 46.1291 2.37418 38.6143 1.56191C31.0995 0.749651 23.5302 2.49241 17.1272 6.50909C10.7243 10.5258 5.86095 16.5822 3.32175 23.7015C0.782548 30.8207 0.715484 38.5878 3.13138 45.7499C5.54727 52.9119 10.3053 59.0514 16.6379 63.178C22.9706 67.3047 30.5087 69.1779 38.0363 68.4955C45.564 67.8131 52.6424 64.615 58.1298 59.4168C63.6171 54.2187 67.1936 47.3237 68.2822 39.844L69.6351 40.0409Z"/>
</mask>
<path d="M69.6351 40.0409C68.5022 47.8247 64.7804 54.9999 59.07 60.4094C53.3596 65.8188 45.9935 69.147 38.1598 69.8571C30.3261 70.5672 22.4816 68.6179 15.8915 64.3235C9.30144 60.0291 4.35004 53.64 1.83594 46.1868C-0.678155 38.7336 -0.608365 30.6508 2.03405 23.2422C4.67647 15.8335 9.73746 9.5309 16.4007 5.35095C23.0639 1.171 30.9409 -0.642599 38.7612 0.202681C46.5814 1.04796 53.889 4.50284 59.5052 10.0101L58.548 10.9862C53.1512 5.6941 46.1291 2.37418 38.6143 1.56191C31.0995 0.749651 23.5302 2.49241 17.1272 6.50909C10.7243 10.5258 5.86095 16.5822 3.32175 23.7015C0.782548 30.8207 0.715484 38.5878 3.13138 45.7499C5.54727 52.9119 10.3053 59.0514 16.6379 63.178C22.9706 67.3047 30.5087 69.1779 38.0363 68.4955C45.564 67.8131 52.6424 64.615 58.1298 59.4168C63.6171 54.2187 67.1936 47.3237 68.2822 39.844L69.6351 40.0409Z" fill="currentColor" stroke="currentColor" stroke-width="4" mask="url(#path-1-inside-1_116_25)"/>
<path d="M59.1282 6.64924L59.2916 10.6926L54.9999 10.9782" stroke="currentColor"/>
</svg>
