<svg width="34" height="34" viewBox="0 0 34 34" fill="none" xmlns="http://www.w3.org/2000/svg">
<path d="M17.0011 0.125553C14.5188 0.125553 12.1578 0.659971 10.0336 1.62408C9.74278 1.75611 9.62004 2.10337 9.76331 2.38876L10.7686 4.40257C10.9035 4.67301 11.2281 4.78847 11.5035 4.66403C13.1826 3.9143 15.0411 3.50164 17.0011 3.50164C24.4636 3.50164 30.5 9.53805 30.5 17.0006C30.5 19.8078 29.6359 22.402 28.1709 24.5624L26.3977 22.7882C26.2765 22.6668 26.1067 22.6074 25.9363 22.6265C25.652 22.6595 25.4378 22.9007 25.4386 23.1868V29.3744C25.4375 29.685 25.6883 29.9379 25.9989 29.9391H32.1853C32.6907 29.9433 32.9443 29.3301 32.5841 28.9756L30.5901 26.9815C32.6473 24.1849 33.8761 20.7359 33.8761 17.0005C33.8761 7.68736 26.3142 0.125488 17.0011 0.125488V0.125553ZM1.8114 4.06195C1.31116 4.06214 1.05997 4.66624 1.4126 5.02107L3.40772 7.01619C1.3502 9.81311 0.126099 13.2646 0.126099 17.0006C0.126099 26.3137 7.68796 33.8756 17.0011 33.8756C19.4834 33.8756 21.8444 33.3367 23.9686 32.3726C24.259 32.2402 24.3812 31.8931 24.2378 31.608L23.2292 29.5942C23.0944 29.3261 22.7729 29.2111 22.4987 29.3327C20.8196 30.0825 18.9611 30.4995 17.0011 30.4995C9.5386 30.4994 3.5022 24.4631 3.5022 17.0006C3.5022 14.1943 4.36117 11.597 5.82471 9.43647L7.6045 11.2118C7.95931 11.5645 8.5634 11.3133 8.5636 10.8131V4.62666C8.56472 4.31429 8.31127 4.06076 7.9989 4.06195H1.8114ZM18.0975 7.43693C17.914 7.44544 17.7463 7.54428 17.6482 7.6995L10.9015 18.387C10.665 18.7605 10.9319 19.2483 11.3739 19.2506H15.83L15.3147 25.9566C15.2734 26.5372 16.0329 26.7906 16.3485 26.3016L23.1007 15.613C23.3385 15.2374 23.0674 14.7473 22.6228 14.7494H18.1678L18.6864 8.04337C18.7133 7.70495 18.4366 7.41944 18.0975 7.43693Z" fill="currentColor"/>
</svg>
