<svg width="20" height="34" viewBox="0 0 20 34" fill="none" xmlns="http://www.w3.org/2000/svg">
<path d="M18 3C18 1.34587 16.6542 0 15 0H5C3.3458 0 2 1.34587 2 3V4H18V3Z" fill="currentColor"/>
<path d="M0 28H20V14H0V28ZM10.2 16.4L11.8 17.6L10 20H14L9.8 25.6L8.2 24.4L10 22H6L10.2 16.4Z" fill="currentColor"/>
<path d="M16.4134 8H16V6H4V8H3.58653C1.60893 8 0 9.60893 0 11.5866V12H20V11.5866C20 9.60893 18.3911 8 16.4134 8Z" fill="currentColor"/>
<path d="M0 30.4134C0 32.3911 1.60893 34 3.58653 34H16.4134C18.3911 34 20 32.3911 20 30.4134V30H0V30.4134Z" fill="currentColor"/>
</svg>
