<svg width="43" height="14" viewBox="0 0 43 14" fill="none" xmlns="http://www.w3.org/2000/svg">
<path d="M6.85028 6.82233C6.7593 6.76942 6.65027 6.71675 6.55953 6.68188C6.41416 6.61165 6.48069 6.19554 6.64313 6.19333C12.9961 6.08867 19.4796 6.28913 25.7727 7.08791C28.8289 7.47951 31.816 8.10672 34.7869 8.86053C37.5041 9.54558 40.1876 10.4116 42.5907 11.8953C42.7364 11.9835 42.5803 12.455 42.3984 12.3492C39.9772 10.8658 37.2578 10.0183 34.5043 9.31569C31.5698 8.57944 28.6367 7.95149 25.635 7.5772C19.3599 6.77818 12.8945 6.57747 6.57758 6.68163C6.61146 6.5187 6.64535 6.35577 6.66118 6.19308C6.75217 6.246 6.86119 6.29868 6.95193 6.33354C7.15145 6.40303 6.99566 6.89256 6.85028 6.82233Z" fill="currentColor"/>
<path d="M9.19542 6.70025C8.96949 6.01734 7.79015 5.58212 7.22719 5.33706C6.53715 5.03958 5.86688 4.86819 5.12663 4.86022C4.36832 4.85251 3.66614 4.98845 2.9464 5.16073C2.60445 5.2376 2.2808 5.33228 1.95764 5.46305C1.65229 5.57553 0.860594 5.76684 0.701844 6.03978C0.13658 6.9501 2.10613 7.08573 2.63029 7.13274C3.37177 7.23095 4.14787 7.22037 4.88738 7.17419C5.7169 7.10872 6.54543 6.97106 7.3564 6.86975C7.98713 6.78894 9.0352 6.86491 9.55296 6.44265C9.53712 6.60534 9.52129 6.76802 9.50521 6.91266C9.48716 6.9129 9.46911 6.91315 9.45082 6.89535C9.28788 6.86147 9.40733 6.35437 9.57051 6.40631C9.58856 6.40606 9.60661 6.40581 9.62491 6.42361C9.80589 6.45725 9.64861 6.8385 9.57715 6.89363C8.93428 7.40786 7.63329 7.31727 6.84012 7.40029C5.7589 7.5414 4.71379 7.68201 3.6306 7.67872C2.85425 7.67125 -0.486276 7.60848 0.196719 6.06473C0.459334 5.46542 1.32273 5.23703 1.8793 5.01281C2.83072 4.62074 3.91095 4.40745 4.93949 4.37537C5.89584 4.34428 6.7471 4.5493 7.6191 4.95262C8.27305 5.25059 9.25359 5.67048 9.48027 6.40754C9.51833 6.55144 9.28936 6.96975 9.19542 6.70025Z" fill="currentColor"/>
<path d="M1.89041 5.82481C2.66233 5.5074 3.72796 5.54702 4.55698 5.44546C5.24186 5.36391 5.96135 5.17359 6.64795 5.21839C6.79259 5.23447 6.68872 5.56083 6.65337 5.61546C6.26539 6.28869 4.96365 6.14396 4.33218 6.17062C3.44828 6.21877 2.17 6.47088 1.31703 6.13951C1.13556 6.06978 1.27503 5.70683 1.40063 5.65096C2.31571 5.24134 3.59817 5.29607 4.58963 5.19229C5.00426 5.15053 6.06497 4.82918 6.30625 5.31331C6.38017 5.43866 6.31093 5.65623 6.20386 5.74795C5.81097 6.06019 2.96244 6.33371 2.75356 5.57836C2.48759 4.60717 6.17031 4.61111 6.64525 5.01984C6.75477 5.10861 6.66797 5.36253 6.597 5.45376C6.06414 6.09285 3.93142 5.90529 3.29356 5.46268C3.16598 5.37416 3.28839 5.08365 3.37765 5.01023C3.94882 4.53308 5.23251 4.67806 5.91935 4.7409C6.46156 4.78767 7.67231 4.87947 7.70069 5.63728C7.72785 6.30485 6.97028 6.35128 6.48321 6.37597C5.96004 6.40115 5.41832 6.39049 4.8949 6.39762C4.35343 6.405 3.63295 6.52314 3.10707 6.34979C2.94389 6.29786 3.06532 5.93515 3.15482 5.87977C3.83502 5.4553 5.00968 5.5476 5.78554 5.51897C6.43505 5.49207 7.73113 5.22167 8.2429 5.68406C8.37072 5.79063 8.26611 6.06284 8.15881 6.13651C7.65909 6.55853 6.75468 6.42643 6.12321 6.45309C5.29321 6.48246 4.28124 6.406 3.49028 6.65146C3.52417 6.48853 3.55805 6.32559 3.57389 6.1629C4.53245 6.29426 5.59389 6.02705 6.56755 5.94157C7.12657 5.89785 7.84681 5.76167 8.40903 5.95258C8.57221 6.00451 8.45079 6.36721 8.36128 6.42258C7.9857 6.68044 7.22567 6.54638 6.8103 6.53399C5.85322 6.51093 4.89589 6.46983 3.93905 6.46482C3.97293 6.30189 4.02486 6.1387 4.05875 5.97577C4.78267 6.11032 5.66608 6.02606 6.40609 6.01598C7.01951 5.98956 7.73876 5.78119 8.33634 5.91746C8.51757 5.96915 8.36054 6.36844 8.25274 6.40602C7.71398 6.61193 7.06397 6.60273 6.4869 6.64671C5.90983 6.69068 4.98736 6.55884 4.46763 6.83671C4.48347 6.67402 4.4993 6.51134 4.51538 6.3667C5.11419 6.59322 6.32372 6.59478 6.89809 6.35227C6.8642 6.5152 6.83032 6.67814 6.81448 6.84082C5.06005 6.59395 3.17352 7.2515 1.41662 6.82414C1.25369 6.79026 1.37413 6.35536 1.50023 6.33559C2.27485 6.21671 3.06925 6.22394 3.84536 6.21336C4.22439 6.20819 5.28607 5.95904 5.56173 6.31633C5.6537 6.44144 5.60348 6.73096 5.44178 6.78732C4.61522 7.06937 3.60325 6.9929 2.75495 7.00447C2.39397 7.00939 1.45641 7.09438 1.28782 6.64537C0.875981 5.56785 4.15917 5.39673 4.63188 5.64302C4.68652 5.67838 4.70531 5.73228 4.70605 5.78643C4.73024 6.2374 4.38879 6.35037 3.99319 6.46408C3.0937 6.69297 1.81468 6.89093 0.908055 6.5964C0.835613 6.57933 0.833889 6.45299 0.832905 6.38079C0.881885 6.00103 1.16846 5.83465 1.49137 5.68583C1.86794 5.50017 2.94226 4.85369 3.30791 5.1917C3.50891 5.36948 3.29749 5.75147 3.17312 5.89758C2.78194 6.33617 1.66562 6.54996 1.1568 6.30416C1.10216 6.2688 1.08338 6.2149 1.08264 6.16076C1.05278 5.29465 2.56446 4.94911 3.23375 5.0483C3.41473 5.08193 3.25795 5.49928 3.15015 5.53685C2.88089 5.64883 1.34993 5.90438 1.29947 6.17585C1.26559 6.33878 1.26485 6.28464 1.51803 6.3173C1.69901 6.35093 1.9334 6.32969 2.07632 6.21943C2.04219 6.36431 2.02635 6.527 1.99222 6.67188C1.77145 6.368 0.978283 6.45101 0.689992 6.49105C0.723876 6.32812 0.775808 6.16494 0.809937 6.02006C1.39439 6.51756 3.1298 6.69247 3.84905 6.48409C3.81516 6.64702 3.78128 6.80996 3.76545 6.97265C3.62007 6.90242 1.79319 6.63848 1.67005 6.87484C1.65052 6.76679 1.6488 6.64045 1.62927 6.5324C2.19297 6.8316 3.00345 6.69419 3.59882 6.66803C4.28468 6.65868 5.00737 6.70299 5.69102 6.5312C5.87102 6.49264 5.80547 6.98094 5.62547 7.01949C5.24792 7.13295 4.83279 7.13862 4.45376 7.14379C4.12888 7.14821 3.56789 7.04754 3.28206 7.26807C3.29789 7.10538 3.31373 6.9427 3.32981 6.79806C3.54787 6.9034 3.76495 6.93654 4.01715 6.897C3.98326 7.05993 3.94938 7.22287 3.93354 7.38555C3.28329 7.35831 2.55887 7.18767 1.9425 6.9975C1.45297 6.8417 0.979267 6.52321 0.45511 6.4762C0.292423 6.46037 0.413107 6.04351 0.50286 6.00619C0.932836 5.76564 1.86646 5.39187 2.33942 5.65621C2.4304 5.70913 2.36092 5.90865 2.34385 5.98109C2.13587 6.61575 0.814366 6.34493 0.331474 6.67646C0.384144 6.56743 0.418764 6.45864 0.471435 6.34961C0.461013 6.90937 1.75931 6.80142 2.04784 6.77943C2.01396 6.94236 1.98008 7.1053 1.96424 7.26798C1.52836 7.07535 0.98763 7.13688 0.569552 6.92595C0.424177 6.85572 0.509009 6.45741 0.653154 6.4374C1.1212 6.34075 1.40555 6.01194 1.85505 5.87944C2.41236 5.70938 3.06187 5.68247 3.63894 5.6385C4.55895 5.58985 6.03626 5.37114 6.83828 5.93788C6.94781 6.02665 6.86174 6.33471 6.75419 6.39034C6.12691 6.72383 4.89441 6.36153 4.56067 5.71619C4.5048 5.59059 4.55575 5.35522 4.66306 5.28155C5.14645 4.98612 5.78037 5.13995 6.30502 5.22306C6.73942 5.3074 7.71407 5.29411 8.00753 5.6331C8.1173 5.73992 8.03074 6.01188 7.92343 6.08555C7.24422 6.58222 5.5573 5.99144 4.95479 5.49419C4.84527 5.40542 4.93035 5.02517 5.07474 5.0232C5.77865 5.01361 6.53916 5.18376 7.2265 5.2827C7.64261 5.34924 8.4914 5.37378 8.78511 5.73082C8.89512 5.85569 8.80807 6.09155 8.70101 6.18328C8.20081 6.56919 7.36982 6.52636 6.77445 6.55252C5.85444 6.60117 4.93567 6.74006 4.03397 6.80651C4.0498 6.64382 4.06563 6.48114 4.09952 6.3182C5.50709 6.28096 6.93049 6.08105 8.33806 6.04381C8.5366 6.0411 8.453 6.52964 8.27251 6.5321C7.38836 6.56221 6.48739 6.68281 5.60422 6.78511C4.81105 6.86813 3.85471 6.89922 3.13742 7.25199C3.15326 7.0893 3.16909 6.92661 3.18517 6.78197C3.98326 7.05993 5.09861 6.77395 5.92787 6.69043C6.79299 6.58838 7.67616 6.48608 8.56007 6.43792C8.7586 6.43522 8.65646 6.88792 8.49451 6.92623C7.68501 7.13584 6.78036 6.9857 5.93329 7.08751C5.5367 7.12902 5.14061 7.20663 4.74427 7.26619C4.45598 7.30623 3.98646 7.29458 3.73599 7.46046C3.75182 7.29777 3.76766 7.13508 3.78374 6.99044C4.77741 7.04911 5.76617 6.7468 6.75788 6.66107C7.56934 6.59585 8.36325 6.56697 9.17545 6.5559C9.33789 6.55369 9.23624 7.04249 9.05575 7.04495C8.85721 7.04765 8.65867 7.05036 8.46014 7.05307C8.31575 7.05503 8.39934 6.56648 8.57983 6.56402C8.77837 6.56131 8.97691 6.55861 9.17545 6.5559C9.14157 6.71883 9.08963 6.88201 9.05575 7.04495C8.09891 7.03994 7.12476 7.08932 6.16964 7.21066C5.34062 7.31222 4.51308 7.52207 3.66404 7.47949C3.4833 7.4639 3.64033 7.06461 3.71179 7.00948C4.17688 6.69626 5.13372 6.70126 5.67445 6.63973C6.59347 6.51889 7.64277 6.68511 8.52421 6.45647C8.50838 6.61916 8.49254 6.78184 8.45866 6.94478C7.46646 6.99441 6.49354 7.13403 5.50208 7.23781C4.74501 7.32033 3.75527 7.55046 3.01182 7.30786C2.84864 7.25593 2.95201 6.89347 3.05957 6.83785C3.741 6.50362 4.57076 6.4562 5.30978 6.37392C6.28295 6.25234 7.27416 6.13052 8.24856 6.09918C8.23272 6.26187 8.21689 6.42456 8.18301 6.58749C6.77544 6.62473 5.36983 6.80635 3.94446 6.86189C3.74592 6.86459 3.82952 6.37605 4.01001 6.37359C4.82147 6.30837 5.6322 6.189 6.46196 6.14158C7.09318 6.09687 8.06954 6.20993 8.60535 5.78743C8.57122 5.93231 8.55539 6.095 8.52126 6.23988C8.26439 5.93649 7.39731 5.89415 7.0173 5.82712C6.34801 5.72793 5.6053 5.53949 4.93773 5.56664C4.97162 5.40371 5.02354 5.24053 5.05767 5.09565C5.55065 5.50413 7.25562 6.09467 7.82778 5.68972C7.79365 5.8346 7.77781 5.99729 7.74368 6.14217C7.50536 5.87463 6.7112 5.88546 6.36729 5.81793C5.84239 5.71678 5.09918 5.49223 4.59775 5.7879C4.63188 5.64302 4.66601 5.49813 4.70014 5.35325C4.95971 5.85517 6.12051 6.25455 6.63999 5.95863C6.60586 6.10352 6.59003 6.2662 6.5559 6.41109C6.13659 6.10991 5.39658 6.12 4.89096 6.10884C4.22291 6.0999 3.53705 6.10925 2.87022 6.19054C2.59973 6.21228 2.34779 6.26988 2.09559 6.30942C1.6634 6.38752 1.73609 6.42263 1.28856 6.69952C1.02004 6.86565 0.839795 6.88616 0.533701 6.94449C0.567585 6.78155 0.601468 6.61862 0.617303 6.45593C1.05343 6.66661 1.57611 6.60533 2.01199 6.79797C2.15737 6.86819 2.07278 7.28455 1.92839 7.28652C1.49571 7.32852 -0.364316 7.28167 0.182407 6.3355C0.3236 6.0989 0.630185 6.07667 0.882132 6.01907C1.06213 5.98052 2.05359 5.87674 2.08846 5.786C2.08993 5.89429 2.09141 6.00259 2.09289 6.11088C1.747 5.89897 0.74143 6.29177 0.472911 6.4579C0.488745 6.29521 0.504581 6.13253 0.520661 5.98789C1.06287 6.03466 1.48242 6.35388 2.00805 6.50919C2.62442 6.69936 3.34884 6.87001 3.9991 6.89725C4.16178 6.91308 4.05989 7.38383 3.91549 7.3858C3.64476 7.38949 3.42817 7.39245 3.15596 7.28785C2.99254 7.21786 3.11445 6.89125 3.20371 6.81783C3.81172 6.39434 4.91762 6.74031 5.61883 6.53218C5.60299 6.69487 5.58716 6.85755 5.55327 7.02048C4.79768 7.2113 3.9484 7.15067 3.17229 7.16125C2.63082 7.16864 1.9101 7.26872 1.41908 7.00463C1.31005 6.95196 1.32539 6.75317 1.37831 6.66219C1.51901 6.38949 1.68071 6.33313 2.00535 6.31065C2.54657 6.28522 3.33998 6.22025 3.81246 6.44848C3.97613 6.53651 3.87275 6.89897 3.72885 6.93704C2.97375 7.16396 1.18395 6.97173 0.562909 6.43863C0.453386 6.34986 0.538712 5.98765 0.682857 5.96764C1.04334 5.92662 1.87261 5.8431 2.11192 6.18283C2.20389 6.30795 2.15294 6.54332 2.02783 6.63529C1.68834 6.89265 0.785401 6.86885 0.741923 6.32788C0.675474 5.42617 2.6401 5.20081 3.17886 4.99489C3.14498 5.15782 3.1111 5.32076 3.09526 5.48344C2.51647 5.40107 1.61845 5.73825 1.208 6.08683C1.26067 5.9778 1.29529 5.86902 1.34796 5.75999C1.34993 5.90438 2.32285 5.76475 2.41285 5.74547C2.62894 5.70642 2.80845 5.63177 3.00576 5.53882C2.84405 5.59518 2.68235 5.65154 2.52016 5.67181C2.41236 5.70938 1.10093 6.17856 1.10216 6.2688C1.08313 6.19685 1.04605 6.12516 1.02702 6.05321C1.9156 6.34798 3.12241 6.151 4.00411 5.94041C4.03996 5.92187 4.3819 5.845 4.38166 5.82695C4.47338 5.93402 3.95094 6.01335 3.91485 6.01384C3.41046 6.09292 2.88655 6.06396 2.38265 6.17914C2.23875 6.21721 1.91437 6.25774 1.7895 6.36775C1.71829 6.44093 1.64486 6.35167 1.89829 6.40237C2.22415 6.47014 2.53098 6.46595 2.85586 6.46152C3.70416 6.44996 4.68028 6.54497 5.48855 6.24511C5.45467 6.40805 5.40273 6.57123 5.3686 6.71611C5.16662 6.46614 3.99565 6.64457 3.70687 6.64851C2.94882 6.65884 2.17246 6.65137 1.43393 6.76975C1.46782 6.60682 1.5017 6.44388 1.51754 6.2812C3.27468 6.7266 5.16121 6.06906 6.9154 6.29788C7.11443 6.33127 6.9396 6.74886 6.8318 6.78643C6.20353 7.04773 5.01181 7.02786 4.37689 6.80184C4.21372 6.7499 4.31709 6.38745 4.42464 6.33183C4.92657 6.07226 5.63196 6.17095 6.19123 6.14527C6.85854 6.10007 7.63514 6.12559 8.28171 5.8821C8.24782 6.04503 8.21394 6.20797 8.1981 6.37065C7.54613 6.21707 6.68298 6.46351 6.01517 6.47261C5.32931 6.48196 4.59028 6.56425 3.9205 6.42896C3.73952 6.39533 3.87776 5.94213 4.0402 5.93992C4.7985 5.94763 5.53876 5.9556 6.29731 5.98136C6.80317 6.01057 7.8893 6.23044 8.31854 5.93575C8.3027 6.09844 8.28687 6.26113 8.27079 6.40577C7.59954 6.16219 6.64565 6.37377 5.94248 6.43751C5.11321 6.52102 4.28566 6.73087 3.45369 6.61585C3.27271 6.58221 3.42949 6.16487 3.53729 6.1273C4.2202 5.90136 5.10583 5.97954 5.84535 5.93336C6.49486 5.90645 7.5983 6.07193 8.13387 5.63138C8.09974 5.77626 8.0839 5.93895 8.04977 6.08383C7.81243 5.88849 7.39755 5.9122 7.10877 5.91614C6.54901 5.90571 5.97193 5.94969 5.41266 5.97536C4.76314 6.00227 3.73337 5.9441 3.16048 6.29491C3.17632 6.13222 3.19215 5.96953 3.20823 5.82489C3.73411 5.99825 7.12805 6.00614 7.21411 5.69808C7.36892 5.13635 3.82961 5.05823 3.3655 5.44365C3.39963 5.29877 3.41547 5.13608 3.4496 4.9912C3.79573 5.22116 4.39183 5.24914 4.7894 5.27983C5.18697 5.31051 6.18138 5.42332 6.48305 5.04011C6.46697 5.18475 6.45089 5.32938 6.43481 5.47402C5.94134 5.02944 4.93379 5.27786 4.35697 5.33988C3.97843 5.38114 3.18403 5.37391 2.88089 5.64883C2.91527 5.522 2.96769 5.39492 3.00207 5.26808C3.04038 5.43003 4.0882 5.48795 4.23284 5.50403C4.75675 5.533 5.73287 5.62801 6.16137 5.27917C6.12724 5.42406 6.09311 5.56894 6.05898 5.71383C5.85527 5.33751 4.14579 5.7399 3.78531 5.78092C2.99214 5.86394 2.0531 5.84064 1.33532 6.15731C1.36921 5.99438 1.40309 5.83145 1.41893 5.66876C2.12677 5.94795 3.117 5.75393 3.87481 5.72554C4.41603 5.70011 6.16948 5.87479 6.48698 5.32889C6.48871 5.45523 6.49067 5.59963 6.4924 5.72597C5.73336 5.66411 4.90606 5.89201 4.14924 5.99259C3.41021 6.07487 2.48898 6.03327 1.80706 6.3314C1.68145 6.38727 1.72896 5.89922 1.89041 5.82481Z" fill="currentColor"/>
<path d="M16.8117 6.56028C16.8105 5.15222 15.4305 3.23943 14.4614 2.33197C13.9677 1.86934 13.4028 1.47989 12.7674 1.21777C12.5132 1.11292 11.5695 0.746688 11.3378 0.966474C11.269 1.22014 11.2001 1.45576 11.1133 1.70967C11.2423 1.90649 11.3711 2.08526 11.5182 2.28183C12.2342 3.15663 13.1833 3.91995 14.1302 4.52082C14.6946 4.87417 15.2947 5.19092 15.8769 5.52598C16.3135 5.77276 16.8585 6.01806 17.1887 6.41071C17.1185 6.55609 17.0483 6.70147 16.9781 6.84684C16.9598 6.82904 16.9595 6.81099 16.9412 6.79319C16.8493 6.66808 17.0414 6.1961 17.1704 6.39291C17.1887 6.41072 17.189 6.42876 17.2073 6.44656C17.2812 6.57192 17.1066 7.00756 16.9966 6.8827C16.5009 6.27568 15.5577 5.94554 14.8847 5.57561C14.0844 5.13521 13.3373 4.62188 12.6252 4.03586C11.9132 3.44984 10.1799 2.1015 10.7783 0.974101C11.4996 -0.407705 13.7954 1.1496 14.5262 1.78952C15.2024 2.39408 15.6825 3.18183 16.1621 3.93349C16.6051 4.64954 17.0864 5.52755 17.0802 6.39414C17.1005 6.55634 16.8161 6.88516 16.8117 6.56028Z" fill="currentColor"/>
<path d="M11.7193 2.47755C11.683 2.45999 11.6464 2.42438 11.61 2.40682C11.4825 2.3183 11.6041 1.97365 11.73 1.93583C12.2875 1.78382 13.0329 2.1708 13.5766 2.32586C13.9754 2.44679 14.6269 2.56427 14.8128 2.95889C14.8687 3.08449 14.8177 3.31987 14.7104 3.39354C13.8151 3.92926 12.3181 2.70406 11.7139 2.08047C11.5124 1.86659 11.3287 1.63441 11.4509 1.32586C11.5901 0.94486 11.9699 0.993845 12.3133 1.02527C12.8553 1.05399 14.72 1.44376 14.2274 2.38919C14.0164 2.80727 13.4379 2.74295 13.0752 2.62153C12.5857 2.46573 11.7507 2.13412 11.4558 1.68684C11.3819 1.56148 11.4684 1.28951 11.594 1.23364C12.0972 1.06431 14.2487 1.30577 14.2954 2.08139C14.343 2.92919 12.8015 2.40863 12.5271 2.14159C12.4173 2.03477 12.5024 1.65452 12.6831 1.6701C13.0987 1.70054 13.5361 2.00147 13.8998 2.19509C14.1725 2.33579 14.4086 2.44088 14.5925 2.69111C14.6479 2.78061 14.5984 3.12428 14.4543 3.1443C13.9133 3.18778 13.4203 2.7793 12.9659 2.55082C12.5115 2.32233 11.8593 2.15069 11.4931 1.77659C11.4014 1.66952 11.4509 1.32586 11.6131 1.3056C11.9375 1.26507 12.2463 1.40527 12.5546 1.50938C12.7358 1.56107 12.5981 2.05036 12.4349 1.99843C12.1449 1.91212 11.5275 1.64975 11.2419 1.88832C11.2946 1.77929 11.3292 1.67051 11.3819 1.56147C11.3848 1.77806 11.7446 1.68289 11.4741 1.70463C11.33 1.72465 10.9665 1.54909 10.768 1.5518C10.5694 1.5545 10.653 1.06595 10.8335 1.06349C11.2304 1.04003 11.9313 0.813848 12.1894 1.20748C12.2633 1.33284 12.1775 1.65894 12.0148 1.64311C11.9607 1.64385 11.3816 1.54343 11.4697 1.37975C11.4521 1.4161 11.6729 1.71998 11.6917 1.77388C11.7656 1.89924 12.3747 2.88381 12.713 2.53621C12.6967 2.66279 12.6625 2.80768 12.6462 2.93427C12.4427 2.576 11.6417 2.08145 11.2456 2.15906C11.2988 2.08612 11.3519 2.0132 11.4051 1.94026C11.2498 2.4659 13.6953 3.08243 13.9882 3.38533C14.1163 3.50995 13.9241 3.98193 13.7958 3.83926C13.2282 3.25127 10.7711 3.10425 11.1695 1.87126C11.1865 1.79882 11.239 1.67174 11.329 1.65246C11.8331 1.55532 12.6532 2.12182 12.9115 2.5335C12.9671 2.64105 12.9157 2.84033 12.8447 2.93156C12.2575 3.55334 11.5359 2.26341 11.3502 1.88685C11.239 1.67173 11.1275 1.43858 11.2506 1.20222C11.4615 0.78414 11.8272 1.12215 12.1884 1.13528C12.1362 1.28041 12.066 1.42579 12.0138 1.57092C11.848 1.32045 11.0924 1.51126 10.8399 1.53276C10.8558 1.37007 10.8716 1.20739 10.9055 1.04446C11.3747 1.03806 11.8804 1.04922 11.9965 1.62531C12.0356 1.8414 11.95 2.18556 11.6978 2.2251C11.3198 2.30247 11.097 1.8542 11.2372 1.5454C11.465 1.03683 12.2999 1.36844 12.6626 1.48986C12.6287 1.65279 12.5768 1.81597 12.5429 1.97891C12.271 1.89235 11.9441 1.75239 11.6736 1.77413C11.7075 1.61119 11.7594 1.44802 11.7936 1.30314C12.1417 1.67749 12.7575 1.83156 13.1937 2.04224C13.6117 2.25317 14.1228 2.66141 14.6098 2.63672C14.5577 2.78185 14.5055 2.92698 14.4716 3.08991C14.2135 2.69628 13.1598 2.20517 12.672 2.17572C12.7239 2.01254 12.7758 1.84937 12.828 1.70424C12.9558 1.81081 14.0632 2.26507 14.2046 2.04652C14.1881 2.15506 14.1718 2.28164 14.1552 2.39018C13.949 1.83337 12.1402 1.56919 11.6551 1.73827C11.7073 1.59314 11.7594 1.44801 11.7933 1.28508C11.9407 1.4997 13.7603 2.55804 14.0081 2.19361C14.1849 1.92042 12.5912 1.54499 12.4285 1.52916C12.338 1.51234 12.157 1.4787 12.0853 1.51578C11.9055 1.57239 11.9582 1.46336 12.0326 1.62482C12.1068 1.76822 12.3795 1.90892 12.5071 1.99744C13.0178 2.38763 14.1324 3.36531 14.8484 2.9223C14.8143 3.06718 14.7802 3.21207 14.746 3.35695C14.5601 2.96234 13.7282 2.84731 13.3657 2.74394C12.9306 2.60545 12.2944 2.28918 11.8269 2.42192C11.8608 2.25898 11.9127 2.09581 11.9468 1.95093C11.9832 1.96848 12.0197 2.00409 12.0561 2.02165C12.039 2.09409 11.8832 2.58363 11.7193 2.47755Z" fill="currentColor"/>
<path d="M11.5531 2.19102C11.406 1.99445 11.4245 2.03031 11.3313 1.81495C11.2755 1.68935 11.3274 1.52617 11.3981 1.41689C12.1439 0.504109 14.2214 1.93803 14.3061 2.85754C14.3073 2.94778 14.2564 3.18315 14.1303 3.20292C13.5893 3.2464 12.9729 3.05623 12.5002 2.80994C12.3366 2.72191 12.4746 2.25067 12.6199 2.3209C13.4734 2.68836 14.6705 3.10531 15.3477 3.78206C15.4575 3.88888 15.3719 4.23303 15.2277 4.25305C14.2739 4.46463 13.3552 3.2857 12.3986 3.29874C12.4505 3.13556 12.5025 2.97239 12.5546 2.82726C12.9747 3.18258 13.4659 3.46471 13.9391 3.7471C14.3031 3.95876 14.8287 4.11407 15.0324 4.49039C15.088 4.59795 15.0383 4.92357 14.8942 4.94358C14.5337 4.9846 14.2049 4.70025 13.9136 4.5237C13.4038 4.20571 12.8401 3.9065 12.3835 3.51558C12.2557 3.40901 12.3939 2.95581 12.5759 3.06165C13.2128 3.43206 13.7596 3.82176 14.3258 4.30145C14.7092 4.62117 15.2912 4.93817 15.5498 5.3679C15.6235 5.47521 15.5382 5.83742 15.3753 5.80353C14.7962 5.70311 14.2476 5.18708 13.8454 4.81346C13.7539 4.72445 13.8046 4.47102 13.8936 4.37955C14.2321 4.04999 15.5615 4.89839 15.8891 5.0925C15.8369 5.23763 15.7667 5.38299 15.7145 5.52812C15.3461 4.99158 14.6 4.55045 14.1067 4.12392C13.7962 3.85736 13.3413 3.59278 13.2096 3.19743C13.1722 3.10767 13.2578 2.76351 13.4027 2.79764C14.1454 2.98609 14.8035 3.5909 15.4053 4.034C15.3351 4.17938 15.2831 4.34256 15.2129 4.48793C14.7175 3.89896 14.0064 3.38514 13.6183 2.7225C13.5444 2.59714 13.6129 2.32542 13.7565 2.26931C14.2241 2.13657 14.9183 2.74088 15.0505 3.17233C15.0698 3.26233 14.9852 3.67868 14.8211 3.55455C14.4742 3.27044 14.1449 2.95 13.8158 2.64759C13.688 2.54102 13.8092 2.16028 13.9719 2.17611C14.4416 2.20581 15.1151 2.61183 15.2837 3.06084C15.321 3.15059 15.2728 3.5845 15.1091 3.49647C14.6008 3.28677 14.0512 2.69854 13.6309 2.32517C13.5212 2.21836 13.6243 1.83785 13.787 1.85368C14.3292 1.90045 15.2246 2.70059 15.1067 3.31598C15.1072 3.35208 15.0211 3.66014 14.9118 3.58942C14.5845 3.41336 14.2559 3.14706 14.0354 2.86123C13.9437 2.75417 14.0275 2.28366 14.2278 2.4073C14.8463 2.75991 16.4882 4.01924 16.031 4.91004C16.0132 4.92833 15.96 5.00127 15.9239 5.00176C15.3825 5.00914 14.668 4.24263 14.4274 3.81265C14.3716 3.68705 14.4393 3.36118 14.602 3.37701C15.4152 3.43814 16.2044 4.38415 16.5747 5.06509C16.6486 5.19045 16.5801 5.46217 16.4364 5.51828C15.735 5.70837 14.466 3.99265 14.2781 3.45364C14.2403 3.32779 14.2552 3.09291 14.3805 3.01899C14.7746 2.79699 15.3954 3.31205 15.4909 3.68985C15.5104 3.7979 15.4607 4.12351 15.2977 4.08962C14.9719 4.02186 14.6609 3.71921 14.4586 3.45118C14.385 3.34387 14.4705 2.99971 14.6332 3.01554C15.0849 3.04549 15.6511 3.52519 15.8011 3.93834C15.839 4.06419 15.8065 4.33542 15.6629 4.39154C15.249 4.48744 14.4952 3.48679 14.4898 3.08971C14.4886 2.99947 14.5388 2.70994 14.6837 2.74407C15.2808 2.84425 15.8125 3.45078 16.0904 3.97051C16.146 4.07806 16.0617 4.51247 15.8797 4.40664C15.4246 4.12401 15.0404 3.75015 14.7098 3.33945C14.6364 3.25019 14.6842 2.78017 14.8659 2.86796C15.4652 3.13057 16.4546 4.20022 16.5181 4.88534C16.5813 5.55241 16.0033 5.52419 15.6018 5.20472C15.4739 5.09815 15.5951 4.71741 15.7578 4.73324C16.1551 4.74588 16.5915 4.9746 16.7233 5.36996C16.7611 5.49581 16.6921 5.73143 16.5662 5.76925C16.3328 5.86269 16.1148 5.75735 16.0213 5.52394C15.984 5.43419 16.0144 5.01858 16.1959 5.08831C16.3952 5.13975 16.5045 5.21048 16.5972 5.38973C16.6711 5.51509 16.5845 5.78706 16.4589 5.84293C16.2255 5.93637 16.0255 5.83078 15.825 5.68909C15.7155 5.60032 15.8006 5.22007 15.9449 5.2181C16.2513 5.17782 16.5791 5.38998 16.7091 5.65899C16.7648 5.76655 16.7151 6.09217 16.5709 6.11218C16.2824 6.13417 16.065 6.08297 15.846 5.90544C15.7365 5.81667 15.8567 5.36372 16.002 5.43394C16.2925 5.55635 16.5472 5.6973 16.8021 5.8563C16.9294 5.92677 16.8265 6.32532 16.6822 6.32729C16.628 6.32802 16.5919 6.32852 16.5378 6.32925C16.3395 6.35001 16.4228 5.84342 16.6033 5.84096C16.6575 5.84022 16.6936 5.83973 16.7477 5.83899C16.7138 6.00192 16.6619 6.1651 16.6278 6.30998C16.3909 6.15074 16.1546 6.02759 15.8823 5.92299C15.9343 5.75981 15.9862 5.59664 16.0384 5.45151C16.203 5.61173 16.4023 5.66317 16.6365 5.62388C16.5843 5.76901 16.5321 5.91414 16.4982 6.07707C16.4053 5.87976 16.1143 5.72125 15.8979 5.74225C15.9318 5.57932 15.9837 5.41615 16.0179 5.27126C16.164 5.39564 16.3269 5.42952 16.525 5.39072C16.4728 5.53585 16.4206 5.68098 16.3867 5.84391C16.2955 5.77295 16.1862 5.70222 16.095 5.63126C16.1472 5.48613 16.2174 5.34075 16.2696 5.19562C16.3967 5.24804 16.5057 5.30072 16.6328 5.35314C16.5803 5.48022 16.5282 5.62536 16.4757 5.75244C16.3816 5.46488 15.892 5.30909 15.6393 5.31253C15.6913 5.14935 15.7432 4.98617 15.7954 4.84104C16.5072 5.40901 15.8822 4.58712 15.6802 4.33715C15.4233 4.03376 15.1108 3.62281 14.7477 3.46529C14.7996 3.30211 14.8515 3.13894 14.9037 2.99381C15.2342 3.40451 15.6365 3.77812 16.0736 4.061C16.0034 4.20637 15.9331 4.35175 15.8629 4.49713C15.6221 4.0491 15.1086 3.46037 14.5657 3.35946C14.6364 3.25018 14.7069 3.12285 14.7595 3.01382C14.762 3.19431 15.5141 4.06863 15.7119 4.01177C15.6597 4.1569 15.6075 4.30203 15.5736 4.46497C15.4424 4.10571 14.8767 3.66211 14.5155 3.64898C14.5677 3.50385 14.6379 3.35848 14.6901 3.21335C14.8372 3.40992 15.1662 3.71232 15.4194 3.74498C15.3489 3.8723 15.2967 4.01744 15.2263 4.14476C15.1875 3.94672 14.6396 3.48482 14.4069 3.63241C14.4411 3.48753 14.4752 3.34264 14.5093 3.19776C14.6594 3.61091 15.9106 5.34494 16.504 5.17438C16.4518 5.31951 16.3996 5.46463 16.3657 5.62757C16.0142 5.00053 15.2438 4.10841 14.5028 4.0463C14.555 3.90117 14.6252 3.7558 14.6774 3.61068C14.7699 3.77189 15.7027 4.66178 15.6846 4.66202C15.8629 4.49712 14.2381 3.16535 14.0561 3.05952C14.1264 2.91414 14.1783 2.75096 14.2485 2.60559C14.4505 2.85557 14.7974 3.13968 15.0703 3.29843C14.9994 3.38966 14.9284 3.48089 14.8755 3.57187C14.9598 3.13746 13.977 2.55513 13.7058 2.52272C13.7578 2.35954 13.8097 2.19637 13.8619 2.05124C14.2453 2.37096 14.8317 3.01284 15.2854 3.18718C15.2333 3.33231 15.163 3.47769 15.1108 3.62282C14.9791 3.22746 14.27 2.85802 13.9088 2.8449C13.9607 2.68172 14.0127 2.51854 14.0648 2.37341C14.3939 2.67582 14.7232 2.99626 15.0701 3.28037C14.9996 3.4077 14.9111 3.53528 14.8406 3.66261C14.7459 3.33895 14.0534 2.86098 13.7478 2.95541C13.8 2.81028 13.8522 2.66515 13.8861 2.50222C14.2376 3.12926 14.9667 3.64283 15.4255 4.1962C15.5173 4.30326 15.4154 4.77401 15.2332 4.65013C14.6497 4.22483 14.0099 3.63783 13.2852 3.44913C13.3557 3.3218 13.4079 3.17667 13.4783 3.04935C13.6289 3.4986 14.5201 3.99192 14.8673 4.29407C15.2324 4.59598 15.6878 4.89666 15.9457 5.27225C16.0011 5.36175 15.9167 5.79615 15.7711 5.70788C15.6438 5.6374 14.0978 4.79197 13.9729 4.90199C13.989 4.75735 14.0051 4.61271 14.0212 4.46807C14.4051 4.82388 14.9537 5.33992 15.4964 5.42279C15.4443 5.56792 15.374 5.7133 15.3218 5.85843C15.0447 5.39284 14.3356 5.02341 13.9336 4.66784C13.4407 4.25936 12.9487 3.92307 12.403 3.62362C12.4732 3.47824 12.5252 3.31507 12.5954 3.16969C12.9059 3.43624 13.2879 3.64766 13.6521 3.87738C13.9799 4.08954 14.5827 4.60484 14.9973 4.56308C14.9451 4.70821 14.8929 4.85334 14.8591 5.01628C14.6556 4.658 13.9304 4.43321 13.6026 4.22105C13.2021 3.97378 12.7835 3.72675 12.4364 3.42459C12.3086 3.31802 12.43 2.95532 12.5924 2.9531C13.5129 2.94055 14.4314 4.10143 15.3494 3.9084C15.3155 4.07133 15.2636 4.23451 15.2295 4.3794C14.5523 3.70264 13.4279 3.32081 12.5564 2.95359C12.5902 2.79066 12.6422 2.62749 12.676 2.46456C13.1124 2.69329 13.7651 2.90102 14.2339 2.85852C14.1812 2.96755 14.1288 3.09463 14.0581 3.20391C13.9951 2.55488 12.0461 1.28169 11.5138 1.95688C11.5301 1.83029 11.5642 1.68541 11.5806 1.55882C11.6362 1.66637 11.6916 1.75588 11.7472 1.86344C11.8377 1.88026 11.6453 2.33418 11.5531 2.19102Z" fill="currentColor"/>
<path d="M21.0966 7.04358C19.7261 7.15252 18.2213 8.00344 17.0204 8.63359C16.429 8.94854 15.6212 9.28449 15.2503 9.88527C14.597 10.9593 16.0075 11.1386 16.7092 10.9666C18.095 10.6588 19.0332 9.29214 19.7765 8.19887C20.1303 7.67053 20.8553 6.55945 21.5414 6.56815C21.6678 6.56643 21.5998 6.87425 21.5822 6.91059C21.5646 6.94694 21.5471 6.98328 21.5295 7.01962C21.3713 7.32867 21.2229 7.04186 21.3283 6.82379C21.3458 6.78745 21.3634 6.7511 21.381 6.71475C21.4005 6.8228 21.4022 6.94915 21.4217 7.0572C21.151 7.06089 20.5818 7.68242 20.404 7.88342C20.066 8.24908 19.837 8.6674 19.5537 9.06841C19.1464 9.65164 18.684 10.1634 18.1487 10.622C17.5956 11.0989 16.9688 11.4685 16.2293 11.5147C15.7783 11.5389 14.9478 11.5322 14.7602 11.0112C14.4403 10.0588 15.4558 9.07012 16.1541 8.6454C16.8523 8.22068 17.6054 7.84936 18.341 7.51439C19.2202 7.12331 20.1702 6.62295 21.1261 6.55576C21.3604 6.53452 21.259 7.04137 21.0966 7.04358Z" fill="currentColor"/>
<path d="M19.583 7.24443C19.6008 7.22613 19.6366 7.20758 19.6544 7.18929C19.8332 7.06048 19.7854 7.5305 19.6964 7.62197C19.2684 8.00691 18.7131 8.32137 18.2304 8.67094C17.7297 9.02076 17.23 9.44277 16.6739 9.70308C16.6898 9.54039 16.7056 9.3777 16.7395 9.21477C17.5117 8.91541 18.2255 8.30996 18.9055 7.86743C19.1381 7.71984 20.209 6.82069 20.5178 6.9609C20.6815 7.04893 20.5593 7.35748 20.4701 7.4309C19.685 8.10954 18.8075 8.62697 17.8936 9.12684C17.5712 9.31175 17.2498 9.56887 16.9088 9.71794C16.4606 9.94068 17.0144 9.51792 17.1573 9.40766C17.4427 9.15104 18.1063 8.8351 18.1731 8.43704C18.1921 8.50899 18.2292 8.58069 18.2482 8.65264C17.8667 8.47731 16.578 9.28919 16.2934 9.59996C15.7415 10.1671 16.8527 9.57428 17.0673 9.42693C17.568 9.07711 18.0311 8.6195 18.3489 8.09165C18.3506 8.21799 18.3343 8.34458 18.336 8.47092C17.8069 8.06293 16.1412 9.02435 15.8588 9.49756C15.5415 10.0615 16.3651 9.56287 16.562 9.43382C16.9017 9.19451 17.2239 8.99154 17.5082 8.66272C17.5102 8.80712 17.4941 8.95175 17.4963 9.11419C17.3156 9.09861 15.1934 9.68715 15.5967 10.133C15.7433 10.2934 16.462 10.049 16.6415 9.97431C17.0186 9.82475 17.6103 9.52785 17.9132 9.23488C17.8968 9.36147 17.8627 9.50635 17.8464 9.63294C17.7527 9.38149 17.1422 9.62449 16.9808 9.6989C16.7652 9.77405 15.7955 10.1483 16.0864 10.3068C16.5411 10.5533 17.8837 9.7227 18.15 9.39413C18.1339 9.53876 18.1179 9.6834 18.1018 9.82803C17.7915 9.57953 15.4916 10.3691 15.567 10.6027C15.6429 10.8725 17.3474 10.1091 17.383 10.0725C17.385 10.2169 17.3689 10.3615 17.3711 10.524C17.1362 10.5091 16.5426 10.6616 16.3824 10.8263C16.5248 10.6799 16.8502 10.7116 16.9918 10.5111C16.9936 10.6374 16.9955 10.7818 16.9973 10.9082C16.5428 10.6797 15.107 11.295 15.2391 10.3906C15.3381 9.70324 16.3615 9.29214 16.9185 9.10402C17.3678 8.95348 17.7129 9.11124 17.4127 9.60275C17.1301 10.0579 16.1075 10.5232 15.636 10.3671C15.5816 10.3498 15.5625 10.2778 15.5618 10.2237C15.4803 9.53883 16.3409 9.1119 16.8426 8.83427C17.2906 8.59349 18.6679 7.65405 19.1082 8.17156C19.4014 8.4925 19.0668 9.11084 18.872 9.38429C18.3762 10.0951 17.3207 10.7955 16.4368 10.8436C16.3826 10.8443 16.346 10.8087 16.3272 10.7548C16.2262 9.96191 18.0771 9.34096 18.5988 9.20749C18.7427 9.16942 18.71 9.4226 18.6927 9.47699C18.4511 10.2926 17.4045 10.325 16.9804 10.9987C16.9787 10.8723 16.995 10.7457 16.9933 10.6194C17.2846 10.796 18.4079 9.76971 18.5679 9.587C18.5698 9.73139 18.5718 9.87578 18.574 10.0382C18.1608 10.1883 17.606 10.5388 17.3036 10.8679C17.3016 10.7235 17.2997 10.5791 17.2974 10.4167C17.5682 10.413 18.6596 9.69407 18.782 9.40356C18.8015 9.51161 18.8393 9.63746 18.8588 9.74551C18.5886 9.7853 18.4818 9.89506 18.3213 10.0417C18.1428 10.1885 18.2086 9.71827 18.244 9.66363C18.3671 9.42727 19.0629 8.82206 18.9882 8.64255C18.9507 8.53475 18.8441 8.66257 18.6836 8.80918C18.4873 8.97432 18.3463 9.22898 18.1864 9.41168C18.1663 9.26753 18.1463 9.12339 18.1444 8.979C18.4658 8.72189 18.7867 8.42867 19.053 8.1001C19.0731 8.24424 19.0931 8.38839 19.095 8.53278C18.5944 8.8826 17.8607 9.36196 17.4886 9.8725C17.4866 9.72811 17.4847 9.58371 17.4825 9.42127C18.2185 9.1224 19.2741 8.42203 19.7525 7.76562C19.7725 7.90977 19.7926 8.05392 19.7945 8.19831C19.366 8.54715 18.5449 9.22627 18.3537 9.77044C18.3342 9.6624 18.3325 9.53606 18.313 9.42801C18.8027 9.60186 19.9016 8.10659 20.2401 7.77704C20.4537 7.5575 20.4065 8.0636 20.3177 8.17312C19.8924 8.75659 19.3942 9.2869 18.9506 9.85257C18.9306 9.70842 18.9105 9.56428 18.9086 9.41989C19.4261 8.97958 19.8126 8.19806 20.1479 7.63387C20.1677 7.75996 20.2055 7.88582 20.2252 8.01192C19.8667 8.19733 19.5463 8.52664 19.3158 8.83667C19.296 8.71057 19.258 8.56667 19.2382 8.44057C19.6296 8.02003 20.0567 7.5629 20.3932 7.08895C20.4132 7.2331 20.4332 7.37725 20.4352 7.52164C20.0774 7.7612 19.7567 8.07246 19.4175 8.34787C19.0607 8.65962 18.5053 8.97408 18.2215 9.339C18.2015 9.19485 18.1814 9.0507 18.1795 8.90631C18.7338 8.51966 19.3218 7.95202 19.7296 7.40489C19.7315 7.54928 19.7154 7.69392 19.7177 7.85636C19.3564 7.84323 18.5692 8.35943 18.2836 8.598C18.2816 8.45361 18.2794 8.29117 18.2594 8.14702C18.815 7.85061 19.3513 7.46421 19.87 7.11414C19.8542 7.27683 19.8564 7.43927 19.8403 7.5839C19.1759 7.84569 18.6055 8.37698 17.9226 8.60292C17.7429 8.65953 17.8448 8.18878 17.9523 8.13316C18.5791 7.76357 19.0776 7.25131 19.7044 6.88172C19.6885 7.04441 19.6908 7.20685 19.6747 7.35148C19.2066 7.44813 18.7984 7.95916 18.4413 8.25286C17.9597 8.67463 17.478 9.09639 17.0512 9.57157C16.6776 9.97381 16.5394 10.427 16.3112 10.8995C16.2234 11.0812 16.2063 11.1536 16.0817 11.2817C15.8324 11.5378 15.313 11.8338 15.1444 11.3847C14.9763 10.9718 15.3677 10.5513 15.5986 10.2774C15.6187 10.4215 15.6387 10.5656 15.6406 10.71C15.1929 10.9689 14.8489 10.9014 15.0577 10.3208C15.3007 9.61348 16.0732 9.33218 16.7427 9.44942C16.9056 9.4833 16.804 9.97209 16.623 9.93845C16.2974 9.88873 15.8998 9.85806 15.6503 10.0961C15.5967 10.133 15.3835 10.3886 15.6164 10.2591C15.8313 10.1298 15.7294 10.6005 15.6584 10.6918C15.2851 11.112 15.8275 11.1769 16.057 10.7946C16.1277 10.6853 16.1067 10.469 16.1589 10.3239C16.3152 9.87045 16.6534 9.52284 16.9556 9.17573C17.3826 8.7186 17.8462 8.29708 18.3101 7.89361C18.7203 7.52697 19.1822 6.9791 19.7219 6.84538C19.92 6.80657 19.7998 7.25952 19.6922 7.31514C19.0652 7.66668 18.567 8.19699 17.9402 8.56658C17.956 8.40389 17.9538 8.24145 17.9699 8.09682C18.6528 7.87088 19.2234 7.35764 19.8876 7.0778C20.0671 7.00314 19.9654 7.49194 19.8579 7.54756C19.3211 7.89787 18.8026 8.26599 18.2472 8.58045C18.0321 8.69169 18.1338 8.2029 18.223 8.12947C18.5979 7.81747 19.2954 7.3386 19.801 7.34976C19.9635 7.34755 19.8242 7.72854 19.7891 7.80123C19.3458 8.38495 18.7575 8.93454 18.1676 9.35778C17.953 9.50512 18.0544 8.99827 18.1256 8.92509C18.3916 8.57847 18.8397 8.33769 19.1787 8.04423C19.5711 7.69589 19.963 7.31145 20.4105 7.03456C20.6254 6.90527 20.5057 7.39432 20.4525 7.46725C20.0977 7.92339 19.6889 8.39832 19.2975 8.81886C19.0839 9.0384 19.1311 8.5323 19.2199 8.42277C19.4679 8.0764 19.8242 7.72854 20.2006 7.52484C20.4157 7.41359 20.3311 7.82994 20.2779 7.90288C19.8899 8.5761 19.4852 9.33982 18.8964 9.85331C18.7182 10.0182 18.7832 9.49381 18.8544 9.42063C19.298 8.85496 19.7782 8.3249 20.2216 7.74118C20.2413 7.86728 20.2794 8.01118 20.2992 8.13728C19.9607 8.46683 18.7372 10.0902 18.1567 9.88145C18.0298 9.84707 18.0808 9.6117 18.1159 9.53901C18.377 8.83141 19.1623 8.17082 19.7518 7.71148C19.9484 7.56438 19.847 8.07123 19.7938 8.14417C19.28 8.85521 18.1883 9.55608 17.3806 9.89203C17.183 9.96693 17.339 9.49545 17.3744 9.44081C17.7641 8.89393 18.498 8.43261 19.0343 8.0462C19.2489 7.89886 19.1475 8.40571 19.0763 8.47889C18.7922 8.82575 18.4534 9.13726 18.0964 9.43096C17.9178 9.57782 17.9834 9.08951 18.0544 8.99828C18.3031 8.70605 18.7794 7.8872 19.2689 8.043C19.3052 8.06056 19.3238 8.09641 19.3423 8.13226C19.4602 8.83469 18.6554 9.38724 18.3559 9.93289C18.3362 9.80679 18.2983 9.68093 18.2786 9.55484C18.4927 9.3714 18.5995 9.26164 18.8881 9.23965C19.0503 9.21939 19 9.5089 18.9649 9.58159C18.8428 9.89014 18.5203 10.0751 18.2521 10.2592C17.9482 10.48 17.6107 10.8818 17.2136 10.8872C17.0151 10.8899 17.1184 10.5274 17.2074 10.436C17.563 10.034 18.0998 9.68365 18.621 9.51407C18.8186 9.43917 18.6803 9.89236 18.6272 9.9653C18.3426 10.2761 17.2561 11.356 16.7826 11.0555C16.6734 10.9848 16.7604 10.7489 16.7955 10.6763C16.9545 10.4214 17.0974 10.3111 17.3299 10.1454C17.5803 9.97956 18.3166 9.69874 18.403 9.40873C18.4403 9.49848 18.4596 9.58848 18.4971 9.69629C18.0652 9.79244 17.6535 10.0508 17.2589 10.2367C17.1872 10.2738 16.7758 10.5502 16.6853 10.5333C16.6494 10.5519 16.5958 10.5887 16.5599 10.6072C16.5387 10.3729 16.6274 10.2633 16.8443 10.2784C17.3276 9.98301 18.2998 9.78923 18.5627 9.20798C18.9831 8.26353 18.2833 8.57996 17.9782 8.71048C17.6192 8.8598 17.2609 9.06325 16.9202 9.23037C16.6873 9.35991 16.3281 9.49117 16.1503 9.69217C15.884 10.0207 16.1888 9.87217 16.4403 9.77848C16.6198 9.70382 17.3549 9.33276 16.853 9.59233C16.602 9.72212 15.3969 10.0454 15.7986 10.3829C16.0179 10.5785 16.7538 10.2616 17.0628 10.4199C17.1901 10.4903 17.1392 10.7257 17.0682 10.8169C16.8736 11.1084 16.0144 11.6437 15.898 11.0495C15.7806 10.3832 16.9852 10.0238 17.4369 10.0537C17.5996 10.0696 17.4782 10.4323 17.425 10.5052C17.1221 10.7982 15.0761 11.6745 15.1358 10.753C15.1657 10.3013 15.7932 9.98588 16.1159 9.81901C16.5642 9.59627 17.7841 9.03806 18.2405 9.41094C18.35 9.49971 18.2632 9.75363 18.1923 9.84486C17.8906 10.2281 15.2917 11.5994 15.456 10.4057C15.5549 9.71833 17.7785 8.62294 18.0227 9.32365C18.0605 9.4495 18.0449 9.63024 17.9559 9.72171C17.5823 10.124 15.1639 11.4928 15.0577 10.3208C14.9539 9.32937 16.9129 8.6889 17.6173 8.7154C17.7799 8.73124 17.6585 9.09394 17.6054 9.16687C17.1964 9.62376 15.985 10.8137 15.3111 10.3715C15.2564 10.3362 15.273 10.2276 15.2723 10.1735C15.3176 9.52299 15.9063 9.00951 16.425 8.65944C16.926 8.32767 17.964 7.66364 18.5294 8.08919C18.6206 8.16015 18.5516 8.39577 18.5165 8.46846C18.2692 8.86898 15.8483 11.3752 15.7225 10.0952C15.6798 9.60832 16.3417 9.16604 16.6639 8.96308C17.0219 8.74157 17.915 8.04341 18.3692 8.25385C18.4418 8.28896 18.4614 8.397 18.4443 8.46944C18.3102 9.22947 17.2577 10.1464 16.5196 10.3009C16.4657 10.3197 16.4289 10.266 16.4101 10.2121C16.2578 9.63654 17.0649 9.24644 17.4409 9.02469C18.4797 8.4148 19.5194 7.87711 20.4473 7.08822C20.4315 7.2509 20.4157 7.4136 20.3996 7.55823C20.1269 7.41753 18.7343 8.55576 18.4836 8.70359C17.911 9.07245 17.322 9.56789 16.6754 9.81138C16.5137 9.86774 16.5793 9.37943 16.741 9.32307C17.2612 9.0813 17.7609 8.65928 18.2258 8.328C18.6728 8.01502 19.2284 7.71861 19.6205 7.35222C19.6405 7.49637 19.6606 7.64052 19.6625 7.78491C19.6447 7.8032 19.6089 7.82174 19.5911 7.84004C19.4286 7.84225 19.4578 7.33639 19.583 7.24443Z" fill="currentColor"/>
<path d="M25.8105 7.2138C26.4153 6.55567 24.4497 4.05514 24.0993 3.51835C23.5461 2.65938 22.5206 1.59022 21.3498 1.7867C20.2152 1.98269 21.1734 3.41382 21.5772 3.89573C22.0731 4.5208 22.6576 5.01829 23.3313 5.44237C23.7498 5.68939 24.1865 5.93617 24.6406 6.14661C25.1494 6.3924 25.7285 6.49282 26.2197 6.77496C26.3654 6.86324 26.2093 7.33472 26.0274 7.22889C25.4998 6.92919 24.848 6.79366 24.2848 6.53055C23.9033 6.35523 23.5574 6.14332 23.1935 5.93166C22.32 5.42005 21.6065 4.72573 21.0176 3.90335C20.4836 3.13438 19.9205 1.55346 21.3073 1.31793C22.9281 1.02505 23.9239 2.56397 24.6794 3.69096C25.2507 4.54968 26.8485 6.54977 25.8701 7.61014C25.6923 7.81114 25.7037 7.32357 25.8105 7.2138Z" fill="currentColor"/>
<path d="M30.4313 8.48671C29.1874 8.61198 27.8196 8.91947 26.6716 9.45864C26.008 9.77457 25.3997 10.18 24.8834 10.7106C24.4742 11.1494 24.2069 11.4058 24.2877 12.0365C24.3693 12.7214 24.4748 12.5214 24.9956 12.3157C26.414 11.7548 27.3964 10.9832 28.3736 9.83259C28.9245 9.19325 29.7427 8.29752 30.5876 8.03327C30.7673 7.97667 30.702 8.48302 30.522 8.52158C29.7491 8.7668 28.9665 9.62593 28.451 10.2106C27.9176 10.8136 27.403 11.4705 26.7048 11.8952C26.2036 12.209 23.9316 13.7202 23.6636 12.6046C23.3957 11.489 24.8038 10.1701 25.5901 9.58169C26.9486 8.58835 28.8197 8.12959 30.4602 7.96281C30.6949 7.95961 30.5935 8.46645 30.4313 8.48671Z" fill="currentColor"/>
<path d="M35.1869 9.05377C36.0471 8.59074 34.0406 5.74778 33.6905 5.22903C33.3776 4.78199 33.0287 4.3535 32.5553 4.05306C32.3004 3.89407 32.0099 3.77166 31.7025 3.73975C30.9254 3.67813 30.9168 4.36423 31.1949 4.90201C31.7516 6.01366 32.9385 7.00841 33.9235 7.75318C34.3248 8.0546 34.7612 8.28333 35.1622 8.5667C35.3627 8.70839 35.7266 8.92005 35.8378 9.13516C35.912 9.27857 35.7016 9.73274 35.6086 9.53544C35.4974 9.32032 35.0608 9.07355 34.8785 8.94966C34.5139 8.68385 34.0958 8.47292 33.7311 8.20711C32.8923 7.58671 32.1422 6.85679 31.4811 6.0354C30.9854 5.42838 30.0413 3.70823 31.2991 3.27588C32.8085 2.76789 33.9381 4.84656 34.5474 5.84918C35.0093 6.61913 35.5437 7.42421 35.5924 8.34421C35.5973 8.70519 35.5513 9.30153 35.193 9.50499C34.9959 9.61599 35.0434 9.12793 35.1869 9.05377Z" fill="currentColor"/>
<path d="M21.5967 4.00381C21.5604 3.98625 21.5421 3.96845 21.5057 3.9509C21.3784 3.88042 21.4988 3.44553 21.6618 3.47941C22.2047 3.58033 25.1649 4.87584 24.1652 5.70182C23.5941 6.17897 22.8244 5.341 22.4766 4.98469C22.019 4.52157 21.0525 3.81265 20.9888 3.10948C20.9878 3.03729 21.0383 2.76582 21.1646 2.7641C21.9946 2.73473 23.2503 3.47581 23.7828 4.13648C24.0397 4.43987 24.3017 5.12229 23.8362 5.39942C23.1555 5.78779 22.5243 4.51468 22.2662 4.12105C22.0635 3.81693 21.3844 2.99578 21.9939 2.68058C22.4958 2.42101 23.954 3.44816 24.1582 3.86058C24.3438 4.23715 24.2227 4.6179 23.7717 4.6421C23.05 4.66999 20.167 2.41665 21.3696 1.91284C22.1952 1.5586 24.7147 3.63637 23.6599 4.3909C22.7124 5.07175 20.388 2.73858 21.3521 1.94919C22.2088 1.23347 24.1464 2.99424 23.3104 3.90825C22.2607 5.0418 20.2909 2.23443 21.4806 2.1099C22.0935 2.04739 22.8429 2.72316 22.5447 3.35906C22.1411 4.21302 21.2632 3.37653 20.8434 3.03926C20.5878 2.82612 20.0402 2.38228 20.5596 2.08636C21.1686 1.73507 22.1187 2.57056 21.9286 3.18693C21.9115 3.25938 21.8591 3.38646 21.7691 3.40574C20.5984 3.60222 20.2766 1.1876 21.9492 2.04936C22.3672 2.26029 22.4649 2.80053 22.1083 3.13033C21.5381 3.67967 20.6602 2.84318 20.5438 2.24904C20.524 2.12294 20.5579 1.96002 20.665 1.8683C21.3432 1.29943 23.6316 2.31526 23.3208 3.34848C22.8888 4.76245 20.8736 2.60559 20.6677 2.06683C20.6118 1.94122 20.6623 1.66975 20.8059 1.61364C21.7759 1.25742 22.8694 2.01876 23.4927 2.7143C23.8959 3.16012 24.5209 3.982 24.2409 4.6357C23.891 5.45282 23.1768 4.70437 22.8468 4.32977C22.5167 3.95517 21.712 3.18989 21.9565 2.59083C22.4808 1.32002 24.757 4.0871 24.7856 4.86295C24.8088 5.24174 24.6174 5.76787 24.1454 5.57572C23.6371 5.36603 22.7721 4.15026 22.7281 3.57319C22.7269 3.48294 22.7778 3.24757 22.9039 3.2278C23.5342 3.1109 24.3214 3.91251 24.6704 4.35906C24.8727 4.62709 25.4618 5.46752 25.1965 5.86829C24.737 6.59664 23.5882 4.42797 23.5826 4.01285C23.5767 3.57967 23.8454 3.43159 24.1913 3.6435C24.8282 4.01392 25.2717 4.76607 25.3359 5.50534C25.3579 5.79388 25.3089 6.17364 24.9472 6.12441C24.7304 6.10931 24.4916 5.80569 24.3452 5.66326C23.8883 5.25429 23.4124 4.77336 23.0267 4.29121C22.9167 4.16634 23.0908 3.69461 23.2191 3.83728C23.7141 4.39015 24.2441 4.87034 24.7567 5.38687C24.9579 5.5827 25.2135 5.79584 25.1997 6.10292C25.2006 6.17512 25.1502 6.44659 25.0239 6.44832C24.4104 6.47473 23.6796 5.83481 23.2591 5.44339C23.1676 5.35438 23.2519 4.91997 23.4151 4.9719C24.122 5.17889 25.0877 5.83367 25.6177 6.31385C25.7273 6.40262 25.6251 6.85532 25.4617 6.78533C24.7173 6.47054 24.0567 5.68524 23.5788 5.05993C23.34 4.75629 22.9919 4.38195 23.0223 3.96633C23.0213 3.89413 23.0903 3.65851 23.2172 3.69289C23.9596 3.86329 25.9462 5.24428 25.4899 6.20727C25.4546 6.26191 25.4019 6.37095 25.3295 6.35389C24.8772 6.28784 23.1214 4.61486 23.7462 4.10088C23.9782 3.89914 24.3611 4.18276 24.5619 4.34249C25.2178 4.78486 25.7325 5.46382 25.9953 6.20039C26.0514 6.34404 26 6.54332 25.8929 6.63504C25.4103 6.98461 24.7475 6.03688 24.5799 5.66006C24.524 5.53446 24.5752 5.31713 24.6822 5.22541C25.129 4.89438 25.8287 5.89577 25.8521 6.2926C25.8536 6.40089 25.8029 6.65432 25.6583 6.63824C25.2066 6.60829 24.875 6.1254 24.6535 5.76737C24.5796 5.64201 24.6662 5.37005 24.7918 5.31418C25.1149 5.18341 25.3382 5.66778 25.5035 5.88215C25.6138 6.02507 25.4214 6.479 25.3112 6.33608C25.2009 6.19316 24.9596 5.70904 24.7443 5.80224C24.7964 5.65711 24.8486 5.51198 24.8825 5.34905C25.0669 5.63537 25.4163 6.09997 25.7775 6.11309C25.7068 6.22237 25.6363 6.3497 25.5836 6.45873C25.5812 6.27824 24.9564 5.47441 24.7062 5.65834C24.7403 5.51346 24.7745 5.36857 24.8086 5.22369C24.9015 5.421 25.5463 6.36898 25.868 6.12992C25.8338 6.2748 25.7997 6.41968 25.7656 6.56456C25.4652 5.7202 24.8603 5.04246 24.0778 4.58377C24.0048 4.53061 23.6953 4.33625 23.9865 4.5128C24.1687 4.63668 24.2783 4.72545 24.4071 4.90422C24.6459 5.20785 25.0325 5.76221 25.4484 5.8107C25.395 5.86558 25.3414 5.90242 25.2879 5.9573C25.3582 5.81193 24.4995 5.06544 24.3351 4.92326C23.97 4.62135 23.5677 4.24773 23.0967 4.12779C23.1677 4.03656 23.2387 3.94533 23.2916 3.85435C23.2589 4.10753 23.9727 4.81988 24.0829 4.96279C24.4681 5.40885 25.0179 6.01514 25.5809 6.2602C25.529 6.42338 25.477 6.58655 25.4249 6.73168C24.8951 6.26955 23.9657 5.63233 23.2949 5.42484C23.3469 5.26166 23.3988 5.09849 23.451 4.95336C23.7986 5.29162 24.5838 5.94885 25.0889 5.92391C25.0362 6.03294 24.9838 6.16003 24.9131 6.2693C24.9279 6.03442 24.4179 5.69837 24.2713 5.5379C23.8325 5.12868 23.4117 4.71922 23.0265 4.27316C23.0967 4.12779 23.1487 3.96461 23.2189 3.81923C23.6597 4.37285 24.2469 5.06888 24.8479 5.45784C25.1577 5.67024 25.1406 5.74268 24.8978 5.15027C24.8229 4.95271 24.7297 4.73735 24.6012 4.57664C24.4726 4.41592 24.0162 4.04304 23.9809 4.09768C23.8924 4.22525 24.4988 5.01129 24.5903 5.10031C24.6635 5.17152 24.7549 5.26053 24.8101 5.33199C24.8469 5.38564 24.9777 5.7088 24.9033 5.54735C24.6244 4.95542 23.7386 3.54137 22.8559 3.67976C22.9086 3.57073 22.961 3.44365 23.0318 3.33437C23.055 3.71315 23.5306 4.17603 23.7509 4.44381C23.8429 4.56892 24.0273 4.85525 24.1541 4.88962C24.4261 4.97618 24.3488 4.59813 24.3104 4.43618C24.1782 4.00473 23.703 3.57795 23.3561 3.29384C23.2283 3.18727 23.0822 3.0629 22.9366 2.97462C22.7363 2.85099 22.3539 2.60347 22.3758 2.892C22.3981 3.19859 23.0021 3.80413 23.2396 4.01752C23.3328 4.23288 23.4963 4.30286 23.7119 4.22771C24.0202 4.33182 24.0916 4.27669 23.926 4.04427C23.9043 3.77378 23.5745 3.41723 23.4276 3.23871C22.8404 2.54268 21.7459 1.70914 20.776 2.06535C20.8282 1.92022 20.8803 1.77509 20.9142 1.61216C21.064 2.00727 22.2927 3.41665 22.7774 3.21147C23.0108 3.11803 22.9742 3.08242 22.7724 2.85049C22.6256 2.67197 22.3709 2.53103 22.1529 2.42569C21.8075 2.24987 21.0635 1.97118 20.7065 2.26488C20.7409 2.13805 20.7933 2.01096 20.8277 1.88413C20.8662 2.06412 21.2151 2.49263 21.3968 2.58041C21.7053 2.70257 22.2448 2.5508 21.5387 2.39795C20.724 2.22854 21.5456 2.90332 21.8339 2.86329C21.7807 2.93622 21.7276 3.00915 21.6744 3.08209C21.7605 2.77403 20.6533 2.33781 20.5655 2.51953C20.5821 2.41099 20.5984 2.28441 20.615 2.17587C20.7633 2.46268 21.7493 3.27964 22.0186 3.16766C22.3959 3.03615 21.9588 2.75327 21.7224 2.63013C21.7224 2.63013 21.2319 2.40213 21.3577 2.36431C21.3397 2.36456 21.9832 3.2223 22.1291 3.32863C22.3842 3.50567 22.9118 3.80536 23.0505 3.38827C23.1373 3.13435 23.0456 3.02729 22.8624 2.83122C22.5878 2.54612 22.1872 2.29885 21.7899 2.28621C21.3926 2.27357 21.4843 2.38064 21.6512 2.70331C21.8732 3.09744 22.2388 3.43544 22.6211 3.66491C22.8943 3.84171 23.7294 4.19137 23.4145 3.59994C23.2293 3.25947 22.8285 2.99415 22.501 2.80004C22.2641 2.6408 22.0102 2.55399 21.7555 2.41305C21.7192 2.39549 21.3565 2.27407 21.4097 2.20113C21.3923 2.25552 21.7219 2.59403 21.777 2.66549C22.0154 2.93302 22.2534 3.18251 22.5093 3.41371C22.692 3.57369 23.4589 4.21311 23.764 4.08259C23.8719 4.04501 23.7823 4.10038 23.6904 3.97527C23.5987 3.86821 23.3986 3.76262 23.2894 3.6919C23.1981 3.62094 22.141 2.87716 21.9642 3.15035C21.9807 3.04181 21.9971 2.91522 22.0136 2.80668C22.1995 3.2013 22.4388 3.54102 22.6604 3.89905C22.7894 4.09587 23.5625 5.18652 23.5922 4.71676C23.655 4.02992 21.6398 3.19088 21.1166 3.21606C21.1693 3.10703 21.2217 2.97994 21.2924 2.87067C21.3349 3.33945 22.2101 3.9774 22.5214 4.2981C22.8329 4.63684 23.3654 5.29752 23.8522 5.25478C24.1769 5.2323 23.9425 5.25355 23.8325 5.12868C23.6676 4.95041 23.3946 4.79166 23.1761 4.65022C22.666 4.31418 22.1565 4.01423 21.5594 3.91406C21.6113 3.75088 21.6632 3.5877 21.7154 3.44258C21.7518 3.46013 21.7701 3.47793 21.8064 3.49549C21.9347 3.63816 21.7787 4.10964 21.5967 4.00381Z" fill="currentColor"/>
<path d="M26.0131 11.4713C26.2743 10.7637 27.0818 10.4097 27.3617 9.75604C27.3993 9.86384 27.4369 9.97164 27.4744 10.0794C26.8291 10.4132 26.2322 11.6489 25.3441 11.3902C25.2172 11.3558 25.2682 11.1204 25.3033 11.0478C25.5313 10.5572 25.9618 10.3528 26.4095 10.094C26.7856 9.8722 27.427 9.24968 27.9158 9.35133C27.9519 9.35084 27.9707 9.40474 27.9892 9.44059C28.1449 10.2689 25.9668 12.0496 25.4326 11.2626C24.6778 10.1898 27.6909 8.74062 28.376 8.67712C28.4301 8.67638 28.4667 8.71199 28.4855 8.76589C28.6071 9.73906 26.1019 11.3618 25.7647 10.4638C25.4087 9.51187 28.193 8.4991 28.6813 8.56465C28.8079 8.58098 28.7394 8.85269 28.7221 8.90708C28.3905 9.74201 27.0598 10.1212 26.2859 10.2942C26.1059 10.3328 26.209 9.95226 26.2444 9.89762C26.4561 9.53369 26.8514 9.40194 27.2282 9.23434C27.8382 8.95524 28.465 8.58564 29.1311 8.4502C29.3291 8.41139 29.2084 8.82824 29.1372 8.90142C28.6217 9.48612 27.7941 9.69599 27.2788 10.2987C27.2588 10.1546 27.2388 10.0104 27.2368 9.86605C27.9165 9.40548 28.8596 8.39975 29.7077 8.37014C29.8701 8.36792 29.8194 8.62134 29.7845 8.71208C29.5739 9.1482 29.0173 9.37242 28.642 9.64832C28.3022 9.88763 27.9808 10.1447 27.6593 10.4019C27.356 10.6587 26.8362 10.9366 26.6607 11.3C26.6411 11.192 26.6033 11.0661 26.5838 10.9581C27.5711 10.5475 28.1324 9.34838 29.0824 8.84802C29.2975 8.73677 29.2129 9.15312 29.1597 9.22605C28.9834 9.53535 28.6973 9.73782 28.4295 9.9581C27.9654 10.3435 27.5209 10.837 27.0382 11.1866C26.7165 11.4256 26.3934 11.5564 26.1083 11.8311C25.9122 12.0143 25.7347 12.2333 25.4647 12.2912C25.3027 12.3295 25.3705 12.0036 25.3878 11.9492C25.5799 11.4772 26.5106 10.8869 27.0165 10.9161C27.1611 10.9322 27.0753 11.2583 27.0219 11.3132C26.6324 11.8781 25.4483 12.4178 24.7598 12.2286C24.5966 12.1766 24.7188 11.8681 24.7717 11.7771C24.9841 11.4673 26.2735 10.7096 26.4616 11.2666C26.649 11.7696 25.8056 12.1421 25.4642 12.2551C24.8171 12.4625 24.4324 12.0525 24.7487 11.4164C25.0477 10.8346 26.2308 10.2228 26.8637 10.3044C26.9362 10.3215 26.9381 10.4658 26.9389 10.52C26.8221 11.2256 26.1241 11.6684 25.4958 11.9297C25.1007 12.0795 24.3657 12.4506 24.3746 11.7825C24.3865 11.331 24.8855 10.8549 25.2067 10.5797C25.5103 10.3409 26.8304 9.1856 27.1802 9.6863C27.7142 10.4553 25.4773 11.8938 24.855 11.2705C23.9766 10.3979 26.4289 8.86613 27.0972 8.89312C27.1694 8.89214 27.1716 9.05458 27.1724 9.10873C27.1093 9.77752 26.5018 10.2371 25.8908 10.444C25.6752 10.5192 25.4218 10.4685 25.2242 10.5434C24.7901 10.4771 24.6855 10.7493 24.947 11.3956C25.2528 11.3192 25.4855 11.1716 25.6628 10.9345C25.6225 10.6282 25.4972 10.7021 25.2633 10.7595C24.9394 10.8361 24.7618 11.0551 24.7124 11.3988C25.0553 11.3941 25.288 11.2465 25.4106 10.9741C25.4123 11.1004 25.396 11.227 25.3977 11.3533C25.1584 11.0136 24.4955 11.3837 24.6804 11.7061C24.8837 12.0463 25.8621 10.986 24.8041 11.5059C24.0151 11.8957 24.9734 12.009 25.2748 11.6078C25.2768 11.7522 25.2607 11.8968 25.2629 12.0592C25.0995 11.9892 24.5983 12.303 24.5271 12.3762C24.5251 12.2318 24.5412 12.0871 24.539 11.9247C24.7024 11.9947 24.8453 11.8844 25.0083 11.9183C25.0622 11.8995 25.1161 11.8807 25.1519 11.8622C25.0827 12.0797 24.94 12.2081 24.7244 12.2832C24.7229 12.1749 24.7215 12.0666 24.72 11.9583C25.1576 12.2773 26.0307 11.435 26.3704 11.1957C26.764 10.9376 27.2308 10.7507 27.5874 10.4209C27.7479 10.2743 27.7365 10.7619 27.6294 10.8536C27.2731 11.2014 26.8644 11.6763 26.3978 11.8813C26.2183 11.9559 26.338 11.4669 26.4275 11.4115C26.838 11.0629 27.6447 10.6548 27.9271 10.1816C27.9469 10.3077 27.9669 10.4518 27.9686 10.5782C27.2333 10.9312 26.4839 11.5732 25.8224 12.0516C25.59 12.2172 24.6616 12.97 24.3169 12.8484C23.3739 12.5363 24.7475 11.3261 25.016 11.16C25.1948 11.0312 25.1656 11.537 25.0402 11.611C24.9329 11.6846 24.6814 11.7783 24.6107 11.8876C24.5946 12.0322 24.5603 12.1591 24.5442 12.3037C24.6159 12.2666 24.6876 12.2295 24.7593 12.1925C25.1742 12.1688 25.6553 11.7109 26.0131 11.4713C26.6389 11.0295 27.3169 10.4426 28.0166 10.1262C28.1781 10.0518 28.0935 10.4682 28.0581 10.5228C27.7048 11.0872 26.9161 11.4951 26.4161 11.8991C26.4319 11.7364 26.4297 11.574 26.4458 11.4293C26.8046 11.262 27.2669 10.7502 27.5342 10.4938C27.5543 10.638 27.5743 10.7821 27.5762 10.9265C27.0412 11.4032 26.288 11.7745 25.6798 12.1799C25.3576 12.3829 24.8569 12.7327 24.4922 12.4669C24.401 12.3959 24.4527 12.2147 24.4878 12.142C24.6446 11.7247 25.0226 11.6473 25.4566 11.6955C25.5107 11.6948 25.5302 11.8029 25.5307 11.8389C25.5196 12.3446 24.8198 12.661 24.3839 12.4684C24.2386 12.3981 24.3249 12.1081 24.3958 12.0169C24.5736 11.8159 25.0743 11.4661 25.3468 11.5887C25.5102 11.6587 25.4056 11.9309 25.3349 12.0402C25.0157 12.4598 23.971 12.6365 24.069 11.8769C24.1511 11.2801 25.5296 10.4309 25.7031 11.2409C25.8378 11.8528 24.5132 12.6832 24.2505 11.9467C24.0438 11.3538 25.1305 10.2919 25.5723 10.9177C25.646 11.025 25.6121 11.188 25.5594 11.297C25.12 12.1695 23.8722 12.006 24.4182 11.0057C24.6823 10.5146 26.3856 9.66103 26.0938 10.7662C25.9046 11.4548 24.5659 12.5742 24.4043 11.3127C24.3635 10.9703 24.483 10.4632 24.7686 10.2246C25.0007 10.0409 25.2361 10.0919 25.5247 10.0699C25.9393 10.0282 26.8556 9.70877 26.9029 9.20266C26.9219 9.27461 26.959 9.34632 26.978 9.41827C26.5807 9.40563 24.7179 10.4781 25.1933 10.9229C25.4858 11.1897 26.2908 10.6552 26.5052 10.4898C26.773 10.2695 27.0761 9.99461 26.5198 10.2369C26.1071 10.423 24.8523 11.0719 24.787 11.5783C24.7534 11.7593 24.8429 11.7039 25.0587 11.6468C25.2387 11.6083 25.4182 11.5336 25.5799 11.4772C25.9031 11.3465 26.6387 11.0115 26.6877 10.6317C26.7067 10.7037 26.7438 10.7754 26.7628 10.8473C26.4374 10.8157 26.115 11.0006 25.828 11.1309C25.7023 11.1867 25.3248 11.3002 25.2543 11.4275C25.1838 11.5548 25.2592 11.7885 25.4763 11.8216C25.5668 11.8385 26.1402 11.5238 26.1219 11.506C26.159 11.5777 24.9385 12.0998 24.8498 12.2093C24.8478 12.0649 24.8639 11.9202 24.8617 11.7578C25.3873 11.9131 26.5546 11.4639 26.8377 11.0449C26.8394 11.1712 26.8414 11.3156 26.8431 11.442C26.6443 11.4266 25.6402 11.9277 25.5351 12.1638C25.5156 12.0558 25.4778 11.9299 25.4583 11.8219C25.7822 11.7453 25.9941 11.3994 26.226 11.1976C26.4938 10.9774 26.7809 10.8471 27.0667 10.6266C27.2989 10.4429 27.5123 10.2053 27.7442 10.0035C28.119 9.69155 28.7102 9.35855 28.9392 8.94023C28.959 9.06632 28.9968 9.19217 29.0165 9.31827C28.0307 9.83717 27.4694 11.0363 26.4463 11.4654C26.3026 11.5215 26.3521 11.1779 26.3694 11.1235C26.6328 10.5783 27.2059 10.2456 27.6703 9.87819C27.9917 9.62107 28.3312 9.36372 28.6709 9.12441C28.8675 8.97731 29.388 8.75359 29.4933 8.53552C29.5128 8.64357 29.5506 8.76942 29.5702 8.87747C28.7585 8.92464 27.8332 9.91207 27.171 10.3363C26.9562 10.4656 27.0578 9.9768 27.129 9.90362C27.6446 9.31892 28.4899 9.09077 28.9874 8.50631C28.9894 8.6507 28.9914 8.79509 28.9936 8.95753C28.5794 9.03539 28.2031 9.2391 27.8263 9.40671C27.4136 9.59285 26.55 9.8032 26.3208 10.2035C26.301 10.0774 26.281 9.93323 26.2793 9.80689C26.8732 9.67243 28.1868 9.36569 28.4487 8.71224C28.4682 8.82028 28.4699 8.94662 28.4894 9.05467C28.0014 9.00716 27.1239 9.5246 26.7295 9.72855C26.6219 9.78417 26.4605 9.85858 26.3715 9.95006C26.1752 10.1152 25.8505 10.1377 26.4103 10.1481C26.5186 10.1466 28.1527 9.51058 28.0221 9.20547C28.0036 9.16961 27.896 9.22523 27.6807 9.31843C27.3756 9.44895 27.0707 9.59753 26.7844 9.78195C26.48 9.96663 25.0321 11.0153 26.0596 10.9111C26.5645 10.8681 27.2591 10.1726 27.5429 9.80772C27.7558 9.53403 27.3103 9.95531 27.2388 10.0104C27.042 10.1395 26.8271 10.2688 26.6301 10.3798C26.272 10.6013 25.6433 10.8265 25.4502 11.2263C25.4306 11.1182 25.4289 10.9919 25.4094 10.8838C26.2248 11.1074 26.8044 9.9261 27.3958 9.61114C27.5751 9.51844 27.5434 9.84382 27.5086 9.93456C27.2108 10.6066 26.4033 10.9605 26.16 11.6498C26.0924 11.9938 25.9261 11.7072 26.0131 11.4713Z" fill="currentColor"/>
<path d="M31.6068 4.67954C32.1822 4.50923 33.4596 5.5208 33.2341 6.19181C32.7996 7.42528 31.402 5.54885 31.1435 5.11912C31.0695 4.99376 31.1568 4.77594 31.2458 4.68446C31.8707 4.17048 33.0806 5.52597 33.2324 6.06547C33.3844 6.62302 33.1396 7.20402 32.5212 6.86946C32.0119 6.58757 31.3704 5.87422 31.5245 5.25834C31.73 4.44319 32.8917 4.91477 33.2762 5.30668C33.5874 5.62738 33.957 6.25417 33.5293 6.65715C32.8518 7.28016 31.9333 6.11928 31.6021 5.65444C31.3625 5.29666 30.736 4.36648 31.3811 4.01469C32.1335 3.58924 33.364 5.12496 33.5345 5.71836C33.6675 6.20395 33.5488 6.76519 32.9151 6.62941C32.2634 6.49388 31.181 5.22693 31.1358 4.55961C31.0252 3.06278 33.8478 4.86563 33.7724 5.94979C33.7115 6.78103 32.788 6.57699 32.3487 6.13167C31.9096 5.7044 31.1007 4.63229 31.3441 3.94299C31.7439 2.81829 34.4835 5.1458 33.3404 6.04594C32.6617 6.57871 31.4906 5.42128 31.2481 4.84691C30.9494 4.12889 31.6138 3.8671 32.2121 4.05752C32.7743 4.24843 33.9769 5.06245 33.3911 5.79252C32.6812 6.68676 31.2703 5.1535 30.8663 4.65354C30.7927 4.54623 30.8263 4.36524 30.8792 4.27426C31.2506 3.70958 32.2873 4.27313 32.439 4.81263C32.5906 5.33408 32.1448 5.7373 31.6359 5.4915C31.2542 5.29813 30.83 4.63598 31.1131 4.21692C31.644 3.43343 32.9778 4.60671 33.38 4.98032C33.6908 5.26492 34.1702 5.99852 33.4314 6.09886C32.6568 6.21773 31.2517 5.11764 31.0261 4.45278C30.7064 3.51842 31.8472 3.77366 32.3204 4.05605C33.03 4.46158 34.2891 5.45534 34.2839 6.39413C34.2851 6.48437 34.2342 6.71975 34.1081 6.73952C33.2608 6.82328 32.4775 6.31044 31.9099 5.72245C31.5806 5.402 31.141 4.93863 31.2426 4.44983C31.2597 4.37739 31.3121 4.25031 31.4021 4.23103C32.1575 4.02216 33.113 5.25475 33.5343 5.70031C33.8641 6.05686 34.6869 6.82189 34.3338 7.40438C33.8219 8.25982 31.5387 6.30519 31.9423 5.45123C32.469 4.36091 34.8691 6.94578 34.915 7.66724C35.0259 9.18212 32.5966 7.10312 32.4607 6.40093C32.4409 6.27483 32.4746 6.09385 32.5819 6.02017C32.9933 5.74378 33.7439 6.5098 34 6.75904C34.3476 7.0973 34.7862 7.48847 34.5946 7.99655C34.5594 8.06924 34.5063 8.14217 34.4341 8.14315C33.8743 8.13273 31.9677 5.99244 32.755 5.47625C33.3276 5.10739 34.2856 6.52047 34.561 6.85971C34.8913 7.25236 35.2582 7.68061 34.94 8.17236C34.9043 8.20895 34.8692 8.28164 34.7968 8.26458C34.0538 8.05808 33.3191 7.12938 33.0568 6.42891C32.9634 6.19551 32.8294 5.63771 33.1891 5.54254C33.7289 5.40882 34.6495 6.73213 34.854 7.1626C35.0401 7.57527 35.3007 8.14939 34.9629 8.5331C34.9454 8.56944 34.8915 8.58822 34.8554 8.58872C34.1851 8.41733 33.3742 7.20083 33.3829 6.51473C33.4028 5.32301 34.7015 6.56896 34.9596 6.96259C35.144 7.24891 35.651 8.68618 34.8556 8.60676C34.458 8.57608 34.1043 7.78661 33.956 7.49979C33.6964 6.99787 33.4714 6.38715 33.4277 5.82812C33.4267 5.75593 33.4942 5.41202 33.6216 5.48249C34.2214 5.7812 35.1593 7.05013 35.0065 7.75626C34.8371 8.57092 34.1236 7.8766 33.9011 7.44637C33.8452 7.32077 33.8957 7.0493 34.0393 6.99318C34.6327 6.82262 35.4965 7.94814 35.0522 8.45967C34.6261 8.98899 34.1216 7.73221 34.2606 7.33316C34.2957 7.26048 34.3489 7.18754 34.421 7.18656C35.0172 7.21454 35.589 8.10936 35.3617 8.65403C35.3266 8.72672 35.2737 8.8177 35.2012 8.80063C34.8942 8.78676 34.619 8.46557 34.5068 8.17827C34.4509 8.05266 34.5014 7.78119 34.645 7.72508C35.094 7.55649 35.359 8.45549 35.3271 8.76281C35.3283 8.85305 35.2591 9.07062 35.1323 9.03625C34.8244 8.96824 34.7488 8.71653 34.601 8.46582C34.3053 7.96438 33.9918 7.48125 33.6961 6.97981C33.2712 6.26351 33.1392 5.85011 32.4113 5.42678C32.0657 5.23291 31.7922 5.03807 31.6071 4.6976C31.5517 4.60809 31.6012 4.26443 31.7453 4.24441C32.4673 4.23457 33.3771 4.76373 33.7111 5.42712C33.7852 5.57052 33.6982 5.80639 33.5728 5.88031C33.196 6.04792 32.8287 5.58356 32.6089 5.35188C32.2979 5.04923 31.7161 4.75026 31.6019 4.31857C31.5641 4.19271 31.6331 3.9571 31.7589 3.91928C32.3518 3.71263 33.719 4.68686 33.5477 5.35713C33.5306 5.42957 33.4606 5.593 33.3521 5.57643C33.026 5.49061 31.0394 4.10961 31.8635 3.64707C32.2935 3.40653 33.2278 4.40472 33.4298 4.65469C33.6869 4.97613 33.9613 5.24318 33.7684 5.66101C33.7511 5.71541 33.6804 5.82468 33.608 5.80762C32.9738 5.63574 32.3102 4.63386 32.0858 4.05924C32.0482 3.95144 32.0801 3.64412 32.224 3.60605C32.6565 3.546 33.1709 4.20692 33.3915 4.49275C33.7588 4.9571 34.1626 5.43902 34.189 6.05243C34.1914 6.23292 33.9254 6.57954 33.9029 6.2549C33.8789 5.82197 32.8072 4.0133 32.1587 4.1124C32.2109 3.96727 32.2631 3.82215 32.297 3.65921C32.4843 4.16212 33.1476 5.14596 33.7094 5.30077C33.6559 5.35566 33.6023 5.39249 33.5489 5.44738C33.4965 5.57446 33.5672 5.46518 33.4764 5.43032C33.3494 5.37789 33.2005 5.05497 33.0905 4.9301C32.9805 4.80524 32.8524 4.68062 32.7244 4.556C32.56 4.41382 32.107 4.29363 32.0509 4.14998C31.8836 3.79122 32.2675 4.14703 32.4139 4.28945C32.7068 4.59234 33.0547 4.94865 33.4713 5.05128C33.4001 5.12446 33.3469 5.1974 33.2757 5.27058C33.2757 5.27058 32.8191 4.87965 32.7461 4.82649C32.4539 4.57774 32.1063 4.23949 31.6931 4.38954C31.7456 4.26245 31.7977 4.11732 31.8502 3.99024C31.9263 4.27804 32.5083 4.59506 32.7278 4.80869C32.9291 5.00452 33.2967 5.48692 33.6199 5.35615C33.5677 5.50128 33.5155 5.64641 33.4816 5.80934C33.1852 5.25376 32.3293 4.70581 31.6798 4.73272C31.7319 4.58759 31.7841 4.44246 31.818 4.27952C32.0771 4.74535 32.5117 4.84773 32.9305 5.11281C33.2767 5.34277 33.4796 5.66494 33.6653 6.04151C33.8883 6.50783 34.1649 6.93732 34.4238 7.38509C34.5718 7.65386 34.8897 8.46188 35.2337 8.52941C35.1627 8.62063 35.0917 8.71186 35.0388 8.80285C35.0544 8.62211 34.7946 8.10213 34.5612 8.19557C34.6134 8.05044 34.6655 7.90532 34.6994 7.74238C34.7926 7.95774 35.0131 8.24357 35.2841 8.25793C35.2307 8.31282 35.1771 8.34965 35.1236 8.40454C35.1585 8.3138 34.5716 7.63581 34.2645 7.62194C34.3179 7.56706 34.3716 7.53022 34.425 7.47534C34.515 7.45606 34.5701 7.52752 34.5718 7.65386C34.7931 7.99384 34.7753 8.01213 34.5543 7.69021C34.3723 7.58437 34.1886 7.3522 33.9369 7.42784C33.9891 7.28271 34.0413 7.13758 34.0752 6.97465C34.112 7.0283 34.353 7.49437 34.4611 7.47485C34.6411 7.43629 34.3644 7.00681 34.3276 6.95316C34.1059 6.57708 33.8287 6.11149 33.4289 5.91837C33.4997 5.80909 33.5701 5.68177 33.6228 5.57274C33.668 6.24005 34.021 6.97539 34.3899 7.54803C34.5397 7.94314 34.6658 7.92336 34.7687 7.52481C34.6947 7.39945 34.6028 7.27434 34.5289 7.14898C34.4186 7.00607 33.8322 6.36419 33.6344 6.42104C33.4188 6.49619 34.3543 7.58462 34.4645 7.72754C34.5931 7.88825 34.6504 8.12215 34.667 8.01361C34.7002 7.79653 34.4972 7.47436 34.3864 7.29534C34.091 6.81196 33.5973 6.34933 33.1416 6.0306C33.0328 5.99598 33.0507 5.97769 33.177 5.97597C33.2143 6.06572 33.2697 6.15523 33.307 6.24498C33.4722 6.4413 33.5651 6.63861 33.7488 6.87079C33.9871 7.13832 34.243 7.36951 34.5348 7.58216C34.716 7.63385 34.7345 7.66969 34.6087 7.70751C34.4796 7.5107 34.3325 7.31414 34.1676 7.13586C33.9105 6.81442 33.1001 5.63401 32.5979 5.87554C32.6509 5.78456 32.7038 5.69357 32.7567 5.60259C32.6914 6.10894 33.9028 7.57273 34.4265 7.58364C34.3731 7.63852 34.3194 7.67536 34.266 7.73024C34.2835 7.6939 32.8543 6.14283 32.4787 6.40068C32.5131 6.27385 32.5655 6.14676 32.5999 6.01993C32.6973 6.54212 34.0519 7.91368 34.6438 7.63483C34.5906 7.70777 34.5375 7.7807 34.4843 7.85364C34.6035 7.32849 33.1982 6.21035 32.7972 5.92698C32.7606 5.89137 32.1594 5.48437 32.0711 5.63C32.0001 5.72122 32.7675 6.39675 32.8224 6.45015C33.0054 6.62818 33.5176 7.12666 33.7866 6.99663C33.9659 6.90392 33.6002 6.56592 33.4717 6.4052C33.3614 6.26228 33.2334 6.13766 33.1053 6.01304C32.7206 5.60308 31.8571 4.49561 31.1915 4.66716C31.2446 4.59422 31.2978 4.52129 31.3509 4.44835C31.2995 4.64763 32.085 5.32291 32.2677 5.48289C32.7787 5.89113 33.3431 6.24448 34.0282 6.18098C33.9756 6.29001 33.9231 6.4171 33.8524 6.52638C33.8606 5.80417 31.6657 3.70392 30.9695 4.27303C31.0038 4.1462 31.0563 4.01912 31.0906 3.89229C31.2083 4.57667 32.4645 5.35385 33.0621 5.49012C33.225 5.524 33.4262 5.71983 33.1701 5.47059C32.8774 5.18574 32.5847 4.9009 32.221 4.70728C31.93 4.54878 30.7341 4.22209 31.4824 4.82567C31.7744 5.05637 32.1337 4.9251 31.5341 4.64444C31.4432 4.59152 30.9709 4.38133 30.8646 4.5272C30.8629 4.40085 30.8792 4.27426 30.8775 4.14792C31.1897 4.54081 31.4837 4.9159 31.9203 5.16268C32.0296 5.2334 32.394 5.48117 32.5557 5.42481C33.1303 5.20035 32.6022 4.86455 32.4203 4.75872C32.238 4.63484 32.0019 4.52974 31.7846 4.47855C31.4946 4.39224 31.3126 4.2864 31.4071 4.59201C31.502 4.93371 32.0667 5.30511 32.3574 5.44557C32.5755 5.55091 32.9926 5.68964 32.9867 5.25647C32.9842 5.07598 32.5639 4.7026 32.4178 4.57823C32.1802 4.36484 31.5594 3.84979 31.548 4.33736C31.5359 4.77078 32.3062 5.66289 32.6514 5.82066C33.0872 6.01329 33.3745 5.90105 33.0438 5.47231C32.915 5.29354 32.7323 5.13357 32.5498 4.99164C32.3856 4.86751 31.5829 4.24662 31.4041 4.37543C31.2075 4.52253 31.8493 5.25392 32.0328 5.46804C32.2711 5.73558 33.2561 6.48035 32.9194 5.61843C32.7701 5.25942 32.241 4.85143 31.9132 4.63927C31.3848 4.28543 31.3341 4.53884 31.5022 4.95175C31.5957 5.18516 31.8337 5.43466 31.9989 5.63098C32.1272 5.77365 32.2558 5.93436 32.4197 6.04044C32.6034 6.27262 32.7843 6.30626 32.9624 6.12331C33.2141 6.04767 33.2126 5.93937 32.9394 5.76257C32.8472 5.61941 32.6655 5.53163 32.5381 5.46115C32.3928 5.39093 31.7393 5.12905 31.635 5.41931C31.4957 5.80031 32.6424 6.48871 32.9119 6.39478C32.8588 6.46771 32.8056 6.54065 32.7524 6.61358C32.8904 6.14234 31.5885 4.66175 31.053 5.10231C31.0871 4.95742 31.1212 4.81253 31.1554 4.66765C31.3583 4.98982 31.5976 5.32956 31.8721 5.5966C31.9635 5.68562 32.6748 6.21748 32.634 5.87505C32.594 5.58676 31.5576 5.04127 31.3239 5.11666C31.3796 5.22421 31.4451 4.73591 31.6068 4.67954Z" fill="currentColor"/>
</svg>
