<svg width="43" height="14" viewBox="0 0 43 14" fill="none" xmlns="http://www.w3.org/2000/svg">
<path d="M35.8079 6.82233C35.8989 6.76942 36.0079 6.71675 36.0987 6.68188C36.244 6.61165 36.1775 6.19554 36.0151 6.19333C29.6621 6.08867 23.1786 6.28913 16.8855 7.08791C13.8293 7.47951 10.8422 8.10672 7.87131 8.86053C5.15413 9.54558 2.47058 10.4116 0.0674546 11.8953C-0.0781675 11.9835 0.0778732 12.455 0.25984 12.3492C2.68101 10.8658 5.40041 10.0183 8.15394 9.31569C11.0884 8.57944 14.0215 7.95149 17.0233 7.5772C23.2983 6.77818 29.7637 6.57747 36.0806 6.68163C36.0467 6.5187 36.0129 6.35577 35.997 6.19308C35.906 6.246 35.797 6.29868 35.7063 6.33354C35.5068 6.40303 35.6625 6.89256 35.8079 6.82233Z" fill="currentColor"/>
<path d="M33.4628 6.70025C33.6887 6.01734 34.868 5.58212 35.431 5.33706C36.1211 5.03958 36.7913 4.86819 37.5316 4.86022C38.2899 4.85251 38.9921 4.98845 39.7118 5.16073C40.0538 5.2376 40.3774 5.33228 40.7006 5.46305C41.0059 5.57553 41.7976 5.76684 41.9564 6.03978C42.5216 6.9501 40.5521 7.08573 40.0279 7.13274C39.2864 7.23095 38.5103 7.22037 37.7708 7.17419C36.9413 7.10872 36.1128 6.97106 35.3018 6.86975C34.6711 6.78894 33.623 6.86491 33.1052 6.44265C33.1211 6.60534 33.1369 6.76802 33.153 6.91266C33.171 6.9129 33.1891 6.91315 33.2074 6.89535C33.3703 6.86147 33.2509 6.35437 33.0877 6.40631C33.0696 6.40606 33.0516 6.40581 33.0333 6.42361C32.8523 6.45725 33.0096 6.8385 33.081 6.89363C33.7239 7.40786 35.0249 7.31727 35.8181 7.40029C36.8993 7.5414 37.9444 7.68201 39.0276 7.67872C39.8039 7.67125 43.1445 7.60848 42.4615 6.06473C42.1989 5.46542 41.3355 5.23703 40.7789 5.01281C39.8275 4.62074 38.7473 4.40745 37.7187 4.37537C36.7624 4.34428 35.9111 4.5493 35.0391 4.95262C34.3852 5.25059 33.4046 5.67048 33.1779 6.40754C33.1399 6.55144 33.3688 6.96975 33.4628 6.70025Z" fill="currentColor"/>
<path d="M40.7678 5.82481C39.9959 5.5074 38.9302 5.54702 38.1012 5.44546C37.4163 5.36391 36.6968 5.17359 36.0103 5.21839C35.8656 5.23447 35.9695 5.56083 36.0048 5.61546C36.3928 6.28869 37.6946 6.14396 38.326 6.17062C39.2099 6.21877 40.4882 6.47088 41.3412 6.13951C41.5226 6.06978 41.3832 5.70683 41.2576 5.65096C40.3425 5.24134 39.06 5.29607 38.0686 5.19229C37.6539 5.15053 36.5932 4.82918 36.352 5.31331C36.278 5.43866 36.3473 5.65623 36.4543 5.74795C36.8472 6.06019 39.6958 6.33371 39.9046 5.57836C40.1706 4.60717 36.4879 4.61111 36.013 5.01984C35.9034 5.10861 35.9902 5.36253 36.0612 5.45376C36.5941 6.09285 38.7268 5.90529 39.3646 5.46268C39.4922 5.37416 39.3698 5.08365 39.2806 5.01023C38.7094 4.53308 37.4257 4.67806 36.7389 4.7409C36.1966 4.78767 34.9859 4.87947 34.9575 5.63728C34.9304 6.30485 35.6879 6.35128 36.175 6.37597C36.6982 6.40115 37.2399 6.39049 37.7633 6.39762C38.3048 6.405 39.0253 6.52314 39.5511 6.34979C39.7143 6.29786 39.5929 5.93515 39.5034 5.87977C38.8232 5.4553 37.6485 5.5476 36.8727 5.51897C36.2232 5.49207 34.9271 5.22167 34.4153 5.68406C34.2875 5.79063 34.3921 6.06284 34.4994 6.13651C34.9991 6.55853 35.9035 6.42643 36.535 6.45309C37.365 6.48246 38.377 6.406 39.1679 6.65146C39.134 6.48853 39.1002 6.32559 39.0843 6.1629C38.1258 6.29426 37.0643 6.02705 36.0907 5.94157C35.5316 5.89785 34.8114 5.76167 34.2492 5.95258C34.086 6.00451 34.2074 6.36721 34.2969 6.42258C34.6725 6.68044 35.4325 6.54638 35.8479 6.53399C36.805 6.51093 37.7623 6.46983 38.7192 6.46482C38.6853 6.30189 38.6333 6.1387 38.5995 5.97577C37.8755 6.11032 36.9921 6.02606 36.2521 6.01598C35.6387 5.98956 34.9194 5.78119 34.3219 5.91746C34.1406 5.96915 34.2977 6.36844 34.4055 6.40602C34.9442 6.61193 35.5942 6.60273 36.1713 6.64671C36.7484 6.69068 37.6708 6.55884 38.1906 6.83671C38.1747 6.67402 38.1589 6.51134 38.1428 6.3667C37.544 6.59322 36.3345 6.59478 35.7601 6.35227C35.794 6.5152 35.8279 6.67814 35.8437 6.84082C37.5982 6.59395 39.4847 7.2515 41.2416 6.82414C41.4045 6.79026 41.2841 6.35536 41.158 6.33559C40.3833 6.21671 39.589 6.22394 38.8128 6.21336C38.4338 6.20819 37.3721 5.95904 37.0965 6.31633C37.0045 6.44144 37.0547 6.73096 37.2164 6.78732C38.043 7.06937 39.055 6.9929 39.9033 7.00447C40.2642 7.00939 41.2018 7.09438 41.3704 6.64537C41.7822 5.56785 38.499 5.39673 38.0263 5.64302C37.9717 5.67838 37.9529 5.73228 37.9522 5.78643C37.928 6.2374 38.2694 6.35037 38.665 6.46408C39.5645 6.69297 40.8435 6.89093 41.7501 6.5964C41.8226 6.57933 41.8243 6.45299 41.8253 6.38079C41.7763 6.00103 41.4897 5.83465 41.1668 5.68583C40.7903 5.50017 39.7159 4.85369 39.3503 5.1917C39.1493 5.36948 39.3607 5.75147 39.4851 5.89758C39.8763 6.33617 40.9926 6.54996 41.5014 6.30416C41.556 6.2688 41.5748 6.2149 41.5756 6.16076C41.6054 5.29465 40.0937 4.94911 39.4245 5.0483C39.2435 5.08193 39.4003 5.49928 39.5081 5.53685C39.7773 5.64883 41.3083 5.90438 41.3587 6.17585C41.3926 6.33878 41.3934 6.28464 41.1402 6.3173C40.9592 6.35093 40.7248 6.32969 40.5819 6.21943C40.616 6.36431 40.6319 6.527 40.666 6.67188C40.8868 6.368 41.6799 6.45101 41.9682 6.49105C41.9343 6.32812 41.8824 6.16494 41.8483 6.02006C41.2638 6.51756 39.5284 6.69247 38.8092 6.48409C38.843 6.64702 38.8769 6.80996 38.8928 6.97265C39.0381 6.90242 40.865 6.63848 40.9882 6.87484C41.0077 6.76679 41.0094 6.64045 41.0289 6.5324C40.4652 6.8316 39.6548 6.69419 39.0594 6.66803C38.3735 6.65868 37.6508 6.70299 36.9672 6.5312C36.7872 6.49264 36.8527 6.98094 37.0327 7.01949C37.4103 7.13295 37.8254 7.13862 38.2044 7.14379C38.5293 7.14821 39.0903 7.04754 39.3761 7.26807C39.3603 7.10538 39.3445 6.9427 39.3284 6.79806C39.1103 6.9034 38.8933 6.93654 38.6411 6.897C38.6749 7.05993 38.7088 7.22287 38.7247 7.38555C39.3749 7.35831 40.0993 7.18767 40.7157 6.9975C41.2052 6.8417 41.6789 6.52321 42.2031 6.4762C42.3658 6.46037 42.2451 6.04351 42.1553 6.00619C41.7254 5.76564 40.7917 5.39187 40.3188 5.65621C40.2278 5.70913 40.2973 5.90865 40.3144 5.98109C40.5223 6.61575 41.8438 6.34493 42.3267 6.67646C42.2741 6.56743 42.2394 6.45864 42.1868 6.34961C42.1972 6.90937 40.8989 6.80142 40.6104 6.77943C40.6442 6.94236 40.6781 7.1053 40.694 7.26798C41.1298 7.07535 41.6706 7.13688 42.0887 6.92595C42.234 6.85572 42.1492 6.45741 42.005 6.4374C41.537 6.34075 41.2527 6.01194 40.8031 5.87944C40.2458 5.70938 39.5963 5.68247 39.0193 5.6385C38.0993 5.58985 36.6219 5.37114 35.8199 5.93788C35.7104 6.02665 35.7965 6.33471 35.904 6.39034C36.5313 6.72383 37.7638 6.36153 38.0975 5.71619C38.1534 5.59059 38.1025 5.35522 37.9951 5.28155C37.5118 4.98612 36.8778 5.13995 36.3532 5.22306C35.9188 5.3074 34.9441 5.29411 34.6507 5.6331C34.5409 5.73992 34.6275 6.01188 34.7348 6.08555C35.414 6.58222 37.1009 5.99144 37.7034 5.49419C37.8129 5.40542 37.7279 5.02517 37.5835 5.0232C36.8796 5.01361 36.119 5.18376 35.4317 5.2827C35.0156 5.34924 34.1668 5.37378 33.8731 5.73082C33.7631 5.85569 33.8501 6.09155 33.9572 6.18328C34.4574 6.56919 35.2884 6.52636 35.8838 6.55252C36.8038 6.60117 37.7225 6.74006 38.6242 6.80651C38.6084 6.64382 38.5926 6.48114 38.5587 6.3182C37.1511 6.28096 35.7277 6.08105 34.3201 6.04381C34.1216 6.0411 34.2052 6.52964 34.3857 6.5321C35.2698 6.56221 36.1708 6.68281 37.054 6.78511C37.8472 6.86813 38.8035 6.89922 39.5208 7.25199C39.5049 7.0893 39.4891 6.92661 39.473 6.78197C38.6749 7.05993 37.5596 6.77395 36.7303 6.69043C35.8652 6.58838 34.982 6.48608 34.0981 6.43792C33.8996 6.43522 34.0017 6.88792 34.1637 6.92623C34.9732 7.13584 35.8778 6.9857 36.7249 7.08751C37.1215 7.12902 37.5176 7.20663 37.9139 7.26619C38.2022 7.30623 38.6717 7.29458 38.9222 7.46046C38.9064 7.29777 38.8905 7.13508 38.8745 6.99044C37.8808 7.04911 36.892 6.7468 35.9003 6.66107C35.0889 6.59585 34.295 6.56697 33.4828 6.5559C33.3203 6.55369 33.422 7.04249 33.6025 7.04495C33.801 7.04765 33.9995 7.05036 34.1981 7.05307C34.3425 7.05503 34.2589 6.56648 34.0784 6.56402C33.8798 6.56131 33.6813 6.55861 33.4828 6.5559C33.5166 6.71883 33.5686 6.88201 33.6025 7.04495C34.5593 7.03994 35.5334 7.08932 36.4886 7.21066C37.3176 7.31222 38.1451 7.52207 38.9942 7.47949C39.1749 7.4639 39.0179 7.06461 38.9464 7.00948C38.4813 6.69626 37.5245 6.70126 36.9838 6.63973C36.0647 6.51889 35.0154 6.68511 34.134 6.45647C34.1498 6.61916 34.1657 6.78184 34.1995 6.94478C35.1917 6.99441 36.1647 7.13403 37.1561 7.23781C37.9132 7.32033 38.9029 7.55046 39.6464 7.30786C39.8096 7.25593 39.7062 6.89347 39.5986 6.83785C38.9172 6.50362 38.0874 6.4562 37.3484 6.37392C36.3753 6.25234 35.384 6.13052 34.4096 6.09918C34.4255 6.26187 34.4413 6.42456 34.4752 6.58749C35.8828 6.62473 37.2884 6.80635 38.7137 6.86189C38.9123 6.86459 38.8287 6.37605 38.6482 6.37359C37.8367 6.30837 37.026 6.189 36.1962 6.14158C35.565 6.09687 34.5887 6.20993 34.0528 5.78743C34.087 5.93231 34.1028 6.095 34.1369 6.23988C34.3938 5.93649 35.2609 5.89415 35.6409 5.82712C36.3102 5.72793 37.0529 5.53949 37.7205 5.56664C37.6866 5.40371 37.6347 5.24053 37.6005 5.09565C37.1075 5.50413 35.4026 6.09467 34.8304 5.68972C34.8646 5.8346 34.8804 5.99729 34.9145 6.14217C35.1528 5.87463 35.947 5.88546 36.2909 5.81793C36.8158 5.71678 37.559 5.49223 38.0605 5.7879C38.0263 5.64302 37.9922 5.49813 37.9581 5.35325C37.6985 5.85517 36.5377 6.25455 36.0182 5.95863C36.0523 6.10352 36.0682 6.2662 36.1023 6.41109C36.5216 6.10991 37.2616 6.12 37.7672 6.10884C38.4353 6.0999 39.1212 6.10925 39.788 6.19054C40.0585 6.21228 40.3104 6.26988 40.5626 6.30942C40.9948 6.38752 40.9221 6.42263 41.3696 6.69952C41.6382 6.86565 41.8184 6.88616 42.1245 6.94449C42.0906 6.78155 42.0567 6.61862 42.0409 6.45593C41.6048 6.66661 41.0821 6.60533 40.6462 6.79797C40.5008 6.86819 40.5854 7.28455 40.7298 7.28652C41.1625 7.32852 43.0225 7.28167 42.4758 6.3355C42.3346 6.0989 42.028 6.07667 41.7761 6.01907C41.5961 5.98052 40.6046 5.87674 40.5697 5.786C40.5683 5.89429 40.5668 6.00259 40.5653 6.11088C40.9112 5.89897 41.9168 6.29177 42.1853 6.4579C42.1695 6.29521 42.1536 6.13253 42.1375 5.98789C41.5953 6.03466 41.1758 6.35388 40.6501 6.50919C40.0338 6.69936 39.3094 6.87001 38.6591 6.89725C38.4964 6.91308 38.5983 7.38383 38.7427 7.3858C39.0134 7.38949 39.23 7.39245 39.5022 7.28785C39.6657 7.21786 39.5438 6.89125 39.4545 6.81783C38.8465 6.39434 37.7406 6.74031 37.0394 6.53218C37.0552 6.69487 37.071 6.85755 37.1049 7.02048C37.8605 7.2113 38.7098 7.15067 39.4859 7.16125C40.0274 7.16864 40.7481 7.26872 41.2391 7.00463C41.3482 6.95196 41.3328 6.75317 41.2799 6.66219C41.1392 6.38949 40.9775 6.33313 40.6529 6.31065C40.1116 6.28522 39.3182 6.22025 38.8457 6.44848C38.6821 6.53651 38.7854 6.89897 38.9293 6.93704C39.6845 7.16396 41.4742 6.97173 42.0953 6.43863C42.2048 6.34986 42.1195 5.98765 41.9753 5.96764C41.6149 5.92662 40.7856 5.8431 40.5463 6.18283C40.4543 6.30795 40.5053 6.54332 40.6304 6.63529C40.9699 6.89265 41.8728 6.86885 41.9163 6.32788C41.9827 5.42617 40.0181 5.20081 39.4793 4.99489C39.5132 5.15782 39.5471 5.32076 39.5629 5.48344C40.1417 5.40107 41.0398 5.73825 41.4502 6.08683C41.3975 5.9778 41.3629 5.86902 41.3102 5.75999C41.3083 5.90438 40.3354 5.76475 40.2454 5.74547C40.0293 5.70642 39.8498 5.63177 39.6524 5.53882C39.8141 5.59518 39.9759 5.65154 40.138 5.67181C40.2458 5.70938 41.5573 6.17856 41.556 6.2688C41.5751 6.19685 41.6122 6.12516 41.6312 6.05321C40.7426 6.34798 39.5358 6.151 38.6541 5.94041C38.6182 5.92187 38.2763 5.845 38.2765 5.82695C38.1848 5.93402 38.7073 6.01335 38.7434 6.01384C39.2477 6.09292 39.7717 6.06396 40.2755 6.17914C40.4194 6.21721 40.7438 6.25774 40.8687 6.36775C40.9399 6.44093 41.0133 6.35167 40.7599 6.40237C40.4341 6.47014 40.1272 6.46595 39.8023 6.46152C38.954 6.44996 37.9779 6.54497 37.1697 6.24511C37.2035 6.40805 37.2555 6.57123 37.2896 6.71611C37.4916 6.46614 38.6626 6.64457 38.9513 6.64851C39.7094 6.65884 40.4857 6.65137 41.2243 6.76975C41.1904 6.60682 41.1565 6.44388 41.1407 6.2812C39.3835 6.7266 37.497 6.06906 35.7428 6.29788C35.5438 6.33127 35.7186 6.74886 35.8264 6.78643C36.4547 7.04773 37.6464 7.02786 38.2813 6.80184C38.4445 6.7499 38.3411 6.38745 38.2336 6.33183C37.7316 6.07226 37.0262 6.17095 36.467 6.14527C35.7997 6.10007 35.0231 6.12559 34.3765 5.8821C34.4104 6.04503 34.4443 6.20797 34.4601 6.37065C35.1121 6.21707 35.9752 6.46351 36.643 6.47261C37.3289 6.48196 38.0679 6.56425 38.7377 6.42896C38.9187 6.39533 38.7804 5.94213 38.618 5.93992C37.8597 5.94763 37.1194 5.9556 36.3609 5.98136C35.855 6.01057 34.7689 6.23044 34.3397 5.93575C34.3555 6.09844 34.3713 6.26113 34.3874 6.40577C35.0587 6.16219 36.0126 6.37377 36.7157 6.43751C37.545 6.52102 38.3725 6.73087 39.2045 6.61585C39.3855 6.58221 39.2287 6.16487 39.1209 6.1273C38.438 5.90136 37.5524 5.97954 36.8129 5.93336C36.1633 5.90645 35.0599 6.07193 34.5243 5.63138C34.5585 5.77626 34.5743 5.93895 34.6084 6.08383C34.8458 5.88849 35.2606 5.9122 35.5494 5.91614C36.1092 5.90571 36.6863 5.94969 37.2455 5.97536C37.8951 6.00227 38.9248 5.9441 39.4977 6.29491C39.4819 6.13222 39.4661 5.96953 39.45 5.82489C38.9241 5.99825 35.5302 6.00614 35.4441 5.69808C35.2893 5.13635 38.8286 5.05823 39.2927 5.44365C39.2586 5.29877 39.2427 5.13608 39.2086 4.9912C38.8625 5.22116 38.2664 5.24914 37.8688 5.27983C37.4712 5.31051 36.4768 5.42332 36.1752 5.04011C36.1912 5.18475 36.2073 5.32938 36.2234 5.47402C36.7169 5.02944 37.7244 5.27786 38.3012 5.33988C38.6798 5.38114 39.4742 5.37391 39.7773 5.64883C39.7429 5.522 39.6905 5.39492 39.6561 5.26808C39.6178 5.43003 38.57 5.48795 38.4254 5.50403C37.9015 5.533 36.9253 5.62801 36.4968 5.27917C36.531 5.42406 36.5651 5.56894 36.5992 5.71383C36.8029 5.33751 38.5124 5.7399 38.8729 5.78092C39.6661 5.86394 40.6051 5.84064 41.3229 6.15731C41.289 5.99438 41.2551 5.83145 41.2393 5.66876C40.5314 5.94795 39.5412 5.75393 38.7834 5.72554C38.2422 5.70011 36.4887 5.87479 36.1712 5.32889C36.1695 5.45523 36.1675 5.59963 36.1658 5.72597C36.9248 5.66411 37.7521 5.89201 38.509 5.99259C39.248 6.07487 40.1692 6.03327 40.8511 6.3314C40.9768 6.38727 40.9292 5.89922 40.7678 5.82481Z" fill="currentColor"/>
<path d="M25.8465 6.56028C25.8477 5.15222 27.2277 3.23943 28.1968 2.33197C28.6905 1.86934 29.2554 1.47989 29.8908 1.21777C30.145 1.11292 31.0887 0.746688 31.3204 0.966474C31.3892 1.22014 31.4582 1.45576 31.545 1.70967C31.4159 1.90649 31.2871 2.08526 31.14 2.28183C30.424 3.15663 29.4749 3.91995 28.528 4.52082C27.9636 4.87417 27.3635 5.19092 26.7813 5.52598C26.3447 5.77276 25.7998 6.01806 25.4695 6.41071C25.5397 6.55609 25.6099 6.70147 25.6801 6.84684C25.6984 6.82904 25.6987 6.81099 25.717 6.79319C25.8089 6.66808 25.6168 6.1961 25.4878 6.39291C25.4695 6.41072 25.4692 6.42876 25.4509 6.44656C25.377 6.57192 25.5516 7.00756 25.6616 6.8827C26.1573 6.27568 27.1005 5.94554 27.7735 5.57561C28.5738 5.13521 29.3209 4.62188 30.033 4.03586C30.745 3.44984 32.4783 2.1015 31.8799 0.974101C31.1586 -0.407705 28.8628 1.1496 28.132 1.78952C27.4558 2.39408 26.9757 3.18183 26.4961 3.93349C26.0531 4.64954 25.5718 5.52755 25.578 6.39414C25.5577 6.55634 25.8421 6.88516 25.8465 6.56028Z" fill="currentColor"/>
<path d="M30.9389 2.47755C30.9752 2.45999 31.0118 2.42438 31.0482 2.40682C31.1757 2.3183 31.0541 1.97365 30.9282 1.93583C30.3707 1.78382 29.6253 2.1708 29.0816 2.32586C28.6828 2.44679 28.0313 2.56427 27.8454 2.95889C27.7895 3.08449 27.8405 3.31987 27.9478 3.39354C28.8431 3.92926 30.3401 2.70406 30.9443 2.08047C31.1458 1.86659 31.3295 1.63441 31.2073 1.32586C31.0681 0.94486 30.6883 0.993845 30.3449 1.02527C29.803 1.05399 27.9383 1.44376 28.4308 2.38919C28.6418 2.80727 29.2203 2.74295 29.583 2.62153C30.0725 2.46573 30.9075 2.13412 31.2024 1.68684C31.2763 1.56148 31.1898 1.28951 31.0642 1.23364C30.561 1.06431 28.4095 1.30577 28.3628 2.08139C28.3152 2.92919 29.8567 2.40863 30.1311 2.14159C30.2409 2.03477 30.1558 1.65452 29.9751 1.6701C29.5595 1.70054 29.1221 2.00147 28.7584 2.19509C28.4857 2.33579 28.2496 2.44088 28.0657 2.69111C28.0103 2.78061 28.0598 3.12428 28.2039 3.1443C28.7449 3.18778 29.2379 2.7793 29.6923 2.55082C30.1467 2.32233 30.7989 2.15069 31.1651 1.77659C31.2568 1.66952 31.2073 1.32586 31.0451 1.3056C30.7207 1.26507 30.4119 1.40527 30.1036 1.50938C29.9224 1.56107 30.0602 2.05036 30.2233 1.99843C30.5133 1.91212 31.1307 1.64975 31.4163 1.88832C31.3636 1.77929 31.329 1.67051 31.2763 1.56147C31.2734 1.77806 30.9136 1.68289 31.1841 1.70463C31.3283 1.72465 31.6917 1.54909 31.8902 1.5518C32.0888 1.5545 32.0052 1.06595 31.8247 1.06349C31.4278 1.04003 30.7269 0.813848 30.4688 1.20748C30.3949 1.33284 30.4807 1.65894 30.6434 1.64311C30.6975 1.64385 31.2766 1.54343 31.1885 1.37975C31.2061 1.4161 30.9853 1.71998 30.9665 1.77388C30.8926 1.89924 30.2835 2.88381 29.9452 2.53621C29.9615 2.66279 29.9957 2.80768 30.012 2.93427C30.2155 2.576 31.0165 2.08145 31.4126 2.15906C31.3594 2.08612 31.3063 2.0132 31.2531 1.94026C31.4084 2.4659 28.9629 3.08243 28.67 3.38533C28.5419 3.50995 28.7341 3.98193 28.8624 3.83926C29.43 3.25127 31.8871 3.10425 31.4887 1.87126C31.4717 1.79882 31.4192 1.67174 31.3292 1.65246C30.8251 1.55532 30.005 2.12182 29.7467 2.5335C29.6911 2.64105 29.7425 2.84033 29.8135 2.93156C30.4007 3.55334 31.1223 2.26341 31.308 1.88685C31.4192 1.67173 31.5307 1.43858 31.4076 1.20222C31.1967 0.78414 30.831 1.12215 30.4698 1.13528C30.522 1.28041 30.5922 1.42579 30.6444 1.57092C30.8102 1.32045 31.5658 1.51126 31.8183 1.53276C31.8024 1.37007 31.7866 1.20739 31.7527 1.04446C31.2835 1.03806 30.7778 1.04922 30.6617 1.62531C30.6226 1.8414 30.7082 2.18556 30.9604 2.2251C31.3384 2.30247 31.5612 1.8542 31.421 1.5454C31.1932 1.03683 30.3583 1.36844 29.9956 1.48986C30.0295 1.65279 30.0814 1.81597 30.1153 1.97891C30.3872 1.89235 30.7141 1.75239 30.9846 1.77413C30.9507 1.61119 30.8988 1.44802 30.8646 1.30314C30.5165 1.67749 29.9007 1.83156 29.4645 2.04224C29.0465 2.25317 28.5354 2.66141 28.0484 2.63672C28.1005 2.78185 28.1527 2.92698 28.1866 3.08991C28.4447 2.69628 29.4984 2.20517 29.9862 2.17572C29.9343 2.01254 29.8824 1.84937 29.8302 1.70424C29.7024 1.81081 28.595 2.26507 28.4536 2.04652C28.4701 2.15506 28.4865 2.28164 28.503 2.39018C28.7092 1.83337 30.518 1.56919 31.0031 1.73827C30.9509 1.59314 30.8988 1.44801 30.8649 1.28508C30.7175 1.4997 28.8979 2.55804 28.6501 2.19361C28.4733 1.92042 30.067 1.54499 30.2297 1.52916C30.3202 1.51234 30.5012 1.4787 30.5729 1.51578C30.7527 1.57239 30.7 1.46336 30.6256 1.62482C30.5514 1.76822 30.2787 1.90892 30.1511 1.99744C29.6404 2.38763 28.5258 3.36531 27.8098 2.9223C27.8439 3.06718 27.878 3.21207 27.9122 3.35695C28.0981 2.96234 28.93 2.84731 29.2925 2.74394C29.7276 2.60545 30.3638 2.28918 30.8313 2.42192C30.7975 2.25898 30.7455 2.09581 30.7114 1.95093C30.675 1.96848 30.6385 2.00409 30.6021 2.02165C30.6192 2.09409 30.775 2.58363 30.9389 2.47755Z" fill="currentColor"/>
<path d="M31.1051 2.19102C31.2522 1.99445 31.2337 2.03031 31.3269 1.81495C31.3827 1.68935 31.3308 1.52617 31.2601 1.41689C30.5143 0.504109 28.4368 1.93803 28.3521 2.85754C28.3509 2.94778 28.4018 3.18315 28.5279 3.20292C29.0689 3.2464 29.6853 3.05623 30.158 2.80994C30.3216 2.72191 30.1836 2.25067 30.0383 2.3209C29.1848 2.68836 27.9877 3.10531 27.3105 3.78206C27.2007 3.88888 27.2863 4.23303 27.4305 4.25305C28.3843 4.46463 29.303 3.2857 30.2596 3.29874C30.2077 3.13556 30.1558 2.97239 30.1036 2.82726C29.6835 3.18258 29.1923 3.46471 28.7191 3.7471C28.3551 3.95876 27.8295 4.11407 27.6258 4.49039C27.5702 4.59795 27.6199 4.92357 27.764 4.94358C28.1245 4.9846 28.4533 4.70025 28.7446 4.5237C29.2544 4.20571 29.8181 3.9065 30.2747 3.51558C30.4025 3.40901 30.2643 2.95581 30.0823 3.06165C29.4454 3.43206 28.8986 3.82176 28.3324 4.30145C27.949 4.62117 27.367 4.93817 27.1084 5.3679C27.0347 5.47521 27.12 5.83742 27.283 5.80353C27.862 5.70311 28.4106 5.18708 28.8128 4.81346C28.9043 4.72445 28.8536 4.47102 28.7646 4.37955C28.4261 4.04999 27.0967 4.89839 26.7691 5.0925C26.8213 5.23763 26.8915 5.38299 26.9437 5.52812C27.3121 4.99158 28.0582 4.55045 28.5515 4.12392C28.862 3.85736 29.3169 3.59278 29.4486 3.19743C29.486 3.10767 29.4004 2.76351 29.2555 2.79764C28.5128 2.98609 27.8547 3.5909 27.2529 4.034C27.3231 4.17938 27.3751 4.34256 27.4453 4.48793C27.9407 3.89896 28.6518 3.38514 29.0399 2.7225C29.1138 2.59714 29.0453 2.32542 28.9017 2.26931C28.4341 2.13657 27.7399 2.74088 27.6077 3.17233C27.5884 3.26233 27.673 3.67868 27.8371 3.55455C28.184 3.27044 28.5133 2.95 28.8424 2.64759C28.9702 2.54102 28.849 2.16028 28.6863 2.17611C28.2166 2.20581 27.5431 2.61183 27.3745 3.06084C27.3372 3.15059 27.3854 3.5845 27.5491 3.49647C28.0574 3.28677 28.607 2.69854 29.0273 2.32517C29.1371 2.21836 29.0339 1.83785 28.8712 1.85368C28.329 1.90045 27.4336 2.70059 27.5515 3.31598C27.551 3.35208 27.6371 3.66014 27.7464 3.58942C28.0737 3.41336 28.4023 3.14706 28.6228 2.86123C28.7145 2.75417 28.6307 2.28366 28.4304 2.4073C27.8119 2.75991 26.17 4.01924 26.6272 4.91004C26.645 4.92833 26.6982 5.00127 26.7343 5.00176C27.2757 5.00914 27.9902 4.24263 28.2308 3.81265C28.2866 3.68705 28.2189 3.36118 28.0562 3.37701C27.243 3.43814 26.4538 4.38415 26.0835 5.06509C26.0096 5.19045 26.0781 5.46217 26.2218 5.51828C26.9232 5.70837 28.1922 3.99265 28.3801 3.45364C28.4179 3.32779 28.403 3.09291 28.2777 3.01899C27.8836 2.79699 27.2628 3.31205 27.1673 3.68985C27.1478 3.7979 27.1975 4.12351 27.3605 4.08962C27.6863 4.02186 27.9974 3.71921 28.1996 3.45118C28.2733 3.34387 28.1877 2.99971 28.025 3.01554C27.5733 3.04549 27.0071 3.52519 26.8571 3.93834C26.8193 4.06419 26.8517 4.33542 26.9953 4.39154C27.4092 4.48744 28.163 3.48679 28.1684 3.08971C28.1696 2.99947 28.1194 2.70994 27.9745 2.74407C27.3774 2.84425 26.8457 3.45078 26.5678 3.97051C26.5122 4.07806 26.5965 4.51247 26.7785 4.40664C27.2336 4.12401 27.6178 3.75015 27.9484 3.33945C28.0218 3.25019 27.974 2.78017 27.7923 2.86796C27.193 3.13057 26.2036 4.20022 26.1401 4.88534C26.0769 5.55241 26.6549 5.52419 27.0564 5.20472C27.1843 5.09815 27.0631 4.71741 26.9004 4.73324C26.5031 4.74588 26.0667 4.9746 25.9349 5.36996C25.8971 5.49581 25.9661 5.73143 26.092 5.76925C26.3254 5.86269 26.5434 5.75735 26.6369 5.52394C26.6742 5.43419 26.6438 5.01858 26.4623 5.08831C26.263 5.13975 26.1537 5.21048 26.061 5.38973C25.9871 5.51509 26.0737 5.78706 26.1993 5.84293C26.4327 5.93637 26.6327 5.83078 26.8332 5.68909C26.9427 5.60032 26.8576 5.22007 26.7133 5.2181C26.4069 5.17782 26.0791 5.38998 25.9491 5.65899C25.8934 5.76655 25.9431 6.09217 26.0873 6.11218C26.3758 6.13417 26.5932 6.08297 26.8122 5.90544C26.9217 5.81667 26.8015 5.36372 26.6562 5.43394C26.3657 5.55635 26.111 5.6973 25.8561 5.8563C25.7288 5.92677 25.8317 6.32532 25.976 6.32729C26.0302 6.32802 26.0663 6.32852 26.1204 6.32925C26.3187 6.35001 26.2354 5.84342 26.0549 5.84096C26.0007 5.84022 25.9646 5.83973 25.9105 5.83899C25.9444 6.00192 25.9963 6.1651 26.0304 6.30998C26.2673 6.15074 26.5037 6.02759 26.7759 5.92299C26.7239 5.75981 26.672 5.59664 26.6198 5.45151C26.4552 5.61173 26.2559 5.66317 26.0217 5.62388C26.0739 5.76901 26.1261 5.91414 26.16 6.07707C26.2529 5.87976 26.5439 5.72125 26.7603 5.74225C26.7264 5.57932 26.6745 5.41615 26.6403 5.27126C26.4942 5.39564 26.3313 5.42952 26.1332 5.39072C26.1854 5.53585 26.2376 5.68098 26.2715 5.84391C26.3627 5.77295 26.472 5.70222 26.5632 5.63126C26.511 5.48613 26.4408 5.34075 26.3886 5.19562C26.2615 5.24804 26.1525 5.30072 26.0254 5.35314C26.0779 5.48022 26.13 5.62536 26.1825 5.75244C26.2766 5.46488 26.7662 5.30909 27.0189 5.31253C26.9669 5.14935 26.915 4.98617 26.8628 4.84104C26.151 5.40901 26.776 4.58712 26.978 4.33715C27.2349 4.03376 27.5474 3.62281 27.9105 3.46529C27.8586 3.30211 27.8067 3.13894 27.7545 2.99381C27.424 3.40451 27.0217 3.77812 26.5846 4.061C26.6548 4.20637 26.7251 4.35175 26.7953 4.49713C27.0361 4.0491 27.5496 3.46037 28.0925 3.35946C28.0218 3.25018 27.9513 3.12285 27.8987 3.01382C27.8962 3.19431 27.1441 4.06863 26.9463 4.01177C26.9985 4.1569 27.0507 4.30203 27.0846 4.46497C27.2158 4.10571 27.7815 3.66211 28.1427 3.64898C28.0905 3.50385 28.0203 3.35848 27.9681 3.21335C27.821 3.40992 27.492 3.71232 27.2388 3.74498C27.3093 3.8723 27.3615 4.01744 27.4319 4.14476C27.4707 3.94672 28.0186 3.48482 28.2513 3.63241C28.2171 3.48753 28.183 3.34264 28.1489 3.19776C27.9988 3.61091 26.7476 5.34494 26.1542 5.17438C26.2064 5.31951 26.2586 5.46463 26.2925 5.62757C26.644 5.00053 27.4144 4.10841 28.1554 4.0463C28.1032 3.90117 28.033 3.7558 27.9808 3.61068C27.8883 3.77189 26.9555 4.66178 26.9736 4.66202C26.7953 4.49712 28.4201 3.16535 28.6021 3.05952C28.5318 2.91414 28.4799 2.75096 28.4097 2.60559C28.2077 2.85557 27.8608 3.13968 27.5879 3.29843C27.6589 3.38966 27.7298 3.48089 27.7827 3.57187C27.6984 3.13746 28.6812 2.55513 28.9524 2.52272C28.9004 2.35954 28.8485 2.19637 28.7963 2.05124C28.4129 2.37096 27.8265 3.01284 27.3728 3.18718C27.425 3.33231 27.4952 3.47769 27.5474 3.62282C27.6791 3.22746 28.3882 2.85802 28.7494 2.8449C28.6975 2.68172 28.6455 2.51854 28.5934 2.37341C28.2643 2.67582 27.935 2.99626 27.5881 3.28037C27.6586 3.4077 27.7471 3.53528 27.8176 3.66261C27.9123 3.33895 28.6048 2.86098 28.9104 2.95541C28.8582 2.81028 28.806 2.66515 28.7721 2.50222C28.4206 3.12926 27.6915 3.64283 27.2327 4.1962C27.1409 4.30326 27.2428 4.77401 27.425 4.65013C28.0085 4.22483 28.6483 3.63783 29.373 3.44913C29.3025 3.3218 29.2504 3.17667 29.1799 3.04935C29.0293 3.4986 28.1381 3.99192 27.7909 4.29407C27.4258 4.59598 26.9704 4.89666 26.7125 5.27225C26.6571 5.36175 26.7415 5.79615 26.8871 5.70788C27.0144 5.6374 28.5604 4.79197 28.6853 4.90199C28.6692 4.75735 28.6531 4.61271 28.637 4.46807C28.2531 4.82388 27.7045 5.33992 27.1618 5.42279C27.214 5.56792 27.2842 5.7133 27.3364 5.85843C27.6135 5.39284 28.3226 5.02341 28.7246 4.66784C29.2175 4.25936 29.7095 3.92307 30.2552 3.62362C30.185 3.47824 30.133 3.31507 30.0628 3.16969C29.7523 3.43624 29.3703 3.64766 29.0061 3.87738C28.6783 4.08954 28.0755 4.60484 27.6609 4.56308C27.7131 4.70821 27.7653 4.85334 27.7991 5.01628C28.0026 4.658 28.7278 4.43321 29.0556 4.22105C29.4561 3.97378 29.8747 3.72675 30.2218 3.42459C30.3496 3.31802 30.2282 2.95532 30.0658 2.9531C29.1453 2.94055 28.2268 4.10143 27.3088 3.9084C27.3427 4.07133 27.3946 4.23451 27.4287 4.3794C28.1059 3.70264 29.2303 3.32081 30.1019 2.95359C30.068 2.79066 30.016 2.62749 29.9822 2.46456C29.5458 2.69329 28.8931 2.90102 28.4243 2.85852C28.477 2.96755 28.5294 3.09463 28.6001 3.20391C28.6631 2.55488 30.6121 1.28169 31.1444 1.95688C31.1281 1.83029 31.094 1.68541 31.0776 1.55882C31.022 1.66637 30.9666 1.75588 30.911 1.86344C30.8205 1.88026 31.0129 2.33418 31.1051 2.19102Z" fill="currentColor"/>
<path d="M21.5616 7.04358C22.9321 7.15252 24.4369 8.00344 25.6378 8.63359C26.2292 8.94854 27.037 9.28449 27.4079 9.88527C28.0612 10.9593 26.6507 11.1386 25.949 10.9666C24.5632 10.6588 23.625 9.29214 22.8817 8.19887C22.5279 7.67053 21.8029 6.55945 21.1168 6.56815C20.9904 6.56643 21.0585 6.87425 21.076 6.91059C21.0936 6.94694 21.1111 6.98328 21.1287 7.01962C21.2869 7.32867 21.4353 7.04186 21.3299 6.82379C21.3124 6.78745 21.2948 6.7511 21.2772 6.71475C21.2577 6.8228 21.256 6.94915 21.2365 7.0572C21.5072 7.06089 22.0764 7.68242 22.2542 7.88342C22.5922 8.24908 22.8212 8.6674 23.1046 9.06841C23.5118 9.65164 23.9742 10.1634 24.5095 10.622C25.0626 11.0989 25.6894 11.4685 26.4289 11.5147C26.8799 11.5389 27.7104 11.5322 27.898 11.0112C28.2179 10.0588 27.2024 9.07012 26.5041 8.6454C25.8059 8.22068 25.0528 7.84936 24.3172 7.51439C23.438 7.12331 22.488 6.62295 21.5322 6.55576C21.2978 6.53452 21.3992 7.04137 21.5616 7.04358Z" fill="currentColor"/>
<path d="M23.0752 7.24443C23.0574 7.22613 23.0216 7.20758 23.0038 7.18929C22.825 7.06048 22.8728 7.5305 22.9618 7.62197C23.3898 8.00691 23.9451 8.32137 24.4278 8.67094C24.9285 9.02076 25.4282 9.44277 25.9843 9.70308C25.9684 9.54039 25.9526 9.3777 25.9187 9.21477C25.1465 8.91541 24.4327 8.30996 23.7527 7.86743C23.5201 7.71984 22.4492 6.82069 22.1404 6.9609C21.9767 7.04893 22.0989 7.35748 22.1881 7.4309C22.9732 8.10954 23.8507 8.62697 24.7646 9.12684C25.087 9.31175 25.4084 9.56887 25.7494 9.71794C26.1976 9.94068 25.6438 9.51792 25.5009 9.40766C25.2155 9.15104 24.5519 8.8351 24.4851 8.43704C24.4661 8.50899 24.429 8.58069 24.41 8.65264C24.7915 8.47731 26.0802 9.28919 26.3648 9.59996C26.9167 10.1671 25.8055 9.57428 25.5909 9.42693C25.0902 9.07711 24.6271 8.6195 24.3093 8.09165C24.3076 8.21799 24.3239 8.34458 24.3222 8.47092C24.8513 8.06293 26.517 9.02435 26.7994 9.49756C27.1167 10.0615 26.2931 9.56287 26.0962 9.43382C25.7565 9.19451 25.4343 8.99154 25.15 8.66272C25.148 8.80712 25.1641 8.95175 25.1619 9.11419C25.3426 9.09861 27.4648 9.68715 27.0615 10.133C26.9149 10.2934 26.1962 10.049 26.0167 9.97431C25.6396 9.82475 25.0479 9.52785 24.745 9.23488C24.7614 9.36147 24.7955 9.50635 24.8118 9.63294C24.9055 9.38149 25.516 9.62449 25.6774 9.6989C25.893 9.77405 26.8628 10.1483 26.5718 10.3068C26.1171 10.5533 24.7745 9.7227 24.5082 9.39413C24.5243 9.53876 24.5403 9.6834 24.5564 9.82803C24.8667 9.57953 27.1666 10.3691 27.0912 10.6027C27.0153 10.8725 25.3108 10.1091 25.2752 10.0725C25.2732 10.2169 25.2893 10.3615 25.2871 10.524C25.522 10.5091 26.1156 10.6616 26.2758 10.8263C26.1334 10.6799 25.808 10.7116 25.6664 10.5111C25.6646 10.6374 25.6627 10.7818 25.6609 10.9082C26.1154 10.6797 27.5512 11.295 27.4191 10.3906C27.3201 9.70324 26.2968 9.29214 25.7397 9.10402C25.2904 8.95348 24.9453 9.11124 25.2455 9.60275C25.5281 10.0579 26.5508 10.5232 27.0222 10.3671C27.0766 10.3498 27.0957 10.2778 27.0964 10.2237C27.1779 9.53883 26.3173 9.1119 25.8156 8.83427C25.3676 8.59349 23.9903 7.65405 23.55 8.17156C23.2568 8.4925 23.5914 9.11084 23.7862 9.38429C24.282 10.0951 25.3375 10.7955 26.2214 10.8436C26.2756 10.8443 26.3122 10.8087 26.331 10.7548C26.432 9.96191 24.5811 9.34096 24.0594 9.20749C23.9155 9.16942 23.9482 9.4226 23.9655 9.47699C24.2071 10.2926 25.2537 10.325 25.6778 10.9987C25.6795 10.8723 25.6632 10.7457 25.6649 10.6194C25.3736 10.796 24.2503 9.76971 24.0904 9.587C24.0884 9.73139 24.0864 9.87578 24.0842 10.0382C24.4974 10.1883 25.0522 10.5388 25.3546 10.8679C25.3566 10.7235 25.3585 10.5791 25.3608 10.4167C25.09 10.413 23.9986 9.69407 23.8762 9.40356C23.8567 9.51161 23.8189 9.63746 23.7994 9.74551C24.0696 9.7853 24.1764 9.89506 24.3369 10.0417C24.5154 10.1885 24.4496 9.71827 24.4142 9.66363C24.2911 9.42727 23.5953 8.82206 23.67 8.64255C23.7075 8.53475 23.8141 8.66257 23.9746 8.80918C24.1709 8.97432 24.3119 9.22898 24.4718 9.41168C24.4919 9.26753 24.5119 9.12339 24.5138 8.979C24.1924 8.72189 23.8715 8.42867 23.6052 8.1001C23.5851 8.24424 23.5651 8.38839 23.5632 8.53278C24.0638 8.8826 24.7975 9.36196 25.1696 9.8725C25.1716 9.72811 25.1735 9.58371 25.1757 9.42127C24.4397 9.1224 23.3841 8.42203 22.9057 7.76562C22.8857 7.90977 22.8656 8.05392 22.8637 8.19831C23.2922 8.54715 24.1133 9.22627 24.3045 9.77044C24.324 9.6624 24.3257 9.53606 24.3453 9.42801C23.8555 9.60186 22.7566 8.10659 22.4181 7.77704C22.2045 7.5575 22.2517 8.0636 22.3405 8.17312C22.7658 8.75659 23.264 9.2869 23.7076 9.85257C23.7276 9.70842 23.7477 9.56428 23.7496 9.41989C23.2321 8.97958 22.8456 8.19806 22.5103 7.63387C22.4906 7.75996 22.4527 7.88582 22.433 8.01192C22.7915 8.19733 23.1119 8.52664 23.3424 8.83667C23.3622 8.71057 23.4002 8.56667 23.42 8.44057C23.0286 8.02003 22.6015 7.5629 22.265 7.08895C22.245 7.2331 22.225 7.37725 22.223 7.52164C22.5808 7.7612 22.9015 8.07246 23.2407 8.34787C23.5975 8.65962 24.1529 8.97408 24.4367 9.339C24.4567 9.19485 24.4768 9.0507 24.4787 8.90631C23.9244 8.51966 23.3364 7.95202 22.9286 7.40489C22.9267 7.54928 22.9428 7.69392 22.9405 7.85636C23.3018 7.84323 24.089 8.35943 24.3746 8.598C24.3766 8.45361 24.3788 8.29117 24.3988 8.14702C23.8432 7.85061 23.3069 7.46421 22.7882 7.11414C22.804 7.27683 22.8018 7.43927 22.8179 7.5839C23.4823 7.84569 24.0527 8.37698 24.7356 8.60292C24.9153 8.65953 24.8134 8.18878 24.7059 8.13316C24.0791 7.76357 23.5806 7.25131 22.9538 6.88172C22.9697 7.04441 22.9674 7.20685 22.9835 7.35148C23.4516 7.44813 23.8598 7.95916 24.2169 8.25286C24.6985 8.67463 25.1802 9.09639 25.607 9.57157C25.9806 9.97381 26.1188 10.427 26.3471 10.8995C26.4348 11.0812 26.4519 11.1536 26.5765 11.2817C26.8258 11.5378 27.3452 11.8338 27.5138 11.3847C27.6819 10.9718 27.2905 10.5513 27.0596 10.2774C27.0396 10.4215 27.0195 10.5656 27.0176 10.71C27.4653 10.9689 27.8093 10.9014 27.6005 10.3208C27.3575 9.61348 26.585 9.33218 25.9155 9.44942C25.7526 9.4833 25.8542 9.97209 26.0352 9.93845C26.3608 9.88873 26.7584 9.85806 27.0079 10.0961C27.0615 10.133 27.2747 10.3886 27.0418 10.2591C26.8269 10.1298 26.9288 10.6005 26.9998 10.6918C27.3731 11.112 26.8307 11.1769 26.6012 10.7946C26.5305 10.6853 26.5515 10.469 26.4993 10.3239C26.343 9.87045 26.0048 9.52284 25.7026 9.17573C25.2756 8.7186 24.812 8.29708 24.3481 7.89361C23.9379 7.52697 23.476 6.9791 22.9363 6.84538C22.7382 6.80657 22.8584 7.25952 22.966 7.31514C23.593 7.66668 24.0912 8.19699 24.718 8.56658C24.7022 8.40389 24.7044 8.24145 24.6883 8.09682C24.0054 7.87088 23.4348 7.35764 22.7706 7.0778C22.5911 7.00314 22.6928 7.49194 22.8003 7.54756C23.3371 7.89787 23.8556 8.26599 24.411 8.58045C24.6261 8.69169 24.5244 8.2029 24.4352 8.12947C24.0603 7.81747 23.3628 7.3386 22.8572 7.34976C22.6947 7.34755 22.834 7.72854 22.8691 7.80123C23.3124 8.38495 23.9007 8.93454 24.4906 9.35778C24.7052 9.50512 24.6038 8.99827 24.5326 8.92509C24.2666 8.57847 23.8185 8.33769 23.4796 8.04423C23.0872 7.69589 22.6952 7.31145 22.2477 7.03456C22.0328 6.90527 22.1525 7.39432 22.2057 7.46725C22.5605 7.92339 22.9693 8.39832 23.3607 8.81886C23.5743 9.0384 23.5271 8.5323 23.4383 8.42277C23.1903 8.0764 22.834 7.72854 22.4576 7.52484C22.2425 7.41359 22.3271 7.82994 22.3803 7.90288C22.7683 8.5761 23.1731 9.33982 23.7618 9.85331C23.9401 10.0182 23.875 9.49381 23.8038 9.42063C23.3602 8.85496 22.88 8.3249 22.4366 7.74118C22.4169 7.86728 22.3788 8.01118 22.359 8.13728C22.6975 8.46683 23.921 10.0902 24.5015 9.88145C24.6284 9.84707 24.5774 9.6117 24.5423 9.53901C24.2812 8.83141 23.4959 8.17082 22.9064 7.71148C22.7098 7.56438 22.8113 8.07123 22.8644 8.14417C23.3782 8.85521 24.4699 9.55608 25.2776 9.89203C25.4752 9.96693 25.3192 9.49545 25.2838 9.44081C24.8941 8.89393 24.1602 8.43261 23.6239 8.0462C23.4093 7.89886 23.5107 8.40571 23.5819 8.47889C23.8661 8.82575 24.2048 9.13726 24.5618 9.43096C24.7404 9.57782 24.6748 9.08951 24.6038 8.99828C24.3551 8.70605 23.8788 7.8872 23.3893 8.043C23.353 8.06056 23.3344 8.09641 23.3159 8.13226C23.198 8.83469 24.0028 9.38724 24.3023 9.93289C24.322 9.80679 24.3599 9.68093 24.3796 9.55484C24.1655 9.3714 24.0587 9.26164 23.7701 9.23965C23.6079 9.21939 23.6582 9.5089 23.6933 9.58159C23.8154 9.89014 24.1379 10.0751 24.4061 10.2592C24.71 10.48 25.0475 10.8818 25.4446 10.8872C25.6431 10.8899 25.5398 10.5274 25.4508 10.436C25.0952 10.034 24.5584 9.68365 24.0372 9.51407C23.8396 9.43917 23.9779 9.89236 24.031 9.9653C24.3156 10.2761 25.4021 11.356 25.8756 11.0555C25.9848 10.9848 25.8978 10.7489 25.8627 10.6763C25.7037 10.4214 25.5608 10.3111 25.3283 10.1454C25.0779 9.97956 24.3416 9.69874 24.2553 9.40873C24.2179 9.49848 24.1986 9.58848 24.1611 9.69629C24.593 9.79244 25.0047 10.0508 25.3993 10.2367C25.471 10.2738 25.8825 10.5502 25.9729 10.5333C26.0088 10.5519 26.0624 10.5887 26.0983 10.6072C26.1195 10.3729 26.0308 10.2633 25.8139 10.2784C25.3306 9.98301 24.3584 9.78923 24.0955 9.20798C23.6751 8.26353 24.3749 8.57996 24.68 8.71048C25.039 8.8598 25.3973 9.06325 25.738 9.23037C25.9709 9.35991 26.3301 9.49117 26.5079 9.69217C26.7742 10.0207 26.4694 9.87217 26.2179 9.77848C26.0384 9.70382 25.3033 9.33276 25.8052 9.59233C26.0562 9.72212 27.2613 10.0454 26.8596 10.3829C26.6403 10.5785 25.9044 10.2616 25.5954 10.4199C25.4681 10.4903 25.519 10.7257 25.59 10.8169C25.7846 11.1084 26.6438 11.6437 26.7602 11.0495C26.8776 10.3832 25.673 10.0238 25.2213 10.0537C25.0586 10.0696 25.18 10.4323 25.2332 10.5052C25.5361 10.7982 27.5821 11.6745 27.5224 10.753C27.4925 10.3013 26.865 9.98588 26.5423 9.81901C26.094 9.59627 24.8741 9.03806 24.4177 9.41094C24.3082 9.49971 24.395 9.75363 24.4659 9.84486C24.7676 10.2281 27.3665 11.5994 27.2022 10.4057C27.1033 9.71833 24.8797 8.62294 24.6355 9.32365C24.5977 9.4495 24.6133 9.63024 24.7023 9.72171C25.0759 10.124 27.4943 11.4928 27.6005 10.3208C27.7043 9.32937 25.7453 8.6889 25.0409 8.7154C24.8783 8.73124 24.9997 9.09394 25.0528 9.16687C25.4618 9.62376 26.6732 10.8137 27.3471 10.3715C27.4018 10.3362 27.3852 10.2276 27.3859 10.1735C27.3406 9.52299 26.7519 9.00951 26.2332 8.65944C25.7322 8.32767 24.6942 7.66364 24.1288 8.08919C24.0376 8.16015 24.1066 8.39577 24.1417 8.46846C24.389 8.86898 26.8099 11.3752 26.9357 10.0952C26.9784 9.60832 26.3165 9.16604 25.9943 8.96308C25.6363 8.74157 24.7432 8.04341 24.289 8.25385C24.2164 8.28896 24.1968 8.397 24.2139 8.46944C24.348 9.22947 25.4005 10.1464 26.1386 10.3009C26.1925 10.3197 26.2293 10.266 26.2481 10.2121C26.4004 9.63654 25.5933 9.24644 25.2173 9.02469C24.1785 8.4148 23.1388 7.87711 22.2109 7.08822C22.2267 7.2509 22.2425 7.4136 22.2586 7.55823C22.5313 7.41753 23.9239 8.55576 24.1746 8.70359C24.7472 9.07245 25.3362 9.56789 25.9828 9.81138C26.1445 9.86774 26.0789 9.37943 25.9172 9.32307C25.397 9.0813 24.8973 8.65928 24.4325 8.328C23.9854 8.01502 23.4298 7.71861 23.0377 7.35222C23.0177 7.49637 22.9976 7.64052 22.9957 7.78491C23.0135 7.8032 23.0493 7.82174 23.0671 7.84004C23.2296 7.84225 23.2004 7.33639 23.0752 7.24443Z" fill="currentColor"/>
<path d="M16.8477 7.2138C16.2429 6.55567 18.2086 4.05514 18.5589 3.51835C19.1121 2.65938 20.1376 1.59022 21.3084 1.7867C22.443 1.98269 21.4848 3.41382 21.081 3.89573C20.5851 4.5208 20.0006 5.01829 19.3269 5.44237C18.9084 5.68939 18.4717 5.93617 18.0176 6.14661C17.5088 6.3924 16.9297 6.49282 16.4385 6.77496C16.2928 6.86324 16.4489 7.33472 16.6308 7.22889C17.1584 6.92919 17.8102 6.79366 18.3734 6.53055C18.7549 6.35523 19.1008 6.14332 19.4647 5.93166C20.3382 5.42005 21.0517 4.72573 21.6406 3.90335C22.1746 3.13438 22.7377 1.55346 21.3509 1.31793C19.7301 1.02505 18.7343 2.56397 17.9788 3.69096C17.4075 4.54968 15.8097 6.54977 16.7881 7.61014C16.9659 7.81114 16.9545 7.32357 16.8477 7.2138Z" fill="currentColor"/>
<path d="M12.2269 8.48671C13.4708 8.61198 14.8386 8.91947 15.9866 9.45864C16.6503 9.77457 17.2585 10.18 17.7748 10.7106C18.184 11.1494 18.4513 11.4058 18.3705 12.0365C18.2889 12.7214 18.1834 12.5214 17.6626 12.3157C16.2442 11.7548 15.2618 10.9832 14.2846 9.83259C13.7337 9.19325 12.9155 8.29752 12.0707 8.03327C11.8909 7.97667 11.9562 8.48302 12.1362 8.52158C12.9091 8.7668 13.6917 9.62593 14.2072 10.2106C14.7406 10.8136 15.2552 11.4705 15.9534 11.8952C16.4546 12.209 18.7266 13.7202 18.9946 12.6046C19.2625 11.489 17.8544 10.1701 17.0681 9.58169C15.7097 8.58835 13.8385 8.12959 12.198 7.96281C11.9633 7.95961 12.0647 8.46645 12.2269 8.48671Z" fill="currentColor"/>
<path d="M7.47159 9.05377C6.61139 8.59074 8.61785 5.74778 8.96791 5.22903C9.28089 4.78199 9.62973 4.3535 10.1032 4.05306C10.3581 3.89407 10.6486 3.77166 10.9559 3.73975C11.733 3.67813 11.7417 4.36423 11.4636 4.90201C10.9069 6.01366 9.7199 7.00841 8.73493 7.75318C8.33367 8.0546 7.8973 8.28333 7.49628 8.5667C7.29578 8.70839 6.93184 8.92005 6.8206 9.13516C6.74643 9.27857 6.95687 9.73274 7.04982 9.53544C7.16107 9.32032 7.59769 9.07355 7.7799 8.94966C8.14457 8.68385 8.56265 8.47292 8.92731 8.20711C9.76618 7.58671 10.5163 6.85679 11.1773 6.0354C11.673 5.42838 12.6172 3.70823 11.3594 3.27588C9.84992 2.76789 8.72039 4.84656 8.111 5.84918C7.64919 6.61913 7.11471 7.42421 7.06606 8.34421C7.06114 8.70519 7.10717 9.30153 7.46544 9.50499C7.6625 9.61599 7.615 9.12793 7.47159 9.05377Z" fill="currentColor"/>
<path d="M21.0615 4.00381C21.0978 3.98625 21.1161 3.96845 21.1525 3.9509C21.2798 3.88042 21.1594 3.44553 20.9964 3.47941C20.4535 3.58033 17.4933 4.87584 18.493 5.70182C19.0642 6.17897 19.8338 5.341 20.1816 4.98469C20.6392 4.52157 21.6057 3.81265 21.6694 3.10948C21.6704 3.03729 21.6199 2.76582 21.4936 2.7641C20.6636 2.73473 19.4079 3.47581 18.8754 4.13648C18.6185 4.43987 18.3565 5.12229 18.822 5.39942C19.5027 5.78779 20.1339 4.51468 20.392 4.12105C20.5947 3.81693 21.2738 2.99578 20.6643 2.68058C20.1624 2.42101 18.7042 3.44816 18.5 3.86058C18.3144 4.23715 18.4355 4.6179 18.8865 4.6421C19.6082 4.66999 22.4912 2.41665 21.2886 1.91284C20.463 1.5586 17.9435 3.63637 18.9983 4.3909C19.9458 5.07175 22.2702 2.73858 21.3061 1.94919C20.4494 1.23347 18.5118 2.99424 19.3478 3.90825C20.3975 5.0418 22.3673 2.23443 21.1776 2.1099C20.5647 2.04739 19.8153 2.72316 20.1135 3.35906C20.5171 4.21302 21.395 3.37653 21.8148 3.03926C22.0704 2.82612 22.6181 2.38228 22.0986 2.08636C21.4896 1.73507 20.5395 2.57056 20.7296 3.18693C20.7467 3.25938 20.7991 3.38646 20.8891 3.40574C22.0599 3.60222 22.3816 1.1876 20.709 2.04936C20.291 2.26029 20.1933 2.80053 20.5499 3.13033C21.1201 3.67967 21.998 2.84318 22.1144 2.24904C22.1342 2.12294 22.1003 1.96002 21.9932 1.8683C21.315 1.29943 19.0266 2.31526 19.3374 3.34848C19.7694 4.76245 21.7846 2.60559 21.9905 2.06683C22.0464 1.94122 21.9959 1.66975 21.8523 1.61364C20.8823 1.25742 19.7888 2.01876 19.1655 2.7143C18.7623 3.16012 18.1373 3.982 18.4173 4.6357C18.7672 5.45282 19.4814 4.70437 19.8115 4.32977C20.1415 3.95517 20.9462 3.18989 20.7017 2.59083C20.1774 1.32002 17.9012 4.0871 17.8726 4.86295C17.8494 5.24174 18.0408 5.76787 18.5128 5.57572C19.0211 5.36603 19.8861 4.15026 19.9301 3.57319C19.9313 3.48294 19.8804 3.24757 19.7543 3.2278C19.124 3.1109 18.3369 3.91251 17.9878 4.35906C17.7855 4.62709 17.1964 5.46752 17.4617 5.86829C17.9212 6.59664 19.07 4.42797 19.0756 4.01285C19.0815 3.57967 18.8128 3.43159 18.4669 3.6435C17.83 4.01392 17.3865 4.76607 17.3223 5.50534C17.3003 5.79388 17.3493 6.17364 17.711 6.12441C17.9278 6.10931 18.1666 5.80569 18.313 5.66326C18.7699 5.25429 19.2458 4.77336 19.6315 4.29121C19.7415 4.16634 19.5674 3.69461 19.4391 3.83728C18.9441 4.39015 18.4141 4.87034 17.9016 5.38687C17.7003 5.5827 17.4447 5.79584 17.4585 6.10292C17.4576 6.17512 17.508 6.44659 17.6344 6.44832C18.2478 6.47473 18.9786 5.83481 19.3991 5.44339C19.4906 5.35438 19.4063 4.91997 19.2431 4.9719C18.5362 5.17889 17.5705 5.83367 17.0405 6.31385C16.9309 6.40262 17.0331 6.85532 17.1965 6.78533C17.9409 6.47054 18.6015 5.68524 19.0794 5.05993C19.3182 4.75629 19.6663 4.38195 19.6359 3.96633C19.6369 3.89413 19.5679 3.65851 19.441 3.69289C18.6986 3.86329 16.712 5.24428 17.1683 6.20727C17.2036 6.26191 17.2563 6.37095 17.3287 6.35389C17.781 6.28784 19.5368 4.61486 18.912 4.10088C18.68 3.89914 18.2971 4.18276 18.0963 4.34249C17.4404 4.78486 16.9257 5.46382 16.6629 6.20039C16.6068 6.34404 16.6582 6.54332 16.7653 6.63504C17.2479 6.98461 17.9107 6.03688 18.0784 5.66006C18.1342 5.53446 18.083 5.31713 17.976 5.22541C17.5292 4.89438 16.8295 5.89577 16.8061 6.2926C16.8046 6.40089 16.8553 6.65432 16.9999 6.63824C17.4516 6.60829 17.7832 6.1254 18.0047 5.76737C18.0786 5.64201 17.992 5.37005 17.8664 5.31418C17.5433 5.18341 17.32 5.66778 17.1547 5.88215C17.0444 6.02507 17.2368 6.479 17.347 6.33608C17.4573 6.19316 17.6986 5.70904 17.9139 5.80224C17.8618 5.65711 17.8096 5.51198 17.7757 5.34905C17.5913 5.63537 17.2419 6.09997 16.8807 6.11309C16.9514 6.22237 17.0219 6.3497 17.0746 6.45873C17.077 6.27824 17.7018 5.47441 17.952 5.65834C17.9179 5.51346 17.8838 5.36857 17.8496 5.22369C17.7567 5.421 17.1119 6.36898 16.7902 6.12992C16.8244 6.2748 16.8585 6.41968 16.8926 6.56456C17.193 5.7202 17.7979 5.04246 18.5804 4.58377C18.6534 4.53061 18.9629 4.33625 18.6717 4.5128C18.4895 4.63668 18.3799 4.72545 18.2511 4.90422C18.0123 5.20785 17.6257 5.76221 17.2098 5.8107C17.2632 5.86558 17.3169 5.90242 17.3703 5.9573C17.3 5.81193 18.1587 5.06544 18.3231 4.92326C18.6882 4.62135 19.0905 4.24773 19.5615 4.12779C19.4905 4.03656 19.4195 3.94533 19.3666 3.85435C19.3993 4.10753 18.6855 4.81988 18.5753 4.96279C18.1901 5.40885 17.6403 6.01514 17.0773 6.2602C17.1292 6.42338 17.1812 6.58655 17.2333 6.73168C17.7632 6.26955 18.6925 5.63233 19.3633 5.42484C19.3113 5.26166 19.2594 5.09849 19.2072 4.95336C18.8596 5.29162 18.0744 5.94885 17.5693 5.92391C17.622 6.03294 17.6744 6.16003 17.7451 6.2693C17.7303 6.03442 18.2403 5.69837 18.3869 5.5379C18.8257 5.12868 19.2465 4.71922 19.6317 4.27316C19.5615 4.12779 19.5095 3.96461 19.4393 3.81923C18.9985 4.37285 18.4114 5.06888 17.8103 5.45784C17.5005 5.67024 17.5176 5.74268 17.7604 5.15027C17.8353 4.95271 17.9285 4.73735 18.057 4.57664C18.1856 4.41592 18.642 4.04304 18.6773 4.09768C18.7658 4.22525 18.1594 5.01129 18.0679 5.10031C17.9947 5.17152 17.9033 5.26053 17.8481 5.33199C17.8113 5.38564 17.6805 5.7088 17.7549 5.54735C18.0338 4.95542 18.9196 3.54137 19.8023 3.67976C19.7496 3.57073 19.6972 3.44365 19.6264 3.33437C19.6032 3.71315 19.1276 4.17603 18.9073 4.44381C18.8153 4.56892 18.6309 4.85525 18.5041 4.88962C18.2321 4.97618 18.3095 4.59813 18.3478 4.43618C18.48 4.00473 18.9552 3.57795 19.3021 3.29384C19.4299 3.18727 19.576 3.0629 19.7216 2.97462C19.9219 2.85099 20.3043 2.60347 20.2824 2.892C20.2601 3.19859 19.6561 3.80413 19.4186 4.01752C19.3254 4.23288 19.1619 4.30286 18.9463 4.22771C18.638 4.33182 18.5666 4.27669 18.7322 4.04427C18.7539 3.77378 19.0837 3.41723 19.2306 3.23871C19.8178 2.54268 20.9123 1.70914 21.8822 2.06535C21.83 1.92022 21.7779 1.77509 21.744 1.61216C21.5942 2.00727 20.3655 3.41665 19.8809 3.21147C19.6474 3.11803 19.684 3.08242 19.8858 2.85049C20.0326 2.67197 20.2873 2.53103 20.5053 2.42569C20.8507 2.24987 21.5947 1.97118 21.9517 2.26488C21.9173 2.13805 21.8649 2.01096 21.8305 1.88413C21.792 2.06412 21.4431 2.49263 21.2614 2.58041C20.9529 2.70257 20.4134 2.5508 21.1195 2.39795C21.9342 2.22854 21.1126 2.90332 20.8243 2.86329C20.8775 2.93622 20.9306 3.00915 20.9838 3.08209C20.8977 2.77403 22.0049 2.33781 22.0927 2.51953C22.0761 2.41099 22.0598 2.28441 22.0432 2.17587C21.8949 2.46268 20.9089 3.27964 20.6396 3.16766C20.2623 3.03615 20.6995 2.75327 20.9358 2.63013C20.9358 2.63013 21.4263 2.40213 21.3005 2.36431C21.3185 2.36456 20.675 3.2223 20.5291 3.32863C20.274 3.50567 19.7464 3.80536 19.6077 3.38827C19.5209 3.13435 19.6126 3.02729 19.7958 2.83122C20.0704 2.54612 20.471 2.29885 20.8683 2.28621C21.2656 2.27357 21.1739 2.38064 21.007 2.70331C20.785 3.09744 20.4194 3.43544 20.0371 3.66491C19.764 3.84171 18.9288 4.19137 19.2437 3.59994C19.4289 3.25947 19.8297 2.99415 20.1572 2.80004C20.3941 2.6408 20.648 2.55399 20.9027 2.41305C20.939 2.39549 21.3017 2.27407 21.2485 2.20113C21.2659 2.25552 20.9363 2.59403 20.8812 2.66549C20.6428 2.93302 20.4048 3.18251 20.1489 3.41371C19.9662 3.57369 19.1993 4.21311 18.8942 4.08259C18.7864 4.04501 18.8759 4.10038 18.9678 3.97527C19.0595 3.86821 19.2596 3.76262 19.3688 3.6919C19.4601 3.62094 20.5172 2.87716 20.694 3.15035C20.6775 3.04181 20.6611 2.91522 20.6446 2.80668C20.4587 3.2013 20.2194 3.54102 19.9978 3.89905C19.8688 4.09587 19.0957 5.18652 19.066 4.71676C19.0032 4.02992 21.0184 3.19088 21.5416 3.21606C21.4889 3.10703 21.4365 2.97994 21.3658 2.87067C21.3233 3.33945 20.4481 3.9774 20.1368 4.2981C19.8253 4.63684 19.2928 5.29752 18.806 5.25478C18.4813 5.2323 18.7157 5.25355 18.8257 5.12868C18.9906 4.95041 19.2636 4.79166 19.4821 4.65022C19.9922 4.31418 20.5017 4.01423 21.0988 3.91406C21.0469 3.75088 20.995 3.5877 20.9428 3.44258C20.9064 3.46013 20.8882 3.47793 20.8518 3.49549C20.7235 3.63816 20.8795 4.10964 21.0615 4.00381Z" fill="currentColor"/>
<path d="M16.6451 11.4713C16.3839 10.7637 15.5764 10.4097 15.2965 9.75604C15.2589 9.86384 15.2213 9.97164 15.1838 10.0794C15.8291 10.4132 16.426 11.6489 17.3141 11.3902C17.441 11.3558 17.39 11.1204 17.3549 11.0478C17.1269 10.5572 16.6964 10.3528 16.2487 10.094C15.8726 9.8722 15.2312 9.24968 14.7424 9.35133C14.7063 9.35084 14.6875 9.40474 14.669 9.44059C14.5133 10.2689 16.6914 12.0496 17.2256 11.2626C17.9804 10.1898 14.9673 8.74062 14.2822 8.67712C14.2281 8.67638 14.1915 8.71199 14.1727 8.76589C14.0511 9.73906 16.5563 11.3618 16.8935 10.4638C17.2495 9.51187 14.4652 8.4991 13.9769 8.56465C13.8503 8.58098 13.9188 8.85269 13.9361 8.90708C14.2677 9.74201 15.5984 10.1212 16.3723 10.2942C16.5523 10.3328 16.4492 9.95226 16.4138 9.89762C16.2021 9.53369 15.8068 9.40194 15.43 9.23434C14.82 8.95524 14.1932 8.58564 13.5271 8.4502C13.3291 8.41139 13.4498 8.82824 13.521 8.90142C14.0365 9.48612 14.8641 9.69599 15.3794 10.2987C15.3994 10.1546 15.4194 10.0104 15.4214 9.86605C14.7417 9.40548 13.7986 8.39975 12.9505 8.37014C12.7881 8.36792 12.8388 8.62134 12.8737 8.71208C13.0843 9.1482 13.6409 9.37242 14.0162 9.64832C14.356 9.88763 14.6774 10.1447 14.9989 10.4019C15.3022 10.6587 15.822 10.9366 15.9975 11.3C16.0171 11.192 16.0549 11.0661 16.0744 10.9581C15.0871 10.5475 14.5258 9.34838 13.5759 8.84802C13.3607 8.73677 13.4453 9.15312 13.4985 9.22605C13.6748 9.53535 13.9609 9.73782 14.2287 9.9581C14.6928 10.3435 15.1373 10.837 15.62 11.1866C15.9417 11.4256 16.2648 11.5564 16.5499 11.8311C16.746 12.0143 16.9235 12.2333 17.1935 12.2912C17.3555 12.3295 17.2877 12.0036 17.2704 11.9492C17.0783 11.4772 16.1476 10.8869 15.6417 10.9161C15.4971 10.9322 15.5829 11.2583 15.6363 11.3132C16.0258 11.8781 17.2099 12.4178 17.8984 12.2286C18.0616 12.1766 17.9394 11.8681 17.8865 11.7771C17.6741 11.4673 16.3847 10.7096 16.1966 11.2666C16.0092 11.7696 16.8526 12.1421 17.194 12.2551C17.8411 12.4625 18.2258 12.0525 17.9095 11.4164C17.6105 10.8346 16.4274 10.2228 15.7945 10.3044C15.722 10.3215 15.7201 10.4658 15.7193 10.52C15.8361 11.2256 16.5341 11.6684 17.1624 11.9297C17.5575 12.0795 18.2926 12.4506 18.2836 11.7825C18.2717 11.331 17.7727 10.8549 17.4515 10.5797C17.1479 10.3409 15.8278 9.1856 15.478 9.6863C14.944 10.4553 17.1809 11.8938 17.8032 11.2705C18.6816 10.3979 16.2293 8.86613 15.561 8.89312C15.4888 8.89214 15.4866 9.05458 15.4858 9.10873C15.5489 9.77752 16.1564 10.2371 16.7674 10.444C16.983 10.5192 17.2364 10.4685 17.434 10.5434C17.8681 10.4771 17.9727 10.7493 17.7112 11.3956C17.4054 11.3192 17.1727 11.1716 16.9954 10.9345C17.0357 10.6282 17.161 10.7021 17.3949 10.7595C17.7188 10.8361 17.8964 11.0551 17.9458 11.3988C17.6029 11.3941 17.3702 11.2465 17.2476 10.9741C17.2459 11.1004 17.2622 11.227 17.2605 11.3533C17.4998 11.0136 18.1627 11.3837 17.9778 11.7061C17.7745 12.0463 16.7961 10.986 17.8541 11.5059C18.6431 11.8957 17.6848 12.009 17.3834 11.6078C17.3814 11.7522 17.3975 11.8968 17.3953 12.0592C17.5587 11.9892 18.0599 12.303 18.1311 12.3762C18.1331 12.2318 18.117 12.0871 18.1192 11.9247C17.9558 11.9947 17.8129 11.8844 17.6499 11.9183C17.596 11.8995 17.5421 11.8807 17.5063 11.8622C17.5755 12.0797 17.7182 12.2081 17.9338 12.2832C17.9353 12.1749 17.9367 12.0666 17.9382 11.9583C17.5006 12.2773 16.6275 11.435 16.2878 11.1957C15.8942 10.9376 15.4274 10.7507 15.0708 10.4209C14.9103 10.2743 14.9217 10.7619 15.0288 10.8536C15.3851 11.2014 15.7938 11.6763 16.2604 11.8813C16.4399 11.9559 16.3202 11.4669 16.2307 11.4115C15.8203 11.0629 15.0135 10.6548 14.7311 10.1816C14.7113 10.3077 14.6913 10.4518 14.6896 10.5782C15.4249 10.9312 16.1743 11.5732 16.8358 12.0516C17.0682 12.2172 17.9966 12.97 18.3413 12.8484C19.2843 12.5363 17.9107 11.3261 17.6422 11.16C17.4634 11.0312 17.4926 11.537 17.618 11.611C17.7253 11.6846 17.9768 11.7783 18.0475 11.8876C18.0636 12.0322 18.0979 12.1591 18.114 12.3037C18.0423 12.2666 17.9706 12.2295 17.8989 12.1925C17.484 12.1688 17.0029 11.7109 16.6451 11.4713C16.0193 11.0295 15.3413 10.4426 14.6416 10.1262C14.4801 10.0518 14.5647 10.4682 14.6001 10.5228C14.9534 11.0872 15.7421 11.4951 16.2421 11.8991C16.2263 11.7364 16.2285 11.574 16.2124 11.4293C15.8536 11.262 15.3913 10.7502 15.124 10.4938C15.104 10.638 15.0839 10.7821 15.082 10.9265C15.617 11.4032 16.3702 11.7745 16.9784 12.1799C17.3006 12.3829 17.8013 12.7327 18.166 12.4669C18.2572 12.3959 18.2055 12.2147 18.1704 12.142C18.0136 11.7247 17.6356 11.6473 17.2017 11.6955C17.1475 11.6948 17.128 11.8029 17.1275 11.8389C17.1386 12.3446 17.8384 12.661 18.2743 12.4684C18.4196 12.3981 18.3333 12.1081 18.2624 12.0169C18.0846 11.8159 17.5839 11.4661 17.3114 11.5887C17.148 11.6587 17.2526 11.9309 17.3233 12.0402C17.6425 12.4598 18.6872 12.6365 18.5892 11.8769C18.5071 11.2801 17.1286 10.4309 16.9551 11.2409C16.8204 11.8528 18.145 12.6832 18.4077 11.9467C18.6144 11.3538 17.5277 10.2919 17.0859 10.9177C17.0122 11.025 17.0461 11.188 17.0988 11.297C17.5382 12.1695 18.786 12.006 18.24 11.0057C17.9759 10.5146 16.2726 9.66103 16.5644 10.7662C16.7536 11.4548 18.0923 12.5742 18.2539 11.3127C18.2947 10.9703 18.1752 10.4632 17.8896 10.2246C17.6575 10.0409 17.4221 10.0919 17.1336 10.0699C16.7189 10.0282 15.8026 9.70877 15.7553 9.20266C15.7363 9.27461 15.6992 9.34632 15.6802 9.41827C16.0775 9.40563 17.9403 10.4781 17.4649 10.9229C17.1724 11.1897 16.3674 10.6552 16.153 10.4898C15.8852 10.2695 15.5821 9.99461 16.1384 10.2369C16.5511 10.423 17.8059 11.0719 17.8712 11.5783C17.9048 11.7593 17.8153 11.7039 17.5995 11.6468C17.4195 11.6083 17.24 11.5336 17.0783 11.4772C16.7551 11.3465 16.0195 11.0115 15.9705 10.6317C15.9515 10.7037 15.9144 10.7754 15.8954 10.8473C16.2208 10.8157 16.5432 11.0006 16.8303 11.1309C16.9559 11.1867 17.3334 11.3002 17.4039 11.4275C17.4744 11.5548 17.399 11.7885 17.1819 11.8216C17.0914 11.8385 16.518 11.5238 16.5363 11.506C16.4992 11.5777 17.7197 12.0998 17.8084 12.2093C17.8104 12.0649 17.7943 11.9202 17.7965 11.7578C17.2709 11.9131 16.1036 11.4639 15.8205 11.0449C15.8188 11.1712 15.8168 11.3156 15.8151 11.442C16.0139 11.4266 17.018 11.9277 17.1231 12.1638C17.1426 12.0558 17.1804 11.9299 17.1999 11.8219C16.876 11.7453 16.6641 11.3994 16.4322 11.1976C16.1644 10.9774 15.8773 10.8471 15.5915 10.6266C15.3593 10.4429 15.146 10.2053 14.914 10.0035C14.5392 9.69155 13.948 9.35855 13.719 8.94023C13.6992 9.06632 13.6614 9.19217 13.6417 9.31827C14.6275 9.83717 15.1888 11.0363 16.2119 11.4654C16.3556 11.5215 16.3061 11.1779 16.2888 11.1235C16.0254 10.5783 15.4523 10.2456 14.9879 9.87819C14.6665 9.62107 14.327 9.36372 13.9873 9.12441C13.7907 8.97731 13.2703 8.75359 13.1649 8.53552C13.1454 8.64357 13.1076 8.76942 13.088 8.87747C13.8998 8.92464 14.825 9.91207 15.4872 10.3363C15.702 10.4656 15.6004 9.9768 15.5292 9.90362C15.0136 9.31892 14.1683 9.09077 13.6708 8.50631C13.6688 8.6507 13.6668 8.79509 13.6646 8.95753C14.0788 9.03539 14.4551 9.2391 14.8319 9.40671C15.2446 9.59285 16.1082 9.8032 16.3374 10.2035C16.3572 10.0774 16.3772 9.93323 16.3789 9.80689C15.785 9.67243 14.4714 9.36569 14.2095 8.71224C14.19 8.82028 14.1883 8.94662 14.1688 9.05467C14.6568 9.00716 15.5343 9.5246 15.9287 9.72855C16.0363 9.78417 16.1977 9.85858 16.2867 9.95006C16.483 10.1152 16.8077 10.1377 16.2479 10.1481C16.1396 10.1466 14.5055 9.51058 14.6361 9.20547C14.6546 9.16961 14.7622 9.22523 14.9775 9.31843C15.2826 9.44895 15.5875 9.59753 15.8738 9.78195C16.1782 9.96663 17.6261 11.0153 16.5986 10.9111C16.0937 10.8681 15.3991 10.1726 15.1153 9.80772C14.9024 9.53403 15.3479 9.95531 15.4194 10.0104C15.6162 10.1395 15.8311 10.2688 16.0281 10.3798C16.3862 10.6013 17.0149 10.8265 17.208 11.2263C17.2276 11.1182 17.2293 10.9919 17.2488 10.8838C16.4334 11.1074 15.8538 9.9261 15.2624 9.61114C15.0831 9.51844 15.1148 9.84382 15.1496 9.93456C15.4474 10.6066 16.2549 10.9605 16.4982 11.6498C16.5658 11.9938 16.7321 11.7072 16.6451 11.4713Z" fill="currentColor"/>
<path d="M11.0514 4.67954C10.476 4.50923 9.19858 5.5208 9.42411 6.19181C9.85861 7.42528 11.2562 5.54885 11.5147 5.11912C11.5887 4.99376 11.5014 4.77594 11.4124 4.68446C10.7875 4.17048 9.57761 5.52597 9.42583 6.06547C9.27382 6.62302 9.51863 7.20402 10.137 6.86946C10.6463 6.58757 11.2878 5.87422 11.1338 5.25834C10.9282 4.44319 9.76646 4.91477 9.38202 5.30668C9.07076 5.62738 8.70117 6.25417 9.12893 6.65715C9.80643 7.28016 10.7249 6.11928 11.0561 5.65444C11.2957 5.29666 11.9222 4.36648 11.2771 4.01469C10.5247 3.58924 9.29423 5.12496 9.12368 5.71836C8.99069 6.20395 9.10941 6.76519 9.74309 6.62941C10.3948 6.49388 11.4772 5.22693 11.5224 4.55961C11.633 3.06278 8.81036 4.86563 8.88584 5.94979C8.94672 6.78103 9.87017 6.57699 10.3095 6.13167C10.7486 5.7044 11.5575 4.63229 11.3142 3.94299C10.9143 2.81829 8.17471 5.1458 9.31779 6.04594C9.99651 6.57871 11.1676 5.42128 11.4101 4.84691C11.7088 4.12889 11.0444 3.8671 10.4461 4.05752C9.88386 4.24843 8.68131 5.06245 9.26709 5.79252C9.97699 6.68676 11.3879 5.1535 11.7919 4.65354C11.8656 4.54623 11.8319 4.36524 11.779 4.27426C11.4076 3.70958 10.3709 4.27313 10.2192 4.81263C10.0676 5.33408 10.5134 5.7373 11.0223 5.4915C11.404 5.29813 11.8282 4.63598 11.5451 4.21692C11.0142 3.43343 9.6804 4.60671 9.27816 4.98032C8.96739 5.26492 8.48803 5.99852 9.2268 6.09886C10.0014 6.21773 11.4065 5.11764 11.6321 4.45278C11.9518 3.51842 10.811 3.77366 10.3378 4.05605C9.62822 4.46158 8.36906 5.45534 8.37432 6.39413C8.37309 6.48437 8.42404 6.71975 8.55013 6.73952C9.39745 6.82328 10.1807 6.31044 10.7483 5.72245C11.0776 5.402 11.5172 4.93863 11.4156 4.44983C11.3985 4.37739 11.3461 4.25031 11.2561 4.23103C10.5007 4.02216 9.5452 5.25475 9.12392 5.70031C8.79412 6.05686 7.97134 6.82189 8.32445 7.40438C8.8363 8.25982 11.1195 6.30519 10.7159 5.45123C10.1892 4.36091 7.78913 6.94578 7.74319 7.66724C7.63228 9.18212 10.0616 7.10312 10.1975 6.40093C10.2173 6.27483 10.1836 6.09385 10.0763 6.02017C9.6649 5.74378 8.91431 6.5098 8.65818 6.75904C8.31058 7.0973 7.87199 7.48847 8.06364 7.99655C8.09876 8.06924 8.15192 8.14217 8.22411 8.14315C8.78388 8.13273 10.6905 5.99244 9.90323 5.47625C9.33058 5.10739 8.3726 6.52047 8.09719 6.85971C7.76689 7.25236 7.40001 7.68061 7.71825 8.17236C7.75385 8.20895 7.78897 8.28164 7.86141 8.26458C8.60437 8.05808 9.33912 7.12938 9.6014 6.42891C9.69485 6.19551 9.82881 5.63771 9.46906 5.54254C8.92932 5.40882 8.00867 6.73213 7.80423 7.1626C7.61808 7.57527 7.35752 8.14939 7.69528 8.5331C7.71284 8.56944 7.76674 8.58822 7.80283 8.58872C8.47311 8.41733 9.28399 7.20083 9.27529 6.51473C9.25543 5.32301 7.95674 6.56896 7.69864 6.96259C7.51421 7.24891 7.00721 8.68618 7.80259 8.60676C8.20016 8.57608 8.55392 7.78661 8.70224 7.49979C8.96182 6.99787 9.18677 6.38715 9.23049 5.82812C9.23148 5.75593 9.16396 5.41202 9.03663 5.48249C8.43683 5.7812 7.49887 7.05013 7.65171 7.75626C7.82113 8.57092 8.53464 7.8766 8.75713 7.44637C8.813 7.32077 8.76254 7.0493 8.61889 6.99318C8.02549 6.82262 7.16169 7.94814 7.60602 8.45967C8.03206 8.98899 8.5366 7.73221 8.39762 7.33316C8.36251 7.26048 8.30935 7.18754 8.23715 7.18656C7.64105 7.21454 7.06923 8.10936 7.29648 8.65403C7.3316 8.72672 7.38451 8.8177 7.45695 8.80063C7.76403 8.78676 8.0392 8.46557 8.15143 8.17827C8.2073 8.05266 8.15684 7.78119 8.01318 7.72508C7.56417 7.55649 7.29919 8.45549 7.33111 8.76281C7.32988 8.85305 7.39912 9.07062 7.52595 9.03625C7.83377 8.96824 7.90941 8.71653 8.05725 8.46582C8.35292 7.96438 8.66639 7.48125 8.96206 6.97981C9.38703 6.26351 9.51903 5.85011 10.2469 5.42678C10.5925 5.23291 10.866 5.03807 11.0511 4.6976C11.1065 4.60809 11.057 4.26443 10.9129 4.24441C10.1909 4.23457 9.28111 4.76373 8.94712 5.42712C8.87296 5.57052 8.96001 5.80639 9.08537 5.88031C9.46218 6.04792 9.82955 5.58356 10.0493 5.35188C10.3604 5.04923 10.9421 4.75026 11.0563 4.31857C11.0941 4.19271 11.0251 3.9571 10.8993 3.91928C10.3064 3.71263 8.93916 4.68686 9.11055 5.35713C9.12761 5.42957 9.19759 5.593 9.30613 5.57643C9.63224 5.49061 11.6188 4.10961 10.7947 3.64707C10.3647 3.40653 9.43042 4.40472 9.22844 4.65469C8.97132 4.97613 8.6969 5.24318 8.88978 5.66101C8.90709 5.71541 8.97781 5.82468 9.05025 5.80762C9.68442 5.63574 10.348 4.63386 10.5724 4.05924C10.61 3.95144 10.5781 3.64412 10.4342 3.60605C10.0017 3.546 9.48727 4.20692 9.26675 4.49275C8.89937 4.9571 8.49565 5.43902 8.46924 6.05243C8.46678 6.23292 8.73284 6.57954 8.75532 6.2549C8.77927 5.82197 9.85096 4.0133 10.4995 4.1124C10.4473 3.96727 10.3951 3.82215 10.3612 3.65921C10.1739 4.16212 9.51058 5.14596 8.94884 5.30077C9.00225 5.35566 9.05591 5.39249 9.10932 5.44738C9.16174 5.57446 9.09102 5.46518 9.18176 5.43032C9.30884 5.37789 9.45766 5.05497 9.56767 4.9301C9.67769 4.80524 9.80575 4.68062 9.93382 4.556C10.0982 4.41382 10.5512 4.29363 10.6073 4.14998C10.7747 3.79122 10.3907 4.14703 10.2443 4.28945C9.95138 4.59234 9.60353 4.94865 9.18693 5.05128C9.25814 5.12446 9.3113 5.1974 9.38251 5.27058C9.38251 5.27058 9.83915 4.87965 9.91208 4.82649C10.2043 4.57774 10.5519 4.23949 10.9651 4.38954C10.9126 4.26245 10.8605 4.11732 10.808 3.99024C10.7319 4.27804 10.1499 4.59506 9.93037 4.80869C9.72913 5.00452 9.36151 5.48692 9.03835 5.35615C9.09053 5.50128 9.14271 5.64641 9.17659 5.80934C9.473 5.25376 10.3289 4.70581 10.9784 4.73272C10.9263 4.58759 10.8741 4.44246 10.8402 4.27952C10.5811 4.74535 10.1465 4.84773 9.72766 5.11281C9.38153 5.34277 9.17856 5.66494 8.99291 6.04151C8.76992 6.50783 8.49328 6.93732 8.23445 7.38509C8.08637 7.65386 7.76846 8.46188 7.42455 8.52941C7.49552 8.62063 7.56648 8.71186 7.61939 8.80285C7.6038 8.62211 7.86363 8.10213 8.09703 8.19557C8.04485 8.05044 7.99268 7.90532 7.95879 7.74238C7.8656 7.95774 7.64507 8.24357 7.37409 8.25793C7.4275 8.31282 7.48115 8.34965 7.53456 8.40454C7.49969 8.3138 8.08661 7.63581 8.39369 7.62194C8.34028 7.56706 8.28663 7.53022 8.23322 7.47534C8.14322 7.45606 8.08808 7.52752 8.08636 7.65386C7.8651 7.99384 7.8829 8.01213 8.10392 7.69021C8.28589 7.58437 8.46957 7.3522 8.72127 7.42784C8.66909 7.28271 8.61692 7.13758 8.58303 6.97465C8.5462 7.0283 8.30516 7.49437 8.19712 7.47485C8.01712 7.43629 8.29376 7.00681 8.3306 6.95316C8.55235 6.57708 8.82948 6.11149 9.22926 5.91837C9.15854 5.80909 9.08807 5.68177 9.0354 5.57274C8.9902 6.24005 8.63718 6.97539 8.26833 7.54803C8.11852 7.94314 7.99243 7.92336 7.88955 7.52481C7.96347 7.39945 8.05543 7.27434 8.12935 7.14898C8.23961 7.00607 8.82603 6.36419 9.02383 6.42104C9.23944 6.49619 8.30393 7.58462 8.19367 7.72754C8.06512 7.88825 8.00777 8.12215 7.9912 8.01361C7.95805 7.79653 8.16102 7.47436 8.27177 7.29534C8.5672 6.81196 9.06092 6.34933 9.51657 6.0306C9.62536 5.99598 9.60755 5.97769 9.48121 5.97597C9.44388 6.06572 9.38851 6.15523 9.35118 6.24498C9.18603 6.4413 9.09308 6.63861 8.90939 6.87079C8.67106 7.13832 8.41518 7.36951 8.12345 7.58216C7.94222 7.63385 7.92368 7.66969 8.04953 7.70751C8.17858 7.5107 8.32568 7.31414 8.49058 7.13586C8.74769 6.81442 9.55808 5.63401 10.0603 5.87554C10.0073 5.78456 9.95442 5.69357 9.9015 5.60259C9.96681 6.10894 8.75541 7.57273 8.23174 7.58364C8.28515 7.63852 8.3388 7.67536 8.39221 7.73024C8.37466 7.6939 9.80387 6.14283 10.1795 6.40068C10.1451 6.27385 10.0927 6.14676 10.0583 6.01993C9.96091 6.54212 8.60634 7.91368 8.01441 7.63483C8.06758 7.70777 8.12074 7.7807 8.1739 7.85364C8.05469 7.32849 9.45996 6.21035 9.86098 5.92698C9.89757 5.89137 10.4988 5.48437 10.5871 5.63C10.6581 5.72122 9.89068 6.39675 9.83579 6.45015C9.65284 6.62818 9.14058 7.12666 8.87157 6.99663C8.69231 6.90392 9.05796 6.56592 9.18652 6.4052C9.29678 6.26228 9.42485 6.13766 9.55291 6.01304C9.9376 5.60308 10.8012 4.49561 11.4667 4.66716C11.4136 4.59422 11.3604 4.52129 11.3073 4.44835C11.3587 4.64763 10.5732 5.32291 10.3905 5.48289C9.87952 5.89113 9.31508 6.24448 8.62996 6.18098C8.68263 6.29001 8.73506 6.4171 8.80578 6.52638C8.79757 5.80417 10.9925 3.70392 11.6888 4.27303C11.6544 4.1462 11.6019 4.01912 11.5676 3.89229C11.4499 4.57667 10.1937 5.35385 9.59615 5.49012C9.43321 5.524 9.23197 5.71983 9.4881 5.47059C9.78082 5.18574 10.0735 4.9009 10.4372 4.70728C10.7282 4.54878 11.9241 4.22209 11.1758 4.82567C10.8838 5.05637 10.5245 4.9251 11.1241 4.64444C11.215 4.59152 11.6873 4.38133 11.7936 4.5272C11.7953 4.40085 11.779 4.27426 11.7807 4.14792C11.4685 4.54081 11.1745 4.9159 10.7379 5.16268C10.6286 5.2334 10.2642 5.48117 10.1025 5.42481C9.52789 5.20035 10.056 4.86455 10.2379 4.75872C10.4202 4.63484 10.6563 4.52974 10.8736 4.47855C11.1636 4.39224 11.3456 4.2864 11.2511 4.59201C11.1562 4.93371 10.5915 5.30511 10.3008 5.44557C10.0827 5.55091 9.66563 5.68964 9.67154 5.25647C9.674 5.07598 10.0943 4.7026 10.2404 4.57823C10.478 4.36484 11.0988 3.84979 11.1102 4.33736C11.1223 4.77078 10.352 5.66289 10.0068 5.82066C9.57096 6.01329 9.28366 5.90105 9.61444 5.47231C9.74325 5.29354 9.92595 5.13357 10.1084 4.99164C10.2726 4.86751 11.0753 4.24662 11.2541 4.37543C11.4507 4.52253 10.8089 5.25392 10.6254 5.46804C10.3871 5.73558 9.40212 6.48035 9.73881 5.61843C9.88813 5.25942 10.4172 4.85143 10.745 4.63927C11.2734 4.28543 11.3241 4.53884 11.156 4.95175C11.0625 5.18516 10.8245 5.43466 10.6593 5.63098C10.531 5.77365 10.4024 5.93436 10.2385 6.04044C10.0548 6.27262 9.87386 6.30626 9.69583 6.12331C9.44413 6.04767 9.44561 5.93937 9.7188 5.76257C9.81101 5.61941 9.99273 5.53163 10.1201 5.46115C10.2654 5.39093 10.9189 5.12905 11.0232 5.41931C11.1625 5.80031 10.0158 6.48871 9.74628 6.39478C9.79945 6.46771 9.85261 6.54065 9.90577 6.61358C9.76778 6.14234 11.0697 4.66175 11.6052 5.10231C11.5711 4.95742 11.537 4.81253 11.5028 4.66765C11.2999 4.98982 11.0606 5.32956 10.7861 5.5966C10.6947 5.68562 9.98338 6.21748 10.0242 5.87505C10.0642 5.58676 11.1006 5.04127 11.3343 5.11666C11.2786 5.22421 11.2131 4.73591 11.0514 4.67954Z" fill="currentColor"/>
</svg>
