<?xml version="1.0" encoding="utf-8"?>
<!-- Generator: Adobe Illustrator 27.9.6, SVG Export Plug-In . SVG Version: 9.03 Build 54986)  -->
<svg version="1.1" id="Capa_1" xmlns="http://www.w3.org/2000/svg" xmlns:xlink="http://www.w3.org/1999/xlink" x="0px" y="0px"
	 viewBox="0 0 886 326" style="enable-background:new 0 0 886 326;" xml:space="preserve">
<style type="text/css">
	.st0{fill:#156146;}
	.st1{enable-background:new    ;}
	.st2{fill:#8BBD43;}
	.st3{fill:none;stroke:#8BBD43;stroke-width:0.3891;stroke-miterlimit:10;}
	.st4{fill:none;stroke:#8BBD43;stroke-miterlimit:10;}
</style>
<g>
	<g>
		<g>
			<g>
				<g>
					<path class="st0" d="M78.6,142.1c0,3.6-2.9,6.5-6.5,6.5s-6.5-2.9-6.5-6.5s2.9-6.5,6.5-6.5S78.6,138.5,78.6,142.1z M72.1,149.7
						L72.1,149.7c-0.1,0-0.3,0.1-0.3,0.3v2.2c0,0.1,0.1,0.3,0.3,0.3l0,0c0.1,0,0.3-0.1,0.3-0.3V150
						C72.3,149.8,72.2,149.7,72.1,149.7z M82.1,141.8L82.1,141.8h-2.2c-0.1,0-0.3,0.1-0.3,0.3s0.1,0.3,0.3,0.3l0,0h2.2
						c0.1,0,0.3-0.1,0.3-0.3C82.3,142,82.2,141.8,82.1,141.8L82.1,141.8z M64.2,141.8L64.2,141.8H62c-0.1,0-0.3,0.1-0.3,0.3l0,0
						c0,0.1,0.1,0.3,0.3,0.3l0,0h2.2c0.1,0,0.3-0.1,0.3-0.3C64.5,142,64.4,141.8,64.2,141.8L64.2,141.8z M77.8,147.5
						c-0.1-0.1-0.3-0.1-0.4,0l0,0c-0.1,0.1-0.1,0.3,0,0.4l0,0l1.5,1.5c0.1,0.1,0.1,0.1,0.2,0.1c0.2,0,0.3-0.1,0.3-0.3
						c0-0.1,0-0.1-0.1-0.2L77.8,147.5z M66.4,136.8c0.1,0,0.1,0.1,0.2,0.1s0.1,0,0.2-0.1s0.1-0.3,0-0.4l0,0l-1.5-1.5
						c-0.1-0.1-0.3-0.1-0.4,0c-0.1,0.1-0.1,0.3,0,0.4l0,0L66.4,136.8z M66.4,147.5l-1.5,1.5c-0.1,0.1-0.1,0.3,0,0.4
						c0.1,0.1,0.3,0.1,0.4,0l1.5-1.5c0.1-0.1,0.1-0.3,0-0.4l0,0C66.6,147.4,66.5,147.4,66.4,147.5z M79,134.9l-1.5,1.5
						c-0.1,0.1-0.1,0.3,0,0.4l0,0c0.1,0.1,0.1,0.1,0.2,0.1s0.1,0,0.2-0.1l1.5-1.5c0.1-0.1,0.1-0.3,0-0.4l0,0
						C79.2,134.8,79.1,134.8,79,134.9L79,134.9z M72.1,134.6L72.1,134.6c0.1,0,0.3-0.1,0.3-0.3v-2.2c0-0.1-0.1-0.3-0.3-0.3l0,0
						c-0.1,0-0.3,0.1-0.3,0.3v2.2C71.8,134.4,71.9,134.6,72.1,134.6z"/>
				</g>
			</g>
		</g>
	</g>
	<g>
		<g>
			<g>
				<g>
					<g>
						<path class="st0" d="M71.1,201.2c0.4-0.1,0.6,0.3,0.4,0.6c-2.8,3-3.4,7.5-1.3,11.1s6.2,5.4,10.2,4.4c0.4-0.1,0.6,0.3,0.4,0.6
							c-0.7,0.7-1.4,1.3-2.3,1.8c-4.8,2.8-11,1.1-13.8-3.7c-2.8-4.8-1.1-11,3.7-13.8C69.2,201.8,70.1,201.4,71.1,201.2z"/>
					</g>
				</g>
			</g>
		</g>
	</g>
	<g>
		<g class="st1">
			<path class="st0" d="M56.4,91.7V81.1h4.2c3.3,0,5.6,2.1,5.6,5.3c0,3.2-2.3,5.3-5.6,5.3C60.6,91.7,56.4,91.7,56.4,91.7z M64,86.4
				c0-1.9-1.1-3.3-3.3-3.3h-1.9v6.6h1.9C62.7,89.7,64,88.2,64,86.4z"/>
			<path class="st0" d="M69,82.8h-1.4l2.1-2.3h1.9L69,82.8z M67.8,91.7V84h2v7.7H67.8z"/>
			<path class="st0" d="M76.5,91.7v-0.8c-0.5,0.6-1.4,1-2.4,1c-1.2,0-2.7-0.8-2.7-2.5c0-1.8,1.4-2.5,2.7-2.5c1,0,1.9,0.3,2.4,0.9v-1
				c0-0.8-0.7-1.3-1.7-1.3c-0.8,0-1.6,0.3-2.2,0.9L71.8,85c0.9-0.8,2.2-1.2,3.4-1.2c1.8,0,3.4,0.7,3.4,2.9v5
				C78.6,91.7,76.5,91.7,76.5,91.7z M76.5,89.9v-1c-0.3-0.4-1-0.7-1.6-0.7c-0.8,0-1.4,0.4-1.4,1.2c0,0.7,0.7,1.1,1.4,1.1
				C75.5,90.5,76.1,90.3,76.5,89.9z"/>
			<path class="st0" d="M79.8,90.7l0.9-1.5c0.6,0.5,1.7,1.1,2.7,1.1c0.9,0,1.3-0.3,1.3-0.8c0-1.3-4.6-0.2-4.6-3.2
				c0-1.3,1.1-2.4,3.2-2.4c1.3,0,2.3,0.4,3.1,1.1l-0.8,1.4c-0.5-0.5-1.3-0.9-2.3-0.9c-0.7,0-1.2,0.3-1.2,0.7c0,1.1,4.6,0.2,4.6,3.3
				c0,1.4-1.2,2.5-3.3,2.5C81.9,91.9,80.7,91.5,79.8,90.7z"/>
		</g>
		<g>
			<path class="st2" d="M50.9,94.2c0-7.6,0-15.3,0-22.9c0,0,0-0.1,0.1-0.1c0.4-1.9,1.8-3.1,3.8-3.1c0.7,0,1.5,0,2.2,0
				c0.2,0,0.4,0,0.7,0c0-0.5,0-1,0-1.4c0-0.6,0.2-1,0.8-1.2c0.2,0,0.3,0,0.5,0c0.6,0.3,0.8,0.7,0.7,1.3c0,0.4,0,0.9,0,1.3
				c4.9,0,20.2,0,25.1,0c0-0.5,0-0.9,0-1.3c0-0.6,0.2-1.1,0.7-1.3c0.2,0,0.3,0,0.5,0c0.6,0.2,0.8,0.6,0.8,1.2c0,0.5,0,0.9,0,1.4
				c0.2,0,0.3,0,0.4,0c0.9,0,1.8,0,2.7,0c1.4,0.1,2.5,0.8,3.2,2c0.2,0.4,0.3,0.8,0.4,1.1c0,7.6,0,15.3,0,22.9c0,0.1,0,0.1-0.1,0.2
				c-0.2,1.1-0.8,2-1.8,2.5c-0.4,0.2-0.9,0.3-1.3,0.5c-8.5,0-27.5,0-36,0c-0.1,0-0.1,0-0.2-0.1c-1.1-0.2-2-0.8-2.5-1.8
				C51.1,95.1,51,94.6,50.9,94.2z M52.9,78c0,0.1,0,0.2,0,0.3c0,5,0,10.1,0,15.1c0,1.2,0.7,1.8,1.8,1.8c8.1,0,26.6,0,34.7,0
				c1.1,0,1.8-0.7,1.8-1.8c0-5.1,0-10.1,0-15.2c0-0.1,0-0.2,0-0.3C81.9,78,62.2,78,52.9,78z M84.6,70c-4.9,0-20.2,0-25,0
				c0,0.1,0,0.2,0,0.3c0,0.7,0,1.3,0,2c0,0.6-0.5,1-1,1c-0.6,0-1-0.4-1-1c0-0.5,0-0.9,0-1.4c0-0.3,0-0.6,0-0.9c-1,0-2,0-2.9,0
				c-1.1,0-1.8,0.7-1.8,1.8c0,1.3,0,2.6,0,3.9c0,0.1,0,0.2,0,0.3c9.3,0,29,0,38.4,0c0-1.4,0-2.8,0-4.2c0-1.1-0.7-1.8-1.8-1.8
				c-0.9,0-1.7,0-2.6,0c-0.1,0-0.2,0-0.3,0c0,0.8,0,1.5,0,2.3c0,0.6-0.4,1-0.9,1s-1-0.4-1-1c0-0.3,0-0.7,0-1
				C84.6,70.9,84.6,70.5,84.6,70z"/>
			<path class="st2" d="M50.9,94.2c0.2,0.4,0.3,0.9,0.5,1.3c0.5,1,1.4,1.6,2.5,1.8c0.1,0,0.1,0,0.2,0.1c-1.1,0-2.1,0-3.2,0
				C50.9,96.3,50.9,95.2,50.9,94.2z"/>
			<path class="st2" d="M90.1,97.3c0.4-0.2,0.9-0.3,1.3-0.5c1-0.5,1.6-1.4,1.8-2.5c0-0.1,0-0.1,0.1-0.2c0,1.1,0,2.1,0,3.2
				C92.2,97.3,91.2,97.3,90.1,97.3z"/>
		</g>
	</g>
	<g>
		<g class="st1">
			<path class="st0" d="M143.1,91.7V84l-1.8,1.8l-1.3-1.4l3.3-3.4h2v10.6L143.1,91.7L143.1,91.7z"/>
		</g>
		<g>
			<path class="st2" d="M127.1,94.2c0-7.6,0-15.3,0-22.9c0,0,0-0.1,0.1-0.1c0.4-1.9,1.8-3.1,3.8-3.1c0.7,0,1.5,0,2.2,0
				c0.2,0,0.4,0,0.7,0c0-0.5,0-1,0-1.4c0-0.6,0.2-1,0.8-1.2c0.2,0,0.3,0,0.5,0c0.6,0.3,0.8,0.7,0.7,1.3c0,0.4,0,0.9,0,1.3
				c4.9,0,9.8,0,14.7,0c0-0.5,0-0.9,0-1.3c0-0.6,0.2-1.1,0.7-1.3c0.2,0,0.3,0,0.5,0c0.6,0.2,0.8,0.6,0.8,1.2c0,0.5,0,0.9,0,1.4
				c0.2,0,0.3,0,0.4,0c0.9,0,1.8,0,2.7,0c1.4,0.1,2.5,0.8,3.2,2c0.2,0.4,0.3,0.8,0.4,1.1c0,7.6,0,15.3,0,22.9c0,0.1,0,0.1-0.1,0.2
				c-0.2,1.1-0.8,2-1.8,2.5c-0.4,0.2-0.9,0.3-1.3,0.5c-8.5,0-17.1,0-25.6,0c-0.1,0-0.1,0-0.2-0.1c-1.1-0.2-2-0.8-2.5-1.8
				C127.4,95.1,127.3,94.6,127.1,94.2z M129.1,78c0,0.1,0,0.2,0,0.3c0,5,0,10.1,0,15.1c0,1.2,0.7,1.8,1.8,1.8c8.1,0,16.2,0,24.3,0
				c1.1,0,1.8-0.7,1.8-1.8c0-5.1,0-10.1,0-15.2c0-0.1,0-0.2,0-0.3C147.8,78,138.4,78,129.1,78z M150.4,70c-4.9,0-9.8,0-14.6,0
				c0,0.1,0,0.2,0,0.3c0,0.7,0,1.3,0,2c0,0.6-0.5,1-1,1c-0.6,0-1-0.4-1-1c0-0.5,0-0.9,0-1.4c0-0.3,0-0.6,0-0.9c-1,0-2,0-2.9,0
				c-1.1,0-1.8,0.7-1.8,1.8c0,1.3,0,2.6,0,3.9c0,0.1,0,0.2,0,0.3c9.3,0,18.7,0,28,0c0-1.4,0-2.8,0-4.2c0-1.1-0.7-1.8-1.8-1.8
				c-0.9,0-1.7,0-2.6,0c-0.1,0-0.2,0-0.3,0c0,0.8,0,1.5,0,2.3c0,0.6-0.4,1-0.9,1s-1-0.4-1-1c0-0.3,0-0.7,0-1
				C150.4,70.9,150.4,70.5,150.4,70z"/>
			<path class="st2" d="M127.1,94.2c0.2,0.4,0.3,0.9,0.5,1.3c0.5,1,1.4,1.6,2.5,1.8c0.1,0,0.1,0,0.2,0.1c-1.1,0-2.1,0-3.2,0
				C127.1,96.3,127.1,95.2,127.1,94.2z"/>
			<path class="st2" d="M155.9,97.3c0.4-0.2,0.9-0.3,1.3-0.5c1-0.5,1.6-1.4,1.8-2.5c0-0.1,0-0.1,0.1-0.2c0,1.1,0,2.1,0,3.2
				C158,97.3,157,97.3,155.9,97.3z"/>
		</g>
		<g class="st1">
			<path class="st0" d="M174.7,91.7v-1.8c4.3-3.2,5.6-4.3,5.6-5.6c0-0.9-0.8-1.4-1.7-1.4c-1.2,0-2.1,0.5-2.9,1.2l-1.3-1.5
				c1-1.2,2.6-1.7,4.1-1.7c2.3,0,4.1,1.3,4.1,3.4c0,1.8-1.5,3.4-4.3,5.4h4.3v2H174.7z"/>
		</g>
		<g>
			<path class="st2" d="M162.7,94.2c0-7.6,0-15.3,0-22.9c0,0,0-0.1,0.1-0.1c0.4-1.9,1.8-3.1,3.8-3.1c0.7,0,1.5,0,2.2,0
				c0.2,0,0.4,0,0.7,0c0-0.5,0-1,0-1.4c0-0.6,0.2-1,0.8-1.2c0.2,0,0.3,0,0.5,0c0.6,0.3,0.8,0.7,0.7,1.3c0,0.4,0,0.9,0,1.3
				c4.9,0,9.8,0,14.7,0c0-0.5,0-0.9,0-1.3c0-0.6,0.2-1.1,0.7-1.3c0.2,0,0.3,0,0.5,0c0.6,0.2,0.8,0.6,0.8,1.2c0,0.5,0,0.9,0,1.4
				c0.2,0,0.3,0,0.4,0c0.9,0,1.8,0,2.8,0c1.4,0.1,2.5,0.8,3.2,2c0.2,0.4,0.3,0.8,0.4,1.1c0,7.6,0,15.3,0,22.9c0,0.1,0,0.1-0.1,0.2
				c-0.2,1.1-0.8,2-1.8,2.5c-0.4,0.2-0.9,0.3-1.3,0.5c-8.5,0-17.1,0-25.6,0c-0.1,0-0.1,0-0.2-0.1c-1.1-0.2-2-0.8-2.5-1.8
				C163,95.1,162.9,94.6,162.7,94.2z M164.7,78c0,0.1,0,0.2,0,0.3c0,5,0,10.1,0,15.1c0,1.2,0.7,1.8,1.8,1.8c8.1,0,16.2,0,24.3,0
				c1.1,0,1.8-0.7,1.8-1.8c0-5.1,0-10.1,0-15.2c0-0.1,0-0.2,0-0.3C183.4,78,174.1,78,164.7,78z M186,70c-4.9,0-9.8,0-14.6,0
				c0,0.1,0,0.2,0,0.3c0,0.7,0,1.3,0,2c0,0.6-0.5,1-1,1c-0.6,0-1-0.4-1-1c0-0.5,0-0.9,0-1.4c0-0.3,0-0.6,0-0.9c-1,0-2,0-2.9,0
				c-1.1,0-1.8,0.7-1.8,1.8c0,1.3,0,2.6,0,3.9c0,0.1,0,0.2,0,0.3c9.3,0,18.7,0,28,0c0-1.4,0-2.8,0-4.2c0-1.1-0.7-1.8-1.8-1.8
				c-0.9,0-1.7,0-2.6,0c-0.1,0-0.2,0-0.3,0c0,0.8,0,1.5,0,2.3c0,0.6-0.4,1-0.9,1s-1-0.4-1-1c0-0.3,0-0.7,0-1
				C186,70.9,186,70.5,186,70z"/>
			<path class="st2" d="M162.7,94.2c0.2,0.4,0.3,0.9,0.5,1.3c0.5,1,1.4,1.6,2.5,1.8c0.1,0,0.1,0,0.2,0.1c-1.1,0-2.1,0-3.2,0
				C162.7,96.3,162.7,95.2,162.7,94.2z"/>
			<path class="st2" d="M191.5,97.3c0.4-0.2,0.9-0.3,1.3-0.5c1-0.5,1.6-1.4,1.8-2.5c0-0.1,0-0.1,0.1-0.2c0,1.1,0,2.1,0,3.2
				C193.7,97.3,192.6,97.3,191.5,97.3z"/>
		</g>
		<g class="st1">
			<path class="st0" d="M210,90.2l1.2-1.5c0.7,0.8,1.9,1.2,2.9,1.2c1.3,0,2-0.6,2-1.4s-0.7-1.2-2.1-1.2c-0.4,0-1.2,0-1.3,0v-2
				c0.2,0,0.9,0,1.3,0c1.2,0,2-0.4,2-1.1c0-0.8-0.9-1.3-2-1.3c-1,0-2,0.4-2.7,1.1l-1.1-1.4c0.9-1,2.2-1.7,4.1-1.7c2.5,0,4,1.1,4,2.9
				c0,1.3-1.1,2.2-2.3,2.4c1.1,0.1,2.5,1,2.5,2.5c0,1.8-1.6,3.1-4.2,3.1C212.2,91.9,210.7,91.1,210,90.2z"/>
		</g>
		<g>
			<path class="st2" d="M198.3,94.2c0-7.6,0-15.3,0-22.9c0,0,0-0.1,0.1-0.1c0.4-1.9,1.8-3.1,3.8-3.1c0.7,0,1.5,0,2.2,0
				c0.2,0,0.4,0,0.7,0c0-0.5,0-1,0-1.4c0-0.6,0.2-1,0.8-1.2c0.2,0,0.3,0,0.5,0c0.6,0.3,0.8,0.7,0.7,1.3c0,0.4,0,0.9,0,1.3
				c4.9,0,9.8,0,14.7,0c0-0.5,0-0.9,0-1.3c0-0.6,0.2-1.1,0.7-1.3c0.2,0,0.3,0,0.5,0c0.6,0.2,0.8,0.6,0.8,1.2c0,0.5,0,0.9,0,1.4
				c0.2,0,0.3,0,0.4,0c0.9,0,1.8,0,2.8,0c1.4,0.1,2.5,0.8,3.2,2c0.2,0.4,0.3,0.8,0.4,1.1c0,7.6,0,15.3,0,22.9c0,0.1,0,0.1-0.1,0.2
				c-0.2,1.1-0.8,2-1.8,2.5c-0.4,0.2-0.9,0.3-1.3,0.5c-8.5,0-17.1,0-25.6,0c-0.1,0-0.1,0-0.2-0.1c-1.1-0.2-2-0.8-2.5-1.8
				C198.6,95.1,198.5,94.6,198.3,94.2z M200.3,78c0,0.1,0,0.2,0,0.3c0,5,0,10.1,0,15.1c0,1.2,0.7,1.8,1.8,1.8c8.1,0,16.2,0,24.3,0
				c1.1,0,1.8-0.7,1.8-1.8c0-5.1,0-10.1,0-15.2c0-0.1,0-0.2,0-0.3C219,78,209.7,78,200.3,78z M221.7,70c-4.9,0-9.8,0-14.6,0
				c0,0.1,0,0.2,0,0.3c0,0.7,0,1.3,0,2c0,0.6-0.5,1-1,1c-0.6,0-1-0.4-1-1c0-0.5,0-0.9,0-1.4c0-0.3,0-0.6,0-0.9c-1,0-2,0-2.9,0
				c-1.1,0-1.8,0.7-1.8,1.8c0,1.3,0,2.6,0,3.9c0,0.1,0,0.2,0,0.3c9.3,0,18.7,0,28,0c0-1.4,0-2.8,0-4.2c0-1.1-0.7-1.8-1.8-1.8
				c-0.9,0-1.7,0-2.6,0c-0.1,0-0.2,0-0.3,0c0,0.8,0,1.5,0,2.3c0,0.6-0.4,1-0.9,1s-1-0.4-1-1c0-0.3,0-0.7,0-1
				C221.7,70.9,221.7,70.5,221.7,70z"/>
			<path class="st2" d="M198.3,94.2c0.2,0.4,0.3,0.9,0.5,1.3c0.5,1,1.4,1.6,2.5,1.8c0.1,0,0.1,0,0.2,0.1c-1.1,0-2.1,0-3.2,0
				C198.3,96.3,198.3,95.2,198.3,94.2z"/>
			<path class="st2" d="M227.1,97.3c0.4-0.2,0.9-0.3,1.3-0.5c1-0.5,1.6-1.4,1.8-2.5c0-0.1,0-0.1,0.1-0.2c0,1.1,0,2.1,0,3.2
				C229.3,97.3,228.2,97.3,227.1,97.3z"/>
		</g>
	</g>
	<g>
		<g class="st1">
			<path class="st0" d="M277.4,91.7v-2.2h-5.1v-1.8l4.2-6.6h3.1v6.4h1.4v2h-1.4v2.2H277.4z M277.4,83.1l-2.9,4.4h2.9V83.1z"/>
		</g>
		<g>
			<path class="st2" d="M260.7,94.2c0-7.6,0-15.3,0-22.9c0,0,0-0.1,0.1-0.1c0.4-1.9,1.8-3.1,3.8-3.1c0.7,0,1.5,0,2.2,0
				c0.2,0,0.4,0,0.7,0c0-0.5,0-1,0-1.4c0-0.6,0.2-1,0.8-1.2c0.2,0,0.3,0,0.5,0c0.6,0.3,0.8,0.7,0.7,1.3c0,0.4,0,0.9,0,1.3
				c4.9,0,9.8,0,14.7,0c0-0.5,0-0.9,0-1.3c0-0.6,0.2-1.1,0.7-1.3c0.2,0,0.3,0,0.5,0c0.6,0.2,0.8,0.6,0.8,1.2c0,0.5,0,0.9,0,1.4
				c0.2,0,0.3,0,0.4,0c0.9,0,1.8,0,2.8,0c1.4,0.1,2.5,0.8,3.2,2c0.2,0.4,0.3,0.8,0.4,1.1c0,7.6,0,15.3,0,22.9c0,0.1,0,0.1-0.1,0.2
				c-0.2,1.1-0.8,2-1.8,2.5c-0.4,0.2-0.9,0.3-1.3,0.5c-8.5,0-17.1,0-25.6,0c-0.1,0-0.1,0-0.2-0.1c-1.1-0.2-2-0.8-2.5-1.8
				C260.9,95.1,260.8,94.6,260.7,94.2z M262.7,78c0,0.1,0,0.2,0,0.3c0,5,0,10.1,0,15.1c0,1.2,0.7,1.8,1.8,1.8c8.1,0,16.2,0,24.3,0
				c1.1,0,1.8-0.7,1.8-1.8c0-5.1,0-10.1,0-15.2c0-0.1,0-0.2,0-0.3C281.3,78,272,78,262.7,78z M284,70c-4.9,0-9.8,0-14.6,0
				c0,0.1,0,0.2,0,0.3c0,0.7,0,1.3,0,2c0,0.6-0.5,1-1,1c-0.6,0-1-0.4-1-1c0-0.5,0-0.9,0-1.4c0-0.3,0-0.6,0-0.9c-1,0-2,0-2.9,0
				c-1.1,0-1.8,0.7-1.8,1.8c0,1.3,0,2.6,0,3.9c0,0.1,0,0.2,0,0.3c9.3,0,18.7,0,28,0c0-1.4,0-2.8,0-4.2c0-1.1-0.7-1.8-1.8-1.8
				c-0.9,0-1.7,0-2.6,0c-0.1,0-0.2,0-0.3,0c0,0.8,0,1.5,0,2.3c0,0.6-0.4,1-0.9,1s-1-0.4-1-1c0-0.3,0-0.7,0-1
				C284,70.9,284,70.5,284,70z"/>
			<path class="st2" d="M260.7,94.2c0.2,0.4,0.3,0.9,0.5,1.3c0.5,1,1.4,1.6,2.5,1.8c0.1,0,0.1,0,0.2,0.1c-1.1,0-2.1,0-3.2,0
				C260.7,96.3,260.7,95.2,260.7,94.2z"/>
			<path class="st2" d="M289.5,97.3c0.4-0.2,0.9-0.3,1.3-0.5c1-0.5,1.6-1.4,1.8-2.5c0-0.1,0-0.1,0.1-0.2c0,1.1,0,2.1,0,3.2
				C291.6,97.3,290.6,97.3,289.5,97.3z"/>
		</g>
		<g class="st1">
			<path class="st0" d="M308.2,90.3l1.3-1.6c0.7,0.7,1.7,1.2,2.8,1.2c1.3,0,2-0.7,2-1.6s-0.7-1.6-1.9-1.6c-0.9,0-1.6,0.3-2.2,0.9
				l-1.6-0.4v-6.1h7.3v2h-5v2.6c0.5-0.5,1.4-0.9,2.3-0.9c1.8,0,3.4,1.3,3.4,3.4c0,2.2-1.7,3.7-4.3,3.7
				C310.5,91.9,309.1,91.3,308.2,90.3z"/>
		</g>
		<g>
			<path class="st2" d="M296.3,94.2c0-7.6,0-15.3,0-22.9c0,0,0-0.1,0.1-0.1c0.4-1.9,1.8-3.1,3.8-3.1c0.7,0,1.5,0,2.2,0
				c0.2,0,0.4,0,0.7,0c0-0.5,0-1,0-1.4c0-0.6,0.2-1,0.8-1.2c0.2,0,0.3,0,0.5,0c0.6,0.3,0.8,0.7,0.7,1.3c0,0.4,0,0.9,0,1.3
				c4.9,0,9.8,0,14.7,0c0-0.5,0-0.9,0-1.3c0-0.6,0.2-1.1,0.7-1.3c0.2,0,0.3,0,0.5,0c0.6,0.2,0.8,0.6,0.8,1.2c0,0.5,0,0.9,0,1.4
				c0.2,0,0.3,0,0.4,0c0.9,0,1.8,0,2.7,0c1.4,0.1,2.5,0.8,3.2,2c0.2,0.4,0.3,0.8,0.4,1.1c0,7.6,0,15.3,0,22.9c0,0.1,0,0.1-0.1,0.2
				c-0.2,1.1-0.8,2-1.8,2.5c-0.4,0.2-0.9,0.3-1.3,0.5c-8.5,0-17.1,0-25.6,0c-0.1,0-0.1,0-0.2-0.1c-1.1-0.2-2-0.8-2.5-1.8
				C296.6,95.1,296.4,94.6,296.3,94.2z M298.3,78c0,0.1,0,0.2,0,0.3c0,5,0,10.1,0,15.1c0,1.2,0.7,1.8,1.8,1.8c8.1,0,16.2,0,24.3,0
				c1.1,0,1.8-0.7,1.8-1.8c0-5.1,0-10.1,0-15.2c0-0.1,0-0.2,0-0.3C316.9,78,307.6,78,298.3,78z M319.6,70c-4.9,0-9.8,0-14.6,0
				c0,0.1,0,0.2,0,0.3c0,0.7,0,1.3,0,2c0,0.6-0.5,1-1,1c-0.6,0-1-0.4-1-1c0-0.5,0-0.9,0-1.4c0-0.3,0-0.6,0-0.9c-1,0-2,0-2.9,0
				c-1.1,0-1.8,0.7-1.8,1.8c0,1.3,0,2.6,0,3.9c0,0.1,0,0.2,0,0.3c9.3,0,18.7,0,28,0c0-1.4,0-2.8,0-4.2c0-1.1-0.7-1.8-1.8-1.8
				c-0.9,0-1.7,0-2.6,0c-0.1,0-0.2,0-0.3,0c0,0.8,0,1.5,0,2.3c0,0.6-0.4,1-0.9,1s-1-0.4-1-1c0-0.3,0-0.7,0-1
				C319.6,70.9,319.6,70.5,319.6,70z"/>
			<path class="st2" d="M296.3,94.2c0.2,0.4,0.3,0.9,0.5,1.3c0.5,1,1.4,1.6,2.5,1.8c0.1,0,0.1,0,0.2,0.1c-1.1,0-2.1,0-3.2,0
				C296.3,96.3,296.3,95.2,296.3,94.2z"/>
			<path class="st2" d="M325.1,97.3c0.4-0.2,0.9-0.3,1.3-0.5c1-0.5,1.6-1.4,1.8-2.5c0-0.1,0-0.1,0.1-0.2c0,1.1,0,2.1,0,3.2
				C327.2,97.3,326.2,97.3,325.1,97.3z"/>
		</g>
		<g class="st1">
			<path class="st0" d="M343.6,86.4c0-3.2,1.8-5.5,5-5.5c1.3,0,2.4,0.4,3.1,1.1l-1,1.7c-0.6-0.5-1.2-0.8-2.1-0.8
				c-1.6,0-2.7,1.3-2.7,3c0,0.1,0,0.1,0,0.2c0.5-0.7,1.6-1.4,2.7-1.4c1.9,0,3.6,1.2,3.6,3.5c0,2.1-1.7,3.6-4.1,3.6
				C345,91.9,343.6,89.4,343.6,86.4z M350,88.3c0-1.1-1-1.6-2-1.6c-0.8,0-1.6,0.4-2.1,1c0.1,1,0.7,2.2,2.2,2.2
				C349.3,89.9,350,89.1,350,88.3z"/>
		</g>
		<g>
			<path class="st2" d="M331.9,94.2c0-7.6,0-15.3,0-22.9c0,0,0-0.1,0.1-0.1c0.4-1.9,1.8-3.1,3.8-3.1c0.7,0,1.5,0,2.2,0
				c0.2,0,0.4,0,0.7,0c0-0.5,0-1,0-1.4c0-0.6,0.2-1,0.8-1.2c0.2,0,0.3,0,0.5,0c0.6,0.3,0.8,0.7,0.7,1.3c0,0.4,0,0.9,0,1.3
				c4.9,0,9.8,0,14.7,0c0-0.5,0-0.9,0-1.3c0-0.6,0.2-1.1,0.7-1.3c0.2,0,0.3,0,0.5,0c0.6,0.2,0.8,0.6,0.8,1.2c0,0.5,0,0.9,0,1.4
				c0.2,0,0.3,0,0.4,0c0.9,0,1.8,0,2.8,0c1.4,0.1,2.5,0.8,3.2,2c0.2,0.4,0.3,0.8,0.4,1.1c0,7.6,0,15.3,0,22.9c0,0.1,0,0.1-0.1,0.2
				c-0.2,1.1-0.8,2-1.8,2.5c-0.4,0.2-0.9,0.3-1.3,0.5c-8.5,0-17.1,0-25.6,0c-0.1,0-0.1,0-0.2-0.1c-1.1-0.2-2-0.8-2.5-1.8
				C332.2,95.1,332.1,94.6,331.9,94.2z M333.9,78c0,0.1,0,0.2,0,0.3c0,5,0,10.1,0,15.1c0,1.2,0.7,1.8,1.8,1.8c8.1,0,16.2,0,24.3,0
				c1.1,0,1.8-0.7,1.8-1.8c0-5.1,0-10.1,0-15.2c0-0.1,0-0.2,0-0.3C352.6,78,343.2,78,333.9,78z M355.2,70c-4.9,0-9.8,0-14.6,0
				c0,0.1,0,0.2,0,0.3c0,0.7,0,1.3,0,2c0,0.6-0.5,1-1,1c-0.6,0-1-0.4-1-1c0-0.5,0-0.9,0-1.4c0-0.3,0-0.6,0-0.9c-1,0-2,0-2.9,0
				c-1.1,0-1.8,0.7-1.8,1.8c0,1.3,0,2.6,0,3.9c0,0.1,0,0.2,0,0.3c9.3,0,18.7,0,28,0c0-1.4,0-2.8,0-4.2c0-1.1-0.7-1.8-1.8-1.8
				c-0.9,0-1.7,0-2.6,0c-0.1,0-0.2,0-0.3,0c0,0.8,0,1.5,0,2.3c0,0.6-0.4,1-0.9,1s-1-0.4-1-1c0-0.3,0-0.7,0-1
				C355.2,70.9,355.2,70.5,355.2,70z"/>
			<path class="st2" d="M331.9,94.2c0.2,0.4,0.3,0.9,0.5,1.3c0.5,1,1.4,1.6,2.5,1.8c0.1,0,0.1,0,0.2,0.1c-1.1,0-2.1,0-3.2,0
				C331.9,96.3,331.9,95.2,331.9,94.2z"/>
			<path class="st2" d="M360.7,97.3c0.4-0.2,0.9-0.3,1.3-0.5c1-0.5,1.6-1.4,1.8-2.5c0-0.1,0-0.1,0.1-0.2c0,1.1,0,2.1,0,3.2
				C362.8,97.3,361.8,97.3,360.7,97.3z"/>
		</g>
	</g>
	<g>
		<g class="st1">
			<path class="st0" d="M407.9,91.7l3.8-8.6h-5.4v-2h8v1.6l-4,9H407.9z"/>
		</g>
		<g>
			<path class="st2" d="M394.3,94.2c0-7.6,0-15.3,0-22.9c0,0,0-0.1,0.1-0.1c0.4-1.9,1.8-3.1,3.8-3.1c0.7,0,1.5,0,2.2,0
				c0.2,0,0.4,0,0.7,0c0-0.5,0-1,0-1.4c0-0.6,0.2-1,0.8-1.2c0.2,0,0.3,0,0.5,0c0.6,0.3,0.8,0.7,0.7,1.3c0,0.4,0,0.9,0,1.3
				c4.9,0,9.8,0,14.7,0c0-0.5,0-0.9,0-1.3c0-0.6,0.2-1.1,0.7-1.3c0.2,0,0.3,0,0.5,0c0.6,0.2,0.8,0.6,0.8,1.2c0,0.5,0,0.9,0,1.4
				c0.2,0,0.3,0,0.4,0c0.9,0,1.8,0,2.7,0c1.4,0.1,2.5,0.8,3.2,2c0.2,0.4,0.3,0.8,0.4,1.1c0,7.6,0,15.3,0,22.9c0,0.1,0,0.1-0.1,0.2
				c-0.2,1.1-0.8,2-1.8,2.5c-0.4,0.2-0.9,0.3-1.3,0.5c-8.5,0-17.1,0-25.6,0c-0.1,0-0.1,0-0.2-0.1c-1.1-0.2-2-0.8-2.5-1.8
				C394.5,95.1,394.4,94.6,394.3,94.2z M396.3,78c0,0.1,0,0.2,0,0.3c0,5,0,10.1,0,15.1c0,1.2,0.7,1.8,1.8,1.8c8.1,0,16.2,0,24.3,0
				c1.1,0,1.8-0.7,1.8-1.8c0-5.1,0-10.1,0-15.2c0-0.1,0-0.2,0-0.3C414.9,78,405.6,78,396.3,78z M417.6,70c-4.9,0-9.8,0-14.6,0
				c0,0.1,0,0.2,0,0.3c0,0.7,0,1.3,0,2c0,0.6-0.5,1-1,1c-0.6,0-1-0.4-1-1c0-0.5,0-0.9,0-1.4c0-0.3,0-0.6,0-0.9c-1,0-2,0-2.9,0
				c-1.1,0-1.8,0.7-1.8,1.8c0,1.3,0,2.6,0,3.9c0,0.1,0,0.2,0,0.3c9.3,0,18.7,0,28,0c0-1.4,0-2.8,0-4.2c0-1.1-0.7-1.8-1.8-1.8
				c-0.9,0-1.7,0-2.6,0c-0.1,0-0.2,0-0.3,0c0,0.8,0,1.5,0,2.3c0,0.6-0.4,1-0.9,1s-1-0.4-1-1c0-0.3,0-0.7,0-1
				C417.6,70.9,417.6,70.5,417.6,70z"/>
			<path class="st2" d="M394.3,94.2c0.2,0.4,0.3,0.9,0.5,1.3c0.5,1,1.4,1.6,2.5,1.8c0.1,0,0.1,0,0.2,0.1c-1.1,0-2.1,0-3.2,0
				C394.3,96.3,394.3,95.2,394.3,94.2z"/>
			<path class="st2" d="M423.1,97.3c0.4-0.2,0.9-0.3,1.3-0.5c1-0.5,1.6-1.4,1.8-2.5c0-0.1,0-0.1,0.1-0.2c0,1.1,0,2.1,0,3.2
				C425.2,97.3,424.1,97.3,423.1,97.3z"/>
		</g>
		<g class="st1">
			<path class="st0" d="M441.6,89c0-1.3,1-2.3,2.3-2.7c-1.2-0.4-2.1-1.2-2.1-2.5c0-2,2.1-2.8,4.1-2.8s4.1,0.8,4.1,2.8
				c0,1.3-0.9,2.1-2.1,2.5c1.3,0.4,2.3,1.4,2.3,2.7c0,2-2,2.9-4.3,2.9S441.6,90.9,441.6,89z M447.9,88.6c0-0.9-1.3-1.3-2-1.4
				c-0.7,0.1-2,0.5-2,1.4c0,0.8,0.9,1.3,2,1.3S447.9,89.4,447.9,88.6z M447.7,84.1c0-0.7-0.7-1.2-1.8-1.2c-1.1,0-1.8,0.4-1.8,1.2
				c0,0.8,1.1,1.1,1.8,1.2C446.5,85.2,447.7,84.9,447.7,84.1z"/>
		</g>
		<g>
			<path class="st2" d="M429.9,94.2c0-7.6,0-15.3,0-22.9c0,0,0-0.1,0.1-0.1c0.4-1.9,1.8-3.1,3.8-3.1c0.7,0,1.5,0,2.2,0
				c0.2,0,0.4,0,0.7,0c0-0.5,0-1,0-1.4c0-0.6,0.2-1,0.8-1.2c0.2,0,0.3,0,0.5,0c0.6,0.3,0.8,0.7,0.7,1.3c0,0.4,0,0.9,0,1.3
				c4.9,0,9.8,0,14.7,0c0-0.5,0-0.9,0-1.3c0-0.6,0.2-1.1,0.7-1.3c0.2,0,0.3,0,0.5,0c0.6,0.2,0.8,0.6,0.8,1.2c0,0.5,0,0.9,0,1.4
				c0.2,0,0.3,0,0.4,0c0.9,0,1.8,0,2.8,0c1.4,0.1,2.5,0.8,3.2,2c0.2,0.4,0.3,0.8,0.4,1.1c0,7.6,0,15.3,0,22.9c0,0.1,0,0.1-0.1,0.2
				c-0.2,1.1-0.8,2-1.8,2.5c-0.4,0.2-0.9,0.3-1.3,0.5c-8.5,0-17.1,0-25.6,0c-0.1,0-0.1,0-0.2-0.1c-1.1-0.2-2-0.8-2.5-1.8
				C430.1,95.1,430,94.6,429.9,94.2z M431.9,78c0,0.1,0,0.2,0,0.3c0,5,0,10.1,0,15.1c0,1.2,0.7,1.8,1.8,1.8c8.1,0,16.2,0,24.3,0
				c1.1,0,1.8-0.7,1.8-1.8c0-5.1,0-10.1,0-15.2c0-0.1,0-0.2,0-0.3C450.5,78,441.2,78,431.9,78z M453.2,70c-4.9,0-9.8,0-14.6,0
				c0,0.1,0,0.2,0,0.3c0,0.7,0,1.3,0,2c0,0.6-0.5,1-1,1c-0.6,0-1-0.4-1-1c0-0.5,0-0.9,0-1.4c0-0.3,0-0.6,0-0.9c-1,0-2,0-2.9,0
				c-1.1,0-1.8,0.7-1.8,1.8c0,1.3,0,2.6,0,3.9c0,0.1,0,0.2,0,0.3c9.3,0,18.7,0,28,0c0-1.4,0-2.8,0-4.2c0-1.1-0.7-1.8-1.8-1.8
				c-0.9,0-1.7,0-2.6,0c-0.1,0-0.2,0-0.3,0c0,0.8,0,1.5,0,2.3c0,0.6-0.4,1-0.9,1s-1-0.4-1-1c0-0.3,0-0.7,0-1
				C453.2,70.9,453.2,70.5,453.2,70z"/>
			<path class="st2" d="M429.9,94.2c0.2,0.4,0.3,0.9,0.5,1.3c0.5,1,1.4,1.6,2.5,1.8c0.1,0,0.1,0,0.2,0.1c-1.1,0-2.1,0-3.2,0
				C429.9,96.3,429.9,95.2,429.9,94.2z"/>
			<path class="st2" d="M458.7,97.3c0.4-0.2,0.9-0.3,1.3-0.5c1-0.5,1.6-1.4,1.8-2.5c0-0.1,0-0.1,0.1-0.2c0,1.1,0,2.1,0,3.2
				C460.8,97.3,459.8,97.3,458.7,97.3z"/>
		</g>
		<g class="st1">
			<path class="st0" d="M477.7,90.8l1-1.7c0.6,0.5,1.2,0.8,2.1,0.8c1.8,0,2.7-1.5,2.7-3c0-0.1,0-0.2,0-0.2c-0.5,0.7-1.6,1.4-2.7,1.4
				c-1.9,0-3.6-1.2-3.6-3.5c0-2.1,1.6-3.6,4.1-3.6c3.2,0,4.6,2.5,4.6,5.5c0,3.2-1.8,5.5-5,5.5C479.5,91.9,478.5,91.5,477.7,90.8z
				 M483.5,85.1c-0.1-1-0.7-2.2-2.2-2.2c-1.2,0-1.9,0.8-1.9,1.6c0,1.1,1,1.6,2,1.6C482.2,86.1,483,85.7,483.5,85.1z"/>
		</g>
		<g>
			<path class="st2" d="M465.5,94.2c0-7.6,0-15.3,0-22.9c0,0,0-0.1,0.1-0.1c0.4-1.9,1.8-3.1,3.8-3.1c0.7,0,1.5,0,2.2,0
				c0.2,0,0.4,0,0.7,0c0-0.5,0-1,0-1.4c0-0.6,0.2-1,0.8-1.2c0.2,0,0.3,0,0.5,0c0.6,0.3,0.8,0.7,0.7,1.3c0,0.4,0,0.9,0,1.3
				c4.9,0,9.8,0,14.7,0c0-0.5,0-0.9,0-1.3c0-0.6,0.2-1.1,0.7-1.3c0.2,0,0.3,0,0.5,0c0.6,0.2,0.8,0.6,0.8,1.2c0,0.5,0,0.9,0,1.4
				c0.2,0,0.3,0,0.4,0c0.9,0,1.8,0,2.7,0c1.4,0.1,2.5,0.8,3.2,2c0.2,0.4,0.3,0.8,0.4,1.1c0,7.6,0,15.3,0,22.9c0,0.1,0,0.1-0.1,0.2
				c-0.2,1.1-0.8,2-1.8,2.5c-0.4,0.2-0.9,0.3-1.3,0.5c-8.5,0-17.1,0-25.6,0c-0.1,0-0.1,0-0.2-0.1c-1.1-0.2-2-0.8-2.5-1.8
				C465.7,95.1,465.6,94.6,465.5,94.2z M467.5,78c0,0.1,0,0.2,0,0.3c0,5,0,10.1,0,15.1c0,1.2,0.7,1.8,1.8,1.8c8.1,0,16.2,0,24.3,0
				c1.1,0,1.8-0.7,1.8-1.8c0-5.1,0-10.1,0-15.2c0-0.1,0-0.2,0-0.3C486.1,78,476.8,78,467.5,78z M488.8,70c-4.9,0-9.8,0-14.6,0
				c0,0.1,0,0.2,0,0.3c0,0.7,0,1.3,0,2c0,0.6-0.5,1-1,1c-0.6,0-1-0.4-1-1c0-0.5,0-0.9,0-1.4c0-0.3,0-0.6,0-0.9c-1,0-2,0-2.9,0
				c-1.1,0-1.8,0.7-1.8,1.8c0,1.3,0,2.6,0,3.9c0,0.1,0,0.2,0,0.3c9.3,0,18.7,0,28,0c0-1.4,0-2.8,0-4.2c0-1.1-0.7-1.8-1.8-1.8
				c-0.9,0-1.7,0-2.6,0c-0.1,0-0.2,0-0.3,0c0,0.8,0,1.5,0,2.3c0,0.6-0.4,1-0.9,1s-1-0.4-1-1c0-0.3,0-0.7,0-1
				C488.8,70.9,488.8,70.5,488.8,70z"/>
			<path class="st2" d="M465.5,94.2c0.2,0.4,0.3,0.9,0.5,1.3c0.5,1,1.4,1.6,2.5,1.8c0.1,0,0.1,0,0.2,0.1c-1.1,0-2.1,0-3.2,0
				C465.5,96.3,465.5,95.2,465.5,94.2z"/>
			<path class="st2" d="M494.3,97.3c0.4-0.2,0.9-0.3,1.3-0.5c1-0.5,1.6-1.4,1.8-2.5c0-0.1,0-0.1,0.1-0.2c0,1.1,0,2.1,0,3.2
				C496.4,97.3,495.4,97.3,494.3,97.3z"/>
		</g>
	</g>
	<g>
		<g class="st1">
			<path class="st0" d="M538.9,91.7V84l-1.8,1.8l-1.3-1.4l3.3-3.4h2v10.6L538.9,91.7L538.9,91.7z"/>
			<path class="st0" d="M542.7,86.4c0-2.7,1.4-5.5,4.4-5.5s4.4,2.7,4.4,5.5s-1.4,5.5-4.4,5.5C544.1,91.9,542.7,89.1,542.7,86.4z
				 M549.2,86.4c0-2-0.6-3.5-2.1-3.5s-2.1,1.5-2.1,3.5s0.6,3.5,2.1,3.5C548.6,89.9,549.2,88.4,549.2,86.4z"/>
		</g>
		<g>
			<path class="st2" d="M527.8,94.2c0-7.6,0-15.3,0-22.9c0,0,0-0.1,0.1-0.1c0.4-1.9,1.8-3.1,3.8-3.1c0.7,0,1.5,0,2.2,0
				c0.2,0,0.4,0,0.7,0c0-0.5,0-1,0-1.4c0-0.6,0.2-1,0.8-1.2c0.2,0,0.3,0,0.5,0c0.6,0.3,0.8,0.7,0.7,1.3c0,0.4,0,0.9,0,1.3
				c4.9,0,9.8,0,14.7,0c0-0.5,0-0.9,0-1.3c0-0.6,0.2-1.1,0.7-1.3c0.2,0,0.3,0,0.5,0c0.6,0.2,0.8,0.6,0.8,1.2c0,0.5,0,0.9,0,1.4
				c0.2,0,0.3,0,0.4,0c0.9,0,1.8,0,2.7,0c1.4,0.1,2.5,0.8,3.2,2c0.2,0.4,0.3,0.8,0.4,1.1c0,7.6,0,15.3,0,22.9c0,0.1,0,0.1-0.1,0.2
				c-0.2,1.1-0.8,2-1.8,2.5c-0.4,0.2-0.9,0.3-1.3,0.5c-8.5,0-17.1,0-25.6,0c-0.1,0-0.1,0-0.2-0.1c-1.1-0.2-2-0.8-2.5-1.8
				C528.1,95.1,528,94.6,527.8,94.2z M529.8,78c0,0.1,0,0.2,0,0.3c0,5,0,10.1,0,15.1c0,1.2,0.7,1.8,1.8,1.8c8.1,0,16.2,0,24.3,0
				c1.1,0,1.8-0.7,1.8-1.8c0-5.1,0-10.1,0-15.2c0-0.1,0-0.2,0-0.3C548.5,78,539.2,78,529.8,78z M551.2,70c-4.9,0-9.8,0-14.6,0
				c0,0.1,0,0.2,0,0.3c0,0.7,0,1.3,0,2c0,0.6-0.5,1-1,1c-0.6,0-1-0.4-1-1c0-0.5,0-0.9,0-1.4c0-0.3,0-0.6,0-0.9c-1,0-2,0-2.9,0
				c-1.1,0-1.8,0.7-1.8,1.8c0,1.3,0,2.6,0,3.9c0,0.1,0,0.2,0,0.3c9.3,0,18.7,0,28,0c0-1.4,0-2.8,0-4.2c0-1.1-0.7-1.8-1.8-1.8
				c-0.9,0-1.7,0-2.6,0c-0.1,0-0.2,0-0.3,0c0,0.8,0,1.5,0,2.3c0,0.6-0.4,1-0.9,1s-1-0.4-1-1c0-0.3,0-0.7,0-1
				C551.2,70.9,551.2,70.5,551.2,70z"/>
			<path class="st2" d="M527.8,94.2c0.2,0.4,0.3,0.9,0.5,1.3c0.5,1,1.4,1.6,2.5,1.8c0.1,0,0.1,0,0.2,0.1c-1.1,0-2.1,0-3.2,0
				C527.8,96.3,527.8,95.2,527.8,94.2z"/>
			<path class="st2" d="M556.7,97.3c0.4-0.2,0.9-0.3,1.3-0.5c1-0.5,1.6-1.4,1.8-2.5c0-0.1,0-0.1,0.1-0.2c0,1.1,0,2.1,0,3.2
				C558.8,97.3,557.7,97.3,556.7,97.3z"/>
		</g>
		<g class="st1">
			<path class="st0" d="M576.1,91.7V84l-1.8,1.8l-1.3-1.4l3.3-3.4h2v10.6L576.1,91.7L576.1,91.7z"/>
			<path class="st0" d="M582.7,91.7V84l-1.8,1.8l-1.3-1.4l3.3-3.4h2v10.6L582.7,91.7L582.7,91.7z"/>
		</g>
		<g>
			<path class="st2" d="M563.5,94.2c0-7.6,0-15.3,0-22.9c0,0,0-0.1,0.1-0.1c0.4-1.9,1.8-3.1,3.8-3.1c0.7,0,1.5,0,2.2,0
				c0.2,0,0.4,0,0.7,0c0-0.5,0-1,0-1.4c0-0.6,0.2-1,0.8-1.2c0.2,0,0.3,0,0.5,0c0.6,0.3,0.8,0.7,0.7,1.3c0,0.4,0,0.9,0,1.3
				c4.9,0,9.8,0,14.7,0c0-0.5,0-0.9,0-1.3c0-0.6,0.2-1.1,0.7-1.3c0.2,0,0.3,0,0.5,0c0.6,0.2,0.8,0.6,0.8,1.2c0,0.5,0,0.9,0,1.4
				c0.2,0,0.3,0,0.4,0c0.9,0,1.8,0,2.8,0c1.4,0.1,2.5,0.8,3.2,2c0.2,0.4,0.3,0.8,0.4,1.1c0,7.6,0,15.3,0,22.9c0,0.1,0,0.1-0.1,0.2
				c-0.2,1.1-0.8,2-1.8,2.5c-0.4,0.2-0.9,0.3-1.3,0.5c-8.5,0-17.1,0-25.6,0c-0.1,0-0.1,0-0.2-0.1c-1.1-0.2-2-0.8-2.5-1.8
				C563.7,95.1,563.6,94.6,563.5,94.2z M565.5,78c0,0.1,0,0.2,0,0.3c0,5,0,10.1,0,15.1c0,1.2,0.7,1.8,1.8,1.8c8.1,0,16.2,0,24.3,0
				c1.1,0,1.8-0.7,1.8-1.8c0-5.1,0-10.1,0-15.2c0-0.1,0-0.2,0-0.3C584.1,78,574.8,78,565.5,78z M586.8,70c-4.9,0-9.8,0-14.6,0
				c0,0.1,0,0.2,0,0.3c0,0.7,0,1.3,0,2c0,0.6-0.5,1-1,1c-0.6,0-1-0.4-1-1c0-0.5,0-0.9,0-1.4c0-0.3,0-0.6,0-0.9c-1,0-2,0-2.9,0
				c-1.1,0-1.8,0.7-1.8,1.8c0,1.3,0,2.6,0,3.9c0,0.1,0,0.2,0,0.3c9.3,0,18.7,0,28,0c0-1.4,0-2.8,0-4.2c0-1.1-0.7-1.8-1.8-1.8
				c-0.9,0-1.7,0-2.6,0c-0.1,0-0.2,0-0.3,0c0,0.8,0,1.5,0,2.3c0,0.6-0.4,1-0.9,1s-1-0.4-1-1c0-0.3,0-0.7,0-1
				C586.8,70.9,586.8,70.5,586.8,70z"/>
			<path class="st2" d="M563.5,94.2c0.2,0.4,0.3,0.9,0.5,1.3c0.5,1,1.4,1.6,2.5,1.8c0.1,0,0.1,0,0.2,0.1c-1.1,0-2.1,0-3.2,0
				C563.5,96.3,563.5,95.2,563.5,94.2z"/>
			<path class="st2" d="M592.3,97.3c0.4-0.2,0.9-0.3,1.3-0.5c1-0.5,1.6-1.4,1.8-2.5c0-0.1,0-0.1,0.1-0.2c0,1.1,0,2.1,0,3.2
				C594.4,97.3,593.3,97.3,592.3,97.3z"/>
		</g>
		<g class="st1">
			<path class="st0" d="M610.2,91.7V84l-1.8,1.8l-1.3-1.4l3.3-3.4h2v10.6L610.2,91.7L610.2,91.7z"/>
			<path class="st0" d="M614.3,91.7v-1.8c4.3-3.2,5.6-4.3,5.6-5.6c0-0.9-0.8-1.4-1.7-1.4c-1.2,0-2.1,0.5-2.9,1.2l-1.3-1.5
				c1-1.2,2.6-1.7,4.1-1.7c2.3,0,4.1,1.3,4.1,3.4c0,1.8-1.5,3.4-4.3,5.4h4.3v2H614.3z"/>
		</g>
		<g>
			<path class="st2" d="M599.1,94.2c0-7.6,0-15.3,0-22.9c0,0,0-0.1,0.1-0.1c0.4-1.9,1.8-3.1,3.8-3.1c0.7,0,1.5,0,2.2,0
				c0.2,0,0.4,0,0.7,0c0-0.5,0-1,0-1.4c0-0.6,0.2-1,0.8-1.2c0.2,0,0.3,0,0.5,0c0.6,0.3,0.8,0.7,0.7,1.3c0,0.4,0,0.9,0,1.3
				c4.9,0,9.8,0,14.7,0c0-0.5,0-0.9,0-1.3c0-0.6,0.2-1.1,0.7-1.3c0.2,0,0.3,0,0.5,0c0.6,0.2,0.8,0.6,0.8,1.2c0,0.5,0,0.9,0,1.4
				c0.2,0,0.3,0,0.4,0c0.9,0,1.8,0,2.8,0c1.4,0.1,2.5,0.8,3.2,2c0.2,0.4,0.3,0.8,0.4,1.1c0,7.6,0,15.3,0,22.9c0,0.1,0,0.1-0.1,0.2
				c-0.2,1.1-0.8,2-1.8,2.5c-0.4,0.2-0.9,0.3-1.3,0.5c-8.5,0-17.1,0-25.6,0c-0.1,0-0.1,0-0.2-0.1c-1.1-0.2-2-0.8-2.5-1.8
				C599.3,95.1,599.2,94.6,599.1,94.2z M601.1,78c0,0.1,0,0.2,0,0.3c0,5,0,10.1,0,15.1c0,1.2,0.7,1.8,1.8,1.8c8.1,0,16.2,0,24.3,0
				c1.1,0,1.8-0.7,1.8-1.8c0-5.1,0-10.1,0-15.2c0-0.1,0-0.2,0-0.3C619.7,78,610.4,78,601.1,78z M622.4,70c-4.9,0-9.8,0-14.6,0
				c0,0.1,0,0.2,0,0.3c0,0.7,0,1.3,0,2c0,0.6-0.5,1-1,1c-0.6,0-1-0.4-1-1c0-0.5,0-0.9,0-1.4c0-0.3,0-0.6,0-0.9c-1,0-2,0-2.9,0
				c-1.1,0-1.8,0.7-1.8,1.8c0,1.3,0,2.6,0,3.9c0,0.1,0,0.2,0,0.3c9.3,0,18.7,0,28,0c0-1.4,0-2.8,0-4.2c0-1.1-0.7-1.8-1.8-1.8
				c-0.9,0-1.7,0-2.6,0c-0.1,0-0.2,0-0.3,0c0,0.8,0,1.5,0,2.3c0,0.6-0.4,1-0.9,1s-1-0.4-1-1c0-0.3,0-0.7,0-1
				C622.4,70.9,622.4,70.5,622.4,70z"/>
			<path class="st2" d="M599.1,94.2c0.2,0.4,0.3,0.9,0.5,1.3c0.5,1,1.4,1.6,2.5,1.8c0.1,0,0.1,0,0.2,0.1c-1.1,0-2.1,0-3.2,0
				C599.1,96.3,599.1,95.2,599.1,94.2z"/>
			<path class="st2" d="M627.9,97.3c0.4-0.2,0.9-0.3,1.3-0.5c1-0.5,1.6-1.4,1.8-2.5c0-0.1,0-0.1,0.1-0.2c0,1.1,0,2.1,0,3.2
				C630,97.3,628.9,97.3,627.9,97.3z"/>
		</g>
	</g>
	<g>
		<g class="st1">
			<path class="st0" d="M672.7,91.7V84l-1.8,1.8l-1.3-1.4l3.3-3.4h2v10.6L672.7,91.7L672.7,91.7z"/>
			<path class="st0" d="M676.3,90.2l1.2-1.5c0.7,0.8,1.9,1.2,2.9,1.2c1.3,0,2-0.6,2-1.4s-0.7-1.2-2.1-1.2c-0.4,0-1.2,0-1.3,0v-2
				c0.2,0,0.9,0,1.3,0c1.2,0,2-0.4,2-1.1c0-0.8-0.9-1.3-2-1.3c-1,0-2,0.4-2.7,1.1l-1.1-1.4c0.9-1,2.2-1.7,4.1-1.7c2.5,0,4,1.1,4,2.9
				c0,1.3-1.1,2.2-2.3,2.4c1.1,0.1,2.5,1,2.5,2.5c0,1.8-1.6,3.1-4.2,3.1C678.6,91.9,677.1,91.1,676.3,90.2z"/>
		</g>
		<g>
			<path class="st2" d="M661.4,94.2c0-7.6,0-15.3,0-22.9c0,0,0-0.1,0.1-0.1c0.4-1.9,1.8-3.1,3.8-3.1c0.7,0,1.5,0,2.2,0
				c0.2,0,0.4,0,0.7,0c0-0.5,0-1,0-1.4c0-0.6,0.2-1,0.8-1.2c0.2,0,0.3,0,0.5,0c0.6,0.3,0.8,0.7,0.7,1.3c0,0.4,0,0.9,0,1.3
				c4.9,0,9.8,0,14.7,0c0-0.5,0-0.9,0-1.3c0-0.6,0.2-1.1,0.7-1.3c0.2,0,0.3,0,0.5,0c0.6,0.2,0.8,0.6,0.8,1.2c0,0.5,0,0.9,0,1.4
				c0.2,0,0.3,0,0.4,0c0.9,0,1.8,0,2.8,0c1.4,0.1,2.5,0.8,3.2,2c0.2,0.4,0.3,0.8,0.4,1.1c0,7.6,0,15.3,0,22.9c0,0.1,0,0.1-0.1,0.2
				c-0.2,1.1-0.8,2-1.8,2.5c-0.4,0.2-0.9,0.3-1.3,0.5c-8.5,0-17.1,0-25.6,0c-0.1,0-0.1,0-0.2-0.1c-1.1-0.2-2-0.8-2.5-1.8
				C661.7,95.1,661.6,94.6,661.4,94.2z M663.4,78c0,0.1,0,0.2,0,0.3c0,5,0,10.1,0,15.1c0,1.2,0.7,1.8,1.8,1.8c8.1,0,16.2,0,24.3,0
				c1.1,0,1.8-0.7,1.8-1.8c0-5.1,0-10.1,0-15.2c0-0.1,0-0.2,0-0.3C682.1,78,672.8,78,663.4,78z M684.8,70c-4.9,0-9.8,0-14.6,0
				c0,0.1,0,0.2,0,0.3c0,0.7,0,1.3,0,2c0,0.6-0.5,1-1,1c-0.6,0-1-0.4-1-1c0-0.5,0-0.9,0-1.4c0-0.3,0-0.6,0-0.9c-1,0-2,0-2.9,0
				c-1.1,0-1.8,0.7-1.8,1.8c0,1.3,0,2.6,0,3.9c0,0.1,0,0.2,0,0.3c9.3,0,18.7,0,28,0c0-1.4,0-2.8,0-4.2c0-1.1-0.7-1.8-1.8-1.8
				c-0.9,0-1.7,0-2.6,0c-0.1,0-0.2,0-0.3,0c0,0.8,0,1.5,0,2.3c0,0.6-0.4,1-0.9,1s-1-0.4-1-1c0-0.3,0-0.7,0-1
				C684.8,70.9,684.8,70.5,684.8,70z"/>
			<path class="st2" d="M661.4,94.2c0.2,0.4,0.3,0.9,0.5,1.3c0.5,1,1.4,1.6,2.5,1.8c0.1,0,0.1,0,0.2,0.1c-1.1,0-2.1,0-3.2,0
				C661.4,96.3,661.4,95.2,661.4,94.2z"/>
			<path class="st2" d="M690.2,97.3c0.4-0.2,0.9-0.3,1.3-0.5c1-0.5,1.6-1.4,1.8-2.5c0-0.1,0-0.1,0.1-0.2c0,1.1,0,2.1,0,3.2
				C692.4,97.3,691.3,97.3,690.2,97.3z"/>
		</g>
		<g class="st1">
			<path class="st0" d="M708.2,91.7V84l-1.8,1.8l-1.3-1.4l3.3-3.4h2v10.6L708.2,91.7L708.2,91.7z"/>
			<path class="st0" d="M717,91.7v-2.2h-5v-1.8l4.2-6.6h3.1v6.4h1.4v2h-1.4v2.2H717z M717,83.1l-2.9,4.4h2.9V83.1z"/>
		</g>
		<g>
			<path class="st2" d="M697,94.2c0-7.6,0-15.3,0-22.9c0,0,0-0.1,0.1-0.1c0.4-1.9,1.8-3.1,3.8-3.1c0.7,0,1.5,0,2.2,0
				c0.2,0,0.4,0,0.7,0c0-0.5,0-1,0-1.4c0-0.6,0.2-1,0.8-1.2c0.2,0,0.3,0,0.5,0c0.6,0.3,0.8,0.7,0.7,1.3c0,0.4,0,0.9,0,1.3
				c4.9,0,9.8,0,14.7,0c0-0.5,0-0.9,0-1.3c0-0.6,0.2-1.1,0.7-1.3c0.2,0,0.3,0,0.5,0c0.6,0.2,0.8,0.6,0.8,1.2c0,0.5,0,0.9,0,1.4
				c0.2,0,0.3,0,0.4,0c0.9,0,1.8,0,2.7,0c1.4,0.1,2.5,0.8,3.2,2c0.2,0.4,0.3,0.8,0.4,1.1c0,7.6,0,15.3,0,22.9c0,0.1,0,0.1-0.1,0.2
				c-0.2,1.1-0.8,2-1.8,2.5c-0.4,0.2-0.9,0.3-1.3,0.5c-8.5,0-17.1,0-25.6,0c-0.1,0-0.1,0-0.2-0.1c-1.1-0.2-2-0.8-2.5-1.8
				C697.3,95.1,697.2,94.6,697,94.2z M699,78c0,0.1,0,0.2,0,0.3c0,5,0,10.1,0,15.1c0,1.2,0.7,1.8,1.8,1.8c8.1,0,16.2,0,24.3,0
				c1.1,0,1.8-0.7,1.8-1.8c0-5.1,0-10.1,0-15.2c0-0.1,0-0.2,0-0.3C717.7,78,708.4,78,699,78z M720.4,70c-4.9,0-9.8,0-14.6,0
				c0,0.1,0,0.2,0,0.3c0,0.7,0,1.3,0,2c0,0.6-0.5,1-1,1c-0.6,0-1-0.4-1-1c0-0.5,0-0.9,0-1.4c0-0.3,0-0.6,0-0.9c-1,0-2,0-2.9,0
				c-1.1,0-1.8,0.7-1.8,1.8c0,1.3,0,2.6,0,3.9c0,0.1,0,0.2,0,0.3c9.3,0,18.7,0,28,0c0-1.4,0-2.8,0-4.2c0-1.1-0.7-1.8-1.8-1.8
				c-0.9,0-1.7,0-2.6,0c-0.1,0-0.2,0-0.3,0c0,0.8,0,1.5,0,2.3c0,0.6-0.4,1-0.9,1s-1-0.4-1-1c0-0.3,0-0.7,0-1
				C720.4,70.9,720.4,70.5,720.4,70z"/>
			<path class="st2" d="M697,94.2c0.2,0.4,0.3,0.9,0.5,1.3c0.5,1,1.4,1.6,2.5,1.8c0.1,0,0.1,0,0.2,0.1c-1.1,0-2.1,0-3.2,0
				C697,96.3,697,95.2,697,94.2z"/>
			<path class="st2" d="M725.9,97.3c0.4-0.2,0.9-0.3,1.3-0.5c1-0.5,1.6-1.4,1.8-2.5c0-0.1,0-0.1,0.1-0.2c0,1.1,0,2.1,0,3.2
				C728,97.3,726.9,97.3,725.9,97.3z"/>
		</g>
		<g class="st1">
			<path class="st0" d="M743.8,91.7V84l-1.8,1.8l-1.3-1.4L744,81h2v10.6L743.8,91.7L743.8,91.7z"/>
			<path class="st0" d="M747.9,90.3l1.3-1.6c0.7,0.7,1.7,1.2,2.8,1.2c1.3,0,2-0.7,2-1.6s-0.7-1.6-1.9-1.6c-0.9,0-1.6,0.3-2.2,0.9
				l-1.6-0.4v-6.1h7.3v2h-5v2.6c0.5-0.5,1.4-0.9,2.3-0.9c1.8,0,3.4,1.3,3.4,3.4c0,2.2-1.7,3.7-4.3,3.7
				C750.1,91.9,748.8,91.3,747.9,90.3z"/>
		</g>
		<g>
			<path class="st2" d="M732.6,94.2c0-7.6,0-15.3,0-22.9c0,0,0-0.1,0.1-0.1c0.4-1.9,1.8-3.1,3.8-3.1c0.7,0,1.5,0,2.2,0
				c0.2,0,0.4,0,0.7,0c0-0.5,0-1,0-1.4c0-0.6,0.2-1,0.8-1.2c0.2,0,0.3,0,0.5,0c0.6,0.3,0.8,0.7,0.7,1.3c0,0.4,0,0.9,0,1.3
				c4.9,0,9.8,0,14.7,0c0-0.5,0-0.9,0-1.3c0-0.6,0.2-1.1,0.7-1.3c0.2,0,0.3,0,0.5,0c0.6,0.2,0.8,0.6,0.8,1.2c0,0.5,0,0.9,0,1.4
				c0.2,0,0.3,0,0.4,0c0.9,0,1.8,0,2.8,0c1.4,0.1,2.5,0.8,3.2,2c0.2,0.4,0.3,0.8,0.4,1.1c0,7.6,0,15.3,0,22.9c0,0.1,0,0.1-0.1,0.2
				c-0.2,1.1-0.8,2-1.8,2.5c-0.4,0.2-0.9,0.3-1.3,0.5c-8.5,0-17.1,0-25.6,0c-0.1,0-0.1,0-0.2-0.1c-1.1-0.2-2-0.8-2.5-1.8
				C732.9,95.1,732.8,94.6,732.6,94.2z M734.6,78c0,0.1,0,0.2,0,0.3c0,5,0,10.1,0,15.1c0,1.2,0.7,1.8,1.8,1.8c8.1,0,16.2,0,24.3,0
				c1.1,0,1.8-0.7,1.8-1.8c0-5.1,0-10.1,0-15.2c0-0.1,0-0.2,0-0.3C753.3,78,744,78,734.6,78z M756,70c-4.9,0-9.8,0-14.6,0
				c0,0.1,0,0.2,0,0.3c0,0.7,0,1.3,0,2c0,0.6-0.5,1-1,1c-0.6,0-1-0.4-1-1c0-0.5,0-0.9,0-1.4c0-0.3,0-0.6,0-0.9c-1,0-2,0-2.9,0
				c-1.1,0-1.8,0.7-1.8,1.8c0,1.3,0,2.6,0,3.9c0,0.1,0,0.2,0,0.3c9.3,0,18.7,0,28,0c0-1.4,0-2.8,0-4.2c0-1.1-0.7-1.8-1.8-1.8
				c-0.9,0-1.7,0-2.6,0c-0.1,0-0.2,0-0.3,0c0,0.8,0,1.5,0,2.3c0,0.6-0.4,1-0.9,1s-1-0.4-1-1c0-0.3,0-0.7,0-1
				C756,70.9,756,70.5,756,70z"/>
			<path class="st2" d="M732.6,94.2c0.2,0.4,0.3,0.9,0.5,1.3c0.5,1,1.4,1.6,2.5,1.8c0.1,0,0.1,0,0.2,0.1c-1.1,0-2.1,0-3.2,0
				C732.6,96.3,732.6,95.2,732.6,94.2z"/>
			<path class="st2" d="M761.5,97.3c0.4-0.2,0.9-0.3,1.3-0.5c1-0.5,1.6-1.4,1.8-2.5c0-0.1,0-0.1,0.1-0.2c0,1.1,0,2.1,0,3.2
				C763.6,97.3,762.5,97.3,761.5,97.3z"/>
		</g>
	</g>
	<g>
		<g class="st1">
			<path class="st0" d="M174,143.1c0-3.6,1.8-7.2,5.8-7.2s5.8,3.6,5.8,7.2c0,3.6-1.8,7.2-5.8,7.2S174,146.7,174,143.1z M182.5,143.1
				c0-2.6-0.7-4.6-2.7-4.6s-2.7,2-2.7,4.6c0,2.6,0.8,4.6,2.7,4.6S182.5,145.7,182.5,143.1z"/>
		</g>
		<g>
			<path class="st2" d="M165.4,136.8c0.2,0.1,0.3,0.2,0.4,0.3c0.8,1.2,1.7,2.5,2.5,3.7c0.6,0.9,1.1,1.8,1.5,2.8
				c0.3,0.7,0.5,1.4,0.4,2.2c-0.2,1.4-0.8,2.4-1.9,3.3c-0.7,0.6-1.5,0.9-2.4,1c-1,0.1-2-0.1-2.9-0.6s-1.6-1.3-2-2.2
				c-0.4-1-0.5-2.1-0.2-3.1c0.3-0.8,0.6-1.5,1.1-2.3c0.8-1.4,1.7-2.8,2.6-4.1c0.1-0.2,0.3-0.4,0.4-0.6S165.1,136.9,165.4,136.8
				C165.3,136.8,165.4,136.8,165.4,136.8z M165.3,138.2L165.3,138.2c-0.7,1.1-1.4,2.2-2.1,3.2c-0.5,0.8-1,1.7-1.4,2.6
				c-0.3,0.7-0.4,1.3-0.3,2.1c0.2,1,0.6,1.8,1.4,2.4c0.8,0.6,1.7,0.9,2.7,0.8c0.7-0.1,1.3-0.3,1.9-0.7c0.8-0.6,1.3-1.4,1.6-2.4
				c0.1-0.4,0.1-0.8,0-1.2c-0.1-0.7-0.4-1.3-0.7-1.9c-0.5-1.1-1.2-2.1-1.9-3.1C166.2,139.4,165.8,138.8,165.3,138.2z"/>
			<path class="st2" d="M168.6,145.6c-0.1,1.2-0.6,2.1-1.6,2.6c-0.2,0.1-0.5,0.1-0.6-0.1c-0.1-0.2-0.1-0.4,0-0.6l0.1-0.1
				c0.7-0.4,1.1-1.1,1.2-1.9c0-0.2,0.2-0.4,0.3-0.4c0.2,0,0.4,0,0.5,0.2C168.6,145.4,168.6,145.5,168.6,145.6z"/>
		</g>
		<g class="st1">
			<path class="st0" d="M174.5,217.3V215c5.7-4.2,7.4-5.6,7.4-7.4c0-1.2-1.1-1.8-2.3-1.8c-1.6,0-2.8,0.6-3.7,1.6l-1.7-2
				c1.4-1.6,3.4-2.3,5.4-2.3c3,0,5.3,1.7,5.3,4.5c0,2.4-2,4.5-5.6,7.1h5.7v2.6L174.5,217.3L174.5,217.3z"/>
		</g>
		<g>
			<path class="st2" d="M165.4,204c0.2,0.1,0.3,0.2,0.4,0.3c0.8,1.2,1.7,2.5,2.5,3.7c0.6,0.9,1.1,1.8,1.5,2.8
				c0.3,0.7,0.5,1.4,0.4,2.2c-0.2,1.4-0.8,2.4-1.9,3.3c-0.7,0.6-1.5,0.9-2.4,1c-1,0.1-2-0.1-2.9-0.6s-1.6-1.3-2-2.2
				c-0.4-1-0.5-2.1-0.2-3.1c0.3-0.8,0.6-1.5,1.1-2.3c0.8-1.4,1.7-2.8,2.6-4.1c0.1-0.2,0.3-0.4,0.4-0.6
				C165,204.2,165.1,204.1,165.4,204C165.3,204,165.4,204,165.4,204z M165.3,205.3C165.3,205.4,165.3,205.4,165.3,205.3
				c-0.7,1.1-1.4,2.2-2.1,3.2c-0.5,0.8-1,1.7-1.4,2.6c-0.3,0.7-0.4,1.3-0.3,2.1c0.2,1,0.6,1.8,1.4,2.4c0.8,0.6,1.7,0.9,2.7,0.8
				c0.7-0.1,1.3-0.3,1.9-0.7c0.8-0.6,1.3-1.4,1.6-2.4c0.1-0.4,0.1-0.8,0-1.2c-0.1-0.7-0.4-1.3-0.7-1.9c-0.5-1.1-1.2-2.1-1.9-3.1
				C166.2,206.6,165.8,206,165.3,205.3z"/>
			<path class="st2" d="M168.6,212.8c-0.1,1.2-0.6,2.1-1.6,2.6c-0.2,0.1-0.5,0.1-0.6-0.1c-0.1-0.2-0.1-0.4,0-0.6l0.1-0.1
				c0.7-0.4,1.1-1.1,1.2-1.9c0-0.2,0.2-0.4,0.3-0.4c0.2,0,0.4,0,0.5,0.2C168.6,212.6,168.6,212.7,168.6,212.8z"/>
		</g>
	</g>
	<g>
		<g class="st1">
			<path class="st0" d="M308.2,150.1v-2.3c5.7-4.2,7.4-5.6,7.4-7.4c0-1.2-1.1-1.8-2.3-1.8c-1.6,0-2.8,0.6-3.7,1.6l-1.7-2
				c1.4-1.6,3.4-2.3,5.4-2.3c3,0,5.3,1.7,5.3,4.5c0,2.4-2,4.5-5.6,7.1h5.7v2.6H308.2z"/>
		</g>
		<g>
			<path class="st2" d="M299.2,136.8c0.2,0.1,0.3,0.2,0.4,0.3c0.8,1.2,1.7,2.5,2.5,3.7c0.6,0.9,1.1,1.8,1.5,2.8
				c0.3,0.7,0.5,1.4,0.4,2.2c-0.2,1.4-0.8,2.4-1.9,3.3c-0.7,0.6-1.5,0.9-2.4,1c-1,0.1-2-0.1-2.9-0.6s-1.6-1.3-2-2.2
				c-0.4-1-0.5-2.1-0.2-3.1c0.3-0.8,0.6-1.5,1.1-2.3c0.8-1.4,1.7-2.8,2.6-4.1c0.1-0.2,0.3-0.4,0.4-0.6s0.2-0.3,0.4-0.4
				C299.1,136.8,299.1,136.8,299.2,136.8z M299.1,138.2C299.1,138.2,299,138.2,299.1,138.2c-0.7,1.1-1.4,2.2-2.1,3.2
				c-0.5,0.8-1,1.7-1.4,2.6c-0.3,0.7-0.4,1.3-0.3,2.1c0.2,1,0.6,1.8,1.4,2.4c0.8,0.6,1.7,0.9,2.7,0.8c0.7-0.1,1.3-0.3,1.9-0.7
				c0.8-0.6,1.3-1.4,1.6-2.4c0.1-0.4,0.1-0.8,0-1.2c-0.1-0.7-0.4-1.3-0.7-1.9c-0.5-1.1-1.2-2.1-1.9-3.1
				C299.9,139.4,299.5,138.8,299.1,138.2z"/>
			<path class="st2" d="M302.3,145.6c-0.1,1.2-0.6,2.1-1.6,2.6c-0.2,0.1-0.5,0.1-0.6-0.1c-0.1-0.2-0.1-0.4,0-0.6l0.1-0.1
				c0.7-0.4,1.1-1.1,1.2-1.9c0-0.2,0.2-0.4,0.3-0.4c0.2,0,0.4,0,0.5,0.2C302.3,145.4,302.3,145.5,302.3,145.6z"/>
		</g>
		<g class="st1">
			<path class="st0" d="M308.2,217.3V215c5.7-4.2,7.4-5.6,7.4-7.4c0-1.2-1.1-1.8-2.3-1.8c-1.6,0-2.8,0.6-3.7,1.6l-1.7-2
				c1.4-1.6,3.4-2.3,5.4-2.3c3,0,5.3,1.7,5.3,4.5c0,2.4-2,4.5-5.6,7.1h5.7v2.6L308.2,217.3L308.2,217.3z"/>
		</g>
		<g>
			<path class="st2" d="M299.2,204c0.2,0.1,0.3,0.2,0.4,0.3c0.8,1.2,1.7,2.5,2.5,3.7c0.6,0.9,1.1,1.8,1.5,2.8
				c0.3,0.7,0.5,1.4,0.4,2.2c-0.2,1.4-0.8,2.4-1.9,3.3c-0.7,0.6-1.5,0.9-2.4,1c-1,0.1-2-0.1-2.9-0.6s-1.6-1.3-2-2.2
				c-0.4-1-0.5-2.1-0.2-3.1c0.3-0.8,0.6-1.5,1.1-2.3c0.8-1.4,1.7-2.8,2.6-4.1c0.1-0.2,0.3-0.4,0.4-0.6c0.1-0.2,0.2-0.3,0.4-0.4
				C299.1,204,299.1,204,299.2,204z M299.1,205.3C299.1,205.4,299,205.4,299.1,205.3c-0.7,1.1-1.4,2.2-2.1,3.2
				c-0.5,0.8-1,1.7-1.4,2.6c-0.3,0.7-0.4,1.3-0.3,2.1c0.2,1,0.6,1.8,1.4,2.4c0.8,0.6,1.7,0.9,2.7,0.8c0.7-0.1,1.3-0.3,1.9-0.7
				c0.8-0.6,1.3-1.4,1.6-2.4c0.1-0.4,0.1-0.8,0-1.2c-0.1-0.7-0.4-1.3-0.7-1.9c-0.5-1.1-1.2-2.1-1.9-3.1
				C299.9,206.6,299.5,206,299.1,205.3z"/>
			<path class="st2" d="M302.3,212.8c-0.1,1.2-0.6,2.1-1.6,2.6c-0.2,0.1-0.5,0.1-0.6-0.1c-0.1-0.2-0.1-0.4,0-0.6l0.1-0.1
				c0.7-0.4,1.1-1.1,1.2-1.9c0-0.2,0.2-0.4,0.3-0.4c0.2,0,0.4,0,0.5,0.2C302.3,212.6,302.3,212.7,302.3,212.8z"/>
		</g>
	</g>
	<g>
		<g class="st1">
			<path class="st0" d="M441.7,150.1v-2.3c5.7-4.2,7.4-5.6,7.4-7.4c0-1.2-1.1-1.8-2.3-1.8c-1.6,0-2.8,0.6-3.7,1.6l-1.7-2
				c1.4-1.6,3.4-2.3,5.4-2.3c3,0,5.3,1.7,5.3,4.5c0,2.4-2,4.5-5.6,7.1h5.7v2.6H441.7z"/>
		</g>
		<g>
			<path class="st2" d="M432.7,136.8c0.2,0.1,0.3,0.2,0.4,0.3c0.8,1.2,1.7,2.5,2.5,3.7c0.6,0.9,1.1,1.8,1.5,2.8
				c0.3,0.7,0.5,1.4,0.4,2.2c-0.2,1.4-0.8,2.4-1.9,3.3c-0.7,0.6-1.5,0.9-2.4,1c-1,0.1-2-0.1-2.9-0.6s-1.6-1.3-2-2.2
				c-0.4-1-0.5-2.1-0.2-3.1c0.3-0.8,0.6-1.5,1.1-2.3c0.8-1.4,1.7-2.8,2.6-4.1c0.1-0.2,0.3-0.4,0.4-0.6s0.2-0.3,0.4-0.4
				C432.6,136.8,432.7,136.8,432.7,136.8z M432.6,138.2L432.6,138.2c-0.7,1.1-1.4,2.2-2.1,3.2c-0.5,0.8-1,1.7-1.4,2.6
				c-0.3,0.7-0.4,1.3-0.3,2.1c0.2,1,0.6,1.8,1.4,2.4c0.8,0.6,1.7,0.9,2.7,0.8c0.7-0.1,1.3-0.3,1.9-0.7c0.8-0.6,1.3-1.4,1.6-2.4
				c0.1-0.4,0.1-0.8,0-1.2c-0.1-0.7-0.4-1.3-0.7-1.9c-0.5-1.1-1.2-2.1-1.9-3.1C433.5,139.4,433,138.8,432.6,138.2z"/>
			<path class="st2" d="M435.9,145.6c-0.1,1.2-0.6,2.1-1.6,2.6c-0.2,0.1-0.5,0.1-0.6-0.1c-0.1-0.2-0.1-0.4,0-0.6l0.1-0.1
				c0.7-0.4,1.1-1.1,1.2-1.9c0-0.2,0.2-0.4,0.3-0.4c0.2,0,0.4,0,0.5,0.2C435.8,145.4,435.9,145.5,435.9,145.6z"/>
		</g>
		<g class="st1">
			<path class="st0" d="M448,217.3v-2.9h-6.7v-2.3l5.5-8.7h4.1v8.5h1.8v2.6H451v2.9h-3V217.3z M448,206l-3.8,5.8h3.8V206z"/>
		</g>
		<g>
			<path class="st2" d="M432.7,204c0.2,0.1,0.3,0.2,0.4,0.3c0.8,1.2,1.7,2.5,2.5,3.7c0.6,0.9,1.1,1.8,1.5,2.8
				c0.3,0.7,0.5,1.4,0.4,2.2c-0.2,1.4-0.8,2.4-1.9,3.3c-0.7,0.6-1.5,0.9-2.4,1c-1,0.1-2-0.1-2.9-0.6s-1.6-1.3-2-2.2
				c-0.4-1-0.5-2.1-0.2-3.1c0.3-0.8,0.6-1.5,1.1-2.3c0.8-1.4,1.7-2.8,2.6-4.1c0.1-0.2,0.3-0.4,0.4-0.6c0.1-0.2,0.2-0.3,0.4-0.4
				C432.6,204,432.7,204,432.7,204z M432.6,205.3C432.6,205.4,432.6,205.4,432.6,205.3c-0.7,1.1-1.4,2.2-2.1,3.2
				c-0.5,0.8-1,1.7-1.4,2.6c-0.3,0.7-0.4,1.3-0.3,2.1c0.2,1,0.6,1.8,1.4,2.4c0.8,0.6,1.7,0.9,2.7,0.8c0.7-0.1,1.3-0.3,1.9-0.7
				c0.8-0.6,1.3-1.4,1.6-2.4c0.1-0.4,0.1-0.8,0-1.2c-0.1-0.7-0.4-1.3-0.7-1.9c-0.5-1.1-1.2-2.1-1.9-3.1
				C433.5,206.6,433,206,432.6,205.3z"/>
			<path class="st2" d="M435.9,212.8c-0.1,1.2-0.6,2.1-1.6,2.6c-0.2,0.1-0.5,0.1-0.6-0.1c-0.1-0.2-0.1-0.4,0-0.6l0.1-0.1
				c0.7-0.4,1.1-1.1,1.2-1.9c0-0.2,0.2-0.4,0.3-0.4c0.2,0,0.4,0,0.5,0.2C435.8,212.6,435.9,212.7,435.9,212.8z"/>
		</g>
	</g>
	<g class="st1">
		<path class="st0" d="M581.5,217.3v-2.9h-6.7v-2.3l5.5-8.7h4.1v8.5h1.8v2.6h-1.8v2.9h-2.9V217.3z M581.5,206l-3.8,5.8h3.8V206z"/>
	</g>
	<g>
		<path class="st2" d="M566.3,204c0.2,0.1,0.3,0.2,0.4,0.3c0.8,1.2,1.7,2.5,2.5,3.7c0.6,0.9,1.1,1.8,1.5,2.8
			c0.3,0.7,0.5,1.4,0.4,2.2c-0.2,1.4-0.8,2.4-1.9,3.3c-0.7,0.6-1.5,0.9-2.4,1c-1,0.1-2-0.1-2.9-0.6s-1.6-1.3-2-2.2
			c-0.4-1-0.5-2.1-0.2-3.1c0.3-0.8,0.6-1.5,1.1-2.3c0.8-1.4,1.7-2.8,2.6-4.1c0.1-0.2,0.3-0.4,0.4-0.6c0.1-0.2,0.2-0.3,0.4-0.4
			C566.1,204,566.2,204,566.3,204z M566.2,205.3C566.1,205.4,566.1,205.4,566.2,205.3c-0.7,1.1-1.4,2.2-2.1,3.2
			c-0.5,0.8-1,1.7-1.4,2.6c-0.3,0.7-0.4,1.3-0.3,2.1c0.2,1,0.6,1.8,1.4,2.4c0.8,0.6,1.7,0.9,2.7,0.8c0.7-0.1,1.3-0.3,1.9-0.7
			c0.8-0.6,1.3-1.4,1.6-2.4c0.1-0.4,0.1-0.8,0-1.2c-0.1-0.7-0.4-1.3-0.7-1.9c-0.5-1.1-1.2-2.1-1.9-3.1
			C567,206.6,566.6,206,566.2,205.3z"/>
		<path class="st2" d="M569.4,212.8c-0.1,1.2-0.6,2.1-1.6,2.6c-0.2,0.1-0.5,0.1-0.6-0.1c-0.1-0.2-0.1-0.4,0-0.6l0.1-0.1
			c0.7-0.4,1.1-1.1,1.2-1.9c0-0.2,0.2-0.4,0.3-0.4c0.2,0,0.4,0,0.5,0.2C569.4,212.6,569.4,212.7,569.4,212.8z"/>
	</g>
	<g class="st1">
		<path class="st0" d="M581.5,149.7v-2.9h-6.7v-2.3l5.5-8.7h4.1v8.5h1.8v2.6h-1.8v2.9h-2.9V149.7z M581.5,138.4l-3.8,5.8h3.8V138.4z
			"/>
	</g>
	<g>
		<path class="st2" d="M566.3,136.8c0.2,0.1,0.3,0.2,0.4,0.3c0.8,1.2,1.7,2.5,2.5,3.7c0.6,0.9,1.1,1.8,1.5,2.8
			c0.3,0.7,0.5,1.4,0.4,2.2c-0.2,1.4-0.8,2.4-1.9,3.3c-0.7,0.6-1.5,0.9-2.4,1c-1,0.1-2-0.1-2.9-0.6s-1.6-1.3-2-2.2
			c-0.4-1-0.5-2.1-0.2-3.1c0.3-0.8,0.6-1.5,1.1-2.3c0.8-1.4,1.7-2.8,2.6-4.1c0.1-0.2,0.3-0.4,0.4-0.6c0.1-0.2,0.2-0.3,0.4-0.4
			C566.1,136.8,566.2,136.8,566.3,136.8z M566.2,138.2C566.1,138.2,566.1,138.2,566.2,138.2c-0.7,1.1-1.4,2.2-2.1,3.2
			c-0.5,0.8-1,1.7-1.4,2.6c-0.3,0.7-0.4,1.3-0.3,2.1c0.2,1,0.6,1.8,1.4,2.4c0.8,0.6,1.7,0.9,2.7,0.8c0.7-0.1,1.3-0.3,1.9-0.7
			c0.8-0.6,1.3-1.4,1.6-2.4c0.1-0.4,0.1-0.8,0-1.2c-0.1-0.7-0.4-1.3-0.7-1.9c-0.5-1.1-1.2-2.1-1.9-3.1
			C567,139.4,566.6,138.8,566.2,138.2z"/>
		<path class="st2" d="M569.4,145.6c-0.1,1.2-0.6,2.1-1.6,2.6c-0.2,0.1-0.5,0.1-0.6-0.1c-0.1-0.2-0.1-0.4,0-0.6l0.1-0.1
			c0.7-0.4,1.1-1.1,1.2-1.9c0-0.2,0.2-0.4,0.3-0.4c0.2,0,0.4,0,0.5,0.2C569.4,145.4,569.4,145.5,569.4,145.6z"/>
	</g>
	<g class="st1">
		<path class="st0" d="M708.4,143.2c0-4.2,2.4-7.2,6.5-7.2c1.7,0,3.1,0.6,4.1,1.4l-1.3,2.3c-0.8-0.7-1.5-1.1-2.8-1.1
			c-2.1,0-3.5,1.7-3.5,4c0,0.1,0,0.2,0,0.3c0.6-0.9,2-1.8,3.6-1.8c2.5,0,4.8,1.6,4.8,4.5c0,2.7-2.2,4.8-5.4,4.8
			C710.2,150.3,708.4,147.1,708.4,143.2z M716.8,145.7c0-1.5-1.3-2.1-2.6-2.1c-1,0-2.1,0.5-2.7,1.3c0.1,1.3,0.9,2.8,2.8,2.8
			C715.9,147.7,716.8,146.6,716.8,145.7z"/>
	</g>
	<g>
		<path class="st2" d="M699.8,136.8c0.2,0.1,0.3,0.2,0.4,0.3c0.8,1.2,1.7,2.5,2.5,3.7c0.6,0.9,1.1,1.8,1.5,2.8
			c0.3,0.7,0.5,1.4,0.4,2.2c-0.2,1.4-0.8,2.4-1.9,3.3c-0.7,0.6-1.5,0.9-2.4,1c-1,0.1-2-0.1-2.9-0.6s-1.6-1.3-2-2.2
			c-0.4-1-0.5-2.1-0.2-3.1c0.3-0.8,0.6-1.5,1.1-2.3c0.8-1.4,1.7-2.8,2.6-4.1c0.1-0.2,0.3-0.4,0.4-0.6c0.1-0.2,0.2-0.3,0.4-0.4
			C699.6,136.8,699.7,136.8,699.8,136.8z M699.7,138.2C699.6,138.2,699.6,138.2,699.7,138.2c-0.7,1.1-1.4,2.2-2.1,3.2
			c-0.5,0.8-1,1.7-1.4,2.6c-0.3,0.7-0.4,1.3-0.3,2.1c0.2,1,0.6,1.8,1.4,2.4c0.8,0.6,1.7,0.9,2.7,0.8c0.7-0.1,1.3-0.3,1.9-0.7
			c0.8-0.6,1.3-1.4,1.6-2.4c0.1-0.4,0.1-0.8,0-1.2c-0.1-0.7-0.4-1.3-0.7-1.9c-0.5-1.1-1.2-2.1-1.9-3.1
			C700.5,139.4,700.1,138.8,699.7,138.2z"/>
		<path class="st2" d="M702.9,145.6c-0.1,1.2-0.6,2.1-1.6,2.6c-0.2,0.1-0.5,0.1-0.6-0.1c-0.1-0.2-0.1-0.4,0-0.6l0.1-0.1
			c0.7-0.4,1.1-1.1,1.2-1.9c0-0.2,0.2-0.4,0.3-0.4c0.2,0,0.4,0,0.5,0.2C702.9,145.4,702.9,145.5,702.9,145.6z"/>
	</g>
	<g class="st1">
		<path class="st0" d="M708.4,210.3c0-4.2,2.4-7.2,6.5-7.2c1.7,0,3.1,0.6,4.1,1.4l-1.3,2.3c-0.8-0.7-1.5-1.1-2.8-1.1
			c-2.1,0-3.5,1.7-3.5,4c0,0.1,0,0.2,0,0.3c0.6-0.9,2-1.8,3.6-1.8c2.5,0,4.8,1.6,4.8,4.5c0,2.7-2.2,4.8-5.4,4.8
			C710.2,217.5,708.4,214.3,708.4,210.3z M716.8,212.8c0-1.5-1.3-2.1-2.6-2.1c-1,0-2.1,0.5-2.7,1.3c0.1,1.3,0.9,2.8,2.8,2.8
			C715.9,214.9,716.8,213.8,716.8,212.8z"/>
	</g>
	<g>
		<path class="st2" d="M699.8,204c0.2,0.1,0.3,0.2,0.4,0.3c0.8,1.2,1.7,2.5,2.5,3.7c0.6,0.9,1.1,1.8,1.5,2.8
			c0.3,0.7,0.5,1.4,0.4,2.2c-0.2,1.4-0.8,2.4-1.9,3.3c-0.7,0.6-1.5,0.9-2.4,1c-1,0.1-2-0.1-2.9-0.6s-1.6-1.3-2-2.2
			c-0.4-1-0.5-2.1-0.2-3.1c0.3-0.8,0.6-1.5,1.1-2.3c0.8-1.4,1.7-2.8,2.6-4.1c0.1-0.2,0.3-0.4,0.4-0.6c0.1-0.2,0.2-0.3,0.4-0.4
			C699.6,204,699.7,204,699.8,204z M699.7,205.3C699.6,205.4,699.6,205.4,699.7,205.3c-0.7,1.1-1.4,2.2-2.1,3.2
			c-0.5,0.8-1,1.7-1.4,2.6c-0.3,0.7-0.4,1.3-0.3,2.1c0.2,1,0.6,1.8,1.4,2.4c0.8,0.6,1.7,0.9,2.7,0.8c0.7-0.1,1.3-0.3,1.9-0.7
			c0.8-0.6,1.3-1.4,1.6-2.4c0.1-0.4,0.1-0.8,0-1.2c-0.1-0.7-0.4-1.3-0.7-1.9c-0.5-1.1-1.2-2.1-1.9-3.1
			C700.5,206.6,700.1,206,699.7,205.3z"/>
		<path class="st2" d="M702.9,212.8c-0.1,1.2-0.6,2.1-1.6,2.6c-0.2,0.1-0.5,0.1-0.6-0.1c-0.1-0.2-0.1-0.4,0-0.6l0.1-0.1
			c0.7-0.4,1.1-1.1,1.2-1.9c0-0.2,0.2-0.4,0.3-0.4c0.2,0,0.4,0,0.5,0.2C702.9,212.6,702.9,212.7,702.9,212.8z"/>
	</g>
	<path class="st3" d="M111.9,65.3"/>
	<line class="st3" x1="102.8" y1="48.3" x2="102.8" y2="230.8"/>
	<line class="st3" x1="39.8" y1="48.5" x2="39.8" y2="258.3"/>
	<line class="st3" x1="245.5" y1="48.3" x2="245.5" y2="230.8"/>
	<line class="st3" x1="379.1" y1="48.3" x2="379.1" y2="230.8"/>
	<line class="st3" x1="512.7" y1="48.3" x2="512.7" y2="230.8"/>
	<line class="st3" x1="646.3" y1="48.3" x2="646.3" y2="230.8"/>
	<polyline class="st3" points="39.8,258.3 779.8,258.3 779.8,48.5 39.4,48.5 	"/>
	<rect x="14.7" y="121.6" class="st3" width="783.8" height="40.2"/>
	<rect x="14.7" y="190.6" class="st3" width="783.8" height="40.2"/>
	<g class="st1">
		<path class="st0" d="M94.2,276.7c0-3.2,2.4-5.5,5.4-5.5c1.9,0,3.2,0.9,4,2.1l-1.1,0.6c-0.6-0.9-1.7-1.5-2.9-1.5
			c-2.3,0-4.1,1.8-4.1,4.3s1.8,4.3,4.1,4.3c1.2,0,2.3-0.6,2.9-1.5l1.1,0.6c-0.9,1.2-2.2,2.1-4,2.1C96.6,282.2,94.2,280,94.2,276.7z"
			/>
		<path class="st0" d="M104.8,278.2c0-2.2,1.5-4,3.8-4s3.8,1.8,3.8,4s-1.5,4-3.8,4S104.8,280.4,104.8,278.2z M111.1,278.2
			c0-1.6-0.9-2.9-2.5-2.9s-2.5,1.4-2.5,2.9c0,1.6,0.9,3,2.5,3S111.1,279.7,111.1,278.2z"/>
		<path class="st0" d="M119.5,282v-5c0-1.4-0.7-1.8-1.7-1.8c-0.9,0-1.8,0.6-2.3,1.2v5.6h-1.2v-7.7h1.2v1.1c0.5-0.6,1.6-1.3,2.7-1.3
			c1.6,0,2.4,0.8,2.4,2.5v5.4L119.5,282L119.5,282z"/>
		<path class="st0" d="M123.3,280.4v-5H122v-1h1.3v-2.1h1.2v2.1h1.6v1h-1.6v4.8c0,0.6,0.3,1,0.8,1c0.3,0,0.7-0.2,0.8-0.3l0.3,0.9
			c-0.3,0.3-0.7,0.5-1.4,0.5C123.9,282.2,123.3,281.5,123.3,280.4z"/>
		<path class="st0" d="M127.5,272.4c0-0.4,0.4-0.8,0.8-0.8c0.4,0,0.8,0.4,0.8,0.8s-0.3,0.8-0.8,0.8S127.5,272.9,127.5,272.4z
			 M127.7,282v-7.7h1.2v7.7H127.7z"/>
		<path class="st0" d="M136.5,282v-5c0-1.4-0.7-1.8-1.7-1.8c-0.9,0-1.8,0.6-2.3,1.2v5.6h-1.2v-7.7h1.2v1.1c0.5-0.6,1.6-1.3,2.7-1.3
			c1.6,0,2.4,0.8,2.4,2.5v5.4L136.5,282L136.5,282z"/>
		<path class="st0" d="M145.2,282v-1.1c-0.6,0.7-1.6,1.3-2.7,1.3c-1.6,0-2.4-0.8-2.4-2.4v-5.4h1.2v5c0,1.3,0.7,1.7,1.7,1.7
			c0.9,0,1.8-0.5,2.3-1.2v-5.6h1.2v7.7H145.2z"/>
		<path class="st0" d="M153.6,282v-0.9c-0.6,0.7-1.5,1.1-2.5,1.1c-1.3,0-2.7-0.9-2.7-2.5c0-1.7,1.4-2.5,2.7-2.5c1,0,1.9,0.3,2.5,1
			v-1.4c0-1-0.8-1.6-1.9-1.6c-0.9,0-1.7,0.3-2.3,1.1l-0.6-0.8c0.8-0.9,1.8-1.3,3.1-1.3c1.6,0,3,0.7,3,2.6v5.3h-1.3V282z
			 M153.6,280.4v-1.5c-0.5-0.6-1.3-0.9-2.1-0.9c-1.1,0-1.9,0.7-1.9,1.7s0.8,1.7,1.9,1.7C152.3,281.3,153.1,281,153.6,280.4z"/>
		<path class="st0" d="M157.2,282v-7.7h1.2v1.2c0.6-0.8,1.5-1.4,2.6-1.4v1.2c-0.1,0-0.3,0-0.5,0c-0.7,0-1.7,0.6-2.1,1.2v5.4
			L157.2,282L157.2,282z"/>
		<path class="st0" d="M166.3,272.4c0-0.4,0.4-0.8,0.8-0.8s0.8,0.4,0.8,0.8s-0.3,0.8-0.8,0.8S166.3,272.9,166.3,272.4z M166.5,282
			v-7.7h1.2v7.7H166.5z"/>
		<path class="st0" d="M175.3,282v-5c0-1.4-0.7-1.8-1.7-1.8c-0.9,0-1.8,0.6-2.3,1.2v5.6h-1.2v-7.7h1.2v1.1c0.5-0.6,1.6-1.3,2.7-1.3
			c1.6,0,2.4,0.8,2.4,2.5v5.4L175.3,282L175.3,282z"/>
		<path class="st0" d="M178.4,278.2c0-2.3,1.5-4,3.8-4c1.4,0,2.2,0.6,2.8,1.3l-0.8,0.7c-0.5-0.7-1.2-1-2-1c-1.6,0-2.6,1.3-2.6,2.9
			s1,3,2.6,3c0.8,0,1.4-0.3,2-1l0.8,0.7c-0.6,0.8-1.4,1.3-2.8,1.3C179.9,282.2,178.4,280.4,178.4,278.2z"/>
		<path class="st0" d="M186.7,282v-7.7h1.2v1.2c0.6-0.8,1.5-1.4,2.6-1.4v1.2c-0.1,0-0.3,0-0.5,0c-0.7,0-1.7,0.6-2.1,1.2v5.4
			L186.7,282L186.7,282z"/>
		<path class="st0" d="M191.5,278.2c0-2.2,1.6-4,3.8-4c2.3,0,3.7,1.8,3.7,4.1v0.3h-6.2c0.1,1.4,1.1,2.6,2.7,2.6c0.9,0,1.8-0.3,2.4-1
			l0.6,0.8c-0.8,0.8-1.8,1.2-3,1.2C193.1,282.2,191.5,280.5,191.5,278.2z M195.3,275.1c-1.6,0-2.4,1.4-2.5,2.5h5
			C197.8,276.5,197,275.1,195.3,275.1z"/>
		<path class="st0" d="M210.1,282v-5.2c0-1-0.4-1.6-1.4-1.6c-0.8,0-1.6,0.6-2,1.2v5.6h-1.2v-5.2c0-1-0.4-1.6-1.4-1.6
			c-0.8,0-1.6,0.6-2,1.2v5.6h-1.2v-7.7h1.2v1.1c0.3-0.5,1.3-1.3,2.5-1.3s1.8,0.6,2,1.4c0.4-0.7,1.5-1.4,2.6-1.4
			c1.4,0,2.1,0.8,2.1,2.3v5.5h-1.2V282z"/>
		<path class="st0" d="M213.2,278.2c0-2.2,1.6-4,3.8-4c2.3,0,3.7,1.8,3.7,4.1v0.3h-6.2c0.1,1.4,1.1,2.6,2.7,2.6c0.9,0,1.8-0.3,2.4-1
			l0.6,0.8c-0.8,0.8-1.8,1.2-3,1.2C214.9,282.2,213.2,280.5,213.2,278.2z M217,275.1c-1.6,0-2.4,1.4-2.5,2.5h5
			C219.5,276.5,218.7,275.1,217,275.1z"/>
		<path class="st0" d="M227.8,282v-5c0-1.4-0.7-1.8-1.7-1.8c-0.9,0-1.8,0.6-2.3,1.2v5.6h-1.2v-7.7h1.2v1.1c0.5-0.6,1.6-1.3,2.7-1.3
			c1.6,0,2.4,0.8,2.4,2.5v5.4L227.8,282L227.8,282z"/>
		<path class="st0" d="M231.6,280.4v-5h-1.3v-1h1.3v-2.1h1.2v2.1h1.6v1h-1.6v4.8c0,0.6,0.3,1,0.8,1c0.3,0,0.7-0.2,0.8-0.3l0.3,0.9
			c-0.3,0.3-0.7,0.5-1.4,0.5C232.2,282.2,231.6,281.5,231.6,280.4z"/>
		<path class="st0" d="M240.8,282v-0.9c-0.6,0.7-1.5,1.1-2.5,1.1c-1.3,0-2.7-0.9-2.7-2.5c0-1.7,1.4-2.5,2.7-2.5c1,0,1.9,0.3,2.5,1
			v-1.4c0-1-0.8-1.6-1.9-1.6c-0.9,0-1.7,0.3-2.3,1.1l-0.6-0.8c0.8-0.9,1.8-1.3,3.1-1.3c1.6,0,3,0.7,3,2.6v5.3h-1.3V282z
			 M240.8,280.4v-1.5c-0.5-0.6-1.3-0.9-2.1-0.9c-1.1,0-1.9,0.7-1.9,1.7s0.8,1.7,1.9,1.7C239.5,281.3,240.4,281,240.8,280.4z"/>
		<path class="st0" d="M249.6,282v-5c0-1.4-0.7-1.8-1.7-1.8c-0.9,0-1.8,0.6-2.3,1.2v5.6h-1.2v-7.7h1.2v1.1c0.5-0.6,1.6-1.3,2.7-1.3
			c1.6,0,2.4,0.8,2.4,2.5v5.4L249.6,282L249.6,282z"/>
		<path class="st0" d="M258.7,282v-1.1c-0.6,0.8-1.5,1.3-2.6,1.3c-2,0-3.4-1.5-3.4-4s1.4-4,3.4-4c1,0,2,0.5,2.6,1.3v-4.1h1.2V282
			H258.7z M258.7,279.9v-3.5c-0.4-0.7-1.3-1.2-2.3-1.2c-1.6,0-2.5,1.3-2.5,3s0.9,2.9,2.5,2.9C257.4,281.1,258.3,280.6,258.7,279.9z"
			/>
		<path class="st0" d="M261.8,278.2c0-2.2,1.5-4,3.8-4s3.8,1.8,3.8,4s-1.5,4-3.8,4S261.8,280.4,261.8,278.2z M268.2,278.2
			c0-1.6-0.9-2.9-2.5-2.9s-2.5,1.4-2.5,2.9c0,1.6,0.9,3,2.5,3S268.2,279.7,268.2,278.2z"/>
		<path class="st0" d="M281,282v-1.1c-0.6,0.8-1.5,1.3-2.6,1.3c-2,0-3.4-1.5-3.4-4s1.4-4,3.4-4c1,0,2,0.5,2.6,1.3v-4.1h1.2V282H281z
			 M281,279.9v-3.5c-0.4-0.7-1.3-1.2-2.3-1.2c-1.6,0-2.5,1.3-2.5,3s0.9,2.9,2.5,2.9C279.6,281.1,280.6,280.6,281,279.9z"/>
		<path class="st0" d="M284.1,278.2c0-2.2,1.6-4,3.8-4c2.3,0,3.7,1.8,3.7,4.1v0.3h-6.2c0.1,1.4,1.1,2.6,2.7,2.6c0.9,0,1.8-0.3,2.4-1
			l0.6,0.8c-0.8,0.8-1.8,1.2-3,1.2C285.8,282.2,284.1,280.5,284.1,278.2z M287.9,275.1c-1.6,0-2.4,1.4-2.5,2.5h5
			C290.4,276.5,289.6,275.1,287.9,275.1z"/>
		<path class="st0" d="M302.4,282v-0.9c-0.6,0.7-1.5,1.1-2.5,1.1c-1.3,0-2.7-0.9-2.7-2.5c0-1.7,1.4-2.5,2.7-2.5c1,0,1.9,0.3,2.5,1
			v-1.4c0-1-0.8-1.6-1.9-1.6c-0.9,0-1.7,0.3-2.3,1.1l-0.6-0.8c0.8-0.9,1.8-1.3,3.1-1.3c1.6,0,3,0.7,3,2.6v5.3h-1.3V282z
			 M302.4,280.4v-1.5c-0.5-0.6-1.3-0.9-2.1-0.9c-1.1,0-1.9,0.7-1.9,1.7s0.8,1.7,1.9,1.7C301.1,281.3,301.9,281,302.4,280.4z"/>
		<path class="st0" d="M309.7,282v-1.1c3.8-3,5.9-4.7,5.9-6.6c0-1.4-1.1-1.9-2.2-1.9c-1.3,0-2.3,0.5-2.9,1.3l-0.8-0.8
			c0.8-1.1,2.2-1.7,3.7-1.7c1.8,0,3.6,1,3.6,3.1c0,2.2-2.2,4.1-5.1,6.5h5.2v1.2H309.7z"/>
		<path class="st0" d="M323.5,283.9l0.6-0.9c0.6,0.7,1.4,1,2.5,1c1.3,0,2.5-0.6,2.5-2.2v-1.2c-0.6,0.8-1.5,1.4-2.6,1.4
			c-2,0-3.4-1.5-3.4-4s1.4-4,3.4-4c1,0,2,0.5,2.6,1.3v-1.2h1.2v7.5c0,2.4-1.8,3.2-3.7,3.2C325.3,285.1,324.4,284.8,323.5,283.9z
			 M329.1,279.8v-3.4c-0.4-0.7-1.3-1.2-2.3-1.2c-1.6,0-2.5,1.2-2.5,2.9c0,1.7,0.9,2.9,2.5,2.9C327.7,281,328.6,280.5,329.1,279.8z"
			/>
		<path class="st0" d="M332.2,278.2c0-2.2,1.5-4,3.8-4s3.8,1.8,3.8,4s-1.5,4-3.8,4S332.2,280.4,332.2,278.2z M338.5,278.2
			c0-1.6-0.9-2.9-2.5-2.9s-2.5,1.4-2.5,2.9c0,1.6,0.9,3,2.5,3S338.5,279.7,338.5,278.2z"/>
		<path class="st0" d="M341.9,280.4v-5h-1.3v-1h1.3v-2.1h1.2v2.1h1.6v1h-1.6v4.8c0,0.6,0.3,1,0.8,1c0.3,0,0.7-0.2,0.8-0.3l0.3,0.9
			c-0.3,0.3-0.7,0.5-1.4,0.5C342.5,282.2,341.9,281.5,341.9,280.4z"/>
		<path class="st0" d="M351.2,282v-0.9c-0.6,0.7-1.5,1.1-2.5,1.1c-1.3,0-2.7-0.9-2.7-2.5c0-1.7,1.4-2.5,2.7-2.5c1,0,1.9,0.3,2.5,1
			v-1.4c0-1-0.8-1.6-1.9-1.6c-0.9,0-1.7,0.3-2.3,1.1l-0.6-0.8c0.8-0.9,1.8-1.3,3.1-1.3c1.6,0,3,0.7,3,2.6v5.3h-1.3V282z
			 M351.2,280.4v-1.5c-0.5-0.6-1.3-0.9-2.1-0.9c-1.1,0-1.9,0.7-1.9,1.7s0.8,1.7,1.9,1.7C349.9,281.3,350.7,281,351.2,280.4z"/>
		<path class="st0" d="M354.1,281l0.6-0.9c0.5,0.6,1.5,1.1,2.5,1.1c1.2,0,1.8-0.6,1.8-1.3c0-1.9-4.7-0.7-4.7-3.6
			c0-1.2,1-2.2,2.8-2.2c1.3,0,2.2,0.5,2.8,1.1l-0.6,0.8c-0.5-0.6-1.3-1-2.3-1s-1.7,0.5-1.7,1.2c0,1.7,4.7,0.6,4.7,3.6
			c0,1.3-1,2.3-3,2.3C355.9,282.2,354.9,281.8,354.1,281z"/>
		<path class="st0" d="M367.4,280.8v4.1h-1.2v-10.6h1.2v1.1c0.6-0.8,1.5-1.3,2.6-1.3c2,0,3.4,1.5,3.4,4s-1.4,4-3.4,4
			C368.9,282.2,368,281.7,367.4,280.8z M372.1,278.2c0-1.7-0.9-2.9-2.5-2.9c-0.9,0-1.9,0.6-2.3,1.2v3.5c0.4,0.7,1.3,1.2,2.3,1.2
			C371.2,281.1,372.1,279.8,372.1,278.2z"/>
		<path class="st0" d="M374.8,278.2c0-2.2,1.5-4,3.8-4s3.8,1.8,3.8,4s-1.5,4-3.8,4S374.8,280.4,374.8,278.2z M381.2,278.2
			c0-1.6-0.9-2.9-2.5-2.9s-2.5,1.4-2.5,2.9c0,1.6,0.9,3,2.5,3S381.2,279.7,381.2,278.2z"/>
		<path class="st0" d="M384.4,282v-7.7h1.2v1.2c0.6-0.8,1.5-1.4,2.6-1.4v1.2c-0.1,0-0.3,0-0.5,0c-0.7,0-1.7,0.6-2.1,1.2v5.4
			L384.4,282L384.4,282z"/>
		<path class="st0" d="M393.9,280.4v-5h-1.3v-1h1.3v-2.1h1.2v2.1h1.6v1h-1.6v4.8c0,0.6,0.3,1,0.8,1c0.3,0,0.7-0.2,0.8-0.3l0.3,0.9
			c-0.3,0.3-0.7,0.5-1.4,0.5C394.5,282.2,393.9,281.5,393.9,280.4z"/>
		<path class="st0" d="M397.9,278.2c0-2.2,1.5-4,3.8-4s3.8,1.8,3.8,4s-1.5,4-3.8,4S397.9,280.4,397.9,278.2z M404.2,278.2
			c0-1.6-0.9-2.9-2.5-2.9s-2.5,1.4-2.5,2.9c0,1.6,0.9,3,2.5,3S404.2,279.7,404.2,278.2z"/>
		<path class="st0" d="M416.7,282v-5.2c0-1-0.4-1.6-1.4-1.6c-0.8,0-1.6,0.6-2,1.2v5.6H412v-5.2c0-1-0.4-1.6-1.4-1.6
			c-0.8,0-1.6,0.6-2,1.2v5.6h-1.2v-7.7h1.2v1.1c0.3-0.5,1.3-1.3,2.5-1.3s1.8,0.6,2,1.4c0.4-0.7,1.5-1.4,2.6-1.4
			c1.4,0,2.1,0.8,2.1,2.3v5.5h-1.1V282z"/>
		<path class="st0" d="M425,282v-0.9c-0.6,0.7-1.5,1.1-2.5,1.1c-1.3,0-2.7-0.9-2.7-2.5c0-1.7,1.4-2.5,2.7-2.5c1,0,1.9,0.3,2.5,1
			v-1.4c0-1-0.8-1.6-1.9-1.6c-0.9,0-1.7,0.3-2.3,1.1l-0.6-0.8c0.8-0.9,1.8-1.3,3.1-1.3c1.6,0,3,0.7,3,2.6v5.3H425V282z M425,280.4
			v-1.5c-0.5-0.6-1.3-0.9-2.1-0.9c-1.1,0-1.9,0.7-1.9,1.7s0.8,1.7,1.9,1.7C423.8,281.3,424.6,281,425,280.4z"/>
		<path class="st0" d="M432.3,278.2c0-2.3,1.5-4,3.8-4c1.4,0,2.2,0.6,2.8,1.3l-0.8,0.7c-0.5-0.7-1.2-1-2-1c-1.6,0-2.6,1.3-2.6,2.9
			s1,3,2.6,3c0.8,0,1.4-0.3,2-1l0.8,0.7c-0.6,0.8-1.4,1.3-2.8,1.3C433.8,282.2,432.3,280.4,432.3,278.2z"/>
		<path class="st0" d="M445.4,282v-0.9c-0.6,0.7-1.5,1.1-2.5,1.1c-1.3,0-2.7-0.9-2.7-2.5c0-1.7,1.4-2.5,2.7-2.5c1,0,1.9,0.3,2.5,1
			v-1.4c0-1-0.8-1.6-1.9-1.6c-0.9,0-1.7,0.3-2.3,1.1l-0.6-0.8c0.8-0.9,1.8-1.3,3.1-1.3c1.6,0,3,0.7,3,2.6v5.3h-1.3V282z
			 M445.4,280.4v-1.5c-0.5-0.6-1.3-0.9-2.1-0.9c-1.1,0-1.9,0.7-1.9,1.7s0.8,1.7,1.9,1.7C444.1,281.3,444.9,281,445.4,280.4z"/>
		<path class="st0" d="M454.5,282v-1.1c-0.6,0.8-1.5,1.3-2.6,1.3c-2,0-3.4-1.5-3.4-4s1.4-4,3.4-4c1,0,2,0.5,2.6,1.3v-4.1h1.2V282
			H454.5z M454.5,279.9v-3.5c-0.4-0.7-1.3-1.2-2.3-1.2c-1.6,0-2.5,1.3-2.5,3s0.9,2.9,2.5,2.9C453.2,281.1,454.1,280.6,454.5,279.9z"
			/>
		<path class="st0" d="M462.9,282v-0.9c-0.6,0.7-1.5,1.1-2.5,1.1c-1.3,0-2.7-0.9-2.7-2.5c0-1.7,1.4-2.5,2.7-2.5c1,0,1.9,0.3,2.5,1
			v-1.4c0-1-0.8-1.6-1.9-1.6c-0.9,0-1.7,0.3-2.3,1.1l-0.6-0.8c0.8-0.9,1.8-1.3,3.1-1.3c1.6,0,3,0.7,3,2.6v5.3h-1.3V282z
			 M462.9,280.4v-1.5c-0.5-0.6-1.3-0.9-2.1-0.9c-1.1,0-1.9,0.7-1.9,1.7s0.8,1.7,1.9,1.7C461.6,281.3,462.4,281,462.9,280.4z"/>
		<path class="st0" d="M469.8,280.4l0.8-0.8c0.6,0.8,1.7,1.4,2.9,1.4c1.5,0,2.5-0.8,2.5-2c0-1.3-1.1-1.9-2.6-1.9c-0.4,0-0.9,0-1.1,0
			V276c0.2,0,0.7,0,1.1,0c1.3,0,2.5-0.5,2.5-1.7s-1.1-1.8-2.4-1.8c-1.2,0-2,0.4-2.8,1.3L470,273c0.8-0.9,2-1.6,3.6-1.6
			c2,0,3.6,1,3.6,2.8c0,1.5-1.3,2.3-2.3,2.5c1,0.1,2.4,0.9,2.4,2.6c0,1.8-1.4,3-3.8,3C471.8,282.2,470.5,281.4,469.8,280.4z"/>
		<path class="st0" d="M489.1,282v-1.1c-0.6,0.8-1.5,1.3-2.6,1.3c-2,0-3.4-1.5-3.4-4s1.4-4,3.4-4c1,0,2,0.5,2.6,1.3v-4.1h1.2V282
			H489.1z M489.1,279.9v-3.5c-0.4-0.7-1.3-1.2-2.3-1.2c-1.6,0-2.5,1.3-2.5,3s0.9,2.9,2.5,2.9C487.7,281.1,488.6,280.6,489.1,279.9z"
			/>
		<path class="st0" d="M493.1,273.2h-0.9l2.3-2.3h1.2L493.1,273.2z M492.6,282v-7.7h1.2v7.7H492.6z"/>
		<path class="st0" d="M501,282v-0.9c-0.6,0.7-1.5,1.1-2.5,1.1c-1.3,0-2.7-0.9-2.7-2.5c0-1.7,1.4-2.5,2.7-2.5c1,0,1.9,0.3,2.5,1
			v-1.4c0-1-0.8-1.6-1.9-1.6c-0.9,0-1.7,0.3-2.3,1.1l-0.6-0.8c0.8-0.9,1.8-1.3,3.1-1.3c1.6,0,3,0.7,3,2.6v5.3H501V282z M501,280.4
			v-1.5c-0.5-0.6-1.3-0.9-2.1-0.9c-1.1,0-1.9,0.7-1.9,1.7s0.8,1.7,1.9,1.7C499.7,281.3,500.5,281,501,280.4z"/>
		<path class="st0" d="M503.9,281l0.6-0.9c0.5,0.6,1.5,1.1,2.5,1.1c1.2,0,1.8-0.6,1.8-1.3c0-1.9-4.7-0.7-4.7-3.6
			c0-1.2,1-2.2,2.8-2.2c1.3,0,2.2,0.5,2.8,1.1l-0.6,0.8c-0.5-0.6-1.3-1-2.3-1s-1.7,0.5-1.7,1.2c0,1.7,4.7,0.6,4.7,3.6
			c0,1.3-1,2.3-3,2.3C505.7,282.2,504.7,281.8,503.9,281z"/>
		<path class="st0" d="M521.2,282v-5c0-1.4-0.7-1.7-1.7-1.7c-0.9,0-1.8,0.6-2.3,1.2v5.6H516v-10.6h1.2v4c0.5-0.6,1.6-1.3,2.7-1.3
			c1.6,0,2.4,0.8,2.4,2.4v5.4H521.2z"/>
		<path class="st0" d="M529.6,282v-0.9c-0.6,0.7-1.5,1.1-2.5,1.1c-1.3,0-2.7-0.9-2.7-2.5c0-1.7,1.4-2.5,2.7-2.5c1,0,1.9,0.3,2.5,1
			v-1.4c0-1-0.8-1.6-1.9-1.6c-0.9,0-1.7,0.3-2.3,1.1l-0.6-0.8c0.8-0.9,1.8-1.3,3.1-1.3c1.6,0,3,0.7,3,2.6v5.3h-1.3V282z
			 M529.6,280.4v-1.5c-0.5-0.6-1.3-0.9-2.1-0.9c-1.1,0-1.9,0.7-1.9,1.7s0.8,1.7,1.9,1.7C528.3,281.3,529.1,281,529.6,280.4z"/>
		<path class="st0" d="M532.5,281l0.6-0.9c0.5,0.6,1.5,1.1,2.5,1.1c1.2,0,1.8-0.6,1.8-1.3c0-1.9-4.7-0.7-4.7-3.6
			c0-1.2,1-2.2,2.8-2.2c1.3,0,2.2,0.5,2.8,1.1l-0.6,0.8c-0.5-0.6-1.3-1-2.3-1s-1.7,0.5-1.7,1.2c0,1.7,4.7,0.6,4.7,3.6
			c0,1.3-1,2.3-3,2.3C534.3,282.2,533.3,281.8,532.5,281z"/>
		<path class="st0" d="M540.8,280.4v-5h-1.3v-1h1.3v-2.1h1.2v2.1h1.6v1H542v4.8c0,0.6,0.3,1,0.8,1c0.3,0,0.7-0.2,0.8-0.3l0.3,0.9
			c-0.3,0.3-0.7,0.5-1.4,0.5C541.4,282.2,540.8,281.5,540.8,280.4z"/>
		<path class="st0" d="M550,282v-0.9c-0.6,0.7-1.5,1.1-2.5,1.1c-1.3,0-2.7-0.9-2.7-2.5c0-1.7,1.4-2.5,2.7-2.5c1,0,1.9,0.3,2.5,1
			v-1.4c0-1-0.8-1.6-1.9-1.6c-0.9,0-1.7,0.3-2.3,1.1l-0.6-0.8c0.8-0.9,1.8-1.3,3.1-1.3c1.6,0,3,0.7,3,2.6v5.3H550V282z M550,280.4
			v-1.5c-0.5-0.6-1.3-0.9-2.1-0.9c-1.1,0-1.9,0.7-1.9,1.7s0.8,1.7,1.9,1.7C548.7,281.3,549.5,281,550,280.4z"/>
		<path class="st0" d="M557.7,282v-10.6h1.2V282H557.7z"/>
		<path class="st0" d="M561.3,282v-10.6h1.2V282H561.3z"/>
		<path class="st0" d="M564.4,278.2c0-2.2,1.6-4,3.8-4c2.3,0,3.7,1.8,3.7,4.1v0.3h-6.2c0.1,1.4,1.1,2.6,2.7,2.6c0.9,0,1.8-0.3,2.4-1
			l0.6,0.8c-0.8,0.8-1.8,1.2-3,1.2C566,282.2,564.4,280.5,564.4,278.2z M568.1,275.1c-1.6,0-2.4,1.4-2.5,2.5h5
			C570.6,276.5,569.9,275.1,568.1,275.1z"/>
		<path class="st0" d="M573.7,283.9l0.6-0.9c0.6,0.7,1.4,1,2.5,1c1.3,0,2.5-0.6,2.5-2.2v-1.2c-0.6,0.8-1.5,1.4-2.6,1.4
			c-2,0-3.4-1.5-3.4-4s1.4-4,3.4-4c1,0,2,0.5,2.6,1.3v-1.2h1.2v7.5c0,2.4-1.8,3.2-3.7,3.2C575.5,285.1,574.7,284.8,573.7,283.9z
			 M579.3,279.8v-3.4c-0.4-0.7-1.3-1.2-2.3-1.2c-1.6,0-2.5,1.2-2.5,2.9c0,1.7,0.9,2.9,2.5,2.9C578,281,578.9,280.5,579.3,279.8z"/>
		<path class="st0" d="M587.7,282v-0.9c-0.6,0.7-1.5,1.1-2.5,1.1c-1.3,0-2.7-0.9-2.7-2.5c0-1.7,1.4-2.5,2.7-2.5c1,0,1.9,0.3,2.5,1
			v-1.4c0-1-0.8-1.6-1.9-1.6c-0.9,0-1.7,0.3-2.3,1.1l-0.6-0.8c0.8-0.9,1.8-1.3,3.1-1.3c1.6,0,3,0.7,3,2.6v5.3h-1.3V282z
			 M587.7,280.4v-1.5c-0.5-0.6-1.3-0.9-2.1-0.9c-1.1,0-1.9,0.7-1.9,1.7s0.8,1.7,1.9,1.7C586.4,281.3,587.2,281,587.7,280.4z"/>
		<path class="st0" d="M591.2,282v-7.7h1.2v1.2c0.6-0.8,1.5-1.4,2.6-1.4v1.2c-0.1,0-0.3,0-0.5,0c-0.7,0-1.7,0.6-2.1,1.2v5.4
			L591.2,282L591.2,282z"/>
		<path class="st0" d="M605.4,282v-0.9c-0.6,0.7-1.5,1.1-2.5,1.1c-1.3,0-2.7-0.9-2.7-2.5c0-1.7,1.4-2.5,2.7-2.5c1,0,1.9,0.3,2.5,1
			v-1.4c0-1-0.8-1.6-1.9-1.6c-0.9,0-1.7,0.3-2.3,1.1l-0.6-0.8c0.8-0.9,1.8-1.3,3.1-1.3c1.6,0,3,0.7,3,2.6v5.3h-1.3V282z
			 M605.4,280.4v-1.5c-0.5-0.6-1.3-0.9-2.1-0.9c-1.1,0-1.9,0.7-1.9,1.7s0.8,1.7,1.9,1.7C604.1,281.3,604.9,281,605.4,280.4z"/>
		<path class="st0" d="M613.1,282v-10.6h1.2V282H613.1z"/>
		<path class="st0" d="M621.4,282v-0.9c-0.6,0.7-1.5,1.1-2.5,1.1c-1.3,0-2.7-0.9-2.7-2.5c0-1.7,1.4-2.5,2.7-2.5c1,0,1.9,0.3,2.5,1
			v-1.4c0-1-0.8-1.6-1.9-1.6c-0.9,0-1.7,0.3-2.3,1.1l-0.6-0.8c0.8-0.9,1.8-1.3,3.1-1.3c1.6,0,3,0.7,3,2.6v5.3h-1.3V282z
			 M621.4,280.4v-1.5c-0.5-0.6-1.3-0.9-2.1-0.9c-1.1,0-1.9,0.7-1.9,1.7s0.8,1.7,1.9,1.7C620.1,281.3,621,281,621.4,280.4z"/>
		<path class="st0" d="M634.7,282v-1.1c-0.6,0.8-1.5,1.3-2.6,1.3c-2,0-3.4-1.5-3.4-4s1.4-4,3.4-4c1,0,2,0.5,2.6,1.3v-4.1h1.2V282
			H634.7z M634.7,279.9v-3.5c-0.4-0.7-1.3-1.2-2.3-1.2c-1.6,0-2.5,1.3-2.5,3s0.9,2.9,2.5,2.9C633.3,281.1,634.2,280.6,634.7,279.9z"
			/>
		<path class="st0" d="M637.8,278.2c0-2.2,1.5-4,3.8-4s3.8,1.8,3.8,4s-1.5,4-3.8,4S637.8,280.4,637.8,278.2z M644.1,278.2
			c0-1.6-0.9-2.9-2.5-2.9s-2.5,1.4-2.5,2.9c0,1.6,0.9,3,2.5,3S644.1,279.7,644.1,278.2z"/>
		<path class="st0" d="M646.6,281l0.6-0.9c0.5,0.6,1.5,1.1,2.5,1.1c1.2,0,1.8-0.6,1.8-1.3c0-1.9-4.7-0.7-4.7-3.6
			c0-1.2,1-2.2,2.8-2.2c1.3,0,2.2,0.5,2.8,1.1l-0.6,0.8c-0.5-0.6-1.3-1-2.3-1s-1.7,0.5-1.7,1.2c0,1.7,4.7,0.6,4.7,3.6
			c0,1.3-1,2.3-3,2.3C648.5,282.2,647.4,281.8,646.6,281z"/>
		<path class="st0" d="M654.5,272.4c0-0.4,0.4-0.8,0.8-0.8c0.4,0,0.8,0.4,0.8,0.8s-0.3,0.8-0.8,0.8
			C654.8,273.2,654.5,272.9,654.5,272.4z M654.7,282v-7.7h1.2v7.7H654.7z"/>
		<path class="st0" d="M657.6,281l0.6-0.9c0.5,0.6,1.5,1.1,2.5,1.1c1.2,0,1.8-0.6,1.8-1.3c0-1.9-4.7-0.7-4.7-3.6
			c0-1.2,1-2.2,2.8-2.2c1.3,0,2.2,0.5,2.8,1.1l-0.6,0.8c-0.5-0.6-1.3-1-2.3-1s-1.7,0.5-1.7,1.2c0,1.7,4.7,0.6,4.7,3.6
			c0,1.3-1,2.3-3,2.3C659.4,282.2,658.4,281.8,657.6,281z"/>
		<path class="st0" d="M675.3,282v-1.1c-0.6,0.8-1.5,1.3-2.6,1.3c-2,0-3.4-1.5-3.4-4s1.4-4,3.4-4c1,0,2,0.5,2.6,1.3v-4.1h1.2V282
			H675.3z M675.3,279.9v-3.5c-0.4-0.7-1.3-1.2-2.3-1.2c-1.6,0-2.5,1.3-2.5,3s0.9,2.9,2.5,2.9C673.9,281.1,674.9,280.6,675.3,279.9z"
			/>
		<path class="st0" d="M678.4,278.2c0-2.2,1.6-4,3.8-4c2.3,0,3.7,1.8,3.7,4.1v0.3h-6.2c0.1,1.4,1.1,2.6,2.7,2.6c0.9,0,1.8-0.3,2.4-1
			l0.6,0.8c-0.8,0.8-1.8,1.2-3,1.2C680,282.2,678.4,280.5,678.4,278.2z M682.2,275.1c-1.6,0-2.4,1.4-2.5,2.5h5
			C684.7,276.5,683.9,275.1,682.2,275.1z"/>
		<path class="st0" d="M687.1,281l0.6-0.9c0.5,0.6,1.5,1.1,2.5,1.1c1.2,0,1.8-0.6,1.8-1.3c0-1.9-4.7-0.7-4.7-3.6
			c0-1.2,1-2.2,2.8-2.2c1.3,0,2.2,0.5,2.8,1.1l-0.6,0.8c-0.5-0.6-1.3-1-2.3-1s-1.7,0.5-1.7,1.2c0,1.7,4.7,0.6,4.7,3.6
			c0,1.3-1,2.3-3,2.3C688.9,282.2,687.9,281.8,687.1,281z"/>
		<path class="st0" d="M694.7,278.2c0-2.2,1.6-4,3.8-4c2.3,0,3.7,1.8,3.7,4.1v0.3H696c0.1,1.4,1.1,2.6,2.7,2.6c0.9,0,1.8-0.3,2.4-1
			l0.6,0.8c-0.8,0.8-1.8,1.2-3,1.2C696.3,282.2,694.7,280.5,694.7,278.2z M698.5,275.1c-1.6,0-2.4,1.4-2.5,2.5h5
			C701,276.5,700.2,275.1,698.5,275.1z"/>
		<path class="st0" d="M708.9,282v-0.9c-0.6,0.7-1.5,1.1-2.5,1.1c-1.3,0-2.7-0.9-2.7-2.5c0-1.7,1.4-2.5,2.7-2.5c1,0,1.9,0.3,2.5,1
			v-1.4c0-1-0.8-1.6-1.9-1.6c-0.9,0-1.7,0.3-2.3,1.1l-0.6-0.8c0.8-0.9,1.8-1.3,3.1-1.3c1.6,0,3,0.7,3,2.6v5.3h-1.3V282z
			 M708.9,280.4v-1.5c-0.5-0.6-1.3-0.9-2.1-0.9c-1.1,0-1.9,0.7-1.9,1.7s0.8,1.7,1.9,1.7C707.6,281.3,708.4,281,708.9,280.4z"/>
		<path class="st0" d="M718,282v-1.1c-0.6,0.8-1.5,1.3-2.6,1.3c-2,0-3.4-1.5-3.4-4s1.4-4,3.4-4c1,0,2,0.5,2.6,1.3v-4.1h1.2V282H718z
			 M718,279.9v-3.5c-0.4-0.7-1.3-1.2-2.3-1.2c-1.6,0-2.5,1.3-2.5,3s0.9,2.9,2.5,2.9C716.6,281.1,717.6,280.6,718,279.9z"/>
		<path class="st0" d="M726.3,282v-0.9c-0.6,0.7-1.5,1.1-2.5,1.1c-1.3,0-2.7-0.9-2.7-2.5c0-1.7,1.4-2.5,2.7-2.5c1,0,1.9,0.3,2.5,1
			v-1.4c0-1-0.8-1.6-1.9-1.6c-0.9,0-1.7,0.3-2.3,1.1l-0.6-0.8c0.8-0.9,1.8-1.3,3.1-1.3c1.6,0,3,0.7,3,2.6v5.3h-1.3V282z
			 M726.3,280.4v-1.5c-0.5-0.6-1.3-0.9-2.1-0.9c-1.1,0-1.9,0.7-1.9,1.7s0.8,1.7,1.9,1.7C725.1,281.3,725.9,281,726.3,280.4z"/>
		<path class="st0" d="M729.7,281.3c0-0.5,0.4-0.9,0.9-0.9s0.9,0.4,0.9,0.9s-0.4,0.9-0.9,0.9S729.7,281.8,729.7,281.3z"/>
	</g>
</g>
<g>
	<g>
		<g class="st1">
			<path class="st0" d="M826.9,86.3l0.9-1.1c0.6,0.7,1.4,1.1,2.4,1.1c1.1,0,1.8-0.7,1.8-1.6s-0.7-1.6-1.8-1.6
				c-0.7,0-1.4,0.2-1.9,0.8l-1.1-0.3v-5h5.8V80h-4.3v2.6c0.4-0.4,1.2-0.8,2-0.8c1.5,0,2.9,1,2.9,2.9c0,1.8-1.4,3-3.4,3
				C828.6,87.7,827.6,87.2,826.9,86.3z"/>
			<path class="st0" d="M846.4,87.5v-4.2c0-0.7-0.3-1.2-1.1-1.2c-0.6,0-1.2,0.4-1.5,0.9v4.5h-1.4v-4.2c0-0.7-0.3-1.2-1.1-1.2
				c-0.6,0-1.2,0.4-1.5,0.9v4.5h-1.4v-6.4h1.4V82c0.3-0.4,1.1-1,2.1-1s1.5,0.5,1.8,1.2c0.4-0.6,1.2-1.2,2.2-1.2c1.2,0,1.9,0.6,1.9,2
				v4.7h-1.4V87.5z"/>
			<path class="st0" d="M849.5,89.2l0.7-1c0.5,0.6,1.2,0.8,2.1,0.8c0.9,0,1.9-0.4,1.9-1.8v-0.7c-0.5,0.7-1.2,1.1-2.1,1.1
				c-1.6,0-2.9-1.2-2.9-3.3c0-2.1,1.2-3.3,2.9-3.3c0.8,0,1.5,0.4,2.1,1.1v-0.9h1.4v6.1c0,2.3-1.7,3-3.3,3
				C851.1,90.2,850.3,89.9,849.5,89.2z M854.1,85.5V83c-0.3-0.5-1-0.9-1.7-0.9c-1.1,0-1.8,0.8-1.8,2.1c0,1.2,0.7,2.1,1.8,2.1
				C853.1,86.3,853.8,85.9,854.1,85.5z"/>
		</g>
		<g class="st1">
			<path class="st0" d="M828.2,98.4c0-2.8,2-4.6,4.7-4.6c1.8,0,2.9,0.9,3.6,2l-1.3,0.7c-0.4-0.7-1.3-1.3-2.2-1.3
				c-1.8,0-3.1,1.3-3.1,3.2c0,1.9,1.3,3.2,3.1,3.2c0.9,0,1.8-0.6,2.2-1.3l1.3,0.7c-0.7,1.1-1.8,2-3.6,2
				C830.2,103,828.2,101.1,828.2,98.4z"/>
			<path class="st0" d="M837.7,102.8v-8.9h4.4c1.6,0,2.5,1,2.5,2.3c0,1.1-0.7,1.9-1.5,2c1,0.1,1.7,1.1,1.7,2.2
				c0,1.4-0.9,2.4-2.6,2.4H837.7z M843,96.5c0-0.7-0.5-1.1-1.2-1.1h-2.5v2.3h2.5C842.5,97.6,843,97.1,843,96.5z M843.2,100.2
				c0-0.7-0.5-1.2-1.3-1.2h-2.6v2.5h2.6C842.6,101.5,843.2,101,843.2,100.2z"/>
			<path class="st0" d="M846.3,102.8v-8.9h3.3c2.8,0,4.7,1.8,4.7,4.4s-1.9,4.5-4.6,4.5H846.3z M852.7,98.4c0-1.7-1.1-3.1-3-3.1h-1.8
				v6.2h1.7C851.6,101.5,852.7,100.1,852.7,98.4z"/>
		</g>
	</g>
	<path class="st4" d="M841.3,44.8c-0.2,0.3-0.3,0.4-0.4,0.5c-4.7,7.2-9.6,14.3-14.2,21.6c-3.6,5.7-7,11.6-9.6,17.8
		c-1.9,4.6-3,9.2-2.1,14.2c1.2,6.7,4.3,12.2,9.7,16.4c5.5,4.3,11.7,6.2,18.7,5.7c4.8-0.4,9.2-1.9,13.1-4.6c5.7-4,9.2-9.5,10.7-16.2
		c0.6-2.8,0.9-5.6,0.3-8.5c-0.9-4.7-2.9-8.9-5-13.1c-3.8-7.3-8.2-14.3-12.8-21.2C847,53.3,844.2,49.1,841.3,44.8z"/>
</g>
</svg>
