<?xml version="1.0" encoding="utf-8"?>
<!-- Generator: Adobe Illustrator 24.0.0, SVG Export Plug-In . SVG Version: 6.00 Build 0)  -->
<svg version="1.1" id="Layer_1" xmlns="http://www.w3.org/2000/svg" xmlns:xlink="http://www.w3.org/1999/xlink" x="0px" y="0px"
	 viewBox="0 0 850.4 331.5" style="enable-background:new 0 0 850.4 331.5;" xml:space="preserve">
<style type="text/css">
	.st0{fill:url(#SVGID_1_);}
	.st1{fill:url(#SVGID_2_);}
	.st2{fill:#FFFFFF;}
	.st3{fill:#221E1F;}
	.st4{font-family:'ProximaNova-BoldIt';}
	.st5{font-size:14.8532px;}
	.st6{clip-path:url(#SVGID_4_);}
	.st7{clip-path:url(#SVGID_8_);}
	.st8{clip-path:url(#SVGID_12_);}
	.st9{clip-path:url(#SVGID_16_);}
	.st10{clip-path:url(#SVGID_20_);}
	.st11{clip-path:url(#SVGID_24_);}
	.st12{clip-path:url(#SVGID_28_);}
	.st13{clip-path:url(#SVGID_32_);}
</style>
<linearGradient id="SVGID_1_" gradientUnits="userSpaceOnUse" x1="17.354" y1="165.0642" x2="838.7751" y2="165.0642">
	<stop  offset="0" style="stop-color:#DDD6E9"/>
	<stop  offset="1" style="stop-color:#DFEBE5"/>
</linearGradient>
<path class="st0" d="M809.1,321.9H47c-16.4,0-29.6-13.3-29.6-29.6V37.8C17.4,21.5,30.6,8.2,47,8.2h762.2c16.4,0,29.6,13.3,29.6,29.6
	v254.5C838.8,308.7,825.5,321.9,809.1,321.9z"/>
<linearGradient id="SVGID_2_" gradientUnits="userSpaceOnUse" x1="17.3539" y1="42.768" x2="838.7751" y2="42.768">
	<stop  offset="0" style="stop-color:#DDD6E9"/>
	<stop  offset="1" style="stop-color:#DFEBE5"/>
</linearGradient>
<path class="st1" d="M809.1,7.6H47c-16.4,0-29.6,13.3-29.6,29.6V78h821.4V37.2C838.8,20.8,825.5,7.6,809.1,7.6z"/>
<rect x="13.1" y="75.9" class="st2" width="829.9" height="2.1"/>
<g>
	<path class="st3" d="M42.9,96.9l1.2-1.6c0.7,0.7,1.8,1.4,3.1,1.4c1.2,0,1.7-0.5,1.7-1.1c0-1.7-5.7-0.5-5.7-4.2c0-1.6,1.4-3,3.8-3
		c1.6,0,2.9,0.5,3.9,1.4l-1.2,1.6c-0.8-0.7-1.9-1.1-2.9-1.1c-0.9,0-1.4,0.4-1.4,1c0,1.6,5.7,0.5,5.7,4.2c0,1.8-1.3,3.2-4,3.2
		C45.2,98.5,43.8,97.9,42.9,96.9z"/>
	<path class="st3" d="M53.5,90.1h-1.3l2-2.1h1.7L53.5,90.1z M52.4,98.3v-7.2h1.9v7.2H52.4z"/>
	<path class="st3" d="M61,98.3V94c0-1-0.5-1.3-1.3-1.3c-0.7,0-1.3,0.4-1.6,0.8v4.8h-1.9v-7.2h1.9v0.9c0.5-0.5,1.4-1.1,2.5-1.1
		c1.6,0,2.3,0.9,2.3,2.3v5.1H61z"/>
	<path class="st3" d="M69.7,98.3v-0.9c-0.6,0.7-1.3,1.1-2.2,1.1c-1.8,0-3.2-1.4-3.2-3.8c0-2.3,1.4-3.8,3.2-3.8
		c0.8,0,1.6,0.4,2.2,1.1v-3.7h1.9v9.9H69.7z M69.7,96v-2.5c-0.3-0.5-1-0.8-1.6-0.8c-1.1,0-1.8,0.8-1.8,2.1c0,1.2,0.7,2.1,1.8,2.1
		C68.7,96.8,69.4,96.5,69.7,96z"/>
	<path class="st3" d="M73.5,98.3v-7.2h1.9v1c0.5-0.6,1.4-1.1,2.3-1.1v1.8c-0.1,0-0.3,0-0.5,0c-0.6,0-1.5,0.4-1.8,0.8v4.7H73.5z"/>
	<path class="st3" d="M78.4,94.7c0-2,1.4-3.8,3.8-3.8c2.4,0,3.8,1.7,3.8,3.8c0,2-1.4,3.8-3.8,3.8C79.8,98.5,78.4,96.8,78.4,94.7z
		 M84,94.7c0-1.1-0.7-2.1-1.8-2.1c-1.2,0-1.8,1-1.8,2.1c0,1.1,0.7,2.1,1.8,2.1C83.4,96.8,84,95.9,84,94.7z"/>
	<path class="st3" d="M96.3,98.3v-4.5c0-0.7-0.3-1.1-1.1-1.1c-0.7,0-1.2,0.4-1.5,0.8v4.8h-1.9v-4.5c0-0.7-0.3-1.1-1.1-1.1
		c-0.7,0-1.2,0.4-1.5,0.8v4.8h-1.9v-7.2h1.9v0.9c0.3-0.4,1.2-1.1,2.3-1.1c1.1,0,1.7,0.5,2,1.3C94,91.6,95,91,96.1,91
		c1.3,0,2.1,0.7,2.1,2.2v5.2H96.3z"/>
	<path class="st3" d="M99.6,94.7c0-2.1,1.5-3.8,3.7-3.8c2.2,0,3.6,1.6,3.6,3.9v0.4h-5.3c0.1,0.9,0.8,1.6,2.1,1.6
		c0.6,0,1.4-0.3,1.9-0.7l0.8,1.2c-0.7,0.7-1.8,1-3,1C101.2,98.5,99.6,97,99.6,94.7z M103.3,92.5c-1.2,0-1.7,0.8-1.8,1.5h3.5
		C105,93.4,104.5,92.5,103.3,92.5z"/>
</g>
<g>
	<path class="st3" d="M43.1,112.6c0-2.1,1.5-3.8,3.7-3.8c2.2,0,3.6,1.6,3.6,3.9v0.4H45c0.1,0.9,0.8,1.6,2.1,1.6
		c0.6,0,1.4-0.3,1.9-0.7l0.8,1.2c-0.7,0.7-1.8,1-3,1C44.7,116.3,43.1,114.9,43.1,112.6z M46.8,110.3c-1.2,0-1.7,0.8-1.8,1.5h3.5
		C48.5,111.2,48,110.3,46.8,110.3z"/>
	<path class="st3" d="M53.6,115.2v3.7h-1.9V109h1.9v0.9c0.5-0.7,1.3-1.1,2.2-1.1c1.8,0,3.2,1.4,3.2,3.8c0,2.4-1.3,3.8-3.2,3.8
		C55,116.3,54.2,116,53.6,115.2z M57.1,112.6c0-1.2-0.7-2.1-1.8-2.1c-0.6,0-1.3,0.3-1.6,0.8v2.5c0.3,0.5,1,0.8,1.6,0.8
		C56.3,114.7,57.1,113.8,57.1,112.6z"/>
	<path class="st3" d="M60.2,107.1c0-0.6,0.5-1.1,1.1-1.1c0.6,0,1.1,0.5,1.1,1.1s-0.5,1.1-1.1,1.1C60.7,108.2,60.2,107.7,60.2,107.1z
		 M60.4,116.2V109h1.9v7.2H60.4z"/>
	<path class="st3" d="M64.2,116.2v-9.9H66v9.9H64.2z"/>
	<path class="st3" d="M67.4,112.6c0-2.1,1.5-3.8,3.7-3.8c2.2,0,3.6,1.6,3.6,3.9v0.4h-5.3c0.1,0.9,0.8,1.6,2.1,1.6
		c0.6,0,1.4-0.3,1.9-0.7l0.8,1.2c-0.7,0.7-1.8,1-3,1C69.1,116.3,67.4,114.9,67.4,112.6z M71.2,110.3c-1.2,0-1.7,0.8-1.8,1.5h3.5
		C72.9,111.2,72.4,110.3,71.2,110.3z M71.3,107.9H70l2-2.1h1.7L71.3,107.9z"/>
	<path class="st3" d="M78,115.2v3.7h-1.9V109H78v0.9c0.5-0.7,1.3-1.1,2.2-1.1c1.8,0,3.2,1.4,3.2,3.8c0,2.4-1.3,3.8-3.2,3.8
		C79.4,116.3,78.6,116,78,115.2z M81.5,112.6c0-1.2-0.7-2.1-1.8-2.1c-0.6,0-1.3,0.3-1.6,0.8v2.5c0.3,0.5,1,0.8,1.6,0.8
		C80.7,114.7,81.5,113.8,81.5,112.6z"/>
	<path class="st3" d="M85.2,114.4v-3.7H84V109h1.2v-2h1.9v2h1.5v1.6h-1.5v3.2c0,0.5,0.2,0.8,0.7,0.8c0.3,0,0.5-0.1,0.7-0.2l0.4,1.4
		c-0.3,0.3-0.8,0.5-1.6,0.5C85.9,116.3,85.2,115.6,85.2,114.4z"/>
	<path class="st3" d="M89.6,107.1c0-0.6,0.5-1.1,1.1-1.1c0.6,0,1.1,0.5,1.1,1.1s-0.5,1.1-1.1,1.1C90.1,108.2,89.6,107.7,89.6,107.1z
		 M89.8,116.2V109h1.9v7.2H89.8z"/>
	<path class="st3" d="M93.1,112.6c0-2.2,1.6-3.8,3.8-3.8c1.5,0,2.4,0.6,2.8,1.3l-1.2,1.2c-0.3-0.5-0.9-0.8-1.5-0.8
		c-1.1,0-1.9,0.8-1.9,2.1s0.8,2.1,1.9,2.1c0.7,0,1.2-0.3,1.5-0.8l1.2,1.2c-0.5,0.7-1.4,1.3-2.8,1.3
		C94.7,116.3,93.1,114.8,93.1,112.6z"/>
	<path class="st3" d="M100.5,112.6c0-2,1.4-3.8,3.8-3.8c2.4,0,3.8,1.7,3.8,3.8c0,2-1.4,3.8-3.8,3.8
		C101.9,116.3,100.5,114.6,100.5,112.6z M106.1,112.6c0-1.1-0.7-2.1-1.8-2.1c-1.2,0-1.8,1-1.8,2.1c0,1.1,0.7,2.1,1.8,2.1
		C105.5,114.7,106.1,113.7,106.1,112.6z"/>
</g>
<g>
	<path class="st3" d="M52,158.4l-1.9-3.5h-1.5v3.5h-2.1v-9.9H51c2.1,0,3.3,1.4,3.3,3.2c0,1.7-1.1,2.7-2.2,2.9l2.2,3.8H52z
		 M52.2,151.6c0-0.8-0.6-1.3-1.5-1.3h-2.2v2.7h2.2C51.6,153,52.2,152.5,52.2,151.6z"/>
	<path class="st3" d="M60.2,158.4v-0.8c-0.5,0.6-1.3,0.9-2.3,0.9c-1.1,0-2.5-0.8-2.5-2.4c0-1.7,1.3-2.3,2.5-2.3c1,0,1.8,0.3,2.3,0.9
		v-0.9c0-0.7-0.6-1.2-1.6-1.2c-0.8,0-1.5,0.3-2.1,0.8l-0.7-1.3c0.9-0.8,2-1.1,3.1-1.1c1.6,0,3.1,0.7,3.1,2.7v4.6H60.2z M60.2,156.6
		v-0.9c-0.3-0.4-0.9-0.6-1.5-0.6c-0.7,0-1.4,0.4-1.4,1.1c0,0.7,0.6,1.1,1.4,1.1C59.3,157.3,59.9,157,60.2,156.6z"/>
	<path class="st3" d="M68.8,158.4V154c0-1-0.5-1.3-1.3-1.3c-0.7,0-1.3,0.4-1.6,0.8v4.8H64v-7.2h1.9v0.9c0.5-0.5,1.4-1.1,2.5-1.1
		c1.6,0,2.3,0.9,2.3,2.3v5.1H68.8z"/>
	<path class="st3" d="M72.4,160.2l0.8-1.4c0.6,0.6,1.4,0.9,2.2,0.9c0.9,0,2-0.4,2-1.8v-0.7c-0.6,0.7-1.3,1.1-2.2,1.1
		c-1.8,0-3.2-1.2-3.2-3.6c0-2.3,1.4-3.7,3.2-3.7c0.9,0,1.6,0.4,2.2,1.1v-0.9h1.9v6.7c0,2.7-2.1,3.4-3.9,3.4
		C74.3,161.3,73.3,161,72.4,160.2z M77.5,155.8v-2.3c-0.3-0.5-1-0.8-1.6-0.8c-1.1,0-1.8,0.7-1.8,2s0.7,2,1.8,2
		C76.5,156.6,77.2,156.3,77.5,155.8z"/>
	<path class="st3" d="M80.8,154.8c0-2,1.4-3.8,3.8-3.8c2.4,0,3.8,1.7,3.8,3.8c0,2-1.4,3.8-3.8,3.8C82.2,158.5,80.8,156.8,80.8,154.8
		z M86.4,154.8c0-1.1-0.7-2.1-1.8-2.1c-1.2,0-1.8,1-1.8,2.1c0,1.1,0.7,2.1,1.8,2.1C85.8,156.9,86.4,155.9,86.4,154.8z"/>
	<path class="st3" d="M98.5,158.4v-0.9c-0.6,0.7-1.3,1.1-2.2,1.1c-1.8,0-3.2-1.4-3.2-3.8c0-2.3,1.4-3.8,3.2-3.8
		c0.8,0,1.6,0.4,2.2,1.1v-3.7h1.9v9.9H98.5z M98.5,156v-2.5c-0.3-0.5-1-0.8-1.6-0.8c-1.1,0-1.8,0.8-1.8,2.1c0,1.2,0.7,2.1,1.8,2.1
		C97.5,156.9,98.2,156.5,98.5,156z"/>
	<path class="st3" d="M101.9,154.8c0-2.1,1.5-3.8,3.7-3.8c2.2,0,3.6,1.6,3.6,3.9v0.4h-5.3c0.1,0.9,0.8,1.6,2.1,1.6
		c0.6,0,1.4-0.3,1.9-0.7l0.8,1.2c-0.7,0.7-1.8,1-3,1C103.5,158.5,101.9,157.1,101.9,154.8z M105.6,152.5c-1.2,0-1.7,0.8-1.8,1.5h3.5
		C107.3,153.4,106.8,152.5,105.6,152.5z"/>
	<path class="st3" d="M113.9,154.8c0-2.1,1.5-3.8,3.7-3.8c2.2,0,3.6,1.6,3.6,3.9v0.4h-5.3c0.1,0.9,0.8,1.6,2.1,1.6
		c0.6,0,1.4-0.3,1.9-0.7l0.8,1.2c-0.7,0.7-1.8,1-3,1C115.5,158.5,113.9,157.1,113.9,154.8z M117.6,152.5c-1.2,0-1.7,0.8-1.8,1.5h3.5
		C119.3,153.4,118.8,152.5,117.6,152.5z"/>
	<path class="st3" d="M127.5,158.4v-0.9c-0.6,0.7-1.3,1.1-2.2,1.1c-1.8,0-3.2-1.4-3.2-3.8c0-2.3,1.4-3.8,3.2-3.8
		c0.8,0,1.6,0.4,2.2,1.1v-3.7h1.9v9.9H127.5z M127.5,156v-2.5c-0.3-0.5-1-0.8-1.6-0.8c-1.1,0-1.8,0.8-1.8,2.1c0,1.2,0.7,2.1,1.8,2.1
		C126.5,156.9,127.2,156.5,127.5,156z"/>
	<path class="st3" d="M135.6,158.4v-0.8c-0.5,0.6-1.3,0.9-2.3,0.9c-1.1,0-2.5-0.8-2.5-2.4c0-1.7,1.3-2.3,2.5-2.3
		c1,0,1.8,0.3,2.3,0.9v-0.9c0-0.7-0.6-1.2-1.6-1.2c-0.8,0-1.5,0.3-2.1,0.8l-0.7-1.3c0.9-0.8,2-1.1,3.1-1.1c1.6,0,3.1,0.7,3.1,2.7
		v4.6H135.6z M135.6,156.6v-0.9c-0.3-0.4-0.9-0.6-1.5-0.6c-0.7,0-1.4,0.4-1.4,1.1c0,0.7,0.6,1.1,1.4,1.1
		C134.7,157.3,135.3,157,135.6,156.6z"/>
	<path class="st3" d="M144.3,158.4v-0.9c-0.6,0.7-1.3,1.1-2.2,1.1c-1.8,0-3.2-1.4-3.2-3.8c0-2.3,1.4-3.8,3.2-3.8
		c0.8,0,1.6,0.4,2.2,1.1v-3.7h1.9v9.9H144.3z M144.3,156v-2.5c-0.3-0.5-1-0.8-1.6-0.8c-1.1,0-1.8,0.8-1.8,2.1c0,1.2,0.7,2.1,1.8,2.1
		C143.3,156.9,143.9,156.5,144.3,156z"/>
</g>
<g>
	<path class="st3" d="M45.9,252.1c0-3.1,2.4-5.1,5.3-5.1c2,0,3.3,1,4.1,2.2l-1.7,1c-0.5-0.7-1.3-1.3-2.3-1.3c-1.8,0-3.1,1.4-3.1,3.3
		s1.3,3.3,3.1,3.3c0.9,0,1.7-0.4,2.1-0.8v-1.2h-2.6v-1.8h4.7v3.8c-1,1.1-2.4,1.9-4.2,1.9C48.3,257.2,45.9,255.2,45.9,252.1z"/>
	<path class="st3" d="M57,257.1v-7.2h1.9v1c0.5-0.6,1.4-1.1,2.3-1.1v1.8c-0.1,0-0.3,0-0.5,0c-0.6,0-1.5,0.4-1.8,0.8v4.7H57z"/>
	<path class="st3" d="M67.2,257.1v-0.9c-0.5,0.5-1.4,1.1-2.5,1.1c-1.6,0-2.3-0.9-2.3-2.3v-5.1h1.9v4.4c0,1,0.5,1.3,1.3,1.3
		c0.7,0,1.3-0.4,1.6-0.8v-4.9h1.9v7.2H67.2z"/>
	<path class="st3" d="M72.9,256.1v3.7H71v-9.9h1.9v0.9c0.5-0.7,1.3-1.1,2.2-1.1c1.8,0,3.2,1.4,3.2,3.8c0,2.4-1.3,3.8-3.2,3.8
		C74.2,257.2,73.5,256.9,72.9,256.1z M76.3,253.5c0-1.2-0.7-2.1-1.8-2.1c-0.6,0-1.3,0.3-1.6,0.8v2.5c0.3,0.5,1,0.8,1.6,0.8
		C75.6,255.6,76.3,254.7,76.3,253.5z"/>
	<path class="st3" d="M79.2,253.5c0-2,1.4-3.8,3.8-3.8c2.4,0,3.8,1.7,3.8,3.8c0,2-1.4,3.8-3.8,3.8C80.6,257.2,79.2,255.5,79.2,253.5
		z M84.8,253.5c0-1.1-0.7-2.1-1.8-2.1c-1.2,0-1.8,1-1.8,2.1c0,1.1,0.7,2.1,1.8,2.1C84.2,255.6,84.8,254.6,84.8,253.5z"/>
	<path class="st3" d="M87.6,256.1l0.8-1.4c0.5,0.5,1.6,1,2.5,1c0.8,0,1.2-0.3,1.2-0.8c0-1.2-4.2-0.2-4.2-3c0-1.2,1-2.3,2.9-2.3
		c1.2,0,2.2,0.4,2.9,1l-0.8,1.3c-0.4-0.4-1.2-0.8-2.1-0.8c-0.7,0-1.1,0.3-1.1,0.7c0,1.1,4.3,0.2,4.3,3.1c0,1.3-1.1,2.3-3.1,2.3
		C89.5,257.2,88.3,256.8,87.6,256.1z"/>
	<path class="st3" d="M104,257.1v-0.9c-0.6,0.7-1.3,1.1-2.2,1.1c-1.8,0-3.2-1.4-3.2-3.8c0-2.3,1.4-3.8,3.2-3.8
		c0.8,0,1.6,0.4,2.2,1.1v-3.7h1.9v9.9H104z M104,254.7v-2.5c-0.3-0.5-1-0.8-1.6-0.8c-1.1,0-1.8,0.8-1.8,2.1c0,1.2,0.7,2.1,1.8,2.1
		C103,255.6,103.7,255.2,104,254.7z"/>
	<path class="st3" d="M107.3,253.5c0-2.1,1.5-3.8,3.7-3.8c2.2,0,3.6,1.6,3.6,3.9v0.4h-5.3c0.1,0.9,0.8,1.6,2.1,1.6
		c0.6,0,1.4-0.3,1.9-0.7l0.8,1.2c-0.7,0.7-1.8,1-3,1C109,257.2,107.3,255.8,107.3,253.5z M111,251.3c-1.2,0-1.7,0.8-1.8,1.5h3.5
		C112.8,252.1,112.3,251.3,111,251.3z"/>
</g>
<g>
	<path class="st3" d="M46.7,273.1v-3.7h-1.2v-1.6h1.2v-2h1.9v2h1.5v1.6h-1.5v3.2c0,0.5,0.2,0.8,0.7,0.8c0.3,0,0.5-0.1,0.7-0.2
		l0.4,1.4c-0.3,0.3-0.8,0.5-1.6,0.5C47.4,275.1,46.7,274.4,46.7,273.1z"/>
	<path class="st3" d="M51.4,274.9v-7.2h1.9v1c0.5-0.6,1.4-1.1,2.3-1.1v1.8c-0.1,0-0.3,0-0.5,0c-0.6,0-1.5,0.4-1.8,0.8v4.7H51.4z"/>
	<path class="st3" d="M61,274.9v-0.8c-0.5,0.6-1.3,0.9-2.3,0.9c-1.1,0-2.5-0.8-2.5-2.4c0-1.7,1.3-2.3,2.5-2.3c1,0,1.8,0.3,2.3,0.9
		v-0.9c0-0.7-0.6-1.2-1.6-1.2c-0.8,0-1.5,0.3-2.1,0.8l-0.7-1.3c0.9-0.8,2-1.1,3.1-1.1c1.6,0,3.1,0.7,3.1,2.7v4.6H61z M61,273.2v-0.9
		c-0.3-0.4-0.9-0.6-1.5-0.6c-0.7,0-1.4,0.4-1.4,1.1c0,0.7,0.6,1.1,1.4,1.1C60.1,273.8,60.7,273.6,61,273.2z"/>
	<path class="st3" d="M65.2,273.1v-3.7H64v-1.6h1.2v-2H67v2h1.5v1.6H67v3.2c0,0.5,0.2,0.8,0.7,0.8c0.3,0,0.5-0.1,0.7-0.2l0.4,1.4
		c-0.3,0.3-0.8,0.5-1.6,0.5C65.9,275.1,65.2,274.4,65.2,273.1z"/>
	<path class="st3" d="M74.1,274.9v-0.8c-0.5,0.6-1.3,0.9-2.3,0.9c-1.1,0-2.5-0.8-2.5-2.4c0-1.7,1.3-2.3,2.5-2.3c1,0,1.8,0.3,2.3,0.9
		v-0.9c0-0.7-0.6-1.2-1.6-1.2c-0.8,0-1.5,0.3-2.1,0.8l-0.7-1.3c0.9-0.8,2-1.1,3.1-1.1c1.6,0,3.1,0.7,3.1,2.7v4.6H74.1z M74.1,273.2
		v-0.9c-0.3-0.4-0.9-0.6-1.5-0.6c-0.7,0-1.4,0.4-1.4,1.1c0,0.7,0.6,1.1,1.4,1.1C73.2,273.8,73.8,273.6,74.1,273.2z"/>
	<path class="st3" d="M86.8,274.9v-4.5c0-0.7-0.3-1.1-1.1-1.1c-0.7,0-1.2,0.4-1.5,0.8v4.8h-1.9v-4.5c0-0.7-0.3-1.1-1.1-1.1
		c-0.7,0-1.2,0.4-1.5,0.8v4.8h-1.9v-7.2h1.9v0.9c0.3-0.4,1.2-1.1,2.3-1.1c1.1,0,1.7,0.5,2,1.3c0.4-0.6,1.4-1.3,2.5-1.3
		c1.3,0,2.1,0.7,2.1,2.2v5.2H86.8z"/>
	<path class="st3" d="M90.4,265.8c0-0.6,0.5-1.1,1.1-1.1c0.6,0,1.1,0.5,1.1,1.1s-0.5,1.1-1.1,1.1C90.9,266.9,90.4,266.4,90.4,265.8z
		 M90.5,274.9v-7.2h1.9v7.2H90.5z"/>
	<path class="st3" d="M93.8,271.3c0-2.1,1.5-3.8,3.7-3.8c2.2,0,3.6,1.6,3.6,3.9v0.4h-5.3c0.1,0.9,0.8,1.6,2.1,1.6
		c0.6,0,1.4-0.3,1.9-0.7l0.8,1.2c-0.7,0.7-1.8,1-3,1C95.5,275.1,93.8,273.6,93.8,271.3z M97.5,269.1c-1.2,0-1.7,0.8-1.8,1.5h3.5
		C99.3,269.9,98.8,269.1,97.5,269.1z"/>
	<path class="st3" d="M107.3,274.9v-4.3c0-1-0.5-1.3-1.3-1.3c-0.7,0-1.3,0.4-1.6,0.8v4.8h-1.9v-7.2h1.9v0.9c0.5-0.5,1.4-1.1,2.5-1.1
		c1.6,0,2.3,0.9,2.3,2.3v5.1H107.3z"/>
	<path class="st3" d="M111.5,273.1v-3.7h-1.2v-1.6h1.2v-2h1.9v2h1.5v1.6h-1.5v3.2c0,0.5,0.2,0.8,0.7,0.8c0.3,0,0.5-0.1,0.7-0.2
		l0.4,1.4c-0.3,0.3-0.8,0.5-1.6,0.5C112.2,275.1,111.5,274.4,111.5,273.1z"/>
	<path class="st3" d="M115.7,271.3c0-2,1.4-3.8,3.8-3.8c2.4,0,3.8,1.7,3.8,3.8c0,2-1.4,3.8-3.8,3.8
		C117.1,275.1,115.7,273.3,115.7,271.3z M121.3,271.3c0-1.1-0.7-2.1-1.8-2.1c-1.2,0-1.8,1-1.8,2.1c0,1.1,0.7,2.1,1.8,2.1
		C120.6,273.4,121.3,272.4,121.3,271.3z"/>
</g>
<g>
	<path class="st3" d="M46.4,198.9V189H51c2.2,0,3.3,1.5,3.3,3.2c0,1.7-1.2,3.2-3.3,3.2h-2.5v3.5H46.4z M52.2,192.2
		c0-0.8-0.6-1.3-1.5-1.3h-2.2v2.7h2.2C51.6,193.5,52.2,193,52.2,192.2z"/>
	<path class="st3" d="M59.9,198.9v-0.8c-0.5,0.6-1.3,0.9-2.3,0.9c-1.1,0-2.5-0.8-2.5-2.4c0-1.7,1.3-2.3,2.5-2.3c1,0,1.8,0.3,2.3,0.9
		v-0.9c0-0.7-0.6-1.2-1.6-1.2c-0.8,0-1.5,0.3-2.1,0.8l-0.7-1.3c0.9-0.8,2-1.1,3.1-1.1c1.6,0,3.1,0.7,3.1,2.7v4.6H59.9z M59.9,197.2
		v-0.9c-0.3-0.4-0.9-0.6-1.5-0.6c-0.7,0-1.4,0.4-1.4,1.1c0,0.7,0.6,1.1,1.4,1.1C59,197.8,59.6,197.6,59.9,197.2z"/>
	<path class="st3" d="M63.2,195.3c0-2.2,1.6-3.8,3.8-3.8c1.5,0,2.4,0.6,2.8,1.3l-1.2,1.2c-0.3-0.5-0.9-0.8-1.5-0.8
		c-1.1,0-1.9,0.8-1.9,2.1s0.8,2.1,1.9,2.1c0.7,0,1.2-0.3,1.5-0.8l1.2,1.2c-0.5,0.7-1.4,1.3-2.8,1.3
		C64.8,199.1,63.2,197.5,63.2,195.3z"/>
	<path class="st3" d="M70.9,189.8c0-0.6,0.5-1.1,1.1-1.1c0.6,0,1.1,0.5,1.1,1.1s-0.5,1.1-1.1,1.1C71.4,190.9,70.9,190.4,70.9,189.8z
		 M71.1,198.9v-7.2H73v7.2H71.1z"/>
	<path class="st3" d="M74.4,195.3c0-2.1,1.5-3.8,3.7-3.8c2.2,0,3.6,1.6,3.6,3.9v0.4h-5.3c0.1,0.9,0.8,1.6,2.1,1.6
		c0.6,0,1.4-0.3,1.9-0.7l0.8,1.2c-0.7,0.7-1.8,1-3,1C76.1,199.1,74.4,197.6,74.4,195.3z M78.1,193.1c-1.2,0-1.7,0.8-1.8,1.5h3.5
		C79.8,193.9,79.4,193.1,78.1,193.1z"/>
	<path class="st3" d="M87.9,198.9v-4.3c0-1-0.5-1.3-1.3-1.3c-0.7,0-1.3,0.4-1.6,0.8v4.8h-1.9v-7.2H85v0.9c0.5-0.5,1.4-1.1,2.5-1.1
		c1.6,0,2.3,0.9,2.3,2.3v5.1H87.9z"/>
	<path class="st3" d="M92.1,197.1v-3.7h-1.2v-1.6h1.2v-2h1.9v2h1.5v1.6h-1.5v3.2c0,0.5,0.2,0.8,0.7,0.8c0.3,0,0.5-0.1,0.7-0.2
		l0.4,1.4c-0.3,0.3-0.8,0.5-1.6,0.5C92.8,199.1,92.1,198.4,92.1,197.1z"/>
	<path class="st3" d="M96.2,195.3c0-2.1,1.5-3.8,3.7-3.8c2.2,0,3.6,1.6,3.6,3.9v0.4h-5.3c0.1,0.9,0.8,1.6,2.1,1.6
		c0.6,0,1.4-0.3,1.9-0.7l0.8,1.2c-0.7,0.7-1.8,1-3,1C97.9,199.1,96.2,197.6,96.2,195.3z M99.9,193.1c-1.2,0-1.7,0.8-1.8,1.5h3.5
		C101.7,193.9,101.2,193.1,99.9,193.1z"/>
	<path class="st3" d="M104.3,197.9l0.8-1.4c0.5,0.5,1.6,1,2.5,1c0.8,0,1.2-0.3,1.2-0.8c0-1.2-4.2-0.2-4.2-3c0-1.2,1-2.3,2.9-2.3
		c1.2,0,2.2,0.4,2.9,1l-0.8,1.3c-0.4-0.4-1.2-0.8-2.1-0.8c-0.7,0-1.1,0.3-1.1,0.7c0,1.1,4.3,0.2,4.3,3.1c0,1.3-1.1,2.3-3.1,2.3
		C106.2,199.1,105,198.6,104.3,197.9z"/>
</g>
<g>
	<path class="st3" d="M50.7,216.7v-0.8c-0.5,0.6-1.3,0.9-2.3,0.9c-1.1,0-2.5-0.8-2.5-2.4c0-1.7,1.3-2.3,2.5-2.3c1,0,1.8,0.3,2.3,0.9
		v-0.9c0-0.7-0.6-1.2-1.6-1.2c-0.8,0-1.5,0.3-2.1,0.8l-0.7-1.3c0.9-0.8,2-1.1,3.1-1.1c1.6,0,3.1,0.7,3.1,2.7v4.6H50.7z M50.7,215
		v-0.9c-0.3-0.4-0.9-0.6-1.5-0.6c-0.7,0-1.4,0.4-1.4,1.1c0,0.7,0.6,1.1,1.4,1.1C49.7,215.6,50.3,215.4,50.7,215z"/>
	<path class="st3" d="M54.4,216.7v-9.9h1.9v9.9H54.4z"/>
	<path class="st3" d="M57.7,213.1c0-2.1,1.5-3.8,3.7-3.8c2.2,0,3.6,1.6,3.6,3.9v0.4h-5.3c0.1,0.9,0.8,1.6,2.1,1.6
		c0.6,0,1.4-0.3,1.9-0.7l0.8,1.2c-0.7,0.7-1.8,1-3,1C59.4,216.9,57.7,215.4,57.7,213.1z M61.4,210.9c-1.2,0-1.7,0.8-1.8,1.5h3.5
		C63.1,211.7,62.7,210.9,61.4,210.9z"/>
	<path class="st3" d="M70.7,216.7v-0.8c-0.5,0.6-1.3,0.9-2.3,0.9c-1.1,0-2.5-0.8-2.5-2.4c0-1.7,1.3-2.3,2.5-2.3c1,0,1.8,0.3,2.3,0.9
		v-0.9c0-0.7-0.6-1.2-1.6-1.2c-0.8,0-1.5,0.3-2.1,0.8l-0.7-1.3c0.9-0.8,2-1.1,3.1-1.1c1.6,0,3.1,0.7,3.1,2.7v4.6H70.7z M70.7,215
		v-0.9c-0.3-0.4-0.9-0.6-1.5-0.6c-0.7,0-1.4,0.4-1.4,1.1c0,0.7,0.6,1.1,1.4,1.1C69.8,215.6,70.4,215.4,70.7,215z"/>
	<path class="st3" d="M74.8,214.9v-3.7h-1.2v-1.6h1.2v-2h1.9v2h1.5v1.6h-1.5v3.2c0,0.5,0.2,0.8,0.7,0.8c0.3,0,0.5-0.1,0.7-0.2
		l0.4,1.4c-0.3,0.3-0.8,0.5-1.6,0.5C75.5,216.9,74.8,216.2,74.8,214.9z"/>
	<path class="st3" d="M79,213.1c0-2,1.4-3.8,3.8-3.8c2.4,0,3.8,1.7,3.8,3.8c0,2-1.4,3.8-3.8,3.8C80.4,216.9,79,215.1,79,213.1z
		 M84.6,213.1c0-1.1-0.7-2.1-1.8-2.1c-1.2,0-1.8,1-1.8,2.1c0,1.1,0.7,2.1,1.8,2.1C84,215.2,84.6,214.2,84.6,213.1z"/>
	<path class="st3" d="M88,216.7v-7.2h1.9v1c0.5-0.6,1.4-1.1,2.3-1.1v1.8c-0.1,0-0.3,0-0.5,0c-0.6,0-1.5,0.4-1.8,0.8v4.7H88z"/>
	<path class="st3" d="M93.2,207.6c0-0.6,0.5-1.1,1.1-1.1c0.6,0,1.1,0.5,1.1,1.1s-0.5,1.1-1.1,1.1C93.7,208.8,93.2,208.3,93.2,207.6z
		 M93.4,216.7v-7.2h1.9v7.2H93.4z"/>
	<path class="st3" d="M96.8,216.7v-1.4l3.2-4.1h-3.2v-1.6h5.8v1.4l-3.3,4.2h3.4v1.6H96.8z"/>
	<path class="st3" d="M108.5,216.7v-0.8c-0.5,0.6-1.3,0.9-2.3,0.9c-1.1,0-2.5-0.8-2.5-2.4c0-1.7,1.3-2.3,2.5-2.3
		c1,0,1.8,0.3,2.3,0.9v-0.9c0-0.7-0.6-1.2-1.6-1.2c-0.8,0-1.5,0.3-2.1,0.8l-0.7-1.3c0.9-0.8,2-1.1,3.1-1.1c1.6,0,3.1,0.7,3.1,2.7
		v4.6H108.5z M108.5,215v-0.9c-0.3-0.4-0.9-0.6-1.5-0.6c-0.7,0-1.4,0.4-1.4,1.1c0,0.7,0.6,1.1,1.4,1.1
		C107.6,215.6,108.2,215.4,108.5,215z"/>
	<path class="st3" d="M117.2,216.7v-0.9c-0.6,0.7-1.3,1.1-2.2,1.1c-1.8,0-3.2-1.4-3.2-3.8c0-2.3,1.4-3.8,3.2-3.8
		c0.8,0,1.6,0.4,2.2,1.1v-3.7h1.9v9.9H117.2z M117.2,214.4v-2.5c-0.3-0.5-1-0.8-1.6-0.8c-1.1,0-1.8,0.8-1.8,2.1
		c0,1.2,0.7,2.1,1.8,2.1C116.2,215.2,116.9,214.9,117.2,214.4z"/>
	<path class="st3" d="M120.5,213.1c0-2,1.4-3.8,3.8-3.8c2.4,0,3.8,1.7,3.8,3.8c0,2-1.4,3.8-3.8,3.8
		C122,216.9,120.5,215.1,120.5,213.1z M126.2,213.1c0-1.1-0.7-2.1-1.8-2.1c-1.2,0-1.8,1-1.8,2.1c0,1.1,0.7,2.1,1.8,2.1
		C125.5,215.2,126.2,214.2,126.2,213.1z"/>
	<path class="st3" d="M128.9,215.8l0.8-1.4c0.5,0.5,1.6,1,2.5,1c0.8,0,1.2-0.3,1.2-0.8c0-1.2-4.2-0.2-4.2-3c0-1.2,1-2.3,2.9-2.3
		c1.2,0,2.2,0.4,2.9,1l-0.8,1.3c-0.4-0.4-1.2-0.8-2.1-0.8c-0.7,0-1.1,0.3-1.1,0.7c0,1.1,4.3,0.2,4.3,3.1c0,1.3-1.1,2.3-3.1,2.3
		C130.9,216.9,129.7,216.5,128.9,215.8z"/>
</g>
<text transform="matrix(1 0 0 1 139.5029 216.6996)" class="st3 st4 st5">(N)</text>
<g>
	<path class="st3" d="M701.3,107c-1.1,0-1.6-0.6-1.6-1.7v-4.7h-1.2v-1h1.2v-2h1.1v2h1.5v1h-1.5v4.5c0,0.3,0.1,0.5,0.2,0.7
		s0.3,0.3,0.5,0.3c0.3,0,0.6-0.1,0.8-0.3l0.3,0.8C702.3,106.8,701.9,107,701.3,107z"/>
</g>
<g>
	<path class="st3" d="M697.3,106.8h-1.1v-1c-0.3,0.3-0.7,0.6-1.1,0.8c-0.5,0.2-0.9,0.3-1.4,0.3c-1.5,0-2.3-0.8-2.3-2.3v-5.1h1.1v4.7
		c0,0.6,0.1,1,0.4,1.3c0.3,0.2,0.7,0.4,1.2,0.4c0.4,0,0.8-0.1,1.2-0.3c0.4-0.2,0.7-0.5,0.9-0.8v-5.3h1.1V106.8z"/>
</g>
<g>
	<path class="st3" d="M689.1,106.8h-1.1V106c-0.6,0.7-1.4,1-2.4,1c-0.7,0-1.2-0.2-1.7-0.6s-0.8-1-0.8-1.7c0-0.8,0.2-1.3,0.7-1.8
		c0.5-0.4,1.1-0.6,1.8-0.6c1,0,1.8,0.3,2.4,1v-1.3c0-0.5-0.2-0.8-0.5-1.1s-0.8-0.4-1.3-0.4c-0.9,0-1.6,0.3-2.2,1l-0.5-0.8
		c0.8-0.8,1.7-1.2,2.9-1.2c0.8,0,1.5,0.2,2,0.6c0.5,0.4,0.8,1,0.8,1.8V106.8z M686,106.2c0.9,0,1.5-0.3,2-0.9v-1.4
		c-0.4-0.6-1.1-0.9-2-0.9c-0.5,0-1,0.1-1.3,0.4c-0.3,0.3-0.5,0.7-0.5,1.1c0,0.5,0.2,0.8,0.5,1.1C685,106.1,685.5,106.2,686,106.2z"
		/>
</g>
<g>
	<path class="st3" d="M680.9,107c-1.1,0-1.6-0.6-1.6-1.7v-4.7h-1.2v-1h1.2v-2h1.1v2h1.5v1h-1.5v4.5c0,0.3,0.1,0.5,0.2,0.7
		s0.3,0.3,0.5,0.3c0.3,0,0.6-0.1,0.8-0.3l0.3,0.8C681.9,106.8,681.5,107,680.9,107z"/>
</g>
<g>
	<path class="st3" d="M674.5,107c-1.2,0-2.2-0.4-2.9-1.1l0.6-0.8c0.2,0.3,0.6,0.5,1,0.7c0.4,0.2,0.9,0.3,1.3,0.3
		c0.5,0,1-0.1,1.3-0.3c0.3-0.2,0.5-0.5,0.5-0.9c0-0.3-0.2-0.6-0.5-0.8c-0.3-0.2-0.7-0.3-1.1-0.4s-0.9-0.2-1.3-0.3
		c-0.4-0.1-0.8-0.3-1.1-0.6c-0.3-0.3-0.5-0.7-0.5-1.2c0-0.6,0.2-1.1,0.7-1.5c0.5-0.4,1.1-0.6,1.9-0.6c1.1,0,2,0.3,2.7,1l-0.5,0.8
		c-0.5-0.6-1.2-0.9-2.1-0.9c-0.5,0-0.9,0.1-1.2,0.3s-0.4,0.5-0.4,0.8c0,0.2,0.1,0.4,0.3,0.6c0.2,0.2,0.5,0.3,0.8,0.3
		c0.3,0.1,0.7,0.2,1.1,0.3c0.4,0.1,0.7,0.2,1.1,0.4c0.3,0.1,0.6,0.4,0.8,0.7c0.2,0.3,0.3,0.7,0.3,1.1c0,0.6-0.2,1.2-0.7,1.6
		C676.1,106.8,675.4,107,674.5,107z"/>
</g>
<g>
	<path class="st3" d="M669.9,106.8h-1.1V106c-0.6,0.7-1.4,1-2.4,1c-0.7,0-1.2-0.2-1.7-0.6s-0.8-1-0.8-1.7c0-0.8,0.2-1.3,0.7-1.8
		c0.5-0.4,1.1-0.6,1.8-0.6c1,0,1.8,0.3,2.4,1v-1.3c0-0.5-0.2-0.8-0.5-1.1s-0.8-0.4-1.3-0.4c-0.9,0-1.6,0.3-2.2,1l-0.5-0.8
		c0.8-0.8,1.7-1.2,2.9-1.2c0.8,0,1.5,0.2,2,0.6c0.5,0.4,0.8,1,0.8,1.8V106.8z M666.9,106.2c0.9,0,1.5-0.3,2-0.9v-1.4
		c-0.4-0.6-1.1-0.9-2-0.9c-0.5,0-1,0.1-1.3,0.4c-0.3,0.3-0.5,0.7-0.5,1.1c0,0.5,0.2,0.8,0.5,1.1
		C665.9,106.1,666.3,106.2,666.9,106.2z"/>
</g>
<g>
	<path class="st3" d="M658.5,107c-1.4,0-2.6-0.5-3.6-1.4c-1-1-1.5-2.2-1.5-3.7c0-1.5,0.5-2.7,1.5-3.7c1-1,2.2-1.4,3.6-1.4
		c1.6,0,2.9,0.6,3.8,1.8l-1,0.6c-0.3-0.4-0.7-0.7-1.2-1c-0.5-0.2-1.1-0.4-1.6-0.4c-1.1,0-2,0.4-2.7,1.1s-1.1,1.7-1.1,2.9
		c0,1.2,0.4,2.1,1.1,2.9c0.7,0.8,1.6,1.1,2.7,1.1c0.5,0,1.1-0.1,1.5-0.3s0.9-0.5,1.1-0.8v-2h-3.4v-1.1h4.6v3.6
		C661.4,106.4,660.1,107,658.5,107z"/>
</g>
<g>
	<path class="st3" d="M652.2,103.7h-3.6v-1h3.6V103.7z"/>
</g>
<g>
	<path class="st3" d="M648,106.8h-1.3l-2.2-2.9l-2.2,2.9h-1.3l2.7-3.7l-2.6-3.5h1.3l2,2.7l2-2.7h1.3l-2.6,3.5L648,106.8z"/>
</g>
<g>
	<path class="st3" d="M639.3,105.9c-0.6,0.7-1.5,1.1-2.6,1.1s-1.9-0.4-2.6-1.1c-0.6-0.7-1-1.6-1-2.7c0-1.1,0.3-2,1-2.7
		s1.5-1.1,2.6-1.1s1.9,0.4,2.6,1.1s1,1.6,1,2.7C640.3,104.3,639.9,105.2,639.3,105.9z M635,105.2c0.4,0.5,1,0.8,1.7,0.8
		c0.7,0,1.3-0.3,1.7-0.8c0.4-0.5,0.6-1.2,0.6-2c0-0.8-0.2-1.4-0.6-2s-1-0.8-1.7-0.8c-0.7,0-1.3,0.3-1.7,0.8s-0.6,1.2-0.6,2
		C634.3,104,634.5,104.7,635,105.2z"/>
</g>
<g>
	<path class="st3" d="M631.3,106.8h-1.1v-4.7c0-0.6-0.1-1-0.4-1.3s-0.7-0.4-1.2-0.4c-0.4,0-0.8,0.1-1.2,0.3
		c-0.4,0.2-0.7,0.5-0.9,0.8v5.2h-1.1v-7.2h1.1v1c0.3-0.3,0.6-0.6,1.1-0.9c0.5-0.2,1-0.4,1.5-0.4c1.5,0,2.3,0.8,2.3,2.3V106.8z"/>
</g>
<g>
	<path class="st3" d="M623.1,106.8H622v-4.7c0-0.6-0.1-1-0.4-1.3s-0.7-0.4-1.2-0.4c-0.4,0-0.8,0.1-1.2,0.3c-0.4,0.2-0.7,0.5-0.9,0.8
		v5.2h-1.1v-7.2h1.1v1c0.3-0.3,0.6-0.6,1.1-0.9c0.5-0.2,1-0.4,1.5-0.4c1.5,0,2.3,0.8,2.3,2.3V106.8z"/>
</g>
<g>
	<path class="st3" d="M612.1,107c-1.1,0-2-0.3-2.6-1c-0.7-0.7-1-1.6-1-2.7c0-1,0.3-1.9,1-2.7c0.7-0.7,1.5-1.1,2.5-1.1
		c1.1,0,1.9,0.4,2.5,1.1c0.6,0.7,0.9,1.6,0.9,2.8v0.3h-5.8c0,0.7,0.3,1.3,0.8,1.8c0.5,0.5,1.1,0.7,1.8,0.7c0.9,0,1.6-0.3,2.2-0.9
		l0.5,0.7C614.2,106.6,613.2,107,612.1,107z M614.3,102.8c0-0.6-0.2-1.2-0.6-1.6s-1-0.7-1.7-0.7c-0.7,0-1.3,0.2-1.7,0.7
		c-0.4,0.5-0.6,1-0.7,1.6H614.3z"/>
</g>
<g>
	<path class="st3" d="M607.2,106.8h-5.8v-9.9h1.2v8.8h4.6V106.8z"/>
</g>
<g>
	<path class="st3" d="M345,107c-1.1,0-1.6-0.6-1.6-1.7v-4.7h-1.2v-1h1.2v-2h1.1v2h1.5v1h-1.5v4.5c0,0.3,0.1,0.5,0.2,0.7
		c0.1,0.2,0.3,0.3,0.5,0.3c0.3,0,0.6-0.1,0.8-0.3l0.3,0.8C346,106.8,345.5,107,345,107z"/>
</g>
<g>
	<path class="st3" d="M338.1,107c-1.1,0-2-0.3-2.6-1c-0.7-0.7-1-1.6-1-2.7c0-1,0.3-1.9,1-2.7c0.7-0.7,1.5-1.1,2.5-1.1
		c1.1,0,1.9,0.4,2.5,1.1c0.6,0.7,0.9,1.6,0.9,2.8v0.3h-5.8c0,0.7,0.3,1.3,0.8,1.8c0.5,0.5,1.1,0.7,1.8,0.7c0.9,0,1.6-0.3,2.2-0.9
		l0.5,0.7C340.1,106.6,339.2,107,338.1,107z M340.3,102.8c0-0.6-0.2-1.2-0.6-1.6c-0.4-0.5-1-0.7-1.7-0.7c-0.7,0-1.3,0.2-1.7,0.7
		c-0.4,0.5-0.6,1-0.7,1.6H340.3z"/>
</g>
<g>
	<path class="st3" d="M330.7,106.8h-1.2l-3-7.2h1.2l2.4,5.9l2.4-5.9h1.2L330.7,106.8z"/>
</g>
<g>
	<path class="st3" d="M325.3,106.8h-1.1V106c-0.6,0.7-1.4,1-2.4,1c-0.7,0-1.2-0.2-1.7-0.6s-0.8-1-0.8-1.7c0-0.8,0.2-1.3,0.7-1.8
		c0.5-0.4,1.1-0.6,1.8-0.6c1,0,1.8,0.3,2.4,1v-1.3c0-0.5-0.2-0.8-0.5-1.1c-0.3-0.3-0.8-0.4-1.3-0.4c-0.9,0-1.6,0.3-2.2,1l-0.5-0.8
		c0.8-0.8,1.7-1.2,2.9-1.2c0.8,0,1.5,0.2,2,0.6c0.5,0.4,0.8,1,0.8,1.8V106.8z M322.2,106.2c0.9,0,1.5-0.3,2-0.9v-1.4
		c-0.4-0.6-1.1-0.9-2-0.9c-0.5,0-1,0.1-1.3,0.4c-0.3,0.3-0.5,0.7-0.5,1.1c0,0.5,0.2,0.8,0.5,1.1
		C321.2,106.1,321.7,106.2,322.2,106.2z"/>
</g>
<g>
	<path class="st3" d="M315.9,106.8h-1.1v-7.2h1.1v1.1c0.7-0.9,1.5-1.3,2.4-1.3v1.1c-0.2,0-0.3,0-0.4,0c-0.3,0-0.7,0.1-1.1,0.3
		c-0.4,0.2-0.7,0.5-0.8,0.8V106.8z"/>
</g>
<g>
	<path class="st3" d="M307.8,106.8h-3.4v-9.9h3.4c1.5,0,2.7,0.5,3.7,1.4c0.9,0.9,1.4,2.1,1.4,3.5c0,1.4-0.5,2.6-1.4,3.6
		S309.3,106.8,307.8,106.8z M307.8,105.7c1.2,0,2.1-0.4,2.8-1.1c0.7-0.7,1-1.6,1-2.7c0-1.1-0.3-2-1-2.8c-0.7-0.7-1.6-1.1-2.8-1.1
		h-2.2v7.7H307.8z"/>
</g>
<g>
	<path class="st3" d="M301.4,158.4h-6.8v-1c2-1.6,3.5-2.8,4.3-3.7c0.8-0.9,1.2-1.7,1.2-2.5c0-0.6-0.2-1-0.6-1.4
		c-0.4-0.3-0.9-0.5-1.5-0.5c-1.1,0-2,0.4-2.7,1.2l-0.8-0.8c0.4-0.5,0.9-0.9,1.5-1.2s1.3-0.4,2-0.4c0.9,0,1.7,0.3,2.3,0.8
		c0.7,0.5,1,1.2,1,2.2c0,0.9-0.4,1.8-1.2,2.8c-0.8,0.9-2,2-3.6,3.3h4.9V158.4z"/>
	<path class="st3" d="M306.5,155.2h-3.6v-1h3.6V155.2z"/>
	<path class="st3" d="M310.8,158.4h-1.2v-8.3l-1.6,1.7l-0.7-0.8l2.5-2.6h1.1V158.4z"/>
	<path class="st3" d="M318.8,157.8c-0.7,0.5-1.5,0.7-2.5,0.7c-1,0-1.9-0.2-2.5-0.7c-0.7-0.5-1-1.1-1-2c0-0.6,0.2-1.2,0.7-1.6
		c0.5-0.5,1-0.8,1.7-1c-0.6-0.2-1.2-0.5-1.6-0.9c-0.4-0.4-0.6-0.9-0.6-1.5c0-0.8,0.3-1.5,1-1.9s1.5-0.7,2.4-0.7s1.7,0.2,2.4,0.7
		s1,1.1,1,1.9c0,0.6-0.2,1.1-0.6,1.5c-0.4,0.4-0.9,0.7-1.6,0.9c0.7,0.2,1.2,0.5,1.7,1c0.5,0.5,0.7,1,0.7,1.6
		C319.9,156.7,319.5,157.3,318.8,157.8z M316.3,157.4c0.6,0,1.2-0.2,1.6-0.5c0.5-0.3,0.7-0.7,0.7-1.2c0-0.4-0.2-0.7-0.5-1
		s-0.6-0.5-1-0.6s-0.6-0.2-0.9-0.2c-0.3,0-0.6,0.1-0.9,0.2s-0.6,0.3-1,0.6s-0.5,0.7-0.5,1c0,0.5,0.2,0.9,0.7,1.2
		C315.1,157.3,315.7,157.4,316.3,157.4z M316.3,152.7c0.2,0,0.4-0.1,0.6-0.1c0.2-0.1,0.4-0.2,0.7-0.3c0.3-0.1,0.5-0.3,0.6-0.5
		c0.2-0.2,0.2-0.5,0.2-0.8c0-0.5-0.2-0.9-0.6-1.2c-0.4-0.3-0.9-0.4-1.5-0.4c-0.6,0-1.1,0.1-1.5,0.4c-0.4,0.3-0.6,0.7-0.6,1.2
		c0,0.3,0.1,0.5,0.2,0.8c0.2,0.2,0.4,0.4,0.6,0.5c0.3,0.1,0.5,0.2,0.7,0.3C315.9,152.7,316.1,152.7,316.3,152.7z"/>
	<path class="st3" d="M331.2,158.4h-1.1v-0.8c-0.6,0.7-1.4,1-2.4,1c-0.7,0-1.2-0.2-1.7-0.6s-0.8-1-0.8-1.7c0-0.8,0.2-1.3,0.7-1.8
		c0.5-0.4,1.1-0.6,1.8-0.6c1,0,1.8,0.3,2.4,1v-1.3c0-0.5-0.2-0.8-0.5-1.1c-0.3-0.3-0.8-0.4-1.3-0.4c-0.9,0-1.6,0.3-2.2,1l-0.5-0.8
		c0.8-0.8,1.7-1.2,2.9-1.2c0.8,0,1.5,0.2,2,0.6c0.5,0.4,0.8,1,0.8,1.8V158.4z M328.1,157.7c0.9,0,1.5-0.3,2-0.9v-1.4
		c-0.4-0.6-1.1-0.9-2-0.9c-0.5,0-1,0.1-1.3,0.4c-0.3,0.3-0.5,0.7-0.5,1.1c0,0.5,0.2,0.8,0.5,1.1
		C327.2,157.6,327.6,157.7,328.1,157.7z"/>
	<path class="st3" d="M339.4,158.4h-1.1v-4.7c0-0.6-0.1-1-0.4-1.3s-0.7-0.4-1.2-0.4c-0.4,0-0.8,0.1-1.2,0.3s-0.7,0.5-0.9,0.8v5.2
		h-1.1v-7.2h1.1v1c0.3-0.3,0.6-0.6,1.1-0.9c0.5-0.2,1-0.4,1.5-0.4c1.5,0,2.3,0.8,2.3,2.3V158.4z M337.3,150.1
		c-0.2,0-0.4-0.1-0.6-0.2s-0.3-0.3-0.4-0.5c-0.1-0.2-0.2-0.3-0.3-0.5c-0.1-0.1-0.3-0.2-0.4-0.2c-0.2,0-0.4,0.1-0.5,0.3
		s-0.2,0.5-0.2,1h-0.7c0-0.6,0.1-1.1,0.4-1.4s0.6-0.5,1.1-0.5c0.2,0,0.4,0.1,0.6,0.2c0.2,0.1,0.3,0.3,0.4,0.5
		c0.1,0.2,0.2,0.3,0.3,0.5s0.3,0.2,0.4,0.2c0.2,0,0.4-0.1,0.5-0.3s0.2-0.5,0.2-1h0.7c0,0.6-0.1,1.1-0.4,1.4
		C338.1,149.9,337.8,150.1,337.3,150.1z"/>
	<path class="st3" d="M347.3,157.4c-0.6,0.7-1.5,1.1-2.6,1.1s-1.9-0.4-2.6-1.1c-0.6-0.7-1-1.6-1-2.7c0-1.1,0.3-2,1-2.7
		s1.5-1.1,2.6-1.1s1.9,0.4,2.6,1.1c0.6,0.7,1,1.6,1,2.7C348.3,155.8,348,156.7,347.3,157.4z M343,156.7c0.4,0.5,1,0.8,1.7,0.8
		c0.7,0,1.3-0.3,1.7-0.8c0.4-0.5,0.6-1.2,0.6-2c0-0.8-0.2-1.4-0.6-2s-1-0.8-1.7-0.8c-0.7,0-1.3,0.3-1.7,0.8s-0.6,1.2-0.6,2
		C342.4,155.5,342.6,156.2,343,156.7z"/>
	<path class="st3" d="M352.4,158.5c-1.2,0-2.2-0.4-2.9-1.1l0.6-0.8c0.2,0.3,0.6,0.5,1,0.7c0.4,0.2,0.9,0.3,1.3,0.3
		c0.5,0,1-0.1,1.3-0.3c0.3-0.2,0.5-0.5,0.5-0.9c0-0.3-0.2-0.6-0.5-0.8c-0.3-0.2-0.7-0.3-1.1-0.4c-0.4-0.1-0.9-0.2-1.3-0.3
		c-0.4-0.1-0.8-0.3-1.1-0.6c-0.3-0.3-0.5-0.7-0.5-1.2c0-0.6,0.2-1.1,0.7-1.5c0.5-0.4,1.1-0.6,1.9-0.6c1.1,0,2,0.3,2.7,1l-0.5,0.8
		c-0.5-0.6-1.2-0.9-2.1-0.9c-0.5,0-0.9,0.1-1.2,0.3s-0.4,0.5-0.4,0.8c0,0.2,0.1,0.4,0.3,0.6s0.5,0.3,0.8,0.3
		c0.3,0.1,0.7,0.2,1.1,0.3c0.4,0.1,0.7,0.2,1.1,0.4c0.3,0.1,0.6,0.4,0.8,0.7c0.2,0.3,0.3,0.7,0.3,1.1c0,0.6-0.2,1.2-0.7,1.6
		C354,158.3,353.3,158.5,352.4,158.5z"/>
</g>
<g>
	<path class="st3" d="M241.8,207.6h-1.2v-8.3l-1.6,1.7l-0.7-0.8l2.5-2.6h1.1V207.6z"/>
	<path class="st3" d="M250.5,207.6h-6.8v-1c2-1.6,3.5-2.8,4.3-3.7c0.8-0.9,1.2-1.7,1.2-2.5c0-0.6-0.2-1-0.6-1.4
		c-0.4-0.3-0.9-0.5-1.5-0.5c-1.1,0-2,0.4-2.7,1.2l-0.8-0.8c0.4-0.5,0.9-0.9,1.5-1.2s1.3-0.4,2-0.4c0.9,0,1.7,0.3,2.3,0.8
		c0.7,0.5,1,1.2,1,2.2c0,0.9-0.4,1.8-1.2,2.8c-0.8,0.9-2,2-3.6,3.3h4.9V207.6z"/>
	<path class="st3" d="M256.2,207.7c-0.7,0-1.2-0.2-1.7-0.5c-0.5-0.3-0.9-0.7-1.2-1.2s-0.5-1-0.7-1.6c-0.1-0.6-0.2-1.2-0.2-1.8
		c0-0.6,0.1-1.2,0.2-1.8s0.4-1.1,0.7-1.6s0.7-0.9,1.2-1.2c0.5-0.3,1.1-0.5,1.7-0.5c0.6,0,1.2,0.2,1.7,0.5c0.5,0.3,0.9,0.7,1.2,1.2
		c0.3,0.5,0.5,1,0.7,1.6s0.2,1.2,0.2,1.8c0,0.6-0.1,1.2-0.2,1.8c-0.1,0.6-0.4,1.1-0.7,1.6c-0.3,0.5-0.7,0.9-1.2,1.2
		C257.4,207.6,256.8,207.7,256.2,207.7z M254.7,206c0.4,0.4,0.9,0.6,1.5,0.6c0.6,0,1.1-0.2,1.5-0.6c0.4-0.4,0.7-0.9,0.8-1.5
		s0.2-1.2,0.2-1.9c0-0.7-0.1-1.4-0.2-1.9s-0.4-1.1-0.8-1.5c-0.4-0.4-0.9-0.6-1.5-0.6c-0.6,0-1.1,0.2-1.5,0.6
		c-0.4,0.4-0.7,0.9-0.8,1.5c-0.1,0.6-0.2,1.2-0.2,1.9c0,0.7,0.1,1.4,0.2,1.9C254,205.1,254.3,205.6,254.7,206z"/>
</g>
<g>
	<path class="st3" d="M344.3,252.3c0.3,0.3,0.5,0.7,0.5,1.1c0,0.4-0.2,0.8-0.5,1.1s-0.7,0.5-1.1,0.5c-0.4,0-0.8-0.2-1.1-0.5
		c-0.3-0.3-0.5-0.7-0.5-1.1c0-0.4,0.2-0.8,0.5-1.1c0.3-0.3,0.7-0.5,1.1-0.5C343.6,251.9,344,252,344.3,252.3z"/>
	<path class="st3" d="M355.5,257.2c-1.4,0-2.7-0.5-3.6-1.4c-1-1-1.5-2.2-1.5-3.7c0-1.5,0.5-2.7,1.5-3.7c1-1,2.2-1.4,3.6-1.4
		c1.6,0,2.8,0.7,3.8,2l-1,0.6c-0.3-0.4-0.7-0.8-1.2-1c-0.5-0.3-1-0.4-1.6-0.4c-1.1,0-2,0.4-2.7,1.1c-0.7,0.8-1.1,1.7-1.1,2.9
		c0,1.2,0.4,2.1,1.1,2.9c0.7,0.8,1.6,1.1,2.7,1.1c0.6,0,1.1-0.1,1.6-0.4c0.5-0.3,0.9-0.6,1.2-1l1,0.6
		C358.3,256.6,357.1,257.2,355.5,257.2z"/>
	<path class="st3" d="M365.4,257.1h-4.5v-9.9h4.4c0.9,0,1.5,0.2,2,0.7s0.8,1.1,0.8,1.8c0,0.6-0.2,1.1-0.5,1.5
		c-0.3,0.4-0.7,0.7-1.2,0.8c0.5,0.1,1,0.4,1.4,0.8c0.4,0.5,0.6,1,0.6,1.6c0,0.8-0.3,1.4-0.8,1.9C367,256.8,366.3,257.1,365.4,257.1z
		 M365.1,251.4c0.5,0,1-0.1,1.3-0.4s0.4-0.7,0.4-1.1s-0.2-0.8-0.5-1.2c-0.3-0.3-0.7-0.5-1.3-0.5h-3v3.2H365.1z M365.1,256
		c0.6,0,1-0.2,1.3-0.5c0.3-0.3,0.5-0.7,0.5-1.2c0-0.5-0.2-0.9-0.5-1.2c-0.3-0.3-0.8-0.5-1.3-0.5h-3v3.4H365.1z"/>
	<path class="st3" d="M373.6,257.1h-3.4v-9.9h3.4c1.5,0,2.7,0.5,3.7,1.4c0.9,0.9,1.4,2.1,1.4,3.5c0,1.4-0.5,2.6-1.4,3.6
		S375.1,257.1,373.6,257.1z M373.6,256c1.2,0,2.1-0.4,2.8-1.1c0.7-0.7,1-1.6,1-2.7c0-1.1-0.3-2-1-2.8c-0.7-0.7-1.6-1.1-2.8-1.1h-2.2
		v7.7H373.6z"/>
	<path class="st3" d="M387.2,257.1h-1.2v-8.3l-1.6,1.7l-0.7-0.8l2.5-2.6h1.1V257.1z"/>
	<path class="st3" d="M392.9,257.2c-0.7,0-1.2-0.2-1.7-0.5c-0.5-0.3-0.9-0.7-1.2-1.2s-0.5-1-0.7-1.6c-0.1-0.6-0.2-1.2-0.2-1.8
		c0-0.6,0.1-1.2,0.2-1.8s0.4-1.1,0.7-1.6s0.7-0.9,1.2-1.2c0.5-0.3,1.1-0.5,1.7-0.5c0.6,0,1.2,0.2,1.7,0.5c0.5,0.3,0.9,0.7,1.2,1.2
		c0.3,0.5,0.5,1,0.7,1.6s0.2,1.2,0.2,1.8c0,0.6-0.1,1.2-0.2,1.8c-0.1,0.6-0.4,1.1-0.7,1.6c-0.3,0.5-0.7,0.9-1.2,1.2
		C394.1,257.1,393.5,257.2,392.9,257.2z M391.4,255.5c0.4,0.4,0.9,0.6,1.5,0.6c0.6,0,1.1-0.2,1.5-0.6c0.4-0.4,0.7-0.9,0.8-1.5
		s0.2-1.2,0.2-1.9c0-0.7-0.1-1.4-0.2-1.9s-0.4-1.1-0.8-1.5c-0.4-0.4-0.9-0.6-1.5-0.6c-0.6,0-1.1,0.2-1.5,0.6
		c-0.4,0.4-0.7,0.9-0.8,1.5c-0.1,0.6-0.2,1.2-0.2,1.9c0,0.7,0.1,1.4,0.2,1.9C390.7,254.6,391,255.1,391.4,255.5z"/>
	<path class="st3" d="M412.2,257.1H411v-4.9c0-1-0.4-1.5-1.3-1.5c-0.4,0-0.7,0.1-1.1,0.3s-0.6,0.5-0.8,0.8v5.3h-1.1v-4.9
		c0-1-0.4-1.5-1.3-1.5c-0.3,0-0.7,0.1-1,0.3c-0.4,0.2-0.6,0.5-0.8,0.8v5.2h-1.1v-7.2h1.1v1c0.2-0.3,0.5-0.6,0.9-0.8
		c0.4-0.3,0.9-0.4,1.4-0.4c0.5,0,0.9,0.1,1.3,0.4c0.3,0.2,0.5,0.6,0.7,1c0.2-0.4,0.5-0.7,1-0.9c0.4-0.3,0.9-0.4,1.4-0.4
		c1.3,0,2,0.7,2,2.2V257.1z"/>
	<path class="st3" d="M417.3,260c-0.6,0-1.2-0.1-1.6-0.2c-0.4-0.2-0.9-0.4-1.3-0.8l0.6-0.8c0.5,0.6,1.3,1,2.3,1
		c0.7,0,1.2-0.2,1.6-0.5c0.4-0.3,0.7-0.9,0.7-1.6v-1.1c-0.3,0.4-0.6,0.7-1.1,0.9c-0.4,0.2-0.9,0.3-1.4,0.3c-1,0-1.7-0.3-2.3-1
		c-0.6-0.7-0.9-1.6-0.9-2.7s0.3-2,0.9-2.7c0.6-0.7,1.4-1,2.3-1c1,0,1.8,0.4,2.4,1.3v-1.1h1.1v7.1c0,1-0.3,1.8-1,2.3
		C419.1,259.7,418.3,260,417.3,260z M417.4,256.2c0.4,0,0.8-0.1,1.2-0.3c0.4-0.2,0.7-0.5,0.9-0.8v-3.1c-0.2-0.3-0.5-0.6-0.9-0.8
		c-0.4-0.2-0.8-0.3-1.2-0.3c-0.7,0-1.3,0.3-1.7,0.8s-0.6,1.2-0.6,2c0,0.8,0.2,1.5,0.6,2S416.7,256.2,417.4,256.2z"/>
	<path class="st3" d="M422.7,257.4h-0.9l3.5-10.5h0.9L422.7,257.4z"/>
	<path class="st3" d="M433.6,257.1h-1.4l-2.6-3.2l-1.2,1.2v2h-1.1v-9.9h1.1v6.6l3.8-3.8h1.4l-3.2,3.3L433.6,257.1z"/>
	<path class="st3" d="M437.8,260c-0.6,0-1.2-0.1-1.6-0.2c-0.4-0.2-0.9-0.4-1.3-0.8l0.6-0.8c0.5,0.6,1.3,1,2.3,1
		c0.7,0,1.2-0.2,1.6-0.5c0.4-0.3,0.7-0.9,0.7-1.6v-1.1c-0.3,0.4-0.6,0.7-1.1,0.9c-0.4,0.2-0.9,0.3-1.4,0.3c-1,0-1.7-0.3-2.3-1
		c-0.6-0.7-0.9-1.6-0.9-2.7s0.3-2,0.9-2.7c0.6-0.7,1.4-1,2.3-1c1,0,1.8,0.4,2.4,1.3v-1.1h1.1v7.1c0,1-0.3,1.8-1,2.3
		C439.6,259.7,438.8,260,437.8,260z M438,256.2c0.4,0,0.8-0.1,1.2-0.3c0.4-0.2,0.7-0.5,0.9-0.8v-3.1c-0.2-0.3-0.5-0.6-0.9-0.8
		c-0.4-0.2-0.8-0.3-1.2-0.3c-0.7,0-1.3,0.3-1.7,0.8s-0.6,1.2-0.6,2c0,0.8,0.2,1.5,0.6,2S437.3,256.2,438,256.2z"/>
	<path class="st3" d="M443.3,257.4h-0.9l3.5-10.5h0.9L443.3,257.4z"/>
	<path class="st3" d="M454.2,257.1h-1.1V256c-0.6,0.8-1.4,1.2-2.4,1.2c-1,0-1.7-0.3-2.3-1c-0.6-0.7-0.9-1.6-0.9-2.7
		c0-1.1,0.3-2.1,0.9-2.7c0.6-0.7,1.4-1,2.3-1c1,0,1.8,0.4,2.4,1.3v-3.8h1.1V257.1z M451,256.2c0.4,0,0.8-0.1,1.2-0.3
		c0.4-0.2,0.7-0.5,0.9-0.8v-3.2c-0.2-0.3-0.5-0.6-0.9-0.8s-0.8-0.3-1.2-0.3c-0.7,0-1.3,0.3-1.7,0.8c-0.4,0.5-0.6,1.2-0.6,2
		s0.2,1.5,0.6,2C449.7,256,450.2,256.2,451,256.2z"/>
	<path class="st3" d="M459.4,246.7l-2.5,2.1H456l2.2-2.1H459.4z M457.5,257.1h-1.1v-7.2h1.1V257.1z"/>
	<path class="st3" d="M465.4,257.1h-1.1v-0.8c-0.6,0.7-1.4,1-2.4,1c-0.7,0-1.2-0.2-1.7-0.6s-0.8-1-0.8-1.7c0-0.8,0.2-1.3,0.7-1.8
		c0.5-0.4,1.1-0.6,1.8-0.6c1,0,1.8,0.3,2.4,1v-1.3c0-0.5-0.2-0.8-0.5-1.1s-0.8-0.4-1.3-0.4c-0.9,0-1.6,0.3-2.2,1l-0.5-0.8
		c0.8-0.8,1.7-1.2,2.9-1.2c0.8,0,1.5,0.2,2,0.6c0.5,0.4,0.8,1,0.8,1.8V257.1z M462.3,256.4c0.9,0,1.5-0.3,2-0.9v-1.4
		c-0.4-0.6-1.1-0.9-2-0.9c-0.5,0-1,0.1-1.3,0.4c-0.3,0.3-0.5,0.7-0.5,1.1c0,0.5,0.2,0.8,0.5,1.1
		C461.3,256.3,461.8,256.4,462.3,256.4z"/>
</g>
<g>
	<path class="st3" d="M344.3,270.2c0.3,0.3,0.5,0.7,0.5,1.1c0,0.4-0.2,0.8-0.5,1.1s-0.7,0.5-1.1,0.5c-0.4,0-0.8-0.2-1.1-0.5
		c-0.3-0.3-0.5-0.7-0.5-1.1c0-0.4,0.2-0.8,0.5-1.1c0.3-0.3,0.7-0.5,1.1-0.5C343.6,269.7,344,269.8,344.3,270.2z"/>
	<path class="st3" d="M355.5,275.1c-1.4,0-2.7-0.5-3.6-1.4c-1-1-1.5-2.2-1.5-3.7c0-1.5,0.5-2.7,1.5-3.7c1-1,2.2-1.4,3.6-1.4
		c1.6,0,2.8,0.7,3.8,2l-1,0.6c-0.3-0.4-0.7-0.8-1.2-1c-0.5-0.3-1-0.4-1.6-0.4c-1.1,0-2,0.4-2.7,1.1c-0.7,0.8-1.1,1.7-1.1,2.9
		c0,1.2,0.4,2.1,1.1,2.9c0.7,0.8,1.6,1.1,2.7,1.1c0.6,0,1.1-0.1,1.6-0.4c0.5-0.3,0.9-0.6,1.2-1l1,0.6
		C358.3,274.4,357.1,275.1,355.5,275.1z"/>
	<path class="st3" d="M365.4,274.9h-4.5V265h4.4c0.9,0,1.5,0.2,2,0.7s0.8,1.1,0.8,1.8c0,0.6-0.2,1.1-0.5,1.5
		c-0.3,0.4-0.7,0.7-1.2,0.8c0.5,0.1,1,0.4,1.4,0.8c0.4,0.5,0.6,1,0.6,1.6c0,0.8-0.3,1.4-0.8,1.9C367,274.6,366.3,274.9,365.4,274.9z
		 M365.1,269.3c0.5,0,1-0.1,1.3-0.4s0.4-0.7,0.4-1.1s-0.2-0.8-0.5-1.2c-0.3-0.3-0.7-0.5-1.3-0.5h-3v3.2H365.1z M365.1,273.8
		c0.6,0,1-0.2,1.3-0.5c0.3-0.3,0.5-0.7,0.5-1.2c0-0.5-0.2-0.9-0.5-1.2c-0.3-0.3-0.8-0.5-1.3-0.5h-3v3.4H365.1z"/>
	<path class="st3" d="M373.6,274.9h-3.4V265h3.4c1.5,0,2.7,0.5,3.7,1.4c0.9,0.9,1.4,2.1,1.4,3.5c0,1.4-0.5,2.6-1.4,3.6
		S375.1,274.9,373.6,274.9z M373.6,273.8c1.2,0,2.1-0.4,2.8-1.1c0.7-0.7,1-1.6,1-2.7c0-1.1-0.3-2-1-2.8c-0.7-0.7-1.6-1.1-2.8-1.1
		h-2.2v7.7H373.6z"/>
	<path class="st3" d="M390.9,274.9h-6.8v-1c2-1.6,3.5-2.8,4.3-3.7c0.8-0.9,1.2-1.7,1.2-2.5c0-0.6-0.2-1-0.6-1.4
		c-0.4-0.3-0.9-0.5-1.5-0.5c-1.1,0-2,0.4-2.7,1.2l-0.8-0.8c0.4-0.5,0.9-0.9,1.5-1.2s1.3-0.4,2-0.4c0.9,0,1.7,0.3,2.3,0.8
		c0.7,0.5,1,1.2,1,2.2c0,0.9-0.4,1.8-1.2,2.8c-0.8,0.9-2,2-3.6,3.3h4.9V274.9z"/>
	<path class="st3" d="M396.6,275.1c-0.7,0-1.2-0.2-1.7-0.5c-0.5-0.3-0.9-0.7-1.2-1.2s-0.5-1-0.7-1.6c-0.1-0.6-0.2-1.2-0.2-1.8
		c0-0.6,0.1-1.2,0.2-1.8s0.4-1.1,0.7-1.6s0.7-0.9,1.2-1.2c0.5-0.3,1.1-0.5,1.7-0.5c0.6,0,1.2,0.2,1.7,0.5c0.5,0.3,0.9,0.7,1.2,1.2
		c0.3,0.5,0.5,1,0.7,1.6s0.2,1.2,0.2,1.8c0,0.6-0.1,1.2-0.2,1.8c-0.1,0.6-0.4,1.1-0.7,1.6c-0.3,0.5-0.7,0.9-1.2,1.2
		C397.8,274.9,397.2,275.1,396.6,275.1z M395.1,273.3c0.4,0.4,0.9,0.6,1.5,0.6c0.6,0,1.1-0.2,1.5-0.6c0.4-0.4,0.7-0.9,0.8-1.5
		s0.2-1.2,0.2-1.9c0-0.7-0.1-1.4-0.2-1.9s-0.4-1.1-0.8-1.5c-0.4-0.4-0.9-0.6-1.5-0.6c-0.6,0-1.1,0.2-1.5,0.6
		c-0.4,0.4-0.7,0.9-0.8,1.5c-0.1,0.6-0.2,1.2-0.2,1.9c0,0.7,0.1,1.4,0.2,1.9C394.4,272.4,394.7,272.9,395.1,273.3z"/>
	<path class="st3" d="M415.9,274.9h-1.1V270c0-1-0.4-1.5-1.3-1.5c-0.4,0-0.7,0.1-1.1,0.3s-0.6,0.5-0.8,0.8v5.3h-1.1V270
		c0-1-0.4-1.5-1.3-1.5c-0.3,0-0.7,0.1-1,0.3c-0.4,0.2-0.6,0.5-0.8,0.8v5.2h-1.1v-7.2h1.1v1c0.2-0.3,0.5-0.6,0.9-0.8
		c0.4-0.3,0.9-0.4,1.4-0.4c0.5,0,0.9,0.1,1.3,0.4c0.3,0.2,0.5,0.6,0.7,1c0.2-0.4,0.5-0.7,1-0.9c0.4-0.3,0.9-0.4,1.4-0.4
		c1.3,0,2,0.7,2,2.2V274.9z"/>
	<path class="st3" d="M421,277.8c-0.6,0-1.2-0.1-1.6-0.2c-0.4-0.2-0.9-0.4-1.3-0.8l0.6-0.8c0.5,0.6,1.3,1,2.3,1
		c0.7,0,1.2-0.2,1.6-0.5c0.4-0.3,0.7-0.9,0.7-1.6v-1.1c-0.3,0.4-0.6,0.7-1.1,0.9c-0.4,0.2-0.9,0.3-1.4,0.3c-1,0-1.7-0.3-2.3-1
		c-0.6-0.7-0.9-1.6-0.9-2.7s0.3-2,0.9-2.7c0.6-0.7,1.4-1,2.3-1c1,0,1.8,0.4,2.4,1.3v-1.1h1.1v7.1c0,1-0.3,1.8-1,2.3
		C422.8,277.6,422,277.8,421,277.8z M421.1,274c0.4,0,0.8-0.1,1.2-0.3c0.4-0.2,0.7-0.5,0.9-0.8v-3.1c-0.2-0.3-0.5-0.6-0.9-0.8
		c-0.4-0.2-0.8-0.3-1.2-0.3c-0.7,0-1.3,0.3-1.7,0.8s-0.6,1.2-0.6,2c0,0.8,0.2,1.5,0.6,2S420.4,274,421.1,274z"/>
	<path class="st3" d="M426.4,275.2h-0.9l3.5-10.5h0.9L426.4,275.2z"/>
	<path class="st3" d="M437.3,274.9h-1.4l-2.6-3.2l-1.2,1.2v2H431V265h1.1v6.6l3.8-3.8h1.4l-3.2,3.3L437.3,274.9z"/>
	<path class="st3" d="M441.5,277.8c-0.6,0-1.2-0.1-1.6-0.2c-0.4-0.2-0.9-0.4-1.3-0.8l0.6-0.8c0.5,0.6,1.3,1,2.3,1
		c0.7,0,1.2-0.2,1.6-0.5c0.4-0.3,0.7-0.9,0.7-1.6v-1.1c-0.3,0.4-0.6,0.7-1.1,0.9c-0.4,0.2-0.9,0.3-1.4,0.3c-1,0-1.7-0.3-2.3-1
		c-0.6-0.7-0.9-1.6-0.9-2.7s0.3-2,0.9-2.7c0.6-0.7,1.4-1,2.3-1c1,0,1.8,0.4,2.4,1.3v-1.1h1.1v7.1c0,1-0.3,1.8-1,2.3
		C443.3,277.6,442.5,277.8,441.5,277.8z M441.7,274c0.4,0,0.8-0.1,1.2-0.3c0.4-0.2,0.7-0.5,0.9-0.8v-3.1c-0.2-0.3-0.5-0.6-0.9-0.8
		c-0.4-0.2-0.8-0.3-1.2-0.3c-0.7,0-1.3,0.3-1.7,0.8s-0.6,1.2-0.6,2c0,0.8,0.2,1.5,0.6,2S441,274,441.7,274z"/>
	<path class="st3" d="M447,275.2h-0.9l3.5-10.5h0.9L447,275.2z"/>
	<path class="st3" d="M457.9,274.9h-1.1v-1.1c-0.6,0.8-1.4,1.2-2.4,1.2c-1,0-1.7-0.3-2.3-1c-0.6-0.7-0.9-1.6-0.9-2.7
		c0-1.1,0.3-2.1,0.9-2.7c0.6-0.7,1.4-1,2.3-1c1,0,1.8,0.4,2.4,1.3V265h1.1V274.9z M454.6,274.1c0.4,0,0.8-0.1,1.2-0.3
		c0.4-0.2,0.7-0.5,0.9-0.8v-3.2c-0.2-0.3-0.5-0.6-0.9-0.8s-0.8-0.3-1.2-0.3c-0.7,0-1.3,0.3-1.7,0.8c-0.4,0.5-0.6,1.2-0.6,2
		s0.2,1.5,0.6,2C453.4,273.8,453.9,274.1,454.6,274.1z"/>
	<path class="st3" d="M463.1,264.5l-2.5,2.1h-0.8l2.2-2.1H463.1z M461.2,274.9h-1.1v-7.2h1.1V274.9z"/>
	<path class="st3" d="M469.1,274.9H468v-0.8c-0.6,0.7-1.4,1-2.4,1c-0.7,0-1.2-0.2-1.7-0.6s-0.8-1-0.8-1.7c0-0.8,0.2-1.3,0.7-1.8
		c0.5-0.4,1.1-0.6,1.8-0.6c1,0,1.8,0.3,2.4,1V270c0-0.5-0.2-0.8-0.5-1.1s-0.8-0.4-1.3-0.4c-0.9,0-1.6,0.3-2.2,1l-0.5-0.8
		c0.8-0.8,1.7-1.2,2.9-1.2c0.8,0,1.5,0.2,2,0.6c0.5,0.4,0.8,1,0.8,1.8V274.9z M466,274.3c0.9,0,1.5-0.3,2-0.9V272
		c-0.4-0.6-1.1-0.9-2-0.9c-0.5,0-1,0.1-1.3,0.4c-0.3,0.3-0.5,0.7-0.5,1.1c0,0.5,0.2,0.8,0.5,1.1C465,274.1,465.5,274.3,466,274.3z"
		/>
</g>
<g>
	<path class="st3" d="M344.3,288c0.3,0.3,0.5,0.7,0.5,1.1s-0.2,0.8-0.5,1.1c-0.3,0.3-0.7,0.5-1.1,0.5c-0.4,0-0.8-0.2-1.1-0.5
		c-0.3-0.3-0.5-0.7-0.5-1.1s0.2-0.8,0.5-1.1c0.3-0.3,0.7-0.5,1.1-0.5C343.6,287.5,344,287.7,344.3,288z"/>
	<path class="st3" d="M352.1,292.7h-1.2v-9.9h4c1,0,1.7,0.3,2.3,0.9s0.8,1.3,0.8,2.1s-0.3,1.5-0.8,2.1c-0.6,0.6-1.3,0.9-2.3,0.9
		h-2.7V292.7z M354.7,287.7c0.6,0,1.1-0.2,1.4-0.5s0.5-0.8,0.5-1.4s-0.2-1-0.5-1.4c-0.4-0.4-0.8-0.5-1.4-0.5h-2.6v3.8H354.7z"/>
	<path class="st3" d="M360.6,292.7h-1.1v-9.9h1.1V292.7z"/>
	<path class="st3" d="M368.4,292.7h-1.1v-0.8c-0.6,0.7-1.4,1-2.4,1c-0.7,0-1.2-0.2-1.7-0.6s-0.8-1-0.8-1.7c0-0.8,0.2-1.3,0.7-1.8
		c0.5-0.4,1.1-0.6,1.8-0.6c1,0,1.8,0.3,2.4,1v-1.3c0-0.5-0.2-0.8-0.5-1.1c-0.3-0.3-0.8-0.4-1.3-0.4c-0.9,0-1.6,0.3-2.2,1l-0.5-0.8
		c0.8-0.8,1.7-1.2,2.9-1.2c0.8,0,1.5,0.2,2,0.6c0.5,0.4,0.8,1,0.8,1.8V292.7z M365.4,292.1c0.9,0,1.5-0.3,2-0.9v-1.4
		c-0.4-0.6-1.1-0.9-2-0.9c-0.5,0-1,0.1-1.3,0.4c-0.3,0.3-0.5,0.7-0.5,1.1c0,0.5,0.2,0.8,0.5,1.1
		C364.4,291.9,364.8,292.1,365.4,292.1z"/>
	<path class="st3" d="M373.8,292.9c-1.1,0-1.9-0.4-2.6-1.1c-0.7-0.7-1-1.6-1-2.7s0.3-2,1-2.7c0.7-0.7,1.5-1.1,2.6-1.1
		c1.1,0,2,0.4,2.6,1.2l-0.7,0.7c-0.4-0.6-1.1-0.9-1.8-0.9c-0.7,0-1.3,0.3-1.8,0.8c-0.5,0.5-0.7,1.2-0.7,2c0,0.8,0.2,1.5,0.7,2
		c0.5,0.5,1.1,0.8,1.8,0.8c0.8,0,1.4-0.3,1.8-0.9l0.7,0.7C375.8,292.5,375,292.9,373.8,292.9z"/>
	<path class="st3" d="M381.3,292.9c-1.1,0-2-0.3-2.6-1c-0.7-0.7-1-1.6-1-2.7c0-1,0.3-1.9,1-2.7c0.7-0.7,1.5-1.1,2.5-1.1
		c1.1,0,1.9,0.4,2.5,1.1c0.6,0.7,0.9,1.6,0.9,2.8v0.3h-5.8c0,0.7,0.3,1.3,0.8,1.8c0.5,0.5,1.1,0.7,1.8,0.7c0.9,0,1.6-0.3,2.2-0.9
		l0.5,0.7C383.4,292.5,382.4,292.9,381.3,292.9z M383.5,288.7c0-0.6-0.2-1.2-0.6-1.6c-0.4-0.5-1-0.7-1.7-0.7c-0.7,0-1.3,0.2-1.7,0.7
		c-0.4,0.5-0.6,1-0.7,1.6H383.5z"/>
	<path class="st3" d="M387.5,292.7h-1.1v-9.9h1.1v3.8c0.6-0.8,1.4-1.3,2.4-1.3c1,0,1.7,0.3,2.3,1c0.6,0.7,0.9,1.6,0.9,2.7
		c0,1.1-0.3,2.1-0.9,2.7c-0.6,0.7-1.4,1-2.3,1c-1,0-1.8-0.4-2.4-1.2V292.7z M387.5,290.8c0.2,0.3,0.5,0.6,0.9,0.8
		c0.4,0.2,0.8,0.3,1.3,0.3c0.7,0,1.3-0.3,1.7-0.8c0.4-0.5,0.6-1.2,0.6-2c0-0.8-0.2-1.5-0.6-2c-0.4-0.5-1-0.8-1.7-0.8
		c-0.4,0-0.9,0.1-1.3,0.3c-0.4,0.2-0.7,0.5-0.9,0.8V290.8z"/>
	<path class="st3" d="M400.7,291.8c-0.6,0.7-1.5,1.1-2.6,1.1s-1.9-0.4-2.6-1.1s-1-1.6-1-2.7c0-1.1,0.3-2,1-2.7s1.5-1.1,2.6-1.1
		s1.9,0.4,2.6,1.1c0.6,0.7,1,1.6,1,2.7C401.6,290.2,401.3,291.1,400.7,291.8z M396.4,291.1c0.4,0.5,1,0.8,1.7,0.8
		c0.7,0,1.3-0.3,1.7-0.8c0.4-0.5,0.6-1.2,0.6-2c0-0.8-0.2-1.4-0.6-2s-1-0.8-1.7-0.8c-0.7,0-1.3,0.3-1.7,0.8s-0.6,1.2-0.6,2
		C395.7,289.9,395.9,290.5,396.4,291.1z"/>
</g>
<g>
	<path class="st3" d="M520.6,252.3c0.3,0.3,0.5,0.7,0.5,1.1c0,0.4-0.2,0.8-0.5,1.1c-0.3,0.3-0.7,0.5-1.1,0.5c-0.4,0-0.8-0.2-1.1-0.5
		c-0.3-0.3-0.5-0.7-0.5-1.1c0-0.4,0.2-0.8,0.5-1.1c0.3-0.3,0.7-0.5,1.1-0.5C519.9,251.9,520.2,252,520.6,252.3z"/>
	<path class="st3" d="M531.8,257.2c-1.4,0-2.7-0.5-3.6-1.4c-1-1-1.5-2.2-1.5-3.7c0-1.5,0.5-2.7,1.5-3.7c1-1,2.2-1.4,3.6-1.4
		c1.6,0,2.8,0.7,3.8,2l-1,0.6c-0.3-0.4-0.7-0.8-1.2-1s-1-0.4-1.6-0.4c-1.1,0-2,0.4-2.7,1.1s-1.1,1.7-1.1,2.9c0,1.2,0.4,2.1,1.1,2.9
		c0.7,0.8,1.6,1.1,2.7,1.1c0.6,0,1.1-0.1,1.6-0.4c0.5-0.3,0.9-0.6,1.2-1l1,0.6C534.6,256.6,533.3,257.2,531.8,257.2z"/>
	<path class="st3" d="M541.6,257.1h-4.5v-9.9h4.4c0.9,0,1.5,0.2,2,0.7s0.8,1.1,0.8,1.8c0,0.6-0.2,1.1-0.5,1.5
		c-0.3,0.4-0.7,0.7-1.2,0.8c0.5,0.1,1,0.4,1.4,0.8c0.4,0.5,0.6,1,0.6,1.6c0,0.8-0.3,1.4-0.8,1.9S542.5,257.1,541.6,257.1z
		 M541.3,251.4c0.5,0,1-0.1,1.3-0.4c0.3-0.3,0.4-0.7,0.4-1.1s-0.2-0.8-0.5-1.2c-0.3-0.3-0.7-0.5-1.3-0.5h-3v3.2H541.3z M541.4,256
		c0.6,0,1-0.2,1.3-0.5c0.3-0.3,0.5-0.7,0.5-1.2c0-0.5-0.2-0.9-0.5-1.2c-0.3-0.3-0.8-0.5-1.3-0.5h-3v3.4H541.4z"/>
	<path class="st3" d="M549.9,257.1h-3.4v-9.9h3.4c1.5,0,2.7,0.5,3.7,1.4c0.9,0.9,1.4,2.1,1.4,3.5c0,1.4-0.5,2.6-1.4,3.6
		S551.4,257.1,549.9,257.1z M549.9,256c1.2,0,2.1-0.4,2.8-1.1c0.7-0.7,1-1.6,1-2.7c0-1.1-0.3-2-1-2.8c-0.7-0.7-1.6-1.1-2.8-1.1h-2.2
		v7.7H549.9z"/>
	<path class="st3" d="M563.4,257.1h-1.2v-8.3l-1.6,1.7l-0.7-0.8l2.5-2.6h1.1V257.1z"/>
	<path class="st3" d="M569.1,257.2c-0.7,0-1.2-0.2-1.7-0.5c-0.5-0.3-0.9-0.7-1.2-1.2s-0.5-1-0.7-1.6c-0.1-0.6-0.2-1.2-0.2-1.8
		c0-0.6,0.1-1.2,0.2-1.8s0.4-1.1,0.7-1.6s0.7-0.9,1.2-1.2c0.5-0.3,1.1-0.5,1.7-0.5c0.6,0,1.2,0.2,1.7,0.5c0.5,0.3,0.9,0.7,1.2,1.2
		s0.5,1,0.7,1.6s0.2,1.2,0.2,1.8c0,0.6-0.1,1.2-0.2,1.8c-0.1,0.6-0.4,1.1-0.7,1.6s-0.7,0.9-1.2,1.2
		C570.4,257.1,569.8,257.2,569.1,257.2z M567.6,255.5c0.4,0.4,0.9,0.6,1.5,0.6c0.6,0,1.1-0.2,1.5-0.6c0.4-0.4,0.7-0.9,0.8-1.5
		s0.2-1.2,0.2-1.9c0-0.7-0.1-1.4-0.2-1.9s-0.4-1.1-0.8-1.5c-0.4-0.4-0.9-0.6-1.5-0.6c-0.6,0-1.1,0.2-1.5,0.6
		c-0.4,0.4-0.7,0.9-0.8,1.5s-0.2,1.2-0.2,1.9c0,0.7,0.1,1.4,0.2,1.9S567.3,255.1,567.6,255.5z"/>
	<path class="st3" d="M588.4,257.1h-1.1v-4.9c0-1-0.4-1.5-1.3-1.5c-0.4,0-0.7,0.1-1.1,0.3s-0.6,0.5-0.8,0.8v5.3H583v-4.9
		c0-1-0.4-1.5-1.3-1.5c-0.3,0-0.7,0.1-1,0.3s-0.6,0.5-0.8,0.8v5.2h-1.1v-7.2h1.1v1c0.2-0.3,0.5-0.6,0.9-0.8c0.4-0.3,0.9-0.4,1.4-0.4
		c0.5,0,0.9,0.1,1.3,0.4c0.3,0.2,0.5,0.6,0.7,1c0.2-0.4,0.5-0.7,1-0.9c0.4-0.3,0.9-0.4,1.4-0.4c1.3,0,2,0.7,2,2.2V257.1z"/>
	<path class="st3" d="M593.5,260c-0.6,0-1.2-0.1-1.6-0.2c-0.4-0.2-0.9-0.4-1.3-0.8l0.6-0.8c0.5,0.6,1.3,1,2.3,1
		c0.7,0,1.2-0.2,1.6-0.5c0.4-0.3,0.7-0.9,0.7-1.6v-1.1c-0.3,0.4-0.6,0.7-1.1,0.9c-0.4,0.2-0.9,0.3-1.4,0.3c-1,0-1.7-0.3-2.3-1
		c-0.6-0.7-0.9-1.6-0.9-2.7s0.3-2,0.9-2.7c0.6-0.7,1.4-1,2.3-1c1,0,1.8,0.4,2.4,1.3v-1.1h1.1v7.1c0,1-0.3,1.8-1,2.3
		C595.3,259.7,594.5,260,593.5,260z M593.7,256.2c0.4,0,0.8-0.1,1.2-0.3c0.4-0.2,0.7-0.5,0.9-0.8v-3.1c-0.2-0.3-0.5-0.6-0.9-0.8
		c-0.4-0.2-0.8-0.3-1.2-0.3c-0.7,0-1.3,0.3-1.7,0.8s-0.6,1.2-0.6,2c0,0.8,0.2,1.5,0.6,2S593,256.2,593.7,256.2z"/>
	<path class="st3" d="M598.9,257.4h-0.9l3.5-10.5h0.9L598.9,257.4z"/>
	<path class="st3" d="M609.9,257.1h-1.4l-2.6-3.2l-1.2,1.2v2h-1.1v-9.9h1.1v6.6l3.8-3.8h1.4l-3.2,3.3L609.9,257.1z"/>
	<path class="st3" d="M614.1,260c-0.6,0-1.2-0.1-1.6-0.2c-0.4-0.2-0.9-0.4-1.3-0.8l0.6-0.8c0.5,0.6,1.3,1,2.3,1
		c0.7,0,1.2-0.2,1.6-0.5c0.4-0.3,0.7-0.9,0.7-1.6v-1.1c-0.3,0.4-0.6,0.7-1.1,0.9c-0.4,0.2-0.9,0.3-1.4,0.3c-1,0-1.7-0.3-2.3-1
		c-0.6-0.7-0.9-1.6-0.9-2.7s0.3-2,0.9-2.7c0.6-0.7,1.4-1,2.3-1c1,0,1.8,0.4,2.4,1.3v-1.1h1.1v7.1c0,1-0.3,1.8-1,2.3
		C615.9,259.7,615.1,260,614.1,260z M614.3,256.2c0.4,0,0.8-0.1,1.2-0.3c0.4-0.2,0.7-0.5,0.9-0.8v-3.1c-0.2-0.3-0.5-0.6-0.9-0.8
		c-0.4-0.2-0.8-0.3-1.2-0.3c-0.7,0-1.3,0.3-1.7,0.8s-0.6,1.2-0.6,2c0,0.8,0.2,1.5,0.6,2S613.6,256.2,614.3,256.2z"/>
	<path class="st3" d="M619.5,257.4h-0.9l3.5-10.5h0.9L619.5,257.4z"/>
	<path class="st3" d="M630.5,257.1h-1.1V256c-0.6,0.8-1.4,1.2-2.4,1.2c-1,0-1.7-0.3-2.3-1c-0.6-0.7-0.9-1.6-0.9-2.7
		c0-1.1,0.3-2.1,0.9-2.7c0.6-0.7,1.4-1,2.3-1c1,0,1.8,0.4,2.4,1.3v-3.8h1.1V257.1z M627.2,256.2c0.4,0,0.8-0.1,1.2-0.3
		c0.4-0.2,0.7-0.5,0.9-0.8v-3.2c-0.2-0.3-0.5-0.6-0.9-0.8s-0.8-0.3-1.2-0.3c-0.7,0-1.3,0.3-1.7,0.8c-0.4,0.5-0.6,1.2-0.6,2
		s0.2,1.5,0.6,2C625.9,256,626.5,256.2,627.2,256.2z"/>
	<path class="st3" d="M635.6,246.7l-2.5,2.1h-0.8l2.2-2.1H635.6z M633.8,257.1h-1.1v-7.2h1.1V257.1z"/>
	<path class="st3" d="M641.6,257.1h-1.1v-0.8c-0.6,0.7-1.4,1-2.4,1c-0.7,0-1.2-0.2-1.7-0.6s-0.8-1-0.8-1.7c0-0.8,0.2-1.3,0.7-1.8
		c0.5-0.4,1.1-0.6,1.8-0.6c1,0,1.8,0.3,2.4,1v-1.3c0-0.5-0.2-0.8-0.5-1.1s-0.8-0.4-1.3-0.4c-0.9,0-1.6,0.3-2.2,1l-0.5-0.8
		c0.8-0.8,1.7-1.2,2.9-1.2c0.8,0,1.5,0.2,2,0.6c0.5,0.4,0.8,1,0.8,1.8V257.1z M638.6,256.4c0.9,0,1.5-0.3,2-0.9v-1.4
		c-0.4-0.6-1.1-0.9-2-0.9c-0.5,0-1,0.1-1.3,0.4c-0.3,0.3-0.5,0.7-0.5,1.1c0,0.5,0.2,0.8,0.5,1.1C637.6,256.3,638,256.4,638.6,256.4z
		"/>
</g>
<g>
	<path class="st3" d="M520.6,270.2c0.3,0.3,0.5,0.7,0.5,1.1c0,0.4-0.2,0.8-0.5,1.1c-0.3,0.3-0.7,0.5-1.1,0.5c-0.4,0-0.8-0.2-1.1-0.5
		c-0.3-0.3-0.5-0.7-0.5-1.1c0-0.4,0.2-0.8,0.5-1.1c0.3-0.3,0.7-0.5,1.1-0.5C519.9,269.7,520.2,269.8,520.6,270.2z"/>
	<path class="st3" d="M531.8,275.1c-1.4,0-2.7-0.5-3.6-1.4c-1-1-1.5-2.2-1.5-3.7c0-1.5,0.5-2.7,1.5-3.7c1-1,2.2-1.4,3.6-1.4
		c1.6,0,2.8,0.7,3.8,2l-1,0.6c-0.3-0.4-0.7-0.8-1.2-1s-1-0.4-1.6-0.4c-1.1,0-2,0.4-2.7,1.1s-1.1,1.7-1.1,2.9c0,1.2,0.4,2.1,1.1,2.9
		c0.7,0.8,1.6,1.1,2.7,1.1c0.6,0,1.1-0.1,1.6-0.4c0.5-0.3,0.9-0.6,1.2-1l1,0.6C534.6,274.4,533.3,275.1,531.8,275.1z"/>
	<path class="st3" d="M541.6,274.9h-4.5V265h4.4c0.9,0,1.5,0.2,2,0.7s0.8,1.1,0.8,1.8c0,0.6-0.2,1.1-0.5,1.5
		c-0.3,0.4-0.7,0.7-1.2,0.8c0.5,0.1,1,0.4,1.4,0.8c0.4,0.5,0.6,1,0.6,1.6c0,0.8-0.3,1.4-0.8,1.9S542.5,274.9,541.6,274.9z
		 M541.3,269.3c0.5,0,1-0.1,1.3-0.4c0.3-0.3,0.4-0.7,0.4-1.1s-0.2-0.8-0.5-1.2c-0.3-0.3-0.7-0.5-1.3-0.5h-3v3.2H541.3z M541.4,273.8
		c0.6,0,1-0.2,1.3-0.5c0.3-0.3,0.5-0.7,0.5-1.2c0-0.5-0.2-0.9-0.5-1.2c-0.3-0.3-0.8-0.5-1.3-0.5h-3v3.4H541.4z"/>
	<path class="st3" d="M549.9,274.9h-3.4V265h3.4c1.5,0,2.7,0.5,3.7,1.4c0.9,0.9,1.4,2.1,1.4,3.5c0,1.4-0.5,2.6-1.4,3.6
		S551.4,274.9,549.9,274.9z M549.9,273.8c1.2,0,2.1-0.4,2.8-1.1c0.7-0.7,1-1.6,1-2.7c0-1.1-0.3-2-1-2.8c-0.7-0.7-1.6-1.1-2.8-1.1
		h-2.2v7.7H549.9z"/>
	<path class="st3" d="M567.2,274.9h-6.8v-1c2-1.6,3.5-2.8,4.3-3.7c0.8-0.9,1.2-1.7,1.2-2.5c0-0.6-0.2-1-0.6-1.4
		c-0.4-0.3-0.9-0.5-1.5-0.5c-1.1,0-2,0.4-2.7,1.2l-0.8-0.8c0.4-0.5,0.9-0.9,1.5-1.2c0.6-0.3,1.3-0.4,2-0.4c0.9,0,1.7,0.3,2.3,0.8
		c0.7,0.5,1,1.2,1,2.2c0,0.9-0.4,1.8-1.2,2.8c-0.8,0.9-2,2-3.6,3.3h4.9V274.9z"/>
	<path class="st3" d="M572.8,275.1c-0.7,0-1.2-0.2-1.7-0.5c-0.5-0.3-0.9-0.7-1.2-1.2s-0.5-1-0.7-1.6c-0.1-0.6-0.2-1.2-0.2-1.8
		c0-0.6,0.1-1.2,0.2-1.8s0.4-1.1,0.7-1.6s0.7-0.9,1.2-1.2c0.5-0.3,1.1-0.5,1.7-0.5c0.6,0,1.2,0.2,1.7,0.5c0.5,0.3,0.9,0.7,1.2,1.2
		s0.5,1,0.7,1.6s0.2,1.2,0.2,1.8c0,0.6-0.1,1.2-0.2,1.8c-0.1,0.6-0.4,1.1-0.7,1.6s-0.7,0.9-1.2,1.2
		C574,274.9,573.5,275.1,572.8,275.1z M571.3,273.3c0.4,0.4,0.9,0.6,1.5,0.6c0.6,0,1.1-0.2,1.5-0.6c0.4-0.4,0.7-0.9,0.8-1.5
		s0.2-1.2,0.2-1.9c0-0.7-0.1-1.4-0.2-1.9s-0.4-1.1-0.8-1.5c-0.4-0.4-0.9-0.6-1.5-0.6c-0.6,0-1.1,0.2-1.5,0.6
		c-0.4,0.4-0.7,0.9-0.8,1.5s-0.2,1.2-0.2,1.9c0,0.7,0.1,1.4,0.2,1.9S571,272.9,571.3,273.3z"/>
	<path class="st3" d="M592.1,274.9H591V270c0-1-0.4-1.5-1.3-1.5c-0.4,0-0.7,0.1-1.1,0.3s-0.6,0.5-0.8,0.8v5.3h-1.1V270
		c0-1-0.4-1.5-1.3-1.5c-0.3,0-0.7,0.1-1,0.3s-0.6,0.5-0.8,0.8v5.2h-1.1v-7.2h1.1v1c0.2-0.3,0.5-0.6,0.9-0.8c0.4-0.3,0.9-0.4,1.4-0.4
		c0.5,0,0.9,0.1,1.3,0.4c0.3,0.2,0.5,0.6,0.7,1c0.2-0.4,0.5-0.7,1-0.9c0.4-0.3,0.9-0.4,1.4-0.4c1.3,0,2,0.7,2,2.2V274.9z"/>
	<path class="st3" d="M597.2,277.8c-0.6,0-1.2-0.1-1.6-0.2c-0.4-0.2-0.9-0.4-1.3-0.8l0.6-0.8c0.5,0.6,1.3,1,2.3,1
		c0.7,0,1.2-0.2,1.6-0.5c0.4-0.3,0.7-0.9,0.7-1.6v-1.1c-0.3,0.4-0.6,0.7-1.1,0.9c-0.4,0.2-0.9,0.3-1.4,0.3c-1,0-1.7-0.3-2.3-1
		c-0.6-0.7-0.9-1.6-0.9-2.7s0.3-2,0.9-2.7c0.6-0.7,1.4-1,2.3-1c1,0,1.8,0.4,2.4,1.3v-1.1h1.1v7.1c0,1-0.3,1.8-1,2.3
		C599,277.6,598.2,277.8,597.2,277.8z M597.4,274c0.4,0,0.8-0.1,1.2-0.3c0.4-0.2,0.7-0.5,0.9-0.8v-3.1c-0.2-0.3-0.5-0.6-0.9-0.8
		c-0.4-0.2-0.8-0.3-1.2-0.3c-0.7,0-1.3,0.3-1.7,0.8s-0.6,1.2-0.6,2c0,0.8,0.2,1.5,0.6,2S596.7,274,597.4,274z"/>
	<path class="st3" d="M602.6,275.2h-0.9l3.5-10.5h0.9L602.6,275.2z"/>
	<path class="st3" d="M613.6,274.9h-1.4l-2.6-3.2l-1.2,1.2v2h-1.1V265h1.1v6.6l3.8-3.8h1.4l-3.2,3.3L613.6,274.9z"/>
	<path class="st3" d="M617.8,277.8c-0.6,0-1.2-0.1-1.6-0.2c-0.4-0.2-0.9-0.4-1.3-0.8l0.6-0.8c0.5,0.6,1.3,1,2.3,1
		c0.7,0,1.2-0.2,1.6-0.5c0.4-0.3,0.7-0.9,0.7-1.6v-1.1c-0.3,0.4-0.6,0.7-1.1,0.9c-0.4,0.2-0.9,0.3-1.4,0.3c-1,0-1.7-0.3-2.3-1
		c-0.6-0.7-0.9-1.6-0.9-2.7s0.3-2,0.9-2.7c0.6-0.7,1.4-1,2.3-1c1,0,1.8,0.4,2.4,1.3v-1.1h1.1v7.1c0,1-0.3,1.8-1,2.3
		C619.6,277.6,618.8,277.8,617.8,277.8z M618,274c0.4,0,0.8-0.1,1.2-0.3c0.4-0.2,0.7-0.5,0.9-0.8v-3.1c-0.2-0.3-0.5-0.6-0.9-0.8
		c-0.4-0.2-0.8-0.3-1.2-0.3c-0.7,0-1.3,0.3-1.7,0.8s-0.6,1.2-0.6,2c0,0.8,0.2,1.5,0.6,2S617.3,274,618,274z"/>
	<path class="st3" d="M623.2,275.2h-0.9l3.5-10.5h0.9L623.2,275.2z"/>
	<path class="st3" d="M634.2,274.9H633v-1.1c-0.6,0.8-1.4,1.2-2.4,1.2c-1,0-1.7-0.3-2.3-1c-0.6-0.7-0.9-1.6-0.9-2.7
		c0-1.1,0.3-2.1,0.9-2.7c0.6-0.7,1.4-1,2.3-1c1,0,1.8,0.4,2.4,1.3V265h1.1V274.9z M630.9,274.1c0.4,0,0.8-0.1,1.2-0.3
		c0.4-0.2,0.7-0.5,0.9-0.8v-3.2c-0.2-0.3-0.5-0.6-0.9-0.8s-0.8-0.3-1.2-0.3c-0.7,0-1.3,0.3-1.7,0.8c-0.4,0.5-0.6,1.2-0.6,2
		s0.2,1.5,0.6,2C629.6,273.8,630.2,274.1,630.9,274.1z"/>
	<path class="st3" d="M639.3,264.5l-2.5,2.1H636l2.2-2.1H639.3z M637.5,274.9h-1.1v-7.2h1.1V274.9z"/>
	<path class="st3" d="M645.3,274.9h-1.1v-0.8c-0.6,0.7-1.4,1-2.4,1c-0.7,0-1.2-0.2-1.7-0.6s-0.8-1-0.8-1.7c0-0.8,0.2-1.3,0.7-1.8
		c0.5-0.4,1.1-0.6,1.8-0.6c1,0,1.8,0.3,2.4,1V270c0-0.5-0.2-0.8-0.5-1.1s-0.8-0.4-1.3-0.4c-0.9,0-1.6,0.3-2.2,1l-0.5-0.8
		c0.8-0.8,1.7-1.2,2.9-1.2c0.8,0,1.5,0.2,2,0.6c0.5,0.4,0.8,1,0.8,1.8V274.9z M642.3,274.3c0.9,0,1.5-0.3,2-0.9V272
		c-0.4-0.6-1.1-0.9-2-0.9c-0.5,0-1,0.1-1.3,0.4c-0.3,0.3-0.5,0.7-0.5,1.1c0,0.5,0.2,0.8,0.5,1.1
		C641.3,274.1,641.7,274.3,642.3,274.3z"/>
</g>
<g>
	<path class="st3" d="M520.6,288c0.3,0.3,0.5,0.7,0.5,1.1c0,0.4-0.2,0.8-0.5,1.1c-0.3,0.3-0.7,0.5-1.1,0.5c-0.4,0-0.8-0.2-1.1-0.5
		c-0.3-0.3-0.5-0.7-0.5-1.1c0-0.4,0.2-0.8,0.5-1.1c0.3-0.3,0.7-0.5,1.1-0.5C519.9,287.5,520.2,287.7,520.6,288z"/>
	<path class="st3" d="M528.3,292.7h-1.2v-9.9h4c1,0,1.7,0.3,2.3,0.9c0.6,0.6,0.8,1.3,0.8,2.1s-0.3,1.5-0.8,2.1s-1.3,0.9-2.3,0.9
		h-2.7V292.7z M530.9,287.7c0.6,0,1.1-0.2,1.4-0.5c0.4-0.4,0.5-0.8,0.5-1.4s-0.2-1-0.5-1.4c-0.4-0.4-0.8-0.5-1.4-0.5h-2.6v3.8H530.9
		z"/>
	<path class="st3" d="M536.9,292.7h-1.1v-9.9h1.1V292.7z"/>
	<path class="st3" d="M544.7,292.7h-1.1v-0.8c-0.6,0.7-1.4,1-2.4,1c-0.7,0-1.2-0.2-1.7-0.6s-0.8-1-0.8-1.7c0-0.8,0.2-1.3,0.7-1.8
		c0.5-0.4,1.1-0.6,1.8-0.6c1,0,1.8,0.3,2.4,1v-1.3c0-0.5-0.2-0.8-0.5-1.1s-0.8-0.4-1.3-0.4c-0.9,0-1.6,0.3-2.2,1l-0.5-0.8
		c0.8-0.8,1.7-1.2,2.9-1.2c0.8,0,1.5,0.2,2,0.6c0.5,0.4,0.8,1,0.8,1.8V292.7z M541.6,292.1c0.9,0,1.5-0.3,2-0.9v-1.4
		c-0.4-0.6-1.1-0.9-2-0.9c-0.5,0-1,0.1-1.3,0.4c-0.3,0.3-0.5,0.7-0.5,1.1c0,0.5,0.2,0.8,0.5,1.1
		C540.7,291.9,541.1,292.1,541.6,292.1z"/>
	<path class="st3" d="M550.1,292.9c-1.1,0-1.9-0.4-2.6-1.1c-0.7-0.7-1-1.6-1-2.7s0.3-2,1-2.7c0.7-0.7,1.5-1.1,2.6-1.1
		c1.1,0,2,0.4,2.6,1.2l-0.7,0.7c-0.4-0.6-1.1-0.9-1.8-0.9c-0.7,0-1.3,0.3-1.8,0.8c-0.5,0.5-0.7,1.2-0.7,2c0,0.8,0.2,1.5,0.7,2
		c0.5,0.5,1.1,0.8,1.8,0.8c0.8,0,1.4-0.3,1.8-0.9l0.7,0.7C552.1,292.5,551.2,292.9,550.1,292.9z"/>
	<path class="st3" d="M557.6,292.9c-1.1,0-2-0.3-2.6-1c-0.7-0.7-1-1.6-1-2.7c0-1,0.3-1.9,1-2.7c0.7-0.7,1.5-1.1,2.5-1.1
		c1.1,0,1.9,0.4,2.5,1.1c0.6,0.7,0.9,1.6,0.9,2.8v0.3h-5.8c0,0.7,0.3,1.3,0.8,1.8c0.5,0.5,1.1,0.7,1.8,0.7c0.9,0,1.6-0.3,2.2-0.9
		l0.5,0.7C559.7,292.5,558.7,292.9,557.6,292.9z M559.8,288.7c0-0.6-0.2-1.2-0.6-1.6s-1-0.7-1.7-0.7c-0.7,0-1.3,0.2-1.7,0.7
		c-0.4,0.5-0.6,1-0.7,1.6H559.8z"/>
	<path class="st3" d="M563.8,292.7h-1.1v-9.9h1.1v3.8c0.6-0.8,1.4-1.3,2.4-1.3c1,0,1.7,0.3,2.3,1c0.6,0.7,0.9,1.6,0.9,2.7
		c0,1.1-0.3,2.1-0.9,2.7c-0.6,0.7-1.4,1-2.3,1c-1,0-1.8-0.4-2.4-1.2V292.7z M563.8,290.8c0.2,0.3,0.5,0.6,0.9,0.8
		c0.4,0.2,0.8,0.3,1.3,0.3c0.7,0,1.3-0.3,1.7-0.8c0.4-0.5,0.6-1.2,0.6-2c0-0.8-0.2-1.5-0.6-2c-0.4-0.5-1-0.8-1.7-0.8
		c-0.4,0-0.9,0.1-1.3,0.3c-0.4,0.2-0.7,0.5-0.9,0.8V290.8z"/>
	<path class="st3" d="M576.9,291.8c-0.6,0.7-1.5,1.1-2.6,1.1s-1.9-0.4-2.6-1.1s-1-1.6-1-2.7c0-1.1,0.3-2,1-2.7s1.5-1.1,2.6-1.1
		s1.9,0.4,2.6,1.1s1,1.6,1,2.7C577.9,290.2,577.6,291.1,576.9,291.8z M572.6,291.1c0.4,0.5,1,0.8,1.7,0.8c0.7,0,1.3-0.3,1.7-0.8
		c0.4-0.5,0.6-1.2,0.6-2c0-0.8-0.2-1.4-0.6-2s-1-0.8-1.7-0.8c-0.7,0-1.3,0.3-1.7,0.8s-0.6,1.2-0.6,2
		C572,289.9,572.2,290.5,572.6,291.1z"/>
</g>
<g>
	<path class="st3" d="M678.4,252.3c0.3,0.3,0.5,0.7,0.5,1.1c0,0.4-0.2,0.8-0.5,1.1c-0.3,0.3-0.7,0.5-1.1,0.5c-0.4,0-0.8-0.2-1.1-0.5
		c-0.3-0.3-0.5-0.7-0.5-1.1c0-0.4,0.2-0.8,0.5-1.1c0.3-0.3,0.7-0.5,1.1-0.5C677.7,251.9,678.1,252,678.4,252.3z"/>
	<path class="st3" d="M689.6,257.2c-1.4,0-2.7-0.5-3.6-1.4c-1-1-1.5-2.2-1.5-3.7c0-1.5,0.5-2.7,1.5-3.7c1-1,2.2-1.4,3.6-1.4
		c1.6,0,2.8,0.7,3.8,2l-1,0.6c-0.3-0.4-0.7-0.8-1.2-1s-1-0.4-1.6-0.4c-1.1,0-2,0.4-2.7,1.1s-1.1,1.7-1.1,2.9c0,1.2,0.4,2.1,1.1,2.9
		c0.7,0.8,1.6,1.1,2.7,1.1c0.6,0,1.1-0.1,1.6-0.4c0.5-0.3,0.9-0.6,1.2-1l1,0.6C692.4,256.6,691.2,257.2,689.6,257.2z"/>
	<path class="st3" d="M699.5,257.1H695v-9.9h4.4c0.9,0,1.5,0.2,2,0.7s0.8,1.1,0.8,1.8c0,0.6-0.2,1.1-0.5,1.5
		c-0.3,0.4-0.7,0.7-1.2,0.8c0.5,0.1,1,0.4,1.4,0.8c0.4,0.5,0.6,1,0.6,1.6c0,0.8-0.3,1.4-0.8,1.9S700.4,257.1,699.5,257.1z
		 M699.2,251.4c0.5,0,1-0.1,1.3-0.4c0.3-0.3,0.4-0.7,0.4-1.1s-0.2-0.8-0.5-1.2c-0.3-0.3-0.7-0.5-1.3-0.5h-3v3.2H699.2z M699.2,256
		c0.6,0,1-0.2,1.3-0.5c0.3-0.3,0.5-0.7,0.5-1.2c0-0.5-0.2-0.9-0.5-1.2c-0.3-0.3-0.8-0.5-1.3-0.5h-3v3.4H699.2z"/>
	<path class="st3" d="M707.7,257.1h-3.4v-9.9h3.4c1.5,0,2.7,0.5,3.7,1.4c0.9,0.9,1.4,2.1,1.4,3.5c0,1.4-0.5,2.6-1.4,3.6
		S709.2,257.1,707.7,257.1z M707.7,256c1.2,0,2.1-0.4,2.8-1.1c0.7-0.7,1-1.6,1-2.7c0-1.1-0.3-2-1-2.8c-0.7-0.7-1.6-1.1-2.8-1.1h-2.2
		v7.7H707.7z"/>
	<path class="st3" d="M725,257.1h-6.8v-1c2-1.6,3.5-2.8,4.3-3.7c0.8-0.9,1.2-1.7,1.2-2.5c0-0.6-0.2-1-0.6-1.4
		c-0.4-0.3-0.9-0.5-1.5-0.5c-1.1,0-2,0.4-2.7,1.2l-0.8-0.8c0.4-0.5,0.9-0.9,1.5-1.2c0.6-0.3,1.3-0.4,2-0.4c0.9,0,1.7,0.3,2.3,0.8
		c0.7,0.5,1,1.2,1,2.2c0,0.9-0.4,1.8-1.2,2.8c-0.8,0.9-2,2-3.6,3.3h4.9V257.1z"/>
	<path class="st3" d="M730.7,257.2c-0.7,0-1.2-0.2-1.7-0.5c-0.5-0.3-0.9-0.7-1.2-1.2s-0.5-1-0.7-1.6c-0.1-0.6-0.2-1.2-0.2-1.8
		c0-0.6,0.1-1.2,0.2-1.8s0.4-1.1,0.7-1.6s0.7-0.9,1.2-1.2c0.5-0.3,1.1-0.5,1.7-0.5c0.6,0,1.2,0.2,1.7,0.5c0.5,0.3,0.9,0.7,1.2,1.2
		s0.5,1,0.7,1.6s0.2,1.2,0.2,1.8c0,0.6-0.1,1.2-0.2,1.8c-0.1,0.6-0.4,1.1-0.7,1.6s-0.7,0.9-1.2,1.2
		C731.9,257.1,731.3,257.2,730.7,257.2z M729.2,255.5c0.4,0.4,0.9,0.6,1.5,0.6c0.6,0,1.1-0.2,1.5-0.6c0.4-0.4,0.7-0.9,0.8-1.5
		s0.2-1.2,0.2-1.9c0-0.7-0.1-1.4-0.2-1.9s-0.4-1.1-0.8-1.5c-0.4-0.4-0.9-0.6-1.5-0.6c-0.6,0-1.1,0.2-1.5,0.6
		c-0.4,0.4-0.7,0.9-0.8,1.5s-0.2,1.2-0.2,1.9c0,0.7,0.1,1.4,0.2,1.9S728.8,255.1,729.2,255.5z"/>
	<path class="st3" d="M749.9,257.1h-1.1v-4.9c0-1-0.4-1.5-1.3-1.5c-0.4,0-0.7,0.1-1.1,0.3s-0.6,0.5-0.8,0.8v5.3h-1.1v-4.9
		c0-1-0.4-1.5-1.3-1.5c-0.3,0-0.7,0.1-1,0.3s-0.6,0.5-0.8,0.8v5.2h-1.1v-7.2h1.1v1c0.2-0.3,0.5-0.6,0.9-0.8c0.4-0.3,0.9-0.4,1.4-0.4
		c0.5,0,0.9,0.1,1.3,0.4c0.3,0.2,0.5,0.6,0.7,1c0.2-0.4,0.5-0.7,1-0.9c0.4-0.3,0.9-0.4,1.4-0.4c1.3,0,2,0.7,2,2.2V257.1z"/>
	<path class="st3" d="M755,260c-0.6,0-1.2-0.1-1.6-0.2c-0.4-0.2-0.9-0.4-1.3-0.8l0.6-0.8c0.5,0.6,1.3,1,2.3,1c0.7,0,1.2-0.2,1.6-0.5
		c0.4-0.3,0.7-0.9,0.7-1.6v-1.1c-0.3,0.4-0.6,0.7-1.1,0.9c-0.4,0.2-0.9,0.3-1.4,0.3c-1,0-1.7-0.3-2.3-1c-0.6-0.7-0.9-1.6-0.9-2.7
		s0.3-2,0.9-2.7c0.6-0.7,1.4-1,2.3-1c1,0,1.8,0.4,2.4,1.3v-1.1h1.1v7.1c0,1-0.3,1.8-1,2.3C756.9,259.7,756,260,755,260z
		 M755.2,256.2c0.4,0,0.8-0.1,1.2-0.3c0.4-0.2,0.7-0.5,0.9-0.8v-3.1c-0.2-0.3-0.5-0.6-0.9-0.8c-0.4-0.2-0.8-0.3-1.2-0.3
		c-0.7,0-1.3,0.3-1.7,0.8s-0.6,1.2-0.6,2c0,0.8,0.2,1.5,0.6,2S754.5,256.2,755.2,256.2z"/>
	<path class="st3" d="M760.5,257.4h-0.9l3.5-10.5h0.9L760.5,257.4z"/>
	<path class="st3" d="M771.4,257.1H770l-2.6-3.2l-1.2,1.2v2h-1.1v-9.9h1.1v6.6l3.8-3.8h1.4l-3.2,3.3L771.4,257.1z"/>
	<path class="st3" d="M775.6,260c-0.6,0-1.2-0.1-1.6-0.2c-0.4-0.2-0.9-0.4-1.3-0.8l0.6-0.8c0.5,0.6,1.3,1,2.3,1
		c0.7,0,1.2-0.2,1.6-0.5c0.4-0.3,0.7-0.9,0.7-1.6v-1.1c-0.3,0.4-0.6,0.7-1.1,0.9c-0.4,0.2-0.9,0.3-1.4,0.3c-1,0-1.7-0.3-2.3-1
		c-0.6-0.7-0.9-1.6-0.9-2.7s0.3-2,0.9-2.7c0.6-0.7,1.4-1,2.3-1c1,0,1.8,0.4,2.4,1.3v-1.1h1.1v7.1c0,1-0.3,1.8-1,2.3
		C777.4,259.7,776.6,260,775.6,260z M775.8,256.2c0.4,0,0.8-0.1,1.2-0.3c0.4-0.2,0.7-0.5,0.9-0.8v-3.1c-0.2-0.3-0.5-0.6-0.9-0.8
		c-0.4-0.2-0.8-0.3-1.2-0.3c-0.7,0-1.3,0.3-1.7,0.8s-0.6,1.2-0.6,2c0,0.8,0.2,1.5,0.6,2S775.1,256.2,775.8,256.2z"/>
	<path class="st3" d="M781,257.4h-0.9l3.5-10.5h0.9L781,257.4z"/>
	<path class="st3" d="M792,257.1h-1.1V256c-0.6,0.8-1.4,1.2-2.4,1.2c-1,0-1.7-0.3-2.3-1c-0.6-0.7-0.9-1.6-0.9-2.7
		c0-1.1,0.3-2.1,0.9-2.7c0.6-0.7,1.4-1,2.3-1c1,0,1.8,0.4,2.4,1.3v-3.8h1.1V257.1z M788.7,256.2c0.4,0,0.8-0.1,1.2-0.3
		c0.4-0.2,0.7-0.5,0.9-0.8v-3.2c-0.2-0.3-0.5-0.6-0.9-0.8s-0.8-0.3-1.2-0.3c-0.7,0-1.3,0.3-1.7,0.8c-0.4,0.5-0.6,1.2-0.6,2
		s0.2,1.5,0.6,2C787.5,256,788,256.2,788.7,256.2z"/>
	<path class="st3" d="M797.2,246.7l-2.5,2.1h-0.8l2.2-2.1H797.2z M795.3,257.1h-1.1v-7.2h1.1V257.1z"/>
	<path class="st3" d="M803.2,257.1H802v-0.8c-0.6,0.7-1.4,1-2.4,1c-0.7,0-1.2-0.2-1.7-0.6s-0.8-1-0.8-1.7c0-0.8,0.2-1.3,0.7-1.8
		c0.5-0.4,1.1-0.6,1.8-0.6c1,0,1.8,0.3,2.4,1v-1.3c0-0.5-0.2-0.8-0.5-1.1s-0.8-0.4-1.3-0.4c-0.9,0-1.6,0.3-2.2,1l-0.5-0.8
		c0.8-0.8,1.7-1.2,2.9-1.2c0.8,0,1.5,0.2,2,0.6c0.5,0.4,0.8,1,0.8,1.8V257.1z M800.1,256.4c0.9,0,1.5-0.3,2-0.9v-1.4
		c-0.4-0.6-1.1-0.9-2-0.9c-0.5,0-1,0.1-1.3,0.4c-0.3,0.3-0.5,0.7-0.5,1.1c0,0.5,0.2,0.8,0.5,1.1
		C799.1,256.3,799.6,256.4,800.1,256.4z"/>
</g>
<g>
	<path class="st3" d="M678.4,270.2c0.3,0.3,0.5,0.7,0.5,1.1c0,0.4-0.2,0.8-0.5,1.1c-0.3,0.3-0.7,0.5-1.1,0.5c-0.4,0-0.8-0.2-1.1-0.5
		c-0.3-0.3-0.5-0.7-0.5-1.1c0-0.4,0.2-0.8,0.5-1.1c0.3-0.3,0.7-0.5,1.1-0.5C677.7,269.7,678.1,269.8,678.4,270.2z"/>
	<path class="st3" d="M686.1,274.9h-1.2V265h4c1,0,1.7,0.3,2.3,0.9c0.6,0.6,0.8,1.3,0.8,2.1s-0.3,1.5-0.8,2.1s-1.3,0.9-2.3,0.9h-2.7
		V274.9z M688.7,269.8c0.6,0,1.1-0.2,1.4-0.5c0.4-0.4,0.5-0.8,0.5-1.4s-0.2-1-0.5-1.4c-0.4-0.4-0.8-0.5-1.4-0.5h-2.6v3.8H688.7z"/>
	<path class="st3" d="M694.7,274.9h-1.1V265h1.1V274.9z"/>
	<path class="st3" d="M702.5,274.9h-1.1v-0.8c-0.6,0.7-1.4,1-2.4,1c-0.7,0-1.2-0.2-1.7-0.6s-0.8-1-0.8-1.7c0-0.8,0.2-1.3,0.7-1.8
		c0.5-0.4,1.1-0.6,1.8-0.6c1,0,1.8,0.3,2.4,1V270c0-0.5-0.2-0.8-0.5-1.1s-0.8-0.4-1.3-0.4c-0.9,0-1.6,0.3-2.2,1l-0.5-0.8
		c0.8-0.8,1.7-1.2,2.9-1.2c0.8,0,1.5,0.2,2,0.6c0.5,0.4,0.8,1,0.8,1.8V274.9z M699.5,274.3c0.9,0,1.5-0.3,2-0.9V272
		c-0.4-0.6-1.1-0.9-2-0.9c-0.5,0-1,0.1-1.3,0.4c-0.3,0.3-0.5,0.7-0.5,1.1c0,0.5,0.2,0.8,0.5,1.1
		C698.5,274.1,698.9,274.3,699.5,274.3z"/>
	<path class="st3" d="M707.9,275.1c-1.1,0-1.9-0.4-2.6-1.1c-0.7-0.7-1-1.6-1-2.7c0-1.1,0.3-2,1-2.7c0.7-0.7,1.5-1.1,2.6-1.1
		c1.1,0,2,0.4,2.6,1.2l-0.7,0.7c-0.4-0.6-1.1-0.9-1.8-0.9c-0.7,0-1.3,0.3-1.8,0.8c-0.5,0.5-0.7,1.2-0.7,2c0,0.8,0.2,1.5,0.7,2
		c0.5,0.5,1.1,0.8,1.8,0.8c0.8,0,1.4-0.3,1.8-0.9l0.7,0.7C709.9,274.6,709,275.1,707.9,275.1z"/>
	<path class="st3" d="M715.4,275.1c-1.1,0-2-0.3-2.6-1c-0.7-0.7-1-1.6-1-2.7c0-1,0.3-1.9,1-2.7c0.7-0.7,1.5-1.1,2.5-1.1
		c1.1,0,1.9,0.4,2.5,1.1c0.6,0.7,0.9,1.6,0.9,2.8v0.3h-5.8c0,0.7,0.3,1.3,0.8,1.8c0.5,0.5,1.1,0.7,1.8,0.7c0.9,0,1.6-0.3,2.2-0.9
		l0.5,0.7C717.5,274.7,716.5,275.1,715.4,275.1z M717.6,270.8c0-0.6-0.2-1.2-0.6-1.6s-1-0.7-1.7-0.7c-0.7,0-1.3,0.2-1.7,0.7
		c-0.4,0.5-0.6,1-0.7,1.6H717.6z"/>
	<path class="st3" d="M721.6,274.9h-1.1V265h1.1v3.8c0.6-0.8,1.4-1.3,2.4-1.3c1,0,1.7,0.3,2.3,1c0.6,0.7,0.9,1.6,0.9,2.7
		c0,1.1-0.3,2.1-0.9,2.7c-0.6,0.7-1.4,1-2.3,1c-1,0-1.8-0.4-2.4-1.2V274.9z M721.6,272.9c0.2,0.3,0.5,0.6,0.9,0.8
		c0.4,0.2,0.8,0.3,1.3,0.3c0.7,0,1.3-0.3,1.7-0.8c0.4-0.5,0.6-1.2,0.6-2s-0.2-1.5-0.6-2c-0.4-0.5-1-0.8-1.7-0.8
		c-0.4,0-0.9,0.1-1.3,0.3c-0.4,0.2-0.7,0.5-0.9,0.8V272.9z"/>
	<path class="st3" d="M734.8,274c-0.6,0.7-1.5,1.1-2.6,1.1s-1.9-0.4-2.6-1.1c-0.6-0.7-1-1.6-1-2.7c0-1.1,0.3-2,1-2.7
		s1.5-1.1,2.6-1.1s1.9,0.4,2.6,1.1s1,1.6,1,2.7C735.7,272.4,735.4,273.3,734.8,274z M730.4,273.3c0.4,0.5,1,0.8,1.7,0.8
		c0.7,0,1.3-0.3,1.7-0.8c0.4-0.5,0.6-1.2,0.6-2c0-0.8-0.2-1.4-0.6-2s-1-0.8-1.7-0.8c-0.7,0-1.3,0.3-1.7,0.8s-0.6,1.2-0.6,2
		C729.8,272.1,730,272.7,730.4,273.3z"/>
</g>
<g>
	<path class="st3" d="M180.4,252.3c0.3,0.3,0.5,0.7,0.5,1.1c0,0.4-0.2,0.8-0.5,1.1s-0.7,0.5-1.1,0.5c-0.4,0-0.8-0.2-1.1-0.5
		c-0.3-0.3-0.5-0.7-0.5-1.1c0-0.4,0.2-0.8,0.5-1.1c0.3-0.3,0.7-0.5,1.1-0.5C179.7,251.9,180.1,252,180.4,252.3z"/>
	<path class="st3" d="M191.6,257.2c-1.4,0-2.7-0.5-3.6-1.4c-1-1-1.5-2.2-1.5-3.7c0-1.5,0.5-2.7,1.5-3.7c1-1,2.2-1.4,3.6-1.4
		c1.6,0,2.8,0.7,3.8,2l-1,0.6c-0.3-0.4-0.7-0.8-1.2-1c-0.5-0.3-1-0.4-1.6-0.4c-1.1,0-2,0.4-2.7,1.1c-0.7,0.8-1.1,1.7-1.1,2.9
		c0,1.2,0.4,2.1,1.1,2.9c0.7,0.8,1.6,1.1,2.7,1.1c0.6,0,1.1-0.1,1.6-0.4c0.5-0.3,0.9-0.6,1.2-1l1,0.6
		C194.4,256.6,193.2,257.2,191.6,257.2z"/>
	<path class="st3" d="M201.5,257.1H197v-9.9h4.4c0.9,0,1.5,0.2,2,0.7s0.8,1.1,0.8,1.8c0,0.6-0.2,1.1-0.5,1.5
		c-0.3,0.4-0.7,0.7-1.2,0.8c0.5,0.1,1,0.4,1.4,0.8c0.4,0.5,0.6,1,0.6,1.6c0,0.8-0.3,1.4-0.8,1.9
		C203.1,256.8,202.4,257.1,201.5,257.1z M201.2,251.4c0.5,0,1-0.1,1.3-0.4s0.4-0.7,0.4-1.1s-0.2-0.8-0.5-1.2
		c-0.3-0.3-0.7-0.5-1.3-0.5h-3v3.2H201.2z M201.2,256c0.6,0,1-0.2,1.3-0.5c0.3-0.3,0.5-0.7,0.5-1.2c0-0.5-0.2-0.9-0.5-1.2
		c-0.3-0.3-0.8-0.5-1.3-0.5h-3v3.4H201.2z"/>
	<path class="st3" d="M209.7,257.1h-3.4v-9.9h3.4c1.5,0,2.7,0.5,3.7,1.4c0.9,0.9,1.4,2.1,1.4,3.5c0,1.4-0.5,2.6-1.4,3.6
		S211.2,257.1,209.7,257.1z M209.7,256c1.2,0,2.1-0.4,2.8-1.1c0.7-0.7,1-1.6,1-2.7c0-1.1-0.3-2-1-2.8c-0.7-0.7-1.6-1.1-2.8-1.1h-2.2
		v7.7H209.7z"/>
	<path class="st3" d="M227,257.1h-6.8v-1c2-1.6,3.5-2.8,4.3-3.7c0.8-0.9,1.2-1.7,1.2-2.5c0-0.6-0.2-1-0.6-1.4
		c-0.4-0.3-0.9-0.5-1.5-0.5c-1.1,0-2,0.4-2.7,1.2l-0.8-0.8c0.4-0.5,0.9-0.9,1.5-1.2s1.3-0.4,2-0.4c0.9,0,1.7,0.3,2.3,0.8
		c0.7,0.5,1,1.2,1,2.2c0,0.9-0.4,1.8-1.2,2.8c-0.8,0.9-2,2-3.6,3.3h4.9V257.1z"/>
	<path class="st3" d="M232.7,257.2c-0.7,0-1.2-0.2-1.7-0.5c-0.5-0.3-0.9-0.7-1.2-1.2s-0.5-1-0.7-1.6c-0.1-0.6-0.2-1.2-0.2-1.8
		c0-0.6,0.1-1.2,0.2-1.8s0.4-1.1,0.7-1.6s0.7-0.9,1.2-1.2c0.5-0.3,1.1-0.5,1.7-0.5c0.6,0,1.2,0.2,1.7,0.5c0.5,0.3,0.9,0.7,1.2,1.2
		c0.3,0.5,0.5,1,0.7,1.6s0.2,1.2,0.2,1.8c0,0.6-0.1,1.2-0.2,1.8c-0.1,0.6-0.4,1.1-0.7,1.6c-0.3,0.5-0.7,0.9-1.2,1.2
		C233.9,257.1,233.3,257.2,232.7,257.2z M231.2,255.5c0.4,0.4,0.9,0.6,1.5,0.6c0.6,0,1.1-0.2,1.5-0.6c0.4-0.4,0.7-0.9,0.8-1.5
		s0.2-1.2,0.2-1.9c0-0.7-0.1-1.4-0.2-1.9s-0.4-1.1-0.8-1.5c-0.4-0.4-0.9-0.6-1.5-0.6c-0.6,0-1.1,0.2-1.5,0.6
		c-0.4,0.4-0.7,0.9-0.8,1.5c-0.1,0.6-0.2,1.2-0.2,1.9c0,0.7,0.1,1.4,0.2,1.9C230.5,254.6,230.8,255.1,231.2,255.5z"/>
	<path class="st3" d="M252,257.1h-1.1v-4.9c0-1-0.4-1.5-1.3-1.5c-0.4,0-0.7,0.1-1.1,0.3s-0.6,0.5-0.8,0.8v5.3h-1.1v-4.9
		c0-1-0.4-1.5-1.3-1.5c-0.3,0-0.7,0.1-1,0.3c-0.4,0.2-0.6,0.5-0.8,0.8v5.2h-1.1v-7.2h1.1v1c0.2-0.3,0.5-0.6,0.9-0.8
		c0.4-0.3,0.9-0.4,1.4-0.4c0.5,0,0.9,0.1,1.3,0.4c0.3,0.2,0.5,0.6,0.7,1c0.2-0.4,0.5-0.7,1-0.9c0.4-0.3,0.9-0.4,1.4-0.4
		c1.3,0,2,0.7,2,2.2V257.1z"/>
	<path class="st3" d="M257.1,260c-0.6,0-1.2-0.1-1.6-0.2c-0.4-0.2-0.9-0.4-1.3-0.8l0.6-0.8c0.5,0.6,1.3,1,2.3,1
		c0.7,0,1.2-0.2,1.6-0.5c0.4-0.3,0.7-0.9,0.7-1.6v-1.1c-0.3,0.4-0.6,0.7-1.1,0.9c-0.4,0.2-0.9,0.3-1.4,0.3c-1,0-1.7-0.3-2.3-1
		c-0.6-0.7-0.9-1.6-0.9-2.7s0.3-2,0.9-2.7c0.6-0.7,1.4-1,2.3-1c1,0,1.8,0.4,2.4,1.3v-1.1h1.1v7.1c0,1-0.3,1.8-1,2.3
		C258.9,259.7,258,260,257.1,260z M257.2,256.2c0.4,0,0.8-0.1,1.2-0.3c0.4-0.2,0.7-0.5,0.9-0.8v-3.1c-0.2-0.3-0.5-0.6-0.9-0.8
		c-0.4-0.2-0.8-0.3-1.2-0.3c-0.7,0-1.3,0.3-1.7,0.8s-0.6,1.2-0.6,2c0,0.8,0.2,1.5,0.6,2S256.5,256.2,257.2,256.2z"/>
	<path class="st3" d="M262.5,257.4h-0.9l3.5-10.5h0.9L262.5,257.4z"/>
	<path class="st3" d="M273.4,257.1H272l-2.6-3.2l-1.2,1.2v2h-1.1v-9.9h1.1v6.6l3.8-3.8h1.4l-3.2,3.3L273.4,257.1z"/>
	<path class="st3" d="M277.6,260c-0.6,0-1.2-0.1-1.6-0.2c-0.4-0.2-0.9-0.4-1.3-0.8l0.6-0.8c0.5,0.6,1.3,1,2.3,1
		c0.7,0,1.2-0.2,1.6-0.5c0.4-0.3,0.7-0.9,0.7-1.6v-1.1c-0.3,0.4-0.6,0.7-1.1,0.9c-0.4,0.2-0.9,0.3-1.4,0.3c-1,0-1.7-0.3-2.3-1
		c-0.6-0.7-0.9-1.6-0.9-2.7s0.3-2,0.9-2.7c0.6-0.7,1.4-1,2.3-1c1,0,1.8,0.4,2.4,1.3v-1.1h1.1v7.1c0,1-0.3,1.8-1,2.3
		C279.4,259.7,278.6,260,277.6,260z M277.8,256.2c0.4,0,0.8-0.1,1.2-0.3c0.4-0.2,0.7-0.5,0.9-0.8v-3.1c-0.2-0.3-0.5-0.6-0.9-0.8
		c-0.4-0.2-0.8-0.3-1.2-0.3c-0.7,0-1.3,0.3-1.7,0.8s-0.6,1.2-0.6,2c0,0.8,0.2,1.5,0.6,2S277.1,256.2,277.8,256.2z"/>
	<path class="st3" d="M283.1,257.4h-0.9l3.5-10.5h0.9L283.1,257.4z"/>
	<path class="st3" d="M294,257.1h-1.1V256c-0.6,0.8-1.4,1.2-2.4,1.2c-1,0-1.7-0.3-2.3-1c-0.6-0.7-0.9-1.6-0.9-2.7
		c0-1.1,0.3-2.1,0.9-2.7c0.6-0.7,1.4-1,2.3-1c1,0,1.8,0.4,2.4,1.3v-3.8h1.1V257.1z M290.7,256.2c0.4,0,0.8-0.1,1.2-0.3
		c0.4-0.2,0.7-0.5,0.9-0.8v-3.2c-0.2-0.3-0.5-0.6-0.9-0.8s-0.8-0.3-1.2-0.3c-0.7,0-1.3,0.3-1.7,0.8c-0.4,0.5-0.6,1.2-0.6,2
		s0.2,1.5,0.6,2C289.5,256,290,256.2,290.7,256.2z"/>
	<path class="st3" d="M299.2,246.7l-2.5,2.1h-0.8l2.2-2.1H299.2z M297.3,257.1h-1.1v-7.2h1.1V257.1z"/>
	<path class="st3" d="M305.2,257.1h-1.1v-0.8c-0.6,0.7-1.4,1-2.4,1c-0.7,0-1.2-0.2-1.7-0.6s-0.8-1-0.8-1.7c0-0.8,0.2-1.3,0.7-1.8
		c0.5-0.4,1.1-0.6,1.8-0.6c1,0,1.8,0.3,2.4,1v-1.3c0-0.5-0.2-0.8-0.5-1.1c-0.3-0.3-0.8-0.4-1.3-0.4c-0.9,0-1.6,0.3-2.2,1l-0.5-0.8
		c0.8-0.8,1.7-1.2,2.9-1.2c0.8,0,1.5,0.2,2,0.6c0.5,0.4,0.8,1,0.8,1.8V257.1z M302.1,256.4c0.9,0,1.5-0.3,2-0.9v-1.4
		c-0.4-0.6-1.1-0.9-2-0.9c-0.5,0-1,0.1-1.3,0.4c-0.3,0.3-0.5,0.7-0.5,1.1c0,0.5,0.2,0.8,0.5,1.1
		C301.1,256.3,301.6,256.4,302.1,256.4z"/>
</g>
<g>
	<path class="st3" d="M180.4,270.2c0.3,0.3,0.5,0.7,0.5,1.1c0,0.4-0.2,0.8-0.5,1.1s-0.7,0.5-1.1,0.5c-0.4,0-0.8-0.2-1.1-0.5
		c-0.3-0.3-0.5-0.7-0.5-1.1c0-0.4,0.2-0.8,0.5-1.1c0.3-0.3,0.7-0.5,1.1-0.5C179.7,269.7,180.1,269.8,180.4,270.2z"/>
	<path class="st3" d="M188.2,274.9h-1.2V265h4c1,0,1.7,0.3,2.3,0.9s0.8,1.3,0.8,2.1s-0.3,1.5-0.8,2.1c-0.6,0.6-1.3,0.9-2.3,0.9h-2.7
		V274.9z M190.8,269.8c0.6,0,1.1-0.2,1.4-0.5s0.5-0.8,0.5-1.4s-0.2-1-0.5-1.4c-0.4-0.4-0.8-0.5-1.4-0.5h-2.6v3.8H190.8z"/>
	<path class="st3" d="M196.7,274.9h-1.1V265h1.1V274.9z"/>
	<path class="st3" d="M204.5,274.9h-1.1v-0.8c-0.6,0.7-1.4,1-2.4,1c-0.7,0-1.2-0.2-1.7-0.6s-0.8-1-0.8-1.7c0-0.8,0.2-1.3,0.7-1.8
		c0.5-0.4,1.1-0.6,1.8-0.6c1,0,1.8,0.3,2.4,1V270c0-0.5-0.2-0.8-0.5-1.1c-0.3-0.3-0.8-0.4-1.3-0.4c-0.9,0-1.6,0.3-2.2,1l-0.5-0.8
		c0.8-0.8,1.7-1.2,2.9-1.2c0.8,0,1.5,0.2,2,0.6c0.5,0.4,0.8,1,0.8,1.8V274.9z M201.5,274.3c0.9,0,1.5-0.3,2-0.9V272
		c-0.4-0.6-1.1-0.9-2-0.9c-0.5,0-1,0.1-1.3,0.4c-0.3,0.3-0.5,0.7-0.5,1.1c0,0.5,0.2,0.8,0.5,1.1
		C200.5,274.1,200.9,274.3,201.5,274.3z"/>
	<path class="st3" d="M209.9,275.1c-1.1,0-1.9-0.4-2.6-1.1c-0.7-0.7-1-1.6-1-2.7c0-1.1,0.3-2,1-2.7c0.7-0.7,1.5-1.1,2.6-1.1
		c1.1,0,2,0.4,2.6,1.2l-0.7,0.7c-0.4-0.6-1.1-0.9-1.8-0.9c-0.7,0-1.3,0.3-1.8,0.8c-0.5,0.5-0.7,1.2-0.7,2c0,0.8,0.2,1.5,0.7,2
		c0.5,0.5,1.1,0.8,1.8,0.8c0.8,0,1.4-0.3,1.8-0.9l0.7,0.7C211.9,274.6,211.1,275.1,209.9,275.1z"/>
	<path class="st3" d="M217.4,275.1c-1.1,0-2-0.3-2.6-1c-0.7-0.7-1-1.6-1-2.7c0-1,0.3-1.9,1-2.7c0.7-0.7,1.5-1.1,2.5-1.1
		c1.1,0,1.9,0.4,2.5,1.1c0.6,0.7,0.9,1.6,0.9,2.8v0.3h-5.8c0,0.7,0.3,1.3,0.8,1.8c0.5,0.5,1.1,0.7,1.8,0.7c0.9,0,1.6-0.3,2.2-0.9
		l0.5,0.7C219.5,274.7,218.5,275.1,217.4,275.1z M219.6,270.8c0-0.6-0.2-1.2-0.6-1.6c-0.4-0.5-1-0.7-1.7-0.7c-0.7,0-1.3,0.2-1.7,0.7
		c-0.4,0.5-0.6,1-0.7,1.6H219.6z"/>
	<path class="st3" d="M223.6,274.9h-1.1V265h1.1v3.8c0.6-0.8,1.4-1.3,2.4-1.3c1,0,1.7,0.3,2.3,1c0.6,0.7,0.9,1.6,0.9,2.7
		c0,1.1-0.3,2.1-0.9,2.7c-0.6,0.7-1.4,1-2.3,1c-1,0-1.8-0.4-2.4-1.2V274.9z M223.6,272.9c0.2,0.3,0.5,0.6,0.9,0.8
		c0.4,0.2,0.8,0.3,1.3,0.3c0.7,0,1.3-0.3,1.7-0.8c0.4-0.5,0.6-1.2,0.6-2s-0.2-1.5-0.6-2c-0.4-0.5-1-0.8-1.7-0.8
		c-0.4,0-0.9,0.1-1.3,0.3c-0.4,0.2-0.7,0.5-0.9,0.8V272.9z"/>
	<path class="st3" d="M236.8,274c-0.6,0.7-1.5,1.1-2.6,1.1s-1.9-0.4-2.6-1.1c-0.6-0.7-1-1.6-1-2.7c0-1.1,0.3-2,1-2.7
		s1.5-1.1,2.6-1.1s1.9,0.4,2.6,1.1c0.6,0.7,1,1.6,1,2.7C237.7,272.4,237.4,273.3,236.8,274z M232.4,273.3c0.4,0.5,1,0.8,1.7,0.8
		c0.7,0,1.3-0.3,1.7-0.8c0.4-0.5,0.6-1.2,0.6-2c0-0.8-0.2-1.4-0.6-2s-1-0.8-1.7-0.8c-0.7,0-1.3,0.3-1.7,0.8s-0.6,1.2-0.6,2
		C231.8,272.1,232,272.7,232.4,273.3z"/>
</g>
<g>
	<path class="st3" d="M408.6,207.6h-1.2v-8.3l-1.6,1.7l-0.7-0.8l2.5-2.6h1.1V207.6z"/>
	<path class="st3" d="M413.7,207.7c-1.1,0-2-0.4-2.7-1.2l0.6-0.9c0.6,0.7,1.3,1,2.1,1c0.6,0,1.2-0.2,1.6-0.6
		c0.4-0.4,0.7-0.9,0.9-1.4s0.3-1.2,0.3-1.9c0-0.2,0-0.3,0-0.4c-0.2,0.4-0.6,0.8-1.1,1.1c-0.5,0.3-1.1,0.5-1.6,0.5
		c-0.9,0-1.7-0.3-2.3-0.8c-0.6-0.5-0.9-1.3-0.9-2.3c0-0.9,0.3-1.7,1-2.3s1.5-1,2.5-1c0.7,0,1.2,0.1,1.8,0.4c0.5,0.3,0.9,0.7,1.2,1.1
		s0.5,1,0.7,1.6c0.1,0.6,0.2,1.2,0.2,1.9c0,0.9-0.1,1.8-0.4,2.5c-0.3,0.7-0.7,1.4-1.4,1.9S414.6,207.7,413.7,207.7z M414,202.8
		c0.5,0,1-0.1,1.4-0.4s0.8-0.6,1.1-1.1c0-0.3-0.1-0.6-0.2-1c-0.1-0.3-0.3-0.6-0.4-0.9s-0.4-0.5-0.8-0.7c-0.3-0.2-0.7-0.3-1.1-0.3
		c-0.7,0-1.3,0.2-1.7,0.6c-0.4,0.4-0.6,0.9-0.6,1.4c0,0.7,0.2,1.2,0.6,1.6C412.8,202.6,413.3,202.8,414,202.8z"/>
	<path class="st3" d="M425.4,207c-0.7,0.5-1.5,0.7-2.5,0.7c-1,0-1.9-0.2-2.5-0.7c-0.7-0.5-1-1.1-1-2c0-0.6,0.2-1.2,0.7-1.6
		c0.5-0.5,1-0.8,1.7-1c-0.6-0.2-1.2-0.5-1.6-0.9c-0.4-0.4-0.6-0.9-0.6-1.5c0-0.8,0.3-1.5,1-1.9s1.5-0.7,2.4-0.7s1.7,0.2,2.4,0.7
		s1,1.1,1,1.9c0,0.6-0.2,1.1-0.6,1.5c-0.4,0.4-0.9,0.7-1.6,0.9c0.7,0.2,1.2,0.5,1.7,1c0.5,0.5,0.7,1,0.7,1.6
		C426.4,205.9,426.1,206.5,425.4,207z M422.9,206.6c0.6,0,1.2-0.2,1.6-0.5c0.5-0.3,0.7-0.7,0.7-1.2c0-0.4-0.2-0.7-0.5-1
		s-0.6-0.5-1-0.6s-0.6-0.2-0.9-0.2c-0.3,0-0.6,0.1-0.9,0.2s-0.6,0.3-1,0.6s-0.5,0.7-0.5,1c0,0.5,0.2,0.9,0.7,1.2
		C421.7,206.5,422.2,206.6,422.9,206.6z M422.9,201.9c0.2,0,0.4-0.1,0.6-0.1c0.2-0.1,0.4-0.2,0.7-0.3c0.3-0.1,0.5-0.3,0.6-0.5
		c0.2-0.2,0.2-0.5,0.2-0.8c0-0.5-0.2-0.9-0.6-1.2c-0.4-0.3-0.9-0.4-1.5-0.4c-0.6,0-1.1,0.1-1.5,0.4c-0.4,0.3-0.6,0.7-0.6,1.2
		c0,0.3,0.1,0.5,0.2,0.8c0.2,0.2,0.4,0.4,0.6,0.5c0.3,0.1,0.5,0.2,0.7,0.3C422.5,201.9,422.7,201.9,422.9,201.9z"/>
	<path class="st3" d="M573.5,207.6h-6.8v-1c2-1.6,3.5-2.8,4.3-3.7c0.8-0.9,1.2-1.7,1.2-2.5c0-0.6-0.2-1-0.6-1.4
		c-0.4-0.3-0.9-0.5-1.5-0.5c-1.1,0-2,0.4-2.7,1.2l-0.8-0.8c0.4-0.5,0.9-0.9,1.5-1.2c0.6-0.3,1.3-0.4,2-0.4c0.9,0,1.7,0.3,2.3,0.8
		c0.7,0.5,1,1.2,1,2.2c0,0.9-0.4,1.8-1.2,2.8c-0.8,0.9-2,2-3.6,3.3h4.9V207.6z"/>
	<path class="st3" d="M582.3,207.6h-6.8v-1c2-1.6,3.5-2.8,4.3-3.7c0.8-0.9,1.2-1.7,1.2-2.5c0-0.6-0.2-1-0.6-1.4
		c-0.4-0.3-0.9-0.5-1.5-0.5c-1.1,0-2,0.4-2.7,1.2l-0.8-0.8c0.4-0.5,0.9-0.9,1.5-1.2c0.6-0.3,1.3-0.4,2-0.4c0.9,0,1.7,0.3,2.3,0.8
		c0.7,0.5,1,1.2,1,2.2c0,0.9-0.4,1.8-1.2,2.8c-0.8,0.9-2,2-3.6,3.3h4.9V207.6z"/>
	<path class="st3" d="M587.9,207.7c-1.5,0-2.7-0.5-3.5-1.6l0.8-0.8c0.7,0.9,1.6,1.3,2.7,1.3c0.7,0,1.2-0.2,1.6-0.6
		c0.4-0.4,0.6-0.9,0.6-1.5c0-0.6-0.2-1.2-0.6-1.6c-0.4-0.4-1-0.6-1.6-0.6c-0.9,0-1.6,0.3-2.3,0.9l-0.9-0.3v-5.3h6.1v1.1h-4.8v3.4
		c0.6-0.6,1.4-0.9,2.3-0.9c0.9,0,1.6,0.3,2.2,0.8s0.9,1.3,0.9,2.3c0,1-0.3,1.8-1,2.4C589.7,207.4,588.9,207.7,587.9,207.7z"/>
	<path class="st3" d="M738.5,207.6h-1.2v-8.3l-1.6,1.7l-0.7-0.8l2.5-2.6h1.1V207.6z"/>
	<path class="st3" d="M742.9,207.6h-1.4l4-8.8h-5.3v-1.1h6.8v0.8L742.9,207.6z"/>
	<path class="st3" d="M751.2,207.6H750v-8.3l-1.6,1.7l-0.7-0.8l2.5-2.6h1.1V207.6z"/>
</g>
<g>
	<path class="st3" d="M626.2,158.4h-6.8v-1c2-1.6,3.5-2.8,4.3-3.7c0.8-0.9,1.2-1.7,1.2-2.5c0-0.6-0.2-1-0.6-1.4
		c-0.4-0.3-0.9-0.5-1.5-0.5c-1.1,0-2,0.4-2.7,1.2l-0.8-0.8c0.4-0.5,0.9-0.9,1.5-1.2c0.6-0.3,1.3-0.4,2-0.4c0.9,0,1.7,0.3,2.3,0.8
		c0.7,0.5,1,1.2,1,2.2c0,0.9-0.4,1.8-1.2,2.8c-0.8,0.9-2,2-3.6,3.3h4.9V158.4z"/>
	<path class="st3" d="M631.3,155.2h-3.6v-1h3.6V155.2z"/>
	<path class="st3" d="M636.2,158.5c-1.5,0-2.7-0.5-3.5-1.6l0.8-0.8c0.7,0.9,1.6,1.3,2.7,1.3c0.7,0,1.2-0.2,1.6-0.6
		c0.4-0.4,0.6-0.9,0.6-1.5c0-0.6-0.2-1.2-0.6-1.6c-0.4-0.4-1-0.6-1.6-0.6c-0.9,0-1.6,0.3-2.3,0.9l-0.9-0.3v-5.3h6.1v1.1h-4.8v3.4
		c0.6-0.6,1.4-0.9,2.3-0.9c0.9,0,1.6,0.3,2.2,0.8s0.9,1.3,0.9,2.3c0,1-0.3,1.8-1,2.4C638.1,158.2,637.2,158.5,636.2,158.5z"/>
	<path class="st3" d="M645,158.5c-1.5,0-2.7-0.5-3.5-1.6l0.8-0.8c0.7,0.9,1.6,1.3,2.7,1.3c0.7,0,1.2-0.2,1.6-0.6
		c0.4-0.4,0.6-0.9,0.6-1.5c0-0.6-0.2-1.2-0.6-1.6c-0.4-0.4-1-0.6-1.6-0.6c-0.9,0-1.6,0.3-2.3,0.9l-0.9-0.3v-5.3h6.1v1.1H643v3.4
		c0.6-0.6,1.4-0.9,2.3-0.9c0.9,0,1.6,0.3,2.2,0.8s0.9,1.3,0.9,2.3c0,1-0.3,1.8-1,2.4C646.8,158.2,646,158.5,645,158.5z"/>
	<path class="st3" d="M659.8,158.4h-1.1v-0.8c-0.6,0.7-1.4,1-2.4,1c-0.7,0-1.2-0.2-1.7-0.6s-0.8-1-0.8-1.7c0-0.8,0.2-1.3,0.7-1.8
		c0.5-0.4,1.1-0.6,1.8-0.6c1,0,1.8,0.3,2.4,1v-1.3c0-0.5-0.2-0.8-0.5-1.1s-0.8-0.4-1.3-0.4c-0.9,0-1.6,0.3-2.2,1l-0.5-0.8
		c0.8-0.8,1.7-1.2,2.9-1.2c0.8,0,1.5,0.2,2,0.6c0.5,0.4,0.8,1,0.8,1.8V158.4z M656.7,157.7c0.9,0,1.5-0.3,2-0.9v-1.4
		c-0.4-0.6-1.1-0.9-2-0.9c-0.5,0-1,0.1-1.3,0.4c-0.3,0.3-0.5,0.7-0.5,1.1c0,0.5,0.2,0.8,0.5,1.1
		C655.8,157.6,656.2,157.7,656.7,157.7z"/>
	<path class="st3" d="M668.1,158.4H667v-4.7c0-0.6-0.1-1-0.4-1.3s-0.7-0.4-1.2-0.4c-0.4,0-0.8,0.1-1.2,0.3c-0.4,0.2-0.7,0.5-0.9,0.8
		v5.2h-1.1v-7.2h1.1v1c0.3-0.3,0.6-0.6,1.1-0.9c0.5-0.2,1-0.4,1.5-0.4c1.5,0,2.3,0.8,2.3,2.3V158.4z M665.9,150.1
		c-0.2,0-0.4-0.1-0.6-0.2s-0.3-0.3-0.4-0.5c-0.1-0.2-0.2-0.3-0.3-0.5s-0.3-0.2-0.4-0.2c-0.2,0-0.4,0.1-0.5,0.3s-0.2,0.5-0.2,1h-0.7
		c0-0.6,0.1-1.1,0.4-1.4s0.6-0.5,1.1-0.5c0.2,0,0.4,0.1,0.6,0.2c0.2,0.1,0.3,0.3,0.4,0.5c0.1,0.2,0.2,0.3,0.3,0.5
		c0.1,0.1,0.3,0.2,0.4,0.2c0.2,0,0.4-0.1,0.5-0.3s0.2-0.5,0.2-1h0.7c0,0.6-0.1,1.1-0.4,1.4C666.8,149.9,666.4,150.1,665.9,150.1z"/>
	<path class="st3" d="M676,157.4c-0.6,0.7-1.5,1.1-2.6,1.1s-1.9-0.4-2.6-1.1c-0.6-0.7-1-1.6-1-2.7c0-1.1,0.3-2,1-2.7
		s1.5-1.1,2.6-1.1s1.9,0.4,2.6,1.1s1,1.6,1,2.7C676.9,155.8,676.6,156.7,676,157.4z M671.7,156.7c0.4,0.5,1,0.8,1.7,0.8
		c0.7,0,1.3-0.3,1.7-0.8c0.4-0.5,0.6-1.2,0.6-2c0-0.8-0.2-1.4-0.6-2s-1-0.8-1.7-0.8c-0.7,0-1.3,0.3-1.7,0.8s-0.6,1.2-0.6,2
		C671,155.5,671.2,156.2,671.7,156.7z"/>
	<path class="st3" d="M681,158.5c-1.2,0-2.2-0.4-2.9-1.1l0.6-0.8c0.2,0.3,0.6,0.5,1,0.7c0.4,0.2,0.9,0.3,1.3,0.3
		c0.5,0,1-0.1,1.3-0.3c0.3-0.2,0.5-0.5,0.5-0.9c0-0.3-0.2-0.6-0.5-0.8c-0.3-0.2-0.7-0.3-1.1-0.4s-0.9-0.2-1.3-0.3
		c-0.4-0.1-0.8-0.3-1.1-0.6c-0.3-0.3-0.5-0.7-0.5-1.2c0-0.6,0.2-1.1,0.7-1.5c0.5-0.4,1.1-0.6,1.9-0.6c1.1,0,2,0.3,2.7,1l-0.5,0.8
		c-0.5-0.6-1.2-0.9-2.1-0.9c-0.5,0-0.9,0.1-1.2,0.3s-0.4,0.5-0.4,0.8c0,0.2,0.1,0.4,0.3,0.6c0.2,0.2,0.5,0.3,0.8,0.3
		c0.3,0.1,0.7,0.2,1.1,0.3c0.4,0.1,0.7,0.2,1.1,0.4c0.3,0.1,0.6,0.4,0.8,0.7c0.2,0.3,0.3,0.7,0.3,1.1c0,0.6-0.2,1.2-0.7,1.6
		C682.6,158.3,681.9,158.5,681,158.5z"/>
</g>
<g>
	<defs>
		<path id="SVGID_3_" d="M306.4,67H193.2c-4.2,0-8-1.7-10.8-4.5c-2.8-2.8-4.5-6.6-4.5-10.8c0-4.2,1.7-8,4.5-10.8
			c2.8-2.8,6.6-4.5,10.8-4.5h113.2c4.2,0,8,1.7,10.8,4.5c2.8,2.8,4.5,6.6,4.5,10.8c0,4.2-1.7,8-4.5,10.8
			C314.4,65.3,310.6,67,306.4,67"/>
	</defs>
	<clipPath id="SVGID_4_">
		<use xlink:href="#SVGID_3_"  style="overflow:visible;"/>
	</clipPath>
	<g class="st6">
		<defs>
			<rect id="SVGID_5_" x="176.7" y="34.5" width="147" height="33.9"/>
		</defs>
		<clipPath id="SVGID_6_">
			<use xlink:href="#SVGID_5_"  style="overflow:visible;"/>
		</clipPath>
		<g transform="matrix(1 0 0 1 1.525879e-05 0)" style="clip-path:url(#SVGID_6_);">
			
				<image style="overflow:visible;" width="144" height="33" xlink:href="5C6EA582.jpg"  transform="matrix(1.0206 0 0 1.0278 176.7108 34.5236)">
			</image>
		</g>
	</g>
</g>
<g>
	<defs>
		<path id="SVGID_7_" d="M323.7,51.8L323.7,51.8 M193.2,36.6c-4.2,0-8,1.7-10.8,4.5c-2.8,2.8-4.5,6.6-4.5,10.8c0,4.2,1.7,8,4.5,10.8
			c2.8,2.8,6.6,4.5,10.8,4.5h113.2c4.2,0,8-1.7,10.8-4.5c2.8-2.8,4.5-6.6,4.5-10.8c0-4.2-1.7-8-4.5-10.8c-2.8-2.8-6.6-4.5-10.8-4.5
			H193.2 M306.4,69.1H193.2c-9.6,0-17.3-7.8-17.3-17.3s7.8-17.3,17.3-17.3h113.2c9.6,0,17.3,7.8,17.3,17.3
			C323.7,61.3,316,69.1,306.4,69.1"/>
	</defs>
	<clipPath id="SVGID_8_">
		<use xlink:href="#SVGID_7_"  style="overflow:visible;"/>
	</clipPath>
	<g class="st7">
		<defs>
			<rect id="SVGID_9_" x="174.7" y="32.5" width="151" height="38"/>
		</defs>
		<clipPath id="SVGID_10_">
			<use xlink:href="#SVGID_9_"  style="overflow:visible;"/>
		</clipPath>
		<g style="clip-path:url(#SVGID_10_);">
			
				<image style="overflow:visible;" width="148" height="37" xlink:href="5C6EA583.jpg"  transform="matrix(1.0206 0 0 1.0268 174.6738 32.4862)">
			</image>
		</g>
	</g>
</g>
<g>
	<defs>
		<path id="SVGID_11_" d="M471.9,67H358.7c-4.2,0-8-1.7-10.8-4.5c-2.8-2.8-4.5-6.6-4.5-10.8c0-4.2,1.7-8,4.5-10.8
			c2.8-2.8,6.5-4.5,10.8-4.5h113.2c4.2,0,8,1.7,10.8,4.5c2.8,2.8,4.5,6.6,4.5,10.8c0,4.2-1.7,8-4.5,10.8
			C479.9,65.3,476.1,67,471.9,67"/>
	</defs>
	<clipPath id="SVGID_12_">
		<use xlink:href="#SVGID_11_"  style="overflow:visible;"/>
	</clipPath>
	<g class="st8">
		<defs>
			<rect id="SVGID_13_" x="341.7" y="34.5" width="147" height="33.9"/>
		</defs>
		<clipPath id="SVGID_14_">
			<use xlink:href="#SVGID_13_"  style="overflow:visible;"/>
		</clipPath>
		<g style="clip-path:url(#SVGID_14_);">
			
				<image style="overflow:visible;" width="144" height="33" xlink:href="5C6EA58E.jpg"  transform="matrix(1.0206 0 0 1.0278 341.7082 34.5236)">
			</image>
		</g>
	</g>
</g>
<g>
	<defs>
		<path id="SVGID_15_" d="M489.2,51.8L489.2,51.8 M358.7,36.6c-4.2,0-8,1.7-10.8,4.5c-2.8,2.8-4.5,6.6-4.5,10.8
			c0,4.2,1.7,8,4.5,10.8c2.8,2.8,6.5,4.5,10.8,4.5h113.2c4.2,0,8-1.7,10.8-4.5c2.8-2.8,4.5-6.6,4.5-10.8c0-4.2-1.7-8-4.5-10.8
			c-2.8-2.8-6.6-4.5-10.8-4.5H358.7 M471.9,69.1H358.7c-9.6,0-17.3-7.8-17.3-17.3s7.8-17.3,17.3-17.3h113.2
			c9.6,0,17.3,7.8,17.3,17.3S481.5,69.1,471.9,69.1"/>
	</defs>
	<clipPath id="SVGID_16_">
		<use xlink:href="#SVGID_15_"  style="overflow:visible;"/>
	</clipPath>
	<g class="st9">
		<defs>
			<rect id="SVGID_17_" x="339.7" y="32.5" width="151" height="38"/>
		</defs>
		<clipPath id="SVGID_18_">
			<use xlink:href="#SVGID_17_"  style="overflow:visible;"/>
		</clipPath>
		<g style="clip-path:url(#SVGID_18_);">
			
				<image style="overflow:visible;" width="148" height="37" xlink:href="5C6EA581.jpg"  transform="matrix(1.0206 0 0 1.0268 339.6712 32.4862)">
			</image>
		</g>
	</g>
</g>
<g>
	<defs>
		<path id="SVGID_19_" d="M637.4,67H524.2c-4.2,0-8-1.7-10.8-4.5c-2.8-2.8-4.5-6.6-4.5-10.8c0-4.2,1.7-8,4.5-10.8
			c2.8-2.8,6.6-4.5,10.8-4.5h113.2c4.2,0,8,1.7,10.8,4.5c2.8,2.8,4.5,6.6,4.5,10.8c0,4.2-1.7,8-4.5,10.8
			C645.4,65.3,641.6,67,637.4,67"/>
	</defs>
	<clipPath id="SVGID_20_">
		<use xlink:href="#SVGID_19_"  style="overflow:visible;"/>
	</clipPath>
	<g class="st10">
		<defs>
			<rect id="SVGID_21_" x="507.7" y="34.5" width="147" height="33.9"/>
		</defs>
		<clipPath id="SVGID_22_">
			<use xlink:href="#SVGID_21_"  style="overflow:visible;"/>
		</clipPath>
		<g style="clip-path:url(#SVGID_22_);">
			
				<image style="overflow:visible;" width="144" height="33" xlink:href="5C6EA580.jpg"  transform="matrix(1.0206 0 0 1.0278 507.7242 34.5236)">
			</image>
		</g>
	</g>
</g>
<g>
	<defs>
		<path id="SVGID_23_" d="M654.7,51.8L654.7,51.8 M524.2,36.6c-4.2,0-8,1.7-10.8,4.5c-2.8,2.8-4.5,6.6-4.5,10.8
			c0,4.2,1.7,8,4.5,10.8c2.8,2.8,6.6,4.5,10.8,4.5h113.2c4.2,0,8-1.7,10.8-4.5c2.8-2.8,4.5-6.6,4.5-10.8c0-4.2-1.7-8-4.5-10.8
			c-2.8-2.8-6.6-4.5-10.8-4.5H524.2 M637.4,69.1H524.2c-9.6,0-17.3-7.8-17.3-17.3s7.8-17.3,17.3-17.3h113.2
			c9.6,0,17.3,7.8,17.3,17.3C654.7,61.3,647,69.1,637.4,69.1"/>
	</defs>
	<clipPath id="SVGID_24_">
		<use xlink:href="#SVGID_23_"  style="overflow:visible;"/>
	</clipPath>
	<g class="st11">
		<defs>
			<rect id="SVGID_25_" x="505.7" y="32.5" width="151" height="38"/>
		</defs>
		<clipPath id="SVGID_26_">
			<use xlink:href="#SVGID_25_"  style="overflow:visible;"/>
		</clipPath>
		<g style="clip-path:url(#SVGID_26_);">
			
				<image style="overflow:visible;" width="148" height="37" xlink:href="5C6EA59B.jpg"  transform="matrix(1.0206 0 0 1.0268 505.6871 32.4862)">
			</image>
		</g>
	</g>
</g>
<g>
	<defs>
		<path id="SVGID_27_" d="M802.9,67H689.7c-4.2,0-8-1.7-10.8-4.5c-2.8-2.8-4.5-6.6-4.5-10.8c0-4.2,1.7-8,4.5-10.8
			c2.8-2.8,6.6-4.5,10.8-4.5h113.2c4.2,0,8,1.7,10.8,4.5c2.8,2.8,4.5,6.6,4.5,10.8c0,4.2-1.7,8-4.5,10.8
			C810.9,65.3,807.1,67,802.9,67"/>
	</defs>
	<clipPath id="SVGID_28_">
		<use xlink:href="#SVGID_27_"  style="overflow:visible;"/>
	</clipPath>
	<g class="st12">
		<defs>
			<rect id="SVGID_29_" x="672.7" y="34.5" width="147" height="33.9"/>
		</defs>
		<clipPath id="SVGID_30_">
			<use xlink:href="#SVGID_29_"  style="overflow:visible;"/>
		</clipPath>
		<g style="clip-path:url(#SVGID_30_);">
			
				<image style="overflow:visible;" width="144" height="33" xlink:href="5C6EA59C.jpg"  transform="matrix(1.0206 0 0 1.0278 672.7216 34.5236)">
			</image>
		</g>
	</g>
</g>
<g>
	<defs>
		<path id="SVGID_31_" d="M820.2,51.8L820.2,51.8 M689.7,36.6c-4.2,0-8,1.7-10.8,4.5c-2.8,2.8-4.5,6.6-4.5,10.8
			c0,4.2,1.7,8,4.5,10.8c2.8,2.8,6.6,4.5,10.8,4.5h113.2c4.2,0,8-1.7,10.8-4.5c2.8-2.8,4.5-6.6,4.5-10.8c0-4.2-1.7-8-4.5-10.8
			c-2.8-2.8-6.6-4.5-10.8-4.5H689.7 M802.9,69.1H689.7c-9.6,0-17.3-7.8-17.3-17.3s7.8-17.3,17.3-17.3h113.2
			c9.6,0,17.3,7.8,17.3,17.3S812.5,69.1,802.9,69.1"/>
	</defs>
	<clipPath id="SVGID_32_">
		<use xlink:href="#SVGID_31_"  style="overflow:visible;"/>
	</clipPath>
	<g class="st13">
		<defs>
			<rect id="SVGID_33_" x="670.7" y="32.5" width="151" height="38"/>
		</defs>
		<clipPath id="SVGID_34_">
			<use xlink:href="#SVGID_33_"  style="overflow:visible;"/>
		</clipPath>
		<g style="clip-path:url(#SVGID_34_);">
			
				<image style="overflow:visible;" width="148" height="37" xlink:href="5C6EA59D.jpg"  transform="matrix(1.0206 0 0 1.0268 670.6846 32.4862)">
			</image>
		</g>
	</g>
</g>
<g>
	<path class="st3" d="M206.3,51.6c0-3.1,2.4-5.1,5.3-5.1c2,0,3.3,1,4.1,2.2l-1.7,1c-0.5-0.7-1.3-1.3-2.3-1.3c-1.8,0-3.1,1.4-3.1,3.3
		s1.3,3.3,3.1,3.3c0.9,0,1.7-0.4,2.1-0.8v-1.2h-2.6v-1.8h4.7v3.8c-1,1.1-2.4,1.9-4.2,1.9C208.7,56.7,206.3,54.7,206.3,51.6z"/>
	<path class="st3" d="M225.1,56.6l-1.7-6.8l-1.7,6.8h-2.2l-2.8-9.9h2.4l1.7,7.2l1.9-7.2h1.6l1.9,7.2l1.7-7.2h2.4l-2.8,9.9H225.1z"/>
	<path class="st3" d="M231.1,56.6v-9.9h4.6c2.2,0,3.3,1.5,3.3,3.2c0,1.7-1.2,3.2-3.3,3.2h-2.5v3.5H231.1z M236.9,49.9
		c0-0.8-0.6-1.3-1.5-1.3h-2.2v2.7h2.2C236.3,51.2,236.9,50.7,236.9,49.9z"/>
	<path class="st3" d="M239.9,51.6c0-3.1,2.3-5.1,5.3-5.1c2.2,0,3.4,1.2,4.1,2.4l-1.8,0.9c-0.4-0.8-1.3-1.4-2.3-1.4
		c-1.8,0-3.1,1.4-3.1,3.3s1.3,3.3,3.1,3.3c1,0,1.9-0.6,2.3-1.4l1.8,0.9c-0.7,1.2-2,2.4-4.1,2.4C242.2,56.7,239.9,54.7,239.9,51.6z"
		/>
	<path class="st3" d="M257.4,56.6l-0.6-1.7h-4.2l-0.6,1.7h-2.4l3.8-9.9h2.6l3.8,9.9H257.4z M254.7,48.8l-1.5,4.3h3.1L254.7,48.8z"/>
	<path class="st3" d="M266.4,56.6l-1.9-3.5h-1.5v3.5h-2.1v-9.9h4.6c2.1,0,3.3,1.4,3.3,3.2c0,1.7-1.1,2.7-2.2,2.9l2.2,3.8H266.4z
		 M266.6,49.8c0-0.8-0.6-1.3-1.5-1.3h-2.2v2.7h2.2C265.9,51.2,266.6,50.7,266.6,49.8z"/>
	<path class="st3" d="M270.3,56.6v-9.9h7v1.9h-4.9v2.1h4.8v1.9h-4.8v2.3h4.9v1.9H270.3z"/>
	<path class="st3" d="M281,56.6v-7.2l-1.6,1.7l-1.2-1.3l3.1-3.1h1.8v9.9H281z"/>
	<path class="st3" d="M285,56.6v-9.9h1.9v3.7c0.6-0.7,1.4-1.1,2.2-1.1c1.8,0,3.2,1.4,3.2,3.8c0,2.4-1.4,3.8-3.2,3.8
		c-0.9,0-1.6-0.4-2.2-1.1v0.9H285z M288.6,55.1c1.1,0,1.8-0.8,1.8-2.1c0-1.2-0.7-2.1-1.8-2.1c-0.6,0-1.3,0.4-1.6,0.8v2.5
		C287.2,54.7,287.9,55.1,288.6,55.1z"/>
	<path class="st3" d="M375.9,51.6c0-3.1,2.4-5.1,5.3-5.1c2,0,3.3,1,4.1,2.2l-1.7,1c-0.5-0.7-1.3-1.3-2.3-1.3c-1.8,0-3.1,1.4-3.1,3.3
		s1.3,3.3,3.1,3.3c0.9,0,1.7-0.4,2.1-0.8v-1.2h-2.6v-1.8h4.7v3.8c-1,1.1-2.4,1.9-4.2,1.9C378.3,56.7,375.9,54.7,375.9,51.6z"/>
	<path class="st3" d="M394.6,56.6l-1.7-6.8l-1.7,6.8h-2.2l-2.8-9.9h2.4l1.7,7.2l1.9-7.2h1.6l1.9,7.2l1.7-7.2h2.4l-2.8,9.9H394.6z"/>
	<path class="st3" d="M400.7,56.6v-9.9h4.6c2.2,0,3.3,1.5,3.3,3.2c0,1.7-1.2,3.2-3.3,3.2h-2.5v3.5H400.7z M406.5,49.9
		c0-0.8-0.6-1.3-1.5-1.3h-2.2v2.7h2.2C405.9,51.2,406.5,50.7,406.5,49.9z"/>
	<path class="st3" d="M409.5,51.6c0-3.1,2.3-5.1,5.3-5.1c2.2,0,3.4,1.2,4.1,2.4l-1.8,0.9c-0.4-0.8-1.3-1.4-2.3-1.4
		c-1.8,0-3.1,1.4-3.1,3.3s1.3,3.3,3.1,3.3c1,0,1.9-0.6,2.3-1.4l1.8,0.9c-0.7,1.2-2,2.4-4.1,2.4C411.8,56.7,409.5,54.7,409.5,51.6z"
		/>
	<path class="st3" d="M427,56.6l-0.6-1.7h-4.2l-0.6,1.7h-2.4l3.8-9.9h2.6l3.8,9.9H427z M424.3,48.8l-1.5,4.3h3.1L424.3,48.8z"/>
	<path class="st3" d="M435.9,56.6L434,53h-1.5v3.5h-2.1v-9.9h4.6c2.1,0,3.3,1.4,3.3,3.2c0,1.7-1.1,2.7-2.2,2.9l2.2,3.8H435.9z
		 M436.1,49.8c0-0.8-0.6-1.3-1.5-1.3h-2.2v2.7h2.2C435.5,51.2,436.1,50.7,436.1,49.8z"/>
	<path class="st3" d="M439.9,56.6v-9.9h7v1.9H442v2.1h4.8v1.9H442v2.3h4.9v1.9H439.9z"/>
	<path class="st3" d="M448.3,56.6v-1.7c4.1-3,5.2-4,5.2-5.2c0-0.9-0.8-1.3-1.6-1.3c-1.1,0-2,0.4-2.7,1.1l-1.2-1.4
		c1-1.1,2.4-1.6,3.8-1.6c2.1,0,3.8,1.2,3.8,3.2c0,1.7-1.4,3.2-4,5h4v1.9H448.3z"/>
	<path class="st3" d="M539.1,51.6c0-3.1,2.4-5.1,5.3-5.1c2,0,3.3,1,4.1,2.2l-1.7,1c-0.5-0.7-1.3-1.3-2.3-1.3c-1.8,0-3.1,1.4-3.1,3.3
		s1.3,3.3,3.1,3.3c0.9,0,1.7-0.4,2.1-0.8v-1.2h-2.6v-1.8h4.7v3.8c-1,1.1-2.4,1.9-4.2,1.9C541.4,56.7,539.1,54.7,539.1,51.6z"/>
	<path class="st3" d="M557.8,56.6l-1.7-6.8l-1.7,6.8h-2.2l-2.8-9.9h2.4l1.7,7.2l1.9-7.2h1.6l1.9,7.2l1.7-7.2h2.4l-2.8,9.9H557.8z"/>
	<path class="st3" d="M563.9,56.6v-9.9h4.6c2.2,0,3.3,1.5,3.3,3.2c0,1.7-1.2,3.2-3.3,3.2H566v3.5H563.9z M569.7,49.9
		c0-0.8-0.6-1.3-1.5-1.3H566v2.7h2.2C569,51.2,569.7,50.7,569.7,49.9z"/>
	<path class="st3" d="M572.7,51.6c0-3.1,2.3-5.1,5.3-5.1c2.2,0,3.4,1.2,4.1,2.4l-1.8,0.9c-0.4-0.8-1.3-1.4-2.3-1.4
		c-1.8,0-3.1,1.4-3.1,3.3s1.3,3.3,3.1,3.3c1,0,1.9-0.6,2.3-1.4l1.8,0.9c-0.7,1.2-2,2.4-4.1,2.4C575,56.7,572.7,54.7,572.7,51.6z"/>
	<path class="st3" d="M590.2,56.6l-0.6-1.7h-4.2l-0.6,1.7h-2.4l3.8-9.9h2.6l3.8,9.9H590.2z M587.5,48.8l-1.5,4.3h3.1L587.5,48.8z"/>
	<path class="st3" d="M599.1,56.6l-1.9-3.5h-1.5v3.5h-2.1v-9.9h4.6c2.1,0,3.3,1.4,3.3,3.2c0,1.7-1.1,2.7-2.2,2.9l2.2,3.8H599.1z
		 M599.3,49.8c0-0.8-0.6-1.3-1.5-1.3h-2.2v2.7h2.2C598.7,51.2,599.3,50.7,599.3,49.8z"/>
	<path class="st3" d="M603.1,56.6v-9.9h7v1.9h-4.9v2.1h4.8v1.9h-4.8v2.3h4.9v1.9H603.1z"/>
	<path class="st3" d="M611,55.2l1.1-1.4c0.7,0.7,1.8,1.1,2.7,1.1c1.2,0,1.9-0.5,1.9-1.3c0-0.8-0.6-1.1-2-1.1c-0.4,0-1.1,0-1.2,0
		v-1.9c0.2,0,0.9,0,1.2,0c1.1,0,1.8-0.3,1.8-1.1c0-0.8-0.8-1.2-1.8-1.2c-1,0-1.8,0.4-2.5,1l-1.1-1.3c0.8-0.9,2-1.6,3.8-1.6
		c2.3,0,3.7,1,3.7,2.7c0,1.2-1.1,2.1-2.2,2.3c1,0.1,2.3,0.9,2.3,2.4c0,1.7-1.5,2.9-3.9,2.9C613.1,56.7,611.8,56,611,55.2z"/>
	<path class="st3" d="M703.5,51.6c0-3.1,2.4-5.1,5.3-5.1c2,0,3.3,1,4.1,2.2l-1.7,1c-0.5-0.7-1.3-1.3-2.3-1.3c-1.8,0-3.1,1.4-3.1,3.3
		s1.3,3.3,3.1,3.3c0.9,0,1.7-0.4,2.1-0.8v-1.2h-2.6v-1.8h4.7v3.8c-1,1.1-2.4,1.9-4.2,1.9C705.9,56.7,703.5,54.7,703.5,51.6z"/>
	<path class="st3" d="M722.2,56.6l-1.7-6.8l-1.7,6.8h-2.2l-2.8-9.9h2.4l1.7,7.2l1.9-7.2h1.6l1.9,7.2l1.7-7.2h2.4l-2.8,9.9H722.2z"/>
	<path class="st3" d="M728.3,56.6v-9.9h4.6c2.2,0,3.3,1.5,3.3,3.2c0,1.7-1.2,3.2-3.3,3.2h-2.5v3.5H728.3z M734.1,49.9
		c0-0.8-0.6-1.3-1.5-1.3h-2.2v2.7h2.2C733.5,51.2,734.1,50.7,734.1,49.9z"/>
	<path class="st3" d="M737.1,51.6c0-3.1,2.3-5.1,5.3-5.1c2.2,0,3.4,1.2,4.1,2.4l-1.8,0.9c-0.4-0.8-1.3-1.4-2.3-1.4
		c-1.8,0-3.1,1.4-3.1,3.3s1.3,3.3,3.1,3.3c1,0,1.9-0.6,2.3-1.4l1.8,0.9c-0.7,1.2-2,2.4-4.1,2.4C739.4,56.7,737.1,54.7,737.1,51.6z"
		/>
	<path class="st3" d="M754.6,56.6l-0.6-1.7h-4.2l-0.6,1.7h-2.4l3.8-9.9h2.6l3.8,9.9H754.6z M751.9,48.8l-1.5,4.3h3.1L751.9,48.8z"/>
	<path class="st3" d="M763.5,56.6l-1.9-3.5H760v3.5h-2.1v-9.9h4.6c2.1,0,3.3,1.4,3.3,3.2c0,1.7-1.1,2.7-2.2,2.9l2.2,3.8H763.5z
		 M763.7,49.8c0-0.8-0.6-1.3-1.5-1.3H760v2.7h2.2C763.1,51.2,763.7,50.7,763.7,49.8z"/>
	<path class="st3" d="M767.5,56.6v-9.9h7v1.9h-4.9v2.1h4.8v1.9h-4.8v2.3h4.9v1.9H767.5z"/>
	<path class="st3" d="M780.3,56.6v-2h-4.7v-1.7l3.9-6.2h2.9v6h1.3v1.9h-1.3v2H780.3z M780.3,48.5l-2.7,4.1h2.7V48.5z"/>
</g>
<rect x="13.1" y="126.9" class="st2" width="829.9" height="2.1"/>
<rect x="13.1" y="178" class="st2" width="829.9" height="2.1"/>
<rect x="13.1" y="229" class="st2" width="829.9" height="2.1"/>
</svg>
