<?xml version="1.0" encoding="utf-8"?>
<!-- Generator: Adobe Illustrator 24.0.0, SVG Export Plug-In . SVG Version: 6.00 Build 0)  -->
<svg version="1.1" id="Layer_1" xmlns="http://www.w3.org/2000/svg" xmlns:xlink="http://www.w3.org/1999/xlink" x="0px" y="0px"
	 viewBox="0 0 297.7 92.2" style="enable-background:new 0 0 297.7 92.2;" xml:space="preserve">
<style type="text/css">
	.st0{fill:#AAC737;}
	.st1{fill:#FFFFFF;}
	.st2{fill:#D42986;}
	.st3{fill:#792980;}
</style>
<path class="st0" d="M90.8,619.5c0-0.2,0.1-0.4,0.3-0.5l-3.3-5.4h-2.5l-0.6,5.9L90.8,619.5"/>
<polyline class="st0" points="75.8,619.4 84.3,619.4 84.9,613.5 81.5,613.5 75.7,619.1 75.8,619.4 "/>
<path class="st0" d="M92.7,619.6c0,0.1,0,0.2-0.1,0.3l2.5,1.8v-5.4l-2.6,2.7C92.7,619.2,92.7,619.4,92.7,619.6"/>
<path class="st0" d="M91.8,618.7c0.2,0,0.4,0.1,0.5,0.2l2.8-3v-0.7c0-0.9-0.7-1.7-1.7-1.7h-5.3l3.2,5.2
	C91.5,618.7,91.6,618.7,91.8,618.7"/>
<path class="st0" d="M83.3,629.4L83.3,629.4l1-9.6l-8.4,0c0,0.2-0.1,0.4-0.2,0.5l6.9,9.3C82.7,629.5,83,629.4,83.3,629.4"/>
<path class="st0" d="M81.4,631.3c0-0.6,0.3-1.2,0.8-1.5l-6.8-9.3l-0.1,0.1l2.3,16.1c0.2,0,0.3,0.1,0.5,0.2l3.9-4.3
	C81.6,632.2,81.4,631.8,81.4,631.3"/>
<path class="st0" d="M84.3,629.7l6.8-9.4c-0.1-0.1-0.2-0.3-0.3-0.5l-6.2,0l-1,9.7C83.9,629.5,84.1,629.6,84.3,629.7"/>
<path class="st0" d="M91.9,633.5l-6.8-1.6c-0.2,0.8-1,1.3-1.8,1.3c-0.4,0-0.8-0.2-1.1-0.4l-3.9,4.3c0.1,0.1,0.1,0.2,0.1,0.3
	l13.6-3.5l0-0.3L91.9,633.5"/>
<path class="st0" d="M92.5,620.3c-0.1,0.1-0.2,0.2-0.4,0.3l0.6,8.4l2.4-0.6v-6.2L92.5,620.3"/>
<path class="st0" d="M85.2,631c0,0.1,0,0.2,0,0.3l0,0.2l6.8,1.6c0.1-0.3,0.4-0.4,0.7-0.5l-0.3-3.3L85.2,631"/>
<path class="st0" d="M74.9,618.7c0.2,0,0.4,0,0.5,0.1l5.6-5.4h-8.4c-0.9,0-1.7,0.8-1.7,1.7v1.6l3.4,2.1
	C74.5,618.8,74.7,618.7,74.9,618.7"/>
<path class="st0" d="M85.1,630.7l7.3-1.7l-0.6-8.4c-0.1,0-0.3,0-0.4-0.1l-6.8,9.5C84.8,630.2,85,630.4,85.1,630.7"/>
<path class="st0" d="M77.2,636.7l-2.3-16h0c-0.3,0-0.6-0.2-0.8-0.4l-3.2,1.7v7.4l6.1,7.5L77.2,636.7"/>
<path class="st0" d="M73.9,619.7c0-0.2,0.1-0.4,0.1-0.5l-3.2-2v4.3l3-1.6L73.9,619.7"/>
<path class="st0" d="M76.7,637l-5.8-7.2v6.2c0,0.9,0.7,1.7,1.7,1.7h3.9l0-0.1C76.4,637.4,76.5,637.2,76.7,637"/>
<path class="st0" d="M93,632.7c0.4,0.1,0.8,0.5,0.8,0.9c0,0.1,0,0.2,0,0.3l1.4,0.7v-5.9l-2.4,0.6L93,632.7"/>
<path class="st0" d="M92.8,634.6c-0.1,0-0.2,0-0.3,0l-2.2,3.2h3.1c0.9,0,1.7-0.8,1.7-1.7V635l-1.5-0.8
	C93.4,634.4,93.1,634.6,92.8,634.6"/>
<path class="st0" d="M92,634.2l-13.6,3.5l0,0.1H90l2.3-3.4C92.1,634.3,92.1,634.2,92,634.2"/>
<path class="st1" d="M92.1,620.5c0.2-0.1,0.3-0.1,0.4-0.3l2.6,1.9v-0.4l-2.5-1.8c0-0.1,0.1-0.2,0.1-0.3c0-0.2-0.1-0.4-0.2-0.6
	l2.6-2.7v-0.5l-2.8,3c-0.2-0.1-0.3-0.2-0.5-0.2c-0.1,0-0.3,0-0.4,0.1l-3.2-5.2h-0.4l3.3,5.4c-0.2,0.1-0.3,0.3-0.3,0.5l-6.1,0
	l0.6-5.9h-0.4l-0.6,5.9l-8.5,0l-0.1-0.3l5.9-5.6H81l-5.6,5.4c-0.1-0.1-0.3-0.1-0.5-0.1c-0.2,0-0.4,0.1-0.6,0.2l-3.4-2.1v0.4l3.2,2
	c-0.1,0.2-0.1,0.3-0.1,0.5l0,0.2l-3,1.6v0.4l3.2-1.7c0.2,0.3,0.5,0.4,0.8,0.4h0l2.3,16l-0.2,0.1l-6.1-7.5v0.6l5.8,7.2
	c-0.1,0.2-0.2,0.4-0.2,0.6l0,0.1h1.9l0-0.1l13.6-3.5c0.1,0.1,0.1,0.2,0.2,0.2l-2.3,3.4h0.4l2.2-3.2c0.1,0,0.2,0,0.3,0
	c0.3,0,0.6-0.2,0.8-0.4l1.5,0.8v-0.4l-1.4-0.7c0-0.1,0-0.2,0-0.3c0-0.5-0.3-0.8-0.8-0.9l-0.3-3.4l2.4-0.6v-0.4l-2.4,0.6L92.1,620.5
	 M91.4,620.5c0.1,0,0.2,0.1,0.4,0.1l0.6,8.4l-7.3,1.7c-0.1-0.3-0.2-0.5-0.5-0.7L91.4,620.5z M84.7,619.8l6.2,0
	c0,0.2,0.1,0.4,0.3,0.5l-6.8,9.4c-0.2-0.1-0.4-0.2-0.6-0.3L84.7,619.8z M75.8,619.8l8.4,0l-0.9,9.6h0c-0.3,0-0.6,0.1-0.8,0.2
	l-6.9-9.3C75.8,620.1,75.8,620,75.8,619.8z M77.5,636.7l-2.3-16.1l0.1-0.1l6.8,9.3c-0.5,0.3-0.8,0.9-0.8,1.5c0,0.5,0.2,0.9,0.5,1.3
	l-3.9,4.3C77.9,636.8,77.7,636.7,77.5,636.7z M78.3,637.4c0-0.1-0.1-0.2-0.1-0.3l3.9-4.3c0.3,0.2,0.7,0.4,1.1,0.4
	c0.8,0,1.5-0.5,1.8-1.3l6.8,1.6l0,0.1l0,0.3L78.3,637.4z M92,633.1l-6.8-1.6l0-0.2c0-0.1,0-0.2,0-0.3l7.3-1.7l0.3,3.3
	C92.4,632.7,92.1,632.9,92,633.1z"/>
<path class="st2" d="M75.8,619.7c0,0.5-0.4,1-1,1c-0.5,0-1-0.4-1-1c0-0.5,0.4-1,1-1C75.4,618.7,75.8,619.2,75.8,619.7"/>
<path class="st2" d="M93.8,633.6c0,0.5-0.4,1-1,1c-0.5,0-1-0.4-1-1c0-0.5,0.4-1,1-1C93.4,632.7,93.8,633.1,93.8,633.6"/>
<path class="st1" d="M85.5,631.3c0,1.2-1,2.1-2.1,2.1c-1.2,0-2.1-1-2.1-2.1c0-1.2,1-2.1,2.1-2.1C84.6,629.2,85.5,630.1,85.5,631.3"
	/>
<path class="st2" d="M85.1,631.3c0,0.9-0.7,1.7-1.7,1.7c-0.9,0-1.7-0.7-1.7-1.7c0-0.9,0.7-1.6,1.7-1.6
	C84.3,629.6,85.1,630.4,85.1,631.3"/>
<path class="st3" d="M113.4,621.5h-8.2v2.6h5.4c0,0.3,0,0.5,0,0.5c0,2.4-0.4,3.1-0.6,3.2c-0.2,0.2-0.8,0.5-3.4,0.5
	c-3.3,0-4.3-0.4-4.6-0.6c-0.3-0.2-0.7-0.9-0.7-3.5l0-2.4l0-2.2c0-2.5,0.4-3.3,0.7-3.5c0.3-0.2,1.1-0.6,3.8-0.6c3,0,3.9,0.3,4.1,0.4
	c0.4,0.2,0.6,1,0.6,2.1v0.9h2.9v-1.1c0-2.1-0.5-3.4-1.5-4c-0.9-0.6-2.8-0.9-5.8-0.9c-3,0-5,0.4-6,1.3c-1.1,0.9-1.6,2.7-1.6,5.3
	l0,1.5l0,2.5c0,3.1,0.5,5.1,1.4,6.1c1,1,2.9,1.4,6.1,1.4c3.3,0,5.3-0.4,6.2-1.2c0.9-0.8,1.3-2.7,1.3-6c0-0.8,0-1.4-0.1-1.9
	L113.4,621.5"/>
<path class="st3" d="M120.9,618c-1.5,0-2.6,0.3-3.4,0.9l0-0.2l0-0.5h-2.7v12.8h2.7v-7.6c0-2,1-2.9,3.1-2.9c1.3,0,1.7,0.3,1.9,0.4
	c0.3,0.2,0.4,0.8,0.4,1.6v8.5h2.7v-8.2c0-1.8-0.3-3.1-1-3.8C124,618.3,122.8,618,120.9,618"/>
<path class="st3" d="M151.9,612.9c-0.9,0-1.7,0.8-1.7,1.7s0.8,1.7,1.7,1.7c0.9,0,1.7-0.8,1.7-1.7S152.9,612.9,151.9,612.9"/>
<path class="st3" d="M132.5,618c-2.3,0-3.8,0.4-4.6,1.3c-0.7,0.9-1.1,2.6-1.1,5.3c0,2.7,0.4,4.4,1.1,5.2c0.8,0.9,2.3,1.3,4.6,1.3
	c2.3,0,3.9-0.4,4.6-1.3c0.7-0.9,1.1-2.6,1.1-5.2c0-2.7-0.4-4.4-1.1-5.3C136.3,618.4,134.8,618,132.5,618 M134.9,628.1
	c-0.1,0.2-0.6,0.5-2.4,0.5c-1.8,0-2.3-0.4-2.4-0.5c-0.1-0.2-0.4-0.9-0.4-3.6c0-2.7,0.3-3.4,0.4-3.6c0.1-0.2,0.6-0.5,2.4-0.5
	c1.8,0,2.3,0.4,2.4,0.5c0.1,0.2,0.4,0.9,0.4,3.6C135.3,627.2,135,627.9,134.9,628.1z"/>
<path class="st3" d="M146,623.2l-1.8-0.1l-1.4-0.1c-0.9,0-1.2-0.4-1.2-1.4c0-0.8,0.2-1,0.3-1.1c0.1,0,0.5-0.2,2.2-0.2
	c1.8,0,2.2,0.2,2.3,0.2c0,0,0.2,0.2,0.2,1.1v0.5h2.7v-0.9c0-2.8-2.8-3.3-5.2-3.3c-2.1,0-3.4,0.2-4.2,0.7c-0.8,0.5-1.2,1.6-1.2,3.1
	c0,1.6,0.5,2.7,1.5,3.2c0.9,0.5,2.7,0.7,5.4,0.7c0.6,0,1.2,0.2,1.2,1.3c0,0.5-0.1,1-0.4,1.3c-0.2,0.1-0.8,0.3-2.5,0.3
	c-1.4,0-1.9-0.2-2-0.3c-0.3-0.2-0.4-0.7-0.4-1.1l0-0.6l0-0.5h-2.8l0,0.5l0,0.6c0,1.4,0.4,2.4,1.3,3c0.8,0.5,2.2,0.8,4.3,0.8
	c2,0,3.4-0.3,4.2-0.8c0.8-0.6,1.3-1.6,1.3-3.1C149.7,624.7,148.4,623.4,146,623.2"/>
<polyline class="st3" points="151.1,618.1 150.6,618.1 150.6,630.9 153.3,630.9 153.3,618.1 151.1,618.1 "/>
<path class="st3" d="M161.7,623.2l-1.8-0.1l-1.4-0.1c-0.9,0-1.2-0.4-1.2-1.4c0-0.8,0.2-1,0.3-1.1c0.1,0,0.5-0.2,2.2-0.2
	c1.8,0,2.2,0.2,2.3,0.2c0,0,0.2,0.2,0.2,1.1v0.5h2.8v-0.9c0-2.8-2.8-3.3-5.2-3.3c-2.1,0-3.4,0.2-4.2,0.7c-0.8,0.5-1.2,1.6-1.2,3.1
	c0,1.6,0.5,2.7,1.5,3.2c0.9,0.5,2.7,0.7,5.4,0.7c0.6,0,1.2,0.2,1.2,1.3c0,0.5-0.1,1-0.4,1.3c-0.2,0.1-0.8,0.3-2.5,0.3
	c-1.4,0-1.9-0.2-2-0.3c-0.3-0.2-0.4-0.7-0.4-1.1l0-0.6l0-0.5h-2.8l0,0.5l0,0.6c0,1.4,0.4,2.4,1.3,3c0.8,0.5,2.2,0.8,4.2,0.8
	c2,0,3.4-0.3,4.2-0.8c0.8-0.6,1.3-1.6,1.3-3.1C165.3,624.7,164.1,623.4,161.7,623.2"/>
<path class="st2" d="M163.8,638.4h-63.3c-0.5,0-0.8-0.4-0.8-0.8v-3.6c0-0.5,0.4-0.8,0.8-0.8h63.3c0.5,0,0.8,0.4,0.8,0.8v3.6
	C164.7,638,164.3,638.4,163.8,638.4"/>
<path class="st1" d="M136.3,636.9v-2.7h0.5v1.1h0c0.1-0.2,0.3-0.3,0.6-0.3c0.3,0,0.5,0.1,0.6,0.2c0.1,0.1,0.2,0.4,0.2,0.7
	c0,0.4-0.1,0.7-0.2,0.8c-0.1,0.1-0.3,0.2-0.6,0.2c-0.3,0-0.5-0.1-0.6-0.3h0l0,0.3H136.3 M137.2,635.3c-0.3,0-0.5,0.2-0.5,0.5
	c0,0.3,0,0.5,0.1,0.5c0.1,0.1,0.2,0.1,0.4,0.1c0.2,0,0.3,0,0.4-0.1c0.1-0.1,0.1-0.2,0.1-0.5c0-0.3,0-0.4-0.1-0.5
	C137.5,635.4,137.4,635.3,137.2,635.3z"/>
<path class="st1" d="M140.5,635l-0.5,2c-0.1,0.3-0.2,0.5-0.3,0.6c-0.1,0.1-0.3,0.1-0.5,0.1H139v-0.3l0.1,0c0.2,0,0.3-0.2,0.4-0.5
	h-0.2l-0.6-1.9h0.5l0.2,0.8l0.1,0.4c0,0,0,0.1,0.1,0.2l0.1,0.2h0l0-0.2c0-0.1,0-0.2,0-0.2l0.1-0.4l0.2-0.8H140.5"/>
<path class="st1" d="M145,634.2v2.7h-0.9l-0.8-1.5c0-0.1-0.1-0.2-0.2-0.4l-0.1-0.2l-0.1-0.2h0l0,0.2l0,0.2l0,0.4v1.5h-0.5v-2.7h0.9
	l0.7,1.4c0.1,0.1,0.1,0.3,0.2,0.4l0.1,0.2l0.1,0.2h0l0-0.2l0-0.2l0-0.3v-1.6H145"/>
<polyline class="st1" points="146.3,634.6 146.3,635.3 147.7,635.3 147.7,635.7 146.3,635.7 146.3,636.5 147.7,636.5 147.7,636.9 
	145.8,636.9 145.8,634.2 147.7,634.2 147.7,634.6 146.3,634.6 "/>
<path class="st1" d="M148.4,636.9v-2.7h1.4c0.4,0,0.7,0.1,0.8,0.3c0.2,0.2,0.2,0.5,0.2,0.9c0,0.7-0.1,1.1-0.2,1.3
	c-0.1,0.2-0.4,0.3-0.9,0.3H148.4 M149,636.5h0.8c0.3,0,0.4-0.1,0.5-0.2c0.1-0.1,0.1-0.4,0.1-0.8c0-0.4,0-0.7-0.1-0.8
	c-0.1-0.1-0.2-0.2-0.5-0.2H149V636.5z"/>
<path class="st1" d="M153.4,634.2h0.5v1.8c0,0.4-0.1,0.6-0.2,0.7c-0.2,0.1-0.5,0.2-0.9,0.2c-0.5,0-0.8-0.1-1-0.2
	c-0.2-0.1-0.2-0.4-0.2-0.7v-1.8h0.5v1.8c0,0.2,0,0.3,0.1,0.4c0.1,0.1,0.2,0.1,0.5,0.1c0.3,0,0.5,0,0.5-0.1c0.1,0,0.1-0.2,0.1-0.4
	V634.2"/>
<polyline class="st1" points="155.9,634.7 155.9,636.9 155.4,636.9 155.4,634.7 154.6,634.7 154.6,634.2 156.7,634.2 156.7,634.7 
	155.9,634.7 "/>
<polyline class="st1" points="157.9,634.6 157.9,635.3 159.2,635.3 159.2,635.7 157.9,635.7 157.9,636.5 159.3,636.5 159.3,636.9 
	157.3,636.9 157.3,634.2 159.3,634.2 159.3,634.6 157.9,634.6 "/>
<path class="st1" d="M161.7,635.9h0.5v0.1c0,0.4-0.1,0.6-0.2,0.7c-0.1,0.1-0.5,0.2-0.9,0.2c-0.6,0-0.9-0.1-1-0.3
	c-0.1-0.2-0.2-0.6-0.2-1.4c0-0.5,0.1-0.7,0.3-0.9c0.2-0.1,0.5-0.2,1.1-0.2c0.4,0,0.7,0.1,0.8,0.2c0.1,0.1,0.2,0.3,0.2,0.7l0,0.1
	h-0.5V635c0-0.2,0-0.3-0.1-0.3c-0.1,0-0.2-0.1-0.5-0.1c-0.3,0-0.5,0-0.6,0.1c-0.1,0.1-0.1,0.3-0.1,0.7c0,0.5,0,0.8,0.1,0.9
	c0.1,0.1,0.3,0.1,0.6,0.1c0.3,0,0.4,0,0.5-0.1c0.1,0,0.1-0.2,0.1-0.3L161.7,635.9"/>
<path class="st0" d="M65.3,28.8c0.1-0.6,0.4-1.2,0.9-1.6l-10-16.4h-7.7l-1.8,18L65.3,28.8"/>
<polyline class="st0" points="19.7,28.5 45.5,28.7 47.3,10.7 37.2,10.7 19.3,27.8 19.7,28.5 "/>
<path class="st0" d="M71.1,29.3c0,0.4-0.1,0.7-0.2,1l7.5,5.4V19.3l-7.8,8.2C70.9,28.1,71.1,28.6,71.1,29.3"/>
<path class="st0" d="M68.2,26.4c0.6,0,1.1,0.2,1.6,0.5l8.6-9.1v-2c0-2.8-2.3-5.1-5.1-5.1h-16L67,26.6C67.4,26.4,67.8,26.4,68.2,26.4
	"/>
<path class="st0" d="M42.5,58.9L42.5,58.9l2.9-29.2l-25.5-0.1c0,0.6-0.3,1.2-0.6,1.6l20.8,28.2C40.8,59,41.6,58.9,42.5,58.9"/>
<path class="st0" d="M36.8,64.6c0-1.9,0.9-3.5,2.3-4.6L18.5,32l-0.3,0.2l6.9,48.7c0.5,0.1,1,0.3,1.4,0.6l11.9-13
	C37.4,67.5,36.8,66.1,36.8,64.6"/>
<path class="st0" d="M45.6,59.9l20.4-28.6c-0.4-0.4-0.7-0.9-0.8-1.4l-18.7-0.1l-2.9,29.3C44.4,59.2,45,59.5,45.6,59.9"/>
<path class="st0" d="M68.4,71.2l-20.5-4.8c-0.7,2.3-2.9,3.9-5.4,3.9c-1.3,0-2.5-0.5-3.4-1.1l-11.9,13c0.2,0.2,0.3,0.5,0.3,0.8
	l41-10.5l-0.1-0.8L68.4,71.2"/>
<path class="st0" d="M70.4,31.2c-0.3,0.4-0.7,0.7-1.2,0.8l1.9,25.3l7.3-1.7V37L70.4,31.2"/>
<path class="st0" d="M48.1,63.8c0,0.3,0.1,0.5,0.1,0.8l0,0.6l20.7,4.9c0.4-0.8,1.2-1.3,2.1-1.4l-0.8-10.1L48.1,63.8"/>
<path class="st0" d="M17,26.6c0.6,0,1.1,0.2,1.5,0.4l17-16.3H10c-2.8,0-5.1,2.3-5.1,5.1v4.8l10.3,6.5C15.8,26.8,16.3,26.6,17,26.6"
	/>
<path class="st0" d="M47.9,62.8l22.2-5.2l-1.9-25.4c-0.4,0-0.8-0.1-1.1-0.2L46.5,60.6C47.1,61.2,47.6,62,47.9,62.8"/>
<path class="st0" d="M24,80.9l-6.9-48.5h0c-1.1,0-2-0.5-2.5-1.3l-9.6,5.2v22.3l18.3,22.6L24,80.9"/>
<path class="st0" d="M14.1,29.5c0-0.6,0.2-1.1,0.5-1.5l-9.6-6.1v13.2l9.2-4.9L14.1,29.5"/>
<path class="st0" d="M22.4,81.9L4.9,60.2v18.9c0,2.8,2.3,5.1,5.1,5.1h11.8l0-0.4C21.7,83,22,82.4,22.4,81.9"/>
<path class="st0" d="M71.9,68.8c1.3,0.3,2.3,1.5,2.3,2.8c0,0.3-0.1,0.6-0.1,0.8l4.3,2.2V56.7l-7.2,1.7L71.9,68.8"/>
<path class="st0" d="M71.3,74.6c-0.3,0-0.5,0-0.8-0.1L64,84.2h9.3c2.8,0,5.1-2.3,5.1-5.1v-3.3l-4.7-2.4
	C73.1,74.1,72.3,74.6,71.3,74.6"/>
<path class="st0" d="M68.9,73.3L27.6,83.9l0,0.3h35.2L69.6,74C69.3,73.8,69.1,73.5,68.9,73.3"/>
<path class="st1" d="M69.1,32c0.5-0.2,0.9-0.5,1.2-0.8l8,5.8v-1.3l-7.5-5.4c0.1-0.3,0.2-0.7,0.2-1c0-0.6-0.2-1.2-0.5-1.7l7.8-8.2
	v-1.5l-8.6,9.1c-0.5-0.3-1-0.5-1.6-0.5c-0.4,0-0.8,0.1-1.1,0.2l-9.7-15.9h-1.2l10,16.4c-0.5,0.4-0.8,1-0.9,1.6l-18.6-0.1l1.8-18
	h-1.2l-1.8,18l-25.8-0.1l-0.4-0.8l17.8-17.1h-1.6L18.5,27c-0.4-0.3-1-0.4-1.5-0.4c-0.6,0-1.2,0.2-1.7,0.5L4.9,20.6v1.3l9.6,6.1
	c-0.3,0.5-0.5,1-0.5,1.5l0.1,0.6l-9.2,4.9v1.2l9.6-5.2c0.5,0.8,1.4,1.3,2.5,1.3h0.1L24,80.9l-0.7,0.3L4.9,58.6v1.7l17.5,21.6
	c-0.4,0.5-0.7,1.1-0.7,1.8l0,0.4h5.8l0-0.3l41.3-10.6c0.2,0.3,0.4,0.5,0.7,0.7l-6.9,10.2H64l6.5-9.7c0.3,0.1,0.5,0.1,0.8,0.1
	c1,0,1.8-0.5,2.4-1.2l4.7,2.4v-1.1l-4.3-2.2c0.1-0.2,0.1-0.5,0.1-0.8c0-1.4-1-2.5-2.3-2.8l-0.8-10.4l7.2-1.7v-1.1l-7.3,1.7L69.1,32
	 M67,32c0.3,0.2,0.7,0.2,1.1,0.2l1.9,25.4l-22.2,5.2c-0.3-0.8-0.7-1.6-1.4-2.2L67,32z M46.6,29.8l18.7,0.1c0.1,0.5,0.4,1.1,0.8,1.4
	L45.6,59.9c-0.6-0.4-1.2-0.6-1.9-0.8L46.6,29.8z M19.9,29.7l25.5,0.1l-2.9,29.2h0c-0.9,0-1.7,0.2-2.4,0.5L19.3,31.3
	C19.6,30.8,19.9,30.3,19.9,29.7z M25.1,80.9l-6.9-48.7l0.3-0.2l20.7,28.1c-1.4,1-2.3,2.7-2.3,4.6c0,1.5,0.6,2.8,1.5,3.8l-11.9,13
	C26,81.1,25.6,80.9,25.1,80.9z M27.5,83c-0.1-0.3-0.2-0.5-0.3-0.8l11.9-13c1,0.7,2.1,1.1,3.4,1.1c2.5,0,4.7-1.7,5.4-3.9l20.5,4.8
	l0,0.4l0.1,0.8L27.5,83z M68.8,70.1l-20.7-4.9l0-0.6c0-0.3,0-0.5-0.1-0.8l22.1-5.1l0.8,10.1C70,68.9,69.3,69.4,68.8,70.1z"/>
<path class="st2" d="M19.9,29.5c0,1.6-1.3,2.9-2.9,2.9c-1.6,0-2.9-1.3-2.9-2.9c0-1.6,1.3-2.9,2.9-2.9C18.6,26.6,19.9,27.9,19.9,29.5
	"/>
<path class="st2" d="M74.3,71.6c0,1.6-1.3,2.9-2.9,2.9c-1.6,0-2.9-1.3-2.9-2.9c0-1.6,1.3-2.9,2.9-2.9C73,68.7,74.3,70,74.3,71.6"/>
<path class="st1" d="M49.3,64.6c0,3.6-2.9,6.5-6.5,6.5c-3.6,0-6.5-2.9-6.5-6.5c0-3.6,2.9-6.4,6.5-6.4C46.4,58.1,49.3,61,49.3,64.6"
	/>
<path class="st2" d="M47.8,64.6c0,2.8-2.2,5-5,5c-2.8,0-5-2.2-5-5c0-2.8,2.2-5,5-5C45.6,59.6,47.8,61.8,47.8,64.6"/>
<path class="st3" d="M133.5,35h-24.8v8H125c0.1,1,0.1,1.4,0.1,1.5c0,7.4-1.2,9.3-1.7,9.8c-0.5,0.5-2.6,1.7-10.3,1.7
	c-10,0-12.9-1.2-13.8-1.9c-0.8-0.6-2.2-2.9-2.2-10.5l0-7.3l0.1-6.7c0-7.6,1.3-10,2-10.7c0.8-0.7,3.3-1.9,11.4-1.9
	c9,0,11.7,0.8,12.5,1.2c1.2,0.7,1.8,2.9,1.8,6.3v2.8h8.7v-3.5c0-6.3-1.5-10.2-4.5-12.2c-2.8-1.8-8.5-2.7-17.5-2.7
	c-9.1,0-15,1.3-18.2,4.1c-3.2,2.8-4.8,8.1-4.8,16.2l0,4.5l0,7.5c0,9.4,1.4,15.5,4.3,18.3c2.9,2.9,8.9,4.3,18.3,4.3
	c10.1,0,16-1.2,18.6-3.7c2.6-2.5,3.8-8.3,3.8-18.1c0-2.4-0.1-4.3-0.2-5.7L133.5,35"/>
<path class="st3" d="M156.4,24.2c-4.5,0-7.9,0.9-10.3,2.7l0-0.5l0-1.6H138v38.7h8.3V40.5c0-6,3-8.8,9.4-8.8c3.8,0,5.2,0.8,5.7,1.2
	c0.8,0.7,1.2,2.5,1.2,5v25.6h8.3V38.7c0-5.5-1-9.3-3.2-11.4C165.7,25.2,161.9,24.2,156.4,24.2"/>
<path class="st3" d="M250.3,9c-2.8,0-5.1,2.3-5.1,5.1s2.3,5.1,5.1,5.1c2.8,0,5.1-2.3,5.1-5.1S253.1,9,250.3,9"/>
<path class="st3" d="M191.3,24.2c-7.1,0-11.6,1.3-13.9,4c-2.2,2.6-3.3,7.8-3.3,15.9s1.1,13.3,3.3,15.9c2.3,2.7,6.9,4,13.9,4
	c7.1,0,11.7-1.3,14-4c2.2-2.6,3.3-7.8,3.3-15.9c0-8.1-1.1-13.3-3.3-15.9C203,25.5,198.4,24.2,191.3,24.2 M198.7,54.9
	c-0.4,0.5-1.8,1.6-7.4,1.6c-5.5,0-7-1.1-7.3-1.6c-0.4-0.6-1.4-2.7-1.4-10.8c0-8.1,0.9-10.3,1.3-10.8c0.4-0.5,1.8-1.6,7.3-1.6
	c5.6,0,7,1.1,7.4,1.6c0.4,0.5,1.4,2.7,1.4,10.8C200,52.2,199.1,54.3,198.7,54.9z"/>
<path class="st3" d="M232.4,40.2L227,40l-4.2-0.2c-2.7-0.1-3.8-1.3-3.8-4.1c0-2.5,0.6-3.1,0.8-3.2c0.3-0.2,1.6-0.7,6.5-0.7
	c5.4,0,6.7,0.5,7,0.7c0.1,0,0.7,0.5,0.7,3.3v1.5h8.3v-2.8c0-8.3-8.5-10.1-15.7-10.1c-6.3,0-10.4,0.7-12.6,2.2
	c-2.4,1.6-3.6,4.8-3.6,9.3c0,4.8,1.5,8.1,4.6,9.7c2.7,1.5,8.1,2.2,16.3,2.2c1.8,0,3.5,0.5,3.5,4.1c0,1.4-0.2,3.2-1.3,3.8
	c-0.6,0.4-2.4,1-7.6,1c-4.2,0-5.7-0.6-6.2-0.9c-0.9-0.6-1.1-2.1-1.1-3.4l0-1.7l0-1.5h-8.5l0,1.5l0,1.9c0,4.4,1.3,7.4,4,9.1
	c2.5,1.6,6.7,2.4,12.9,2.4c6,0,10.2-0.8,12.6-2.5c2.6-1.8,3.9-5,3.9-9.5C243.5,44.7,239.7,40.6,232.4,40.2"/>
<polyline class="st3" points="247.7,24.7 246.2,24.7 246.2,63.4 254.5,63.4 254.5,24.7 247.7,24.7 "/>
<path class="st3" d="M279.8,40.2l-5.3-0.2l-4.2-0.2c-2.7-0.1-3.8-1.3-3.8-4.1c0-2.5,0.6-3.1,0.8-3.2c0.3-0.2,1.6-0.7,6.6-0.7
	c5.4,0,6.7,0.5,7,0.7c0.1,0,0.7,0.5,0.7,3.3v1.5h8.3v-2.8c0-8.3-8.5-10.1-15.7-10.1c-6.3,0-10.4,0.7-12.6,2.2
	c-2.4,1.6-3.6,4.8-3.6,9.3c0,4.8,1.5,8.1,4.6,9.7c2.7,1.5,8.1,2.2,16.3,2.2c1.8,0,3.5,0.5,3.5,4.1c0,1.4-0.2,3.2-1.3,3.8
	c-0.6,0.4-2.4,1-7.7,1c-4.2,0-5.6-0.6-6.2-0.9c-0.9-0.6-1.1-2.1-1.1-3.4l0-1.7l0-1.5h-8.4l0,1.5l0,1.9c0,4.4,1.3,7.4,4,9.1
	c2.5,1.6,6.7,2.4,12.9,2.4c6.1,0,10.2-0.8,12.6-2.5c2.6-1.8,3.9-5,3.9-9.5C290.9,44.7,287.1,40.6,279.8,40.2"/>
<path class="st2" d="M286.3,86.1H94.6c-1.4,0-2.5-1.1-2.5-2.5v-11c0-1.4,1.1-2.5,2.5-2.5h191.7c1.4,0,2.5,1.1,2.5,2.5v11
	C288.8,85,287.7,86.1,286.3,86.1"/>
<path class="st1" d="M202.8,81.6v-8.2h1.4v3.3h0c0.2-0.6,0.9-0.9,1.9-0.9c0.9,0,1.4,0.2,1.8,0.6c0.3,0.4,0.5,1.1,0.5,2.2
	c0,1.2-0.2,2-0.5,2.4c-0.3,0.4-0.9,0.6-1.9,0.6c-0.9,0-1.5-0.3-1.8-1h0l0.1,0.9H202.8 M205.7,76.9c-0.9,0-1.4,0.5-1.4,1.6
	c0,0.9,0.1,1.4,0.2,1.7c0.2,0.2,0.5,0.4,1.1,0.4c0.6,0,1-0.1,1.1-0.3c0.2-0.2,0.2-0.7,0.2-1.5c0-0.8-0.1-1.2-0.2-1.5
	C206.6,77,206.2,76.9,205.7,76.9z"/>
<path class="st1" d="M215.7,75.8l-1.6,6.1c-0.2,0.8-0.5,1.4-0.8,1.7c-0.3,0.3-0.8,0.4-1.6,0.4h-0.5v-1l0.3,0c0.6,0,1-0.5,1.2-1.5
	H212l-2-5.7h1.5l0.8,2.4l0.4,1.2c0,0.1,0.1,0.3,0.2,0.6l0.2,0.6h0l0.1-0.6c0.1-0.3,0.1-0.5,0.1-0.6l0.3-1.2l0.6-2.4H215.7"/>
<path class="st1" d="M229.4,73.4v8.2h-2.7l-2.4-4.5c-0.1-0.2-0.3-0.6-0.6-1.2l-0.3-0.6l-0.3-0.6h-0.1l0,0.5l0,0.5l0,1.1v4.7h-1.6
	v-8.2h2.7l2.2,4.1c0.2,0.4,0.4,0.8,0.7,1.3l0.3,0.7l0.3,0.7h0.1l0-0.5l0-0.5l0-1v-4.7H229.4"/>
<polyline class="st1" points="233.4,74.7 233.4,76.8 237.4,76.8 237.4,77.9 233.4,77.9 233.4,80.3 237.6,80.3 237.6,81.6 
	231.7,81.6 231.7,73.4 237.6,73.4 237.6,74.7 233.4,74.7 "/>
<path class="st1" d="M239.7,81.6v-8.2h4.2c1.2,0,2,0.3,2.5,0.8c0.5,0.5,0.7,1.4,0.7,2.6c0,2-0.2,3.3-0.6,3.9
	c-0.4,0.6-1.2,0.9-2.6,0.9H239.7 M241.3,80.3h2.3c0.8,0,1.3-0.2,1.5-0.5c0.2-0.3,0.3-1.1,0.3-2.3c0-1.2-0.1-2-0.3-2.3
	c-0.2-0.3-0.7-0.5-1.4-0.5h-2.4V80.3z"/>
<path class="st1" d="M254.7,73.4h1.6v5.4c0,1.1-0.2,1.9-0.7,2.2c-0.5,0.4-1.4,0.5-2.8,0.5c-1.5,0-2.5-0.2-2.9-0.5
	c-0.5-0.4-0.7-1.1-0.7-2.2v-5.5h1.6v5.5c0,0.6,0.1,1,0.3,1.1c0.2,0.2,0.8,0.2,1.6,0.2c0.9,0,1.4-0.1,1.6-0.2
	c0.2-0.2,0.3-0.5,0.3-1.2V73.4"/>
<polyline class="st1" points="262.3,74.8 262.3,81.6 260.7,81.6 260.7,74.8 258.2,74.8 258.2,73.4 264.9,73.4 264.9,74.8 
	262.3,74.8 "/>
<polyline class="st1" points="268.3,74.7 268.3,76.8 272.3,76.8 272.3,77.9 268.3,77.9 268.3,80.3 272.5,80.3 272.5,81.6 
	266.7,81.6 266.7,73.4 272.5,73.4 272.5,74.7 268.3,74.7 "/>
<path class="st1" d="M279.9,78.7h1.6v0.3c0,1.1-0.2,1.9-0.7,2.2c-0.4,0.3-1.4,0.5-2.9,0.5c-1.7,0-2.7-0.3-3.1-0.8
	c-0.4-0.5-0.6-1.9-0.6-4.2c0-1.4,0.3-2.2,0.8-2.7c0.5-0.4,1.6-0.6,3.3-0.6c1.2,0,2,0.2,2.4,0.5c0.4,0.3,0.6,1,0.6,2.1l0,0.2h-1.6
	v-0.2c0-0.5-0.1-0.9-0.3-1c-0.2-0.2-0.7-0.2-1.4-0.2c-1,0-1.6,0.1-1.8,0.4c-0.2,0.2-0.3,0.9-0.3,2.1c0,1.5,0.1,2.5,0.3,2.8
	c0.2,0.3,0.8,0.4,1.8,0.4c0.8,0,1.3-0.1,1.6-0.2c0.2-0.2,0.4-0.5,0.4-1L279.9,78.7"/>
</svg>
