<?xml version="1.0" encoding="utf-8"?>
<!-- Generator: Adobe Illustrator 26.0.0, SVG Export Plug-In . SVG Version: 6.00 Build 0)  -->
<svg version="1.1" id="Capa_1" xmlns="http://www.w3.org/2000/svg" xmlns:xlink="http://www.w3.org/1999/xlink" x="0px" y="0px"
	 viewBox="0 0 266.9 159.5" style="enable-background:new 0 0 266.9 159.5;" xml:space="preserve">
<style type="text/css">
	.st0{fill:#231F20;}
	.st1{fill:#FFFFFF;}
	.st2{fill:url(#SVGID_1_);}
</style>
<g>
	<path class="st0" d="M49.3,26.1H19.1c-0.1,0-0.2-0.1-0.2-0.2c0-0.1,0.1-0.2,0.2-0.2h30.3c0.1,0,0.2,0.1,0.2,0.2
		C49.6,26,49.5,26.1,49.3,26.1"/>
	<path class="st0" d="M2.6,24.5c0.1,0,0.2,0,0.3,0C3.5,24.5,4,24,4,23.2C4,22.6,3.7,22,3,22c-0.2,0-0.3,0-0.4,0V24.5z M1.9,21.6
		c0.3-0.1,0.6-0.1,1-0.1c0.5,0,1,0.1,1.3,0.4c0.3,0.3,0.4,0.7,0.4,1.2c0,0.5-0.1,0.9-0.4,1.2C4,24.8,3.4,25,2.9,25
		c-0.1,0-0.2,0-0.3,0v2.4H1.9V21.6z"/>
	<path class="st0" d="M7.9,26.3c0,0.5,0,0.8,0,1.2H7.3L7.3,27h0c-0.1,0.2-0.5,0.5-0.9,0.5c-0.7,0-1-0.6-1-1.6v-2.7H6v2.6
		C6,26.5,6.1,27,6.6,27c0.4,0,0.6-0.4,0.6-0.6c0-0.1,0-0.2,0-0.4v-2.8h0.7V26.3z"/>
	<path class="st0" d="M8.8,24.3c0-0.5,0-0.8,0-1.1h0.6l0,0.5h0c0.2-0.3,0.5-0.6,1-0.6c0.6,0,1,0.4,1,1.5v2.9h-0.7v-2.7
		c0-0.5-0.1-1-0.6-1c-0.3,0-0.6,0.2-0.6,0.7c0,0.1,0,0.2,0,0.4v2.7H8.8V24.3z"/>
	<path class="st0" d="M13.2,22.2v1H14v0.5h-0.8v2.5c0,0.6,0.2,0.7,0.4,0.7c0.1,0,0.2,0,0.3,0l0,0.5c-0.1,0-0.3,0.1-0.5,0.1
		c-0.3,0-0.5-0.1-0.7-0.3c-0.2-0.2-0.3-0.5-0.3-1.1v-2.5H12v-0.5h0.5v-0.7L13.2,22.2z"/>
	<path class="st0" d="M16.2,25.2c-0.4,0-1.2,0.1-1.2,1c0,0.6,0.3,0.8,0.5,0.8c0.3,0,0.5-0.2,0.6-0.6c0-0.1,0-0.2,0-0.2V25.2z
		 M16.9,26.5c0,0.3,0,0.7,0,1h-0.6l0-0.5h0c-0.2,0.3-0.5,0.5-0.9,0.5c-0.6,0-1-0.5-1-1.2c0-1.1,0.9-1.5,1.8-1.6v-0.1
		c0-0.6-0.2-1-0.7-1c-0.3,0-0.5,0.1-0.7,0.2l-0.2-0.5c0.2-0.1,0.6-0.3,1-0.3c0.9,0,1.2,0.6,1.2,1.5V26.5z"/>
	<path class="st0" d="M41.2,85.1H24.5c-0.1,0-0.2-0.1-0.2-0.2c0-0.1,0.1-0.2,0.2-0.2h16.7c0.1,0,0.2,0.1,0.2,0.2
		C41.4,85,41.3,85.1,41.2,85.1"/>
	<path class="st0" d="M4.8,86.5c-0.2,0.1-0.5,0.2-0.9,0.2c-1.2,0-2-0.9-2-3c0-2.4,1.2-3.1,2.1-3.1c0.4,0,0.6,0.1,0.7,0.2l-0.2,0.6
		c-0.1-0.1-0.3-0.1-0.6-0.1c-0.6,0-1.4,0.6-1.4,2.4c0,1.8,0.7,2.4,1.4,2.4c0.3,0,0.5-0.1,0.6-0.1L4.8,86.5z"/>
	<path class="st0" d="M5.4,82.3h0.7v4.3H5.4V82.3z M6.1,81.2c0,0.3-0.2,0.4-0.4,0.4c-0.2,0-0.4-0.2-0.4-0.4c0-0.3,0.2-0.4,0.4-0.4
		C6,80.7,6.1,80.9,6.1,81.2"/>
	<rect x="7" y="80.5" class="st0" width="0.7" height="6.1"/>
	<path class="st0" d="M8.7,82.3h0.7v4.3H8.7V82.3z M9.4,81.2c0,0.3-0.2,0.4-0.4,0.4c-0.2,0-0.4-0.2-0.4-0.4c0-0.3,0.2-0.4,0.4-0.4
		C9.3,80.7,9.4,80.9,9.4,81.2"/>
	<path class="st0" d="M10.3,83.4c0-0.5,0-0.8,0-1.1h0.6l0,0.5h0c0.2-0.3,0.5-0.6,1-0.6c0.6,0,1,0.4,1,1.5v2.9h-0.7v-2.7
		c0-0.5-0.1-1-0.6-1c-0.3,0-0.6,0.2-0.6,0.7c0,0.1,0,0.2,0,0.4v2.7h-0.7V83.4z"/>
	<path class="st0" d="M15.8,83.9c0-0.1,0-0.2,0-0.3c0-0.5-0.3-0.8-0.6-0.8c-0.6,0-0.8,0.8-0.8,1.6c0,0.9,0.2,1.6,0.7,1.6
		c0.2,0,0.5-0.1,0.7-0.7c0-0.1,0-0.2,0-0.3V83.9z M16.5,80.5v5.1c0,0.3,0,0.8,0,1h-0.6l0-0.5h0c-0.1,0.3-0.4,0.6-0.9,0.6
		c-0.7,0-1.2-0.8-1.2-2.2c0-1.5,0.6-2.2,1.3-2.2c0.3,0,0.6,0.1,0.8,0.5h0v-2.3H16.5z"/>
	<path class="st0" d="M17.4,83.4c0-0.4,0-0.8,0-1.1H18l0,0.7h0c0.1-0.4,0.5-0.7,0.9-0.7c0.1,0,0.1,0,0.1,0v0.7h-0.1
		c-0.4,0-0.8,0.4-0.8,0.9c0,0.1,0,0.2,0,0.4v2.4h-0.7V83.4z"/>
	<path class="st0" d="M20,84.4c0,0.7,0.1,1.7,0.7,1.7c0.6,0,0.7-1,0.7-1.7c0-0.7-0.1-1.7-0.7-1.7C20.1,82.8,20,83.8,20,84.4
		 M22.1,84.4c0,1.7-0.8,2.2-1.4,2.2c-0.8,0-1.4-0.7-1.4-2.2c0-1.6,0.7-2.2,1.4-2.2C21.5,82.2,22.1,82.9,22.1,84.4"/>
	<path class="st0" d="M34.4,151h-9.9c-0.1,0-0.2-0.1-0.2-0.2c0-0.1,0.1-0.2,0.2-0.2h9.9c0.1,0,0.2,0.1,0.2,0.2
		C34.6,150.8,34.5,151,34.4,151"/>
	<path class="st0" d="M4.4,145.7l-1.1,1H2.7l0.8-1H4.4z M4.1,150.1H2.6v2.2h1.7v0.6H1.9v-6h2.3v0.6H2.6v2h1.5V150.1z"/>
	<path class="st0" d="M5,149.8c0-0.5,0-0.8,0-1.1h0.6l0,0.5h0c0.2-0.3,0.5-0.6,1-0.6c0.4,0,0.7,0.2,0.9,0.7h0
		c0.1-0.2,0.3-0.4,0.4-0.5c0.2-0.1,0.4-0.2,0.6-0.2c0.6,0,1,0.4,1,1.5v2.8H8.8v-2.7c0-0.6-0.1-1.1-0.6-1.1c-0.3,0-0.5,0.2-0.6,0.6
		c0,0.1,0,0.2,0,0.4v2.7H6.9v-2.8c0-0.5-0.1-1-0.6-1c-0.3,0-0.6,0.2-0.6,0.7c0,0.1,0,0.2,0,0.4v2.7H5V149.8z"/>
	<path class="st0" d="M11.1,151.4c0,0.1,0,0.2,0,0.3c0.2,0.6,0.5,0.7,0.6,0.7c0.5,0,0.7-0.7,0.7-1.7c0-0.9-0.2-1.6-0.8-1.6
		c-0.3,0-0.6,0.4-0.6,0.8c0,0.1,0,0.2,0,0.3V151.4z M10.4,146.8h0.7v2.3h0c0.2-0.4,0.5-0.6,0.9-0.6c0.7,0,1.2,0.8,1.2,2.2
		c0,1.5-0.6,2.2-1.3,2.2c-0.5,0-0.7-0.3-0.8-0.6h0l0,0.6h-0.6c0-0.2,0-0.7,0-1V146.8z"/>
	<path class="st0" d="M14.5,150.8c0,0.7,0.1,1.7,0.7,1.7c0.6,0,0.7-1,0.7-1.7c0-0.7-0.1-1.7-0.7-1.7
		C14.6,149.1,14.5,150.1,14.5,150.8 M16.6,150.8c0,1.7-0.8,2.2-1.4,2.2c-0.8,0-1.4-0.7-1.4-2.2c0-1.6,0.7-2.2,1.4-2.2
		C16,148.6,16.6,149.3,16.6,150.8"/>
	<rect x="17.4" y="146.8" class="st0" width="0.7" height="6.1"/>
	<path class="st0" d="M19.5,150.8c0,0.7,0.1,1.7,0.7,1.7c0.6,0,0.7-1,0.7-1.7c0-0.7-0.1-1.7-0.7-1.7
		C19.7,149.1,19.5,150.1,19.5,150.8 M21.7,150.8c0,1.7-0.8,2.2-1.4,2.2c-0.8,0-1.4-0.7-1.4-2.2c0-1.6,0.7-2.2,1.4-2.2
		C21.1,148.6,21.7,149.3,21.7,150.8"/>
	<path class="st0" d="M98,153.3c0,0.3,0,0.9,0,1.6c0,0.7,0,1.6,3.4,1.6h46.7c3.4,0,3.4-1,3.4-1.6c0-0.7,0-1.3,0-1.6h-14.9v-8.6
		h-23.6v8.6H98z M148.1,157h-46.7c-3.2,0-3.8-0.8-3.8-2.1c0-1,0-1.9,0-1.9l0-0.2h14.9v-8.6H137v8.6h14.9l0,0.2c0,0,0,0.9,0,1.9
		C151.9,156.2,151.3,157,148.1,157"/>
	<path class="st1" d="M96.6,147.9l0-1.6c0.2-0.7,1-1.2,1.7-1.3l4.8-0.1c2.4-0.3,3.9-2.7,5.6-4l-0.1-105.3c0-0.6,0.6-1.1,0.9-1.3
		c2-1.5,3.6-2.4,5.9-3c0.9-0.2,2.7-0.7,2.7-1.4l0.1-0.8c-1.2-0.8-1.3-0.7,0-1.6l-0.1-3.2c0.3-1.2,1.2-2.3,1.9-2.3h9
		c0.8,0,1.7,1.7,1.8,2.3v3.4c1.3,0.9,1.3,0.6,0,1.5v1c0.1,0.5,0.7,0.7,2.4,1.2c2.6,0.7,5.1,2,6.5,3.1c0.4,0.3,0.9,0.7,0.9,1.1
		l0.1,105.6c1,1.3,1.9,3.8,3.9,3.9l6.3,0.1c1.3,0,1.7,1,1.7,1.6v1.2H96.6z"/>
	<path class="st0" d="M96.8,147.6h55.8v-1c0-0.1-0.2-1.3-1.5-1.3l-6.3-0.1c-1.6-0.1-2.6-1.7-3.3-2.9c-0.2-0.4-0.5-0.8-0.7-1.1l0-0.1
		v-0.1l-0.1-105.6c0-0.4-0.4-0.7-0.8-0.9c-1.5-1.2-4.1-2.4-6.5-3.1l-0.4-0.1c-1.5-0.5-2.2-0.7-2.2-1.3l0-1.2l0.1-0.1
		c0.2-0.1,0.4-0.3,0.5-0.4c0.1-0.1,0.2-0.2,0.3-0.2c-0.1-0.1-0.2-0.1-0.3-0.2c-0.1-0.1-0.3-0.2-0.5-0.3l-0.1-0.1v-3.5
		c0-0.4-0.9-2-1.6-2h-9c-0.5,0-1.4,1-1.7,2.2l0.1,3.3l-0.1,0.1c-0.4,0.3-0.8,0.6-0.8,0.7c0,0.1,0.3,0.2,0.6,0.4l0.4,0.2l-0.1,1
		c0,0.6-0.9,1.2-2.9,1.6c-2.1,0.6-3.7,1.4-5.8,3c-0.2,0.2-0.8,0.6-0.8,1.1l0.1,105.4l-0.1,0.1c-0.6,0.4-1.1,0.9-1.6,1.4
		c-1.2,1.2-2.4,2.4-4.1,2.6l-4.8,0.1c-0.7,0-1.4,0.5-1.5,1.1L96.8,147.6z M153.1,148.1H96.3v-1.8c0.2-0.8,1.1-1.5,2-1.5l4.8-0.1
		c1.5-0.2,2.7-1.3,3.8-2.4c0.5-0.5,1-1,1.6-1.4l-0.1-105.2c0-0.7,0.6-1.2,1-1.5c2.2-1.6,3.8-2.5,6-3.1c2.3-0.6,2.6-1,2.6-1.2
		l0.1-0.7l-0.1-0.1c-0.5-0.3-0.8-0.5-0.8-0.8c0-0.3,0.3-0.5,0.9-1l-0.1-3.1c0.3-1.4,1.3-2.6,2.1-2.6h9c1,0.1,2,1.9,2,2.5l0,3.3
		c0.1,0.1,0.3,0.2,0.4,0.3c0.4,0.3,0.6,0.4,0.6,0.6c0,0.2-0.2,0.4-0.6,0.6c-0.1,0.1-0.2,0.2-0.4,0.3v0.9c0,0.3,0.7,0.5,1.9,0.8
		l0.4,0.1c2.5,0.7,5,1.9,6.6,3.1c0.4,0.3,1,0.7,1,1.3l0.1,105.5c0.2,0.3,0.4,0.7,0.7,1c0.8,1.2,1.6,2.6,3,2.7l6.3,0.1
		c1.4,0,1.9,1.1,2,1.8V148.1z"/>
	<path class="st0" d="M131.8,28.6h-14.1c-0.1,0-0.2-0.1-0.2-0.2c0-0.1,0.1-0.2,0.2-0.2h14.1c0.1,0,0.2,0.1,0.2,0.2
		C132,28.4,131.9,28.6,131.8,28.6"/>
	<path class="st0" d="M131.1,30.7h-12.8c-0.1,0-0.2-0.1-0.2-0.2c0-0.1,0.1-0.2,0.2-0.2h12.8c0.1,0,0.2,0.1,0.2,0.2
		C131.4,30.6,131.2,30.7,131.1,30.7"/>
	<path class="st0" d="M131,25.6h-12.5c-0.1,0-0.2-0.1-0.2-0.2c0-0.1,0.1-0.2,0.2-0.2H131c0.1,0,0.2,0.1,0.2,0.2
		C131.2,25.5,131.1,25.6,131,25.6"/>
	<path class="st0" d="M140.7,35.9h-32c-0.1,0-0.2-0.1-0.2-0.2c0-0.1,0.1-0.2,0.2-0.2h32c0.1,0,0.2,0.1,0.2,0.2
		C141,35.8,140.9,35.9,140.7,35.9"/>
	<path class="st0" d="M34.4,153.3c0,0.3,0,0.9,0,1.6c0,0.7,0,1.6,3.4,1.6h46.7c3.4,0,3.4-1,3.4-1.6c0-0.7,0-1.3,0-1.6H72.9v-8.6
		H49.3v8.6H34.4z M84.4,157H37.7c-3.2,0-3.8-0.8-3.8-2.1c0-1,0-1.9,0-1.9l0-0.2h14.9v-8.6h24.6v8.6h14.9l0,0.2c0,0,0,0.9,0,1.9
		C88.3,156.2,87.6,157,84.4,157"/>
	<path class="st1" d="M32.9,147.9l0-1.6c0.2-0.7,1-1.2,1.7-1.3l4.8-0.1c2.4-0.3,3.9-2.7,5.6-4L45.1,35.7c0-0.6,0.6-1.1,0.9-1.3
		c2-1.5,3.6-2.4,5.9-3c0.9-0.2,2.7-0.7,2.7-1.4l0.1-0.8c-1.2-0.8-1.3-0.7,0-1.6l-0.1-3.2c0.3-1.2,1.2-2.3,1.9-2.3h9
		c0.8,0,1.7,1.7,1.8,2.3v3.4c1.3,0.9,1.3,0.6,0,1.5v1c0.1,0.5,0.7,0.7,2.4,1.2c2.6,0.7,5.1,2,6.5,3.1c0.4,0.3,0.9,0.7,0.9,1.1
		l0.1,105.6c1,1.3,1.9,3.8,3.9,3.9l6.3,0.1c1.3,0,1.7,1,1.7,1.6v1.2H32.9z"/>
	<path class="st0" d="M33.2,147.6H89v-1c0-0.1-0.2-1.3-1.5-1.3l-6.3-0.1c-1.6-0.1-2.6-1.7-3.4-2.9c-0.2-0.4-0.5-0.8-0.7-1.1l0-0.1
		v-0.1L77,35.5c0-0.4-0.4-0.7-0.8-0.9c-1.5-1.2-4.1-2.4-6.5-3.1l-0.4-0.1c-1.5-0.5-2.2-0.7-2.2-1.3l0-1.2l0.1-0.1
		c0.2-0.1,0.4-0.3,0.5-0.4c0.1-0.1,0.2-0.2,0.3-0.2c-0.1-0.1-0.2-0.1-0.3-0.2c-0.1-0.1-0.3-0.2-0.5-0.3l-0.1-0.1v-3.5
		c0-0.4-0.9-2-1.6-2h-9c-0.5,0-1.4,1-1.7,2.2l0.1,3.3l-0.1,0.1c-0.4,0.3-0.8,0.6-0.8,0.7c0,0.1,0.3,0.2,0.6,0.4L55,29l-0.1,1
		c0,0.6-0.9,1.2-2.9,1.6c-2.1,0.6-3.7,1.4-5.8,3c-0.3,0.2-0.8,0.6-0.8,1.1l0.1,105.4l-0.1,0.1c-0.6,0.4-1.1,0.9-1.6,1.4
		c-1.2,1.2-2.4,2.4-4.1,2.6l-4.8,0.1c-0.7,0-1.4,0.5-1.5,1.1L33.2,147.6z M89.5,148.1H32.7l0-1.8c0.2-0.8,1.1-1.5,2-1.5l4.8-0.1
		c1.5-0.2,2.7-1.3,3.8-2.4c0.5-0.5,1-1,1.6-1.4L44.8,35.7c0-0.7,0.6-1.2,1-1.5c2.2-1.6,3.8-2.5,6-3.1c2.3-0.6,2.6-1,2.6-1.2l0.1-0.7
		l-0.1-0.1c-0.5-0.3-0.8-0.5-0.8-0.8c0-0.3,0.3-0.5,0.9-1l-0.1-3.1c0.3-1.4,1.3-2.6,2.1-2.6h9c1,0.1,2,1.9,2,2.5v3.3
		c0.2,0.1,0.3,0.2,0.4,0.3c0.4,0.3,0.6,0.4,0.6,0.6c0,0.2-0.2,0.4-0.6,0.6c-0.1,0.1-0.2,0.2-0.4,0.3v0.9c0,0.3,0.7,0.5,1.9,0.8
		l0.4,0.1c2.4,0.7,5,1.9,6.6,3.1c0.4,0.3,1,0.7,1,1.3L77.5,141c0.2,0.3,0.4,0.7,0.7,1c0.7,1.2,1.6,2.6,3,2.7l6.3,0.1
		c1.4,0,1.9,1.1,2,1.8V148.1z"/>
	<path class="st0" d="M68.1,28.6H54c-0.1,0-0.2-0.1-0.2-0.2c0-0.1,0.1-0.2,0.2-0.2h14.1c0.1,0,0.2,0.1,0.2,0.2
		C68.4,28.4,68.3,28.6,68.1,28.6"/>
	<path class="st0" d="M67.5,30.7H54.7c-0.1,0-0.2-0.1-0.2-0.2c0-0.1,0.1-0.2,0.2-0.2h12.8c0.1,0,0.2,0.1,0.2,0.2
		C67.7,30.6,67.6,30.7,67.5,30.7"/>
	<path class="st0" d="M67.3,25.6H54.8c-0.1,0-0.2-0.1-0.2-0.2c0-0.1,0.1-0.2,0.2-0.2h12.5c0.1,0,0.2,0.1,0.2,0.2
		C67.6,25.5,67.5,25.6,67.3,25.6"/>
	<path class="st0" d="M77.1,35.9h-32c-0.1,0-0.2-0.1-0.2-0.2c0-0.1,0.1-0.2,0.2-0.2h32c0.1,0,0.2,0.1,0.2,0.2
		C77.3,35.8,77.2,35.9,77.1,35.9"/>
	<g>
		<polygon class="st0" points="54.8,55.1 54.3,55.4 54.3,55.7 54.7,55.4 54.7,55.4 54.7,57.4 55.1,57.4 55.1,55.1 		"/>
		<g>
			<path class="st0" d="M53.5,67.2c0.1-0.3,0.2-0.6,0.2-0.9l0.4,0c-0.1,0.3-0.3,0.7-0.4,0.9L53.5,67.2z"/>
			<g>
				<polygon class="st0" points="52.9,64.4 52.4,64.7 52.4,65 52.8,64.8 52.8,64.8 52.8,66.8 53.2,66.8 53.2,64.4 				"/>
				<path class="st0" d="M55.3,64.7h-0.6l-0.1,0.5c0,0,0,0,0.1,0c0.1,0,0.3,0.1,0.4,0.2c0.1,0.1,0.2,0.3,0.2,0.5
					c0,0.5-0.3,0.8-0.8,0.8c-0.2,0-0.3,0-0.4-0.1l0.1-0.3c0.1,0,0.2,0.1,0.3,0.1c0.2,0,0.4-0.2,0.4-0.5c0-0.3-0.2-0.5-0.5-0.5
					c-0.1,0-0.1,0-0.2,0l0.1-1.1h0.9V64.7z"/>
			</g>
		</g>
		<g>
			<path class="st0" d="M53.5,85.2c0.1-0.3,0.2-0.6,0.2-0.9l0.4,0c-0.1,0.3-0.3,0.7-0.4,0.9L53.5,85.2z"/>
			<g>
				<path class="st0" d="M52.3,84.7v-0.3l0.2-0.3c0.3-0.4,0.6-0.8,0.6-1.2c0-0.2-0.1-0.4-0.3-0.4c-0.2,0-0.3,0.1-0.3,0.1l-0.1-0.3
					c0.1-0.1,0.3-0.2,0.5-0.2c0.5,0,0.6,0.3,0.6,0.7c0,0.4-0.3,0.8-0.6,1.2l-0.1,0.2v0h0.8v0.3H52.3z"/>
				<path class="st0" d="M55.3,82.7h-0.6l-0.1,0.5c0,0,0,0,0.1,0c0.1,0,0.3,0.1,0.4,0.2c0.1,0.1,0.2,0.3,0.2,0.5
					c0,0.5-0.3,0.8-0.8,0.8c-0.2,0-0.3,0-0.4-0.1l0.1-0.3c0.1,0,0.2,0.1,0.3,0.1c0.2,0,0.4-0.2,0.4-0.5c0-0.3-0.2-0.5-0.5-0.5
					c-0.1,0-0.1,0-0.2,0l0.1-1.1h0.9V82.7z"/>
			</g>
		</g>
		<g>
			<path class="st0" d="M52.3,103.3c0.1,0.1,0.2,0.1,0.3,0.1c0.2,0,0.4-0.2,0.4-0.4c0-0.3-0.2-0.4-0.5-0.4h-0.1v-0.3h0.1
				c0.2,0,0.4-0.1,0.4-0.4c0-0.2-0.1-0.3-0.3-0.3c-0.1,0-0.2,0-0.3,0.1l-0.1-0.3c0.1-0.1,0.3-0.1,0.5-0.1c0.4,0,0.6,0.3,0.6,0.6
				c0,0.2-0.1,0.4-0.3,0.5v0c0.2,0.1,0.4,0.3,0.4,0.6c0,0.4-0.3,0.7-0.7,0.7c-0.2,0-0.3,0-0.4-0.1L52.3,103.3z"/>
			<path class="st0" d="M53.5,104.1c0.1-0.3,0.2-0.6,0.2-0.9l0.4,0c-0.1,0.3-0.3,0.7-0.4,0.9L53.5,104.1z"/>
			<path class="st0" d="M55.3,101.7h-0.6l-0.1,0.5c0,0,0,0,0.1,0c0.1,0,0.3,0.1,0.4,0.2c0.1,0.1,0.2,0.3,0.2,0.5
				c0,0.5-0.3,0.8-0.8,0.8c-0.2,0-0.3,0-0.4-0.1l0.1-0.3c0.1,0,0.2,0.1,0.3,0.1c0.2,0,0.4-0.2,0.4-0.5c0-0.3-0.2-0.5-0.5-0.5
				c-0.1,0-0.1,0-0.2,0l0.1-1.1h0.9V101.7z"/>
		</g>
		<g>
			<path class="st0" d="M53,121.7v-0.6c0-0.1,0-0.3,0-0.4h0c-0.1,0.2-0.1,0.3-0.2,0.4l-0.3,0.6v0H53z M53,122.6V122h-0.8v-0.3
				l0.8-1.5h0.4v1.4h0.2v0.3h-0.2v0.6H53z"/>
			<path class="st0" d="M53.5,123.1c0.1-0.3,0.2-0.6,0.2-0.9l0.4,0c-0.1,0.3-0.3,0.7-0.4,0.9L53.5,123.1z"/>
			<path class="st0" d="M55.3,120.6h-0.6l-0.1,0.5c0,0,0,0,0.1,0c0.1,0,0.3,0.1,0.4,0.2c0.1,0.1,0.2,0.3,0.2,0.5
				c0,0.5-0.3,0.8-0.8,0.8c-0.2,0-0.3,0-0.4-0.1l0.1-0.3c0.1,0,0.2,0.1,0.3,0.1c0.2,0,0.4-0.2,0.4-0.5c0-0.3-0.2-0.5-0.5-0.5
				c-0.1,0-0.1,0-0.2,0l0.1-1.1h0.9V120.6z"/>
		</g>
		<path class="st0" d="M54.1,75.9v-0.3l0.2-0.3c0.3-0.4,0.6-0.8,0.6-1.2c0-0.2-0.1-0.4-0.3-0.4c-0.2,0-0.3,0.1-0.4,0.1l-0.1-0.3
			c0.1-0.1,0.3-0.2,0.5-0.2c0.5,0,0.6,0.3,0.6,0.7c0,0.4-0.3,0.8-0.6,1.2l-0.1,0.2v0h0.8v0.3H54.1z"/>
		<path class="st0" d="M54.2,94.1c0.1,0.1,0.2,0.1,0.3,0.1c0.2,0,0.4-0.2,0.4-0.4c0-0.3-0.2-0.4-0.5-0.4h-0.1v-0.3h0
			c0.2,0,0.4-0.1,0.4-0.4c0-0.2-0.1-0.3-0.3-0.3c-0.1,0-0.2,0-0.3,0.1l-0.1-0.3c0.1-0.1,0.3-0.1,0.5-0.1c0.4,0,0.6,0.3,0.6,0.6
			c0,0.2-0.1,0.4-0.3,0.5v0c0.2,0.1,0.4,0.3,0.4,0.6c0,0.4-0.3,0.7-0.7,0.7c-0.2,0-0.3,0-0.4-0.1L54.2,94.1z"/>
		<path class="st0" d="M54.8,112.2v-0.6c0-0.1,0-0.3,0-0.4h0c-0.1,0.2-0.1,0.3-0.2,0.4l-0.3,0.6v0H54.8z M54.8,113.1v-0.6H54v-0.3
			l0.8-1.5h0.4v1.5h0.2v0.3h-0.2v0.6H54.8z"/>
		<path class="st0" d="M55.3,130h-0.6l-0.1,0.5c0,0,0,0,0.1,0c0.1,0,0.3,0.1,0.4,0.2c0.1,0.1,0.2,0.3,0.2,0.5c0,0.5-0.3,0.8-0.8,0.8
			c-0.2,0-0.3,0-0.4-0.1l0.1-0.3c0.1,0,0.2,0.1,0.3,0.1c0.2,0,0.4-0.2,0.4-0.5c0-0.3-0.2-0.5-0.5-0.5c-0.1,0-0.1,0-0.2,0l0.1-1.1
			h0.9V130z"/>
		<path class="st0" d="M52.6,43.6c0,0.6,0.1,0.9,0.3,0.9c0.2,0,0.3-0.3,0.3-0.9c0-0.5-0.1-0.9-0.3-0.9C52.7,42.7,52.6,43,52.6,43.6
			 M53.6,43.6c0,0.9-0.3,1.2-0.7,1.2c-0.4,0-0.6-0.5-0.6-1.2c0-0.7,0.2-1.2,0.7-1.2C53.4,42.4,53.6,42.9,53.6,43.6"/>
		<path class="st0" d="M53.5,45.2c0.1-0.3,0.2-0.6,0.2-0.9l0.4,0c-0.1,0.3-0.3,0.7-0.4,0.9L53.5,45.2z"/>
		<path class="st0" d="M55.3,42.8h-0.6l-0.1,0.5c0,0,0,0,0.1,0c0.1,0,0.3,0,0.4,0.2c0.1,0.1,0.2,0.3,0.2,0.5c0,0.5-0.3,0.8-0.8,0.8
			c-0.2,0-0.3,0-0.4-0.1l0.1-0.3c0.1,0,0.2,0.1,0.3,0.1c0.2,0,0.4-0.2,0.4-0.5c0-0.3-0.2-0.5-0.5-0.5c-0.1,0-0.1,0-0.2,0l0.1-1.1
			h0.9V42.8z"/>
		<path class="st0" d="M70,56.4H57.1c-0.1,0-0.2-0.1-0.2-0.2c0-0.1,0.1-0.2,0.2-0.2H70c0.1,0,0.2,0.1,0.2,0.2
			C70.3,56.2,70.2,56.4,70,56.4"/>
		<path class="st0" d="M70,75H57.1c-0.1,0-0.2-0.1-0.2-0.2c0-0.1,0.1-0.2,0.2-0.2H70c0.1,0,0.2,0.1,0.2,0.2C70.3,74.9,70.2,75,70,75
			"/>
		<path class="st0" d="M70,93.7H57.1c-0.1,0-0.2-0.1-0.2-0.2c0-0.1,0.1-0.2,0.2-0.2H70c0.1,0,0.2,0.1,0.2,0.2
			C70.3,93.6,70.2,93.7,70,93.7"/>
		<path class="st0" d="M70,112.4H57.1c-0.1,0-0.2-0.1-0.2-0.2c0-0.1,0.1-0.2,0.2-0.2H70c0.1,0,0.2,0.1,0.2,0.2
			C70.3,112.3,70.2,112.4,70,112.4"/>
		<path class="st0" d="M70,131.1H57.1c-0.1,0-0.2-0.1-0.2-0.2c0-0.1,0.1-0.2,0.2-0.2H70c0.1,0,0.2,0.1,0.2,0.2
			C70.3,131,70.2,131.1,70,131.1"/>
		<path class="st0" d="M63.6,42.3h-6.4c-0.1,0-0.2-0.1-0.2-0.2c0-0.1,0.1-0.2,0.2-0.2h6.4c0.1,0,0.2,0.1,0.2,0.2
			C63.7,42.2,63.7,42.3,63.6,42.3"/>
		<path class="st0" d="M63.6,61h-6.4c-0.1,0-0.2-0.1-0.2-0.2c0-0.1,0.1-0.2,0.2-0.2h6.4c0.1,0,0.2,0.1,0.2,0.2
			C63.7,60.9,63.7,61,63.6,61"/>
		<path class="st0" d="M63.6,79.7h-6.4c-0.1,0-0.2-0.1-0.2-0.2c0-0.1,0.1-0.2,0.2-0.2h6.4c0.1,0,0.2,0.1,0.2,0.2
			C63.7,79.6,63.7,79.7,63.6,79.7"/>
		<path class="st0" d="M63.6,89h-6.4c-0.1,0-0.2-0.1-0.2-0.2c0-0.1,0.1-0.2,0.2-0.2h6.4c0.1,0,0.2,0.1,0.2,0.2
			C63.7,88.9,63.7,89,63.6,89"/>
		<path class="st0" d="M63.6,98.4h-6.4c-0.1,0-0.2-0.1-0.2-0.2c0-0.1,0.1-0.2,0.2-0.2h6.4c0.1,0,0.2,0.1,0.2,0.2
			C63.7,98.3,63.7,98.4,63.6,98.4"/>
		<path class="st0" d="M63.6,107.7h-6.4c-0.1,0-0.2-0.1-0.2-0.2c0-0.1,0.1-0.2,0.2-0.2h6.4c0.1,0,0.2,0.1,0.2,0.2
			C63.7,107.6,63.7,107.7,63.6,107.7"/>
		<path class="st0" d="M63.6,117.1h-6.4c-0.1,0-0.2-0.1-0.2-0.2c0-0.1,0.1-0.2,0.2-0.2h6.4c0.1,0,0.2,0.1,0.2,0.2
			C63.7,117,63.7,117.1,63.6,117.1"/>
		<path class="st0" d="M63.6,126.4h-6.4c-0.1,0-0.2-0.1-0.2-0.2c0-0.1,0.1-0.2,0.2-0.2h6.4c0.1,0,0.2,0.1,0.2,0.2
			C63.7,126.3,63.7,126.4,63.6,126.4"/>
		<path class="st0" d="M63.6,70.3h-6.4c-0.1,0-0.2-0.1-0.2-0.2c0-0.1,0.1-0.2,0.2-0.2h6.4c0.1,0,0.2,0.1,0.2,0.2
			C63.7,70.2,63.7,70.3,63.6,70.3"/>
		<path class="st0" d="M66,46.9h-8.8c-0.1,0-0.2-0.1-0.2-0.2c0-0.1,0.1-0.2,0.2-0.2H66c0.1,0,0.2,0.1,0.2,0.2
			C66.1,46.9,66.1,46.9,66,46.9"/>
		<path class="st0" d="M66,51.6h-8.8c-0.1,0-0.2-0.1-0.2-0.2c0-0.1,0.1-0.2,0.2-0.2H66c0.1,0,0.2,0.1,0.2,0.2
			C66.1,51.5,66.1,51.6,66,51.6"/>
		<path class="st0" d="M66,65.6h-8.8c-0.1,0-0.2-0.1-0.2-0.2c0-0.1,0.1-0.2,0.2-0.2H66c0.1,0,0.2,0.1,0.2,0.2
			C66.1,65.6,66.1,65.6,66,65.6"/>
		<path class="st0" d="M66,84.3h-8.8c-0.1,0-0.2-0.1-0.2-0.2c0-0.1,0.1-0.2,0.2-0.2H66c0.1,0,0.2,0.1,0.2,0.2
			C66.1,84.3,66.1,84.3,66,84.3"/>
		<path class="st0" d="M66,103h-8.8c-0.1,0-0.2-0.1-0.2-0.2c0-0.1,0.1-0.2,0.2-0.2H66c0.1,0,0.2,0.1,0.2,0.2
			C66.1,103,66.1,103,66,103"/>
		<path class="st0" d="M66,121.7h-8.8c-0.1,0-0.2-0.1-0.2-0.2c0-0.1,0.1-0.2,0.2-0.2H66c0.1,0,0.2,0.1,0.2,0.2
			C66.1,121.6,66.1,121.7,66,121.7"/>
	</g>
	<g>
		<polygon class="st0" points="120,55.1 119.5,55.4 119.5,55.7 119.9,55.4 119.9,55.4 119.9,57.4 120.3,57.4 120.3,55.1 		"/>
		<g>
			<path class="st0" d="M118.7,67.2c0.1-0.3,0.2-0.6,0.2-0.9l0.4,0c-0.1,0.3-0.3,0.7-0.4,0.9L118.7,67.2z"/>
			<g>
				<polygon class="st0" points="118.1,64.4 117.6,64.7 117.6,65 118,64.8 118,64.8 118,66.8 118.4,66.8 118.4,64.4 				"/>
				<path class="st0" d="M120.5,64.7h-0.6l-0.1,0.5c0,0,0,0,0.1,0c0.1,0,0.3,0.1,0.4,0.2c0.1,0.1,0.2,0.3,0.2,0.5
					c0,0.5-0.3,0.8-0.8,0.8c-0.2,0-0.3,0-0.4-0.1l0.1-0.3c0.1,0,0.2,0.1,0.3,0.1c0.2,0,0.4-0.2,0.4-0.5c0-0.3-0.2-0.5-0.5-0.5
					c-0.1,0-0.1,0-0.2,0l0.1-1.1h0.9V64.7z"/>
			</g>
		</g>
		<g>
			<path class="st0" d="M118.7,85.2c0.1-0.3,0.2-0.6,0.2-0.9l0.4,0c-0.1,0.3-0.3,0.7-0.4,0.9L118.7,85.2z"/>
			<g>
				<path class="st0" d="M117.5,84.7v-0.3l0.2-0.3c0.3-0.4,0.6-0.8,0.6-1.2c0-0.2-0.1-0.4-0.3-0.4c-0.2,0-0.3,0.1-0.3,0.1l-0.1-0.3
					c0.1-0.1,0.3-0.2,0.5-0.2c0.5,0,0.6,0.3,0.6,0.7c0,0.4-0.3,0.8-0.6,1.2l-0.1,0.2v0h0.8v0.3H117.5z"/>
				<path class="st0" d="M120.5,82.7h-0.6l-0.1,0.5c0,0,0,0,0.1,0c0.1,0,0.3,0.1,0.4,0.2c0.1,0.1,0.2,0.3,0.2,0.5
					c0,0.5-0.3,0.8-0.8,0.8c-0.2,0-0.3,0-0.4-0.1l0.1-0.3c0.1,0,0.2,0.1,0.3,0.1c0.2,0,0.4-0.2,0.4-0.5c0-0.3-0.2-0.5-0.5-0.5
					c-0.1,0-0.1,0-0.2,0l0.1-1.1h0.9V82.7z"/>
			</g>
		</g>
		<g>
			<path class="st0" d="M117.5,103.3c0.1,0.1,0.2,0.1,0.3,0.1c0.2,0,0.4-0.2,0.4-0.4c0-0.3-0.2-0.4-0.5-0.4h-0.1v-0.3h0.1
				c0.2,0,0.4-0.1,0.4-0.4c0-0.2-0.1-0.3-0.3-0.3c-0.1,0-0.2,0-0.3,0.1l-0.1-0.3c0.1-0.1,0.3-0.1,0.5-0.1c0.4,0,0.6,0.3,0.6,0.6
				c0,0.2-0.1,0.4-0.3,0.5v0c0.2,0.1,0.4,0.3,0.4,0.6c0,0.4-0.3,0.7-0.7,0.7c-0.2,0-0.3,0-0.4-0.1L117.5,103.3z"/>
			<path class="st0" d="M118.7,104.1c0.1-0.3,0.2-0.6,0.2-0.9l0.4,0c-0.1,0.3-0.3,0.7-0.4,0.9L118.7,104.1z"/>
			<path class="st0" d="M120.5,101.7h-0.6l-0.1,0.5c0,0,0,0,0.1,0c0.1,0,0.3,0.1,0.4,0.2c0.1,0.1,0.2,0.3,0.2,0.5
				c0,0.5-0.3,0.8-0.8,0.8c-0.2,0-0.3,0-0.4-0.1l0.1-0.3c0.1,0,0.2,0.1,0.3,0.1c0.2,0,0.4-0.2,0.4-0.5c0-0.3-0.2-0.5-0.5-0.5
				c-0.1,0-0.1,0-0.2,0l0.1-1.1h0.9V101.7z"/>
		</g>
		<g>
			<path class="st0" d="M118.2,121.7v-0.6c0-0.1,0-0.3,0-0.4h0c-0.1,0.2-0.1,0.3-0.2,0.4l-0.3,0.6v0H118.2z M118.2,122.6V122h-0.8
				v-0.3l0.8-1.5h0.4v1.4h0.2v0.3h-0.2v0.6H118.2z"/>
			<path class="st0" d="M118.7,123.1c0.1-0.3,0.2-0.6,0.2-0.9l0.4,0c-0.1,0.3-0.3,0.7-0.4,0.9L118.7,123.1z"/>
			<path class="st0" d="M120.5,120.6h-0.6l-0.1,0.5c0,0,0,0,0.1,0c0.1,0,0.3,0.1,0.4,0.2c0.1,0.1,0.2,0.3,0.2,0.5
				c0,0.5-0.3,0.8-0.8,0.8c-0.2,0-0.3,0-0.4-0.1l0.1-0.3c0.1,0,0.2,0.1,0.3,0.1c0.2,0,0.4-0.2,0.4-0.5c0-0.3-0.2-0.5-0.5-0.5
				c-0.1,0-0.1,0-0.2,0l0.1-1.1h0.9V120.6z"/>
		</g>
		<path class="st0" d="M119.4,75.9v-0.3l0.2-0.3c0.3-0.4,0.6-0.8,0.6-1.2c0-0.2-0.1-0.4-0.3-0.4c-0.2,0-0.3,0.1-0.4,0.1l-0.1-0.3
			c0.1-0.1,0.3-0.2,0.5-0.2c0.5,0,0.6,0.3,0.6,0.7c0,0.4-0.3,0.8-0.6,1.2l-0.1,0.2v0h0.8v0.3H119.4z"/>
		<path class="st0" d="M119.4,94.1c0.1,0.1,0.2,0.1,0.3,0.1c0.2,0,0.4-0.2,0.4-0.4c0-0.3-0.2-0.4-0.5-0.4h-0.1v-0.3h0
			c0.2,0,0.4-0.1,0.4-0.4c0-0.2-0.1-0.3-0.3-0.3c-0.1,0-0.2,0-0.3,0.1l-0.1-0.3c0.1-0.1,0.3-0.1,0.5-0.1c0.4,0,0.6,0.3,0.6,0.6
			c0,0.2-0.1,0.4-0.3,0.5v0c0.2,0.1,0.4,0.3,0.4,0.6c0,0.4-0.3,0.7-0.7,0.7c-0.2,0-0.3,0-0.4-0.1L119.4,94.1z"/>
		<path class="st0" d="M120,112.2v-0.6c0-0.1,0-0.3,0-0.4h0c-0.1,0.2-0.1,0.3-0.2,0.4l-0.3,0.6v0H120z M120,113.1v-0.6h-0.8v-0.3
			l0.8-1.5h0.4v1.5h0.2v0.3h-0.2v0.6H120z"/>
		<path class="st0" d="M120.5,130h-0.6l-0.1,0.5c0,0,0,0,0.1,0c0.1,0,0.3,0.1,0.4,0.2c0.1,0.1,0.2,0.3,0.2,0.5
			c0,0.5-0.3,0.8-0.8,0.8c-0.2,0-0.3,0-0.4-0.1l0.1-0.3c0.1,0,0.2,0.1,0.3,0.1c0.2,0,0.4-0.2,0.4-0.5c0-0.3-0.2-0.5-0.5-0.5
			c-0.1,0-0.1,0-0.2,0l0.1-1.1h0.9V130z"/>
		<path class="st0" d="M117.9,43.6c0,0.6,0.1,0.9,0.3,0.9c0.2,0,0.2-0.3,0.2-0.9c0-0.5-0.1-0.9-0.3-0.9
			C117.9,42.7,117.9,43,117.9,43.6 M118.8,43.6c0,0.9-0.3,1.2-0.7,1.2c-0.4,0-0.6-0.5-0.6-1.2c0-0.7,0.2-1.2,0.7-1.2
			C118.6,42.4,118.8,42.9,118.8,43.6"/>
		<path class="st0" d="M118.7,45.2c0.1-0.3,0.2-0.6,0.2-0.9l0.4,0c-0.1,0.3-0.3,0.7-0.4,0.9L118.7,45.2z"/>
		<path class="st0" d="M120.5,42.8h-0.6l-0.1,0.5c0,0,0,0,0.1,0c0.1,0,0.3,0,0.4,0.2c0.1,0.1,0.2,0.3,0.2,0.5c0,0.5-0.3,0.8-0.8,0.8
			c-0.2,0-0.3,0-0.4-0.1l0.1-0.3c0.1,0,0.2,0.1,0.3,0.1c0.2,0,0.4-0.2,0.4-0.5c0-0.3-0.2-0.5-0.5-0.5c-0.1,0-0.1,0-0.2,0l0.1-1.1
			h0.9V42.8z"/>
		<path class="st0" d="M135.2,56.4h-12.9c-0.1,0-0.2-0.1-0.2-0.2c0-0.1,0.1-0.2,0.2-0.2h12.9c0.1,0,0.2,0.1,0.2,0.2
			C135.5,56.2,135.4,56.4,135.2,56.4"/>
		<path class="st0" d="M135.2,75h-12.9c-0.1,0-0.2-0.1-0.2-0.2c0-0.1,0.1-0.2,0.2-0.2h12.9c0.1,0,0.2,0.1,0.2,0.2
			C135.5,74.9,135.4,75,135.2,75"/>
		<path class="st0" d="M135.2,93.7h-12.9c-0.1,0-0.2-0.1-0.2-0.2c0-0.1,0.1-0.2,0.2-0.2h12.9c0.1,0,0.2,0.1,0.2,0.2
			C135.5,93.6,135.4,93.7,135.2,93.7"/>
		<path class="st0" d="M135.2,112.4h-12.9c-0.1,0-0.2-0.1-0.2-0.2c0-0.1,0.1-0.2,0.2-0.2h12.9c0.1,0,0.2,0.1,0.2,0.2
			C135.5,112.3,135.4,112.4,135.2,112.4"/>
		<path class="st0" d="M135.2,131.1h-12.9c-0.1,0-0.2-0.1-0.2-0.2c0-0.1,0.1-0.2,0.2-0.2h12.9c0.1,0,0.2,0.1,0.2,0.2
			C135.5,131,135.4,131.1,135.2,131.1"/>
		<path class="st0" d="M128.8,42.3h-6.4c-0.1,0-0.2-0.1-0.2-0.2c0-0.1,0.1-0.2,0.2-0.2h6.4c0.1,0,0.2,0.1,0.2,0.2
			C128.9,42.2,128.9,42.3,128.8,42.3"/>
		<path class="st0" d="M128.8,61h-6.4c-0.1,0-0.2-0.1-0.2-0.2c0-0.1,0.1-0.2,0.2-0.2h6.4c0.1,0,0.2,0.1,0.2,0.2
			C128.9,60.9,128.9,61,128.8,61"/>
		<path class="st0" d="M128.8,79.7h-6.4c-0.1,0-0.2-0.1-0.2-0.2c0-0.1,0.1-0.2,0.2-0.2h6.4c0.1,0,0.2,0.1,0.2,0.2
			C128.9,79.6,128.9,79.7,128.8,79.7"/>
		<path class="st0" d="M128.8,89h-6.4c-0.1,0-0.2-0.1-0.2-0.2c0-0.1,0.1-0.2,0.2-0.2h6.4c0.1,0,0.2,0.1,0.2,0.2
			C128.9,88.9,128.9,89,128.8,89"/>
		<path class="st0" d="M128.8,98.4h-6.4c-0.1,0-0.2-0.1-0.2-0.2c0-0.1,0.1-0.2,0.2-0.2h6.4c0.1,0,0.2,0.1,0.2,0.2
			C128.9,98.3,128.9,98.4,128.8,98.4"/>
		<path class="st0" d="M128.8,107.7h-6.4c-0.1,0-0.2-0.1-0.2-0.2c0-0.1,0.1-0.2,0.2-0.2h6.4c0.1,0,0.2,0.1,0.2,0.2
			C128.9,107.6,128.9,107.7,128.8,107.7"/>
		<path class="st0" d="M128.8,117.1h-6.4c-0.1,0-0.2-0.1-0.2-0.2c0-0.1,0.1-0.2,0.2-0.2h6.4c0.1,0,0.2,0.1,0.2,0.2
			C128.9,117,128.9,117.1,128.8,117.1"/>
		<path class="st0" d="M128.8,126.4h-6.4c-0.1,0-0.2-0.1-0.2-0.2c0-0.1,0.1-0.2,0.2-0.2h6.4c0.1,0,0.2,0.1,0.2,0.2
			C128.9,126.3,128.9,126.4,128.8,126.4"/>
		<path class="st0" d="M128.8,70.3h-6.4c-0.1,0-0.2-0.1-0.2-0.2c0-0.1,0.1-0.2,0.2-0.2h6.4c0.1,0,0.2,0.1,0.2,0.2
			C128.9,70.2,128.9,70.3,128.8,70.3"/>
		<path class="st0" d="M131.2,46.9h-8.8c-0.1,0-0.2-0.1-0.2-0.2c0-0.1,0.1-0.2,0.2-0.2h8.8c0.1,0,0.2,0.1,0.2,0.2
			C131.3,46.9,131.3,46.9,131.2,46.9"/>
		<path class="st0" d="M131.2,51.6h-8.8c-0.1,0-0.2-0.1-0.2-0.2c0-0.1,0.1-0.2,0.2-0.2h8.8c0.1,0,0.2,0.1,0.2,0.2
			C131.3,51.5,131.3,51.6,131.2,51.6"/>
		<path class="st0" d="M131.2,65.6h-8.8c-0.1,0-0.2-0.1-0.2-0.2c0-0.1,0.1-0.2,0.2-0.2h8.8c0.1,0,0.2,0.1,0.2,0.2
			C131.3,65.6,131.3,65.6,131.2,65.6"/>
		<path class="st0" d="M131.2,84.3h-8.8c-0.1,0-0.2-0.1-0.2-0.2c0-0.1,0.1-0.2,0.2-0.2h8.8c0.1,0,0.2,0.1,0.2,0.2
			C131.3,84.3,131.3,84.3,131.2,84.3"/>
		<path class="st0" d="M131.2,103h-8.8c-0.1,0-0.2-0.1-0.2-0.2c0-0.1,0.1-0.2,0.2-0.2h8.8c0.1,0,0.2,0.1,0.2,0.2
			C131.3,103,131.3,103,131.2,103"/>
		<path class="st0" d="M131.2,121.7h-8.8c-0.1,0-0.2-0.1-0.2-0.2c0-0.1,0.1-0.2,0.2-0.2h8.8c0.1,0,0.2,0.1,0.2,0.2
			C131.3,121.6,131.3,121.7,131.2,121.7"/>
	</g>
	<g>
		<path class="st0" d="M153.6,57.7h-9.9c-0.1,0-0.2-0.1-0.2-0.2c0-0.1,0.1-0.2,0.2-0.2h9.9c0.1,0,0.2,0.1,0.2,0.2
			C153.9,57.6,153.8,57.7,153.6,57.7"/>
		<polygon class="st0" points="156.8,55.8 156.8,55.8 156,56.2 155.9,55.8 156.9,55.3 157.4,55.3 157.4,59.7 156.8,59.7 		"/>
	</g>
	<g>
		<path class="st0" d="M153.6,130.8h-9.9c-0.1,0-0.2-0.1-0.2-0.2c0-0.1,0.1-0.2,0.2-0.2h9.9c0.1,0,0.2,0.1,0.2,0.2
			C153.9,130.7,153.8,130.8,153.6,130.8"/>
		<path class="st0" d="M158.6,129h-1.7l-0.2,1.1c0.1,0,0.2,0,0.4,0c0.3,0,0.7,0.1,1,0.2c0.3,0.2,0.6,0.6,0.6,1.1
			c0,0.9-0.7,1.5-1.6,1.5c-0.5,0-0.9-0.1-1.1-0.3l0.1-0.5c0.2,0.1,0.5,0.2,0.9,0.2c0.6,0,1-0.4,1-1c0-0.6-0.4-1-1.3-1
			c-0.3,0-0.5,0-0.6,0l0.3-2.1h2.1V129z"/>
		<path class="st0" d="M161,130.5c0-0.3,0-0.6,0-0.9h0.5l0,0.5h0c0.2-0.3,0.5-0.6,1-0.6c0.5,0,0.8,0.3,0.9,0.7h0
			c0.1-0.2,0.2-0.3,0.4-0.4c0.2-0.2,0.4-0.2,0.7-0.2c0.4,0,1.1,0.3,1.1,1.4v1.9h-0.6v-1.9c0-0.6-0.2-1-0.7-1c-0.3,0-0.6,0.3-0.7,0.5
			c0,0.1,0,0.2,0,0.3v2h-0.6v-2c0-0.5-0.2-0.9-0.7-0.9c-0.4,0-0.6,0.3-0.7,0.6c0,0.1,0,0.2,0,0.3v2H161V130.5z"/>
		<rect x="166.7" y="128.1" class="st0" width="0.6" height="4.8"/>
	</g>
	<g>
		<path class="st0" d="M153.6,112.5h-9.9c-0.1,0-0.2-0.1-0.2-0.2c0-0.1,0.1-0.2,0.2-0.2h9.9c0.1,0,0.2,0.1,0.2,0.2
			C153.9,112.4,153.8,112.5,153.6,112.5"/>
		<path class="st0" d="M158,112.8v-1.5c0-0.2,0-0.5,0-0.7h0c-0.1,0.3-0.2,0.4-0.4,0.7l-1.1,1.5v0H158z M158,114.5v-1.2h-2.1v-0.4
			l2-2.8h0.6v2.7h0.6v0.5h-0.6v1.2H158z"/>
	</g>
	<g>
		<path class="st0" d="M153.6,94.2h-9.9c-0.1,0-0.2-0.1-0.2-0.2c0-0.1,0.1-0.2,0.2-0.2h9.9c0.1,0,0.2,0.1,0.2,0.2
			C153.9,94.1,153.8,94.2,153.6,94.2"/>
		<path class="st0" d="M156.1,95.5c0.2,0.1,0.6,0.3,1,0.3c0.8,0,1-0.5,1-0.9c0-0.6-0.6-0.9-1.1-0.9h-0.3v-0.4h0.3c0.4,0,1-0.2,1-0.7
			c0-0.4-0.2-0.7-0.8-0.7c-0.4,0-0.7,0.2-0.9,0.3l-0.2-0.4c0.2-0.2,0.7-0.3,1.2-0.3c0.9,0,1.3,0.5,1.3,1.1c0,0.5-0.3,0.8-0.8,1v0
			c0.5,0.1,1,0.5,1,1.1c0,0.7-0.6,1.3-1.6,1.3c-0.5,0-0.9-0.2-1.1-0.3L156.1,95.5z"/>
	</g>
	<g>
		<path class="st0" d="M153.6,76h-9.9c-0.1,0-0.2-0.1-0.2-0.2c0-0.1,0.1-0.2,0.2-0.2h9.9c0.1,0,0.2,0.1,0.2,0.2
			C153.9,75.9,153.8,76,153.6,76"/>
		<path class="st0" d="M155.9,78v-0.4l0.5-0.5c1.1-1.1,1.6-1.6,1.6-2.3c0-0.5-0.2-0.9-0.9-0.9c-0.4,0-0.7,0.2-0.9,0.4l-0.2-0.4
			c0.3-0.3,0.7-0.4,1.3-0.4c1,0,1.4,0.7,1.4,1.3c0,0.8-0.6,1.5-1.5,2.4l-0.4,0.3v0h2V78H155.9z"/>
	</g>
</g>
<g>
	<linearGradient id="SVGID_1_" gradientUnits="userSpaceOnUse" x1="182.1362" y1="43.1385" x2="264.5945" y2="43.1385">
		<stop  offset="0" style="stop-color:#5E388D"/>
		<stop  offset="1" style="stop-color:#00AE8D"/>
		<stop  offset="1" style="stop-color:#60269E"/>
	</linearGradient>
	<path class="st2" d="M263.6,34.4c4.8,22.2-9.3,44.2-31.5,49.1c-22.2,4.8-44.2-9.3-49-31.5s9.3-44.2,31.5-49
		C236.9-2,258.8,12.1,263.6,34.4z"/>
	<g>
		<g>
			<path class="st1" d="M211.2,19.6l0.3-0.4c0.4,0.4,0.9,0.8,1.7,0.8c1.1,0,1.4-0.6,1.4-1.1c0-1.6-3.3-0.8-3.3-2.7
				c0-0.9,0.8-1.5,1.8-1.5c0.8,0,1.5,0.3,1.9,0.8l-0.3,0.3c-0.4-0.5-1-0.7-1.6-0.7c-0.7,0-1.3,0.4-1.3,1c0,1.4,3.3,0.6,3.3,2.7
				c0,0.7-0.5,1.6-2,1.6C212.3,20.5,211.6,20.1,211.2,19.6z"/>
			<path class="st1" d="M216.2,15.4c0-0.2,0.2-0.3,0.3-0.3c0.2,0,0.3,0.1,0.3,0.3c0,0.2-0.1,0.3-0.3,0.3
				C216.4,15.8,216.2,15.6,216.2,15.4z M216.3,20.4v-4h0.4v4H216.3z"/>
			<path class="st1" d="M219.9,19.8l0.3-0.3c0.3,0.3,0.7,0.6,1.3,0.6c0.7,0,1.1-0.3,1.1-0.8c0-1.1-2.5-0.5-2.5-1.9
				c0-0.6,0.5-1.1,1.4-1.1c0.7,0,1.1,0.3,1.4,0.6l-0.2,0.3c-0.2-0.3-0.7-0.5-1.2-0.5c-0.6,0-1,0.3-1,0.7c0,1,2.5,0.4,2.5,1.9
				c0,0.6-0.5,1.2-1.5,1.2C220.8,20.5,220.3,20.3,219.9,19.8z"/>
			<path class="st1" d="M223.8,18.4c0-1.2,0.8-2.1,1.9-2.1c1.2,0,1.9,1,1.9,2.1v0.1h-3.3c0,0.9,0.6,1.6,1.6,1.6c0.5,0,1-0.2,1.3-0.6
				l0.2,0.3c-0.4,0.4-0.9,0.6-1.6,0.6C224.7,20.5,223.8,19.6,223.8,18.4z M225.7,16.7c-0.9,0-1.4,0.8-1.4,1.5h2.9
				C227.2,17.5,226.7,16.7,225.7,16.7z"/>
			<path class="st1" d="M230.9,20.4v-5.5h0.4v5.5H230.9z"/>
			<path class="st1" d="M232.4,18.4c0-1.2,0.8-2.1,1.9-2.1c1.2,0,1.9,1,1.9,2.1v0.1h-3.3c0,0.9,0.6,1.6,1.6,1.6c0.5,0,1-0.2,1.3-0.6
				l0.2,0.3c-0.4,0.4-0.9,0.6-1.6,0.6C233.3,20.5,232.4,19.6,232.4,18.4z M234.4,16.7c-0.9,0-1.4,0.8-1.4,1.5h2.9
				C235.8,17.5,235.4,16.7,234.4,16.7z"/>
			<path class="st1" d="M192.1,30.2v2.2h-0.4v-5.5h0.4v0.6c0.3-0.4,0.8-0.7,1.4-0.7c1.1,0,1.8,0.8,1.8,2.1c0,1.3-0.7,2.1-1.8,2.1
				C192.9,31,192.4,30.7,192.1,30.2z M194.8,28.8c0-1-0.5-1.7-1.4-1.7c-0.6,0-1.1,0.3-1.3,0.7v2c0.2,0.4,0.8,0.7,1.3,0.7
				C194.3,30.6,194.8,29.8,194.8,28.8z"/>
			<path class="st1" d="M196.3,25.9c0-0.2,0.2-0.3,0.3-0.3c0.2,0,0.3,0.1,0.3,0.3c0,0.2-0.1,0.3-0.3,0.3
				C196.4,26.2,196.3,26.1,196.3,25.9z M196.4,30.9v-4h0.4v4H196.4z"/>
			<path class="st1" d="M197.9,28.8c0-1.2,0.8-2.1,1.9-2.1c1.2,0,1.9,1,1.9,2.1V29h-3.3c0,0.9,0.6,1.6,1.6,1.6c0.5,0,1-0.2,1.3-0.6
				l0.2,0.3c-0.4,0.4-0.9,0.6-1.6,0.6C198.8,31,197.9,30.1,197.9,28.8z M199.8,27.1c-0.9,0-1.4,0.8-1.4,1.5h2.9
				C201.3,28,200.8,27.1,199.8,27.1z"/>
			<path class="st1" d="M202.9,30.9v-4h0.4v0.7c0.3-0.4,0.8-0.8,1.4-0.8v0.5c-0.1,0-0.1,0-0.2,0c-0.4,0-1,0.4-1.1,0.7v2.9H202.9z"/>
			<path class="st1" d="M208.4,30.9v-0.6c-0.3,0.4-0.8,0.7-1.4,0.7c-1.1,0-1.8-0.8-1.8-2.1c0-1.3,0.7-2.1,1.8-2.1
				c0.6,0,1.1,0.3,1.4,0.7v-2.2h0.4v5.5H208.4z M208.4,29.9v-2c-0.2-0.4-0.8-0.7-1.3-0.7c-0.9,0-1.4,0.7-1.4,1.7
				c0,1,0.5,1.7,1.4,1.7C207.7,30.6,208.2,30.2,208.4,29.9z"/>
			<path class="st1" d="M210,28.8c0-1.2,0.8-2.1,1.9-2.1c1.2,0,1.9,1,1.9,2.1V29h-3.3c0,0.9,0.6,1.6,1.6,1.6c0.5,0,1-0.2,1.3-0.6
				l0.2,0.3c-0.4,0.4-0.9,0.6-1.6,0.6C210.8,31,210,30.1,210,28.8z M211.9,27.1c-0.9,0-1.4,0.8-1.4,1.5h2.9
				C213.4,28,212.9,27.1,211.9,27.1z"/>
			<path class="st1" d="M216.8,28.8c0-1.2,0.7-2.1,1.9-2.1c1.2,0,1.9,0.9,1.9,2.1c0,1.2-0.7,2.1-1.9,2.1
				C217.6,31,216.8,30,216.8,28.8z M220.2,28.8c0-0.9-0.5-1.7-1.5-1.7c-0.9,0-1.5,0.8-1.5,1.7c0,0.9,0.5,1.7,1.5,1.7
				C219.7,30.6,220.2,29.7,220.2,28.8z"/>
			<path class="st1" d="M226.9,30.9v-0.6c-0.3,0.4-0.8,0.7-1.4,0.7c-1.1,0-1.8-0.8-1.8-2.1c0-1.3,0.7-2.1,1.8-2.1
				c0.6,0,1.1,0.3,1.4,0.7v-2.2h0.4v5.5H226.9z M226.9,29.9v-2c-0.2-0.4-0.8-0.7-1.3-0.7c-0.9,0-1.4,0.7-1.4,1.7
				c0,1,0.5,1.7,1.4,1.7C226.1,30.6,226.7,30.2,226.9,29.9z"/>
			<path class="st1" d="M231.2,30.9v-0.5c-0.4,0.4-0.8,0.6-1.4,0.6c-0.7,0-1.4-0.5-1.4-1.3c0-0.9,0.7-1.3,1.4-1.3
				c0.6,0,1,0.2,1.4,0.6v-0.8c0-0.6-0.5-0.9-1.1-0.9c-0.5,0-0.9,0.2-1.3,0.6l-0.2-0.3c0.4-0.4,0.9-0.7,1.5-0.7
				c0.8,0,1.5,0.4,1.5,1.3v2.8H231.2z M231.2,30.1v-0.9c-0.3-0.4-0.7-0.6-1.2-0.6c-0.7,0-1.1,0.4-1.1,1c0,0.6,0.4,1,1.1,1
				C230.5,30.6,230.9,30.4,231.2,30.1z"/>
			<path class="st1" d="M235.7,30.9v-2.7c0-0.8-0.4-1-1-1c-0.5,0-1,0.3-1.3,0.7v3H233v-4h0.4v0.6c0.3-0.3,0.9-0.7,1.4-0.7
				c0.8,0,1.3,0.4,1.3,1.3v2.8H235.7z M234,25.4c-0.2,0-0.4,0.2-0.4,0.8h-0.3c0-0.6,0.3-1.1,0.8-1.1c0.6,0,0.6,0.8,1,0.8
				c0.2,0,0.4-0.2,0.4-0.8h0.3c0,0.6-0.3,1.1-0.8,1.1C234.4,26.3,234.5,25.4,234,25.4z"/>
			<path class="st1" d="M240,30.9v-0.5c-0.4,0.4-0.8,0.6-1.4,0.6c-0.7,0-1.4-0.5-1.4-1.3c0-0.9,0.7-1.3,1.4-1.3c0.6,0,1,0.2,1.4,0.6
				v-0.8c0-0.6-0.5-0.9-1.1-0.9c-0.5,0-0.9,0.2-1.3,0.6l-0.2-0.3c0.4-0.4,0.9-0.7,1.5-0.7c0.8,0,1.5,0.4,1.5,1.3v2.8H240z M240,30.1
				v-0.9c-0.3-0.4-0.7-0.6-1.2-0.6c-0.7,0-1.1,0.4-1.1,1c0,0.6,0.4,1,1.1,1C239.3,30.6,239.7,30.4,240,30.1z"/>
			<path class="st1" d="M246.6,30.9v-0.6c-0.3,0.4-0.9,0.7-1.4,0.7c-0.8,0-1.3-0.4-1.3-1.3v-2.8h0.4v2.7c0,0.8,0.4,1,1,1
				c0.5,0,1-0.3,1.3-0.7v-3h0.4v4H246.6z"/>
			<path class="st1" d="M251.1,30.9v-2.7c0-0.8-0.4-1-1-1c-0.5,0-1,0.3-1.3,0.7v3h-0.4v-4h0.4v0.6c0.3-0.3,0.9-0.7,1.4-0.7
				c0.8,0,1.3,0.4,1.3,1.3v2.8H251.1z"/>
			<path class="st1" d="M255.4,30.9v-0.5c-0.4,0.4-0.8,0.6-1.4,0.6c-0.7,0-1.4-0.5-1.4-1.3c0-0.9,0.7-1.3,1.4-1.3
				c0.6,0,1,0.2,1.4,0.6v-0.8c0-0.6-0.5-0.9-1.1-0.9c-0.5,0-0.9,0.2-1.3,0.6l-0.2-0.3c0.4-0.4,0.9-0.7,1.5-0.7
				c0.8,0,1.5,0.4,1.5,1.3v2.8H255.4z M255.4,30.1v-0.9c-0.3-0.4-0.7-0.6-1.2-0.6c-0.7,0-1.1,0.4-1.1,1c0,0.6,0.4,1,1.1,1
				C254.7,30.6,255.1,30.4,255.4,30.1z"/>
			<path class="st1" d="M188.9,42.6l0.2-0.4c0.1,0.1,0.3,0.3,0.6,0.3c0.4,0,0.7-0.2,0.7-0.7v-4.5h0.4v4.5c0,0.7-0.4,1.1-1.1,1.1
				C189.4,42.9,189.2,42.8,188.9,42.6z M190.3,36.4c0-0.2,0.2-0.3,0.3-0.3c0.2,0,0.3,0.1,0.3,0.3c0,0.2-0.1,0.3-0.3,0.3
				C190.4,36.7,190.3,36.5,190.3,36.4z"/>
			<path class="st1" d="M192,39.3c0-1.2,0.8-2.1,1.9-2.1c1.2,0,1.9,1,1.9,2.1v0.1h-3.3c0,0.9,0.6,1.6,1.6,1.6c0.5,0,1-0.2,1.3-0.6
				l0.2,0.3c-0.4,0.4-0.9,0.6-1.6,0.6C192.8,41.4,192,40.6,192,39.3z M193.9,37.6c-0.9,0-1.4,0.8-1.4,1.5h2.9
				C195.3,38.4,194.9,37.6,193.9,37.6z"/>
			<path class="st1" d="M196.9,41.3v-4h0.4V38c0.3-0.4,0.8-0.8,1.4-0.8v0.5c-0.1,0-0.1,0-0.2,0c-0.4,0-1,0.4-1.1,0.7v2.9H196.9z"/>
			<path class="st1" d="M199.4,36.4c0-0.2,0.2-0.3,0.3-0.3c0.2,0,0.3,0.1,0.3,0.3c0,0.2-0.1,0.3-0.3,0.3
				C199.5,36.7,199.4,36.5,199.4,36.4z M199.5,41.3v-4h0.4v4H199.5z"/>
			<path class="st1" d="M204,41.3v-2.7c0-0.8-0.4-1-1-1c-0.5,0-1,0.3-1.3,0.7v3h-0.4v-4h0.4v0.6c0.3-0.3,0.9-0.7,1.4-0.7
				c0.8,0,1.3,0.4,1.3,1.3v2.8H204z"/>
			<path class="st1" d="M205.8,42.3L206,42c0.3,0.4,0.7,0.6,1.3,0.6c0.7,0,1.4-0.4,1.4-1.3v-0.6c-0.3,0.4-0.8,0.8-1.4,0.8
				c-1.1,0-1.8-0.8-1.8-2.1c0-1.3,0.7-2.1,1.8-2.1c0.6,0,1.1,0.3,1.4,0.7v-0.6h0.4v4c0,1.2-0.8,1.7-1.8,1.7
				C206.7,42.9,206.2,42.8,205.8,42.3z M208.7,40.3v-1.9c-0.2-0.4-0.8-0.7-1.3-0.7c-0.9,0-1.4,0.7-1.4,1.7c0,1,0.5,1.7,1.4,1.7
				C207.9,41,208.5,40.7,208.7,40.3z"/>
			<path class="st1" d="M213,41.3v-0.5c-0.4,0.4-0.8,0.6-1.4,0.6c-0.7,0-1.4-0.5-1.4-1.3c0-0.9,0.7-1.3,1.4-1.3c0.6,0,1,0.2,1.4,0.6
				v-0.8c0-0.6-0.5-0.9-1.1-0.9c-0.5,0-0.9,0.2-1.3,0.6l-0.2-0.3c0.4-0.4,0.9-0.7,1.5-0.7c0.8,0,1.5,0.4,1.5,1.3v2.8H213z M213,40.5
				v-0.9c-0.3-0.4-0.7-0.6-1.2-0.6c-0.7,0-1.1,0.4-1.1,1c0,0.6,0.4,1,1.1,1C212.3,41.1,212.7,40.9,213,40.5z"/>
			<path class="st1" d="M216.7,39.3c0-1.2,0.7-2.1,1.9-2.1c1.2,0,1.9,0.9,1.9,2.1c0,1.2-0.7,2.1-1.9,2.1
				C217.5,41.4,216.7,40.5,216.7,39.3z M220.1,39.3c0-0.9-0.5-1.7-1.5-1.7c-0.9,0-1.5,0.8-1.5,1.7c0,0.9,0.5,1.7,1.5,1.7
				C219.6,41,220.1,40.2,220.1,39.3z"/>
			<path class="st1" d="M226.5,41.3v-2.7c0-0.8-0.4-1-1-1c-0.5,0-1,0.3-1.3,0.7v3h-0.4v-4h0.4v0.6c0.3-0.3,0.9-0.7,1.4-0.7
				c0.8,0,1.3,0.4,1.3,1.3v2.8H226.5z"/>
			<path class="st1" d="M228.1,39.3c0-1.2,0.7-2.1,1.9-2.1c1.2,0,1.9,0.9,1.9,2.1c0,1.2-0.7,2.1-1.9,2.1
				C228.8,41.4,228.1,40.5,228.1,39.3z M231.4,39.3c0-0.9-0.5-1.7-1.5-1.7c-0.9,0-1.5,0.8-1.5,1.7c0,0.9,0.5,1.7,1.5,1.7
				C230.9,41,231.4,40.2,231.4,39.3z"/>
			<path class="st1" d="M235.6,40.7v2.2h-0.4v-5.5h0.4V38c0.3-0.4,0.8-0.7,1.4-0.7c1.1,0,1.8,0.8,1.8,2.1c0,1.3-0.7,2.1-1.8,2.1
				C236.4,41.4,235.9,41.1,235.6,40.7z M238.3,39.3c0-1-0.5-1.7-1.4-1.7c-0.6,0-1.1,0.3-1.3,0.7v2c0.2,0.4,0.8,0.7,1.3,0.7
				C237.8,41,238.3,40.3,238.3,39.3z"/>
			<path class="st1" d="M242.6,41.3v-0.6c-0.3,0.4-0.9,0.7-1.4,0.7c-0.8,0-1.3-0.4-1.3-1.3v-2.8h0.4V40c0,0.8,0.4,1,1,1
				c0.5,0,1-0.3,1.3-0.7v-3h0.4v4H242.6z"/>
			<path class="st1" d="M244.1,39.3c0-1.2,0.8-2.1,1.9-2.1c1.2,0,1.9,1,1.9,2.1v0.1h-3.3c0,0.9,0.6,1.6,1.6,1.6c0.5,0,1-0.2,1.3-0.6
				l0.2,0.3c-0.4,0.4-0.9,0.6-1.6,0.6C244.9,41.4,244.1,40.6,244.1,39.3z M246,37.6c-0.9,0-1.4,0.8-1.4,1.5h2.9
				C247.5,38.4,247,37.6,246,37.6z"/>
			<path class="st1" d="M252,41.3v-0.6c-0.3,0.4-0.8,0.7-1.4,0.7c-1.1,0-1.8-0.8-1.8-2.1c0-1.3,0.7-2.1,1.8-2.1
				c0.6,0,1.1,0.3,1.4,0.7v-2.2h0.4v5.5H252z M252,40.3v-2c-0.2-0.4-0.8-0.7-1.3-0.7c-0.9,0-1.4,0.7-1.4,1.7c0,1,0.5,1.7,1.4,1.7
				C251.2,41,251.8,40.7,252,40.3z"/>
			<path class="st1" d="M253.6,39.3c0-1.2,0.8-2.1,1.9-2.1c1.2,0,1.9,1,1.9,2.1v0.1H254c0,0.9,0.6,1.6,1.6,1.6c0.5,0,1-0.2,1.3-0.6
				l0.2,0.3c-0.4,0.4-0.9,0.6-1.6,0.6C254.4,41.4,253.6,40.6,253.6,39.3z M255.5,37.6c-0.9,0-1.4,0.8-1.4,1.5h2.9
				C256.9,38.4,256.5,37.6,255.5,37.6z"/>
			<path class="st1" d="M196.7,51.8v-5.5h0.4v5.5H196.7z"/>
			<path class="st1" d="M198.2,49.8c0-1.2,0.8-2.1,1.9-2.1c1.2,0,1.9,1,1.9,2.1v0.1h-3.3c0,0.9,0.6,1.6,1.6,1.6c0.5,0,1-0.2,1.3-0.6
				l0.2,0.3c-0.4,0.4-0.9,0.6-1.6,0.6C199.1,51.9,198.2,51,198.2,49.8z M200.2,48.1c-0.9,0-1.4,0.8-1.4,1.5h2.9
				C201.6,48.9,201.2,48.1,200.2,48.1z"/>
			<path class="st1" d="M202.9,49.8c0-1.2,0.8-2.1,1.9-2.1c1.2,0,1.9,1,1.9,2.1v0.1h-3.3c0,0.9,0.6,1.6,1.6,1.6c0.5,0,1-0.2,1.3-0.6
				l0.2,0.3c-0.4,0.4-0.9,0.6-1.6,0.6C203.8,51.9,202.9,51,202.9,49.8z M204.9,48.1c-0.9,0-1.4,0.8-1.4,1.5h2.9
				C206.3,48.9,205.9,48.1,204.9,48.1z"/>
			<path class="st1" d="M207.9,51.8v-4h0.4v0.7c0.3-0.4,0.8-0.8,1.4-0.8v0.5c-0.1,0-0.1,0-0.2,0c-0.4,0-1,0.4-1.1,0.7v2.9H207.9z"/>
			<path class="st1" d="M212.6,51.8v-5.5h0.4v5.5H212.6z"/>
			<path class="st1" d="M217,51.8v-0.5c-0.4,0.4-0.8,0.6-1.4,0.6c-0.7,0-1.4-0.5-1.4-1.3c0-0.9,0.7-1.3,1.4-1.3c0.6,0,1,0.2,1.4,0.6
				V49c0-0.6-0.5-0.9-1.1-0.9c-0.5,0-0.9,0.2-1.3,0.6l-0.2-0.3c0.4-0.4,0.9-0.7,1.5-0.7c0.8,0,1.5,0.4,1.5,1.3v2.8H217z M217,51
				v-0.9c-0.3-0.4-0.7-0.6-1.2-0.6c-0.7,0-1.1,0.4-1.1,1c0,0.6,0.4,1,1.1,1C216.2,51.5,216.7,51.4,217,51z"/>
			<path class="st1" d="M218.4,51.3l0.3-0.3c0.3,0.3,0.7,0.6,1.3,0.6c0.7,0,1.1-0.3,1.1-0.8c0-1.1-2.5-0.5-2.5-1.9
				c0-0.6,0.5-1.1,1.4-1.1c0.7,0,1.1,0.3,1.4,0.6l-0.2,0.3c-0.2-0.3-0.7-0.5-1.2-0.5c-0.6,0-1,0.3-1,0.7c0,1,2.5,0.4,2.5,1.9
				c0,0.6-0.5,1.2-1.5,1.2C219.3,51.9,218.8,51.7,218.4,51.3z"/>
			<path class="st1" d="M229.4,51.8V49c0-0.6-0.2-0.9-0.8-0.9c-0.4,0-0.9,0.3-1.1,0.7v3h-0.4V49c0-0.6-0.2-0.9-0.8-0.9
				c-0.4,0-0.9,0.3-1.2,0.7v3h-0.4v-4h0.4v0.6c0.2-0.3,0.7-0.7,1.3-0.7c0.6,0,1,0.4,1.1,0.8c0.2-0.4,0.8-0.8,1.3-0.8
				c0.7,0,1.1,0.4,1.1,1.2v2.9H229.4z"/>
			<path class="st1" d="M233.8,51.8v-0.5c-0.4,0.4-0.8,0.6-1.4,0.6c-0.7,0-1.4-0.5-1.4-1.3c0-0.9,0.7-1.3,1.4-1.3
				c0.6,0,1,0.2,1.4,0.6V49c0-0.6-0.5-0.9-1.1-0.9c-0.5,0-0.9,0.2-1.3,0.6l-0.2-0.3c0.4-0.4,0.9-0.7,1.5-0.7c0.8,0,1.5,0.4,1.5,1.3
				v2.8H233.8z M233.8,51v-0.9c-0.3-0.4-0.7-0.6-1.2-0.6c-0.7,0-1.1,0.4-1.1,1c0,0.6,0.4,1,1.1,1C233,51.5,233.5,51.4,233.8,51z"/>
			<path class="st1" d="M235.5,51.8v-4h0.4v0.7c0.3-0.4,0.8-0.8,1.4-0.8v0.5c-0.1,0-0.1,0-0.2,0c-0.4,0-1,0.4-1.1,0.7v2.9H235.5z"/>
			<path class="st1" d="M237.9,49.8c0-1.2,0.8-2.1,1.9-2.1c0.7,0,1.1,0.3,1.4,0.7l-0.3,0.3c-0.3-0.4-0.7-0.6-1.1-0.6
				c-0.9,0-1.5,0.7-1.5,1.7c0,1,0.6,1.7,1.5,1.7c0.4,0,0.8-0.2,1.1-0.6l0.3,0.3c-0.3,0.4-0.7,0.7-1.4,0.7
				C238.7,51.9,237.9,51,237.9,49.8z"/>
			<path class="st1" d="M244.8,51.8v-0.5c-0.4,0.4-0.8,0.6-1.4,0.6c-0.7,0-1.4-0.5-1.4-1.3c0-0.9,0.7-1.3,1.4-1.3
				c0.6,0,1,0.2,1.4,0.6V49c0-0.6-0.5-0.9-1.1-0.9c-0.5,0-0.9,0.2-1.3,0.6l-0.2-0.3c0.4-0.4,0.9-0.7,1.5-0.7c0.8,0,1.5,0.4,1.5,1.3
				v2.8H244.8z M244.8,51v-0.9c-0.3-0.4-0.7-0.6-1.2-0.6c-0.7,0-1.1,0.4-1.1,1c0,0.6,0.4,1,1.1,1C244.1,51.5,244.5,51.4,244.8,51z"
				/>
			<path class="st1" d="M246.2,51.3l0.3-0.3c0.3,0.3,0.7,0.6,1.3,0.6c0.7,0,1.1-0.3,1.1-0.8c0-1.1-2.5-0.5-2.5-1.9
				c0-0.6,0.5-1.1,1.4-1.1c0.7,0,1.1,0.3,1.4,0.6l-0.2,0.3c-0.2-0.3-0.7-0.5-1.2-0.5c-0.6,0-1,0.3-1,0.7c0,1,2.5,0.4,2.5,1.9
				c0,0.6-0.5,1.2-1.5,1.2C247.1,51.9,246.6,51.7,246.2,51.3z"/>
			<path class="st1" d="M250.4,52.8l-0.2-0.2c0.3-0.2,0.5-0.5,0.5-0.8c0,0-0.1,0-0.1,0c-0.2,0-0.3-0.1-0.3-0.3
				c0-0.2,0.2-0.4,0.4-0.4c0.2,0,0.4,0.2,0.4,0.5C251,52.1,250.7,52.6,250.4,52.8z"/>
			<path class="st1" d="M197.5,62.3v-0.6c-0.3,0.4-0.9,0.7-1.4,0.7c-0.8,0-1.3-0.4-1.3-1.3v-2.8h0.4V61c0,0.8,0.4,1,1,1
				c0.5,0,1-0.3,1.3-0.7v-3h0.4v4H197.5z"/>
			<path class="st1" d="M198.9,61.7l0.3-0.3c0.3,0.3,0.7,0.6,1.3,0.6c0.7,0,1.1-0.3,1.1-0.8c0-1.1-2.5-0.5-2.5-1.9
				c0-0.6,0.5-1.1,1.4-1.1c0.7,0,1.1,0.3,1.4,0.6l-0.2,0.3c-0.2-0.3-0.7-0.5-1.2-0.5c-0.6,0-1,0.3-1,0.7c0,1,2.5,0.4,2.5,1.9
				c0,0.6-0.5,1.2-1.5,1.2C199.8,62.4,199.3,62.2,198.9,61.7z"/>
			<path class="st1" d="M202.8,60.3c0-1.2,0.8-2.1,1.9-2.1c1.2,0,1.9,1,1.9,2.1v0.1h-3.3c0,0.9,0.6,1.6,1.6,1.6c0.5,0,1-0.2,1.3-0.6
				l0.2,0.3c-0.4,0.4-0.9,0.6-1.6,0.6C203.7,62.4,202.8,61.5,202.8,60.3z M204.7,58.5c-0.9,0-1.4,0.8-1.4,1.5h2.9
				C206.2,59.4,205.7,58.5,204.7,58.5z"/>
			<path class="st1" d="M209.9,62.3v-5.5h0.4v5.5H209.9z"/>
			<path class="st1" d="M214.2,62.3v-0.5c-0.4,0.4-0.8,0.6-1.4,0.6c-0.7,0-1.4-0.5-1.4-1.3c0-0.9,0.7-1.3,1.4-1.3
				c0.6,0,1,0.2,1.4,0.6v-0.8c0-0.6-0.5-0.9-1.1-0.9c-0.5,0-0.9,0.2-1.3,0.6l-0.2-0.3c0.4-0.4,0.9-0.7,1.5-0.7
				c0.8,0,1.5,0.4,1.5,1.3v2.8H214.2z M214.2,61.5v-0.9c-0.3-0.4-0.7-0.6-1.2-0.6c-0.7,0-1.1,0.4-1.1,1c0,0.6,0.4,1,1.1,1
				C213.5,62,213.9,61.8,214.2,61.5z"/>
			<path class="st1" d="M216.7,63.6l0.2-0.4c0.1,0.1,0.3,0.3,0.6,0.3c0.4,0,0.7-0.2,0.7-0.7v-4.5h0.4v4.5c0,0.7-0.4,1.1-1.1,1.1
				C217.1,63.9,216.9,63.8,216.7,63.6z M218,57.3c0-0.2,0.2-0.3,0.3-0.3c0.2,0,0.3,0.1,0.3,0.3c0,0.2-0.1,0.3-0.3,0.3
				C218.2,57.6,218,57.5,218,57.3z"/>
			<path class="st1" d="M219.7,60.3c0-1.2,0.8-2.1,1.9-2.1c1.2,0,1.9,1,1.9,2.1v0.1h-3.3c0,0.9,0.6,1.6,1.6,1.6c0.5,0,1-0.2,1.3-0.6
				l0.2,0.3c-0.4,0.4-0.9,0.6-1.6,0.6C220.5,62.4,219.7,61.5,219.7,60.3z M221.6,58.5c-0.9,0-1.4,0.8-1.4,1.5h2.9
				C223,59.4,222.6,58.5,221.6,58.5z"/>
			<path class="st1" d="M224.6,62.3v-4h0.4v0.7c0.3-0.4,0.8-0.8,1.4-0.8v0.5c-0.1,0-0.1,0-0.2,0c-0.4,0-1,0.4-1.1,0.7v2.9H224.6z"/>
			<path class="st1" d="M227.1,57.3c0-0.2,0.2-0.3,0.3-0.3c0.2,0,0.3,0.1,0.3,0.3c0,0.2-0.1,0.3-0.3,0.3
				C227.3,57.6,227.1,57.5,227.1,57.3z M227.2,62.3v-4h0.4v4H227.2z"/>
			<path class="st1" d="M231.7,62.3v-2.7c0-0.8-0.4-1-1-1c-0.5,0-1,0.3-1.3,0.7v3H229v-4h0.4v0.6c0.3-0.3,0.9-0.7,1.4-0.7
				c0.8,0,1.3,0.4,1.3,1.3v2.8H231.7z"/>
			<path class="st1" d="M233.5,63.3l0.2-0.3c0.3,0.4,0.7,0.6,1.3,0.6c0.7,0,1.4-0.4,1.4-1.3v-0.6c-0.3,0.4-0.8,0.8-1.4,0.8
				c-1.1,0-1.8-0.8-1.8-2.1c0-1.3,0.7-2.1,1.8-2.1c0.6,0,1.1,0.3,1.4,0.7v-0.6h0.4v4c0,1.2-0.8,1.7-1.8,1.7
				C234.4,63.9,234,63.8,233.5,63.3z M236.4,61.2v-1.9c-0.2-0.4-0.8-0.7-1.3-0.7c-0.9,0-1.4,0.7-1.4,1.7c0,1,0.5,1.7,1.4,1.7
				C235.7,62,236.2,61.6,236.4,61.2z"/>
			<path class="st1" d="M240.8,62.3v-0.5c-0.4,0.4-0.8,0.6-1.4,0.6c-0.7,0-1.4-0.5-1.4-1.3c0-0.9,0.7-1.3,1.4-1.3
				c0.6,0,1,0.2,1.4,0.6v-0.8c0-0.6-0.5-0.9-1.1-0.9c-0.5,0-0.9,0.2-1.3,0.6l-0.2-0.3c0.4-0.4,0.9-0.7,1.5-0.7
				c0.8,0,1.5,0.4,1.5,1.3v2.8H240.8z M240.8,61.5v-0.9c-0.3-0.4-0.7-0.6-1.2-0.6c-0.7,0-1.1,0.4-1.1,1c0,0.6,0.4,1,1.1,1
				C240,62,240.5,61.8,240.8,61.5z"/>
			<path class="st1" d="M247.6,62.3v-0.6c-0.3,0.4-0.8,0.7-1.4,0.7c-1.1,0-1.8-0.8-1.8-2.1c0-1.3,0.7-2.1,1.8-2.1
				c0.6,0,1.1,0.3,1.4,0.7v-2.2h0.4v5.5H247.6z M247.6,61.3v-2c-0.2-0.4-0.8-0.7-1.3-0.7c-0.9,0-1.4,0.7-1.4,1.7
				c0,1,0.5,1.7,1.4,1.7C246.9,62,247.4,61.6,247.6,61.3z"/>
			<path class="st1" d="M249.2,60.3c0-1.2,0.8-2.1,1.9-2.1c1.2,0,1.9,1,1.9,2.1v0.1h-3.3c0,0.9,0.6,1.6,1.6,1.6c0.5,0,1-0.2,1.3-0.6
				l0.2,0.3c-0.4,0.4-0.9,0.6-1.6,0.6C250,62.4,249.2,61.5,249.2,60.3z M251.1,58.5c-0.9,0-1.4,0.8-1.4,1.5h2.9
				C252.5,59.4,252.1,58.5,251.1,58.5z"/>
			<path class="st1" d="M205.4,72.7v-4h0.4v0.7c0.3-0.4,0.8-0.8,1.4-0.8v0.5c-0.1,0-0.1,0-0.2,0c-0.4,0-1,0.4-1.1,0.7v2.9H205.4z"/>
			<path class="st1" d="M207.8,70.7c0-1.2,0.8-2.1,1.9-2.1c1.2,0,1.9,1,1.9,2.1v0.1h-3.3c0,0.9,0.6,1.6,1.6,1.6c0.5,0,1-0.2,1.3-0.6
				l0.2,0.3c-0.4,0.4-0.9,0.6-1.6,0.6C208.6,72.8,207.8,72,207.8,70.7z M209.7,69c-0.9,0-1.4,0.8-1.4,1.5h2.9
				C211.1,69.8,210.7,69,209.7,69z"/>
			<path class="st1" d="M213.1,72.1v2.2h-0.4v-5.5h0.4v0.6c0.3-0.4,0.8-0.7,1.4-0.7c1.1,0,1.8,0.8,1.8,2.1c0,1.3-0.7,2.1-1.8,2.1
				C214,72.8,213.5,72.5,213.1,72.1z M215.9,70.7c0-1-0.5-1.7-1.4-1.7c-0.6,0-1.1,0.3-1.3,0.7v2c0.2,0.4,0.8,0.7,1.3,0.7
				C215.3,72.4,215.9,71.7,215.9,70.7z"/>
			<path class="st1" d="M220.1,72.7v-0.6c-0.3,0.4-0.9,0.7-1.4,0.7c-0.8,0-1.3-0.4-1.3-1.3v-2.8h0.4v2.7c0,0.8,0.4,1,1,1
				c0.5,0,1-0.3,1.3-0.7v-3h0.4v4H220.1z"/>
			<path class="st1" d="M221.7,70.7c0-1.2,0.8-2.1,1.9-2.1c1.2,0,1.9,1,1.9,2.1v0.1h-3.3c0,0.9,0.6,1.6,1.6,1.6c0.5,0,1-0.2,1.3-0.6
				l0.2,0.3c-0.4,0.4-0.9,0.6-1.6,0.6C222.5,72.8,221.7,72,221.7,70.7z M223.6,69c-0.9,0-1.4,0.8-1.4,1.5h2.9
				C225,69.8,224.6,69,223.6,69z"/>
			<path class="st1" d="M226.2,72.2l0.3-0.3c0.3,0.3,0.7,0.6,1.3,0.6c0.7,0,1.1-0.3,1.1-0.8c0-1.1-2.5-0.5-2.5-1.9
				c0-0.6,0.5-1.1,1.4-1.1c0.7,0,1.1,0.3,1.4,0.6l-0.2,0.3c-0.2-0.3-0.7-0.5-1.2-0.5c-0.6,0-1,0.3-1,0.7c0,1,2.5,0.4,2.5,1.9
				c0,0.6-0.5,1.2-1.5,1.2C227.1,72.8,226.6,72.6,226.2,72.2z"/>
			<path class="st1" d="M230.5,72v-2.9h-0.7v-0.4h0.7v-1.1h0.4v1.1h0.8v0.4h-0.8v2.8c0,0.3,0.1,0.5,0.4,0.5c0.2,0,0.4-0.1,0.4-0.2
				l0.2,0.3c-0.2,0.1-0.3,0.2-0.7,0.2C230.7,72.8,230.5,72.5,230.5,72z"/>
			<path class="st1" d="M232.4,70.7c0-1.2,0.7-2.1,1.9-2.1c1.2,0,1.9,0.9,1.9,2.1c0,1.2-0.7,2.1-1.9,2.1
				C233.2,72.8,232.4,71.9,232.4,70.7z M235.8,70.7c0-0.9-0.5-1.7-1.5-1.7c-0.9,0-1.5,0.8-1.5,1.7c0,0.9,0.5,1.7,1.5,1.7
				C235.3,72.4,235.8,71.6,235.8,70.7z"/>
			<path class="st1" d="M237.3,72.4c0-0.2,0.2-0.4,0.4-0.4c0.2,0,0.4,0.2,0.4,0.4c0,0.2-0.2,0.4-0.4,0.4
				C237.4,72.8,237.3,72.6,237.3,72.4z"/>
		</g>
	</g>
</g>
</svg>
