<?xml version="1.0" encoding="utf-8"?>
<!-- Generator: Adobe Illustrator 24.0.0, SVG Export Plug-In . SVG Version: 6.00 Build 0)  -->
<svg version="1.1" id="Layer_1" xmlns="http://www.w3.org/2000/svg" xmlns:xlink="http://www.w3.org/1999/xlink" x="0px" y="0px"
	 viewBox="0 0 850.4 411.6" style="enable-background:new 0 0 850.4 411.6;" xml:space="preserve">
<style type="text/css">
	.st0{fill:url(#SVGID_1_);}
	.st1{fill:#414142;}
	.st2{fill:#29A884;}
	.st3{fill:#221E1F;}
	.st4{fill:#67338D;}
	.st5{fill:#FFFFFF;}
</style>
<linearGradient id="SVGID_1_" gradientUnits="userSpaceOnUse" x1="4.2041" y1="203.5" x2="846.015" y2="203.5">
	<stop  offset="0" style="stop-color:#DDD6E9"/>
	<stop  offset="1" style="stop-color:#DFEBE5"/>
</linearGradient>
<path class="st0" d="M816.4,407H33.8c-16.4,0-29.6-13.3-29.6-29.6V29.6C4.2,13.3,17.5,0,33.8,0h782.5C832.7,0,846,13.3,846,29.6
	v347.7C846,393.7,832.7,407,816.4,407z"/>
<path class="st1" d="M87.9,41.3V29h4.8c3.8,0,6.5,2.4,6.5,6.1c0,3.7-2.7,6.1-6.5,6.1H87.9 M96.6,35.2c0-2.1-1.3-3.8-3.8-3.8h-2.2V39
	h2.2C95.2,39,96.6,37.2,96.6,35.2z"/>
<path class="st1" d="M100.5,35.2c0-3.7,2.7-6.3,6.4-6.3c3.7,0,6.4,2.6,6.4,6.3c0,3.7-2.7,6.3-6.4,6.3
	C103.2,41.5,100.5,38.9,100.5,35.2 M110.7,35.2c0-2.3-1.4-4-3.7-4c-2.3,0-3.7,1.7-3.7,4c0,2.3,1.5,4,3.7,4
	C109.2,39.2,110.7,37.4,110.7,35.2z"/>
<path class="st1" d="M114.4,39.6l1.4-2c0.9,0.9,2.2,1.7,3.9,1.7c1.5,0,2.1-0.6,2.1-1.4c0-2.1-7.1-0.6-7.1-5.3c0-2,1.8-3.7,4.6-3.7
	c1.9,0,3.6,0.6,4.8,1.7l-1.4,1.9c-1-0.9-2.3-1.3-3.6-1.3c-1.1,0-1.7,0.5-1.7,1.2c0,1.9,7,0.6,7,5.2c0,2.2-1.6,3.9-4.9,3.9
	C117.2,41.5,115.5,40.7,114.4,39.6"/>
<rect x="126.2" y="29" class="st1" width="2.6" height="12.3"/>
<path class="st1" d="M130.4,39.6l1.4-2c0.9,0.9,2.2,1.7,3.9,1.7c1.5,0,2.1-0.6,2.1-1.4c0-2.1-7.1-0.6-7.1-5.3c0-2,1.8-3.7,4.6-3.7
	c1.9,0,3.6,0.6,4.8,1.7l-1.4,1.9c-1-0.9-2.3-1.3-3.6-1.3c-1.1,0-1.7,0.5-1.7,1.2c0,1.9,7,0.6,7,5.2c0,2.2-1.6,3.9-4.9,3.9
	C133.3,41.5,131.6,40.7,130.4,39.6"/>
<path class="st1" d="M147,41.3V29h4.8c3.8,0,6.5,2.4,6.5,6.1c0,3.7-2.7,6.1-6.5,6.1H147 M155.7,35.2c0-2.1-1.3-3.8-3.8-3.8h-2.2V39
	h2.2C154.3,39,155.7,37.2,155.7,35.2z"/>
<polyline class="st1" points="160.2,41.3 160.2,29 168.9,29 168.9,31.3 162.8,31.3 162.8,33.9 168.8,33.9 168.8,36.2 162.8,36.2 
	162.8,39 168.9,39 168.9,41.3 160.2,41.3 "/>
<rect x="175.7" y="29" class="st1" width="2.6" height="12.3"/>
<polyline class="st1" points="189.2,41.3 183.3,33.3 183.3,41.3 180.7,41.3 180.7,29 183.4,29 189.1,36.7 189.1,29 191.7,29 
	191.7,41.3 189.2,41.3 "/>
<rect x="194.1" y="29" class="st1" width="2.6" height="12.3"/>
<path class="st1" d="M198.6,35.2c0-3.8,2.8-6.3,6.5-6.3c2.7,0,4.2,1.5,5.1,3l-2.2,1.1c-0.5-1-1.6-1.8-2.9-1.8c-2.2,0-3.9,1.7-3.9,4
	c0,2.3,1.6,4,3.9,4c1.2,0,2.4-0.8,2.9-1.8l2.2,1.1c-0.9,1.5-2.4,3-5.1,3C201.4,41.5,198.6,38.9,198.6,35.2"/>
<rect x="211.8" y="29" class="st1" width="2.6" height="12.3"/>
<path class="st1" d="M216.2,35.2c0-3.7,2.7-6.3,6.4-6.3c3.7,0,6.4,2.6,6.4,6.3c0,3.7-2.7,6.3-6.4,6.3
	C218.9,41.5,216.2,38.9,216.2,35.2 M226.3,35.2c0-2.3-1.5-4-3.7-4c-2.3,0-3.7,1.7-3.7,4c0,2.3,1.4,4,3.7,4
	C224.9,39.2,226.3,37.4,226.3,35.2z"/>
<path class="st1" d="M322.6,41.3V29h4.8c3.8,0,6.5,2.4,6.5,6.1c0,3.7-2.7,6.1-6.5,6.1H322.6 M331.3,35.2c0-2.1-1.3-3.8-3.8-3.8h-2.2
	V39h2.2C329.9,39,331.3,37.2,331.3,35.2z"/>
<path class="st1" d="M335.3,35.2c0-3.7,2.7-6.3,6.4-6.3c3.7,0,6.4,2.6,6.4,6.3c0,3.7-2.7,6.3-6.4,6.3
	C338,41.5,335.3,38.9,335.3,35.2 M345.4,35.2c0-2.3-1.5-4-3.7-4c-2.3,0-3.7,1.7-3.7,4c0,2.3,1.5,4,3.7,4
	C343.9,39.2,345.4,37.4,345.4,35.2z"/>
<path class="st1" d="M349.1,39.6l1.4-2c0.9,0.9,2.2,1.7,3.9,1.7c1.5,0,2.1-0.6,2.1-1.4c0-2.1-7.1-0.6-7.1-5.3c0-2,1.8-3.7,4.7-3.7
	c1.9,0,3.6,0.6,4.8,1.7l-1.4,1.9c-1-0.9-2.3-1.3-3.6-1.3c-1.1,0-1.7,0.5-1.7,1.2c0,1.9,7,0.6,7,5.2c0,2.2-1.6,3.9-4.9,3.9
	C351.9,41.5,350.2,40.7,349.1,39.6"/>
<rect x="360.9" y="29" class="st1" width="2.6" height="12.3"/>
<path class="st1" d="M365.1,39.6l1.4-2c0.9,0.9,2.2,1.7,3.9,1.7c1.5,0,2.1-0.6,2.1-1.4c0-2.1-7.1-0.6-7.1-5.3c0-2,1.8-3.7,4.6-3.7
	c1.9,0,3.6,0.6,4.8,1.7l-1.5,1.9c-1-0.9-2.3-1.3-3.6-1.3c-1.1,0-1.7,0.5-1.7,1.2c0,1.9,7,0.6,7,5.2c0,2.2-1.6,3.9-4.9,3.9
	C368,41.5,366.3,40.7,365.1,39.6"/>
<polyline class="st1" points="392.4,41.3 392.4,32.5 388.9,41.3 387.8,41.3 384.3,32.5 384.3,41.3 381.7,41.3 381.7,29 385.4,29 
	388.4,36.7 391.3,29 395,29 395,41.3 392.4,41.3 "/>
<path class="st1" d="M405.9,41.3l-0.8-2.1h-5.3l-0.8,2.1h-3l4.7-12.3h3.3l4.7,12.3H405.9 M402.5,31.6l-1.9,5.3h3.8L402.5,31.6z"/>
<polyline class="st1" points="418.5,41.3 412.6,33.3 412.6,41.3 410,41.3 410,29 412.7,29 418.4,36.7 418.4,29 421,29 421,41.3 
	418.5,41.3 "/>
<polyline class="st1" points="426.3,41.3 426.3,31.3 422.7,31.3 422.7,29 432.5,29 432.5,31.3 428.9,31.3 428.9,41.3 426.3,41.3 "/>
<polyline class="st1" points="434.1,41.3 434.1,29 442.8,29 442.8,31.3 436.7,31.3 436.7,33.9 442.7,33.9 442.7,36.2 436.7,36.2 
	436.7,39 442.8,39 442.8,41.3 434.1,41.3 "/>
<polyline class="st1" points="453.3,41.3 447.5,33.3 447.5,41.3 444.9,41.3 444.9,29 447.5,29 453.2,36.7 453.2,29 455.8,29 
	455.8,41.3 453.3,41.3 "/>
<rect x="458.3" y="29" class="st1" width="2.6" height="12.3"/>
<polyline class="st1" points="473.9,41.3 473.9,32.5 470.5,41.3 469.4,41.3 465.9,32.5 465.9,41.3 463.3,41.3 463.3,29 466.9,29 
	469.9,36.7 472.9,29 476.6,29 476.6,41.3 473.9,41.3 "/>
<rect x="479" y="29" class="st1" width="2.6" height="12.3"/>
<polyline class="st1" points="484,41.3 484,29 492.7,29 492.7,31.3 486.7,31.3 486.7,33.9 492.6,33.9 492.6,36.2 486.7,36.2 
	486.7,39 492.7,39 492.7,41.3 484,41.3 "/>
<polyline class="st1" points="503.2,41.3 497.4,33.3 497.4,41.3 494.8,41.3 494.8,29 497.4,29 503.1,36.7 503.1,29 505.7,29 
	505.7,41.3 503.2,41.3 "/>
<polyline class="st1" points="511,41.3 511,31.3 507.4,31.3 507.4,29 517.2,29 517.2,31.3 513.6,31.3 513.6,41.3 511,41.3 "/>
<path class="st1" d="M518.3,35.2c0-3.7,2.7-6.3,6.4-6.3c3.7,0,6.4,2.6,6.4,6.3c0,3.7-2.7,6.3-6.4,6.3
	C521,41.5,518.3,38.9,518.3,35.2 M528.4,35.2c0-2.3-1.5-4-3.7-4c-2.3,0-3.7,1.7-3.7,4c0,2.3,1.5,4,3.7,4
	C527,39.2,528.4,37.4,528.4,35.2z"/>
<path class="st1" d="M629.7,41.3V29h4.8c3.8,0,6.5,2.4,6.5,6.1c0,3.7-2.7,6.1-6.5,6.1H629.7 M638.3,35.2c0-2.1-1.3-3.8-3.8-3.8h-2.2
	V39h2.2C636.9,39,638.3,37.2,638.3,35.2z"/>
<path class="st1" d="M642.3,35.2c0-3.7,2.7-6.3,6.4-6.3c3.7,0,6.4,2.6,6.4,6.3c0,3.7-2.7,6.3-6.4,6.3
	C645,41.5,642.3,38.9,642.3,35.2 M652.4,35.2c0-2.3-1.5-4-3.7-4c-2.3,0-3.7,1.7-3.7,4c0,2.3,1.5,4,3.7,4
	C650.9,39.2,652.4,37.4,652.4,35.2z"/>
<path class="st1" d="M656.1,39.6l1.4-2c0.9,0.9,2.2,1.7,3.9,1.7c1.5,0,2.1-0.6,2.1-1.4c0-2.1-7.1-0.6-7.1-5.3c0-2,1.8-3.7,4.7-3.7
	c1.9,0,3.6,0.6,4.8,1.7l-1.4,1.9c-1-0.9-2.3-1.3-3.6-1.3c-1.1,0-1.7,0.5-1.7,1.2c0,1.9,7,0.6,7,5.2c0,2.2-1.6,3.9-4.9,3.9
	C658.9,41.5,657.2,40.7,656.1,39.6"/>
<rect x="668" y="29" class="st1" width="2.6" height="12.3"/>
<path class="st1" d="M672.1,39.6l1.4-2c0.9,0.9,2.2,1.7,3.9,1.7c1.5,0,2.1-0.6,2.1-1.4c0-2.1-7.1-0.6-7.1-5.3c0-2,1.8-3.7,4.6-3.7
	c1.9,0,3.6,0.6,4.8,1.7l-1.5,1.9c-1-0.9-2.3-1.3-3.6-1.3c-1.1,0-1.7,0.5-1.7,1.2c0,1.9,7,0.6,7,5.2c0,2.2-1.6,3.9-4.9,3.9
	C675,41.5,673.3,40.7,672.1,39.6"/>
<polyline class="st1" points="699.4,41.3 699.4,32.5 695.9,41.3 694.8,41.3 691.4,32.5 691.4,41.3 688.7,41.3 688.7,29 692.4,29 
	695.4,36.7 698.4,29 702,29 702,41.3 699.4,41.3 "/>
<path class="st1" d="M712.9,41.3l-0.8-2.1h-5.3l-0.8,2.1h-3l4.7-12.3h3.3l4.7,12.3H712.9 M709.5,31.6l-1.9,5.3h3.8L709.5,31.6z
	 M709.7,27.9H708l2.5-2.6h2.2L709.7,27.9z"/>
<polyline class="st1" points="725,41.3 722,36.8 718.9,41.3 715.8,41.3 720.2,35 716,29 719.2,29 722,33.2 724.7,29 727.9,29 
	723.7,35 728.2,41.3 725,41.3 "/>
<rect x="729.3" y="29" class="st1" width="2.6" height="12.3"/>
<polyline class="st1" points="745,41.3 745,32.5 741.6,41.3 740.4,41.3 737,32.5 737,41.3 734.4,41.3 734.4,29 738,29 741,36.7 
	744,29 747.6,29 747.6,41.3 745,41.3 "/>
<path class="st1" d="M758.5,41.3l-0.8-2.1h-5.3l-0.8,2.1h-3l4.7-12.3h3.3l4.7,12.3H758.5 M755.1,31.6l-1.9,5.3h3.8L755.1,31.6z"/>
<rect x="85.6" y="58.3" class="st2" width="692.4" height="1.4"/>
<path class="st2" d="M157.3,58.9c0,2.7-2.2,5-5,5c-2.7,0-5-2.2-5-5c0-2.7,2.2-5,5-5C155,54,157.3,56.2,157.3,58.9"/>
<path class="st2" d="M424.9,58.9c0,2.7-2.2,5-5,5c-2.7,0-5-2.2-5-5c0-2.7,2.2-5,5-5C422.7,54,424.9,56.2,424.9,58.9"/>
<path class="st2" d="M698.7,58.9c0,2.7-2.2,5-5,5c-2.7,0-5-2.2-5-5c0-2.7,2.2-5,5-5C696.4,54,698.7,56.2,698.7,58.9"/>
<polyline class="st3" points="255.8,89.3 255.8,81.1 254.2,82.8 253.5,82 255.9,79.5 257,79.5 257,89.3 255.8,89.3 "/>
<path class="st3" d="M262.5,87.9l0.7-0.9c0.6,0.7,1.7,1.4,3.1,1.4c1.7,0,2.3-0.9,2.3-1.7c0-2.5-5.8-1.1-5.8-4.6
	c0-1.6,1.4-2.7,3.4-2.7c1.5,0,2.6,0.5,3.5,1.4l-0.7,0.9c-0.7-0.8-1.8-1.2-2.8-1.2c-1.2,0-2,0.6-2,1.6c0,2.2,5.8,0.9,5.8,4.6
	c0,1.4-1,2.9-3.6,2.9C264.6,89.5,263.3,88.8,262.5,87.9"/>
<polyline class="st3" points="271.7,89.3 271.7,79.5 278.1,79.5 278.1,80.6 272.9,80.6 272.9,83.8 278,83.8 278,84.9 272.9,84.9 
	272.9,88.2 278.1,88.2 278.1,89.3 271.7,89.3 "/>
<polyline class="st3" points="288.5,89.3 288.5,81.1 285.2,89.3 284.7,89.3 281.3,81.1 281.3,89.3 280.1,89.3 280.1,79.5 
	281.8,79.5 284.9,87.1 287.9,79.5 289.7,79.5 289.7,89.3 288.5,89.3 "/>
<path class="st3" d="M299,89.3l-0.9-2.2h-4.9l-0.9,2.2H291l4-9.8h1.5l3.9,9.8H299 M295.7,80.8l-2.1,5.3h4.2L295.7,80.8z"/>
<polyline class="st3" points="308.6,89.3 302.9,81.5 302.9,89.3 301.7,89.3 301.7,79.5 302.9,79.5 308.6,87.2 308.6,79.5 
	309.8,79.5 309.8,89.3 308.6,89.3 "/>
<path class="st3" d="M319.1,89.3l-0.9-2.2h-4.9l-0.9,2.2h-1.4l4-9.8h1.5l3.9,9.8H319.1 M315.8,80.8l-2.1,5.3h4.2L315.8,80.8z"/>
<rect x="286.2" y="97.2" class="st2" width="1.4" height="117.1"/>
<polyline class="st2" points="293.7,213.5 286.9,222.8 280.1,213.5 293.7,213.5 "/>
<polyline class="st2" points="280.1,182.2 286.9,172.8 293.7,182.2 280.1,182.2 "/>
<rect x="551.7" y="82.4" class="st2" width="1.4" height="131.8"/>
<polyline class="st2" points="559.1,213.5 552.4,222.8 545.6,213.5 559.1,213.5 "/>
<path class="st2" d="M73.4,144.9l1.8-3.2l1.8-3.2c0.2-0.3,0-0.8-0.4-0.8h-2.3c0.6-5.2,5.1-9.3,10.5-9.3c0.2,0,0.4-0.2,0.4-0.4v-1.8
	c0-0.2-0.2-0.4-0.4-0.4c-6.8,0-12.4,5.2-13,11.8h-2.5c-0.4,0-0.6,0.4-0.4,0.8l1.8,3.2l1.8,3.2C72.7,145.3,73.2,145.3,73.4,144.9"/>
<path class="st2" d="M327.7,144.9l1.8-3.2l1.8-3.2c0.2-0.3,0-0.8-0.4-0.8h-2.3c0.6-5.2,5.1-9.3,10.5-9.3c0.2,0,0.4-0.2,0.4-0.4v-1.8
	c0-0.2-0.2-0.4-0.4-0.4c-6.8,0-12.4,5.2-13,11.8h-2.5c-0.4,0-0.6,0.4-0.4,0.8l1.8,3.2l1.8,3.2C327,145.3,327.5,145.3,327.7,144.9"/>
<path class="st2" d="M605.5,144.9l1.8-3.2l1.8-3.2c0.2-0.3-0.1-0.8-0.4-0.8h-2.3c0.6-5.2,5.1-9.3,10.5-9.3c0.2,0,0.4-0.2,0.4-0.4
	v-1.8c0-0.2-0.2-0.4-0.4-0.4c-6.8,0-12.4,5.2-13,11.8h-2.5c-0.4,0-0.6,0.4-0.4,0.8l1.8,3.2l1.8,3.2
	C604.8,145.3,605.3,145.3,605.5,144.9"/>
<path class="st1" d="M355.8,150l-2.5-3.7h-1.9v3.7h-0.8v-8.8h3.3c1.5,0,2.7,1,2.7,2.6c0,1.6-1.1,2.5-2.5,2.5l2.6,3.7H355.8
	 M355.8,143.7c0-1.1-0.8-1.9-2-1.9h-2.5v3.8h2.5C355.1,145.6,355.8,144.8,355.8,143.7z"/>
<path class="st1" d="M358.1,146.7c0-1.9,1.3-3.4,3.1-3.4c1.9,0,3,1.5,3,3.4v0.2h-5.4c0.1,1.4,1,2.5,2.5,2.5c0.8,0,1.6-0.3,2.1-0.9
	l0.4,0.4c-0.6,0.7-1.4,1-2.5,1C359.4,150.1,358.1,148.7,358.1,146.7 M361.2,144c-1.5,0-2.3,1.3-2.3,2.4h4.7
	C363.5,145.3,362.8,144,361.2,144z"/>
<path class="st1" d="M366.7,148.9v3.5H366v-8.8h0.7v1c0.4-0.6,1.3-1.2,2.2-1.2c1.7,0,2.9,1.3,2.9,3.4c0,2-1.2,3.4-2.9,3.4
	C368,150.1,367.2,149.6,366.7,148.9 M371,146.7c0-1.6-0.8-2.7-2.2-2.7c-0.9,0-1.7,0.5-2.1,1.1v3.2c0.4,0.6,1.2,1.2,2.1,1.2
	C370.2,149.5,371,148.3,371,146.7z"/>
<path class="st1" d="M377.6,150v-0.8c-0.6,0.6-1.3,0.9-2.2,0.9c-1.1,0-2.2-0.8-2.2-2.1c0-1.4,1.1-2.1,2.2-2.1c0.9,0,1.6,0.3,2.2,0.9
	v-1.3c0-1-0.8-1.5-1.7-1.5c-0.8,0-1.4,0.3-2,0.9l-0.4-0.5c0.7-0.7,1.4-1.1,2.5-1.1c1.3,0,2.3,0.6,2.3,2.1v4.5H377.6 M377.6,148.7
	v-1.4c-0.5-0.6-1.2-0.9-1.9-0.9c-1.1,0-1.7,0.7-1.7,1.6c0,0.9,0.7,1.6,1.7,1.6C376.4,149.6,377.1,149.3,377.6,148.7z"/>
<path class="st1" d="M380.4,150v-6.4h0.7v1.1c0.5-0.7,1.3-1.2,2.2-1.2v0.8l-0.3,0c-0.7,0-1.5,0.6-1.8,1.1v4.7H380.4"/>
<path class="st1" d="M384.7,148.7v-4.6h-1.1v-0.6h1.1v-1.7h0.7v1.7h1.3v0.6h-1.3v4.5c0,0.5,0.2,0.9,0.7,0.9c0.3,0,0.6-0.1,0.7-0.3
	l0.3,0.5c-0.3,0.2-0.6,0.4-1.1,0.4C385.1,150.1,384.7,149.6,384.7,148.7"/>
<path class="st1" d="M388,142c0-0.3,0.3-0.5,0.5-0.5c0.3,0,0.5,0.2,0.5,0.5c0,0.3-0.2,0.5-0.5,0.5C388.3,142.5,388,142.3,388,142
	 M388.9,150h-0.7v-6.4h0.7V150z"/>
<path class="st1" d="M395.8,150v-1c-0.4,0.7-1.3,1.2-2.2,1.2c-1.7,0-2.8-1.3-2.8-3.4c0-2,1.2-3.4,2.8-3.4c0.9,0,1.7,0.5,2.2,1.2
	v-3.5h0.7v8.8H395.8 M395.8,148.3v-3.2c-0.4-0.6-1.2-1.2-2.1-1.2c-1.4,0-2.2,1.2-2.2,2.7c0,1.6,0.8,2.7,2.2,2.7
	C394.6,149.5,395.4,149,395.8,148.3z"/>
<path class="st1" d="M398.3,146.7c0-1.9,1.2-3.4,3.1-3.4c1.9,0,3.1,1.5,3.1,3.4c0,1.9-1.2,3.4-3.1,3.4
	C399.4,150.1,398.3,148.6,398.3,146.7 M403.7,146.7c0-1.4-0.8-2.7-2.3-2.7c-1.5,0-2.3,1.3-2.3,2.7c0,1.4,0.8,2.7,2.3,2.7
	C402.8,149.5,403.7,148.2,403.7,146.7z"/>
<path class="st1" d="M409.2,146.7c0-1.9,1.3-3.4,3.1-3.4c1.9,0,3,1.5,3,3.4v0.2H410c0.1,1.4,1,2.5,2.5,2.5c0.8,0,1.6-0.3,2.1-0.9
	l0.4,0.4c-0.6,0.7-1.4,1-2.5,1C410.6,150.1,409.2,148.7,409.2,146.7 M412.3,144c-1.5,0-2.3,1.3-2.3,2.4h4.6
	C414.6,145.3,413.9,144,412.3,144z"/>
<path class="st1" d="M421.4,150v-4.3c0-1.2-0.6-1.6-1.6-1.6c-0.8,0-1.7,0.5-2.1,1.1v4.8h-0.7v-6.4h0.7v1c0.5-0.6,1.4-1.1,2.3-1.1
	c1.3,0,2,0.6,2,2.1v4.5H421.4"/>
<path class="st4" d="M427.2,150v-1.5c3.6-2.7,4.7-3.6,4.7-4.7c0-0.8-0.7-1.2-1.4-1.2c-1,0-1.8,0.4-2.4,1l-1.1-1.2
	c0.9-1,2.2-1.4,3.4-1.4c1.9,0,3.4,1.1,3.4,2.8c0,1.5-1.2,2.8-3.5,4.5h3.6v1.7H427.2"/>
<path class="st4" d="M439.1,148.3V145h-1.1v-1.5h1.1v-1.8h1.7v1.8h1.3v1.5h-1.3v2.9c0,0.4,0.2,0.7,0.6,0.7c0.3,0,0.5-0.1,0.6-0.2
	l0.4,1.3c-0.3,0.2-0.7,0.4-1.4,0.4C439.8,150.1,439.1,149.5,439.1,148.3"/>
<path class="st4" d="M442.8,146.7c0-1.8,1.3-3.4,3.4-3.4c2.1,0,3.4,1.5,3.4,3.4c0,1.8-1.3,3.4-3.4,3.4
	C444.1,150.1,442.8,148.6,442.8,146.7 M447.9,146.7c0-1-0.6-1.9-1.6-1.9c-1,0-1.6,0.9-1.6,1.9c0,1,0.6,1.9,1.6,1.9
	C447.3,148.6,447.9,147.8,447.9,146.7z"/>
<path class="st4" d="M458.8,150v-4c0-0.6-0.3-1-1-1c-0.6,0-1.1,0.4-1.3,0.7v4.3h-1.7v-4c0-0.6-0.3-1-1-1c-0.6,0-1.1,0.4-1.3,0.7v4.3
	h-1.7v-6.4h1.7v0.8c0.3-0.4,1.1-1,2.1-1c0.9,0,1.6,0.4,1.8,1.2c0.4-0.6,1.2-1.2,2.2-1.2c1.2,0,1.9,0.6,1.9,1.9v4.6H458.8"/>
<path class="st4" d="M466,150v-0.7c-0.4,0.5-1.2,0.8-2,0.8c-1,0-2.2-0.7-2.2-2.1c0-1.5,1.2-2.1,2.2-2.1c0.9,0,1.6,0.3,2,0.8v-0.8
	c0-0.6-0.6-1.1-1.4-1.1c-0.7,0-1.3,0.3-1.8,0.8l-0.7-1.2c0.8-0.7,1.8-1,2.8-1c1.5,0,2.8,0.6,2.8,2.4v4.1H466 M466,148.4v-0.8
	c-0.3-0.4-0.8-0.6-1.4-0.6c-0.7,0-1.2,0.4-1.2,1c0,0.6,0.5,1,1.2,1C465.2,149,465.7,148.8,466,148.4z"/>
<path class="st4" d="M468.8,149.1l0.7-1.2c0.5,0.4,1.4,0.9,2.2,0.9c0.7,0,1.1-0.3,1.1-0.7c0-1-3.8-0.2-3.8-2.7c0-1.1,0.9-2,2.6-2
	c1.1,0,1.9,0.4,2.6,0.9l-0.7,1.2c-0.4-0.4-1.1-0.7-1.9-0.7c-0.6,0-1,0.3-1,0.6c0,0.9,3.8,0.1,3.8,2.7c0,1.2-1,2-2.8,2
	C470.5,150.1,469.5,149.7,468.8,149.1"/>
<path class="st1" d="M366.3,165.8v-0.8c-0.6,0.6-1.3,0.9-2.2,0.9c-1.1,0-2.2-0.8-2.2-2.1c0-1.4,1.1-2.1,2.2-2.1
	c0.9,0,1.6,0.3,2.2,0.9v-1.3c0-1-0.8-1.5-1.7-1.5c-0.8,0-1.4,0.3-2,0.9l-0.4-0.5c0.7-0.7,1.4-1.1,2.5-1.1c1.3,0,2.3,0.6,2.3,2.1v4.5
	H366.3 M366.3,164.6v-1.4c-0.4-0.6-1.2-0.9-1.9-0.9c-1.1,0-1.8,0.7-1.8,1.6c0,0.9,0.7,1.6,1.8,1.6
	C365.1,165.4,365.9,165.2,366.3,164.6z"/>
<rect x="369.1" y="157" class="st1" width="0.7" height="8.8"/>
<path class="st1" d="M380.1,165.8v-1c-0.4,0.7-1.3,1.2-2.2,1.2c-1.7,0-2.8-1.3-2.8-3.4c0-2,1.2-3.4,2.8-3.4c0.9,0,1.7,0.5,2.2,1.2
	V157h0.7v8.8H380.1 M380.1,164.2v-3.2c-0.4-0.6-1.2-1.2-2.1-1.2c-1.4,0-2.2,1.2-2.2,2.7c0,1.6,0.8,2.7,2.2,2.7
	C378.9,165.4,379.7,164.8,380.1,164.2z"/>
<path class="st1" d="M383.1,158.5h-0.6l2-1.9h0.8L383.1,158.5 M383.6,165.8H383v-6.4h0.7V165.8z"/>
<path class="st1" d="M389.9,165.8v-0.8c-0.6,0.6-1.3,0.9-2.2,0.9c-1.1,0-2.2-0.8-2.2-2.1c0-1.4,1.1-2.1,2.2-2.1
	c0.9,0,1.6,0.3,2.2,0.9v-1.3c0-1-0.8-1.5-1.7-1.5c-0.8,0-1.4,0.3-2,0.9l-0.4-0.5c0.7-0.7,1.4-1.1,2.5-1.1c1.3,0,2.3,0.6,2.3,2.1v4.5
	H389.9 M389.9,164.6v-1.4c-0.4-0.6-1.2-0.9-1.9-0.9c-1,0-1.8,0.7-1.8,1.6c0,0.9,0.7,1.6,1.8,1.6
	C388.7,165.4,389.4,165.2,389.9,164.6z"/>
<path class="st1" d="M400.8,165.8v-1c-0.4,0.7-1.3,1.2-2.2,1.2c-1.7,0-2.8-1.3-2.8-3.4c0-2,1.2-3.4,2.8-3.4c0.9,0,1.7,0.5,2.2,1.2
	V157h0.7v8.8H400.8 M400.8,164.2v-3.2c-0.4-0.6-1.2-1.2-2.1-1.2c-1.4,0-2.2,1.2-2.2,2.7c0,1.6,0.8,2.7,2.2,2.7
	C399.6,165.4,400.5,164.8,400.8,164.2z"/>
<path class="st1" d="M403.3,162.6c0-1.9,1.3-3.4,3.1-3.4c1.9,0,3,1.5,3,3.4v0.2h-5.4c0.1,1.4,1,2.5,2.5,2.5c0.8,0,1.6-0.3,2.1-0.9
	l0.4,0.4c-0.6,0.7-1.4,1-2.5,1C404.6,166,403.3,164.6,403.3,162.6 M406.4,159.9c-1.5,0-2.3,1.3-2.3,2.4h4.7
	C408.7,161.2,408,159.9,406.4,159.9z"/>
<path class="st1" d="M414.2,164.7l1-1.3c0.6,0.6,1.4,1,2.3,1c1,0,1.6-0.6,1.6-1.3c0-0.8-0.6-1.3-1.6-1.3c-0.7,0-1.3,0.2-1.9,0.7
	l-1.3-0.4V157h6.1v1.7h-4.2v2.2c0.4-0.4,1.1-0.7,1.9-0.7c1.5,0,2.8,1.1,2.8,2.9c0,1.9-1.4,3.1-3.5,3.1
	C416,166,414.9,165.5,414.2,164.7"/>
<path class="st1" d="M433.7,165.8v-4c0-0.6-0.3-1-1-1c-0.6,0-1.1,0.4-1.3,0.7v4.3h-1.7v-4c0-0.6-0.3-1-1-1c-0.6,0-1.1,0.4-1.3,0.7
	v4.3h-1.7v-6.4h1.7v0.8c0.3-0.4,1.1-1,2.1-1c0.9,0,1.6,0.4,1.8,1.2c0.4-0.6,1.2-1.2,2.2-1.2c1.2,0,1.9,0.6,1.9,1.9v4.6H433.7"/>
<path class="st1" d="M437,167.5l0.8-1.2c0.5,0.6,1.2,0.8,2,0.8c0.8,0,1.8-0.3,1.8-1.6v-0.6c-0.5,0.6-1.2,1-2,1
	c-1.6,0-2.8-1.1-2.8-3.2c0-2.1,1.2-3.3,2.8-3.3c0.8,0,1.5,0.3,2,1v-0.8h1.7v6c0,2.4-1.9,3-3.5,3C438.6,168.4,437.8,168.2,437,167.5
	 M441.5,163.6v-2.1c-0.3-0.4-0.9-0.7-1.4-0.7c-1,0-1.6,0.7-1.6,1.8c0,1.1,0.7,1.8,1.6,1.8C440.6,164.3,441.2,164,441.5,163.6z"/>
<polyline class="st1" points="444,166.1 447.2,156.7 448.4,156.7 445.2,166.1 444,166.1 "/>
<polyline class="st1" points="453.4,165.8 451.7,163.4 450.9,164.2 450.9,165.8 449.2,165.8 449.2,157 450.9,157 450.9,162.3 
	453.3,159.4 455.4,159.4 452.8,162.3 455.5,165.8 453.4,165.8 "/>
<path class="st1" d="M456.2,167.5l0.8-1.2c0.5,0.6,1.2,0.8,2,0.8c0.8,0,1.8-0.3,1.8-1.6v-0.6c-0.5,0.6-1.2,1-2,1
	c-1.6,0-2.8-1.1-2.8-3.2c0-2.1,1.2-3.3,2.8-3.3c0.8,0,1.5,0.3,2,1v-0.8h1.7v6c0,2.4-1.9,3-3.5,3C457.8,168.4,457,168.2,456.2,167.5
	 M460.7,163.6v-2.1c-0.3-0.4-0.9-0.7-1.4-0.7c-1,0-1.6,0.7-1.6,1.8c0,1.1,0.7,1.8,1.6,1.8C459.8,164.3,460.4,164,460.7,163.6z"/>
<path class="st1" d="M635.3,150l-2.5-3.7h-1.9v3.7h-0.8v-8.8h3.3c1.5,0,2.7,1,2.7,2.6c0,1.6-1.1,2.5-2.4,2.5l2.6,3.7H635.3
	 M635.3,143.7c0-1.1-0.8-1.9-2-1.9h-2.5v3.8h2.5C634.5,145.6,635.3,144.8,635.3,143.7z"/>
<path class="st1" d="M637.6,146.7c0-1.9,1.3-3.4,3.1-3.4c1.9,0,3,1.5,3,3.4v0.2h-5.4c0.1,1.4,1,2.5,2.5,2.5c0.8,0,1.6-0.3,2.1-0.9
	l0.4,0.4c-0.6,0.7-1.4,1-2.5,1C638.9,150.1,637.6,148.7,637.6,146.7 M640.7,144c-1.5,0-2.3,1.3-2.3,2.4h4.7
	C643,145.3,642.3,144,640.7,144z"/>
<path class="st1" d="M646.2,148.9v3.5h-0.7v-8.8h0.7v1c0.5-0.6,1.3-1.2,2.2-1.2c1.7,0,2.9,1.3,2.9,3.4c0,2-1.2,3.4-2.9,3.4
	C647.5,150.1,646.7,149.6,646.2,148.9 M650.5,146.7c0-1.6-0.8-2.7-2.2-2.7c-0.9,0-1.7,0.5-2.1,1.1v3.2c0.4,0.6,1.2,1.2,2.1,1.2
	C649.7,149.5,650.5,148.3,650.5,146.7z"/>
<path class="st1" d="M657,150v-0.8c-0.6,0.6-1.3,0.9-2.2,0.9c-1.1,0-2.2-0.8-2.2-2.1c0-1.4,1.1-2.1,2.2-2.1c0.9,0,1.6,0.3,2.2,0.9
	v-1.3c0-1-0.8-1.5-1.7-1.5c-0.8,0-1.4,0.3-2,0.9l-0.4-0.5c0.7-0.7,1.4-1.1,2.5-1.1c1.3,0,2.3,0.6,2.3,2.1v4.5H657 M657,148.7v-1.4
	c-0.4-0.6-1.2-0.9-1.9-0.9c-1,0-1.7,0.7-1.7,1.6c0,0.9,0.7,1.6,1.7,1.6C655.9,149.6,656.6,149.3,657,148.7z"/>
<path class="st1" d="M659.9,150v-6.4h0.7v1.1c0.5-0.7,1.3-1.2,2.2-1.2v0.8l-0.3,0c-0.7,0-1.5,0.6-1.8,1.1v4.7H659.9"/>
<path class="st1" d="M664.2,148.7v-4.6h-1.1v-0.6h1.1v-1.7h0.7v1.7h1.3v0.6h-1.3v4.5c0,0.5,0.2,0.9,0.7,0.9c0.3,0,0.6-0.1,0.7-0.3
	l0.3,0.5c-0.3,0.2-0.6,0.4-1.1,0.4C664.6,150.1,664.2,149.6,664.2,148.7"/>
<path class="st1" d="M667.5,142c0-0.3,0.3-0.5,0.5-0.5c0.3,0,0.5,0.2,0.5,0.5c0,0.3-0.2,0.5-0.5,0.5
	C667.8,142.5,667.5,142.3,667.5,142 M668.4,150h-0.7v-6.4h0.7V150z"/>
<path class="st1" d="M675.3,150v-1c-0.4,0.7-1.3,1.2-2.2,1.2c-1.7,0-2.8-1.3-2.8-3.4c0-2,1.2-3.4,2.8-3.4c0.9,0,1.7,0.5,2.2,1.2
	v-3.5h0.7v8.8H675.3 M675.3,148.3v-3.2c-0.4-0.6-1.2-1.2-2.1-1.2c-1.4,0-2.2,1.2-2.2,2.7c0,1.6,0.8,2.7,2.2,2.7
	C674.1,149.5,674.9,149,675.3,148.3z"/>
<path class="st1" d="M677.7,146.7c0-1.9,1.2-3.4,3.1-3.4c1.9,0,3.1,1.5,3.1,3.4c0,1.9-1.2,3.4-3.1,3.4
	C678.9,150.1,677.7,148.6,677.7,146.7 M683.1,146.7c0-1.4-0.8-2.7-2.3-2.7c-1.5,0-2.3,1.3-2.3,2.7c0,1.4,0.9,2.7,2.3,2.7
	C682.3,149.5,683.1,148.2,683.1,146.7z"/>
<path class="st1" d="M688.7,146.7c0-1.9,1.3-3.4,3.1-3.4c1.9,0,3,1.5,3,3.4v0.2h-5.4c0.1,1.4,1,2.5,2.5,2.5c0.8,0,1.6-0.3,2.1-0.9
	l0.4,0.4c-0.6,0.7-1.4,1-2.5,1C690.1,150.1,688.7,148.7,688.7,146.7 M691.8,144c-1.5,0-2.3,1.3-2.3,2.4h4.6
	C694.1,145.3,693.4,144,691.8,144z"/>
<path class="st1" d="M700.9,150v-4.3c0-1.2-0.6-1.6-1.6-1.6c-0.8,0-1.7,0.5-2.1,1.1v4.8h-0.7v-6.4h0.7v1c0.5-0.6,1.4-1.1,2.3-1.1
	c1.3,0,2,0.6,2,2.1v4.5H700.9"/>
<path class="st4" d="M706.7,150v-1.5c3.6-2.7,4.7-3.6,4.7-4.7c0-0.8-0.7-1.2-1.4-1.2c-1,0-1.8,0.4-2.4,1l-1.1-1.2
	c0.9-1,2.2-1.4,3.4-1.4c1.9,0,3.4,1.1,3.4,2.8c0,1.5-1.2,2.8-3.5,4.5h3.6v1.7H706.7"/>
<path class="st4" d="M718.6,148.3V145h-1.1v-1.5h1.1v-1.8h1.7v1.8h1.3v1.5h-1.3v2.9c0,0.4,0.2,0.7,0.6,0.7c0.3,0,0.5-0.1,0.6-0.2
	l0.4,1.3c-0.3,0.2-0.7,0.4-1.4,0.4C719.2,150.1,718.6,149.5,718.6,148.3"/>
<path class="st4" d="M722.3,146.7c0-1.8,1.3-3.4,3.4-3.4c2.1,0,3.4,1.5,3.4,3.4c0,1.8-1.3,3.4-3.4,3.4
	C723.6,150.1,722.3,148.6,722.3,146.7 M727.4,146.7c0-1-0.6-1.9-1.6-1.9c-1,0-1.6,0.9-1.6,1.9c0,1,0.6,1.9,1.6,1.9
	C726.8,148.6,727.4,147.8,727.4,146.7z"/>
<path class="st4" d="M738.3,150v-4c0-0.6-0.3-1-1-1c-0.6,0-1.1,0.4-1.3,0.7v4.3h-1.7v-4c0-0.6-0.3-1-1-1c-0.6,0-1.1,0.4-1.3,0.7v4.3
	h-1.7v-6.4h1.7v0.8c0.3-0.4,1.1-1,2.1-1c0.9,0,1.6,0.4,1.8,1.2c0.4-0.6,1.2-1.2,2.2-1.2c1.2,0,1.9,0.6,1.9,1.9v4.6H738.3"/>
<path class="st4" d="M745.5,150v-0.7c-0.4,0.5-1.2,0.8-2,0.8c-1,0-2.2-0.7-2.2-2.1c0-1.5,1.2-2.1,2.2-2.1c0.9,0,1.6,0.3,2,0.8v-0.8
	c0-0.6-0.6-1.1-1.4-1.1c-0.7,0-1.3,0.3-1.8,0.8l-0.7-1.2c0.8-0.7,1.8-1,2.8-1c1.5,0,2.8,0.6,2.8,2.4v4.1H745.5 M745.5,148.4v-0.8
	c-0.3-0.4-0.8-0.6-1.4-0.6c-0.7,0-1.2,0.4-1.2,1c0,0.6,0.5,1,1.2,1C744.7,149,745.2,148.8,745.5,148.4z"/>
<path class="st4" d="M748.3,149.1l0.7-1.2c0.5,0.4,1.4,0.9,2.2,0.9c0.7,0,1.1-0.3,1.1-0.7c0-1-3.8-0.2-3.8-2.7c0-1.1,0.9-2,2.6-2
	c1.1,0,1.9,0.4,2.6,0.9l-0.7,1.2c-0.4-0.4-1.1-0.7-1.9-0.7c-0.6,0-1,0.3-1,0.6c0,0.9,3.8,0.1,3.8,2.7c0,1.2-1,2-2.8,2
	C750,150.1,749,149.7,748.3,149.1"/>
<path class="st1" d="M643,165.8v-0.8c-0.6,0.6-1.3,0.9-2.2,0.9c-1.1,0-2.2-0.8-2.2-2.1c0-1.4,1.1-2.1,2.2-2.1c0.9,0,1.6,0.3,2.2,0.9
	v-1.3c0-1-0.8-1.5-1.7-1.5c-0.8,0-1.4,0.3-2,0.9l-0.4-0.5c0.7-0.7,1.4-1.1,2.5-1.1c1.3,0,2.3,0.6,2.3,2.1v4.5H643 M643,164.6v-1.4
	c-0.5-0.6-1.2-0.9-1.9-0.9c-1,0-1.8,0.7-1.8,1.6c0,0.9,0.7,1.6,1.8,1.6C641.8,165.4,642.5,165.2,643,164.6z"/>
<rect x="645.8" y="157" class="st1" width="0.7" height="8.8"/>
<path class="st1" d="M656.8,165.8v-1c-0.4,0.7-1.3,1.2-2.2,1.2c-1.7,0-2.8-1.3-2.8-3.4c0-2,1.2-3.4,2.8-3.4c0.9,0,1.7,0.5,2.2,1.2
	V157h0.7v8.8H656.8 M656.8,164.2v-3.2c-0.4-0.6-1.2-1.2-2.1-1.2c-1.4,0-2.2,1.2-2.2,2.7c0,1.6,0.8,2.7,2.2,2.7
	C655.6,165.4,656.4,164.8,656.8,164.2z"/>
<path class="st1" d="M659.8,158.5h-0.6l2-1.9h0.8L659.8,158.5 M660.3,165.8h-0.7v-6.4h0.7V165.8z"/>
<path class="st1" d="M666.5,165.8v-0.8c-0.6,0.6-1.3,0.9-2.2,0.9c-1.1,0-2.2-0.8-2.2-2.1c0-1.4,1.1-2.1,2.2-2.1
	c0.9,0,1.6,0.3,2.2,0.9v-1.3c0-1-0.8-1.5-1.7-1.5c-0.8,0-1.4,0.3-2,0.9l-0.4-0.5c0.7-0.7,1.4-1.1,2.5-1.1c1.3,0,2.3,0.6,2.3,2.1v4.5
	H666.5 M666.5,164.6v-1.4c-0.5-0.6-1.2-0.9-1.9-0.9c-1.1,0-1.8,0.7-1.8,1.6c0,0.9,0.7,1.6,1.8,1.6
	C665.4,165.4,666.1,165.2,666.5,164.6z"/>
<path class="st1" d="M677.5,165.8v-1c-0.4,0.7-1.3,1.2-2.2,1.2c-1.7,0-2.9-1.3-2.9-3.4c0-2,1.2-3.4,2.9-3.4c0.9,0,1.7,0.5,2.2,1.2
	V157h0.7v8.8H677.5 M677.5,164.2v-3.2c-0.4-0.6-1.2-1.2-2.1-1.2c-1.4,0-2.2,1.2-2.2,2.7c0,1.6,0.8,2.7,2.2,2.7
	C676.3,165.4,677.1,164.8,677.5,164.2z"/>
<path class="st1" d="M680,162.6c0-1.9,1.3-3.4,3.1-3.4c1.9,0,3,1.5,3,3.4v0.2h-5.4c0.1,1.4,1,2.5,2.5,2.5c0.8,0,1.6-0.3,2.1-0.9
	l0.4,0.4c-0.6,0.7-1.4,1-2.5,1C681.3,166,680,164.6,680,162.6 M683.1,159.9c-1.5,0-2.3,1.3-2.3,2.4h4.7
	C685.4,161.2,684.7,159.9,683.1,159.9z"/>
<polyline class="st1" points="692.9,165.8 692.9,159.4 691.4,160.9 690.4,159.8 693.1,157 694.8,157 694.8,165.8 692.9,165.8 "/>
<path class="st1" d="M696.1,161.4c0-2.3,1.1-4.6,3.7-4.6c2.5,0,3.7,2.3,3.7,4.6c0,2.3-1.1,4.6-3.7,4.6
	C697.2,166,696.1,163.7,696.1,161.4 M701.5,161.4c0-1.6-0.5-2.9-1.7-2.9c-1.3,0-1.7,1.3-1.7,2.9c0,1.6,0.5,2.9,1.7,2.9
	C701,164.3,701.5,163.1,701.5,161.4z"/>
<path class="st1" d="M716,165.8v-4c0-0.6-0.3-1-1-1c-0.6,0-1.1,0.4-1.3,0.7v4.3h-1.7v-4c0-0.6-0.3-1-1-1c-0.6,0-1.1,0.4-1.3,0.7v4.3
	h-1.7v-6.4h1.7v0.8c0.3-0.4,1.1-1,2.1-1c0.9,0,1.6,0.4,1.8,1.2c0.4-0.6,1.2-1.2,2.2-1.2c1.2,0,1.9,0.6,1.9,1.9v4.6H716"/>
<path class="st1" d="M719.3,167.5l0.8-1.2c0.5,0.6,1.2,0.8,2,0.8c0.8,0,1.8-0.3,1.8-1.6v-0.6c-0.5,0.6-1.2,1-2,1
	c-1.6,0-2.8-1.1-2.8-3.2c0-2.1,1.2-3.3,2.8-3.3c0.8,0,1.5,0.3,2,1v-0.8h1.7v6c0,2.4-1.9,3-3.5,3
	C720.9,168.4,720.1,168.2,719.3,167.5 M723.8,163.6v-2.1c-0.3-0.4-0.9-0.7-1.4-0.7c-1,0-1.6,0.7-1.6,1.8c0,1.1,0.7,1.8,1.6,1.8
	C722.9,164.3,723.5,164,723.8,163.6z"/>
<polyline class="st1" points="726.3,166.1 729.4,156.7 730.7,156.7 727.5,166.1 726.3,166.1 "/>
<polyline class="st1" points="735.6,165.8 733.9,163.4 733.2,164.2 733.2,165.8 731.5,165.8 731.5,157 733.2,157 733.2,162.3 
	735.6,159.4 737.7,159.4 735.1,162.3 737.7,165.8 735.6,165.8 "/>
<path class="st1" d="M738.5,167.5l0.8-1.2c0.5,0.6,1.2,0.8,2,0.8c0.8,0,1.8-0.3,1.8-1.6v-0.6c-0.5,0.6-1.2,1-2,1
	c-1.6,0-2.8-1.1-2.8-3.2c0-2.1,1.2-3.3,2.8-3.3c0.8,0,1.5,0.3,2,1v-0.8h1.7v6c0,2.4-1.9,3-3.5,3
	C740.1,168.4,739.3,168.2,738.5,167.5 M743,163.6v-2.1c-0.3-0.4-0.9-0.7-1.4-0.7c-1,0-1.6,0.7-1.6,1.8c0,1.1,0.7,1.8,1.6,1.8
	C742.1,164.3,742.7,164,743,163.6z"/>
<path class="st2" d="M242,271.9l36.4-36.4c2.4-2.4,5.4-3.5,8.5-3.5s6.2,1.2,8.5,3.5l36.4,36.4l0.7-0.6l-36.4-36.4
	c-2.5-2.5-5.9-3.8-9.2-3.8c-3.3,0-6.6,1.3-9.2,3.8l-36.4,36.4L242,271.9"/>
<path class="st2" d="M675,266.5c-5.2-7.4-15.5-12-24-15.2c-17.7-6.7-37.4-9.2-56.7-9.6c-1.3,0-2.7,0-4,0c-40.1,0-78.2,12.1-110.9,33
	c-25,16-45.6,35.9-65.1,56.7c-11.9,12.7-25,24-41.2,32.6c-21.8,11.6-46.8,18.2-72.1,19.2c-2.5,0.1-5,0.2-7.5,0.2
	c-26.6,0-53.4-5.7-76.5-16.6c-11.2-5.3-21.9-12.2-30.3-20.8c-8.3-8.5-14.2-18.6-15.9-30.1l-1.4,0.2c1.7,11.9,7.8,22.2,16.3,30.8
	c8.5,8.7,19.3,15.7,30.7,21c23.3,11,50.3,16.7,77.1,16.7c2.5,0,5.1-0.1,7.6-0.2c25.5-1,50.7-7.6,72.7-19.4
	c16.3-8.7,29.5-20.1,41.5-32.9c19.5-20.8,40-40.6,64.9-56.5C512.7,255,550.5,243,590.3,243c1.3,0,2.6,0,4,0
	c19.2,0.4,38.7,2.9,56.2,9.5c8.5,3.2,18.5,7.8,23.4,14.7L675,266.5"/>
<path class="st1" d="M530.9,354.4c-1.1-1.7-1.8-3.7-1.8-5.9s0.6-4.1,1.8-5.9l0.4,0.3c-0.8,1.7-1.4,3.3-1.4,5.6
	c0,2.3,0.6,3.9,1.4,5.5L530.9,354.4"/>
<path class="st1" d="M532.6,351.7v-8.8h3.3c1.7,0,2.7,1.2,2.7,2.6c0,1.4-1,2.6-2.7,2.6h-2.6v3.7H532.6 M537.8,345.5
	c0-1.1-0.8-1.9-1.9-1.9h-2.5v3.8h2.5C537,347.4,537.8,346.6,537.8,345.5z"/>
<path class="st1" d="M539.8,347.3c0-2.6,1.7-4.6,4.3-4.6c2.6,0,4.3,2,4.3,4.6c0,2.6-1.7,4.6-4.3,4.6
	C541.5,351.9,539.8,349.9,539.8,347.3 M547.6,347.3c0-2.2-1.4-3.9-3.5-3.9c-2.1,0-3.5,1.6-3.5,3.9c0,2.2,1.4,3.9,3.5,3.9
	C546.2,351.2,547.6,349.5,547.6,347.3z"/>
<path class="st1" d="M555.5,351.7l-2.5-3.7H551v3.7h-0.8v-8.8h3.3c1.5,0,2.7,1,2.7,2.6c0,1.6-1.1,2.5-2.5,2.5l2.6,3.7H555.5
	 M555.5,345.5c0-1.1-0.8-1.9-2-1.9H551v3.8h2.5C554.7,347.4,555.5,346.6,555.5,345.5z"/>
<path class="st1" d="M561.1,350.5l0.5-0.6c0.6,0.6,1.5,1.3,2.8,1.3c1.8,0,2.3-1,2.3-1.8c0-2.6-5.3-1.2-5.3-4.3
	c0-1.4,1.3-2.4,2.9-2.4c1.3,0,2.3,0.5,3,1.2l-0.5,0.6c-0.6-0.8-1.5-1.1-2.5-1.1c-1.2,0-2.1,0.7-2.1,1.6c0,2.3,5.3,1,5.3,4.3
	c0,1.1-0.8,2.5-3.1,2.5C562.8,351.9,561.8,351.3,561.1,350.5"/>
<polyline class="st1" points="569.3,351.7 569.3,342.9 574.9,342.9 574.9,343.6 570,343.6 570,346.8 574.8,346.8 574.8,347.5 
	570,347.5 570,351 574.9,351 574.9,351.7 569.3,351.7 "/>
<polyline class="st1" points="584.2,351.7 584.2,343.8 581,351.7 580.7,351.7 577.5,343.8 577.5,351.7 576.7,351.7 576.7,342.9 
	577.8,342.9 580.9,350.2 583.8,342.9 585,342.9 585,351.7 584.2,351.7 "/>
<path class="st1" d="M593.6,351.7l-0.9-2.2H588l-0.9,2.2h-0.9l3.6-8.8h0.9l3.6,8.8H593.6 M590.4,343.7l-2.1,5.2h4.2L590.4,343.7z"/>
<polyline class="st1" points="602.1,351.7 596.5,344.1 596.5,351.7 595.7,351.7 595.7,342.9 596.5,342.9 602,350.4 602,342.9 
	602.8,342.9 602.8,351.7 602.1,351.7 "/>
<path class="st1" d="M611.4,351.7l-0.9-2.2h-4.7l-0.9,2.2h-0.9l3.6-8.8h0.9l3.6,8.8H611.4 M608.2,343.7l-2.1,5.2h4.2L608.2,343.7z"
	/>
<path class="st1" d="M612.7,354c0.8-1.7,1.4-3.2,1.4-5.5c0-2.3-0.6-3.9-1.4-5.6l0.4-0.3c1.1,1.7,1.8,3.7,1.8,5.9
	c0,2.1-0.6,4.1-1.8,5.9L612.7,354"/>
<path class="st1" d="M104.8,150l-2.5-3.7h-1.9v3.7h-0.8v-8.8h3.3c1.5,0,2.7,1,2.7,2.6c0,1.6-1.1,2.5-2.5,2.5l2.6,3.7H104.8
	 M104.8,143.7c0-1.1-0.8-1.9-2-1.9h-2.5v3.8h2.5C104,145.6,104.8,144.8,104.8,143.7z"/>
<path class="st1" d="M107.1,146.7c0-1.9,1.3-3.4,3.1-3.4c1.9,0,3,1.5,3,3.4v0.2h-5.4c0.1,1.4,1,2.5,2.5,2.5c0.8,0,1.6-0.3,2.1-0.9
	l0.4,0.4c-0.6,0.7-1.4,1-2.5,1C108.4,150.1,107.1,148.7,107.1,146.7 M110.1,144c-1.5,0-2.3,1.3-2.3,2.4h4.7
	C112.4,145.3,111.7,144,110.1,144z"/>
<path class="st1" d="M115.6,148.9v3.5h-0.7v-8.8h0.7v1c0.4-0.6,1.3-1.2,2.2-1.2c1.7,0,2.9,1.3,2.9,3.4c0,2-1.2,3.4-2.9,3.4
	C116.9,150.1,116.1,149.6,115.6,148.9 M120,146.7c0-1.6-0.8-2.7-2.2-2.7c-0.9,0-1.7,0.5-2.1,1.1v3.2c0.4,0.6,1.2,1.2,2.1,1.2
	C119.2,149.5,120,148.3,120,146.7z"/>
<path class="st1" d="M126.5,150v-0.8c-0.6,0.6-1.3,0.9-2.2,0.9c-1.1,0-2.2-0.8-2.2-2.1c0-1.4,1.1-2.1,2.2-2.1c0.9,0,1.6,0.3,2.2,0.9
	v-1.3c0-1-0.8-1.5-1.7-1.5c-0.8,0-1.4,0.3-2,0.9l-0.4-0.5c0.7-0.7,1.4-1.1,2.5-1.1c1.3,0,2.3,0.6,2.3,2.1v4.5H126.5 M126.5,148.7
	v-1.4c-0.5-0.6-1.2-0.9-1.9-0.9c-1,0-1.8,0.7-1.8,1.6c0,0.9,0.7,1.6,1.8,1.6C125.3,149.6,126.1,149.3,126.5,148.7z"/>
<path class="st1" d="M129.3,150v-6.4h0.7v1.1c0.5-0.7,1.3-1.2,2.2-1.2v0.8l-0.3,0c-0.6,0-1.5,0.6-1.8,1.1v4.7H129.3"/>
<path class="st1" d="M133.7,148.7v-4.6h-1.1v-0.6h1.1v-1.7h0.7v1.7h1.3v0.6h-1.3v4.5c0,0.5,0.2,0.9,0.7,0.9c0.3,0,0.6-0.1,0.7-0.3
	l0.3,0.5c-0.3,0.2-0.6,0.4-1.1,0.4C134.1,150.1,133.7,149.6,133.7,148.7"/>
<path class="st1" d="M137,142c0-0.3,0.3-0.5,0.5-0.5c0.3,0,0.5,0.2,0.5,0.5c0,0.3-0.2,0.5-0.5,0.5C137.2,142.5,137,142.3,137,142
	 M137.9,150h-0.7v-6.4h0.7V150z"/>
<path class="st1" d="M144.7,150v-1c-0.4,0.7-1.3,1.2-2.2,1.2c-1.7,0-2.8-1.3-2.8-3.4c0-2,1.2-3.4,2.8-3.4c0.9,0,1.7,0.5,2.2,1.2
	v-3.5h0.7v8.8H144.7 M144.7,148.3v-3.2c-0.4-0.6-1.2-1.2-2.1-1.2c-1.4,0-2.2,1.2-2.2,2.7c0,1.6,0.8,2.7,2.2,2.7
	C143.5,149.5,144.4,149,144.7,148.3z"/>
<path class="st1" d="M147.2,146.7c0-1.9,1.2-3.4,3.1-3.4c1.9,0,3.1,1.5,3.1,3.4c0,1.9-1.2,3.4-3.1,3.4
	C148.4,150.1,147.2,148.6,147.2,146.7 M152.6,146.7c0-1.4-0.8-2.7-2.3-2.7c-1.5,0-2.3,1.3-2.3,2.7c0,1.4,0.8,2.7,2.3,2.7
	C151.8,149.5,152.6,148.2,152.6,146.7z"/>
<path class="st1" d="M158.2,146.7c0-1.9,1.3-3.4,3.1-3.4c1.9,0,3,1.5,3,3.4v0.2h-5.4c0.1,1.4,1,2.5,2.5,2.5c0.8,0,1.5-0.3,2.1-0.9
	l0.4,0.4c-0.6,0.7-1.4,1-2.5,1C159.5,150.1,158.2,148.7,158.2,146.7 M161.3,144c-1.5,0-2.3,1.3-2.3,2.4h4.7
	C163.6,145.3,162.9,144,161.3,144z"/>
<path class="st1" d="M170.4,150v-4.3c0-1.2-0.6-1.6-1.6-1.6c-0.8,0-1.7,0.5-2.1,1.1v4.8h-0.7v-6.4h0.7v1c0.5-0.6,1.4-1.1,2.3-1.1
	c1.3,0,2,0.6,2,2.1v4.5H170.4"/>
<path class="st4" d="M176.2,150v-1.5c3.6-2.7,4.7-3.6,4.7-4.7c0-0.8-0.7-1.2-1.4-1.2c-1,0-1.8,0.4-2.4,1l-1.1-1.2
	c0.9-1,2.2-1.4,3.4-1.4c1.9,0,3.4,1.1,3.4,2.8c0,1.5-1.2,2.8-3.5,4.5h3.6v1.7H176.2"/>
<path class="st4" d="M188.1,148.3V145H187v-1.5h1.1v-1.8h1.7v1.8h1.3v1.5h-1.3v2.9c0,0.4,0.2,0.7,0.6,0.7c0.3,0,0.5-0.1,0.6-0.2
	l0.4,1.3c-0.3,0.2-0.7,0.4-1.4,0.4C188.7,150.1,188.1,149.5,188.1,148.3"/>
<path class="st4" d="M191.8,146.7c0-1.8,1.3-3.4,3.4-3.4c2.1,0,3.4,1.5,3.4,3.4c0,1.8-1.3,3.4-3.4,3.4
	C193.1,150.1,191.8,148.6,191.8,146.7 M196.8,146.7c0-1-0.6-1.9-1.6-1.9c-1,0-1.6,0.9-1.6,1.9c0,1,0.6,1.9,1.6,1.9
	C196.2,148.6,196.8,147.8,196.8,146.7z"/>
<path class="st4" d="M207.8,150v-4c0-0.6-0.3-1-1-1c-0.6,0-1.1,0.4-1.3,0.7v4.3h-1.7v-4c0-0.6-0.3-1-1-1c-0.6,0-1.1,0.4-1.3,0.7v4.3
	h-1.7v-6.4h1.7v0.8c0.3-0.4,1.1-1,2.1-1c0.9,0,1.6,0.4,1.8,1.2c0.4-0.6,1.2-1.2,2.2-1.2c1.2,0,1.9,0.6,1.9,1.9v4.6H207.8"/>
<path class="st4" d="M215,150v-0.7c-0.4,0.5-1.2,0.8-2,0.8c-1,0-2.2-0.7-2.2-2.1c0-1.5,1.2-2.1,2.2-2.1c0.9,0,1.6,0.3,2,0.8v-0.8
	c0-0.6-0.6-1.1-1.4-1.1c-0.7,0-1.3,0.3-1.8,0.8l-0.7-1.2c0.8-0.7,1.8-1,2.8-1c1.5,0,2.8,0.6,2.8,2.4v4.1H215 M215,148.4v-0.8
	c-0.3-0.4-0.8-0.6-1.4-0.6c-0.7,0-1.2,0.4-1.2,1c0,0.6,0.5,1,1.2,1C214.2,149,214.7,148.8,215,148.4z"/>
<path class="st4" d="M217.7,149.1l0.7-1.2c0.5,0.4,1.4,0.9,2.2,0.9c0.7,0,1.1-0.3,1.1-0.7c0-1-3.8-0.2-3.8-2.7c0-1.1,0.9-2,2.6-2
	c1.1,0,1.9,0.4,2.6,0.9l-0.7,1.2c-0.4-0.4-1.1-0.7-1.9-0.7c-0.6,0-1,0.3-1,0.6c0,0.9,3.8,0.1,3.8,2.7c0,1.2-1,2-2.8,2
	C219.5,150.1,218.4,149.7,217.7,149.1"/>
<path class="st1" d="M109.6,165.8v-0.8c-0.6,0.6-1.3,0.9-2.2,0.9c-1.1,0-2.2-0.8-2.2-2.1c0-1.4,1.1-2.1,2.2-2.1
	c0.9,0,1.6,0.3,2.2,0.9v-1.3c0-1-0.8-1.5-1.7-1.5c-0.8,0-1.4,0.3-2,0.9l-0.4-0.5c0.7-0.7,1.4-1.1,2.5-1.1c1.3,0,2.3,0.6,2.3,2.1v4.5
	H109.6 M109.6,164.6v-1.4c-0.5-0.6-1.2-0.9-1.9-0.9c-1.1,0-1.8,0.7-1.8,1.6c0,0.9,0.7,1.6,1.8,1.6
	C108.4,165.4,109.1,165.2,109.6,164.6z"/>
<rect x="112.4" y="157" class="st1" width="0.7" height="8.8"/>
<path class="st1" d="M123.4,165.8v-1c-0.4,0.7-1.3,1.2-2.2,1.2c-1.7,0-2.9-1.3-2.9-3.4c0-2,1.2-3.4,2.9-3.4c0.9,0,1.7,0.5,2.2,1.2
	V157h0.7v8.8H123.4 M123.4,164.2v-3.2c-0.4-0.6-1.2-1.2-2.1-1.2c-1.4,0-2.2,1.2-2.2,2.7c0,1.6,0.8,2.7,2.2,2.7
	C122.2,165.4,123,164.8,123.4,164.2z"/>
<path class="st1" d="M126.4,158.5h-0.6l2-1.9h0.8L126.4,158.5 M126.9,165.8h-0.7v-6.4h0.7V165.8z"/>
<path class="st1" d="M133.1,165.8v-0.8c-0.6,0.6-1.3,0.9-2.2,0.9c-1.1,0-2.2-0.8-2.2-2.1c0-1.4,1.1-2.1,2.2-2.1
	c0.9,0,1.6,0.3,2.2,0.9v-1.3c0-1-0.8-1.5-1.7-1.5c-0.8,0-1.4,0.3-2,0.9l-0.4-0.5c0.7-0.7,1.4-1.1,2.5-1.1c1.3,0,2.3,0.6,2.3,2.1v4.5
	H133.1 M133.1,164.6v-1.4c-0.4-0.6-1.2-0.9-1.9-0.9c-1,0-1.8,0.7-1.8,1.6c0,0.9,0.7,1.6,1.8,1.6C132,165.4,132.7,165.2,133.1,164.6z
	"/>
<path class="st1" d="M144.1,165.8v-1c-0.4,0.7-1.3,1.2-2.2,1.2c-1.7,0-2.9-1.3-2.9-3.4c0-2,1.2-3.4,2.9-3.4c0.9,0,1.7,0.5,2.2,1.2
	V157h0.7v8.8H144.1 M144.1,164.2v-3.2c-0.4-0.6-1.2-1.2-2.1-1.2c-1.4,0-2.2,1.2-2.2,2.7c0,1.6,0.8,2.7,2.2,2.7
	C142.9,165.4,143.7,164.8,144.1,164.2z"/>
<path class="st1" d="M146.6,162.6c0-1.9,1.3-3.4,3.1-3.4c1.9,0,3,1.5,3,3.4v0.2h-5.4c0.1,1.4,1,2.5,2.5,2.5c0.8,0,1.6-0.3,2.1-0.9
	l0.4,0.4c-0.6,0.7-1.4,1-2.5,1C147.9,166,146.6,164.6,146.6,162.6 M149.7,159.9c-1.5,0-2.3,1.3-2.3,2.4h4.7
	C152,161.2,151.3,159.9,149.7,159.9z"/>
<path class="st1" d="M157.4,165.8v-1.5c3.6-2.7,4.7-3.6,4.7-4.7c0-0.8-0.7-1.2-1.4-1.2c-1,0-1.8,0.4-2.4,1l-1.1-1.2
	c0.9-1,2.2-1.4,3.4-1.4c1.9,0,3.4,1.1,3.4,2.8c0,1.5-1.2,2.8-3.5,4.5h3.6v1.7H157.4"/>
<path class="st1" d="M166.2,167.7l-0.7-0.6c0.4-0.2,0.9-0.8,1-1.2l-0.3,0c-0.5,0-0.9-0.4-0.9-1c0-0.6,0.5-1.1,1-1.1
	c0.6,0,1.2,0.5,1.2,1.4C167.6,166.2,167.1,167.1,166.2,167.7"/>
<path class="st1" d="M168.8,164.7l1-1.3c0.6,0.6,1.4,1,2.3,1c1,0,1.6-0.6,1.6-1.3c0-0.8-0.6-1.3-1.6-1.3c-0.7,0-1.3,0.2-1.9,0.7
	l-1.3-0.4V157h6.1v1.7H171v2.2c0.4-0.4,1.1-0.7,1.9-0.7c1.5,0,2.8,1.1,2.8,2.9c0,1.9-1.4,3.1-3.5,3.1
	C170.7,166,169.5,165.5,168.8,164.7"/>
<path class="st1" d="M188.4,165.8v-4c0-0.6-0.3-1-1-1c-0.6,0-1.1,0.4-1.3,0.7v4.3h-1.7v-4c0-0.6-0.3-1-1-1c-0.6,0-1.1,0.4-1.3,0.7
	v4.3h-1.7v-6.4h1.7v0.8c0.3-0.4,1.1-1,2.1-1c0.9,0,1.6,0.4,1.8,1.2c0.4-0.6,1.2-1.2,2.2-1.2c1.2,0,1.9,0.6,1.9,1.9v4.6H188.4"/>
<path class="st1" d="M191.6,167.5l0.8-1.2c0.5,0.6,1.2,0.8,2,0.8c0.8,0,1.8-0.3,1.8-1.6v-0.6c-0.5,0.6-1.2,1-2,1
	c-1.6,0-2.8-1.1-2.8-3.2c0-2.1,1.2-3.3,2.8-3.3c0.8,0,1.5,0.3,2,1v-0.8h1.7v6c0,2.4-1.9,3-3.5,3
	C193.3,168.4,192.4,168.2,191.6,167.5 M196.1,163.6v-2.1c-0.3-0.4-0.9-0.7-1.4-0.7c-1,0-1.6,0.7-1.6,1.8c0,1.1,0.7,1.8,1.6,1.8
	C195.2,164.3,195.8,164,196.1,163.6z"/>
<polyline class="st1" points="198.6,166.1 201.8,156.7 203,156.7 199.8,166.1 198.6,166.1 "/>
<polyline class="st1" points="208,165.8 206.3,163.4 205.5,164.2 205.5,165.8 203.8,165.8 203.8,157 205.5,157 205.5,162.3 
	207.9,159.4 210,159.4 207.5,162.3 210.1,165.8 208,165.8 "/>
<path class="st1" d="M210.8,167.5l0.8-1.2c0.5,0.6,1.2,0.8,2,0.8c0.8,0,1.8-0.3,1.8-1.6v-0.6c-0.5,0.6-1.2,1-2,1
	c-1.6,0-2.8-1.1-2.8-3.2c0-2.1,1.2-3.3,2.8-3.3c0.8,0,1.5,0.3,2,1v-0.8h1.7v6c0,2.4-1.9,3-3.5,3
	C212.5,168.4,211.6,168.2,210.8,167.5 M215.3,163.6v-2.1c-0.3-0.4-0.9-0.7-1.4-0.7c-1,0-1.6,0.7-1.6,1.8c0,1.1,0.7,1.8,1.6,1.8
	C214.4,164.3,215,164,215.3,163.6z"/>
<polyline class="st1" points="208.7,297 208.7,288.2 214.4,288.2 214.4,288.9 209.5,288.9 209.5,292.1 214.3,292.1 214.3,292.8 
	209.5,292.8 209.5,296.3 214.4,296.3 214.4,297 208.7,297 "/>
<path class="st1" d="M220.5,297v-4.3c0-1.2-0.6-1.6-1.6-1.6c-0.8,0-1.7,0.5-2.1,1.1v4.8h-0.7v-6.4h0.7v1c0.5-0.6,1.4-1.1,2.3-1.1
	c1.3,0,2,0.6,2,2.1v4.5H220.5"/>
<path class="st1" d="M223.5,295.8v-4.6h-1.1v-0.6h1.1v-1.8h0.7v1.8h1.3v0.6h-1.3v4.5c0,0.5,0.2,0.9,0.7,0.9c0.3,0,0.6-0.1,0.7-0.3
	l0.3,0.5c-0.3,0.2-0.6,0.4-1.1,0.4C223.9,297.2,223.5,296.7,223.5,295.8"/>
<path class="st1" d="M227,297v-6.4h0.7v1.1c0.5-0.7,1.3-1.2,2.2-1.2v0.8l-0.3,0c-0.6,0-1.5,0.6-1.8,1.1v4.7H227"/>
<path class="st1" d="M230.8,293.8c0-1.9,1.3-3.4,3.1-3.4c1.9,0,3,1.5,3,3.4v0.2h-5.4c0.1,1.4,1,2.5,2.5,2.5c0.8,0,1.6-0.3,2.1-0.9
	l0.4,0.4c-0.6,0.7-1.4,1-2.5,1C232.1,297.2,230.8,295.8,230.8,293.8 M233.9,291.1c-1.5,0-2.3,1.3-2.3,2.4h4.7
	C236.2,292.4,235.5,291.1,233.9,291.1z"/>
<path class="st1" d="M246.8,297v-1c-0.4,0.7-1.3,1.2-2.2,1.2c-1.7,0-2.9-1.3-2.9-3.4c0-2,1.2-3.4,2.9-3.4c0.9,0,1.7,0.5,2.2,1.2
	v-3.5h0.7v8.8H246.8 M246.8,295.4v-3.2c-0.4-0.6-1.2-1.2-2.1-1.2c-1.4,0-2.2,1.2-2.2,2.7c0,1.5,0.8,2.7,2.2,2.7
	C245.6,296.6,246.5,296,246.8,295.4z"/>
<path class="st1" d="M249.3,293.8c0-1.9,1.2-3.4,3.1-3.4c1.9,0,3.1,1.5,3.1,3.4c0,1.9-1.2,3.4-3.1,3.4
	C250.5,297.2,249.3,295.7,249.3,293.8 M254.7,293.8c0-1.4-0.8-2.7-2.3-2.7c-1.5,0-2.3,1.3-2.3,2.7c0,1.4,0.8,2.7,2.3,2.7
	C253.9,296.6,254.7,295.2,254.7,293.8z"/>
<path class="st1" d="M256.7,296.2l0.4-0.5c0.4,0.5,1.2,0.9,2.1,0.9c1.1,0,1.7-0.6,1.7-1.3c0-1.7-4-0.8-4-3.1c0-1,0.8-1.8,2.3-1.8
	c1.1,0,1.8,0.4,2.3,0.9l-0.4,0.5c-0.4-0.5-1.1-0.9-1.9-0.9c-1,0-1.6,0.5-1.6,1.2c0,1.6,4,0.6,4,3.1c0,1-0.8,1.9-2.4,1.9
	C258.1,297.2,257.3,296.9,256.7,296.2"/>
<path class="st1" d="M263.1,289.1c0-0.3,0.3-0.5,0.5-0.5c0.3,0,0.5,0.2,0.5,0.5c0,0.3-0.2,0.5-0.5,0.5
	C263.4,289.6,263.1,289.4,263.1,289.1 M264,297h-0.7v-6.4h0.7V297z"/>
<path class="st1" d="M265.6,296.2l0.4-0.5c0.4,0.5,1.2,0.9,2.1,0.9c1.1,0,1.7-0.6,1.7-1.3c0-1.7-4-0.8-4-3.1c0-1,0.8-1.8,2.3-1.8
	c1.1,0,1.8,0.4,2.3,0.9l-0.4,0.5c-0.4-0.5-1.1-0.9-1.9-0.9c-1,0-1.6,0.5-1.6,1.2c0,1.6,4,0.6,4,3.1c0,1-0.8,1.9-2.4,1.9
	C267,297.2,266.2,296.9,265.6,296.2"/>
<path class="st1" d="M280.4,297v-1c-0.4,0.7-1.3,1.2-2.2,1.2c-1.7,0-2.9-1.3-2.9-3.4c0-2,1.2-3.4,2.9-3.4c0.9,0,1.7,0.5,2.2,1.2
	v-3.5h0.7v8.8H280.4 M280.4,295.4v-3.2c-0.4-0.6-1.2-1.2-2.1-1.2c-1.4,0-2.2,1.2-2.2,2.7c0,1.5,0.8,2.7,2.2,2.7
	C279.1,296.6,280,296,280.4,295.4z"/>
<path class="st1" d="M282.8,293.8c0-1.9,1.3-3.4,3.1-3.4c1.9,0,3,1.5,3,3.4v0.2h-5.4c0.1,1.4,1,2.5,2.5,2.5c0.8,0,1.6-0.3,2.1-0.9
	l0.4,0.4c-0.6,0.7-1.4,1-2.5,1C284.2,297.2,282.8,295.8,282.8,293.8 M285.9,291.1c-1.5,0-2.3,1.3-2.3,2.4h4.7
	C288.2,292.4,287.5,291.1,285.9,291.1z"/>
<path class="st1" d="M293.9,289.1c0-0.3,0.3-0.5,0.5-0.5c0.3,0,0.5,0.2,0.5,0.5c0,0.3-0.2,0.5-0.5,0.5
	C294.2,289.6,293.9,289.4,293.9,289.1 M294.8,297h-0.7v-6.4h0.7V297z"/>
<path class="st1" d="M301.3,297v-4.3c0-1.2-0.6-1.6-1.6-1.6c-0.8,0-1.7,0.5-2.1,1.1v4.8H297v-6.4h0.7v1c0.5-0.6,1.4-1.1,2.3-1.1
	c1.3,0,2,0.6,2,2.1v4.5H301.3"/>
<path class="st1" d="M303.9,289.1c0-0.3,0.3-0.5,0.5-0.5c0.3,0,0.5,0.2,0.5,0.5c0,0.3-0.2,0.5-0.5,0.5
	C304.2,289.6,303.9,289.4,303.9,289.1 M304.8,297h-0.7v-6.4h0.7V297z"/>
<path class="st1" d="M306.6,293.8c0-1.9,1.2-3.4,3.1-3.4c1.1,0,1.8,0.4,2.3,1.1l-0.5,0.4c-0.5-0.6-1-0.9-1.7-0.9
	c-1.5,0-2.4,1.2-2.4,2.7c0,1.5,0.9,2.7,2.4,2.7c0.7,0,1.3-0.3,1.7-0.9l0.5,0.4c-0.5,0.7-1.2,1.1-2.3,1.1
	C307.8,297.2,306.6,295.7,306.6,293.8"/>
<path class="st1" d="M313.3,289.1c0-0.3,0.3-0.5,0.5-0.5c0.3,0,0.5,0.2,0.5,0.5c0,0.3-0.2,0.5-0.5,0.5
	C313.5,289.6,313.3,289.4,313.3,289.1 M314.2,297h-0.7v-6.4h0.7V297z"/>
<path class="st1" d="M316,293.8c0-1.9,1.2-3.4,3.1-3.4c1.9,0,3.1,1.5,3.1,3.4c0,1.9-1.2,3.4-3.1,3.4
	C317.2,297.2,316,295.7,316,293.8 M321.4,293.8c0-1.4-0.8-2.7-2.3-2.7c-1.5,0-2.3,1.3-2.3,2.7c0,1.4,0.8,2.7,2.3,2.7
	C320.5,296.6,321.4,295.2,321.4,293.8z"/>
<path class="st1" d="M327,298.9l0.6,0.1c0.4,0,0.7-0.2,1-0.8l0.5-1.1l-2.7-6.5h0.8l2.3,5.6l2.3-5.6h0.8l-3.3,7.8
	c-0.3,0.8-0.9,1.2-1.6,1.2c-0.2,0-0.5,0-0.7-0.1L327,298.9"/>
<path class="st1" d="M341.8,297v-1c-0.4,0.7-1.3,1.2-2.2,1.2c-1.7,0-2.8-1.3-2.8-3.4c0-2,1.2-3.4,2.8-3.4c0.9,0,1.7,0.5,2.2,1.2
	v-3.5h0.7v8.8H341.8 M341.8,295.4v-3.2c-0.4-0.6-1.2-1.2-2.1-1.2c-1.4,0-2.2,1.2-2.2,2.7c0,1.5,0.8,2.7,2.2,2.7
	C340.6,296.6,341.4,296,341.8,295.4z"/>
<path class="st1" d="M344.3,293.8c0-1.9,1.2-3.4,3.1-3.4c1.9,0,3.1,1.5,3.1,3.4c0,1.9-1.2,3.4-3.1,3.4
	C345.5,297.2,344.3,295.7,344.3,293.8 M349.7,293.8c0-1.4-0.8-2.7-2.3-2.7c-1.5,0-2.3,1.3-2.3,2.7c0,1.4,0.8,2.7,2.3,2.7
	C348.9,296.6,349.7,295.2,349.7,293.8z"/>
<path class="st1" d="M351.7,296.2l0.4-0.5c0.4,0.5,1.2,0.9,2.1,0.9c1.1,0,1.7-0.6,1.7-1.3c0-1.7-4-0.8-4-3.1c0-1,0.8-1.8,2.3-1.8
	c1.1,0,1.8,0.4,2.3,0.9l-0.4,0.5c-0.4-0.5-1.1-0.9-1.9-0.9c-1,0-1.6,0.5-1.6,1.2c0,1.6,4,0.6,4,3.1c0,1-0.8,1.9-2.4,1.9
	C353.1,297.2,352.3,296.9,351.7,296.2"/>
<path class="st1" d="M358.1,289.1c0-0.3,0.3-0.5,0.5-0.5c0.3,0,0.5,0.2,0.5,0.5c0,0.3-0.2,0.5-0.5,0.5
	C358.4,289.6,358.1,289.4,358.1,289.1 M359,297h-0.7v-6.4h0.7V297z"/>
<path class="st1" d="M360.6,296.2l0.4-0.5c0.4,0.5,1.2,0.9,2.1,0.9c1.1,0,1.7-0.6,1.7-1.3c0-1.7-4-0.8-4-3.1c0-1,0.8-1.8,2.3-1.8
	c1.1,0,1.8,0.4,2.3,0.9l-0.4,0.5c-0.4-0.5-1.1-0.9-1.9-0.9c-1,0-1.6,0.5-1.6,1.2c0,1.6,4,0.6,4,3.1c0,1-0.8,1.9-2.4,1.9
	C362,297.2,361.2,296.9,360.6,296.2"/>
<path class="st1" d="M206.8,312.9v-1c-0.4,0.7-1.3,1.2-2.2,1.2c-1.7,0-2.8-1.3-2.8-3.3c0-2,1.2-3.4,2.8-3.4c0.9,0,1.7,0.5,2.2,1.2
	v-3.5h0.7v8.8H206.8 M206.8,311.3v-3.2c-0.4-0.6-1.2-1.2-2.1-1.2c-1.4,0-2.2,1.2-2.2,2.7c0,1.5,0.8,2.7,2.2,2.7
	C205.6,312.4,206.4,311.9,206.8,311.3z"/>
<path class="st1" d="M209.3,309.7c0-1.9,1.3-3.3,3.1-3.3c1.9,0,3,1.5,3,3.4v0.2H210c0.1,1.4,1,2.5,2.5,2.5c0.8,0,1.6-0.3,2.1-0.9
	l0.4,0.4c-0.6,0.7-1.4,1-2.5,1C210.6,313.1,209.3,311.7,209.3,309.7 M212.3,306.9c-1.5,0-2.3,1.3-2.3,2.4h4.7
	C214.6,308.3,213.9,306.9,212.3,306.9z"/>
<path class="st1" d="M228.2,312.9v-4.5c0-0.9-0.4-1.5-1.3-1.5c-0.7,0-1.5,0.5-1.8,1.1v4.8h-0.7v-4.5c0-0.9-0.4-1.5-1.3-1.5
	c-0.7,0-1.5,0.5-1.8,1.1v4.8h-0.7v-6.4h0.7v1c0.3-0.4,1.1-1.1,2.1-1.1c1,0,1.5,0.6,1.7,1.2c0.4-0.6,1.2-1.2,2.1-1.2
	c1.2,0,1.8,0.7,1.8,1.9v4.6H228.2"/>
<path class="st1" d="M235.1,312.9v-0.8c-0.6,0.6-1.3,0.9-2.2,0.9c-1.1,0-2.2-0.8-2.2-2.1c0-1.4,1.1-2.1,2.2-2.1
	c0.9,0,1.6,0.3,2.2,0.9v-1.3c0-1-0.8-1.5-1.7-1.5c-0.8,0-1.4,0.3-2,0.9l-0.4-0.5c0.7-0.7,1.4-1.1,2.5-1.1c1.3,0,2.3,0.6,2.3,2.1v4.5
	H235.1 M235.1,311.6v-1.4c-0.5-0.6-1.2-0.9-1.9-0.9c-1,0-1.7,0.7-1.7,1.6c0,0.9,0.7,1.6,1.7,1.6
	C233.9,312.5,234.6,312.2,235.1,311.6z"/>
<path class="st1" d="M242.2,312.9v-4.3c0-1.2-0.6-1.6-1.6-1.6c-0.8,0-1.7,0.5-2.1,1.1v4.8h-0.7v-6.4h0.7v1c0.5-0.6,1.4-1.1,2.3-1.1
	c1.3,0,2,0.6,2,2.1v4.5H242.2"/>
<path class="st1" d="M245.2,311.7v-4.6h-1.1v-0.6h1.1v-1.7h0.7v1.7h1.3v0.6h-1.3v4.4c0,0.5,0.2,0.9,0.7,0.9c0.3,0,0.6-0.1,0.7-0.3
	l0.3,0.5c-0.3,0.2-0.6,0.4-1.1,0.4C245.6,313.1,245.2,312.5,245.2,311.7"/>
<path class="st1" d="M248.3,309.7c0-1.9,1.3-3.3,3.1-3.3c1.9,0,3,1.5,3,3.4v0.2h-5.4c0.1,1.4,1,2.5,2.5,2.5c0.8,0,1.5-0.3,2.1-0.9
	l0.4,0.4c-0.6,0.7-1.4,1-2.5,1C249.7,313.1,248.3,311.7,248.3,309.7 M251.4,306.9c-1.5,0-2.3,1.3-2.3,2.4h4.6
	C253.7,308.3,253,306.9,251.4,306.9z"/>
<path class="st1" d="M260.5,312.9v-4.3c0-1.2-0.6-1.6-1.6-1.6c-0.8,0-1.7,0.5-2.1,1.1v4.8h-0.7v-6.4h0.7v1c0.5-0.6,1.4-1.1,2.3-1.1
	c1.3,0,2,0.6,2,2.1v4.5H260.5"/>
<path class="st1" d="M263.2,305c0-0.3,0.3-0.5,0.5-0.5c0.3,0,0.5,0.2,0.5,0.5c0,0.3-0.2,0.5-0.5,0.5
	C263.4,305.5,263.2,305.3,263.2,305 M264,312.9h-0.7v-6.4h0.7V312.9z"/>
<path class="st1" d="M273.8,312.9v-4.5c0-0.9-0.4-1.5-1.3-1.5c-0.7,0-1.5,0.5-1.8,1.1v4.8H270v-4.5c0-0.9-0.4-1.5-1.3-1.5
	c-0.7,0-1.5,0.5-1.8,1.1v4.8h-0.7v-6.4h0.7v1c0.3-0.4,1.1-1.1,2.1-1.1c1,0,1.5,0.6,1.7,1.2c0.4-0.6,1.2-1.2,2.1-1.2
	c1.2,0,1.7,0.7,1.7,1.9v4.6H273.8"/>
<path class="st1" d="M276.4,305c0-0.3,0.3-0.5,0.5-0.5c0.3,0,0.5,0.2,0.5,0.5c0,0.3-0.2,0.5-0.5,0.5
	C276.7,305.5,276.4,305.3,276.4,305 M277.3,312.9h-0.7v-6.4h0.7V312.9z"/>
<path class="st1" d="M279.1,309.7c0-1.9,1.3-3.3,3.1-3.3c1.9,0,3,1.5,3,3.4v0.2h-5.4c0.1,1.4,1,2.5,2.5,2.5c0.8,0,1.6-0.3,2.1-0.9
	l0.4,0.4c-0.6,0.7-1.4,1-2.5,1C280.4,313.1,279.1,311.7,279.1,309.7 M282.2,306.9c-1.5,0-2.3,1.3-2.3,2.4h4.7
	C284.5,308.3,283.8,306.9,282.2,306.9z"/>
<path class="st1" d="M291.3,312.9v-4.3c0-1.2-0.6-1.6-1.6-1.6c-0.8,0-1.7,0.5-2.1,1.1v4.8H287v-6.4h0.7v1c0.5-0.6,1.4-1.1,2.3-1.1
	c1.3,0,2,0.6,2,2.1v4.5H291.3"/>
<path class="st1" d="M294.2,311.7v-4.6h-1.1v-0.6h1.1v-1.7h0.7v1.7h1.3v0.6h-1.3v4.4c0,0.5,0.2,0.9,0.7,0.9c0.3,0,0.6-0.1,0.7-0.3
	l0.3,0.5c-0.3,0.2-0.6,0.4-1.1,0.4C294.6,313.1,294.2,312.5,294.2,311.7"/>
<path class="st1" d="M297.4,309.7c0-1.9,1.2-3.3,3.1-3.3c1.9,0,3.1,1.5,3.1,3.3c0,1.9-1.2,3.4-3.1,3.4
	C298.6,313.1,297.4,311.6,297.4,309.7 M302.8,309.7c0-1.4-0.8-2.7-2.3-2.7c-1.5,0-2.3,1.3-2.3,2.7c0,1.4,0.8,2.7,2.3,2.7
	C302,312.4,302.8,311.1,302.8,309.7z"/>
<path class="st1" d="M313.4,312.9v-1c-0.4,0.7-1.3,1.2-2.2,1.2c-1.7,0-2.8-1.3-2.8-3.3c0-2,1.2-3.4,2.8-3.4c0.9,0,1.7,0.5,2.2,1.2
	v-3.5h0.7v8.8H313.4 M313.4,311.3v-3.2c-0.4-0.6-1.2-1.2-2.1-1.2c-1.4,0-2.2,1.2-2.2,2.7c0,1.5,0.8,2.7,2.2,2.7
	C312.2,312.4,313.1,311.9,313.4,311.3z"/>
<path class="st1" d="M315.9,309.7c0-1.9,1.3-3.3,3.1-3.3c1.9,0,3,1.5,3,3.4v0.2h-5.3c0.1,1.4,1,2.5,2.5,2.5c0.8,0,1.6-0.3,2.1-0.9
	l0.4,0.4c-0.6,0.7-1.4,1-2.5,1C317.3,313.1,315.9,311.7,315.9,309.7 M319,306.9c-1.5,0-2.3,1.3-2.3,2.4h4.7
	C321.3,308.3,320.6,306.9,319,306.9z"/>
<path class="st1" d="M323.8,312.9v-8.8h0.7v3.5c0.5-0.7,1.3-1.2,2.2-1.2c1.7,0,2.9,1.3,2.9,3.4c0,2.1-1.2,3.3-2.9,3.3
	c-1,0-1.8-0.5-2.2-1.2v1H323.8 M326.6,312.4c1.4,0,2.2-1.2,2.2-2.7c0-1.6-0.8-2.7-2.2-2.7c-0.9,0-1.7,0.6-2.1,1.2v3.2
	C324.9,311.9,325.7,312.4,326.6,312.4z"/>
<path class="st1" d="M331,309.7c0-1.9,1.3-3.3,3.1-3.3c1.9,0,3,1.5,3,3.4v0.2h-5.3c0.1,1.4,1,2.5,2.5,2.5c0.8,0,1.5-0.3,2.1-0.9
	l0.4,0.4c-0.6,0.7-1.4,1-2.5,1C332.3,313.1,331,311.7,331,309.7 M334.1,306.9c-1.5,0-2.3,1.3-2.3,2.4h4.6
	C336.4,308.3,335.7,306.9,334.1,306.9z"/>
<path class="st1" d="M343,311.9v3.5h-0.7v-8.8h0.7v1c0.5-0.6,1.3-1.2,2.2-1.2c1.7,0,2.9,1.3,2.9,3.3c0,2-1.2,3.4-2.9,3.4
	C344.3,313.1,343.5,312.6,343,311.9 M347.3,309.7c0-1.6-0.8-2.7-2.2-2.7c-0.9,0-1.7,0.5-2.1,1.1v3.2c0.4,0.6,1.2,1.2,2.1,1.2
	C346.5,312.4,347.3,311.2,347.3,309.7z"/>
<path class="st1" d="M353.9,312.9v-0.8c-0.6,0.6-1.3,0.9-2.2,0.9c-1.1,0-2.2-0.8-2.2-2.1c0-1.4,1.1-2.1,2.2-2.1
	c0.9,0,1.6,0.3,2.2,0.9v-1.3c0-1-0.8-1.5-1.7-1.5c-0.8,0-1.4,0.3-2,0.9l-0.4-0.5c0.7-0.7,1.4-1.1,2.5-1.1c1.3,0,2.3,0.6,2.3,2.1v4.5
	H353.9 M353.9,311.6v-1.4c-0.5-0.6-1.2-0.9-1.9-0.9c-1.1,0-1.7,0.7-1.7,1.6c0,0.9,0.7,1.6,1.7,1.6
	C352.7,312.5,353.4,312.2,353.9,311.6z"/>
<path class="st1" d="M356.1,312l0.4-0.5c0.4,0.5,1.2,0.9,2.1,0.9c1.1,0,1.7-0.6,1.7-1.3c0-1.7-4-0.8-4-3.1c0-1,0.8-1.8,2.3-1.8
	c1.1,0,1.8,0.4,2.3,0.9l-0.4,0.5c-0.4-0.5-1.1-0.8-1.9-0.8c-1,0-1.6,0.5-1.6,1.2c0,1.6,4,0.6,4,3.1c0,1-0.8,1.9-2.4,1.9
	C357.6,313.1,356.8,312.8,356.1,312"/>
<path class="st1" d="M366.8,312.9v-0.8c-0.6,0.6-1.3,0.9-2.2,0.9c-1.1,0-2.2-0.8-2.2-2.1c0-1.4,1.1-2.1,2.2-2.1
	c0.9,0,1.6,0.3,2.2,0.9v-1.3c0-1-0.8-1.5-1.7-1.5c-0.8,0-1.4,0.3-2,0.9l-0.4-0.5c0.7-0.7,1.4-1.1,2.5-1.1c1.3,0,2.3,0.6,2.3,2.1v4.5
	H366.8 M366.8,311.6v-1.4c-0.4-0.6-1.2-0.9-1.9-0.9c-1,0-1.7,0.7-1.7,1.6c0,0.9,0.7,1.6,1.7,1.6
	C365.7,312.5,366.4,312.2,366.8,311.6z"/>
<path class="st1" d="M369.7,312.9v-6.4h0.7v1.1c0.5-0.7,1.3-1.2,2.2-1.2v0.8l-0.3,0c-0.6,0-1.5,0.6-1.8,1.1v4.7H369.7"/>
<path class="st1" d="M234.8,328.8V328c-0.6,0.6-1.3,0.9-2.2,0.9c-1.1,0-2.2-0.8-2.2-2.1c0-1.4,1.1-2.1,2.2-2.1
	c0.9,0,1.6,0.3,2.2,0.9v-1.3c0-1-0.8-1.5-1.7-1.5c-0.8,0-1.4,0.3-2,0.9l-0.4-0.5c0.7-0.7,1.4-1.1,2.5-1.1c1.3,0,2.3,0.6,2.3,2.1v4.5
	H234.8 M234.8,327.5v-1.4c-0.5-0.6-1.2-0.9-1.9-0.9c-1.1,0-1.8,0.7-1.8,1.6c0,0.9,0.7,1.6,1.8,1.6
	C233.6,328.4,234.3,328.1,234.8,327.5z"/>
<rect x="237.6" y="320" class="st1" width="0.7" height="8.8"/>
<path class="st1" d="M251.5,328.8v-4.5c0-0.9-0.4-1.5-1.3-1.5c-0.7,0-1.5,0.5-1.8,1.1v4.8h-0.7v-4.5c0-0.9-0.4-1.5-1.3-1.5
	c-0.7,0-1.5,0.5-1.8,1.1v4.8h-0.7v-6.4h0.7v1c0.3-0.4,1.1-1.1,2.1-1.1c1,0,1.5,0.6,1.7,1.2c0.4-0.6,1.2-1.2,2.1-1.2
	c1.2,0,1.8,0.7,1.8,1.9v4.6H251.5"/>
<path class="st1" d="M253.9,325.6c0-1.9,1.3-3.3,3.1-3.3c1.9,0,3,1.5,3,3.4v0.2h-5.4c0.1,1.4,1,2.5,2.5,2.5c0.8,0,1.6-0.3,2.1-0.9
	l0.4,0.5c-0.6,0.7-1.4,1-2.5,1C255.3,328.9,253.9,327.6,253.9,325.6 M257,322.8c-1.5,0-2.3,1.3-2.3,2.4h4.7
	C259.3,324.2,258.6,322.8,257,322.8z"/>
<path class="st1" d="M266.1,328.8v-4.3c0-1.2-0.6-1.6-1.6-1.6c-0.8,0-1.7,0.5-2.1,1.1v4.8h-0.7v-6.4h0.7v1c0.5-0.6,1.4-1.1,2.3-1.1
	c1.3,0,2,0.6,2,2.1v4.5H266.1"/>
<path class="st1" d="M268.6,325.6c0-1.9,1.2-3.3,3.1-3.3c1.9,0,3.1,1.5,3.1,3.3c0,1.9-1.2,3.4-3.1,3.4
	C269.8,328.9,268.6,327.4,268.6,325.6 M274,325.6c0-1.4-0.8-2.7-2.3-2.7c-1.5,0-2.3,1.3-2.3,2.7c0,1.4,0.8,2.7,2.3,2.7
	C273.2,328.3,274,327,274,325.6z"/>
<path class="st1" d="M276,327.9l0.4-0.5c0.4,0.5,1.2,0.9,2.1,0.9c1.1,0,1.7-0.6,1.7-1.3c0-1.7-4-0.8-4-3.1c0-1,0.8-1.8,2.3-1.8
	c1.1,0,1.8,0.4,2.3,0.9l-0.4,0.5c-0.4-0.5-1.1-0.8-1.9-0.8c-1,0-1.6,0.5-1.6,1.2c0,1.6,4,0.6,4,3.1c0,1-0.8,1.9-2.4,1.9
	C277.4,328.9,276.6,328.6,276,327.9"/>
<polyline class="st1" points="287.6,328.8 287.6,322.4 286.2,323.9 285.1,322.7 287.9,320 289.5,320 289.5,328.8 287.6,328.8 "/>
<path class="st1" d="M294.1,328l0.7-1.2c0.5,0.4,1.4,0.9,2.2,0.9c0.7,0,1.1-0.3,1.1-0.7c0-1-3.8-0.2-3.8-2.7c0-1.1,0.9-2,2.6-2
	c1.1,0,1.9,0.4,2.6,0.9l-0.7,1.2c-0.4-0.4-1.1-0.7-1.9-0.7c-0.6,0-1,0.3-1,0.6c0,0.9,3.8,0.1,3.8,2.7c0,1.2-1,2-2.8,2
	C295.8,328.9,294.7,328.6,294.1,328"/>
<path class="st1" d="M300.5,325.6c0-1.9,1.4-3.3,3.3-3.3c1.9,0,3.2,1.4,3.2,3.5v0.4h-4.8c0.1,0.8,0.8,1.4,1.8,1.4
	c0.5,0,1.3-0.2,1.7-0.6l0.8,1.1c-0.6,0.6-1.6,0.9-2.6,0.9C302,328.9,300.5,327.6,300.5,325.6 M303.8,323.6c-1,0-1.5,0.7-1.6,1.4h3.2
	C305.4,324.4,305,323.6,303.8,323.6z"/>
<path class="st1" d="M316.2,328.8v-4c0-0.6-0.3-1-1-1c-0.6,0-1.1,0.4-1.3,0.7v4.3h-1.7v-4c0-0.6-0.3-1-1-1c-0.6,0-1.1,0.4-1.3,0.7
	v4.3h-1.7v-6.4h1.7v0.8c0.3-0.4,1.1-1,2.1-1c0.9,0,1.6,0.4,1.8,1.2c0.4-0.6,1.2-1.2,2.2-1.2c1.2,0,1.9,0.6,1.9,1.9v4.6H316.2"/>
<path class="st1" d="M323.4,328.8v-0.7c-0.4,0.5-1.2,0.8-2,0.8c-1,0-2.2-0.7-2.2-2.1c0-1.5,1.2-2.1,2.2-2.1c0.9,0,1.6,0.3,2,0.8
	v-0.8c0-0.7-0.6-1.1-1.4-1.1c-0.7,0-1.3,0.3-1.8,0.8l-0.7-1.2c0.8-0.7,1.8-1,2.8-1c1.5,0,2.8,0.6,2.8,2.4v4.1H323.4 M323.4,327.3
	v-0.8c-0.3-0.4-0.8-0.6-1.4-0.6c-0.7,0-1.2,0.4-1.2,1c0,0.6,0.5,1,1.2,1C322.6,327.8,323.1,327.6,323.4,327.3z"/>
<path class="st1" d="M331.1,328.8v-3.9c0-0.9-0.5-1.2-1.2-1.2c-0.7,0-1.2,0.4-1.5,0.7v4.3h-1.7v-6.4h1.7v0.8c0.4-0.5,1.2-1,2.2-1
	c1.4,0,2.1,0.8,2.1,2v4.5H331.1"/>
<path class="st1" d="M338.2,328.8v-0.7c-0.4,0.5-1.2,0.8-2,0.8c-1,0-2.2-0.7-2.2-2.1c0-1.5,1.2-2.1,2.2-2.1c0.9,0,1.6,0.3,2,0.8
	v-0.8c0-0.7-0.6-1.1-1.4-1.1c-0.7,0-1.3,0.3-1.8,0.8l-0.7-1.2c0.8-0.7,1.8-1,2.8-1c1.5,0,2.8,0.6,2.8,2.4v4.1H338.2 M338.2,327.3
	v-0.8c-0.3-0.4-0.8-0.6-1.4-0.6c-0.7,0-1.2,0.4-1.2,1c0,0.6,0.5,1,1.2,1C337.4,327.8,338,327.6,338.2,327.3z"/>
<path class="st1" d="M508.9,288.8l0.5-0.6c0.6,0.7,1.5,1.3,2.8,1.3c1.8,0,2.3-1,2.3-1.8c0-2.6-5.3-1.2-5.3-4.3
	c0-1.4,1.3-2.4,2.9-2.4c1.3,0,2.3,0.5,3,1.2l-0.5,0.6c-0.6-0.8-1.5-1.1-2.5-1.1c-1.2,0-2.1,0.7-2.1,1.6c0,2.3,5.3,1,5.3,4.3
	c0,1.1-0.8,2.5-3.1,2.5C510.7,290.2,509.6,289.6,508.9,288.8"/>
<path class="st1" d="M516.7,286.9c0-1.9,1.3-3.4,3.1-3.4c1.9,0,3,1.5,3,3.4v0.2h-5.4c0.1,1.4,1,2.5,2.5,2.5c0.8,0,1.6-0.3,2.1-0.9
	l0.4,0.4c-0.6,0.7-1.4,1-2.5,1C518,290.2,516.7,288.8,516.7,286.9 M519.8,284.1c-1.5,0-2.3,1.3-2.3,2.4h4.7
	C522.1,285.4,521.4,284.1,519.8,284.1z"/>
<path class="st1" d="M528.7,289v3.5H528v-8.8h0.7v1c0.4-0.6,1.3-1.2,2.2-1.2c1.7,0,2.9,1.3,2.9,3.4c0,2-1.2,3.4-2.9,3.4
	C530,290.2,529.2,289.8,528.7,289 M533,286.9c0-1.6-0.8-2.7-2.2-2.7c-0.9,0-1.7,0.5-2.1,1.1v3.2c0.4,0.6,1.2,1.2,2.1,1.2
	C532.2,289.6,533,288.4,533,286.9z"/>
<path class="st1" d="M539.8,290.1v-0.9c-0.5,0.6-1.4,1.1-2.3,1.1c-1.3,0-2-0.6-2-2.1v-4.5h0.7v4.3c0,1.2,0.6,1.6,1.6,1.6
	c0.8,0,1.7-0.5,2.1-1.1v-4.9h0.7v6.4H539.8"/>
<path class="st1" d="M542.3,286.9c0-1.9,1.3-3.4,3.1-3.4c1.9,0,3,1.5,3,3.4v0.2h-5.4c0.1,1.4,1,2.5,2.5,2.5c0.8,0,1.6-0.3,2.1-0.9
	l0.4,0.4c-0.6,0.7-1.4,1-2.5,1C543.6,290.2,542.3,288.8,542.3,286.9 M545.4,284.1c-1.5,0-2.3,1.3-2.3,2.4h4.7
	C547.7,285.4,547,284.1,545.4,284.1z"/>
<path class="st1" d="M554.9,290.1v-1c-0.4,0.7-1.3,1.2-2.2,1.2c-1.7,0-2.9-1.3-2.9-3.4c0-2,1.2-3.4,2.9-3.4c0.9,0,1.7,0.5,2.2,1.2
	v-3.5h0.7v8.8H554.9 M554.9,288.5v-3.2c-0.4-0.6-1.2-1.2-2.1-1.2c-1.4,0-2.2,1.2-2.2,2.7c0,1.6,0.8,2.7,2.2,2.7
	C553.7,289.6,554.5,289.1,554.9,288.5z"/>
<path class="st1" d="M557.4,286.9c0-1.9,1.3-3.4,3.1-3.4c1.9,0,3,1.5,3,3.4v0.2h-5.3c0.1,1.4,1,2.5,2.5,2.5c0.8,0,1.6-0.3,2.1-0.9
	l0.4,0.4c-0.6,0.7-1.4,1-2.5,1C558.7,290.2,557.4,288.8,557.4,286.9 M560.4,284.1c-1.5,0-2.3,1.3-2.3,2.4h4.6
	C562.8,285.4,562,284.1,560.4,284.1z"/>
<path class="st1" d="M568.5,282.1c0-0.3,0.3-0.5,0.5-0.5c0.3,0,0.5,0.2,0.5,0.5c0,0.3-0.2,0.5-0.5,0.5
	C568.7,282.7,568.5,282.4,568.5,282.1 M569.4,290.1h-0.7v-6.4h0.7V290.1z"/>
<path class="st1" d="M575.8,290.1v-4.3c0-1.2-0.6-1.6-1.6-1.6c-0.8,0-1.7,0.5-2.1,1.1v4.8h-0.7v-6.4h0.7v1c0.5-0.6,1.4-1.1,2.3-1.1
	c1.3,0,2,0.6,2,2.1v4.5H575.8"/>
<path class="st1" d="M578.3,286.9c0-1.9,1.2-3.4,3.1-3.4c1.1,0,1.7,0.4,2.3,1.1l-0.5,0.4c-0.5-0.6-1.1-0.9-1.8-0.9
	c-1.5,0-2.4,1.2-2.4,2.7c0,1.5,0.9,2.7,2.4,2.7c0.7,0,1.3-0.3,1.8-0.9l0.5,0.4c-0.5,0.7-1.2,1.1-2.3,1.1
	C579.5,290.2,578.3,288.7,578.3,286.9"/>
<path class="st1" d="M585.2,290.1v-6.4h0.7v1.1c0.5-0.7,1.3-1.2,2.2-1.2v0.8l-0.3,0c-0.7,0-1.5,0.6-1.8,1.1v4.7H585.2"/>
<path class="st1" d="M589,286.9c0-1.9,1.3-3.4,3.1-3.4c1.9,0,3,1.5,3,3.4v0.2h-5.3c0.1,1.4,1,2.5,2.5,2.5c0.8,0,1.6-0.3,2.1-0.9
	l0.4,0.4c-0.6,0.7-1.4,1-2.5,1C590.4,290.2,589,288.8,589,286.9 M592.1,284.1c-1.5,0-2.3,1.3-2.3,2.4h4.6
	C594.4,285.4,593.7,284.1,592.1,284.1z"/>
<path class="st1" d="M604.5,290.1v-4.5c0-0.9-0.4-1.5-1.3-1.5c-0.7,0-1.5,0.5-1.8,1.1v4.8h-0.7v-4.5c0-0.9-0.4-1.5-1.3-1.5
	c-0.7,0-1.5,0.5-1.8,1.1v4.8h-0.7v-6.4h0.7v1c0.3-0.4,1.1-1.1,2.1-1.1c1,0,1.5,0.6,1.7,1.2c0.4-0.6,1.2-1.2,2.1-1.2
	c1.2,0,1.8,0.7,1.8,1.9v4.6H604.5"/>
<path class="st1" d="M607,286.9c0-1.9,1.3-3.4,3.1-3.4c1.9,0,3,1.5,3,3.4v0.2h-5.4c0.1,1.4,1,2.5,2.5,2.5c0.8,0,1.6-0.3,2.1-0.9
	l0.4,0.4c-0.6,0.7-1.4,1-2.5,1C608.3,290.2,607,288.8,607,286.9 M610,284.1c-1.5,0-2.3,1.3-2.3,2.4h4.7
	C612.4,285.4,611.6,284.1,610,284.1z"/>
<path class="st1" d="M619.2,290.1v-4.3c0-1.2-0.6-1.6-1.6-1.6c-0.8,0-1.7,0.5-2.1,1.1v4.8h-0.7v-6.4h0.7v1c0.5-0.6,1.4-1.1,2.3-1.1
	c1.3,0,2,0.6,2,2.1v4.5H619.2"/>
<path class="st1" d="M622.1,288.8v-4.6h-1.1v-0.6h1.1v-1.8h0.7v1.8h1.3v0.6h-1.3v4.4c0,0.5,0.2,0.9,0.7,0.9c0.3,0,0.6-0.1,0.7-0.3
	l0.3,0.5c-0.3,0.2-0.6,0.4-1.1,0.4C622.5,290.2,622.1,289.7,622.1,288.8"/>
<path class="st1" d="M629.7,290.1v-0.8c-0.6,0.6-1.3,0.9-2.2,0.9c-1.1,0-2.2-0.8-2.2-2.1c0-1.4,1.1-2.1,2.2-2.1
	c0.9,0,1.6,0.3,2.2,0.9v-1.3c0-1-0.8-1.5-1.7-1.5c-0.8,0-1.4,0.3-2,0.9l-0.4-0.5c0.7-0.7,1.4-1.1,2.5-1.1c1.3,0,2.3,0.6,2.3,2.1v4.5
	H629.7 M629.7,288.8v-1.4c-0.4-0.6-1.2-0.9-1.9-0.9c-1.1,0-1.8,0.7-1.8,1.6c0,0.9,0.7,1.6,1.8,1.6
	C628.5,289.7,629.2,289.4,629.7,288.8z"/>
<path class="st1" d="M632.5,290.1v-6.4h0.7v1.1c0.5-0.7,1.3-1.2,2.2-1.2v0.8l-0.3,0c-0.6,0-1.5,0.6-1.8,1.1v4.7H632.5"/>
<path class="st1" d="M523.4,305.9v-1c-0.4,0.7-1.3,1.2-2.2,1.2c-1.7,0-2.8-1.3-2.8-3.4c0-2,1.2-3.4,2.8-3.4c0.9,0,1.7,0.5,2.2,1.2
	v-3.5h0.7v8.8H523.4 M523.4,304.3v-3.2c-0.4-0.6-1.2-1.2-2.1-1.2c-1.4,0-2.2,1.2-2.2,2.7c0,1.6,0.8,2.7,2.2,2.7
	C522.2,305.5,523,304.9,523.4,304.3z"/>
<path class="st1" d="M525.9,302.7c0-1.9,1.2-3.3,3.1-3.3c1.9,0,3.1,1.5,3.1,3.3c0,1.9-1.2,3.4-3.1,3.4
	C527.1,306.1,525.9,304.6,525.9,302.7 M531.3,302.7c0-1.4-0.8-2.7-2.3-2.7c-1.5,0-2.3,1.3-2.3,2.7c0,1.4,0.8,2.7,2.3,2.7
	C530.5,305.5,531.3,304.2,531.3,302.7z"/>
<path class="st1" d="M533.2,305.1l0.4-0.5c0.4,0.5,1.2,0.9,2.1,0.9c1.1,0,1.7-0.6,1.7-1.3c0-1.7-4-0.8-4-3.1c0-1,0.8-1.8,2.3-1.8
	c1.1,0,1.8,0.4,2.3,0.9l-0.4,0.5c-0.4-0.5-1.1-0.8-1.9-0.8c-1,0-1.6,0.5-1.6,1.2c0,1.6,4,0.6,4,3.1c0,1-0.8,1.9-2.4,1.9
	C534.7,306.1,533.9,305.8,533.2,305.1"/>
<path class="st1" d="M539.7,298c0-0.3,0.3-0.5,0.5-0.5c0.3,0,0.5,0.2,0.5,0.5c0,0.3-0.2,0.5-0.5,0.5
	C539.9,298.5,539.7,298.3,539.7,298 M540.6,305.9h-0.7v-6.4h0.7V305.9z"/>
<path class="st1" d="M542.1,305.1l0.4-0.5c0.4,0.5,1.2,0.9,2.1,0.9c1.1,0,1.7-0.6,1.7-1.3c0-1.7-4-0.8-4-3.1c0-1,0.8-1.8,2.3-1.8
	c1.1,0,1.8,0.4,2.3,0.9l-0.4,0.5c-0.4-0.5-1.1-0.8-1.9-0.8c-1,0-1.6,0.5-1.6,1.2c0,1.6,4,0.6,4,3.1c0,1-0.8,1.9-2.4,1.9
	C543.6,306.1,542.8,305.8,542.1,305.1"/>
<path class="st1" d="M551.8,304.8l1-1.3c0.6,0.6,1.4,1,2.3,1c1,0,1.6-0.6,1.6-1.3c0-0.8-0.6-1.3-1.6-1.3c-0.7,0-1.3,0.2-1.9,0.7
	l-1.3-0.4v-5.1h6.1v1.7h-4.2v2.2c0.4-0.4,1.1-0.7,1.9-0.7c1.5,0,2.8,1.1,2.8,2.9c0,1.9-1.4,3.1-3.5,3.1
	C553.7,306.1,552.5,305.6,551.8,304.8"/>
<path class="st1" d="M571.4,305.9v-4c0-0.6-0.3-1-0.9-1c-0.6,0-1.1,0.4-1.3,0.7v4.3h-1.7v-4c0-0.6-0.3-1-1-1c-0.6,0-1.1,0.4-1.3,0.7
	v4.3h-1.7v-6.4h1.7v0.8c0.3-0.4,1.1-1,2.1-1c0.9,0,1.6,0.4,1.8,1.2c0.4-0.6,1.2-1.2,2.2-1.2c1.2,0,1.9,0.6,1.9,1.9v4.6H571.4"/>
<path class="st1" d="M574.6,307.6l0.8-1.2c0.5,0.6,1.2,0.8,2,0.8c0.8,0,1.8-0.3,1.8-1.6v-0.6c-0.5,0.6-1.2,1-2,1
	c-1.6,0-2.8-1.1-2.8-3.2c0-2.1,1.2-3.3,2.8-3.3c0.8,0,1.5,0.3,2,1v-0.8h1.7v6c0,2.4-1.9,3-3.5,3
	C576.3,308.5,575.4,308.3,574.6,307.6 M579.1,303.7v-2.1c-0.3-0.4-0.9-0.7-1.4-0.7c-1,0-1.6,0.7-1.6,1.8c0,1.1,0.7,1.8,1.6,1.8
	C578.2,304.4,578.8,304.1,579.1,303.7z"/>
<polyline class="st1" points="581.6,306.2 584.8,296.8 586,296.8 582.8,306.2 581.6,306.2 "/>
<polyline class="st1" points="591,305.9 589.3,303.5 588.5,304.3 588.5,305.9 586.8,305.9 586.8,297.1 588.5,297.1 588.5,302.4 
	590.9,299.5 593,299.5 590.5,302.4 593.1,305.9 591,305.9 "/>
<path class="st1" d="M593.8,307.6l0.8-1.2c0.5,0.6,1.2,0.8,2,0.8c0.8,0,1.8-0.3,1.8-1.6v-0.6c-0.5,0.6-1.2,1-2,1
	c-1.6,0-2.8-1.1-2.8-3.2c0-2.1,1.2-3.3,2.8-3.3c0.8,0,1.5,0.3,2,1v-0.8h1.7v6c0,2.4-1.9,3-3.5,3
	C595.4,308.5,594.6,308.3,593.8,307.6 M598.3,303.7v-2.1c-0.3-0.4-0.9-0.7-1.4-0.7c-1,0-1.6,0.7-1.6,1.8c0,1.1,0.7,1.8,1.6,1.8
	C597.4,304.4,598,304.1,598.3,303.7z"/>
<polyline class="st1" points="600.8,306.2 604,296.8 605.2,296.8 602,306.2 600.8,306.2 "/>
<path class="st1" d="M610.4,305.9v-0.8c-0.5,0.6-1.2,1-2,1c-1.6,0-2.8-1.2-2.8-3.4c0-2.1,1.2-3.3,2.8-3.3c0.8,0,1.5,0.3,2,1v-3.3
	h1.7v8.8H610.4 M610.4,303.9v-2.3c-0.3-0.4-0.9-0.7-1.4-0.7c-1,0-1.6,0.8-1.6,1.9c0,1.1,0.7,1.9,1.6,1.9
	C609.5,304.6,610.1,304.3,610.4,303.9z"/>
<path class="st1" d="M614.7,298.6h-1.2l1.8-1.9h1.6L614.7,298.6 M615.4,305.9h-1.7v-6.4h1.7V305.9z"/>
<path class="st1" d="M621,305.9v-0.7c-0.4,0.5-1.2,0.8-2,0.8c-1,0-2.2-0.7-2.2-2.1c0-1.5,1.2-2.1,2.2-2.1c0.9,0,1.6,0.3,2,0.8v-0.8
	c0-0.6-0.6-1.1-1.4-1.1c-0.7,0-1.3,0.3-1.8,0.8l-0.7-1.2c0.8-0.7,1.8-1,2.8-1c1.5,0,2.8,0.6,2.8,2.4v4.1H621 M621,304.4v-0.8
	c-0.3-0.4-0.8-0.6-1.3-0.6c-0.7,0-1.2,0.4-1.2,1c0,0.6,0.5,1,1.2,1C620.2,305,620.7,304.8,621,304.4z"/>
<path class="st1" d="M624.6,307.6l-0.4-0.3c0.4-0.3,0.7-0.8,0.8-1.2l-0.1,0c-0.3,0-0.5-0.2-0.5-0.6c0-0.3,0.3-0.6,0.6-0.6
	c0.4,0,0.7,0.3,0.7,0.8C625.6,306.5,625.1,307.2,624.6,307.6"/>
<path class="st1" d="M515.7,321.8v-1c-0.4,0.7-1.3,1.2-2.2,1.2c-1.7,0-2.8-1.3-2.8-3.3c0-2,1.2-3.4,2.8-3.4c0.9,0,1.7,0.5,2.2,1.2
	V313h0.7v8.8H515.7 M515.7,320.2v-3.2c-0.4-0.6-1.2-1.2-2.1-1.2c-1.4,0-2.2,1.2-2.2,2.7c0,1.5,0.8,2.7,2.2,2.7
	C514.5,321.4,515.4,320.8,515.7,320.2z"/>
<path class="st1" d="M518.4,313.9c0-0.3,0.3-0.5,0.5-0.5c0.3,0,0.5,0.2,0.5,0.5c0,0.3-0.2,0.5-0.5,0.5
	C518.6,314.4,518.4,314.2,518.4,313.9 M519.3,321.8h-0.7v-6.4h0.7V321.8z"/>
<polyline class="st1" points="523.1,321.8 520.4,315.4 521.2,315.4 523.5,321 525.8,315.4 526.6,315.4 523.9,321.8 523.1,321.8 "/>
<path class="st1" d="M527.6,313.9c0-0.3,0.3-0.5,0.5-0.5c0.3,0,0.5,0.2,0.5,0.5c0,0.3-0.2,0.5-0.5,0.5
	C527.8,314.4,527.6,314.2,527.6,313.9 M528.5,321.8h-0.7v-6.4h0.7V321.8z"/>
<path class="st1" d="M535.3,321.8v-1c-0.5,0.7-1.3,1.2-2.2,1.2c-1.7,0-2.9-1.3-2.9-3.3c0-2,1.2-3.4,2.9-3.4c0.9,0,1.7,0.5,2.2,1.2
	V313h0.7v8.8H535.3 M535.3,320.2v-3.2c-0.4-0.6-1.2-1.2-2.1-1.2c-1.4,0-2.2,1.2-2.2,2.7c0,1.5,0.8,2.7,2.2,2.7
	C534.1,321.4,534.9,320.8,535.3,320.2z"/>
<path class="st1" d="M538,313.9c0-0.3,0.3-0.5,0.5-0.5c0.3,0,0.5,0.2,0.5,0.5c0,0.3-0.2,0.5-0.5,0.5
	C538.2,314.4,538,314.2,538,313.9 M538.8,321.8h-0.7v-6.4h0.7V321.8z"/>
<path class="st1" d="M545.7,321.8v-1c-0.4,0.7-1.3,1.2-2.2,1.2c-1.7,0-2.8-1.3-2.8-3.3c0-2,1.2-3.4,2.8-3.4c0.9,0,1.7,0.5,2.2,1.2
	V313h0.7v8.8H545.7 M545.7,320.2v-3.2c-0.4-0.6-1.2-1.2-2.1-1.2c-1.4,0-2.2,1.2-2.2,2.7c0,1.5,0.8,2.7,2.2,2.7
	C544.5,321.4,545.3,320.8,545.7,320.2z"/>
<path class="st1" d="M548.2,318.6c0-1.9,1.2-3.3,3.1-3.3c1.9,0,3.1,1.5,3.1,3.3c0,1.9-1.2,3.4-3.1,3.4
	C549.4,322,548.2,320.5,548.2,318.6 M553.6,318.6c0-1.4-0.8-2.7-2.3-2.7c-1.5,0-2.3,1.3-2.3,2.7c0,1.4,0.8,2.7,2.3,2.7
	C552.8,321.4,553.6,320.1,553.6,318.6z"/>
<path class="st1" d="M559.2,318.6c0-1.9,1.3-3.3,3.1-3.3c1.9,0,3,1.5,3,3.4v0.2h-5.4c0.1,1.4,1,2.5,2.5,2.5c0.8,0,1.6-0.3,2.1-0.9
	l0.4,0.4c-0.6,0.7-1.4,1-2.5,1C560.5,322,559.2,320.6,559.2,318.6 M562.2,315.9c-1.5,0-2.3,1.3-2.3,2.4h4.6
	C564.6,317.2,563.8,315.9,562.2,315.9z"/>
<path class="st1" d="M571.4,321.8v-4.3c0-1.2-0.6-1.6-1.6-1.6c-0.8,0-1.7,0.5-2.1,1.1v4.8H567v-6.4h0.7v1c0.5-0.6,1.4-1.1,2.3-1.1
	c1.3,0,2,0.6,2,2.1v4.5H571.4"/>
<path class="st4" d="M577.2,321.8v-1.5c3.6-2.7,4.7-3.6,4.7-4.7c0-0.8-0.7-1.2-1.4-1.2c-1,0-1.8,0.4-2.4,1l-1.1-1.2
	c0.9-1,2.2-1.4,3.4-1.4c1.9,0,3.4,1.1,3.4,2.8c0,1.5-1.2,2.8-3.5,4.5h3.6v1.7H577.2"/>
<polyline class="st4" points="590.8,321.8 590.8,314.6 588.2,314.6 588.2,313 595.3,313 595.3,314.6 592.7,314.6 592.7,321.8 
	590.8,321.8 "/>
<path class="st4" d="M596,317.4c0-2.7,1.9-4.6,4.6-4.6c2.7,0,4.6,1.9,4.6,4.6c0,2.7-1.9,4.6-4.6,4.6C598,322,596,320.1,596,317.4
	 M603.3,317.4c0-1.7-1-2.9-2.7-2.9c-1.6,0-2.7,1.2-2.7,2.9c0,1.6,1,2.9,2.7,2.9C602.3,320.3,603.3,319.1,603.3,317.4z"/>
<polyline class="st4" points="614.3,321.8 614.3,315.5 611.8,321.8 611,321.8 608.5,315.5 608.5,321.8 606.6,321.8 606.6,313 
	609.2,313 611.4,318.5 613.5,313 616.2,313 616.2,321.8 614.3,321.8 "/>
<path class="st4" d="M624,321.8l-0.6-1.5h-3.8l-0.6,1.5H617l3.4-8.8h2.4l3.4,8.8H624 M621.6,314.9l-1.4,3.8h2.8L621.6,314.9z"/>
<path class="st4" d="M626.4,320.6l1-1.5c0.6,0.7,1.6,1.2,2.8,1.2c1.1,0,1.5-0.5,1.5-1c0-1.5-5.1-0.5-5.1-3.8c0-1.5,1.3-2.7,3.3-2.7
	c1.4,0,2.6,0.4,3.4,1.2l-1,1.4c-0.7-0.7-1.7-1-2.6-1c-0.8,0-1.2,0.3-1.2,0.9c0,1.4,5.1,0.5,5.1,3.7c0,1.6-1.2,2.8-3.5,2.8
	C628.4,322,627.2,321.4,626.4,320.6"/>
<path class="st5" d="M225.1,109.4c0,7.8-6.3,14.1-14.1,14.1h-97.6c-7.8,0-14.1-6.3-14.1-14.1V95.2c0-7.8,6.3-14.1,14.1-14.1h97.6
	c7.8,0,14.1,6.3,14.1,14.1V109.4"/>
<path class="st2" d="M225.1,109.4h-0.9c0,3.7-1.5,7-3.9,9.4c-2.4,2.4-5.7,3.9-9.4,3.9h-97.6c-3.7,0-7-1.5-9.4-3.9
	c-2.4-2.4-3.9-5.7-3.9-9.4V95.2c0-3.7,1.5-7,3.9-9.4c2.4-2.4,5.7-3.9,9.4-3.9h97.6c3.7,0,7,1.5,9.4,3.9c2.4,2.4,3.9,5.7,3.9,9.4
	v14.2h1.8V95.2c0-8.3-6.7-15.1-15.1-15.1h-97.6c-8.3,0-15.1,6.7-15.1,15.1v14.2c0,8.3,6.7,15.1,15.1,15.1h97.6
	c8.3,0,15.1-6.7,15.1-15.1H225.1"/>
<path class="st5" d="M754,109.4c0,7.8-6.3,14.1-14.1,14.1h-97.6c-7.8,0-14.1-6.3-14.1-14.1V95.2c0-7.8,6.3-14.1,14.1-14.1h97.6
	c7.8,0,14.1,6.3,14.1,14.1V109.4"/>
<path class="st2" d="M754,109.4h-0.9c0,3.7-1.5,7-3.9,9.4c-2.4,2.4-5.7,3.9-9.4,3.9h-97.6c-3.7,0-7-1.5-9.4-3.9
	c-2.4-2.4-3.9-5.7-3.9-9.4V95.2c0-3.7,1.5-7,3.9-9.4c2.4-2.4,5.7-3.9,9.4-3.9h97.6c3.7,0,7,1.5,9.4,3.9c2.4,2.4,3.9,5.7,3.9,9.4
	v14.2h1.8V95.2c0-8.3-6.7-15.1-15.1-15.1h-97.6c-8.3,0-15.1,6.7-15.1,15.1v14.2c0,8.3,6.7,15.1,15.1,15.1h97.6
	c8.3,0,15.1-6.7,15.1-15.1H754"/>
<path class="st5" d="M478.4,109.4c0,7.8-6.3,14.1-14.1,14.1h-97.6c-7.8,0-14.1-6.3-14.1-14.1V95.2c0-7.8,6.3-14.1,14.1-14.1h97.6
	c7.8,0,14.1,6.3,14.1,14.1V109.4"/>
<path class="st2" d="M478.4,109.4h-0.9c0,3.7-1.5,7-3.9,9.4c-2.4,2.4-5.7,3.9-9.4,3.9h-97.6c-3.7,0-7-1.5-9.4-3.9
	c-2.4-2.4-3.9-5.7-3.9-9.4V95.2c0-3.7,1.5-7,3.9-9.4c2.4-2.4,5.7-3.9,9.4-3.9h97.6c3.7,0,7,1.5,9.4,3.9c2.4,2.4,3.9,5.7,3.9,9.4
	v14.2h1.8V95.2c0-8.3-6.7-15.1-15.1-15.1h-97.6c-8.3,0-15.1,6.7-15.1,15.1v14.2c0,8.3,6.7,15.1,15.1,15.1h97.6
	c8.3,0,15.1-6.7,15.1-15.1H478.4"/>
<path class="st1" d="M118.4,103.3l1-1.3c0.6,0.6,1.4,1,2.3,1c1,0,1.6-0.6,1.6-1.3c0-0.8-0.6-1.3-1.6-1.3c-0.7,0-1.3,0.2-1.9,0.7
	l-1.3-0.4v-5.1h6.1v1.7h-4.2v2.2c0.4-0.4,1.1-0.7,1.9-0.7c1.5,0,2.8,1.1,2.8,2.9c0,1.9-1.4,3.1-3.5,3.1
	C120.2,104.6,119.1,104.1,118.4,103.3"/>
<path class="st1" d="M137.9,104.5v-4c0-0.6-0.3-1-1-1c-0.6,0-1.1,0.4-1.3,0.7v4.3H134v-4c0-0.6-0.3-1-1-1c-0.6,0-1.1,0.4-1.3,0.7
	v4.3H130v-6.4h1.7v0.8c0.3-0.4,1.1-1,2.1-1c0.9,0,1.6,0.4,1.8,1.2c0.4-0.6,1.2-1.2,2.2-1.2c1.2,0,1.9,0.6,1.9,1.9v4.6H137.9"/>
<path class="st1" d="M141.2,106.1l0.8-1.2c0.5,0.6,1.2,0.8,2,0.8c0.8,0,1.8-0.3,1.8-1.6v-0.6c-0.5,0.6-1.2,1-2,1
	c-1.6,0-2.8-1.1-2.8-3.2c0-2.1,1.2-3.3,2.8-3.3c0.8,0,1.5,0.3,2,1v-0.8h1.7v6c0,2.4-1.9,3-3.5,3C142.8,107.1,142,106.8,141.2,106.1
	 M145.7,102.2v-2.1c-0.3-0.4-0.9-0.7-1.4-0.7c-1,0-1.6,0.7-1.6,1.8c0,1.1,0.7,1.8,1.6,1.8C144.8,103,145.4,102.6,145.7,102.2z"/>
<polyline class="st1" points="151.6,104.8 154.8,95.4 155.4,95.4 152.2,104.8 151.6,104.8 "/>
<polyline class="st1" points="164.3,104.5 161.7,101.4 160.5,102.6 160.5,104.5 159.9,104.5 159.9,95.7 160.5,95.7 160.5,101.7 
	164.3,98.1 165.2,98.1 162.3,101 165.2,104.5 164.3,104.5 "/>
<path class="st1" d="M166.6,106.1l0.4-0.6c0.6,0.7,1.2,0.9,2.1,0.9c1.2,0,2.2-0.6,2.2-2v-1c-0.4,0.7-1.3,1.2-2.2,1.2
	c-1.7,0-2.9-1.3-2.9-3.3c0-2,1.2-3.4,2.9-3.4c0.9,0,1.7,0.5,2.2,1.2v-1h0.7v6.3c0,1.9-1.3,2.7-2.9,2.7
	C168,107.1,167.3,106.9,166.6,106.1 M171.3,102.8v-3.1c-0.4-0.6-1.2-1.2-2.1-1.2c-1.4,0-2.2,1.2-2.2,2.7c0,1.6,0.8,2.7,2.2,2.7
	C170,104,170.9,103.5,171.3,102.8z"/>
<polyline class="st1" points="176.4,104.8 179.6,95.4 180.2,95.4 177,104.8 176.4,104.8 "/>
<path class="st1" d="M189.4,104.5v-1c-0.4,0.7-1.3,1.2-2.2,1.2c-1.7,0-2.9-1.3-2.9-3.3c0-2,1.2-3.4,2.9-3.4c0.9,0,1.7,0.5,2.2,1.2
	v-3.5h0.7v8.8H189.4 M189.4,102.9v-3.2c-0.4-0.6-1.2-1.2-2.1-1.2c-1.4,0-2.2,1.2-2.2,2.7c0,1.5,0.8,2.7,2.2,2.7
	C188.2,104,189,103.5,189.4,102.9z"/>
<path class="st1" d="M192.4,97.1h-0.6l2-1.9h0.8L192.4,97.1 M192.9,104.5h-0.7v-6.4h0.7V104.5z"/>
<path class="st1" d="M199.1,104.5v-0.8c-0.6,0.6-1.3,0.9-2.2,0.9c-1.1,0-2.2-0.8-2.2-2.1c0-1.4,1.1-2.1,2.2-2.1
	c0.9,0,1.6,0.3,2.2,0.9V100c0-1-0.8-1.5-1.7-1.5c-0.8,0-1.4,0.3-2,0.9L195,99c0.7-0.7,1.4-1.1,2.5-1.1c1.3,0,2.3,0.6,2.3,2.1v4.5
	H199.1 M199.1,103.2v-1.4c-0.5-0.6-1.2-0.9-1.9-0.9c-1,0-1.7,0.7-1.7,1.6c0,0.9,0.7,1.6,1.7,1.6C198,104.1,198.7,103.8,199.1,103.2z
	"/>
<polyline class="st1" points="372.9,104.5 372.9,98.1 371.5,99.6 370.4,98.4 373.2,95.7 374.8,95.7 374.8,104.5 372.9,104.5 "/>
<path class="st1" d="M376.1,100.1c0-2.3,1.1-4.6,3.7-4.6c2.5,0,3.7,2.3,3.7,4.6c0,2.3-1.1,4.6-3.7,4.6
	C377.3,104.6,376.1,102.4,376.1,100.1 M381.5,100.1c0-1.6-0.5-2.9-1.7-2.9c-1.3,0-1.7,1.3-1.7,2.9c0,1.6,0.5,2.9,1.7,2.9
	C381.1,103,381.5,101.7,381.5,100.1z"/>
<path class="st1" d="M396.1,104.5v-4c0-0.6-0.3-1-1-1c-0.6,0-1.1,0.4-1.3,0.7v4.3h-1.7v-4c0-0.6-0.3-1-1-1c-0.6,0-1.1,0.4-1.3,0.7
	v4.3h-1.7v-6.4h1.7v0.8c0.3-0.4,1.1-1,2.1-1c0.9,0,1.6,0.4,1.8,1.2c0.4-0.6,1.2-1.2,2.2-1.2c1.2,0,1.9,0.6,1.9,1.9v4.6H396.1"/>
<path class="st1" d="M399.3,106.1l0.8-1.2c0.5,0.6,1.2,0.8,2,0.8c0.8,0,1.8-0.3,1.8-1.6v-0.6c-0.5,0.6-1.2,1-2,1
	c-1.6,0-2.8-1.1-2.8-3.2c0-2.1,1.2-3.3,2.8-3.3c0.8,0,1.5,0.3,2,1v-0.8h1.7v6c0,2.4-1.9,3-3.5,3C401,107.1,400.1,106.8,399.3,106.1
	 M403.8,102.2v-2.1c-0.3-0.4-0.9-0.7-1.4-0.7c-1,0-1.6,0.7-1.6,1.8c0,1.1,0.7,1.8,1.6,1.8C402.9,103,403.5,102.6,403.8,102.2z"/>
<polyline class="st1" points="409.8,104.8 412.9,95.4 413.5,95.4 410.4,104.8 409.8,104.8 "/>
<polyline class="st1" points="422.4,104.5 419.9,101.4 418.7,102.6 418.7,104.5 418,104.5 418,95.7 418.7,95.7 418.7,101.7 
	422.4,98.1 423.4,98.1 420.4,101 423.4,104.5 422.4,104.5 "/>
<path class="st1" d="M424.7,106.1l0.4-0.6c0.6,0.7,1.2,0.9,2.1,0.9c1.2,0,2.2-0.6,2.2-2v-1c-0.4,0.7-1.3,1.2-2.2,1.2
	c-1.7,0-2.8-1.3-2.8-3.3c0-2,1.2-3.4,2.8-3.4c0.9,0,1.7,0.5,2.2,1.2v-1h0.7v6.3c0,1.9-1.3,2.7-2.9,2.7
	C426.1,107.1,425.4,106.9,424.7,106.1 M429.4,102.8v-3.1c-0.4-0.6-1.2-1.2-2.1-1.2c-1.4,0-2.2,1.2-2.2,2.7c0,1.6,0.8,2.7,2.2,2.7
	C428.2,104,429,103.5,429.4,102.8z"/>
<polyline class="st1" points="434.6,104.8 437.7,95.4 438.3,95.4 435.2,104.8 434.6,104.8 "/>
<path class="st1" d="M447.5,104.5v-1c-0.4,0.7-1.3,1.2-2.2,1.2c-1.7,0-2.8-1.3-2.8-3.3c0-2,1.2-3.4,2.8-3.4c0.9,0,1.7,0.5,2.2,1.2
	v-3.5h0.7v8.8H447.5 M447.5,102.9v-3.2c-0.4-0.6-1.2-1.2-2.1-1.2c-1.4,0-2.2,1.2-2.2,2.7c0,1.5,0.8,2.7,2.2,2.7
	C446.3,104,447.2,103.5,447.5,102.9z"/>
<path class="st1" d="M450.5,97.1h-0.6l2-1.9h0.8L450.5,97.1 M451.1,104.5h-0.7v-6.4h0.7V104.5z"/>
<path class="st1" d="M457.3,104.5v-0.8c-0.6,0.6-1.3,0.9-2.2,0.9c-1.1,0-2.2-0.8-2.2-2.1c0-1.4,1.1-2.1,2.2-2.1
	c0.9,0,1.6,0.3,2.2,0.9V100c0-1-0.8-1.5-1.7-1.5c-0.8,0-1.4,0.3-2,0.9l-0.4-0.5c0.7-0.7,1.4-1.1,2.5-1.1c1.3,0,2.3,0.6,2.3,2.1v4.5
	H457.3 M457.3,103.2v-1.4c-0.5-0.6-1.2-0.9-1.9-0.9c-1.1,0-1.8,0.7-1.8,1.6c0,0.9,0.7,1.6,1.8,1.6
	C456.1,104.1,456.8,103.8,457.3,103.2z"/>
<path class="st1" d="M644.7,104.5V103c3.6-2.7,4.7-3.6,4.7-4.7c0-0.8-0.7-1.2-1.4-1.2c-1,0-1.8,0.4-2.4,1l-1.1-1.2
	c0.9-1,2.2-1.4,3.4-1.4c1.9,0,3.4,1.1,3.4,2.8c0,1.5-1.2,2.8-3.5,4.5h3.6v1.7H644.7"/>
<path class="st1" d="M652.5,100.1c0-2.3,1.1-4.6,3.7-4.6c2.5,0,3.7,2.3,3.7,4.6c0,2.3-1.1,4.6-3.7,4.6
	C653.6,104.6,652.5,102.4,652.5,100.1 M657.9,100.1c0-1.6-0.5-2.9-1.7-2.9c-1.3,0-1.7,1.3-1.7,2.9c0,1.6,0.5,2.9,1.7,2.9
	C657.4,103,657.9,101.7,657.9,100.1z"/>
<path class="st1" d="M672.4,104.5v-4c0-0.6-0.3-1-1-1c-0.6,0-1.1,0.4-1.3,0.7v4.3h-1.7v-4c0-0.6-0.3-1-1-1c-0.6,0-1.1,0.4-1.3,0.7
	v4.3h-1.7v-6.4h1.7v0.8c0.3-0.4,1.1-1,2.1-1c0.9,0,1.6,0.4,1.8,1.2c0.4-0.6,1.2-1.2,2.2-1.2c1.2,0,1.9,0.6,1.9,1.9v4.6H672.4"/>
<path class="st1" d="M675.6,106.1l0.8-1.2c0.5,0.6,1.2,0.8,2,0.8c0.8,0,1.8-0.3,1.8-1.6v-0.6c-0.5,0.6-1.2,1-2,1
	c-1.6,0-2.8-1.1-2.8-3.2c0-2.1,1.2-3.3,2.8-3.3c0.8,0,1.5,0.3,2,1v-0.8h1.7v6c0,2.4-1.9,3-3.5,3
	C677.3,107.1,676.4,106.8,675.6,106.1 M680.1,102.2v-2.1c-0.3-0.4-0.9-0.7-1.4-0.7c-1,0-1.6,0.7-1.6,1.8c0,1.1,0.7,1.8,1.6,1.8
	C679.2,103,679.9,102.6,680.1,102.2z"/>
<polyline class="st1" points="686.1,104.8 689.2,95.4 689.8,95.4 686.7,104.8 686.1,104.8 "/>
<polyline class="st1" points="698.8,104.5 696.2,101.4 695,102.6 695,104.5 694.3,104.5 694.3,95.7 695,95.7 695,101.7 698.8,98.1 
	699.7,98.1 696.7,101 699.7,104.5 698.8,104.5 "/>
<path class="st1" d="M701,106.1l0.4-0.6c0.6,0.7,1.2,0.9,2.1,0.9c1.2,0,2.2-0.6,2.2-2v-1c-0.4,0.7-1.3,1.2-2.2,1.2
	c-1.7,0-2.9-1.3-2.9-3.3c0-2,1.2-3.4,2.9-3.4c0.9,0,1.7,0.5,2.2,1.2v-1h0.7v6.3c0,1.9-1.3,2.7-2.9,2.7
	C702.5,107.1,701.8,106.9,701,106.1 M705.7,102.8v-3.1c-0.4-0.6-1.2-1.2-2.1-1.2c-1.4,0-2.2,1.2-2.2,2.7c0,1.6,0.8,2.7,2.2,2.7
	C704.5,104,705.3,103.5,705.7,102.8z"/>
<polyline class="st1" points="710.9,104.8 714,95.4 714.6,95.4 711.5,104.8 710.9,104.8 "/>
<path class="st1" d="M723.9,104.5v-1c-0.4,0.7-1.3,1.2-2.2,1.2c-1.7,0-2.8-1.3-2.8-3.3c0-2,1.2-3.4,2.8-3.4c0.9,0,1.7,0.5,2.2,1.2
	v-3.5h0.7v8.8H723.9 M723.9,102.9v-3.2c-0.4-0.6-1.2-1.2-2.1-1.2c-1.4,0-2.2,1.2-2.2,2.7c0,1.5,0.8,2.7,2.2,2.7
	C722.6,104,723.5,103.5,723.9,102.9z"/>
<path class="st1" d="M726.8,97.1h-0.6l2-1.9h0.8L726.8,97.1 M727.4,104.5h-0.7v-6.4h0.7V104.5z"/>
<path class="st1" d="M733.6,104.5v-0.8c-0.6,0.6-1.3,0.9-2.2,0.9c-1.1,0-2.2-0.8-2.2-2.1c0-1.4,1.1-2.1,2.2-2.1
	c0.9,0,1.6,0.3,2.2,0.9V100c0-1-0.8-1.5-1.7-1.5c-0.8,0-1.4,0.3-2,0.9l-0.4-0.5c0.7-0.7,1.4-1.1,2.5-1.1c1.3,0,2.3,0.6,2.3,2.1v4.5
	H733.6 M733.6,103.2v-1.4c-0.5-0.6-1.2-0.9-1.9-0.9c-1.1,0-1.8,0.7-1.8,1.6c0,0.9,0.7,1.6,1.8,1.6
	C732.4,104.1,733.1,103.8,733.6,103.2z"/>
</svg>
