<?xml version="1.0" encoding="utf-8"?>
<!-- Generator: Adobe Illustrator 26.0.0, SVG Export Plug-In . SVG Version: 6.00 Build 0)  -->
<svg version="1.1" id="Layer_1" xmlns="http://www.w3.org/2000/svg" xmlns:xlink="http://www.w3.org/1999/xlink" x="0px" y="0px"
	 viewBox="0 0 850.4 197.4" style="enable-background:new 0 0 850.4 197.4;" xml:space="preserve">
<style type="text/css">
	.st0{fill:url(#SVGID_1_);}
	.st1{fill:#66318C;}
	.st2{fill:#414142;}
	.st3{fill:#FFFFFF;}
	.st4{fill:#29A884;}
</style>
<linearGradient id="SVGID_1_" gradientUnits="userSpaceOnUse" x1="15.3994" y1="100.65" x2="839.2" y2="100.65" gradientTransform="matrix(1 0 0 -1 0 200)">
	<stop  offset="0" style="stop-color:#DDD6E9"/>
	<stop  offset="1" style="stop-color:#DFEBE5"/>
</linearGradient>
<path class="st0" d="M809.5,194H45c-16.4,0-29.6-13.3-29.6-29.6v-130C15.3,18,28.6,4.7,45,4.7h764.6c16.4,0,29.6,13.3,29.6,29.6v130
	C839.2,180.8,825.9,194,809.5,194z"/>
<rect x="17.8" y="133.6" class="st1" width="818" height="36"/>
<g>
	<path class="st2" d="M328.1,34.6h-1.8V22.7l-2.3,2.4l-1.1-1.1l3.6-3.7h1.6L328.1,34.6L328.1,34.6z"/>
	<path class="st2" d="M351.9,34.6h-1.6v-7c0-1.4-0.6-2.1-1.9-2.1c-0.5,0-1,0.2-1.5,0.5s-0.9,0.7-1.2,1.1v7.5h-1.6v-7
		c0-1.4-0.6-2.1-1.9-2.1c-0.5,0-1,0.2-1.5,0.5s-0.9,0.7-1.2,1.1v7.5h-1.6V24.3h1.6v1.5c0.3-0.4,0.7-0.8,1.4-1.2
		c0.6-0.4,1.3-0.6,2-0.6s1.3,0.2,1.8,0.5c0.5,0.4,0.8,0.8,0.9,1.4c0.3-0.5,0.8-1,1.4-1.3c0.6-0.4,1.3-0.6,2-0.6c1.9,0,2.9,1,2.9,3.1
		L351.9,34.6L351.9,34.6z"/>
	<path class="st2" d="M357.2,22.5c-0.2,0.2-0.5,0.3-0.8,0.3s-0.6-0.1-0.8-0.3c-0.2-0.2-0.3-0.5-0.3-0.8s0.1-0.6,0.3-0.8
		c0.2-0.2,0.5-0.3,0.8-0.3s0.6,0.1,0.8,0.3c0.2,0.2,0.3,0.5,0.3,0.8C357.5,22.1,357.4,22.3,357.2,22.5z M357.2,34.6h-1.6V24.3h1.6
		V34.6z"/>
	<path class="st2" d="M362.6,34.6H361V20.4h1.6V34.6z"/>
	<path class="st2" d="M367.9,22.5c-0.2,0.2-0.5,0.3-0.8,0.3s-0.6-0.1-0.8-0.3c-0.2-0.2-0.3-0.5-0.3-0.8s0.1-0.6,0.3-0.8
		c0.2-0.2,0.5-0.3,0.8-0.3s0.6,0.1,0.8,0.3c0.2,0.2,0.3,0.5,0.3,0.8C368.2,22.1,368.1,22.3,367.9,22.5z M367.9,34.6h-1.6V24.3h1.6
		V34.6z"/>
	<path class="st2" d="M373.2,34.6h-1.6V20.4h1.6V34.6z"/>
	<path class="st2" d="M378.5,22.5c-0.2,0.2-0.5,0.3-0.8,0.3s-0.6-0.1-0.8-0.3c-0.2-0.2-0.3-0.5-0.3-0.8s0.1-0.6,0.3-0.8
		c0.2-0.2,0.5-0.3,0.8-0.3s0.6,0.1,0.8,0.3c0.2,0.2,0.3,0.5,0.3,0.8C378.8,22.1,378.7,22.3,378.5,22.5z M378.5,34.6h-1.6V24.3h1.6
		V34.6z"/>
	<path class="st2" d="M384.9,34.9c-1.5,0-2.3-0.8-2.3-2.4v-6.7h-1.7v-1.4h1.7v-2.8h1.6v2.8h2.1v1.4h-2.1v6.4c0,0.4,0.1,0.7,0.3,1
		s0.4,0.4,0.8,0.4c0.5,0,0.8-0.1,1.1-0.4l0.5,1.2C386.3,34.6,385.7,34.9,384.9,34.9z"/>
	<path class="st2" d="M390.7,34.6h-1.6V24.3h1.6V26c1-1.2,2.1-1.9,3.4-1.9v1.6c-0.3,0-0.5,0-0.6,0c-0.5,0-1,0.2-1.6,0.5
		s-1,0.7-1.2,1.1L390.7,34.6L390.7,34.6z"/>
	<path class="st2" d="M404.8,33.3c-0.9,1-2.2,1.6-3.7,1.6s-2.8-0.5-3.7-1.6c-0.9-1-1.4-2.3-1.4-3.9s0.5-2.8,1.4-3.8s2.2-1.5,3.7-1.5
		s2.8,0.5,3.7,1.5c0.9,1,1.4,2.3,1.4,3.8S405.7,32.3,404.8,33.3z M398.6,32.3c0.6,0.8,1.4,1.2,2.5,1.2s1.9-0.4,2.5-1.2
		s0.9-1.7,0.9-2.8s-0.3-2-0.9-2.8s-1.4-1.1-2.5-1.1s-1.9,0.4-2.5,1.1c-0.6,0.8-0.9,1.7-0.9,2.8S398,31.5,398.6,32.3z"/>
	<path class="st2" d="M426.2,28.5l-6,4.4l0.3-2.8h-5.7v-3.2h5.7l-0.3-2.7L426.2,28.5z"/>
	<path class="st2" d="M438.3,34.6h-1.8V22.7l-2.3,2.4l-1.1-1.1l3.6-3.7h1.6L438.3,34.6L438.3,34.6z"/>
	<path class="st2" d="M447,34.9c-0.9,0-1.8-0.2-2.5-0.6c-0.7-0.4-1.3-1-1.7-1.7c-0.4-0.7-0.7-1.5-0.9-2.3c-0.2-0.8-0.3-1.7-0.3-2.6
		s0.1-1.8,0.3-2.6s0.5-1.6,0.9-2.3s1-1.3,1.7-1.7c0.7-0.4,1.5-0.6,2.5-0.6c0.9,0,1.7,0.2,2.5,0.6c0.7,0.4,1.3,1,1.7,1.7
		s0.7,1.5,0.9,2.3c0.2,0.8,0.3,1.7,0.3,2.6s-0.1,1.8-0.3,2.6c-0.2,0.8-0.5,1.6-0.9,2.3c-0.4,0.7-1,1.3-1.7,1.7
		C448.8,34.6,448,34.9,447,34.9z M444.9,32.4c0.6,0.6,1.3,0.9,2.1,0.9s1.6-0.3,2.1-0.9c0.6-0.6,1-1.3,1.2-2.1
		c0.2-0.8,0.3-1.7,0.3-2.8c0-1-0.1-1.9-0.3-2.8c-0.2-0.8-0.6-1.5-1.2-2.1s-1.3-0.9-2.1-0.9s-1.6,0.3-2.1,0.9c-0.6,0.6-1,1.3-1.2,2.1
		c-0.2,0.8-0.3,1.7-0.3,2.8c0,1,0.1,1.9,0.3,2.8C443.9,31.1,444.3,31.8,444.9,32.4z"/>
	<path class="st2" d="M460.6,34.9c-0.9,0-1.8-0.2-2.5-0.6c-0.7-0.4-1.3-1-1.7-1.7c-0.4-0.7-0.7-1.5-0.9-2.3
		c-0.2-0.8-0.3-1.7-0.3-2.6s0.1-1.8,0.3-2.6s0.5-1.6,0.9-2.3s1-1.3,1.7-1.7c0.7-0.4,1.5-0.6,2.5-0.6c0.9,0,1.7,0.2,2.5,0.6
		c0.7,0.4,1.3,1,1.7,1.7s0.7,1.5,0.9,2.3c0.2,0.8,0.3,1.7,0.3,2.6s-0.1,1.8-0.3,2.6c-0.2,0.8-0.5,1.6-0.9,2.3
		c-0.4,0.7-1,1.3-1.7,1.7C462.3,34.6,461.5,34.9,460.6,34.9z M458.5,32.4c0.6,0.6,1.3,0.9,2.1,0.9s1.6-0.3,2.1-0.9
		c0.6-0.6,1-1.3,1.2-2.1c0.2-0.8,0.3-1.7,0.3-2.8c0-1-0.1-1.9-0.3-2.8c-0.2-0.8-0.6-1.5-1.2-2.1s-1.3-0.9-2.1-0.9s-1.6,0.3-2.1,0.9
		c-0.6,0.6-1,1.3-1.2,2.1c-0.2,0.8-0.3,1.7-0.3,2.8c0,1,0.1,1.9,0.3,2.8C457.5,31.1,457.9,31.8,458.5,32.4z"/>
	<path class="st2" d="M489.3,34.6h-1.6v-7c0-1.4-0.6-2.1-1.9-2.1c-0.5,0-1,0.2-1.5,0.5s-0.9,0.7-1.2,1.1v7.5h-1.6v-7
		c0-1.4-0.6-2.1-1.9-2.1c-0.5,0-1,0.2-1.5,0.5s-0.9,0.7-1.2,1.1v7.5h-1.6V24.3h1.6v1.5c0.3-0.4,0.7-0.8,1.4-1.2
		c0.6-0.4,1.3-0.6,2-0.6s1.3,0.2,1.8,0.5c0.5,0.4,0.8,0.8,0.9,1.4c0.3-0.5,0.8-1,1.4-1.3s1.3-0.6,2-0.6c1.9,0,2.9,1,2.9,3.1
		L489.3,34.6L489.3,34.6z"/>
	<path class="st2" d="M497.1,38.8c-0.9,0-1.7-0.1-2.3-0.3c-0.6-0.2-1.3-0.6-1.9-1.2l0.8-1.2c0.8,0.9,1.9,1.4,3.3,1.4
		c0.9,0,1.7-0.2,2.4-0.7s1-1.2,1-2.3v-1.6c-0.4,0.6-0.9,1-1.5,1.3s-1.3,0.5-2,0.5c-1.4,0-2.5-0.5-3.3-1.4c-0.8-1-1.3-2.3-1.3-3.9
		s0.4-2.9,1.3-3.9c0.8-1,1.9-1.4,3.3-1.4s2.6,0.6,3.5,1.8v-1.6h1.6v10.1c0,1.5-0.5,2.6-1.4,3.3S498.5,38.8,497.1,38.8z M497.4,33.3
		c0.6,0,1.2-0.2,1.8-0.5c0.6-0.3,1-0.7,1.3-1.2v-4.5c-0.3-0.5-0.7-0.8-1.3-1.2c-0.6-0.3-1.2-0.5-1.8-0.5c-1,0-1.8,0.4-2.4,1.1
		s-0.9,1.7-0.9,2.8c0,1.1,0.3,2.1,0.9,2.8C495.5,32.9,496.4,33.3,497.4,33.3z"/>
</g>
<g>
	<path class="st2" d="M320.5,75.4h-1.8V63.5l-2.3,2.4l-1.1-1.1l3.6-3.7h1.6L320.5,75.4L320.5,75.4z"/>
	<path class="st2" d="M344.3,75.4h-1.6v-7c0-1.4-0.6-2.1-1.9-2.1c-0.5,0-1,0.2-1.5,0.5s-0.9,0.7-1.2,1.1v7.5h-1.6v-7
		c0-1.4-0.6-2.1-1.9-2.1c-0.5,0-1,0.2-1.5,0.5s-0.9,0.7-1.2,1.1v7.5h-1.6V65.1h1.6v1.5c0.3-0.4,0.7-0.8,1.4-1.2
		c0.6-0.4,1.3-0.6,2-0.6s1.3,0.2,1.8,0.5c0.5,0.4,0.8,0.8,0.9,1.4c0.3-0.5,0.8-1,1.4-1.3c0.6-0.4,1.3-0.6,2-0.6c1.9,0,2.9,1,2.9,3.1
		L344.3,75.4L344.3,75.4z"/>
	<path class="st2" d="M349.6,63.3c-0.2,0.2-0.5,0.3-0.8,0.3s-0.6-0.1-0.8-0.3c-0.2-0.2-0.3-0.5-0.3-0.8s0.1-0.6,0.3-0.8
		c0.2-0.2,0.5-0.3,0.8-0.3s0.6,0.1,0.8,0.3c0.2,0.2,0.3,0.5,0.3,0.8S349.8,63.1,349.6,63.3z M349.6,75.4H348V65.1h1.6V75.4z"/>
	<path class="st2" d="M354.9,75.4h-1.6V61.2h1.6V75.4z"/>
	<path class="st2" d="M360.2,63.3c-0.2,0.2-0.5,0.3-0.8,0.3s-0.6-0.1-0.8-0.3c-0.2-0.2-0.3-0.5-0.3-0.8s0.1-0.6,0.3-0.8
		c0.2-0.2,0.5-0.3,0.8-0.3s0.6,0.1,0.8,0.3c0.2,0.2,0.3,0.5,0.3,0.8S360.4,63.1,360.2,63.3z M360.3,75.4h-1.6V65.1h1.6V75.4z"/>
	<path class="st2" d="M365.6,75.4H364V61.2h1.6V75.4z"/>
	<path class="st2" d="M370.9,63.3c-0.2,0.2-0.5,0.3-0.8,0.3s-0.6-0.1-0.8-0.3c-0.2-0.2-0.3-0.5-0.3-0.8s0.1-0.6,0.3-0.8
		c0.2-0.2,0.5-0.3,0.8-0.3s0.6,0.1,0.8,0.3c0.2,0.2,0.3,0.5,0.3,0.8C371.2,62.8,371.1,63.1,370.9,63.3z M370.9,75.4h-1.6V65.1h1.6
		V75.4z"/>
	<path class="st2" d="M377.3,75.6c-1.5,0-2.3-0.8-2.3-2.4v-6.7h-1.7v-1.4h1.7v-2.8h1.6v2.8h2.1v1.4h-2.1v6.4c0,0.4,0.1,0.7,0.3,1
		s0.4,0.4,0.8,0.4c0.5,0,0.8-0.1,1.1-0.4l0.5,1.2C378.7,75.4,378.1,75.6,377.3,75.6z"/>
	<path class="st2" d="M383,75.4h-1.6V65.1h1.6v1.6c1-1.2,2.1-1.9,3.4-1.9v1.6c-0.3,0-0.5,0-0.6,0c-0.5,0-1,0.2-1.6,0.5
		s-1,0.7-1.2,1.1L383,75.4L383,75.4z"/>
	<path class="st2" d="M397.2,74.1c-0.9,1-2.2,1.6-3.7,1.6s-2.8-0.5-3.7-1.6c-0.9-1-1.4-2.3-1.4-3.9s0.5-2.8,1.4-3.8s2.2-1.5,3.7-1.5
		s2.8,0.5,3.7,1.5c0.9,1,1.4,2.3,1.4,3.8S398.1,73,397.2,74.1z M391,73c0.6,0.8,1.4,1.2,2.5,1.2s1.9-0.4,2.5-1.2
		c0.6-0.8,0.9-1.7,0.9-2.8s-0.3-2-0.9-2.8s-1.4-1.1-2.5-1.1s-1.9,0.4-2.5,1.1c-0.6,0.8-0.9,1.7-0.9,2.8S390.4,72.3,391,73z"/>
	<path class="st2" d="M418.6,69.3l-6,4.4l0.3-2.8h-5.7v-3.2h5.7l-0.3-2.7L418.6,69.3z"/>
	<path class="st2" d="M436,75.4h-9.8V74c2.9-2.3,5-4,6.1-5.3s1.8-2.4,1.8-3.6c0-0.9-0.3-1.5-0.9-1.9s-1.3-0.7-2.1-0.7
		c-1.6,0-2.9,0.6-3.9,1.8l-1.1-1.1c0.5-0.7,1.2-1.3,2.1-1.7s1.8-0.6,2.8-0.6c1.3,0,2.4,0.4,3.4,1.1s1.4,1.8,1.4,3.1s-0.6,2.6-1.7,4
		c-1.1,1.3-2.9,2.9-5.2,4.7h7v1.6H436z"/>
	<path class="st2" d="M463,79.5c-0.9,0-1.7-0.1-2.3-0.3c-0.6-0.2-1.3-0.6-1.9-1.2l0.8-1.2c0.8,0.9,1.9,1.4,3.3,1.4
		c0.9,0,1.7-0.2,2.4-0.7s1-1.2,1-2.3v-1.6c-0.4,0.6-0.9,1-1.5,1.3s-1.3,0.5-2,0.5c-1.4,0-2.5-0.5-3.3-1.4c-0.8-1-1.3-2.3-1.3-3.9
		s0.4-2.9,1.3-3.9c0.8-1,1.9-1.4,3.3-1.4s2.6,0.6,3.5,1.8V65h1.6v10.1c0,1.5-0.5,2.6-1.4,3.3S464.5,79.5,463,79.5z M463.3,74.1
		c0.6,0,1.2-0.2,1.8-0.5c0.6-0.3,1-0.7,1.3-1.2v-4.5c-0.3-0.5-0.7-0.8-1.3-1.2c-0.6-0.3-1.2-0.5-1.8-0.5c-1,0-1.8,0.4-2.4,1.1
		S460,69,460,70.1c0,1.1,0.3,2.1,0.9,2.8C461.5,73.7,462.3,74.1,463.3,74.1z"/>
	<path class="st2" d="M479.9,74.1c-0.9,1-2.2,1.6-3.7,1.6s-2.8-0.5-3.7-1.6c-0.9-1-1.4-2.3-1.4-3.9s0.5-2.8,1.4-3.8s2.2-1.5,3.7-1.5
		s2.8,0.5,3.7,1.5c0.9,1,1.4,2.3,1.4,3.8S480.8,73,479.9,74.1z M473.7,73c0.6,0.8,1.4,1.2,2.5,1.2s1.9-0.4,2.5-1.2
		c0.6-0.8,0.9-1.7,0.9-2.8s-0.3-2-0.9-2.8s-1.4-1.1-2.5-1.1s-1.9,0.4-2.5,1.1s-0.9,1.7-0.9,2.8S473.1,72.3,473.7,73z"/>
	<path class="st2" d="M487,75.6c-1.5,0-2.3-0.8-2.3-2.4v-6.7H483v-1.4h1.7v-2.8h1.6v2.8h2.1v1.4h-2.1v6.4c0,0.4,0.1,0.7,0.3,1
		c0.2,0.2,0.4,0.4,0.8,0.4c0.5,0,0.8-0.1,1.1-0.4l0.5,1.2C488.4,75.4,487.8,75.6,487,75.6z"/>
	<path class="st2" d="M499.2,75.4h-1.6v-1.2c-0.8,1-2,1.4-3.4,1.4c-0.9,0-1.8-0.3-2.5-0.9s-1.1-1.4-1.1-2.5s0.4-1.9,1.1-2.5
		s1.5-0.9,2.5-0.9c1.4,0,2.6,0.5,3.4,1.4v-1.9c0-0.7-0.2-1.2-0.7-1.6s-1.1-0.6-1.9-0.6c-1.2,0-2.3,0.5-3.2,1.4l-0.7-1.1
		c1.1-1.1,2.5-1.7,4.1-1.7c1.2,0,2.1,0.3,2.9,0.9c0.7,0.6,1.1,1.4,1.1,2.6L499.2,75.4L499.2,75.4z M494.8,74.5
		c1.3,0,2.2-0.4,2.8-1.3v-2c-0.6-0.8-1.6-1.3-2.8-1.3c-0.8,0-1.4,0.2-1.8,0.6c-0.5,0.4-0.7,1-0.7,1.6c0,0.7,0.2,1.2,0.7,1.6
		S494,74.5,494.8,74.5z"/>
	<path class="st2" d="M506.2,75.6c-1.7,0-3.1-0.5-4.2-1.6l0.8-1.2c0.4,0.4,0.8,0.8,1.5,1s1.3,0.4,1.9,0.4c0.8,0,1.4-0.2,1.8-0.5
		s0.6-0.8,0.6-1.3s-0.2-0.8-0.7-1.1c-0.4-0.3-1-0.5-1.6-0.6s-1.2-0.3-1.9-0.5c-0.6-0.2-1.1-0.5-1.6-0.9c-0.4-0.4-0.7-1-0.7-1.7
		c0-0.8,0.3-1.5,1-2.1s1.6-0.9,2.8-0.9c1.6,0,2.8,0.5,3.8,1.5l-0.7,1.1c-0.7-0.9-1.7-1.3-3.1-1.3c-0.7,0-1.2,0.2-1.7,0.5
		c-0.4,0.3-0.6,0.7-0.6,1.2c0,0.3,0.2,0.6,0.5,0.9c0.3,0.2,0.7,0.4,1.2,0.5s1,0.2,1.5,0.4s1.1,0.3,1.5,0.5c0.5,0.2,0.9,0.5,1.2,0.9
		c0.3,0.4,0.5,1,0.5,1.6c0,0.9-0.4,1.7-1.1,2.2C508.5,75.3,507.5,75.6,506.2,75.6z"/>
</g>
<g>
	<path class="st2" d="M353,116.1h-1.8v-11.9l-2.3,2.4l-1.1-1.1l3.6-3.7h1.6L353,116.1L353,116.1z"/>
	<path class="st2" d="M367,120.3c-0.9,0-1.7-0.1-2.3-0.3c-0.6-0.2-1.3-0.6-1.9-1.2l0.8-1.2c0.8,0.9,1.9,1.4,3.3,1.4
		c0.9,0,1.7-0.2,2.4-0.7c0.6-0.5,1-1.2,1-2.3v-1.6c-0.4,0.6-0.9,1-1.5,1.3s-1.3,0.5-2,0.5c-1.4,0-2.5-0.5-3.3-1.4
		c-0.8-1-1.3-2.3-1.3-3.9s0.4-2.9,1.3-3.9c0.8-1,1.9-1.4,3.3-1.4s2.6,0.6,3.5,1.8v-1.6h1.6V116c0,1.5-0.5,2.6-1.4,3.3
		C369.6,120,368.4,120.3,367,120.3z M367.2,114.8c0.6,0,1.2-0.2,1.8-0.5c0.6-0.3,1-0.7,1.3-1.2v-4.5c-0.3-0.5-0.7-0.8-1.3-1.2
		c-0.6-0.3-1.2-0.5-1.8-0.5c-1,0-1.8,0.4-2.4,1.1s-0.9,1.7-0.9,2.8c0,1.1,0.3,2.1,0.9,2.8C365.4,114.5,366.2,114.8,367.2,114.8z"/>
	<path class="st2" d="M383.8,114.8c-0.9,1-2.2,1.6-3.7,1.6s-2.8-0.5-3.7-1.6c-0.9-1-1.4-2.3-1.4-3.9s0.5-2.8,1.4-3.8
		s2.2-1.5,3.7-1.5s2.8,0.5,3.7,1.5c0.9,1,1.4,2.3,1.4,3.8S384.7,113.8,383.8,114.8z M377.6,113.8c0.6,0.8,1.4,1.2,2.5,1.2
		s1.9-0.4,2.5-1.2c0.6-0.8,0.9-1.7,0.9-2.8s-0.3-2-0.9-2.8s-1.4-1.1-2.5-1.1s-1.9,0.4-2.5,1.1c-0.6,0.8-0.9,1.7-0.9,2.8
		S377,113,377.6,113.8z"/>
	<path class="st2" d="M390.9,116.4c-1.5,0-2.3-0.8-2.3-2.4v-6.7h-1.7v-1.4h1.7V103h1.6v2.8h2.1v1.4h-2.1v6.4c0,0.4,0.1,0.7,0.3,1
		s0.4,0.4,0.8,0.4c0.5,0,0.8-0.1,1.1-0.4l0.5,1.2C392.4,116.2,391.7,116.4,390.9,116.4z"/>
	<path class="st2" d="M403.1,116.1h-1.6V115c-0.8,1-2,1.4-3.4,1.4c-0.9,0-1.8-0.3-2.5-0.9s-1.1-1.4-1.1-2.5s0.4-1.9,1.1-2.5
		s1.5-0.9,2.5-0.9c1.4,0,2.6,0.5,3.4,1.4v-1.9c0-0.7-0.2-1.2-0.7-1.6s-1.1-0.6-1.9-0.6c-1.2,0-2.3,0.5-3.2,1.4l-0.7-1.1
		c1.1-1.1,2.5-1.7,4.1-1.7c1.2,0,2.1,0.3,2.9,0.9c0.7,0.6,1.1,1.4,1.1,2.6L403.1,116.1L403.1,116.1z M398.7,115.2
		c1.3,0,2.2-0.4,2.8-1.3v-2c-0.6-0.8-1.6-1.3-2.8-1.3c-0.8,0-1.4,0.2-1.8,0.6c-0.5,0.4-0.7,1-0.7,1.6c0,0.7,0.2,1.2,0.7,1.6
		C397.4,115,398,115.2,398.7,115.2z"/>
	<path class="st2" d="M423.8,110l-6,4.4l0.3-2.8h-5.7v-3.2h5.7l-0.3-2.7L423.8,110z"/>
	<path class="st2" d="M464.3,116.1h-1.6v-7c0-1.4-0.6-2.1-1.9-2.1c-0.5,0-1,0.2-1.5,0.5s-0.9,0.7-1.2,1.1v7.5h-1.6v-7
		c0-1.4-0.6-2.1-1.9-2.1c-0.5,0-1,0.2-1.5,0.5s-0.9,0.7-1.2,1.1v7.5h-1.6v-10.3h1.6v1.5c0.3-0.4,0.7-0.8,1.4-1.2
		c0.6-0.4,1.3-0.6,2-0.6s1.3,0.2,1.8,0.5c0.5,0.4,0.8,0.8,0.9,1.4c0.3-0.5,0.8-1,1.4-1.3s1.3-0.6,2-0.6c1.9,0,2.9,1,2.9,3.1
		L464.3,116.1L464.3,116.1z"/>
	<path class="st2" d="M472.2,120.3c-0.9,0-1.7-0.1-2.3-0.3c-0.6-0.2-1.3-0.6-1.9-1.2l0.8-1.2c0.8,0.9,1.9,1.4,3.3,1.4
		c0.9,0,1.7-0.2,2.4-0.7s1-1.2,1-2.3v-1.6c-0.4,0.6-0.9,1-1.5,1.3s-1.3,0.5-2,0.5c-1.4,0-2.5-0.5-3.3-1.4c-0.8-1-1.3-2.3-1.3-3.9
		s0.4-2.9,1.3-3.9c0.8-1,1.9-1.4,3.3-1.4s2.6,0.6,3.5,1.8v-1.6h1.6V116c0,1.5-0.5,2.6-1.4,3.3S473.6,120.3,472.2,120.3z
		 M472.4,114.8c0.6,0,1.2-0.2,1.8-0.5c0.6-0.3,1-0.7,1.3-1.2v-4.5c-0.3-0.5-0.7-0.8-1.3-1.2c-0.6-0.3-1.2-0.5-1.8-0.5
		c-1,0-1.8,0.4-2.4,1.1s-0.9,1.7-0.9,2.8c0,1.1,0.3,2.1,0.9,2.8C470.6,114.5,471.4,114.8,472.4,114.8z"/>
</g>
<g>
	<path class="st3" d="M160.4,158.1h-1.9V145l-2.5,2.7l-1.2-1.2l3.9-4h1.7V158.1z"/>
	<path class="st3" d="M170,158.3c-1,0-1.9-0.2-2.7-0.7s-1.4-1.1-1.9-1.9c-0.5-0.8-0.8-1.7-1-2.6c-0.2-0.9-0.3-1.9-0.3-2.9
		s0.1-2,0.3-2.9s0.6-1.8,1-2.6c0.5-0.8,1.1-1.4,1.9-1.9c0.8-0.5,1.7-0.7,2.7-0.7s1.9,0.2,2.7,0.7s1.4,1.1,1.9,1.9
		c0.5,0.8,0.8,1.6,1,2.6c0.2,0.9,0.3,1.9,0.3,2.9s-0.1,2-0.3,2.9s-0.6,1.8-1,2.6c-0.5,0.8-1.1,1.4-1.9,1.9S171,158.3,170,158.3z
		 M167.7,155.6c0.6,0.6,1.4,1,2.3,1c0.9,0,1.7-0.3,2.3-1c0.6-0.6,1.1-1.4,1.3-2.3c0.2-0.9,0.4-1.9,0.4-3s-0.1-2.1-0.4-3
		s-0.7-1.7-1.3-2.3s-1.4-1-2.3-1c-0.9,0-1.7,0.3-2.3,1s-1.1,1.4-1.3,2.3s-0.4,1.9-0.4,3s0.1,2.1,0.4,3
		C166.6,154.2,167.1,155,167.7,155.6z"/>
	<path class="st3" d="M185,158.3c-1,0-1.9-0.2-2.7-0.7s-1.4-1.1-1.9-1.9c-0.5-0.8-0.8-1.7-1-2.6c-0.2-0.9-0.3-1.9-0.3-2.9
		s0.1-2,0.3-2.9s0.6-1.8,1-2.6c0.5-0.8,1.1-1.4,1.9-1.9c0.8-0.5,1.7-0.7,2.7-0.7s1.9,0.2,2.7,0.7s1.4,1.1,1.9,1.9
		c0.5,0.8,0.8,1.6,1,2.6c0.2,0.9,0.3,1.9,0.3,2.9s-0.1,2-0.3,2.9s-0.6,1.8-1,2.6c-0.5,0.8-1.1,1.4-1.9,1.9S186,158.3,185,158.3z
		 M182.6,155.6c0.6,0.6,1.4,1,2.3,1c0.9,0,1.7-0.3,2.3-1c0.6-0.6,1.1-1.4,1.3-2.3c0.2-0.9,0.4-1.9,0.4-3s-0.1-2.1-0.4-3
		s-0.7-1.7-1.3-2.3s-1.4-1-2.3-1c-0.9,0-1.7,0.3-2.3,1s-1.1,1.4-1.3,2.3s-0.4,1.9-0.4,3s0.1,2.1,0.4,3
		C181.6,154.2,182,155,182.6,155.6z"/>
	<path class="st3" d="M216.5,158.1h-1.8v-7.7c0-1.6-0.7-2.3-2.1-2.3c-0.6,0-1.1,0.2-1.7,0.5c-0.6,0.3-1,0.7-1.3,1.2v8.3h-1.8v-7.7
		c0-1.6-0.7-2.3-2.1-2.3c-0.5,0-1.1,0.2-1.7,0.5c-0.6,0.3-1,0.8-1.3,1.2v8.3h-1.8v-11.3h1.8v1.6c0.3-0.5,0.8-0.9,1.5-1.3
		s1.4-0.6,2.2-0.6s1.5,0.2,2,0.6s0.9,0.9,1,1.5c0.3-0.6,0.9-1.1,1.6-1.5s1.4-0.6,2.2-0.6c2.1,0,3.2,1.1,3.2,3.4v8.2H216.5z"/>
	<path class="st3" d="M225.2,162.7c-1,0-1.8-0.1-2.5-0.4c-0.7-0.3-1.4-0.7-2-1.3l0.9-1.3c0.9,1,2.1,1.5,3.7,1.5c1,0,1.9-0.3,2.6-0.8
		c0.7-0.5,1.1-1.4,1.1-2.5v-1.7c-0.4,0.6-1,1.1-1.7,1.5s-1.4,0.6-2.2,0.6c-1.5,0-2.7-0.5-3.6-1.6s-1.4-2.5-1.4-4.3s0.5-3.2,1.4-4.3
		s2.1-1.6,3.6-1.6c1.6,0,2.8,0.7,3.8,2v-1.7h1.8V158c0,1.7-0.5,2.9-1.5,3.6C228,162.3,226.7,162.7,225.2,162.7z M225.4,156.6
		c0.7,0,1.3-0.2,1.9-0.5c0.6-0.4,1.1-0.8,1.4-1.3v-5c-0.3-0.5-0.8-0.9-1.4-1.3c-0.6-0.4-1.3-0.5-1.9-0.5c-1.1,0-2,0.4-2.7,1.2
		s-1,1.8-1,3.1s0.3,2.3,1,3.1C223.4,156.2,224.3,156.6,225.4,156.6z"/>
	<path class="st3" d="M365.2,158.1h-1.9V145l-2.5,2.7l-1.2-1.2l3.9-4h1.7V158.1z"/>
	<path class="st3" d="M391.5,158.1h-1.8v-7.7c0-1.6-0.7-2.3-2.1-2.3c-0.6,0-1.1,0.2-1.7,0.5s-1,0.7-1.3,1.2v8.3h-1.8v-7.7
		c0-1.6-0.7-2.3-2.1-2.3c-0.5,0-1.1,0.2-1.7,0.5s-1,0.8-1.3,1.2v8.3h-1.8v-11.3h1.8v1.6c0.3-0.5,0.8-0.9,1.5-1.3s1.4-0.6,2.2-0.6
		c0.8,0,1.5,0.2,2,0.6s0.9,0.9,1,1.5c0.3-0.6,0.9-1.1,1.6-1.5s1.4-0.6,2.2-0.6c2.1,0,3.2,1.1,3.2,3.4L391.5,158.1L391.5,158.1z"/>
	<path class="st3" d="M397.3,144.8c-0.2,0.2-0.5,0.3-0.8,0.3s-0.6-0.1-0.8-0.3c-0.2-0.2-0.4-0.5-0.4-0.8s0.1-0.6,0.4-0.8
		s0.5-0.4,0.8-0.4s0.6,0.1,0.8,0.4c0.2,0.2,0.3,0.5,0.3,0.8S397.5,144.6,397.3,144.8z M397.3,158.1h-1.8v-11.3h1.8V158.1z"/>
	<path class="st3" d="M403.2,158.1h-1.8v-15.6h1.8V158.1z"/>
	<path class="st3" d="M409,144.8c-0.2,0.2-0.5,0.3-0.8,0.3s-0.6-0.1-0.8-0.3c-0.2-0.2-0.4-0.5-0.4-0.8s0.1-0.6,0.4-0.8
		s0.5-0.4,0.8-0.4s0.6,0.1,0.8,0.4c0.2,0.2,0.3,0.5,0.3,0.8S409.2,144.6,409,144.8z M409.1,158.1h-1.8v-11.3h1.8V158.1z"/>
	<path class="st3" d="M414.9,158.1h-1.8v-15.6h1.8V158.1z"/>
	<path class="st3" d="M420.7,144.8c-0.2,0.2-0.5,0.3-0.8,0.3s-0.6-0.1-0.8-0.3c-0.2-0.2-0.4-0.5-0.4-0.8s0.1-0.6,0.4-0.8
		s0.5-0.4,0.8-0.4s0.6,0.1,0.8,0.4c0.2,0.2,0.3,0.5,0.3,0.8S421,144.6,420.7,144.8z M420.8,158.1H419v-11.3h1.8V158.1z"/>
	<path class="st3" d="M427.8,158.3c-1.7,0-2.5-0.9-2.5-2.6v-7.4h-1.9v-1.5h1.9v-3.1h1.8v3.1h2.3v1.5H427v7c0,0.4,0.1,0.8,0.3,1.1
		s0.5,0.4,0.8,0.4c0.5,0,0.9-0.2,1.2-0.5l0.5,1.3C429.3,158.1,428.6,158.3,427.8,158.3z"/>
	<path class="st3" d="M434.1,158.1h-1.8v-11.3h1.8v1.8c1.1-1.4,2.3-2.1,3.8-2.1v1.8c-0.3,0-0.5,0-0.7,0c-0.5,0-1.1,0.2-1.8,0.6
		c-0.6,0.4-1.1,0.8-1.3,1.3V158.1z"/>
	<path class="st3" d="M449.7,156.6c-1,1.1-2.4,1.7-4.1,1.7s-3-0.6-4.1-1.7s-1.5-2.6-1.5-4.2s0.5-3.1,1.5-4.2c1-1.1,2.4-1.7,4.1-1.7
		s3,0.6,4.1,1.7c1,1.1,1.5,2.5,1.5,4.2S450.7,155.5,449.7,156.6z M442.9,155.5c0.7,0.9,1.6,1.3,2.7,1.3c1.2,0,2.1-0.4,2.7-1.3
		s1-1.9,1-3.1s-0.3-2.3-1-3.1s-1.6-1.3-2.7-1.3c-1.2,0-2.1,0.4-2.7,1.3c-0.7,0.8-1,1.9-1,3.1S442.2,154.7,442.9,155.5z"/>
	<path class="st3" d="M588.8,158.1H578v-1.6c3.2-2.5,5.5-4.4,6.8-5.8c1.3-1.4,1.9-2.7,1.9-3.9c0-0.9-0.3-1.6-1-2.1
		c-0.6-0.5-1.4-0.7-2.3-0.7c-1.8,0-3.2,0.7-4.2,2l-1.2-1.2c0.6-0.8,1.4-1.4,2.3-1.8c1-0.4,2-0.6,3.1-0.6c1.4,0,2.7,0.4,3.7,1.2
		s1.6,1.9,1.6,3.4s-0.6,2.9-1.9,4.3s-3.2,3.2-5.7,5.2h7.7L588.8,158.1L588.8,158.1z"/>
	<path class="st3" d="M618.5,162.7c-1,0-1.8-0.1-2.5-0.4c-0.7-0.3-1.4-0.7-2-1.3l0.9-1.3c0.9,1,2.1,1.5,3.7,1.5c1,0,1.9-0.3,2.6-0.8
		c0.7-0.5,1.1-1.4,1.1-2.5v-1.7c-0.4,0.6-1,1.1-1.7,1.5s-1.4,0.6-2.2,0.6c-1.5,0-2.7-0.5-3.6-1.6s-1.4-2.5-1.4-4.3s0.5-3.2,1.4-4.3
		s2.1-1.6,3.6-1.6c1.6,0,2.8,0.7,3.8,2v-1.7h1.8V158c0,1.7-0.5,2.9-1.5,3.6C621.3,162.3,620,162.7,618.5,162.7z M618.7,156.6
		c0.7,0,1.3-0.2,1.9-0.5s1.1-0.8,1.4-1.3v-5c-0.3-0.5-0.8-0.9-1.4-1.3s-1.3-0.5-1.9-0.5c-1.1,0-2,0.4-2.7,1.2s-1,1.8-1,3.1
		s0.3,2.3,1,3.1C616.7,156.2,617.6,156.6,618.7,156.6z"/>
	<path class="st3" d="M637,156.6c-1,1.1-2.4,1.7-4.1,1.7c-1.7,0-3-0.6-4.1-1.7s-1.5-2.6-1.5-4.2s0.5-3.1,1.5-4.2
		c1-1.1,2.4-1.7,4.1-1.7c1.7,0,3,0.6,4.1,1.7c1,1.1,1.5,2.5,1.5,4.2S638,155.5,637,156.6z M630.2,155.5c0.7,0.9,1.6,1.3,2.7,1.3
		c1.2,0,2.1-0.4,2.7-1.3s1-1.9,1-3.1s-0.3-2.3-1-3.1s-1.6-1.3-2.7-1.3c-1.2,0-2.1,0.4-2.7,1.3c-0.7,0.8-1,1.9-1,3.1
		S629.5,154.7,630.2,155.5z"/>
	<path class="st3" d="M644.8,158.3c-1.7,0-2.5-0.9-2.5-2.6v-7.4h-1.9v-1.5h1.9v-3.1h1.8v3.1h2.3v1.5h-2.3v7c0,0.4,0.1,0.8,0.3,1.1
		s0.5,0.4,0.8,0.4c0.5,0,0.9-0.2,1.2-0.5l0.5,1.3C646.4,158.1,645.7,158.3,644.8,158.3z"/>
	<path class="st3" d="M658.3,158.1h-1.8v-1.3c-0.9,1-2.2,1.6-3.8,1.6c-1,0-1.9-0.3-2.7-1s-1.2-1.6-1.2-2.7c0-1.2,0.4-2.1,1.2-2.8
		s1.7-1,2.8-1c1.6,0,2.8,0.5,3.8,1.5v-2c0-0.7-0.3-1.3-0.8-1.7s-1.2-0.6-2.1-0.6c-1.4,0-2.5,0.5-3.5,1.6l-0.8-1.2
		c1.2-1.3,2.7-1.9,4.5-1.9c1.3,0,2.4,0.3,3.2,0.9s1.2,1.6,1.2,2.9L658.3,158.1L658.3,158.1z M653.4,157.1c1.4,0,2.4-0.5,3.1-1.4
		v-2.2c-0.7-0.9-1.7-1.4-3.1-1.4c-0.8,0-1.5,0.2-2,0.7s-0.8,1.1-0.8,1.8s0.3,1.3,0.8,1.8S652.6,157.1,653.4,157.1z"/>
	<path class="st3" d="M666,158.3c-1.9,0-3.4-0.6-4.6-1.8l0.9-1.3c0.4,0.5,0.9,0.8,1.6,1.1s1.4,0.5,2.1,0.5c0.8,0,1.5-0.2,2-0.5
		c0.5-0.4,0.7-0.8,0.7-1.4c0-0.5-0.2-0.9-0.7-1.2s-1.1-0.5-1.8-0.7c-0.7-0.1-1.4-0.3-2.1-0.5c-0.7-0.2-1.3-0.5-1.7-1
		s-0.7-1.1-0.7-1.9c0-0.9,0.4-1.7,1.1-2.3s1.8-0.9,3.1-0.9c1.7,0,3.1,0.5,4.2,1.6l-0.8,1.2c-0.8-1-1.9-1.4-3.4-1.4
		c-0.8,0-1.4,0.2-1.8,0.5c-0.5,0.3-0.7,0.8-0.7,1.3c0,0.4,0.2,0.7,0.5,0.9s0.8,0.4,1.3,0.5s1.1,0.3,1.7,0.4c0.6,0.2,1.2,0.4,1.7,0.6
		c0.5,0.2,1,0.6,1.3,1c0.3,0.5,0.5,1.1,0.5,1.7c0,1-0.4,1.8-1.2,2.5S667.4,158.3,666,158.3z"/>
</g>
<rect x="319.5" y="133.5" class="st3" width="1.5" height="38.8"/>
<rect x="498.5" y="133.5" class="st3" width="1.5" height="38.8"/>
<path class="st1" d="M769.6,55.5c-0.8-1.3-1.7-2-3.1-2.8l-18.1-10.4c-2.9-1.7-6.4-1.7-9.3,0L721,52.7c-1.4,0.8-3.3,2.4-3.5,4.3
	c-0.4,4.6,5.5,7.4,9.4,9.5c6.8,3.6,11.1,5.7,14.4,9.1c0.7,0.7,1.9,2.1,2.3,3.1c0.4-1,1.6-2.3,2.3-3.1c3.3-3.4,7.7-5.5,14.4-9.1
	c3.9-2.1,9.6-4.7,9.4-9.5C770,56.6,769.8,55.9,769.6,55.5 M743.8,68.1c-3.2,0-5.7-2.6-5.7-5.7c0-3.2,2.6-5.7,5.7-5.7
	c3.2,0,5.7,2.6,5.7,5.7C749.5,65.6,747,68.1,743.8,68.1z"/>
<path class="st4" d="M760.6,69.5c-8,4.3-13.7,6.3-15.9,13.2c-0.3,0.8-0.6,1.7-0.9,3.4c-0.3-1.7-0.7-2.6-0.9-3.4
	c-2.2-6.9-7.8-8.9-15.9-13.2c-8.3-4.4-10.1-6.7-10.4-7.6v19.7c0,3.3,1.8,6.4,4.6,8l18.1,10.4c0.7,0.4,1.3,0.7,1.9,0.9
	c-0.2-0.8-0.5-1.6-0.8-2.5c-5.6-15.8-15.6-19.7-15.6-19.7s4.6,0.4,11.3,7.2c3.2,3.3,5.7,7.3,7.8,11.5c0,0,4.4-8,7.8-11.5
	c6.6-6.9,11.3-7.2,11.3-7.2s-10,3.9-15.6,19.7c-0.3,0.9-0.6,1.7-0.8,2.5c0.6-0.2,1.2-0.5,1.9-0.9l18.1-10.4c2.8-1.6,4.6-4.7,4.6-8
	V61.9C770.7,62.8,768.9,65.1,760.6,69.5"/>
<path class="st2" d="M444.6,75.3c-0.9,0-1.8-0.2-2.5-0.6s-1.3-1-1.7-1.7c-0.4-0.7-0.7-1.5-0.9-2.3c-0.2-0.8-0.3-1.7-0.3-2.6
	s0.1-1.8,0.3-2.6c0.2-0.8,0.5-1.6,0.9-2.3c0.4-0.7,1-1.3,1.7-1.7c0.7-0.4,1.5-0.6,2.5-0.6c0.9,0,1.7,0.2,2.5,0.6
	c0.7,0.4,1.3,1,1.7,1.7s0.7,1.5,0.9,2.3c0.2,0.8,0.3,1.7,0.3,2.6s-0.1,1.8-0.3,2.6s-0.5,1.6-0.9,2.3c-0.4,0.7-1,1.3-1.7,1.7
	C446.3,75,445.5,75.3,444.6,75.3z M442.5,72.8c0.6,0.6,1.3,0.9,2.1,0.9c0.8,0,1.6-0.3,2.1-0.9c0.6-0.6,1-1.3,1.2-2.1
	s0.3-1.7,0.3-2.8c0-1-0.1-1.9-0.3-2.8c-0.2-0.8-0.6-1.5-1.2-2.1c-0.6-0.6-1.3-0.9-2.1-0.9c-0.8,0-1.6,0.3-2.1,0.9
	c-0.6,0.6-1,1.3-1.2,2.1c-0.2,0.8-0.3,1.7-0.3,2.8c0,1,0.1,1.9,0.3,2.8C441.5,71.5,441.9,72.2,442.5,72.8z"/>
<path class="st2" d="M436.2,116.1c-2.2,0-3.9-0.8-5-2.3l1.1-1.2c1,1.3,2.3,1.9,3.9,1.9c1,0,1.8-0.3,2.4-0.9c0.6-0.6,0.9-1.3,0.9-2.2
	s-0.3-1.7-0.9-2.2c-0.6-0.6-1.4-0.8-2.4-0.8c-1.3,0-2.4,0.4-3.3,1.3l-1.3-0.4v-7.6h8.7v1.6h-6.9v4.9c0.9-0.9,2-1.3,3.3-1.3
	s2.3,0.4,3.2,1.2c0.9,0.8,1.3,1.9,1.3,3.3c0,1.4-0.5,2.5-1.4,3.4C438.9,115.8,437.6,116.1,436.2,116.1z"/>
<path class="st3" d="M598.3,158.2c-1,0-1.9-0.2-2.7-0.7s-1.4-1.1-1.9-1.9c-0.5-0.8-0.8-1.7-1-2.6c-0.2-0.9-0.3-1.9-0.3-2.9
	s0.1-2,0.3-2.9s0.6-1.8,1-2.6c0.5-0.8,1.1-1.4,1.9-1.9s1.7-0.7,2.7-0.7s1.9,0.2,2.7,0.7c0.8,0.5,1.4,1.1,1.9,1.9
	c0.5,0.8,0.8,1.6,1,2.6c0.2,0.9,0.3,1.9,0.3,2.9s-0.1,2-0.3,2.9c-0.2,0.9-0.6,1.8-1,2.6c-0.5,0.8-1.1,1.4-1.9,1.9
	S599.3,158.2,598.3,158.2z M595.9,155.5c0.6,0.6,1.4,1,2.3,1c0.9,0,1.7-0.3,2.3-1c0.6-0.6,1.1-1.4,1.3-2.3c0.2-0.9,0.4-1.9,0.4-3
	s-0.1-2.1-0.4-3s-0.7-1.7-1.3-2.3c-0.6-0.6-1.4-1-2.3-1c-0.9,0-1.7,0.3-2.3,1s-1.1,1.4-1.3,2.3s-0.4,1.9-0.4,3s0.1,2.1,0.4,3
	S595.3,154.9,595.9,155.5z"/>
</svg>
