<?xml version="1.0" encoding="utf-8"?>
<!-- Generator: Adobe Illustrator 26.0.0, SVG Export Plug-In . SVG Version: 6.00 Build 0)  -->
<svg version="1.1" id="Capa_1" xmlns="http://www.w3.org/2000/svg" xmlns:xlink="http://www.w3.org/1999/xlink" x="0px" y="0px"
	 viewBox="0 0 121.53 123.6" style="enable-background:new 0 0 121.53 123.6;" xml:space="preserve">
<style type="text/css">
	.st0{clip-path:url(#SVGID_00000112592811837387369390000003700150726368398264_);fill:#FFFFFF;}
	.st1{clip-path:url(#SVGID_00000112592811837387369390000003700150726368398264_);fill:#1F1F1D;}
	.st2{fill:#1F1F1D;}
	.st3{clip-path:url(#SVGID_00000089571069112772224990000016488455773796508045_);fill:#1F1F1D;}
	.st4{clip-path:url(#SVGID_00000089571069112772224990000016488455773796508045_);fill:#FFFFFF;}
	.st5{fill:#FFFFFF;}
	.st6{fill:#9B9997;}
	.st7{fill:#161613;}
	.st8{clip-path:url(#SVGID_00000160875963452581856840000000864311479463824519_);fill:#B88CBF;}
	.st9{clip-path:url(#SVGID_00000160875963452581856840000000864311479463824519_);fill:#1F1F1D;}
	.st10{fill:#979593;}
	.st11{fill:#1A1917;}
	.st12{fill:#13110C;}
	.st13{clip-path:url(#SVGID_00000115497053324789883960000012561517396502475951_);fill:#13110C;}
	.st14{clip-path:url(#SVGID_00000115497053324789883960000012561517396502475951_);fill:#FFFFFF;}
	.st15{clip-path:url(#SVGID_00000115497053324789883960000012561517396502475951_);fill:#1F1F1D;}
	.st16{fill:none;stroke:#662982;stroke-width:1.9;stroke-miterlimit:10;}
	.st17{fill:#FFFFFF;stroke:#662982;stroke-width:1.9;stroke-miterlimit:10;}
	.st18{fill:#662982;}
</style>
<g>
	<g>
		<g>
			<defs>
				<rect id="SVGID_1_" x="2.16" y="11.59" width="106.79" height="109.29"/>
			</defs>
			<clipPath id="SVGID_00000181060399780453585160000012365482788999355296_">
				<use xlink:href="#SVGID_1_"  style="overflow:visible;"/>
			</clipPath>
			<path style="clip-path:url(#SVGID_00000181060399780453585160000012365482788999355296_);fill:#FFFFFF;" d="M117.22,34.54
				l-2.96-25.48c0,0-23.12-0.45-26.59-0.33c-3.47,0.11-13.61,0.75-18.31,1.12c-4.71,0.37-7.99,1.05-10.24,2.19
				c-2.25,1.14-5.36,4.49-6.75,5.29c-1.39,0.8-5.4,2.21-6.23,5.36c-0.6,2.26-0.36,2.86,3.62,2.68c1.03-0.05,3.39,0.01,5.58,0.07
				c2.05,0.06,3.94,0.11,4.44,0.08c1.34-0.09,2.35-0.07,3.55-0.61c1.21-0.54,2.02-1.15,2.02-1.15s2.64,1.56,5.28,1.23
				c2.64-0.33,6.45-0.54,8.42,0.14c1.96,0.68,5.2,0.56,7.66,0.5c2.46-0.07,6.11-1.08,6.85-1.85c1.3-1.36,1.96-2.45,1.96-2.45
				s-1.96,9.07-1.78,10.59c0.18,1.52,1.18,4.2,1.18,4.2L117.22,34.54z"/>
			<path style="clip-path:url(#SVGID_00000181060399780453585160000012365482788999355296_);fill:#1F1F1D;" d="M95.51,21.17
				l0.06,0.01l0.11,0.2c-0.02,0.09-1.95,9.06-1.77,10.53c0.16,1.3,0.93,3.51,1.13,4.04l22-1.57l-2.92-25.15
				c-2-0.04-23.15-0.43-26.43-0.33c-3.44,0.11-13.55,0.75-18.31,1.12c-4.75,0.37-7.98,1.07-10.18,2.18
				c-1.29,0.66-2.88,2.06-4.28,3.29c-1,0.88-1.87,1.65-2.46,1.99c-0.24,0.14-0.56,0.3-0.93,0.48c-1.7,0.84-4.55,2.24-5.22,4.78
				c-0.26,0.98-0.35,1.62-0.06,1.98c0.35,0.44,1.38,0.58,3.51,0.48c1.12-0.05,3.75,0.02,6.08,0.09c1.79,0.05,3.48,0.1,3.94,0.07
				l0.49-0.03c1.1-0.06,1.98-0.11,3-0.57c1.17-0.52,1.98-1.13,1.99-1.13l0.19-0.01c0.03,0.02,2.61,1.53,5.17,1.21
				c1.38-0.18,6.09-0.68,8.49,0.15c1.86,0.65,4.88,0.56,7.3,0.5l0.3-0.01c2.55-0.07,6.06-1.1,6.73-1.8
				c1.28-1.33,1.93-2.41,1.93-2.42L95.51,21.17z M94.92,36.3l-0.16-0.11c-0.04-0.11-1.01-2.72-1.19-4.24
				c-0.15-1.27,1.11-7.49,1.6-9.79c-0.33,0.45-0.82,1.06-1.49,1.75c-0.79,0.82-4.5,1.83-6.97,1.9l-0.29,0.01
				c-2.45,0.07-5.5,0.15-7.42-0.51c-1.85-0.65-5.52-0.49-8.34-0.14c-2.42,0.3-4.78-0.91-5.29-1.2c-0.25,0.18-0.97,0.67-1.96,1.11
				c-1.08,0.48-2.03,0.53-3.12,0.6l-0.49,0.03c-0.46,0.03-2.09-0.01-3.97-0.07c-2.32-0.06-4.95-0.14-6.05-0.09
				c-2.32,0.11-3.35-0.06-3.79-0.61c-0.38-0.48-0.3-1.17,0-2.29c0.71-2.69,3.64-4.13,5.4-5c0.36-0.18,0.68-0.33,0.91-0.47
				c0.56-0.32,1.42-1.08,2.41-1.95c1.42-1.25,3.02-2.66,4.35-3.34c2.23-1.13,5.51-1.84,10.3-2.21C74.1,9.3,84.22,8.67,87.67,8.55
				c3.44-0.11,26.36,0.33,26.59,0.33l0.17,0.15l2.96,25.48l-0.04,0.13l-0.12,0.06l-22.31,1.6H94.92z"/>
		</g>
		<g>
			<path class="st2" d="M100.6,31.85l-0.07-0.02c-0.1-0.05-2.39-1.15-3.87-3.54c-0.89-1.44-1.73-4.87-1.43-6.95
				c0.3-2.17,3.91-8.09,4.06-8.34l0.24-0.06l0.06,0.24c-0.04,0.06-3.72,6.12-4.02,8.21c-0.31,2.19,0.63,5.5,1.38,6.73
				c1.42,2.3,3.7,3.4,3.72,3.41l0.08,0.23L100.6,31.85z"/>
			<path class="st2" d="M80.15,25.49l-0.1-0.03l-0.04-0.24c0.01-0.02,1.29-1.79,0.71-4.39c-0.6-2.68-1.44-5.3-1.44-5.32l0.11-0.22
				l0.22,0.11c0.01,0.03,0.85,2.66,1.45,5.35c0.62,2.76-0.71,4.59-0.76,4.67L80.15,25.49z"/>
			<path class="st2" d="M78.23,24.98l-0.16-0.1c-0.01-0.02-0.75-1.6-1.13-3.46c-0.39-1.92,0.53-3.28,0.57-3.33l0.24-0.04l0.04,0.24
				c-0.01,0.01-0.88,1.3-0.51,3.07c0.38,1.82,1.1,3.37,1.11,3.38l-0.08,0.23L78.23,24.98z"/>
			<path class="st2" d="M65.35,23.94l-0.16-0.1c-0.03-0.06-0.65-1.48-0.94-3.84c-0.3-2.36,0.17-5.31,0.17-5.34l0.2-0.14l0.14,0.2
				c0,0.03-0.46,2.93-0.17,5.24c0.29,2.31,0.91,3.73,0.92,3.75l-0.09,0.22L65.35,23.94z"/>
			<path class="st2" d="M63.67,65.87l7.32-4.23v2.51v0.2c3.15,0.11,6.3,0.09,9.44-0.13c1.69-0.12,3.39-0.29,5.05-0.56
				c1.66-0.27,3.33-0.61,4.81-1.21c0.37-0.15,0.71-0.32,1.02-0.52c0.3-0.19,0.55-0.42,0.63-0.59c0.08-0.16,0.09-0.26-0.06-0.52
				c-0.15-0.24-0.45-0.49-0.77-0.7c-1.33-0.86-3.01-1.39-4.64-1.84c-3.31-0.88-6.74-1.39-10.18-1.75c3.46,0.07,6.93,0.3,10.37,0.92
				c1.72,0.34,3.44,0.7,5.11,1.58c0.41,0.24,0.84,0.51,1.21,0.96c0.18,0.23,0.34,0.52,0.43,0.86c0.07,0.35,0.03,0.74-0.09,1.05
				c-0.26,0.64-0.68,1.01-1.07,1.32c-0.4,0.3-0.82,0.56-1.23,0.76c-1.67,0.84-3.38,1.32-5.11,1.75c-1.72,0.42-3.46,0.75-5.2,1.01
				c-3.22,0.49-6.46,0.78-9.72,0.93v2.42L63.67,65.87z"/>
			<path class="st2" d="M89.56,30.7c-0.13,0-0.26,0-0.39-0.01c-3.76-0.14-10.86-2-12.54-2.92l-0.07-0.23l0.23-0.07
				c1.49,0.81,8.58,2.73,12.39,2.88c3.69,0.14,11.18-2,11.25-2.02l0.21,0.12l-0.12,0.21C100.24,28.75,93.41,30.7,89.56,30.7"/>
		</g>
		<g>
			<defs>
				<rect id="SVGID_00000111889554174987898200000016304727904697436580_" x="2.16" y="11.59" width="106.79" height="109.29"/>
			</defs>
			<clipPath id="SVGID_00000010286701841071349870000015440148608341792401_">
				<use xlink:href="#SVGID_00000111889554174987898200000016304727904697436580_"  style="overflow:visible;"/>
			</clipPath>
			<path style="clip-path:url(#SVGID_00000010286701841071349870000015440148608341792401_);fill:#1F1F1D;" d="M69.04,34.61
				l-0.16-0.11l0.1-0.22c0.06-0.02,5.54-2.19,8.11-3.33c2.53-1.13,4.54-4.11,4.56-4.14l0.24-0.05L81.94,27
				c-0.08,0.12-2.09,3.1-4.71,4.27c-2.58,1.15-8.07,3.31-8.12,3.34L69.04,34.61z"/>
			<path style="clip-path:url(#SVGID_00000010286701841071349870000015440148608341792401_);fill:#FFFFFF;" d="M37.44,85.17
				c-0.44,0-3.77,0.14-6.38-0.29c-2.61-0.44-5.65-1.31-7.39-0.58c-1.74,0.72-2.61,2.03-3.62,2.17c-1.02,0.14-3.19-0.15-4.06,0
				c-0.87,0.14-2.61,1.3-3.62,1.45C11.35,88.07-0.5,86.49-0.5,86.49l0.24,35.79l38.13-0.29L37.44,85.17z"/>
			<path style="clip-path:url(#SVGID_00000010286701841071349870000015440148608341792401_);fill:#1F1F1D;" d="M-0.32,86.68
				l0.24,35.42l37.79-0.29l-0.43-36.47l-0.11,0c-0.95,0.02-3.82,0.09-6.12-0.3c-0.54-0.09-1.1-0.2-1.67-0.31
				c-2.12-0.41-4.3-0.84-5.63-0.28c-0.84,0.35-1.47,0.84-2.03,1.27c-0.58,0.45-1.08,0.83-1.63,0.91c-0.53,0.08-1.34,0.04-2.14,0
				c-0.74-0.04-1.51-0.07-1.92,0c-0.38,0.06-0.97,0.35-1.6,0.65c-0.72,0.35-1.47,0.72-2.03,0.79C11.42,88.24,1.28,86.9-0.32,86.68
				 M-0.26,122.45l-0.12-0.05l-0.05-0.12l-0.24-35.79l0.06-0.13l0.14-0.04c4.09,0.55,12.04,1.54,12.81,1.44
				c0.51-0.07,1.23-0.42,1.93-0.76c0.65-0.32,1.26-0.61,1.69-0.69c0.45-0.08,1.2-0.04,1.99,0c0.77,0.04,1.57,0.07,2.07,0
				c0.47-0.07,0.93-0.43,1.47-0.85c0.57-0.45,1.23-0.95,2.11-1.32c1.43-0.59,3.66-0.16,5.83,0.26c0.56,0.11,1.12,0.22,1.66,0.31
				c2.27,0.38,5.12,0.31,6.06,0.29c0.14,0,0.24,0,0.29,0l0.17,0.17l0.43,36.82L38,122.11l-0.12,0.05L-0.26,122.45L-0.26,122.45z"/>
		</g>
		<g>
			<path class="st2" d="M37.15,117.52l-0.04,0c-0.07-0.02-7.17-1.77-10.77-3.93c-3.58-2.15-10.08-6.19-10.15-6.23l-0.05-0.24
				l0.24-0.05c0.06,0.04,6.56,4.08,10.14,6.23c3.56,2.13,10.61,3.88,10.68,3.89l0.13,0.21L37.15,117.52z"/>
			<path class="st2" d="M22.8,111.29l-0.17-0.17c0-0.05,0-5.08-0.29-6.93c-0.29-1.85-1.58-6.89-1.59-6.94l0.12-0.21l0.21,0.12
				c0.01,0.05,1.31,5.1,1.6,6.97c0.29,1.88,0.29,6.78,0.29,6.98L22.8,111.29z"/>
			<path class="st2" d="M23.76,111.9l-0.08-0.02l-0.08-0.23c0.03-0.05,2.67-5.43,3.81-9c1.13-3.53-0.71-9.26-0.72-9.32l0.11-0.22
				l0.22,0.11c0.08,0.24,1.89,5.89,0.72,9.53c-1.15,3.59-3.8,8.99-3.83,9.05L23.76,111.9z"/>
			<path class="st2" d="M28,101.25l-0.17-0.14l0.13-0.2c0.02,0,2.45-0.49,3.76-0.97c3.09-1.12,4.96-4.52,4.98-4.56l0.23-0.07
				l0.07,0.23c-0.08,0.14-1.95,3.55-5.16,4.72c-1.34,0.49-3.71,0.97-3.81,0.99L28,101.25z"/>
			<path class="st2" d="M24.63,110.17l-0.15-0.08l0.06-0.24c0.01-0.01,1.06-0.63,2-1.24c1.59-1.04,2.87-1.92,3.69-2.55
				c1.89-1.45,3.91-4.37,5.17-6.62c1.28-2.27,1.58-3.29,1.58-3.29l0.21-0.12l0.12,0.21c-0.01,0.04-0.31,1.06-1.61,3.37
				c-1.28,2.28-3.33,5.24-5.26,6.72c-1.04,0.8-2.59,1.84-3.71,2.57c-0.94,0.62-2,1.24-2.01,1.25L24.63,110.17z"/>
			<path class="st2" d="M34.65,113.01h-0.03c-0.12-0.02-2.97-0.49-4.86-1.51c-1.87-1.01-3.64-2.28-3.66-2.29l-0.04-0.24l0.24-0.04
				c0.02,0.01,1.77,1.27,3.62,2.27c1.83,0.99,4.72,1.46,4.75,1.47l0.14,0.2L34.65,113.01z"/>
			<path class="st2" d="M37.75,110.56l-0.04-0.01c-0.15-0.04-3.67-0.89-5.55-1.9c-1.87-1.01-2.76-1.6-2.77-1.6l-0.04-0.24l0.24-0.05
				c0.01,0,0.89,0.59,2.74,1.58c1.84,0.99,5.43,1.86,5.46,1.87l0.13,0.21L37.75,110.56z"/>
			<path class="st5" d="M63.28,45.99v-18.8c0-1.07-0.67-1.95-1.5-1.95H40.84c-0.83,0-1.5,0.88-1.5,1.95v18.8H63.28z"/>
			<path class="st2" d="M39.52,45.81h23.59V27.18c0-0.98-0.6-1.78-1.32-1.78H40.84c-0.73,0-1.32,0.8-1.32,1.78V45.81z M63.45,46.16
				H39.17V27.18c0-1.17,0.75-2.13,1.67-2.13h20.95c0.92,0,1.67,0.95,1.67,2.13V46.16z"/>
			<polygon class="st6" points="50.75,25.4 50.41,25.4 50.41,45.74 49.34,45.74 49.34,25.4 49,25.4 49,45.81 50.75,45.81 			"/>
			<path class="st7" d="M50.75,25.05H49v0.34h0.34h1.07h0.35V25.05z M50.75,45.81H49v0.27h1.76V45.81z"/>
			<polygon class="st6" points="48.02,25.4 47.67,25.4 47.67,45.74 46.61,45.74 46.61,25.4 46.26,25.4 46.26,45.81 48.02,45.81 			
				"/>
			<path class="st7" d="M48.02,25.05h-1.23h-0.53v0.34h0.34h1.07h0.34V25.05z M48.02,45.81h-1.75v0.27h1.75V45.81z"/>
			<path class="st6" d="M42.55,25.05h-1.76l0,0c0.02,0,0.03,0,0.05,0H42.55z"/>
			<path class="st6" d="M42.55,25.4H42.2v20.34h-1.07V25.4h-0.29c-0.02,0-0.03,0-0.05,0v20.42h1.76V25.4z"/>
			<path class="st7" d="M42.55,25.05h-1.71h-0.05v0.35c0.02,0,0.03,0,0.05,0h0.29h1.07h0.35V25.05z M42.55,45.81h-1.75v0.27h1.75
				V45.81z"/>
			<polygon class="st6" points="45.28,25.4 44.94,25.4 44.94,45.74 43.87,45.74 43.87,25.4 43.53,25.4 43.53,45.81 45.28,45.81 			
				"/>
			<path class="st7" d="M45.28,25.05h-1.76v0.34h0.34h1.07h0.35V25.05z M45.28,45.81h-1.76v0.27h1.76V45.81z"/>
			<polygon class="st6" points="53.49,25.4 53.14,25.4 53.14,45.74 52.07,45.74 52.07,25.4 51.73,25.4 51.73,45.81 53.49,45.81 			
				"/>
			<path class="st7" d="M53.49,25.05h-1.75v0.34h0.34h1.07h0.34V25.05z M53.49,45.81h-1.76v0.27h1.76V45.81z"/>
			<polygon class="st6" points="56.22,25.4 55.88,25.4 55.88,45.74 54.81,45.74 54.81,25.4 54.46,25.4 54.46,45.81 56.22,45.81 			
				"/>
			<path class="st7" d="M56.22,25.05h-1.76v0.34h0.35h1.07h0.34V25.05z M56.22,45.81h-1.76v0.27h1.76V45.81z"/>
			<polygon class="st6" points="61.7,25.4 61.35,25.4 61.35,45.74 60.28,45.74 60.28,25.4 59.94,25.4 59.94,45.81 61.7,45.81 			"/>
			<path class="st7" d="M61.7,25.05h-1.76v0.34h0.34h1.07h0.35V25.05z M61.7,45.81h-1.76v0.27h1.76V45.81z"/>
			<polygon class="st6" points="58.96,25.4 58.61,25.4 58.61,45.74 57.55,45.74 57.55,25.4 57.2,25.4 57.2,45.81 58.96,45.81 			"/>
			<path class="st7" d="M58.96,25.05H57.2v0.34h0.34h1.07h0.34V25.05z M58.96,45.81h-1.75v0.27h1.75V45.81z"/>
		</g>
		<g>
			<defs>
				<rect id="SVGID_00000005948850261256262920000007217997351663598745_" x="2.16" y="11.59" width="106.79" height="109.29"/>
			</defs>
			<clipPath id="SVGID_00000050629479624343657940000006610362198943985573_">
				<use xlink:href="#SVGID_00000005948850261256262920000007217997351663598745_"  style="overflow:visible;"/>
			</clipPath>
			<path style="clip-path:url(#SVGID_00000050629479624343657940000006610362198943985573_);fill:#B88CBF;" d="M67.03,72.42
				l-4.83-5.91c-0.49-0.6-0.88-1.09-0.87-1.09c0.02,0,0.03-0.58,0.03-1.3v-1.32H41.52v1.32c0,0.72,0.02,1.3,0.03,1.3
				c0.01,0-0.38,0.49-0.87,1.09l-4.83,5.91c-0.49,0.6-1.03,1.68-1.03,2.39v47.45c0,0.71,0.74,1.3,1.66,1.3H66.4
				c0.91,0,1.66-0.59,1.66-1.3V74.81C68.06,74.09,67.52,73.02,67.03,72.42"/>
			<path style="clip-path:url(#SVGID_00000050629479624343657940000006610362198943985573_);fill:#1F1F1D;" d="M41.74,65.36
				c0.05,0.12,0,0.18-0.9,1.28L36,72.54c-0.47,0.58-0.99,1.62-0.99,2.27v47.45c0,0.61,0.66,1.11,1.46,1.11H66.4
				c0.81,0,1.46-0.5,1.46-1.11V74.81c0-0.66-0.51-1.69-0.99-2.27l-4.83-5.9c-0.91-1.1-0.95-1.16-0.9-1.28
				c0.01-0.11,0.02-0.54,0.02-1.24v-1.13H41.71v1.13C41.71,64.79,41.73,65.25,41.74,65.36 M66.4,123.75H36.48
				c-1.02,0-1.85-0.67-1.85-1.49V74.81c0-0.75,0.55-1.87,1.08-2.52l4.83-5.9c0.42-0.52,0.71-0.89,0.81-1.02
				c-0.02-0.2-0.02-0.57-0.02-1.26V62.6h20.22v1.52c0,0.68,0,1.05-0.02,1.26c0.1,0.14,0.41,0.53,0.81,1.02l4.83,5.9
				c0.53,0.65,1.08,1.76,1.08,2.52v47.45C68.25,123.08,67.42,123.75,66.4,123.75"/>
		</g>
		<g>
			<path class="st10" d="M61.17,62.99H41.71v1.13c0,0.63,0.01,1.08,0.02,1.22h19.41c0.01-0.13,0.02-0.55,0.02-1.22V62.99z"/>
			<path class="st11" d="M61.36,62.79H41.52v2.23l0,0.31h0.21c-0.01-0.14-0.02-0.58-0.02-1.22v-1.13h19.45v1.13
				c0,0.66-0.01,1.08-0.02,1.22h0.21v-0.31V62.79z"/>
			<rect x="41.34" y="51.67" class="st5" width="20.2" height="10.61"/>
			<path class="st12" d="M41.52,62.11h19.85V51.84H41.52V62.11z M61.71,62.45H41.17V51.5h20.54V62.45z"/>
			<path class="st5" d="M61.58,57.58H41.3c-0.34,0-0.62-0.28-0.62-0.62V56.9c0-0.34,0.28-0.62,0.62-0.62h20.29
				c0.34,0,0.62,0.28,0.62,0.62v0.06C62.2,57.3,61.92,57.58,61.58,57.58"/>
			<path class="st12" d="M41.3,56.45c-0.24,0-0.44,0.2-0.44,0.45v0.06c0,0.25,0.2,0.45,0.44,0.45h20.29c0.24,0,0.44-0.2,0.44-0.45
				V56.9c0-0.24-0.2-0.45-0.44-0.45H41.3z M61.58,57.75H41.3c-0.43,0-0.79-0.35-0.79-0.79V56.9c0-0.44,0.35-0.79,0.79-0.79h20.29
				c0.43,0,0.79,0.35,0.79,0.79v0.06C62.37,57.4,62.02,57.75,61.58,57.75"/>
			<path class="st5" d="M61.54,60.82l-20.26-0.97c-0.34-0.01-0.6-0.3-0.59-0.64l0-0.07c0.02-0.34,0.31-0.6,0.64-0.59l20.26,0.97
				c0.34,0.02,0.6,0.31,0.59,0.64l0,0.07C62.17,60.57,61.88,60.83,61.54,60.82"/>
			<path class="st12" d="M61.55,60.65l0.32-0.12l0.15-0.31l0-0.06l-0.12-0.32l-0.31-0.14l-20.26-0.97h-0.02
				c-0.24,0-0.43,0.18-0.44,0.42l0,0.06c-0.01,0.25,0.18,0.46,0.42,0.47L61.55,60.65z M61.57,60.99h-0.04l-20.26-0.97
				c-0.21-0.01-0.4-0.1-0.55-0.26c-0.14-0.16-0.21-0.36-0.21-0.57l0-0.07c0.01-0.21,0.1-0.4,0.26-0.55c0.16-0.14,0.35-0.22,0.57-0.2
				l20.26,0.97c0.21,0.01,0.4,0.1,0.55,0.26c0.14,0.16,0.21,0.36,0.2,0.57l0,0.06c-0.01,0.21-0.1,0.41-0.26,0.55
				C61.95,60.92,61.77,60.99,61.57,60.99"/>
			<path class="st5" d="M61.54,55.66l-20.26-0.96c-0.34-0.02-0.6-0.31-0.59-0.65l0-0.06c0.02-0.34,0.31-0.6,0.64-0.59l20.26,0.97
				c0.34,0.02,0.6,0.31,0.59,0.65l0,0.06C62.17,55.41,61.88,55.68,61.54,55.66"/>
			<path class="st12" d="M61.55,55.49l0.32-0.12l0.15-0.31l0-0.06c0.01-0.24-0.18-0.46-0.42-0.46l-20.26-0.97l-0.32,0.12l-0.14,0.31
				l0,0.06l0.12,0.32l0.3,0.14L61.55,55.49z M61.57,55.83h-0.04l-20.26-0.97c-0.21-0.01-0.4-0.1-0.55-0.26
				c-0.14-0.16-0.21-0.36-0.21-0.57l0-0.07c0.01-0.21,0.1-0.4,0.26-0.55c0.16-0.14,0.35-0.22,0.57-0.21l20.26,0.97
				c0.21,0.01,0.4,0.1,0.55,0.26c0.14,0.16,0.21,0.36,0.2,0.57l0,0.06c-0.01,0.21-0.1,0.41-0.26,0.55
				C61.95,55.76,61.77,55.83,61.57,55.83"/>
			<path class="st5" d="M61.32,62.96H41.56c-0.48,0-0.88-0.39-0.88-0.88v-0.09c0-0.48,0.39-0.88,0.88-0.88h19.77
				c0.48,0,0.88,0.39,0.88,0.88v0.09C62.2,62.56,61.8,62.96,61.32,62.96"/>
			<path class="st12" d="M41.56,61.28c-0.39,0-0.7,0.32-0.7,0.71v0.09c0,0.39,0.32,0.71,0.7,0.71h19.77c0.39,0,0.71-0.32,0.71-0.71
				v-0.09c0-0.39-0.32-0.71-0.71-0.71H41.56z M61.32,63.13H41.56c-0.58,0-1.05-0.47-1.05-1.05v-0.09c0-0.58,0.47-1.05,1.05-1.05
				h19.77c0.58,0,1.05,0.47,1.05,1.05v0.09C62.37,62.66,61.9,63.13,61.32,63.13"/>
			<path class="st5" d="M61.58,52.42H41.3c-0.34,0-0.62-0.28-0.62-0.62v-0.06c0-0.34,0.28-0.62,0.62-0.62h20.29
				c0.34,0,0.62,0.28,0.62,0.62v0.06C62.2,52.14,61.92,52.42,61.58,52.42"/>
		</g>
		<g>
			<defs>
				<rect id="SVGID_00000028296361425834327840000002540655267533413541_" x="2.16" y="11.59" width="106.79" height="109.29"/>
			</defs>
			<clipPath id="SVGID_00000103951295971360297560000006315527423119613070_">
				<use xlink:href="#SVGID_00000028296361425834327840000002540655267533413541_"  style="overflow:visible;"/>
			</clipPath>
			<path style="clip-path:url(#SVGID_00000103951295971360297560000006315527423119613070_);fill:#13110C;" d="M41.3,51.29
				c-0.24,0-0.44,0.2-0.44,0.45v0.06c0,0.24,0.2,0.45,0.44,0.45h20.29c0.24,0,0.44-0.2,0.44-0.45v-0.06c0-0.24-0.2-0.45-0.44-0.45
				H41.3z M61.58,52.59H41.3c-0.43,0-0.79-0.35-0.79-0.79v-0.06c0-0.44,0.35-0.79,0.79-0.79h20.29c0.43,0,0.79,0.35,0.79,0.79v0.06
				C62.37,52.24,62.02,52.59,61.58,52.59"/>
			<path style="clip-path:url(#SVGID_00000103951295971360297560000006315527423119613070_);fill:#FFFFFF;" d="M118.46,23.86
				c0,0-6.23,1.59-10.14,4.06c-3.91,2.46-7.97,3.77-10.15,3.77c-2.17,0-8.41,0.73-9.71,1.16c-1.3,0.44-3.33,1.02-3.33,1.02h-8.26
				h-4.49c0,0-8.12-1.6-12.17-1.02c-4.06,0.58-7.68,4.93-7.97,6.96c-0.29,2.03-0.43,5.8,0,6.81c0.44,1.02,2.64,1.86,3.92,2.17
				c2.32,0.58,4.49,0.87,4.49,0.87s4.35,3.19,14.49,3.62c10.15,0.44,15.95-0.87,18.99-1.01c3.04-0.15,8.12,0,12.32,4.64
				c2.4,2.65,8.26,7.83,8.26,7.83L118.46,23.86z"/>
			<path style="clip-path:url(#SVGID_00000103951295971360297560000006315527423119613070_);fill:#1F1F1D;" d="M95.34,52.07
				c3.28,0,7.58,0.71,11.21,4.73c2.09,2.3,6.84,6.56,8,7.59l3.71-40.29c-1.17,0.32-6.44,1.82-9.86,3.98
				c-4.14,2.61-8.21,3.79-10.24,3.79c-2.26,0-8.4,0.73-9.66,1.15c-1.29,0.43-3.32,1.01-3.34,1.02l-0.05,0.01H72.37
				c-0.11-0.02-8.16-1.58-12.15-1.02c-3.97,0.57-7.55,4.87-7.83,6.81c-0.29,2.04-0.42,5.76-0.01,6.72c0.4,0.93,2.49,1.75,3.8,2.08
				c2.28,0.57,4.45,0.86,4.47,0.86l0.08,0.03c0.04,0.03,4.44,3.16,14.4,3.59c7.42,0.32,12.52-0.3,15.89-0.7
				c1.26-0.15,2.26-0.27,3.08-0.31C94.5,52.08,94.91,52.07,95.34,52.07 M114.7,64.91l-0.11-0.04c-0.06-0.05-5.89-5.21-8.28-7.84
				c-4.02-4.44-8.88-4.75-12.19-4.58c-0.81,0.04-1.8,0.16-3.05,0.31c-3.38,0.41-8.51,1.03-15.95,0.71
				c-9.6-0.41-14.1-3.32-14.55-3.63c-0.31-0.04-2.34-0.34-4.47-0.87c-1.18-0.29-3.55-1.15-4.03-2.27c-0.45-1.05-0.3-4.85-0.01-6.91
				c0.3-2.08,3.93-6.5,8.12-7.1c4.04-0.58,12.15,1,12.23,1.02l12.7,0c0.23-0.07,2.09-0.6,3.3-1.01c1.38-0.46,7.66-1.17,9.77-1.17
				c1.98,0,5.97-1.17,10.06-3.74c3.89-2.45,10.13-4.06,10.19-4.08l0.15,0.04l0.06,0.15l-3.77,40.88l-0.11,0.14L114.7,64.91z"/>
		</g>
		<g>
			<path class="st2" d="M60.12,49.76l-0.17-0.16l0.15-0.19c0.02,0,1.62-0.14,3.35-0.14c1.61,0,2.58,0,3.09-5.14
				c0.51-5.11-0.59-5.28-4.67-5.9l-0.47-0.07c-3.37-0.52-8.18-0.29-8.23-0.29l-0.18-0.16l0.16-0.18c0.05,0,4.89-0.23,8.29,0.29
				l0.47,0.07c4.12,0.63,5.5,0.84,4.96,6.27c-0.52,5.19-1.59,5.45-3.43,5.45c-1.71,0-3.3,0.14-3.32,0.14H60.12z"/>
			<path class="st2" d="M2.4,120.63h106.31V11.83H2.4V120.63z M109.19,121.12H1.92V11.35h107.27V121.12z"/>
			<rect x="34.97" y="82.59" class="st5" width="32.66" height="24.23"/>
			<polygon class="st12" points="45.12,84.63 45.48,84.63 45.48,85.96 45.49,85.96 45.71,85.67 46.55,84.63 47,84.63 46,85.8 
				47.07,87.4 46.65,87.4 45.74,86.04 45.48,86.34 45.48,87.4 45.12,87.4 			"/>
			<path class="st12" d="M48.38,86.38c-0.39-0.01-0.84,0.06-0.84,0.45c0,0.23,0.16,0.34,0.34,0.34c0.26,0,0.42-0.16,0.48-0.33
				l0.02-0.12V86.38z M48.43,87.4l-0.03-0.25h-0.01c-0.11,0.16-0.32,0.3-0.61,0.3c-0.4,0-0.61-0.29-0.61-0.57
				c0-0.48,0.43-0.74,1.19-0.74v-0.04c0-0.16-0.04-0.46-0.45-0.46c-0.19,0-0.38,0.06-0.52,0.15l-0.08-0.24
				c0.16-0.11,0.4-0.18,0.65-0.18c0.61,0,0.76,0.41,0.76,0.81v0.74c0,0.17,0.01,0.34,0.03,0.48H48.43z"/>
			<path class="st12" d="M49.31,85.95c0-0.21,0-0.38-0.02-0.54h0.32l0.02,0.33h0.01c0.1-0.19,0.33-0.37,0.66-0.37
				c0.28,0,0.7,0.16,0.7,0.84v1.19h-0.36v-1.14c0-0.32-0.12-0.59-0.46-0.59c-0.24,0-0.42,0.17-0.48,0.37l-0.02,0.17v1.19h-0.36
				V85.95z"/>
			<path class="st12" d="M51.95,86.6l0.02,0.13c0.07,0.25,0.28,0.42,0.54,0.42c0.38,0,0.6-0.31,0.6-0.76c0-0.4-0.2-0.74-0.59-0.74
				c-0.25,0-0.48,0.17-0.55,0.44l-0.02,0.15V86.6z M51.57,87.4c0.01-0.13,0.02-0.34,0.02-0.51v-2.4h0.36v1.25h0.01
				c0.13-0.22,0.36-0.36,0.68-0.36c0.49,0,0.84,0.41,0.84,1.01c0,0.71-0.45,1.06-0.89,1.06c-0.29,0-0.52-0.11-0.66-0.37H51.9
				l-0.02,0.33H51.57z"/>
			<path class="st12" d="M53.93,85.41h0.36v1.99h-0.36V85.41z M54.33,84.85c0.01,0.12-0.08,0.22-0.23,0.22
				c-0.13,0-0.22-0.1-0.22-0.22c0-0.13,0.09-0.23,0.23-0.23C54.24,84.63,54.33,84.73,54.33,84.85"/>
			<path class="st12" d="M54.84,87.03c0.11,0.07,0.29,0.14,0.47,0.14c0.26,0,0.39-0.13,0.39-0.29c0-0.17-0.1-0.27-0.37-0.37
				c-0.35-0.13-0.52-0.32-0.52-0.56c0-0.32,0.26-0.58,0.68-0.58c0.2,0,0.38,0.06,0.49,0.12l-0.09,0.26
				c-0.08-0.05-0.22-0.11-0.41-0.11c-0.21,0-0.33,0.12-0.33,0.27c0,0.17,0.12,0.24,0.38,0.34c0.35,0.13,0.52,0.3,0.52,0.6
				c0,0.35-0.27,0.6-0.74,0.6c-0.22,0-0.42-0.05-0.56-0.14L54.84,87.03z"/>
			<path class="st12" d="M56.97,85.23h0.07l0.16-0.1l-0.14-0.1l-0.09,0.01V85.23z M56.97,85.61h-0.16v-0.67l0.26-0.02
				c0.13,0,0.18,0.02,0.23,0.05l0.07,0.15l-0.14,0.16v0.01l0.12,0.16l0.05,0.17h-0.17l-0.05-0.16l-0.14-0.11h-0.07V85.61z
				 M56.55,85.26c0,0.3,0.22,0.54,0.53,0.54c0.3,0,0.51-0.24,0.51-0.54c0-0.3-0.22-0.54-0.52-0.54
				C56.77,84.72,56.55,84.96,56.55,85.26 M57.76,85.26c0,0.38-0.3,0.68-0.69,0.68c-0.38,0-0.69-0.3-0.69-0.68
				c0-0.37,0.31-0.67,0.69-0.67C57.46,84.59,57.76,84.89,57.76,85.26"/>
			<path class="st12" d="M43.94,91.08c-0.12,0.06-0.35,0.12-0.64,0.12c-0.68,0-1.19-0.45-1.19-1.28c0-0.79,0.51-1.33,1.26-1.33
				c0.3,0,0.49,0.07,0.57,0.11l-0.07,0.27c-0.12-0.06-0.29-0.11-0.49-0.11c-0.56,0-0.94,0.38-0.94,1.04c0,0.62,0.34,1.02,0.93,1.02
				c0.19,0,0.38-0.04,0.51-0.1L43.94,91.08z"/>
			<path class="st12" d="M45.23,90.23c-0.34-0.01-0.73,0.06-0.73,0.41c0,0.21,0.13,0.32,0.3,0.32c0.22,0,0.37-0.15,0.42-0.31
				l0.02-0.1V90.23z M45.28,91.16l-0.03-0.23h-0.01c-0.1,0.14-0.28,0.27-0.53,0.27c-0.35,0-0.53-0.26-0.53-0.52
				c0-0.44,0.37-0.68,1.04-0.68v-0.04c0-0.15-0.04-0.42-0.39-0.42c-0.16,0-0.33,0.05-0.45,0.13l-0.07-0.22
				c0.14-0.1,0.35-0.16,0.57-0.16c0.53,0,0.66,0.38,0.66,0.75v0.68c0,0.16,0.01,0.31,0.03,0.44H45.28z"/>
			<path class="st12" d="M46.04,89.83c0-0.19,0-0.34-0.01-0.49h0.28l0.02,0.3h0.01c0.08-0.18,0.29-0.34,0.57-0.34
				c0.24,0,0.61,0.15,0.61,0.78v1.09H47.2v-1.05c0-0.29-0.1-0.54-0.4-0.54c-0.21,0-0.37,0.16-0.42,0.34l-0.02,0.15v1.1h-0.31V89.83z
				"/>
			<path class="st12" d="M48.03,89.83c0-0.19-0.01-0.34-0.02-0.49h0.28l0.02,0.3h0.01c0.09-0.18,0.29-0.34,0.57-0.34
				c0.24,0,0.61,0.15,0.61,0.78v1.09h-0.31v-1.05c0-0.29-0.1-0.54-0.4-0.54c-0.21,0-0.37,0.16-0.42,0.34l-0.02,0.15v1.1h-0.31V89.83
				z"/>
			<path class="st12" d="M50.92,90.23c-0.35-0.01-0.73,0.06-0.73,0.41c0,0.21,0.14,0.32,0.29,0.32c0.23,0,0.37-0.15,0.42-0.31
				l0.02-0.1V90.23z M50.97,91.16l-0.03-0.23h-0.01c-0.1,0.14-0.28,0.27-0.53,0.27c-0.35,0-0.53-0.26-0.53-0.52
				c0-0.44,0.37-0.68,1.04-0.68v-0.04c0-0.15-0.04-0.42-0.39-0.42c-0.16,0-0.33,0.05-0.45,0.13L50,89.46
				c0.14-0.1,0.35-0.16,0.57-0.16c0.53,0,0.66,0.38,0.66,0.75v0.68c0,0.16,0.01,0.31,0.03,0.44H50.97z"/>
			<path class="st12" d="M52.04,90.43l0.01,0.12c0.06,0.23,0.24,0.39,0.47,0.39c0.33,0,0.53-0.28,0.53-0.7
				c0-0.37-0.18-0.68-0.52-0.68c-0.22,0-0.41,0.16-0.48,0.41l-0.02,0.14V90.43z M51.72,91.16c0.01-0.12,0.02-0.31,0.02-0.47v-2.2
				h0.31v1.14h0.01c0.11-0.2,0.31-0.33,0.59-0.33c0.43,0,0.73,0.38,0.73,0.93c0,0.65-0.39,0.97-0.78,0.97
				c-0.25,0-0.45-0.1-0.58-0.34H52l-0.02,0.3H51.72z"/>
			<path class="st12" d="M53.77,89.34h0.31v1.82h-0.31V89.34z M54.12,88.83c0.01,0.11-0.08,0.2-0.2,0.2l-0.19-0.2l0.2-0.21
				L54.12,88.83z"/>
			<path class="st12" d="M55.78,90.08l-0.01-0.14c-0.05-0.21-0.22-0.38-0.45-0.38c-0.33,0-0.52,0.3-0.52,0.7
				c0,0.37,0.17,0.67,0.51,0.67c0.21,0,0.4-0.15,0.46-0.4l0.01-0.14V90.08z M56.1,88.49v2.2c0,0.16,0,0.35,0.01,0.47h-0.28
				l-0.01-0.32h-0.01c-0.1,0.2-0.31,0.36-0.59,0.36c-0.42,0-0.74-0.37-0.74-0.93c0-0.61,0.36-0.98,0.78-0.98
				c0.27,0,0.45,0.13,0.52,0.28h0.01v-1.09H56.1z"/>
			<path class="st12" d="M56.62,89.34h0.31v1.82h-0.31V89.34z M56.97,88.83c0,0.11-0.08,0.2-0.2,0.2l-0.19-0.2l0.2-0.21L56.97,88.83
				z"/>
			<path class="st12" d="M57.65,90.25c0,0.4,0.22,0.7,0.53,0.7c0.3,0,0.53-0.3,0.53-0.71c0-0.31-0.15-0.7-0.52-0.7
				C57.81,89.54,57.65,89.91,57.65,90.25 M59.02,90.23c0,0.67-0.44,0.97-0.86,0.97c-0.47,0-0.83-0.36-0.83-0.94
				c0-0.61,0.38-0.97,0.86-0.97C58.68,89.3,59.02,89.68,59.02,90.23"/>
			<rect x="59.42" y="88.49" class="st12" width="0.32" height="2.67"/>
			<polygon class="st12" points="44.11,92.48 43.6,92.76 43.66,93.01 44.06,92.78 44.07,92.78 44.07,94.92 44.37,94.92 44.37,92.48 
							"/>
			<path class="st12" d="M45.5,93.71c0,0.63,0.19,1,0.47,1c0.32,0,0.47-0.4,0.47-1.02c0-0.6-0.14-1-0.47-1
				C45.7,92.69,45.5,93.04,45.5,93.71 M46.77,93.67c0,0.83-0.29,1.29-0.81,1.29c-0.45,0-0.76-0.45-0.77-1.25
				c0-0.82,0.34-1.27,0.81-1.27C46.49,92.43,46.77,92.89,46.77,93.67"/>
			<path class="st12" d="M47.34,93.71c0,0.63,0.19,1,0.47,1c0.32,0,0.47-0.4,0.47-1.02c0-0.6-0.15-1-0.47-1
				C47.54,92.69,47.34,93.04,47.34,93.71 M48.6,93.67c0,0.83-0.29,1.29-0.81,1.29c-0.45,0-0.76-0.45-0.77-1.25
				c0-0.82,0.34-1.27,0.81-1.27C48.32,92.43,48.6,92.89,48.6,93.67"/>
			<path class="st12" d="M49.75,93.59c0-0.19,0-0.34-0.01-0.49h0.27l0.02,0.29h0.01c0.1-0.17,0.26-0.33,0.54-0.33
				c0.24,0,0.41,0.15,0.49,0.36h0.01l0.19-0.24c0.11-0.08,0.22-0.13,0.38-0.13c0.23,0,0.57,0.16,0.57,0.79v1.07h-0.31v-1.03
				c0-0.35-0.12-0.56-0.38-0.56c-0.18,0-0.32,0.14-0.37,0.3l-0.02,0.16v1.13h-0.31v-1.09c0-0.29-0.12-0.5-0.36-0.5
				c-0.2,0-0.34,0.17-0.39,0.33l-0.02,0.16v1.1h-0.31V93.59z"/>
			<path class="st12" d="M53.89,93.82l-0.02-0.15c-0.06-0.19-0.21-0.35-0.44-0.35c-0.3,0-0.52,0.27-0.52,0.69
				c0,0.36,0.17,0.65,0.51,0.65c0.19,0,0.37-0.13,0.44-0.34l0.03-0.18V93.82z M54.22,93.1c-0.01,0.13-0.02,0.28-0.02,0.5v1.06
				c0,0.42-0.08,0.67-0.25,0.83c-0.17,0.17-0.41,0.22-0.63,0.22c-0.21,0-0.44-0.05-0.58-0.15l0.08-0.25
				c0.12,0.07,0.29,0.14,0.51,0.14c0.32,0,0.56-0.18,0.56-0.63v-0.2h-0.01c-0.1,0.17-0.28,0.3-0.55,0.3c-0.43,0-0.74-0.38-0.74-0.89
				c0-0.62,0.38-0.97,0.78-0.97c0.3,0,0.46,0.17,0.54,0.32h0.01l0.01-0.28H54.22z"/>
			<polygon class="st12" points="55.46,92.34 54.46,95.07 54.7,95.07 55.7,92.34 			"/>
			<path class="st12" d="M55.95,93.59c0-0.19,0-0.34-0.01-0.49h0.27l0.02,0.29h0.01c0.1-0.17,0.26-0.33,0.54-0.33
				c0.24,0,0.42,0.15,0.49,0.36h0.01l0.19-0.24c0.1-0.08,0.22-0.13,0.38-0.13c0.23,0,0.57,0.16,0.57,0.79v1.07h-0.31v-1.03
				c0-0.35-0.12-0.56-0.38-0.56c-0.18,0-0.32,0.14-0.37,0.3l-0.03,0.16v1.13h-0.31v-1.09c0-0.29-0.12-0.5-0.36-0.5
				c-0.2,0-0.34,0.17-0.39,0.33l-0.03,0.16v1.1h-0.31V93.59z"/>
			<rect x="58.93" y="92.25" class="st12" width="0.31" height="2.67"/>
			<path class="st12" d="M38.46,98.7c0.12,0.08,0.3,0.14,0.48,0.14c0.28,0,0.43-0.15,0.43-0.35c0-0.2-0.11-0.31-0.39-0.41
				c-0.34-0.12-0.55-0.3-0.55-0.59c0-0.32,0.27-0.56,0.67-0.56c0.21,0,0.37,0.05,0.46,0.1l-0.08,0.22c-0.07-0.04-0.2-0.1-0.39-0.1
				c-0.28,0-0.39,0.17-0.39,0.31c0,0.19,0.12,0.29,0.41,0.4c0.35,0.13,0.53,0.3,0.53,0.61c0,0.32-0.24,0.6-0.73,0.6
				c-0.2,0-0.42-0.06-0.53-0.13L38.46,98.7z"/>
			<path class="st12" d="M40.19,98.28c0,0.33,0.19,0.57,0.45,0.57c0.26,0,0.45-0.24,0.45-0.58c0-0.25-0.13-0.57-0.45-0.57
				C40.32,97.7,40.19,98,40.19,98.28 M41.37,98.27c0,0.55-0.38,0.79-0.74,0.79c-0.4,0-0.72-0.3-0.72-0.77c0-0.5,0.33-0.79,0.74-0.79
				C41.08,97.5,41.37,97.81,41.37,98.27"/>
			<rect x="41.71" y="96.84" class="st12" width="0.27" height="2.19"/>
			<path class="st12" d="M43.68,98.62c0,0.15,0,0.29,0.01,0.41h-0.24l-0.02-0.24h-0.01c-0.07,0.12-0.23,0.28-0.49,0.28
				c-0.23,0-0.52-0.13-0.52-0.65v-0.87h0.27v0.82c0,0.29,0.09,0.48,0.33,0.48c0.18,0,0.31-0.13,0.36-0.25l0.03-0.14v-0.91h0.27
				V98.62z"/>
			<path class="st12" d="M45.2,98.97c-0.07,0.04-0.23,0.08-0.43,0.08c-0.45,0-0.74-0.3-0.74-0.76c0-0.46,0.32-0.79,0.8-0.79
				c0.16,0,0.3,0.04,0.38,0.08l-0.06,0.21c-0.06-0.04-0.17-0.07-0.32-0.07c-0.34,0-0.52,0.25-0.52,0.56c0,0.35,0.22,0.56,0.52,0.56
				c0.15,0,0.26-0.04,0.33-0.07L45.2,98.97z"/>
			<path class="st12" d="M45.51,99.03h0.27v-1.49h-0.27V99.03z M45.48,97.12l0.16,0.17l0.17-0.17l-0.17-0.17L45.48,97.12z"/>
			<path class="st12" d="M47.26,96.89l-0.38,0.44h-0.19l0.27-0.44H47.26z M46.4,98.28c0,0.33,0.19,0.57,0.45,0.57
				c0.26,0,0.45-0.24,0.45-0.58c0-0.25-0.12-0.57-0.45-0.57S46.4,98,46.4,98.28 M47.58,98.27c0,0.55-0.38,0.79-0.74,0.79
				c-0.4,0-0.72-0.3-0.72-0.77c0-0.5,0.33-0.79,0.74-0.79C47.29,97.5,47.58,97.81,47.58,98.27"/>
			<path class="st12" d="M47.92,97.94c0-0.15,0-0.28-0.01-0.4h0.24l0.02,0.25h0.01c0.07-0.14,0.24-0.28,0.49-0.28
				c0.21,0,0.53,0.12,0.53,0.63v0.89h-0.27v-0.86c0-0.24-0.09-0.44-0.34-0.44c-0.18,0-0.32,0.13-0.36,0.28l-0.02,0.13v0.9h-0.27
				V97.94z"/>
			<path class="st12" d="M50.45,98.28c0,0.33,0.19,0.57,0.45,0.57c0.26,0,0.45-0.24,0.45-0.58c0-0.25-0.13-0.57-0.45-0.57
				S50.45,98,50.45,98.28 M51.63,98.27c0,0.55-0.38,0.79-0.74,0.79c-0.4,0-0.71-0.3-0.71-0.77c0-0.5,0.33-0.79,0.74-0.79
				C51.34,97.5,51.63,97.81,51.63,98.27"/>
			<path class="st12" d="M51.97,98c0-0.18,0-0.33-0.01-0.46h0.24l0.01,0.29h0.01c0.07-0.2,0.23-0.33,0.41-0.33l0.08,0.01v0.25
				l-0.09-0.01c-0.19,0-0.33,0.14-0.37,0.35l-0.01,0.13v0.79h-0.27V98z"/>
			<path class="st12" d="M53.75,98.26c-0.3,0-0.63,0.05-0.63,0.34c0,0.18,0.12,0.26,0.25,0.26c0.19,0,0.32-0.13,0.36-0.25l0.01-0.09
				V98.26z M53.79,99.02l-0.02-0.19h-0.01c-0.08,0.12-0.24,0.22-0.46,0.22c-0.3,0-0.46-0.21-0.46-0.43c0-0.36,0.32-0.56,0.9-0.55
				v-0.03c0-0.12-0.04-0.35-0.34-0.35c-0.14,0-0.28,0.04-0.39,0.11l-0.06-0.18c0.12-0.08,0.3-0.13,0.49-0.13
				c0.46,0,0.57,0.31,0.57,0.61v0.56c0,0.13,0.01,0.26,0.02,0.36H53.79z"/>
			<rect x="54.45" y="96.84" class="st12" width="0.27" height="2.19"/>
			<path class="st12" d="M56.41,96.89c-0.22,0.3-0.39,0.7-0.39,1.26c0,0.55,0.17,0.94,0.39,1.25H56.2c-0.2-0.26-0.4-0.65-0.4-1.25
				c0-0.61,0.21-1,0.4-1.26H56.41z"/>
			<path class="st12" d="M57.71,98.12L57.69,98c-0.05-0.16-0.18-0.29-0.38-0.29c-0.26,0-0.45,0.22-0.45,0.56
				c0,0.29,0.15,0.54,0.44,0.54c0.17,0,0.32-0.1,0.38-0.28l0.02-0.14V98.12z M57.98,97.54c-0.01,0.11-0.01,0.23-0.01,0.41v0.87
				c0,0.34-0.07,0.55-0.21,0.68c-0.15,0.14-0.35,0.18-0.54,0.18c-0.18,0-0.38-0.04-0.5-0.12l0.07-0.21c0.1,0.06,0.25,0.12,0.44,0.12
				c0.28,0,0.48-0.14,0.48-0.52v-0.17H57.7c-0.08,0.14-0.24,0.25-0.47,0.25c-0.37,0-0.63-0.32-0.63-0.73c0-0.5,0.33-0.79,0.67-0.79
				c0.26,0,0.4,0.14,0.47,0.26h0.01l0.01-0.22H57.98z"/>
			<path class="st12" d="M58.59,98.28c0,0.33,0.19,0.57,0.45,0.57c0.26,0,0.45-0.24,0.45-0.58c0-0.25-0.13-0.57-0.45-0.57
				S58.59,98,58.59,98.28 M59.77,98.27c0,0.55-0.38,0.79-0.74,0.79c-0.4,0-0.71-0.3-0.71-0.77c0-0.5,0.33-0.79,0.74-0.79
				C59.48,97.5,59.77,97.81,59.77,98.27"/>
			<path class="st12" d="M60.44,97.11v0.43h0.39v0.21h-0.39v0.8c0,0.19,0.05,0.29,0.2,0.29l0.16-0.02l0.01,0.2l-0.24,0.03
				c-0.13,0-0.23-0.04-0.29-0.11c-0.08-0.08-0.11-0.21-0.11-0.39v-0.81h-0.23v-0.21h0.23v-0.36L60.44,97.11z"/>
			<path class="st12" d="M61.91,98.26c-0.29,0-0.63,0.05-0.63,0.34c0,0.18,0.12,0.26,0.25,0.26c0.2,0,0.32-0.13,0.36-0.25l0.01-0.09
				V98.26z M61.96,99.02l-0.02-0.19h-0.01c-0.08,0.12-0.24,0.22-0.46,0.22c-0.3,0-0.46-0.21-0.46-0.43c0-0.36,0.32-0.56,0.9-0.55
				v-0.03c0-0.12-0.04-0.35-0.34-0.35c-0.14,0-0.28,0.04-0.39,0.11l-0.06-0.18c0.12-0.08,0.3-0.13,0.49-0.13
				c0.46,0,0.57,0.31,0.57,0.61v0.56c0,0.13,0.01,0.26,0.02,0.36H61.96z"/>
			<path class="st12" d="M62.58,98.75c0.08,0.05,0.22,0.11,0.36,0.11c0.2,0,0.29-0.1,0.29-0.22c0-0.13-0.08-0.2-0.28-0.27
				c-0.27-0.1-0.39-0.24-0.39-0.42c0-0.24,0.2-0.44,0.51-0.44c0.15,0,0.29,0.04,0.37,0.09l-0.07,0.2c-0.06-0.04-0.16-0.09-0.3-0.09
				c-0.16,0-0.25,0.09-0.25,0.2c0,0.12,0.09,0.18,0.28,0.25c0.26,0.1,0.39,0.23,0.39,0.45c0,0.26-0.2,0.45-0.56,0.45
				c-0.16,0-0.31-0.04-0.42-0.1L62.58,98.75z"/>
			<path class="st12" d="M63.67,99.4c0.22-0.3,0.39-0.7,0.39-1.26c0-0.55-0.17-0.94-0.39-1.25h0.21c0.2,0.25,0.4,0.65,0.4,1.25
				c0,0.6-0.21,0.99-0.4,1.26H63.67z"/>
			<path class="st12" d="M38.16,102.1l-0.53-1.61h0.22l0.25,0.79c0.07,0.22,0.13,0.41,0.17,0.61h0c0.05-0.19,0.11-0.39,0.19-0.6
				l0.27-0.8h0.22l-0.58,1.61H38.16z"/>
			<path class="st12" d="M39.79,101.41c0-0.13-0.05-0.34-0.29-0.34c-0.21,0-0.31,0.2-0.32,0.34H39.79z M39.17,101.56
				c0.01,0.28,0.19,0.4,0.4,0.4c0.15,0,0.24-0.03,0.32-0.06l0.04,0.15c-0.07,0.03-0.2,0.07-0.39,0.07c-0.36,0-0.57-0.23-0.57-0.58
				c0-0.35,0.21-0.62,0.54-0.62c0.38,0,0.48,0.33,0.48,0.54l-0.01,0.1H39.17z"/>
			<path class="st12" d="M40.26,101.26l-0.01-0.31h0.19l0.01,0.19h0.01c0.06-0.11,0.19-0.22,0.38-0.22c0.16,0,0.41,0.09,0.41,0.49
				v0.69h-0.21v-0.67c0-0.19-0.07-0.34-0.27-0.34c-0.14,0-0.25,0.1-0.28,0.21l-0.02,0.1v0.7h-0.21V101.26z"/>
			<path class="st12" d="M41.83,100.61v0.33h0.3v0.16h-0.3v0.62c0,0.14,0.04,0.23,0.16,0.23l0.12-0.01l0.01,0.16l-0.19,0.03
				l-0.23-0.09c-0.06-0.06-0.08-0.17-0.08-0.3v-0.63h-0.18v-0.16h0.18v-0.28L41.83,100.61z"/>
			<path class="st12" d="M42.98,101.51c-0.23,0-0.49,0.04-0.49,0.26c0,0.14,0.09,0.2,0.2,0.2c0.15,0,0.25-0.1,0.28-0.19l0.01-0.07
				V101.51z M43.01,102.1l-0.02-0.14h-0.01c-0.06,0.09-0.19,0.17-0.36,0.17c-0.23,0-0.35-0.17-0.35-0.33c0-0.28,0.25-0.43,0.7-0.43
				v-0.02c0-0.09-0.03-0.27-0.26-0.27l-0.3,0.09l-0.05-0.14c0.1-0.06,0.23-0.1,0.38-0.1c0.35,0,0.44,0.24,0.44,0.47v0.43l0.02,0.28
				H43.01z"/>
			<path class="st12" d="M44.24,101.64l0.01,0.08c0.04,0.14,0.16,0.25,0.32,0.25c0.22,0,0.35-0.18,0.35-0.45
				c0-0.23-0.12-0.43-0.35-0.43c-0.14,0-0.28,0.1-0.32,0.26l-0.01,0.09V101.64z M44.02,102.1l0.01-0.3v-1.4h0.21v0.73h0
				c0.07-0.13,0.21-0.21,0.4-0.21c0.29,0,0.49,0.24,0.49,0.59c0,0.41-0.26,0.62-0.52,0.62c-0.17,0-0.3-0.06-0.39-0.22h-0.01
				l-0.01,0.19H44.02z"/>
			<path class="st12" d="M46,101.51c-0.23,0-0.49,0.04-0.49,0.26c0,0.14,0.09,0.2,0.2,0.2c0.15,0,0.25-0.1,0.28-0.19l0.01-0.07
				V101.51z M46.03,102.1l-0.02-0.14h-0.01c-0.06,0.09-0.19,0.17-0.35,0.17c-0.24,0-0.36-0.17-0.36-0.33c0-0.28,0.25-0.43,0.7-0.43
				v-0.02c0-0.09-0.03-0.27-0.26-0.27l-0.3,0.09l-0.05-0.14c0.1-0.06,0.23-0.1,0.38-0.1c0.35,0,0.44,0.24,0.44,0.47v0.43l0.02,0.28
				H46.03z"/>
			<path class="st12" d="M46.8,100.62l-0.13,0.13l-0.13-0.13l0.14-0.13L46.8,100.62z M46.26,102.44l0.23-0.09
				c0.06-0.07,0.08-0.16,0.08-0.43v-0.97h0.21V102c0,0.23-0.04,0.37-0.14,0.48l-0.36,0.13L46.26,102.44z"/>
			<path class="st12" d="M47.26,101.53c0,0.25,0.15,0.45,0.35,0.45c0.2,0,0.35-0.19,0.35-0.45c0-0.2-0.1-0.45-0.35-0.45
				C47.36,101.08,47.26,101.31,47.26,101.53 M48.18,101.51c0,0.43-0.3,0.62-0.58,0.62c-0.32,0-0.56-0.23-0.56-0.6
				c0-0.39,0.25-0.62,0.58-0.62C47.95,100.92,48.18,101.16,48.18,101.51"/>
			<path class="st12" d="M48.95,101.31c0-0.14,0-0.25-0.01-0.36h0.18l0.01,0.23h0.01c0.05-0.15,0.18-0.25,0.32-0.25l0.06,0.01v0.2
				l-0.07-0.01c-0.15,0-0.25,0.11-0.28,0.27l-0.01,0.1v0.62h-0.21V101.31z"/>
			<path class="st12" d="M50.44,101.41c0-0.13-0.06-0.34-0.29-0.34c-0.21,0-0.31,0.2-0.32,0.34H50.44z M49.82,101.56
				c0.01,0.28,0.19,0.4,0.4,0.4c0.15,0,0.24-0.03,0.32-0.06l0.04,0.15c-0.07,0.03-0.2,0.07-0.38,0.07c-0.36,0-0.57-0.23-0.57-0.58
				c0-0.35,0.21-0.62,0.54-0.62c0.38,0,0.48,0.33,0.48,0.54l-0.01,0.1H49.82z"/>
			<path class="st12" d="M51.73,102.06c-0.05,0.03-0.18,0.07-0.33,0.07c-0.35,0-0.58-0.24-0.58-0.59c0-0.36,0.24-0.62,0.62-0.62
				c0.12,0,0.23,0.03,0.29,0.06l-0.05,0.16l-0.24-0.05c-0.27,0-0.41,0.2-0.41,0.44c0,0.27,0.17,0.43,0.4,0.43l0.26-0.06
				L51.73,102.06z"/>
			<path class="st12" d="M52.7,101.41c0-0.13-0.05-0.34-0.29-0.34c-0.21,0-0.31,0.2-0.32,0.34H52.7z M52.08,101.56
				c0.01,0.28,0.19,0.4,0.4,0.4c0.15,0,0.24-0.03,0.32-0.06l0.04,0.15c-0.07,0.03-0.2,0.07-0.38,0.07c-0.36,0-0.57-0.23-0.57-0.58
				c0-0.35,0.21-0.62,0.54-0.62c0.38,0,0.48,0.33,0.48,0.54l-0.01,0.1H52.08z"/>
			<path class="st12" d="M53.42,100.61v0.33h0.3v0.16h-0.3v0.62c0,0.14,0.04,0.23,0.16,0.23l0.12-0.01l0.01,0.16l-0.19,0.03
				l-0.23-0.09c-0.06-0.06-0.08-0.17-0.08-0.3v-0.63h-0.18v-0.16h0.18v-0.28L53.42,100.61z"/>
			<path class="st12" d="M54.57,101.51c-0.23,0-0.49,0.04-0.49,0.26c0,0.14,0.09,0.2,0.2,0.2c0.15,0,0.24-0.1,0.28-0.19l0.01-0.07
				V101.51z M54.6,102.1l-0.02-0.14h-0.01c-0.06,0.09-0.19,0.17-0.35,0.17c-0.23,0-0.35-0.17-0.35-0.33c0-0.28,0.25-0.43,0.7-0.43
				v-0.02c0-0.09-0.03-0.27-0.26-0.27l-0.3,0.09l-0.05-0.14c0.1-0.06,0.24-0.1,0.38-0.1c0.35,0,0.44,0.24,0.44,0.47v0.43l0.02,0.28
				H54.6z"/>
			<path class="st12" d="M56.23,101.51c-0.23,0-0.49,0.04-0.49,0.26c0,0.14,0.09,0.2,0.2,0.2c0.15,0,0.24-0.1,0.28-0.19l0.01-0.07
				V101.51z M56.26,102.1l-0.02-0.14h-0.01c-0.06,0.09-0.19,0.17-0.36,0.17c-0.23,0-0.35-0.17-0.35-0.33c0-0.28,0.25-0.43,0.7-0.43
				v-0.02c0-0.09-0.03-0.27-0.26-0.27l-0.3,0.09l-0.05-0.14c0.1-0.06,0.23-0.1,0.38-0.1c0.35,0,0.44,0.24,0.44,0.47v0.43l0.02,0.28
				H56.26z"/>
			<path class="st12" d="M56.77,101.31c0-0.14,0-0.25-0.01-0.36h0.19l0.01,0.23h0.01c0.05-0.15,0.18-0.25,0.32-0.25l0.06,0.01v0.2
				l-0.07-0.01c-0.15,0-0.25,0.11-0.28,0.27l-0.01,0.1v0.62h-0.21V101.31z"/>
			<path class="st12" d="M58.36,102.06c-0.05,0.03-0.18,0.07-0.33,0.07c-0.35,0-0.58-0.24-0.58-0.59c0-0.36,0.24-0.62,0.62-0.62
				l0.29,0.06l-0.05,0.16l-0.24-0.05c-0.27,0-0.41,0.2-0.41,0.44c0,0.27,0.17,0.43,0.4,0.43l0.26-0.06L58.36,102.06z"/>
			<path class="st12" d="M58.6,100.4h0.21v0.72h0.01l0.15-0.15l0.21-0.06c0.16,0,0.4,0.09,0.4,0.49v0.69h-0.21v-0.67
				c0-0.19-0.07-0.35-0.27-0.35c-0.14,0-0.25,0.1-0.28,0.21l-0.02,0.1v0.7H58.6V100.4z"/>
			<path class="st12" d="M59.93,102.1h0.21v-1.16h-0.21V102.1z M59.91,100.62l0.13,0.13l0.13-0.13l-0.13-0.13L59.91,100.62z"/>
			<polygon class="st12" points="61.22,100.94 61,101.6 60.9,101.89 60.9,101.89 60.8,101.6 60.57,100.94 60.35,100.94 60.79,102.1 
				60.99,102.1 61.45,100.94 			"/>
			<path class="st12" d="M62.24,101.51c-0.23,0-0.49,0.04-0.49,0.26c0,0.14,0.09,0.2,0.2,0.2c0.15,0,0.25-0.1,0.28-0.19l0.01-0.07
				V101.51z M62.28,102.1l-0.02-0.14h-0.01c-0.07,0.09-0.19,0.17-0.35,0.17c-0.23,0-0.36-0.17-0.36-0.33c0-0.28,0.25-0.43,0.7-0.43
				v-0.02c0-0.09-0.03-0.27-0.26-0.27l-0.3,0.09l-0.05-0.14c0.1-0.06,0.23-0.1,0.38-0.1c0.35,0,0.44,0.24,0.44,0.47v0.43l0.02,0.28
				H62.28z"/>
			<path class="st12" d="M63.58,101.42l-0.01-0.09c-0.03-0.14-0.15-0.25-0.3-0.25c-0.22,0-0.35,0.19-0.35,0.45
				c0,0.23,0.12,0.43,0.34,0.43c0.14,0,0.27-0.09,0.31-0.25l0.01-0.09V101.42z M63.79,100.4v1.4l0.01,0.3h-0.19l-0.01-0.2h-0.01
				c-0.06,0.13-0.2,0.23-0.39,0.23c-0.28,0-0.49-0.24-0.49-0.59c0-0.39,0.23-0.62,0.52-0.62c0.18,0,0.3,0.08,0.35,0.18h0.01v-0.69
				H63.79z"/>
			<path class="st12" d="M64.75,101.51c-0.23,0-0.49,0.04-0.49,0.26c0,0.14,0.09,0.2,0.2,0.2c0.15,0,0.25-0.1,0.28-0.19l0.01-0.07
				V101.51z M64.78,102.1l-0.02-0.14h-0.01c-0.06,0.09-0.19,0.17-0.35,0.17c-0.23,0-0.35-0.17-0.35-0.33c0-0.28,0.25-0.43,0.7-0.43
				v-0.02c0-0.09-0.03-0.27-0.26-0.27l-0.3,0.09l-0.04-0.14c0.1-0.06,0.23-0.1,0.38-0.1c0.35,0,0.44,0.24,0.44,0.47v0.43l0.02,0.28
				H64.78z"/>
			<rect x="39.87" y="103.22" class="st12" width="0.21" height="1.61"/>
			<path class="st12" d="M40.45,104.84v-1.61h0.23l0.52,0.82c0.12,0.19,0.21,0.36,0.29,0.53l0,0c-0.02-0.21-0.03-0.41-0.03-0.67
				v-0.68h0.2v1.61h-0.21l-0.51-0.82c-0.11-0.18-0.22-0.36-0.3-0.54l-0.01,0c0.01,0.2,0.02,0.4,0.02,0.67v0.69H40.45z"/>
			<path class="st12" d="M42.23,104.67l0.21,0.01c0.45,0,0.69-0.25,0.69-0.69c0-0.38-0.21-0.62-0.66-0.62l-0.24,0.02V104.67z
				 M42.02,103.25c0.13-0.02,0.28-0.03,0.44-0.03c0.3,0,0.51,0.07,0.65,0.2c0.14,0.13,0.23,0.32,0.23,0.58
				c0,0.26-0.08,0.48-0.23,0.63c-0.15,0.15-0.4,0.23-0.71,0.23c-0.15,0-0.27-0.01-0.38-0.02V103.25z"/>
			<path class="st12" d="M43.82,103.22v0.96c0,0.36,0.16,0.51,0.38,0.51c0.24,0,0.39-0.16,0.39-0.51v-0.96h0.21v0.94
				c0,0.49-0.26,0.7-0.61,0.7c-0.33,0-0.58-0.19-0.58-0.69v-0.95H43.82z"/>
			<path class="st12" d="M45.14,104.59c0.09,0.06,0.23,0.11,0.37,0.11c0.21,0,0.34-0.11,0.34-0.28c0-0.15-0.09-0.24-0.3-0.32
				c-0.26-0.09-0.43-0.23-0.43-0.46c0-0.25,0.21-0.44,0.52-0.44c0.17,0,0.29,0.04,0.36,0.08l-0.06,0.17
				c-0.05-0.03-0.16-0.08-0.31-0.08c-0.22,0-0.3,0.13-0.3,0.24c0,0.15,0.1,0.22,0.32,0.31c0.27,0.11,0.41,0.24,0.41,0.47
				c0,0.25-0.18,0.47-0.56,0.47c-0.16,0-0.33-0.04-0.41-0.1L45.14,104.59z"/>
			<polygon class="st12" points="46.16,103.22 46.16,103.4 46.65,103.4 46.65,104.84 46.86,104.84 46.86,103.4 47.36,103.4 
				47.36,103.22 			"/>
			<path class="st12" d="M47.74,103.98h0.21c0.22,0,0.36-0.12,0.36-0.31c0-0.21-0.15-0.3-0.37-0.3l-0.21,0.02V103.98z M47.54,103.25
				c0.11-0.02,0.26-0.03,0.4-0.03c0.22,0,0.37,0.04,0.47,0.13c0.08,0.07,0.13,0.18,0.13,0.31c0,0.21-0.13,0.36-0.3,0.41v0.01
				c0.12,0.04,0.2,0.16,0.24,0.32c0.05,0.23,0.09,0.38,0.12,0.44h-0.22c-0.02-0.04-0.06-0.18-0.11-0.38
				c-0.05-0.22-0.13-0.31-0.32-0.31h-0.2v0.7h-0.21V103.25z"/>
			<rect x="48.82" y="103.22" class="st12" width="0.21" height="1.61"/>
			<path class="st12" d="M49.86,103.7l0.08-0.29h0l0.08,0.29l0.16,0.47H49.7L49.86,103.7z M49.82,103.22l-0.55,1.61h0.22l0.17-0.51
				h0.57l0.17,0.51h0.22l-0.55-1.61H49.82z"/>
			<path class="st12" d="M51.83,103.7l0.08-0.29h0L52,103.7l0.16,0.47h-0.49L51.83,103.7z M51.79,103.22l-0.55,1.61h0.22l0.17-0.51
				h0.57l0.17,0.51h0.22l-0.55-1.61H51.79z"/>
			<path class="st12" d="M53.04,103.98h0.21c0.22,0,0.36-0.12,0.36-0.31c0-0.21-0.15-0.3-0.37-0.3l-0.21,0.02V103.98z M52.83,103.25
				c0.11-0.02,0.25-0.03,0.4-0.03c0.22,0,0.37,0.04,0.47,0.13c0.08,0.07,0.13,0.18,0.13,0.31c0,0.21-0.13,0.36-0.3,0.41v0.01
				c0.12,0.04,0.2,0.16,0.24,0.32c0.05,0.23,0.09,0.38,0.12,0.44h-0.21c-0.03-0.04-0.06-0.18-0.11-0.38
				c-0.05-0.22-0.13-0.31-0.32-0.31h-0.2v0.7h-0.21V103.25z"/>
			<path class="st12" d="M55.36,104.77c-0.09,0.03-0.28,0.09-0.5,0.09c-0.24,0-0.45-0.06-0.6-0.21c-0.14-0.14-0.22-0.35-0.22-0.6
				c0-0.48,0.33-0.83,0.88-0.83c0.19,0,0.33,0.04,0.4,0.07l-0.05,0.17c-0.09-0.04-0.2-0.07-0.36-0.07c-0.39,0-0.65,0.24-0.65,0.65
				c0,0.41,0.25,0.65,0.62,0.65c0.13,0,0.23-0.02,0.28-0.04v-0.48h-0.33v-0.17h0.53V104.77z"/>
			<polygon class="st12" points="55.68,103.22 55.68,104.84 56.59,104.84 56.59,104.67 55.88,104.67 55.88,104.08 56.51,104.08 
				56.51,103.91 55.88,103.91 55.88,103.4 56.55,103.4 56.55,103.22 			"/>
			<path class="st12" d="M56.85,104.84v-1.61h0.23l0.52,0.82c0.12,0.19,0.21,0.36,0.29,0.53l0.01,0c-0.02-0.21-0.03-0.41-0.03-0.67
				v-0.68h0.2v1.61h-0.21l-0.52-0.82c-0.11-0.18-0.22-0.36-0.3-0.54l-0.01,0c0.01,0.2,0.01,0.4,0.01,0.67v0.69H56.85z"/>
			<polygon class="st12" points="58.24,103.22 58.24,103.4 58.73,103.4 58.73,104.84 58.95,104.84 58.95,103.4 59.44,103.4 
				59.44,103.22 			"/>
			<rect x="59.62" y="103.22" class="st12" width="0.21" height="1.61"/>
			<path class="st12" d="M60.19,104.84v-1.61h0.23l0.52,0.82c0.12,0.19,0.21,0.36,0.29,0.53l0.01,0c-0.02-0.21-0.02-0.41-0.02-0.67
				v-0.68h0.2v1.61h-0.21l-0.52-0.82c-0.11-0.18-0.22-0.36-0.3-0.54l-0.01,0c0.01,0.2,0.02,0.4,0.02,0.67v0.69H60.19z"/>
			<path class="st12" d="M62.23,103.7l0.08-0.29h0l0.09,0.29l0.16,0.47h-0.48L62.23,103.7z M62.19,103.22l-0.55,1.61h0.21l0.17-0.51
				h0.57l0.17,0.51h0.22l-0.55-1.61H62.19z"/>
		</g>
	</g>
	<g>
		<g>
			<rect x="2.6" y="11.68" class="st16" width="106.42" height="109.18"/>
		</g>
		<g>
			<path class="st17" d="M119.45,13.39c0,5.96-4.83,10.79-10.79,10.79c-5.96,0-10.79-4.83-10.79-10.79
				c0-5.96,4.83-10.79,10.79-10.79C114.62,2.6,119.45,7.43,119.45,13.39z"/>
			<g>
				<path class="st18" d="M104.88,18.03l0.87-1.41c0.55,0.58,1.15,0.93,2.17,0.93c1.91,0,2.78-1.75,2.78-3.48
					c0-0.09,0-0.21-0.02-0.3c-0.47,0.71-1.58,1.47-2.83,1.47c-1.9,0-3.53-1.15-3.53-3.4c0-1.96,1.53-3.54,3.89-3.54
					c3.1,0,4.35,2.51,4.35,5.44c0,3.05-1.6,5.45-4.65,5.45C106.6,19.2,105.59,18.73,104.88,18.03z M110.67,12.42
					c-0.11-1.14-0.73-2.47-2.36-2.47c-1.39,0-2.12,0.98-2.12,1.83c0,1.3,1.01,1.88,2.17,1.88
					C109.26,13.67,110.13,13.18,110.67,12.42z"/>
			</g>
		</g>
	</g>
</g>
</svg>
