<?xml version="1.0" encoding="utf-8"?>
<!-- Generator: Adobe Illustrator 26.0.0, SVG Export Plug-In . SVG Version: 6.00 Build 0)  -->
<svg version="1.1" id="Capa_1" xmlns="http://www.w3.org/2000/svg" xmlns:xlink="http://www.w3.org/1999/xlink" x="0px" y="0px"
	 viewBox="0 0 122.23 118.03" style="enable-background:new 0 0 122.23 118.03;" xml:space="preserve">
<style type="text/css">
	.st0{fill:#1F1F1D;}
	.st1{fill:#FFFFFF;}
	.st2{fill:#AC7FB6;}
	.st3{fill:#593E5C;}
	.st4{fill:#1A1917;}
	.st5{fill:#9C9A9A;}
	.st6{fill:#161613;}
	.st7{fill:#13110C;}
	.st8{fill:none;stroke:#662982;stroke-width:1.9;stroke-miterlimit:10;}
	.st9{fill:#FFFFFF;stroke:#662982;stroke-width:1.9;stroke-miterlimit:10;}
	.st10{fill:#662982;}
</style>
<g>
	<g>
		<path class="st0" d="M41.19,92.02l-0.04,0c-0.03-0.01-0.65-0.15-1.46-0.58c-0.82-0.43-1.71-1.41-1.75-1.46l0.01-0.24l0.24,0.01
			c0.01,0.01,0.89,0.98,1.66,1.38c0.77,0.41,1.37,0.55,1.38,0.55l0.13,0.2L41.19,92.02z"/>
		<g>
			<path class="st0" d="M40.33,94.15l-0.04,0c-0.03-0.01-0.65-0.15-1.46-0.58c-0.82-0.43-1.71-1.42-1.75-1.46l0.01-0.24l0.24,0.01
				c0.01,0.01,0.89,0.98,1.66,1.39c0.77,0.41,1.38,0.55,1.38,0.55l0.13,0.2L40.33,94.15z"/>
			<path class="st1" d="M87.03,11.24H59.61c0,0-2.02,1.96-3.79,4.11c-1.77,2.15-6.76,8.59-9.03,11.62c-2.27,3.03-3.6,5.37-4.11,7.32
				c-0.51,1.96-1.58,5.81-1.83,7.08c-0.25,1.26-0.76,3.92,0.63,5.18c1.39,1.26,4.48,1.33,5.68,0.25c1.2-1.07,3.6-4.74,3.98-5.75
				c0.38-1.01,1.2-1.45,1.52-2.46c0.32-1.01,0.38-1.83,0.38-1.83s2.34-0.76,3.54-2.53c1.2-1.77,3.1-4.17,4.55-4.99
				c1.45-0.82,3.73-2.02,4.99-3.54c1.26-1.52,2.97-3.73,3.47-4.42c0.51-0.7,0.76-1.14,0.76-1.14S71.99,23.3,73,24
				c1.01,0.7,3.16,1.52,3.16,1.52L87.03,11.24z"/>
			<path class="st0" d="M59.68,11.41c-0.31,0.31-2.14,2.11-3.73,4.05c-1.75,2.12-6.73,8.55-9.03,11.62
				c-2.29,3.05-3.59,5.37-4.08,7.27c-0.16,0.63-0.39,1.46-0.62,2.34c-0.49,1.82-1.04,3.88-1.21,4.73c-0.23,1.14-0.76,3.8,0.58,5.02
				c1.28,1.16,4.29,1.3,5.46,0.25c1.17-1.04,3.55-4.66,3.94-5.68c0.19-0.51,0.49-0.88,0.78-1.24c0.3-0.37,0.58-0.72,0.74-1.21
				c0.31-0.98,0.37-1.78,0.37-1.79l0.11-0.14c0.02-0.01,2.3-0.76,3.45-2.46c0.63-0.93,2.82-4.03,4.6-5.04l0.39-0.22
				c1.44-0.81,3.42-1.92,4.56-3.28c1.26-1.51,2.96-3.71,3.47-4.41c0.49-0.68,0.75-1.12,0.75-1.12l0.15-0.08l0.14,0.09
				c0.02,0.03,1.64,3.13,2.6,3.79c0.85,0.58,2.55,1.27,3.01,1.45l10.58-13.91H59.68z M44.64,47.72c-1.22,0-2.51-0.36-3.27-1.05
				c-1.48-1.35-0.92-4.14-0.68-5.34c0.17-0.86,0.72-2.93,1.21-4.75c0.23-0.87,0.46-1.7,0.62-2.34c0.5-1.95,1.82-4.29,4.13-7.38
				c2.31-3.07,7.29-9.5,9.04-11.63c1.75-2.13,3.78-4.1,3.8-4.12l0.12-0.05h27.41l0.15,0.09l-0.02,0.17L76.3,25.61l-0.19,0.05
				c-0.09-0.03-2.18-0.83-3.19-1.53c-0.87-0.6-2.15-2.87-2.57-3.65c-0.13,0.2-0.33,0.51-0.61,0.9c-0.51,0.7-2.22,2.92-3.48,4.43
				c-1.17,1.41-3.18,2.54-4.65,3.36l-0.38,0.22c-1.37,0.77-3.22,3.06-4.49,4.94c-1.09,1.6-3.04,2.38-3.52,2.56
				c-0.03,0.26-0.12,0.94-0.38,1.76c-0.17,0.55-0.49,0.94-0.79,1.32c-0.28,0.35-0.55,0.69-0.73,1.15c-0.39,1.05-2.83,4.75-4.02,5.81
				C46.68,47.46,45.68,47.72,44.64,47.72"/>
			<path class="st0" d="M75.73,22.37c-0.39,0-0.81-0.03-1.24-0.1c-1.21-0.21-3.74-1.42-4.96-2.84c-1.15-1.34-2.8-6.66-2.88-6.88
				l0.11-0.21l0.21,0.11c0.02,0.06,1.71,5.48,2.81,6.76c1.15,1.34,3.63,2.53,4.76,2.72c2.13,0.37,3.99-0.42,4.01-0.43l0.22,0.09
				l-0.09,0.22C78.63,21.84,77.38,22.37,75.73,22.37"/>
		</g>
		<path class="st0" d="M61.82,28.84l-0.16-0.13c0-0.02-0.39-1.71-2.25-2.73c-1.93-1.06-3.95-1.94-3.97-1.95l-0.09-0.22l0.22-0.08
			c0.02,0.01,2.05,0.9,3.99,1.97c2,1.1,2.4,2.88,2.42,2.95l-0.13,0.2L61.82,28.84z"/>
		<path class="st0" d="M60.5,29.72l-0.05-0.01c-0.05-0.02-1.36-0.4-2.69-1.15c-1.37-0.78-1.71-2.07-1.72-2.12l0.12-0.2l0.2,0.12
			c0,0.01,0.32,1.21,1.56,1.92c1.29,0.74,2.6,1.12,2.62,1.12l0.11,0.21L60.5,29.72z"/>
		<g>
			<path class="st0" d="M53.05,36.92l-0.05-0.01c-0.05-0.02-1.24-0.4-2.82-1.47c-1.58-1.08-3.07-2.86-3.13-2.94l0.02-0.24l0.24,0.02
				c0.01,0.02,1.52,1.83,3.06,2.87c1.54,1.05,2.72,1.43,2.73,1.43l0.11,0.21L53.05,36.92z"/>
		</g>
		<rect x="53.63" y="12.95" class="st0" width="2.67" height="16.83"/>
		<polygon class="st0" points="51.64,28.81 54.97,34.58 58.3,28.81 		"/>
		<path class="st2" d="M68.38,65.97l-4.17-5.1c-0.43-0.52-0.76-0.94-0.75-0.94c0.01,0,0.02-0.5,0.02-1.12v-1.14H46.36v1.14
			c0,0.62,0.01,1.12,0.03,1.12c0.01,0-0.32,0.43-0.75,0.94l-4.17,5.1c-0.43,0.52-0.89,1.45-0.89,2.07V109
			c0,0.62,0.64,1.12,1.43,1.12h25.83c0.79,0,1.43-0.5,1.43-1.12V68.04C69.27,67.42,68.8,66.49,68.38,65.97"/>
		<path class="st0" d="M46.55,59.88c0.04,0.1,0,0.15-0.78,1.11l-4.17,5.09c-0.41,0.5-0.85,1.4-0.85,1.96V109
			c0,0.53,0.57,0.95,1.26,0.95h25.83c0.7,0,1.26-0.43,1.26-0.95V68.04c0-0.57-0.44-1.46-0.85-1.96l-4.17-5.09
			c-0.78-0.96-0.82-1-0.77-1.11c0.01-0.09,0.02-0.46,0.02-1.07v-0.97H46.53v0.97C46.53,59.39,46.54,59.78,46.55,59.88 M67.84,110.29
			H42.01c-0.88,0-1.59-0.58-1.59-1.29V68.04c0-0.65,0.47-1.61,0.93-2.17l4.17-5.1c0.36-0.45,0.61-0.77,0.7-0.88
			c-0.02-0.17-0.02-0.5-0.02-1.08V57.5h17.46v1.31c0,0.59,0,0.91-0.02,1.08c0.09,0.12,0.35,0.45,0.7,0.88l4.17,5.1
			c0.46,0.56,0.93,1.52,0.93,2.17V109C69.44,109.71,68.72,110.29,67.84,110.29"/>
		<path class="st3" d="M63.32,57.9H46.53v0.91c0,0.55,0.01,0.93,0.02,1.05H63.3c0.01-0.12,0.02-0.48,0.02-1.05V57.9z"/>
		<path class="st4" d="M63.49,57.9h-0.17v0.91c0,0.57-0.01,0.93-0.02,1.05h0.18v-0.26V57.9z M46.53,57.9h-0.17v1.69l0,0.26h0.18
			c-0.01-0.12-0.02-0.5-0.02-1.05V57.9z"/>
		<path class="st1" d="M65.23,57.74V42.33c0-0.88-0.58-1.6-1.29-1.6H45.9c-0.71,0-1.29,0.72-1.29,1.6v15.41H65.23z"/>
		<path class="st0" d="M44.78,57.57h20.29V42.33c0-0.79-0.5-1.44-1.12-1.44H45.9c-0.62,0-1.12,0.64-1.12,1.44V57.57z M65.4,57.9
			H44.45V42.33c0-0.98,0.65-1.77,1.46-1.77h18.04c0.8,0,1.46,0.79,1.46,1.77V57.9z"/>
		<polygon class="st5" points="54.46,40.9 54.13,40.9 54.13,57.51 53.25,57.51 53.25,40.9 52.91,40.9 52.91,57.57 54.46,57.57 		"/>
		<path class="st6" d="M54.46,40.56h-1.55v0.33h0.34h0.88h0.33V40.56z M54.46,57.57h-1.55v0.27h1.55V57.57z"/>
		<polygon class="st5" points="52.1,40.9 51.77,40.9 51.77,57.51 50.89,57.51 50.89,40.9 50.56,40.9 50.56,57.57 52.1,57.57 		"/>
		<path class="st6" d="M52.1,40.56h-0.52H51.2h-0.64v0.33h0.33h0.88h0.33V40.56z M52.1,57.57h-1.55v0.27h1.55V57.57z"/>
		<path class="st5" d="M47.39,40.56h-1.55v0c0.02,0,0.04,0,0.06,0H47.39z"/>
		<path class="st5" d="M47.39,40.9h-0.33v16.61h-0.88V40.9H45.9c-0.02,0-0.04,0-0.06,0v16.67h1.55V40.9z"/>
		<path class="st6" d="M47.39,40.56H45.9c-0.02,0-0.04,0-0.06,0v0.33c0.02,0,0.04,0,0.06,0h0.27h0.88h0.33V40.56z M47.39,57.57
			h-1.55v0.27h1.55V57.57z"/>
		<polygon class="st5" points="49.75,40.9 49.42,40.9 49.42,57.51 48.53,57.51 48.53,40.9 48.2,40.9 48.2,57.57 49.75,57.57 		"/>
		<path class="st6" d="M49.75,40.56H48.2v0.33h0.33h0.88h0.33V40.56z M49.75,57.57H48.2v0.27h1.55V57.57z"/>
		<polygon class="st5" points="56.82,40.9 56.48,40.9 56.48,57.51 55.6,57.51 55.6,40.9 55.27,40.9 55.27,57.57 56.82,57.57 		"/>
		<path class="st6" d="M56.82,40.56h-1.55v0.33h0.33h0.88h0.33V40.56z M56.82,57.57h-1.55v0.27h1.55V57.57z"/>
		<polygon class="st5" points="59.17,40.9 58.84,40.9 58.84,57.51 57.96,57.51 57.96,40.9 57.62,40.9 57.62,57.57 59.17,57.57 		"/>
		<path class="st6" d="M59.17,40.56h-1.55v0.33h0.33h0.88h0.34V40.56z M59.17,57.57h-1.55v0.27h1.55V57.57z"/>
		<polygon class="st5" points="63.89,40.9 63.55,40.9 63.55,57.51 62.67,57.51 62.67,40.9 62.34,40.9 62.34,57.57 63.89,57.57 		"/>
		<path class="st6" d="M63.89,40.56h-1.55v0.33h0.33h0.88h0.33V40.56z M63.89,57.57h-1.55v0.27h1.55V57.57z"/>
		<polygon class="st5" points="61.53,40.9 61.19,40.9 61.19,57.51 60.31,57.51 60.31,40.9 59.98,40.9 59.98,57.57 61.53,57.57 		"/>
		<path class="st6" d="M61.53,40.56h-1.55v0.33h0.33h0.88h0.33V40.56z M61.53,57.57h-1.55v0.27h1.55V57.57z"/>
		<g>
			<path class="st1" d="M80.9,13.26l-0.63,3.6c0,0-3.28,5.69-4.93,7.33c-1.64,1.64-5.18,7.2-5.18,7.2s-4.29,3.03-5.43,4.17
				c-1.14,1.14-2.65,2.65-2.65,2.65s-5.56,3.28-7.45,5.81c-1.89,2.53-3.41,6.32-2.4,8.97c1.01,2.65,3.03,5.05,4.42,4.8
				c1.39-0.25,4.8,0,9.98-3.79c5.18-3.79,8.21-7.96,10.23-9.86c2.02-1.89,4.01-4.01,6.92-5.78c2.9-1.77,5.97-2.81,5.97-2.81
				s5.31,1.77,8.59,1.64c3.28-0.13,5.3-2.53,5.3-2.53l0.13-23.75H81.78L80.9,13.26z"/>
			<path class="st0" d="M103.76,10.92H81.78l-0.88,2.34l-0.63,3.6c0,0-3.28,5.68-4.93,7.33c-1.64,1.64-5.18,7.2-5.18,7.2
				s-4.3,3.03-5.43,4.17l-2.65,2.65c0,0-5.56,3.29-7.45,5.81c-1.9,2.53-3.41,6.32-2.4,8.97c0.96,2.52,2.84,4.82,4.21,4.82l0.21-0.02
				c1.39-0.25,4.8,0,9.98-3.79c5.18-3.79,8.21-7.96,10.23-9.85c2.02-1.89,4.01-4.01,6.92-5.78c2.9-1.77,5.97-2.81,5.97-2.81
				s4.95,1.65,8.24,1.65l0.35-0.01c3.28-0.13,5.31-2.53,5.31-2.53L103.76,10.92z M103.76,10.92L103.76,10.92L103.76,10.92z
				 M103.43,11.26l-0.12,23.29c-0.39,0.42-2.24,2.22-4.99,2.32l-0.33,0.01c-3.2,0-8.09-1.61-8.14-1.63l-0.1-0.02l-0.11,0.02
				c-0.03,0.01-3.13,1.08-6.04,2.84c-2.44,1.49-4.22,3.19-5.94,4.84c-0.34,0.33-0.69,0.66-1.03,0.98c-0.61,0.57-1.3,1.34-2.11,2.23
				c-1.89,2.09-4.47,4.95-8.1,7.6c-4.3,3.15-7.37,3.46-9.02,3.63c-0.32,0.03-0.59,0.06-0.82,0.1l-0.15,0.01
				c-1.17,0-2.95-2.11-3.9-4.6c-0.96-2.52,0.49-6.16,2.36-8.65c1.83-2.44,7.3-5.69,7.36-5.72l0.07-0.05l2.65-2.65
				c1.1-1.1,5.35-4.1,5.39-4.13l0.09-0.09c0.04-0.06,3.54-5.55,5.13-7.14c1.65-1.66,4.84-7.16,4.98-7.39l0.04-0.11l0.63-3.57
				l0.79-2.09H103.43z"/>
		</g>
		<path class="st0" d="M56.77,57.74l-0.15-0.1l0.08-0.22c0.04-0.02,4.12-1.98,7.23-4.43c1.09-0.86,0.41-2.84-0.1-3.77
			c-0.61-1.1-1.92-2.67-2.8-3.36c-0.71-0.56-3.57,0.94-5.23,2.21c-2.14,1.65-3.57,3.07-3.58,3.08h-0.24v-0.24
			c0.02-0.01,1.45-1.45,3.62-3.11c0.85-0.65,4.51-3.09,5.64-2.21c0.91,0.71,2.26,2.33,2.89,3.46c0.6,1.09,1.29,3.19,0.02,4.19
			c-3.14,2.48-7.25,4.45-7.3,4.47L56.77,57.74z"/>
		<path class="st0" d="M87.75,36.36l-0.16-0.1l0.09-0.22c0.02-0.01,1.73-0.7,2.89-1.68c1.16-0.98,2.6-3.8,2.61-3.83l0.22-0.07
			l0.07,0.22c-0.06,0.12-1.48,2.92-2.69,3.94c-1.21,1.02-2.91,1.7-2.98,1.73L87.75,36.36z"/>
		<g>
			<path class="st0" d="M91.95,36.1l-0.15-0.1l0.08-0.22c0.03-0.02,2.94-1.45,3.85-2.67c0.91-1.21,1.23-3.07,1.23-3.08l0.19-0.14
				l0.14,0.19c-0.01,0.08-0.33,1.95-1.3,3.23c-0.96,1.28-3.85,2.71-3.98,2.76L91.95,36.1z"/>
			<path class="st1" d="M44.9,73.71c0,0-5.49-0.88-8.15-1.01c-2.65-0.12-5.12,1.9-5.12,1.9s-1.64-0.44-3.16-0.06
				c-1.1,0.27-1.77,0.82-1.77,0.82s-3.16-0.38-5.3,0.25c-2.15,0.63-3.41,1.64-6.44,5.18c-3.03,3.54-4.61,4.87-9.16,8.09
				c-2.72,1.93-2.73,3.03-2.73,3.03v23.78h29.7c0,0,1.15-0.9,3.66-3.19c2.15-1.96,5.43-2.53,7.58-1.77
				c1.73,0.61,6.04,2.62,10.11,1.64c4.05-0.98,5.92-1.89,7.45-3.54c0.82-0.88,0.89-4.17,0.38-5.56c-0.52-1.42-2.46-2.4-3.54-2.9
				c-2.36-1.11-3.6-1.39-5.75-1.51c-2.15-0.13-4.99,0-4.99,0s-2.02-0.76-4.17-1.14c-2.15-0.38-4.55-0.88-6.06-1.64
				c-1.52-0.76-4.29-2.91-4.29-2.91s2.65-0.51,3.79-1.14c1.14-0.63,3.22-2.15,3.98-3.41c0.76-1.26,1.58-2.53,1.96-4.3
				c0.38-1.77,1.77-3.41,1.77-3.41L44.9,73.71z"/>
			<path class="st0" d="M3.23,115.51h29.48c0.24-0.19,1.4-1.13,3.61-3.15c2.05-1.86,5.38-2.64,7.75-1.8
				c0.22,0.08,0.47,0.17,0.77,0.29c2.01,0.77,5.74,2.2,9.24,1.35c3.98-0.96,5.84-1.84,7.37-3.49c0.76-0.82,0.86-4,0.35-5.39
				c-0.48-1.29-2.2-2.22-3.45-2.81c-2.44-1.15-3.67-1.38-5.69-1.5c-2.11-0.12-4.94,0-4.97,0l-0.03,0L47.62,99
				c-0.02-0.01-2.03-0.76-4.14-1.13c-2.01-0.35-4.52-0.86-6.11-1.66c-1.51-0.75-4.21-2.83-4.32-2.92l-0.29-0.23L33.12,93
				c0.03,0,2.64-0.51,3.74-1.12c1.15-0.64,3.2-2.15,3.92-3.35l0.18-0.3c0.7-1.15,1.42-2.34,1.76-3.95c0.35-1.64,1.54-3.15,1.77-3.44
				l0.25-7c-0.89-0.14-5.61-0.87-7.98-0.98c-2.56-0.12-4.98,1.84-5,1.86l-0.07,0.05l-0.08-0.02c-0.02,0-1.62-0.43-3.07-0.06
				c-1.04,0.26-1.7,0.78-1.7,0.79l-0.05,0.04l-0.07-0.01c-0.03,0-3.15-0.37-5.24,0.25c-2.11,0.62-3.36,1.63-6.36,5.13
				c-3.06,3.58-4.71,4.94-9.19,8.11c-2.58,1.83-2.66,2.89-2.66,2.9V115.51z M32.83,115.85H2.9V91.9c0-0.05,0.04-1.21,2.8-3.17
				c4.52-3.2,6.07-4.48,9.13-8.06c3.05-3.56,4.33-4.59,6.52-5.23c2.01-0.59,4.82-0.32,5.31-0.27c0.19-0.14,0.83-0.57,1.78-0.81
				c1.36-0.34,2.8-0.04,3.16,0.04c0.42-0.33,2.7-2,5.16-1.88c2.63,0.12,8.11,1,8.17,1.01l0.15,0.02l-0.26,7.41l-0.04,0.04
				c-0.01,0.02-1.37,1.63-1.73,3.34c-0.36,1.66-1.09,2.88-1.8,4.05l-0.18,0.3c-0.76,1.27-2.82,2.79-4.04,3.47
				c-0.91,0.5-2.7,0.92-3.48,1.08c0.75,0.57,2.78,2.07,3.98,2.67c1.55,0.77,4.03,1.27,6.02,1.63c1.99,0.35,3.9,1.04,4.17,1.13
				c0.33-0.01,2.97-0.12,4.97,0c2.29,0.13,3.54,0.46,5.81,1.53c1.31,0.61,3.1,1.59,3.62,3c0.5,1.35,0.49,4.76-0.41,5.73
				c-1.58,1.7-3.48,2.61-7.54,3.59c-3.61,0.87-7.4-0.58-9.44-1.36c-0.29-0.11-0.54-0.21-0.76-0.28c-1.92-0.68-5.18-0.3-7.41,1.73
				c-2.49,2.27-3.66,3.19-3.67,3.2L32.83,115.85z"/>
		</g>
		<path class="st0" d="M61.2,109.37c-0.43,0-4.93-0.01-6.13-0.52c-1.32-0.56-1.62-3.03-1.24-5.08c0.34-1.79,2.36-1.75,2.38-1.75
			l5.14,0.09l-0.01,0.33l-5.15-0.09c-0.08-0.01-1.76-0.04-2.04,1.47c-0.36,1.9-0.06,4.25,1.04,4.71c1.17,0.5,6,0.49,6.03,0.49v0.33
			H61.2z"/>
		<path class="st0" d="M50.2,101.38l-0.15-0.09c0-0.01-0.25-0.52-0.79-1.06c-0.55-0.55-1.85-1.33-1.86-1.33l-0.06-0.23l0.23-0.06
			c0.05,0.03,1.35,0.81,1.93,1.38c0.58,0.58,0.84,1.13,0.85,1.15l-0.08,0.22L50.2,101.38z"/>
		<path class="st0" d="M46.38,111.74l-0.17-0.16l0.16-0.17c0.02,0,2.36-0.09,3.55-2.19c0.49-0.86,0.48-3.24,0.48-3.26l0.17-0.17h0
			l0.17,0.17c0,0.1,0.01,2.49-0.53,3.43C48.93,111.65,46.49,111.74,46.38,111.74L46.38,111.74z"/>
		<path class="st0" d="M43.41,100.18l-0.14-0.07c-0.01-0.01-0.78-1.13-1.33-1.61c-0.55-0.49-2.16-1.39-2.18-1.4l-0.06-0.23
			l0.23-0.07c0.07,0.04,1.66,0.93,2.24,1.44c0.58,0.51,1.35,1.63,1.38,1.67l-0.04,0.23L43.41,100.18z"/>
		<path class="st0" d="M33.31,93.49l-0.1-0.03c-0.01-0.01-0.59-0.42-2.26-1.38c-1.68-0.96-2.91-1.47-2.92-1.47l-0.09-0.22l0.22-0.09
			c0.01,0,1.26,0.52,2.96,1.5c1.69,0.97,2.26,1.38,2.29,1.4l0.04,0.23L33.31,93.49z"/>
		<path class="st0" d="M33.37,93.27l-0.02,0l-0.14-0.19c0-0.03,0.37-2.8-0.13-6.4c-0.19-1.41-1.27-4.1-1.28-4.13l0.09-0.22
			l0.22,0.09c0.04,0.11,1.11,2.76,1.3,4.21c0.5,3.64,0.13,6.46,0.13,6.49L33.37,93.27z"/>
		<path class="st0" d="M33.69,93.17l-0.11-0.04l-0.01-0.23c0.03-0.04,3.1-3.51,3.69-6.68c0.31-1.7-0.37-6.19-0.38-6.23l0.14-0.19
			l0.19,0.14c0.03,0.19,0.7,4.59,0.38,6.34c-0.6,3.26-3.64,6.69-3.77,6.84L33.69,93.17z"/>
		<path class="st0" d="M38.19,85.84c-0.4,0-0.67-0.02-0.7-0.03l-0.15-0.18l0.18-0.15c0.02,0,2.39,0.21,3.55-0.63
			c0.92-0.66,2.09-2.61,2.1-2.63l0.23-0.06l0.06,0.23c-0.05,0.09-1.22,2.04-2.19,2.73C40.41,85.73,39.03,85.84,38.19,85.84"/>
		<polygon class="st2" points="40.71,92.21 48.12,92.11 48.12,70.84 40.71,70.94 		"/>
		<path class="st0" d="M61.89,32.44l-0.05,0l-0.1-0.21l0.21-0.11c-0.01-0.01,0.34-0.03,2.42-0.82c2.32-0.88,3.91-2.09,5.89-3.7
			c1.97-1.6,2.79-3.33,2.8-3.35l0.22-0.08l0.08,0.22c-0.03,0.07-0.86,1.82-2.89,3.47c-2.01,1.63-3.61,2.86-5.98,3.75
			C63.02,32.16,62.15,32.44,61.89,32.44"/>
		<path class="st0" d="M59.74,40.15l-0.13-0.06l0.02-0.23c0.02-0.02,2.02-1.67,3.81-5.38c0.63-1.3,0.87-5.27,0.87-5.31l0.18-0.16
			l0.16,0.18c-0.01,0.17-0.24,4.07-0.9,5.43c-1.83,3.78-3.81,5.42-3.9,5.49L59.74,40.15z"/>
		<path class="st0" d="M70.1,31.81l-0.02,0c-0.03,0-0.68-0.07-1.4-0.53c-0.7-0.45-1.33-1.14-1.36-1.17l0.01-0.24l0.24,0.01
			c0.01,0.01,0.63,0.68,1.29,1.11c0.65,0.41,1.25,0.48,1.25,0.48l0.15,0.18L70.1,31.81z"/>
		<rect x="40.41" y="70.5" class="st0" width="0.35" height="21.94"/>
		<path class="st7" d="M43.28,52.73l-5.77-3.33v1.98v0.16c-2.48,0.08-4.97,0.07-7.44-0.1c-1.34-0.09-2.67-0.23-3.99-0.44
			c-1.31-0.22-2.63-0.49-3.8-0.96c-0.29-0.11-0.56-0.26-0.8-0.41c-0.24-0.15-0.44-0.33-0.5-0.47c-0.06-0.12-0.07-0.21,0.05-0.41
			c0.12-0.19,0.35-0.38,0.6-0.55c1.05-0.68,2.37-1.09,3.66-1.45c2.61-0.7,5.32-1.1,8.03-1.38c-2.73,0.06-5.46,0.24-8.18,0.73
			c-1.35,0.27-2.71,0.55-4.03,1.25c-0.33,0.19-0.66,0.4-0.95,0.76c-0.15,0.18-0.27,0.41-0.34,0.68c-0.06,0.28-0.03,0.58,0.07,0.83
			c0.2,0.5,0.54,0.79,0.85,1.04c0.32,0.24,0.64,0.44,0.97,0.6c1.32,0.66,2.67,1.04,4.03,1.38c1.36,0.33,2.73,0.59,4.1,0.8
			c2.54,0.39,5.1,0.61,7.66,0.74v1.91L43.28,52.73z"/>
		<rect x="40.79" y="74.82" class="st1" width="28.23" height="20.94"/>
		<polygon class="st7" points="49.56,76.59 49.87,76.59 49.87,77.74 49.88,77.74 50.07,77.49 50.8,76.59 51.18,76.59 50.31,77.6 
			51.25,78.98 50.88,78.98 50.09,77.8 49.87,78.07 49.87,78.98 49.56,78.98 		"/>
		<path class="st7" d="M52.38,78.1c-0.34-0.01-0.73,0.05-0.73,0.39c0,0.2,0.14,0.3,0.3,0.3c0.22,0,0.36-0.14,0.41-0.29l0.02-0.1
			V78.1z M52.42,78.98l-0.03-0.22h-0.01c-0.1,0.14-0.28,0.26-0.53,0.26c-0.35,0-0.52-0.24-0.52-0.49c0-0.42,0.37-0.64,1.03-0.64
			v-0.04c0-0.14-0.04-0.4-0.39-0.4c-0.16,0-0.33,0.05-0.45,0.13l-0.07-0.21c0.14-0.09,0.35-0.15,0.56-0.15
			c0.53,0,0.65,0.36,0.65,0.7v0.64c0,0.15,0.01,0.29,0.03,0.41H52.42z"/>
		<path class="st7" d="M53.18,77.73c0-0.18-0.01-0.32-0.01-0.46h0.28l0.02,0.28h0.01c0.09-0.16,0.28-0.32,0.57-0.32
			c0.24,0,0.61,0.14,0.61,0.73v1.03h-0.31v-0.99c0-0.28-0.1-0.51-0.4-0.51c-0.21,0-0.37,0.14-0.42,0.32l-0.02,0.15v1.03h-0.31V77.73
			z"/>
		<path class="st7" d="M55.46,78.29l0.01,0.11c0.06,0.21,0.24,0.37,0.47,0.37c0.33,0,0.52-0.27,0.52-0.66
			c0-0.34-0.18-0.64-0.51-0.64c-0.21,0-0.41,0.14-0.48,0.38l-0.02,0.13V78.29z M55.14,78.98c0.01-0.12,0.01-0.29,0.01-0.44v-2.07
			h0.31v1.08h0.01c0.11-0.19,0.31-0.32,0.59-0.32c0.43,0,0.73,0.35,0.72,0.88c0,0.61-0.39,0.92-0.77,0.92
			c-0.25,0-0.45-0.1-0.58-0.32h-0.01l-0.01,0.28H55.14z"/>
		<path class="st7" d="M57.17,78.98h0.31v-1.72h-0.31V78.98z M57.13,76.78l0.19,0.19l0.2-0.19l-0.19-0.19L57.13,76.78z"/>
		<path class="st7" d="M57.96,78.66c0.09,0.06,0.25,0.12,0.41,0.12c0.23,0,0.33-0.11,0.33-0.25c0-0.15-0.09-0.23-0.32-0.32
			c-0.31-0.11-0.45-0.28-0.45-0.49c0-0.28,0.22-0.5,0.59-0.5c0.17,0,0.33,0.05,0.42,0.11l-0.08,0.23c-0.07-0.04-0.19-0.1-0.35-0.1
			c-0.18,0-0.29,0.11-0.29,0.23c0,0.14,0.1,0.21,0.33,0.29C58.85,78.1,59,78.24,59,78.5c0,0.3-0.24,0.51-0.64,0.51
			c-0.19,0-0.36-0.05-0.48-0.12L57.96,78.66z"/>
		<path class="st7" d="M59.8,77.11h0.06L60,77.02l-0.12-0.09l-0.08,0.01V77.11z M59.8,77.44h-0.13v-0.58l0.22-0.02l0.2,0.04
			l0.06,0.12l-0.12,0.13v0.01l0.11,0.14l0.04,0.14h-0.15l-0.04-0.14l-0.12-0.09H59.8V77.44z M59.44,77.13
			c0,0.26,0.19,0.47,0.46,0.47c0.26,0,0.44-0.21,0.44-0.46c0-0.26-0.19-0.47-0.45-0.47C59.63,76.67,59.44,76.87,59.44,77.13
			 M60.49,77.13c0,0.33-0.26,0.59-0.6,0.59c-0.33,0-0.6-0.26-0.6-0.59c0-0.32,0.27-0.58,0.6-0.58
			C60.23,76.55,60.49,76.81,60.49,77.13"/>
		<path class="st7" d="M48.54,82.16c-0.1,0.05-0.3,0.1-0.55,0.1c-0.59,0-1.03-0.39-1.03-1.11c0-0.69,0.44-1.15,1.09-1.15
			c0.26,0,0.42,0.06,0.5,0.1l-0.07,0.23c-0.1-0.05-0.25-0.09-0.42-0.09c-0.49,0-0.81,0.33-0.81,0.91c0,0.53,0.29,0.88,0.8,0.88
			c0.16,0,0.33-0.04,0.44-0.09L48.54,82.16z"/>
		<path class="st7" d="M49.65,81.43c-0.3-0.01-0.63,0.05-0.63,0.35c0,0.19,0.12,0.27,0.26,0.27c0.19,0,0.32-0.13,0.36-0.26
			l0.01-0.09V81.43z M49.69,82.23l-0.02-0.2h-0.01c-0.08,0.12-0.25,0.24-0.46,0.24c-0.3,0-0.46-0.22-0.46-0.45
			c0-0.38,0.32-0.59,0.9-0.59V81.2c0-0.13-0.03-0.36-0.34-0.36c-0.14,0-0.28,0.04-0.39,0.12l-0.06-0.19
			c0.12-0.08,0.3-0.14,0.49-0.14c0.46,0,0.57,0.33,0.57,0.64v0.59c0,0.14,0.01,0.27,0.02,0.38H49.69z"/>
		<path class="st7" d="M50.35,81.08c0-0.16,0-0.29-0.01-0.43h0.24l0.02,0.26h0.01c0.07-0.15,0.25-0.3,0.5-0.3
			c0.21,0,0.53,0.13,0.53,0.67v0.94h-0.27v-0.91c0-0.25-0.09-0.46-0.35-0.46c-0.18,0-0.32,0.13-0.36,0.29l-0.02,0.13v0.95h-0.27
			V81.08z"/>
		<path class="st7" d="M52.07,81.08c0-0.16,0-0.29-0.01-0.43h0.24l0.02,0.26h0.01c0.07-0.15,0.25-0.3,0.49-0.3
			c0.21,0,0.53,0.13,0.53,0.67v0.94h-0.27v-0.91c0-0.25-0.09-0.46-0.35-0.46c-0.18,0-0.32,0.13-0.36,0.29l-0.02,0.13v0.95h-0.27
			V81.08z"/>
		<path class="st7" d="M54.57,81.43c-0.3-0.01-0.63,0.05-0.63,0.35c0,0.19,0.12,0.27,0.26,0.27c0.2,0,0.32-0.13,0.36-0.26l0.02-0.09
			V81.43z M54.61,82.23l-0.02-0.2h-0.01c-0.08,0.12-0.24,0.24-0.46,0.24c-0.3,0-0.46-0.22-0.46-0.45c0-0.38,0.32-0.59,0.9-0.59V81.2
			c0-0.13-0.03-0.36-0.34-0.36c-0.14,0-0.28,0.04-0.39,0.12l-0.06-0.19c0.12-0.08,0.3-0.14,0.49-0.14c0.46,0,0.57,0.33,0.57,0.64
			v0.59c0,0.14,0,0.27,0.02,0.38H54.61z"/>
		<path class="st7" d="M55.54,81.6l0.01,0.11c0.05,0.2,0.21,0.34,0.41,0.34c0.28,0,0.45-0.25,0.45-0.61c0-0.31-0.15-0.59-0.44-0.59
			c-0.19,0-0.36,0.13-0.41,0.35l-0.02,0.12V81.6z M55.26,82.23c0.01-0.11,0.01-0.27,0.01-0.41v-1.9h0.27v0.99h0.01
			c0.09-0.18,0.27-0.29,0.51-0.29c0.37,0,0.63,0.32,0.63,0.8c0,0.56-0.34,0.84-0.67,0.84c-0.22,0-0.39-0.09-0.5-0.3h-0.01
			l-0.01,0.26H55.26z"/>
		<path class="st7" d="M57.03,82.23h0.27v-1.57h-0.27V82.23z M57,80.21l0.16,0.17l0.17-0.17l-0.17-0.18L57,80.21z"/>
		<path class="st7" d="M58.77,81.3l-0.01-0.12c-0.04-0.18-0.19-0.33-0.39-0.33c-0.28,0-0.45,0.26-0.45,0.61
			c0,0.32,0.15,0.58,0.44,0.58c0.18,0,0.35-0.13,0.4-0.34l0.01-0.12V81.3z M59.05,79.92v1.9c0,0.14,0,0.3,0.01,0.41h-0.24
			l-0.01-0.27H58.8c-0.08,0.17-0.26,0.31-0.51,0.31c-0.36,0-0.64-0.32-0.64-0.8c0-0.53,0.31-0.85,0.67-0.85
			c0.23,0,0.38,0.11,0.45,0.24h0v-0.94H59.05z"/>
		<path class="st7" d="M59.5,82.23h0.27v-1.57H59.5V82.23z M59.46,80.21l0.17,0.17l0.17-0.17l-0.17-0.18L59.46,80.21z"/>
		<path class="st7" d="M60.39,81.45c0,0.34,0.19,0.61,0.45,0.61c0.26,0,0.45-0.26,0.45-0.61c0-0.27-0.13-0.61-0.45-0.61
			C60.52,80.84,60.39,81.15,60.39,81.45 M61.57,81.43c0,0.58-0.38,0.83-0.74,0.83c-0.4,0-0.72-0.31-0.72-0.81
			c0-0.53,0.33-0.84,0.74-0.84C61.28,80.62,61.57,80.95,61.57,81.43"/>
		<rect x="61.92" y="79.92" class="st7" width="0.27" height="2.31"/>
		<polygon class="st7" points="48.68,83.37 48.24,83.62 48.3,83.83 48.64,83.63 48.65,83.63 48.65,85.48 48.91,85.48 48.91,83.37 		
			"/>
		<path class="st7" d="M49.89,84.44c0,0.55,0.16,0.86,0.41,0.86c0.28,0,0.41-0.34,0.41-0.88c0-0.52-0.13-0.86-0.41-0.86
			C50.06,83.55,49.89,83.86,49.89,84.44 M50.98,84.4c0,0.72-0.25,1.12-0.7,1.12c-0.39,0-0.66-0.39-0.67-1.09
			c0-0.71,0.29-1.1,0.7-1.1C50.74,83.33,50.98,83.73,50.98,84.4"/>
		<path class="st7" d="M51.47,84.44c0,0.55,0.16,0.86,0.41,0.86c0.28,0,0.41-0.34,0.41-0.88c0-0.52-0.13-0.86-0.41-0.86
			C51.65,83.55,51.47,83.86,51.47,84.44 M52.56,84.4c0,0.72-0.25,1.12-0.7,1.12c-0.39,0-0.66-0.39-0.67-1.09
			c0-0.71,0.29-1.1,0.7-1.1C52.32,83.33,52.56,83.73,52.56,84.4"/>
		<path class="st7" d="M53.56,84.34c0-0.16-0.01-0.3-0.01-0.43h0.24l0.01,0.26h0.01c0.08-0.15,0.22-0.29,0.47-0.29
			c0.2,0,0.36,0.13,0.42,0.31h0.01l0.17-0.2c0.09-0.07,0.19-0.11,0.33-0.11c0.2,0,0.49,0.14,0.49,0.68v0.93h-0.27v-0.89
			c0-0.3-0.1-0.48-0.32-0.48c-0.16,0-0.28,0.12-0.32,0.26l-0.02,0.14v0.97h-0.27v-0.94c0-0.25-0.11-0.43-0.31-0.43
			c-0.17,0-0.29,0.14-0.34,0.29l-0.02,0.14v0.95h-0.26V84.34z"/>
		<path class="st7" d="M57.14,84.53l-0.01-0.13c-0.05-0.17-0.18-0.3-0.38-0.3c-0.26,0-0.44,0.23-0.44,0.59
			c0,0.31,0.15,0.57,0.44,0.57c0.17,0,0.32-0.11,0.38-0.29l0.02-0.15V84.53z M57.42,83.91c-0.01,0.12-0.01,0.24-0.01,0.43v0.91
			c0,0.36-0.07,0.58-0.21,0.72c-0.15,0.14-0.35,0.19-0.54,0.19c-0.18,0-0.38-0.05-0.5-0.13l0.07-0.22c0.1,0.07,0.25,0.12,0.44,0.12
			c0.28,0,0.48-0.15,0.48-0.55v-0.18h-0.01c-0.08,0.15-0.24,0.26-0.48,0.26c-0.37,0-0.64-0.33-0.64-0.77c0-0.53,0.33-0.84,0.67-0.84
			c0.26,0,0.4,0.14,0.47,0.27h0.01l0.01-0.24H57.42z"/>
		<polygon class="st7" points="58.49,83.25 57.63,85.61 57.84,85.61 58.7,83.25 		"/>
		<path class="st7" d="M58.92,84.34c0-0.16,0-0.3-0.01-0.43h0.24l0.01,0.26h0.01c0.08-0.15,0.22-0.29,0.47-0.29
			c0.2,0,0.36,0.13,0.42,0.31h0.01l0.17-0.2c0.09-0.07,0.19-0.11,0.33-0.11c0.2,0,0.49,0.14,0.49,0.68v0.93h-0.27v-0.89
			c0-0.3-0.1-0.48-0.32-0.48c-0.16,0-0.28,0.12-0.32,0.26l-0.02,0.14v0.97h-0.27v-0.94c0-0.25-0.11-0.43-0.31-0.43
			c-0.17,0-0.29,0.14-0.34,0.29l-0.02,0.14v0.95h-0.27V84.34z"/>
		<rect x="61.5" y="83.17" class="st7" width="0.27" height="2.31"/>
		<path class="st7" d="M43.8,88.75c0.1,0.06,0.25,0.12,0.41,0.12c0.24,0,0.38-0.12,0.38-0.31c0-0.17-0.1-0.26-0.34-0.36
			c-0.29-0.1-0.47-0.25-0.47-0.51c0-0.28,0.23-0.49,0.58-0.49c0.18,0,0.32,0.04,0.4,0.09l-0.07,0.19c-0.06-0.03-0.18-0.08-0.34-0.08
			c-0.24,0-0.34,0.15-0.34,0.27c0,0.17,0.11,0.25,0.36,0.34c0.3,0.12,0.46,0.27,0.46,0.53c0,0.28-0.21,0.52-0.63,0.52
			c-0.17,0-0.36-0.05-0.46-0.11L43.8,88.75z"/>
		<path class="st7" d="M45.29,88.39c0,0.28,0.16,0.5,0.39,0.5c0.22,0,0.39-0.21,0.39-0.5c0-0.22-0.11-0.5-0.39-0.5
			C45.41,87.89,45.29,88.14,45.29,88.39 M46.31,88.38c0,0.48-0.33,0.68-0.64,0.68c-0.35,0-0.62-0.25-0.62-0.66
			c0-0.43,0.28-0.68,0.64-0.68C46.06,87.71,46.31,87.98,46.31,88.38"/>
		<rect x="46.61" y="87.14" class="st7" width="0.23" height="1.89"/>
		<path class="st7" d="M48.32,88.68l0.01,0.35h-0.21l-0.01-0.21H48.1c-0.06,0.1-0.2,0.24-0.43,0.24c-0.2,0-0.44-0.11-0.44-0.56
			v-0.75h0.23v0.71c0,0.24,0.07,0.41,0.29,0.41c0.16,0,0.27-0.11,0.31-0.21l0.02-0.12v-0.79h0.23V88.68z"/>
		<path class="st7" d="M49.62,88.98c-0.06,0.03-0.2,0.07-0.37,0.07c-0.39,0-0.64-0.26-0.64-0.66c0-0.4,0.27-0.68,0.69-0.68
			c0.14,0,0.26,0.03,0.33,0.07l-0.05,0.18L49.3,87.9c-0.29,0-0.45,0.22-0.45,0.49c0,0.3,0.19,0.48,0.45,0.48l0.29-0.06L49.62,88.98z
			"/>
		<path class="st7" d="M49.9,89.03h0.23v-1.29H49.9V89.03z M49.87,87.38l0.14,0.14l0.15-0.14l-0.14-0.15L49.87,87.38z"/>
		<path class="st7" d="M51.41,87.19l-0.33,0.38h-0.17l0.23-0.38H51.41z M50.66,88.39c0,0.28,0.16,0.5,0.39,0.5
			c0.22,0,0.39-0.21,0.39-0.5c0-0.22-0.11-0.5-0.39-0.5C50.78,87.89,50.66,88.14,50.66,88.39 M51.69,88.38
			c0,0.48-0.33,0.68-0.64,0.68c-0.35,0-0.62-0.25-0.62-0.66c0-0.43,0.28-0.68,0.64-0.68C51.43,87.71,51.69,87.98,51.69,88.38"/>
		<path class="st7" d="M51.98,88.09l-0.01-0.35h0.21l0.01,0.21h0c0.06-0.12,0.21-0.24,0.43-0.24c0.18,0,0.46,0.11,0.46,0.55v0.77
			h-0.23v-0.74c0-0.21-0.08-0.38-0.3-0.38c-0.16,0-0.27,0.11-0.31,0.24l-0.02,0.11v0.78h-0.23V88.09z"/>
		<path class="st7" d="M54.16,88.39c0,0.28,0.16,0.5,0.39,0.5c0.22,0,0.39-0.21,0.39-0.5c0-0.22-0.11-0.5-0.39-0.5
			C54.28,87.89,54.16,88.14,54.16,88.39 M55.19,88.38c0,0.48-0.33,0.68-0.64,0.68c-0.35,0-0.62-0.25-0.62-0.66
			c0-0.43,0.28-0.68,0.64-0.68C54.94,87.71,55.19,87.98,55.19,88.38"/>
		<path class="st7" d="M55.48,88.14c0-0.15,0-0.28-0.01-0.4h0.2L55.68,88h0.01c0.06-0.17,0.2-0.28,0.36-0.28l0.07,0.01v0.22
			l-0.08-0.01c-0.17,0-0.28,0.13-0.31,0.3l-0.01,0.11v0.69h-0.23V88.14z"/>
		<path class="st7" d="M57.02,88.37c-0.26-0.01-0.55,0.04-0.55,0.29c0,0.15,0.1,0.22,0.22,0.22c0.17,0,0.27-0.11,0.31-0.22
			l0.01-0.07V88.37z M57.05,89.03l-0.02-0.16h-0.01c-0.07,0.1-0.21,0.2-0.39,0.2c-0.26,0-0.39-0.18-0.39-0.37
			c0-0.31,0.28-0.48,0.77-0.48v-0.03c0-0.11-0.03-0.3-0.29-0.3l-0.33,0.09l-0.05-0.15c0.1-0.07,0.26-0.11,0.42-0.11
			c0.39,0,0.49,0.27,0.49,0.53v0.48l0.02,0.31H57.05z"/>
		<rect x="57.62" y="87.14" class="st7" width="0.23" height="1.89"/>
		<path class="st7" d="M59.32,87.18c-0.19,0.26-0.33,0.61-0.33,1.09c0,0.48,0.15,0.82,0.33,1.08h-0.18
			c-0.17-0.22-0.35-0.56-0.35-1.08c0-0.52,0.18-0.86,0.35-1.09H59.32z"/>
		<path class="st7" d="M60.44,88.25l-0.01-0.11c-0.04-0.14-0.16-0.25-0.33-0.25c-0.22,0-0.38,0.19-0.38,0.49
			c0,0.25,0.13,0.46,0.38,0.46c0.14,0,0.27-0.09,0.32-0.24l0.02-0.12V88.25z M60.68,87.74c-0.01,0.09-0.01,0.2-0.01,0.36v0.75
			c0,0.3-0.06,0.48-0.18,0.59c-0.12,0.12-0.31,0.15-0.47,0.15c-0.15,0-0.33-0.04-0.43-0.11l0.06-0.18c0.09,0.05,0.22,0.1,0.38,0.1
			c0.24,0,0.42-0.12,0.42-0.45v-0.15h0c-0.07,0.12-0.21,0.22-0.41,0.22c-0.32,0-0.55-0.27-0.55-0.63c0-0.44,0.29-0.68,0.58-0.68
			c0.22,0,0.35,0.12,0.4,0.22h0l0.01-0.19H60.68z"/>
		<path class="st7" d="M61.2,88.39c0,0.28,0.16,0.5,0.39,0.5c0.22,0,0.39-0.21,0.39-0.5c0-0.22-0.11-0.5-0.39-0.5
			C61.32,87.89,61.2,88.14,61.2,88.39 M62.22,88.38c0,0.48-0.33,0.68-0.64,0.68c-0.35,0-0.62-0.25-0.62-0.66
			c0-0.43,0.28-0.68,0.64-0.68C61.97,87.71,62.22,87.98,62.22,88.38"/>
		<path class="st7" d="M62.8,87.37v0.37h0.33v0.18H62.8v0.69c0,0.16,0.05,0.25,0.18,0.25l0.14-0.02l0.01,0.18l-0.21,0.03l-0.25-0.1
			c-0.07-0.07-0.09-0.18-0.09-0.33v-0.7h-0.2v-0.18h0.2v-0.31L62.8,87.37z"/>
		<path class="st7" d="M64.08,88.37c-0.26-0.01-0.55,0.04-0.55,0.29c0,0.15,0.1,0.22,0.22,0.22c0.17,0,0.27-0.11,0.31-0.22
			l0.01-0.07V88.37z M64.11,89.03l-0.02-0.16h-0.01c-0.07,0.1-0.21,0.2-0.39,0.2c-0.26,0-0.39-0.18-0.39-0.37
			c0-0.31,0.28-0.48,0.77-0.48v-0.03c0-0.11-0.03-0.3-0.29-0.3l-0.33,0.09l-0.05-0.15c0.11-0.07,0.26-0.11,0.42-0.11
			c0.39,0,0.49,0.27,0.49,0.53v0.48l0.02,0.31H64.11z"/>
		<path class="st7" d="M64.65,88.79l0.31,0.09c0.17,0,0.25-0.08,0.25-0.19c0-0.11-0.07-0.17-0.24-0.24
			c-0.23-0.08-0.34-0.21-0.34-0.37c0-0.21,0.17-0.38,0.44-0.38l0.32,0.08l-0.06,0.17l-0.26-0.08c-0.14,0-0.21,0.08-0.21,0.18
			c0,0.11,0.08,0.15,0.24,0.22c0.22,0.09,0.34,0.2,0.34,0.39c0,0.23-0.18,0.39-0.48,0.39c-0.14,0-0.27-0.04-0.36-0.09L64.65,88.79z"
			/>
		<path class="st7" d="M65.59,89.35c0.19-0.26,0.33-0.61,0.33-1.09c0-0.48-0.14-0.82-0.33-1.08h0.18c0.17,0.22,0.35,0.56,0.35,1.08
			c0,0.52-0.18,0.86-0.35,1.09H65.59z"/>
		<path class="st7" d="M43.54,91.69l-0.46-1.4h0.19l0.22,0.69c0.06,0.19,0.11,0.36,0.15,0.52h0c0.04-0.16,0.1-0.34,0.16-0.52
			l0.24-0.69h0.19l-0.5,1.4H43.54z"/>
		<path class="st7" d="M44.95,91.09c0-0.12-0.05-0.3-0.25-0.3c-0.18,0-0.27,0.17-0.28,0.3H44.95z M44.42,91.22
			c0,0.25,0.16,0.35,0.34,0.35l0.28-0.05l0.03,0.13c-0.06,0.03-0.17,0.06-0.33,0.06c-0.31,0-0.49-0.21-0.49-0.51
			c0-0.3,0.18-0.54,0.47-0.54c0.33,0,0.41,0.29,0.41,0.47l-0.01,0.09H44.42z"/>
		<path class="st7" d="M45.35,90.96l-0.01-0.27h0.16l0.01,0.17h0c0.05-0.1,0.17-0.19,0.33-0.19c0.14,0,0.35,0.08,0.35,0.43v0.6
			h-0.18v-0.58c0-0.16-0.06-0.3-0.23-0.3l-0.24,0.19l-0.01,0.08v0.6h-0.18V90.96z"/>
		<polygon class="st7" points="46.53,90.45 46.53,90.69 46.38,90.69 46.38,90.83 46.53,90.83 46.53,91.37 46.6,91.64 46.8,91.71 
			46.96,91.69 46.95,91.55 46.85,91.56 46.71,91.37 46.71,90.83 46.97,90.83 46.97,90.69 46.71,90.69 46.71,90.4 		"/>
		<path class="st7" d="M47.71,91.18c-0.2,0-0.42,0.03-0.42,0.23l0.17,0.17l0.24-0.17l0.01-0.06V91.18z M47.73,91.69l-0.02-0.13
			h-0.01c-0.06,0.08-0.16,0.15-0.31,0.15c-0.2,0-0.31-0.14-0.31-0.29c0-0.24,0.21-0.37,0.6-0.37v-0.02c0-0.08-0.02-0.23-0.23-0.23
			l-0.26,0.07l-0.04-0.12l0.33-0.09c0.31,0,0.38,0.21,0.38,0.41v0.38l0.02,0.24H47.73z"/>
		<path class="st7" d="M48.8,91.29l0.01,0.07l0.27,0.21c0.19,0,0.31-0.16,0.31-0.39c0-0.2-0.1-0.37-0.3-0.37
			c-0.12,0-0.24,0.08-0.28,0.22l-0.01,0.07V91.29z M48.6,91.69l0.01-0.26v-1.21h0.18v0.63h0c0.06-0.11,0.18-0.18,0.34-0.18
			c0.25,0,0.42,0.21,0.42,0.51c0,0.36-0.23,0.54-0.45,0.54c-0.14,0-0.26-0.06-0.33-0.19h-0.01l-0.01,0.17H48.6z"/>
		<path class="st7" d="M50.32,91.18c-0.2,0-0.43,0.03-0.43,0.23l0.17,0.17l0.24-0.17l0.01-0.06V91.18z M50.35,91.69l-0.02-0.13
			h-0.01c-0.06,0.08-0.16,0.15-0.31,0.15c-0.2,0-0.31-0.14-0.31-0.29c0-0.24,0.21-0.37,0.6-0.37v-0.02c0-0.08-0.02-0.23-0.23-0.23
			l-0.26,0.07l-0.04-0.12l0.33-0.09c0.31,0,0.38,0.21,0.38,0.41v0.38l0.02,0.24H50.35z"/>
		<path class="st7" d="M51.01,90.41l-0.11,0.11l-0.11-0.11l0.12-0.12L51.01,90.41z M50.54,91.98l0.2-0.08
			c0.05-0.06,0.07-0.14,0.07-0.38v-0.84h0.18v0.91c0,0.19-0.03,0.32-0.12,0.41l-0.31,0.11L50.54,91.98z"/>
		<path class="st7" d="M51.4,91.19c0,0.22,0.13,0.39,0.31,0.39c0.17,0,0.3-0.17,0.3-0.39c0-0.17-0.08-0.38-0.3-0.38
			C51.5,90.8,51.4,91,51.4,91.19 M52.2,91.18c0,0.37-0.26,0.53-0.5,0.53c-0.27,0-0.48-0.2-0.48-0.52c0-0.34,0.22-0.53,0.5-0.53
			C52,90.67,52.2,90.88,52.2,91.18"/>
		<path class="st7" d="M52.87,91l-0.01-0.31h0.16l0.01,0.2h0.01c0.04-0.13,0.16-0.22,0.28-0.22l0.05,0.01v0.17l-0.06-0.01
			c-0.13,0-0.22,0.1-0.25,0.23l-0.01,0.08v0.54h-0.18V91z"/>
		<path class="st7" d="M54.16,91.09c0-0.12-0.05-0.3-0.25-0.3c-0.19,0-0.27,0.17-0.28,0.3H54.16z M53.62,91.22
			c0.01,0.25,0.16,0.35,0.34,0.35l0.28-0.05l0.03,0.13c-0.06,0.03-0.18,0.06-0.33,0.06c-0.31,0-0.49-0.21-0.49-0.51
			c0-0.3,0.18-0.54,0.47-0.54c0.33,0,0.41,0.29,0.41,0.47l-0.01,0.09H53.62z"/>
		<path class="st7" d="M55.27,91.65c-0.05,0.03-0.15,0.06-0.29,0.06c-0.3,0-0.5-0.2-0.5-0.51c0-0.31,0.21-0.53,0.54-0.53l0.25,0.05
			l-0.04,0.14l-0.21-0.05c-0.23,0-0.35,0.17-0.35,0.38c0,0.23,0.15,0.37,0.35,0.37l0.22-0.05L55.27,91.65z"/>
		<path class="st7" d="M56.11,91.09c0-0.12-0.05-0.3-0.25-0.3c-0.19,0-0.27,0.17-0.28,0.3H56.11z M55.58,91.22
			c0,0.25,0.16,0.35,0.34,0.35l0.28-0.05l0.03,0.13c-0.07,0.03-0.18,0.06-0.33,0.06c-0.31,0-0.49-0.21-0.49-0.51
			c0-0.3,0.18-0.54,0.47-0.54c0.33,0,0.41,0.29,0.41,0.47l-0.01,0.09H55.58z"/>
		<polygon class="st7" points="56.55,90.45 56.55,90.69 56.4,90.69 56.4,90.83 56.55,90.83 56.55,91.37 56.62,91.64 56.82,91.71 
			56.98,91.69 56.97,91.55 56.87,91.56 56.73,91.37 56.73,90.83 56.99,90.83 56.99,90.69 56.73,90.69 56.73,90.4 		"/>
		<path class="st7" d="M57.72,91.18c-0.2,0-0.42,0.03-0.42,0.23l0.17,0.17l0.24-0.17l0.01-0.06V91.18z M57.75,91.69l-0.01-0.13
			h-0.01c-0.05,0.08-0.16,0.15-0.3,0.15c-0.2,0-0.31-0.14-0.31-0.29c0-0.24,0.21-0.37,0.6-0.37v-0.02c0-0.08-0.02-0.23-0.23-0.23
			l-0.26,0.07l-0.04-0.12l0.33-0.09c0.31,0,0.38,0.21,0.38,0.41v0.38l0.02,0.24H57.75z"/>
		<path class="st7" d="M59.16,91.18c-0.2,0-0.42,0.03-0.42,0.23l0.17,0.17l0.24-0.17l0.01-0.06V91.18z M59.19,91.69l-0.02-0.13h0
			c-0.06,0.08-0.16,0.15-0.31,0.15c-0.2,0-0.31-0.14-0.31-0.29c0-0.24,0.22-0.37,0.6-0.37v-0.02c0-0.08-0.02-0.23-0.23-0.23
			l-0.26,0.07l-0.04-0.12l0.33-0.09c0.31,0,0.38,0.21,0.38,0.41v0.38l0.02,0.24H59.19z"/>
		<path class="st7" d="M59.63,91l-0.01-0.31h0.16l0.01,0.2h0.01c0.05-0.13,0.15-0.22,0.28-0.22l0.05,0.01v0.17l-0.06-0.01
			c-0.13,0-0.22,0.1-0.24,0.23l-0.01,0.08v0.54h-0.18V91z"/>
		<path class="st7" d="M61,91.65c-0.05,0.03-0.15,0.06-0.29,0.06c-0.3,0-0.5-0.2-0.5-0.51c0-0.31,0.21-0.53,0.54-0.53l0.25,0.05
			l-0.04,0.14l-0.21-0.05c-0.23,0-0.35,0.17-0.35,0.38c0,0.23,0.15,0.37,0.35,0.37l0.22-0.05L61,91.65z"/>
		<path class="st7" d="M61.21,90.22h0.18v0.62h0l0.13-0.13l0.19-0.05c0.13,0,0.35,0.08,0.35,0.43v0.6h-0.18v-0.58
			c0-0.16-0.06-0.3-0.23-0.3L61.41,91l-0.01,0.09v0.6h-0.18V90.22z"/>
		<path class="st7" d="M62.36,91.69h0.18v-1h-0.18V91.69z M62.34,90.41l0.11,0.11l0.11-0.11l-0.11-0.12L62.34,90.41z"/>
		<polygon class="st7" points="63.48,90.69 63.29,91.25 63.2,91.51 63.19,91.51 63.11,91.25 62.92,90.69 62.72,90.69 63.1,91.69 
			63.28,91.69 63.67,90.69 		"/>
		<path class="st7" d="M64.36,91.18c-0.2,0-0.43,0.03-0.43,0.23l0.17,0.17l0.24-0.17l0.01-0.06V91.18z M64.39,91.69l-0.02-0.13h0
			c-0.06,0.08-0.16,0.15-0.31,0.15c-0.2,0-0.31-0.14-0.31-0.29c0-0.24,0.22-0.37,0.6-0.37v-0.02c0-0.08-0.02-0.23-0.23-0.23
			l-0.26,0.07l-0.04-0.12l0.33-0.09c0.31,0,0.38,0.21,0.38,0.41v0.38l0.02,0.24H64.39z"/>
		<path class="st7" d="M65.52,91.1l-0.01-0.08c-0.03-0.12-0.13-0.21-0.26-0.21c-0.19,0-0.3,0.17-0.3,0.39c0,0.2,0.1,0.37,0.3,0.37
			c0.12,0,0.23-0.08,0.27-0.22l0.01-0.08V91.1z M65.7,90.22v1.21l0.01,0.26h-0.16l-0.01-0.17h0c-0.06,0.11-0.18,0.2-0.34,0.2
			c-0.24,0-0.43-0.21-0.43-0.51c0-0.33,0.2-0.54,0.45-0.54c0.15,0,0.26,0.07,0.3,0.15h0v-0.6H65.7z"/>
		<path class="st7" d="M66.53,91.18c-0.2,0-0.43,0.03-0.43,0.23l0.17,0.17l0.24-0.17l0.01-0.06V91.18z M66.55,91.69l-0.01-0.13
			h-0.01c-0.06,0.08-0.16,0.15-0.31,0.15c-0.2,0-0.31-0.14-0.31-0.29c0-0.24,0.22-0.37,0.6-0.37v-0.02c0-0.08-0.02-0.23-0.23-0.23
			l-0.26,0.07l-0.04-0.12l0.33-0.09c0.31,0,0.38,0.21,0.38,0.41v0.38l0.02,0.24H66.55z"/>
		<rect x="45.02" y="92.66" class="st7" width="0.18" height="1.39"/>
		<path class="st7" d="M45.52,94.06v-1.4h0.2l0.45,0.71c0.1,0.16,0.19,0.31,0.25,0.46l0.01,0c-0.02-0.19-0.02-0.36-0.02-0.58v-0.58
			h0.17v1.4h-0.18l-0.44-0.71c-0.1-0.15-0.19-0.31-0.26-0.47l-0.01,0c0.01,0.17,0.02,0.34,0.02,0.57v0.6H45.52z"/>
		<path class="st7" d="M47.06,93.91l0.18,0.01c0.39,0,0.59-0.22,0.59-0.59c0-0.33-0.18-0.54-0.56-0.54l-0.21,0.02V93.91z
			 M46.88,92.68c0.11-0.02,0.24-0.03,0.38-0.03c0.26,0,0.44,0.06,0.57,0.17c0.12,0.12,0.2,0.28,0.2,0.5c0,0.23-0.07,0.41-0.2,0.54
			c-0.13,0.13-0.35,0.2-0.62,0.2l-0.33-0.02V92.68z"/>
		<path class="st7" d="M48.44,92.66v0.83c0,0.31,0.14,0.44,0.33,0.44c0.21,0,0.34-0.14,0.34-0.44v-0.83h0.18v0.81
			c0,0.43-0.23,0.61-0.53,0.61c-0.29,0-0.5-0.17-0.5-0.6v-0.82H48.44z"/>
		<path class="st7" d="M49.57,93.84l0.32,0.09c0.18,0,0.29-0.1,0.29-0.24c0-0.13-0.07-0.21-0.26-0.28c-0.23-0.08-0.37-0.2-0.37-0.39
			c0-0.22,0.18-0.38,0.45-0.38c0.14,0,0.25,0.03,0.31,0.07l-0.05,0.15L50,92.79c-0.19,0-0.26,0.11-0.26,0.21
			c0,0.13,0.08,0.2,0.28,0.27c0.23,0.09,0.35,0.2,0.35,0.41c0,0.21-0.16,0.4-0.49,0.4c-0.14,0-0.28-0.04-0.36-0.09L49.57,93.84z"/>
		<polygon class="st7" points="50.46,92.66 50.46,92.82 50.88,92.82 50.88,94.06 51.07,94.06 51.07,92.82 51.49,92.82 51.49,92.66 
					"/>
		<path class="st7" d="M51.82,93.32h0.19c0.19,0,0.31-0.1,0.31-0.26c0-0.18-0.13-0.26-0.32-0.26l-0.18,0.02V93.32z M51.65,92.68
			l0.35-0.03c0.19,0,0.32,0.03,0.4,0.11l0.11,0.26c0,0.18-0.12,0.31-0.26,0.36v0.01c0.11,0.04,0.17,0.14,0.2,0.28
			c0.05,0.19,0.08,0.33,0.11,0.38h-0.19c-0.02-0.04-0.05-0.16-0.09-0.33c-0.04-0.19-0.12-0.26-0.28-0.27h-0.17v0.6h-0.18V92.68z"/>
		<rect x="52.76" y="92.66" class="st7" width="0.18" height="1.39"/>
		<path class="st7" d="M53.65,93.07l0.07-0.25h0.01l0.07,0.25l0.14,0.4h-0.42L53.65,93.07z M53.62,92.66l-0.47,1.4h0.18l0.15-0.44
			h0.49l0.15,0.44h0.19l-0.48-1.4H53.62z"/>
		<path class="st7" d="M55.36,93.07l0.07-0.25h0l0.07,0.25l0.14,0.4h-0.42L55.36,93.07z M55.33,92.66l-0.47,1.4h0.19l0.14-0.44h0.5
			l0.15,0.44h0.19l-0.48-1.4H55.33z"/>
		<path class="st7" d="M56.41,93.32h0.18c0.19,0,0.31-0.1,0.31-0.26c0-0.18-0.13-0.26-0.32-0.26l-0.18,0.02V93.32z M56.23,92.68
			l0.35-0.03c0.19,0,0.32,0.03,0.4,0.11l0.11,0.26c0,0.18-0.11,0.31-0.26,0.36v0.01c0.11,0.04,0.17,0.14,0.21,0.28
			c0.04,0.19,0.08,0.33,0.11,0.38h-0.19c-0.02-0.04-0.05-0.16-0.09-0.33c-0.04-0.19-0.12-0.26-0.28-0.27h-0.17v0.6h-0.18V92.68z"/>
		<path class="st7" d="M58.41,94c-0.08,0.03-0.24,0.08-0.43,0.08c-0.21,0-0.39-0.05-0.52-0.18c-0.12-0.12-0.2-0.3-0.2-0.52
			c0-0.42,0.29-0.72,0.76-0.72c0.16,0,0.29,0.03,0.35,0.06l-0.04,0.15c-0.08-0.03-0.17-0.06-0.31-0.06c-0.34,0-0.56,0.21-0.56,0.56
			c0,0.35,0.21,0.56,0.54,0.56l0.24-0.04v-0.42h-0.28v-0.14h0.46V94z"/>
		<polygon class="st7" points="58.68,92.66 58.68,94.06 59.47,94.06 59.47,93.91 58.86,93.91 58.86,93.4 59.4,93.4 59.4,93.25 
			58.86,93.25 58.86,92.81 59.44,92.81 59.44,92.66 		"/>
		<path class="st7" d="M59.7,94.06v-1.4h0.2l0.45,0.71c0.1,0.16,0.18,0.31,0.25,0.46l0,0c-0.02-0.19-0.02-0.36-0.02-0.58v-0.58h0.17
			v1.4h-0.18l-0.44-0.71c-0.1-0.15-0.19-0.31-0.26-0.47l-0.01,0c0.01,0.17,0.02,0.34,0.02,0.57v0.6H59.7z"/>
		<polygon class="st7" points="60.9,92.66 60.9,92.82 61.33,92.82 61.33,94.06 61.51,94.06 61.51,92.82 61.94,92.82 61.94,92.66 		
			"/>
		<rect x="62.09" y="92.66" class="st7" width="0.18" height="1.39"/>
		<path class="st7" d="M62.59,94.06v-1.4h0.2l0.45,0.71c0.1,0.16,0.18,0.31,0.25,0.46l0.01,0c-0.02-0.19-0.02-0.36-0.02-0.58v-0.58
			h0.17v1.4h-0.18l-0.44-0.71c-0.1-0.15-0.19-0.31-0.26-0.47l-0.01,0c0.01,0.17,0.02,0.34,0.02,0.57v0.6H62.59z"/>
		<path class="st7" d="M64.35,93.07l0.07-0.25h0l0.07,0.25l0.13,0.4h-0.42L64.35,93.07z M64.32,92.66l-0.47,1.4h0.19l0.14-0.44h0.5
			l0.15,0.44h0.19l-0.47-1.4H64.32z"/>
	</g>
	<g>
		<g>
			<rect x="2.7" y="10.38" class="st8" width="106.42" height="105.47"/>
		</g>
		<g>
			<path class="st9" d="M120.1,12.87c0,5.96-4.83,10.79-10.79,10.79c-5.96,0-10.79-4.83-10.79-10.79c0-5.96,4.83-10.79,10.79-10.79
				C115.27,2.08,120.1,6.91,120.1,12.87z"/>
			<g>
				<path class="st10" d="M108.53,18.5v-8.16l-1.72,1.8l-1.08-1.12l3.04-3.07h1.61V18.5H108.53z"/>
			</g>
		</g>
	</g>
</g>
</svg>
