<?xml version="1.0" encoding="utf-8"?>
<!-- Generator: Adobe Illustrator 26.0.0, SVG Export Plug-In . SVG Version: 6.00 Build 0)  -->
<svg version="1.1" id="Capa_1" xmlns="http://www.w3.org/2000/svg" xmlns:xlink="http://www.w3.org/1999/xlink" x="0px" y="0px"
	 viewBox="0 0 111.05 133.33" style="enable-background:new 0 0 111.05 133.33;" xml:space="preserve">
<style type="text/css">
	.st0{clip-path:url(#SVGID_00000127024023265502165830000017297809287907088551_);fill:#FFFFFF;}
	.st1{clip-path:url(#SVGID_00000127024023265502165830000017297809287907088551_);fill:#13110C;}
	.st2{fill:#13110C;}
	.st3{clip-path:url(#SVGID_00000042007255374695492620000007281506416560178827_);fill:#13110C;}
	.st4{fill:#E7D7EB;}
	.st5{clip-path:url(#SVGID_00000110438317923076452150000012078574005153072520_);fill:#13110C;}
	.st6{clip-path:url(#SVGID_00000110438317923076452150000012078574005153072520_);fill:#FFFFFF;}
	.st7{clip-path:url(#SVGID_00000110438317923076452150000012078574005153072520_);fill:#1F1F1C;}
	.st8{fill:#FFFFFF;}
	.st9{fill:#1F1F1C;}
	.st10{clip-path:url(#SVGID_00000032627077243449060580000015609660917424728469_);fill:#1F1F1C;}
	.st11{clip-path:url(#SVGID_00000032627077243449060580000015609660917424728469_);fill:#AC7FB6;}
	.st12{fill:#C6C4C4;}
	.st13{fill:#1F1F1D;}
	.st14{clip-path:url(#SVGID_00000061468207786863858720000001665506008030074768_);fill:#13110C;}
	.st15{clip-path:url(#SVGID_00000061468207786863858720000001665506008030074768_);fill:#FFFFFF;}
	.st16{fill:#959191;}
	.st17{fill:#1A1A17;}
	.st18{clip-path:url(#SVGID_00000030472984472507505690000005649055198433771426_);fill:#13110C;}
	.st19{clip-path:url(#SVGID_00000065048181511713444040000010527040321332145308_);fill:#FFFFFF;}
	.st20{clip-path:url(#SVGID_00000065048181511713444040000010527040321332145308_);fill:#222220;}
	.st21{clip-path:url(#SVGID_00000137100595222010071090000002871469695433565087_);fill:#FFFFFF;}
	.st22{clip-path:url(#SVGID_00000137100595222010071090000002871469695433565087_);fill:#13110C;}
	.st23{clip-path:url(#SVGID_00000063627379910216877580000016124939606716212870_);fill:#A87FB1;}
	.st24{clip-path:url(#SVGID_00000142886899296403988210000003266322809887496329_);fill:#13110C;}
	.st25{clip-path:url(#SVGID_00000142886899296403988210000003266322809887496329_);fill:#E7D7EB;}
	.st26{clip-path:url(#SVGID_00000142886899296403988210000003266322809887496329_);fill:#1F1F1C;}
	.st27{fill:none;stroke:#662982;stroke-width:1.9;stroke-miterlimit:10;}
	.st28{fill:#FFFFFF;stroke:#662982;stroke-width:1.9;stroke-miterlimit:10;}
	.st29{fill:#662982;}
</style>
<g>
	<g>
		<g>
			<defs>
				<rect id="SVGID_1_" x="1.6" y="13.39" width="77.22" height="115.6"/>
			</defs>
			<clipPath id="SVGID_00000114793310179219155990000003734866577946981306_">
				<use xlink:href="#SVGID_1_"  style="overflow:visible;"/>
			</clipPath>
			<path style="clip-path:url(#SVGID_00000114793310179219155990000003734866577946981306_);fill:#FFFFFF;" d="M79.47,136.56
				c0,0-2.49-2.06-4.21-3.54c-1.72-1.48-5.17-3.73-6.61-7.13c-1.44-3.4-1.05-4.17-5.27-7.76c-3.78-3.22-4.6-3.5-7.14-4.12
				c-5.31-1.29-8.47-2.58-10.72-3.02c-2.25-0.43-8.33-0.14-10.2,0.33c-1.87,0.48-3.4,1.87-3.3,3.78c0.08,1.64,0.86,2.83,3.02,3.69
				l14.98,18.82L79.47,136.56z"/>
			<path style="clip-path:url(#SVGID_00000114793310179219155990000003734866577946981306_);fill:#13110C;" d="M42.18,110.96
				c-2.55,0-5.57,0.22-6.8,0.54c-1.53,0.39-3.27,1.57-3.17,3.6c0.08,1.69,0.95,2.75,2.9,3.53l0.04,0.02l0.03,0.04l14.93,18.74
				l28.88-1.03c-0.76-0.63-2.54-2.11-3.85-3.24c-0.31-0.27-0.68-0.56-1.08-0.88c-1.85-1.48-4.38-3.5-5.58-6.32
				c-0.27-0.65-0.48-1.21-0.67-1.7c-0.78-2.07-1.17-3.11-4.55-5.99c-3.73-3.18-4.54-3.47-7.06-4.08c-2.86-0.7-5.1-1.39-6.9-1.95
				c-1.56-0.48-2.79-0.87-3.82-1.06C44.74,111.02,43.52,110.96,42.18,110.96 M49.94,137.8l-0.06-0.07l-14.96-18.78
				c-2.04-0.83-3-2.01-3.09-3.83c-0.11-2.11,1.65-3.51,3.44-3.97c1.96-0.5,8.01-0.77,10.28-0.34c1.05,0.2,2.29,0.59,3.86,1.07
				c1.8,0.56,4.03,1.25,6.88,1.94c2.59,0.63,3.42,0.93,7.21,4.16c3.45,2.94,3.85,4.01,4.65,6.14c0.18,0.49,0.39,1.04,0.66,1.68
				c1.16,2.74,3.65,4.73,5.47,6.18c0.4,0.32,0.78,0.62,1.09,0.89c1.7,1.47,4.19,3.52,4.21,3.54l0.37,0.3L49.94,137.8z"/>
			<path style="clip-path:url(#SVGID_00000114793310179219155990000003734866577946981306_);fill:#FFFFFF;" d="M32.69,124.64
				c0,0-4.35-0.72-5.46-0.72c-1.58,0-3.11,1.58-1.96,3.35s2.73,2.39,3.83,2.87c1.1,0.48,4.36,1.48,4.36,1.48L32.69,124.64z"/>
			<path style="clip-path:url(#SVGID_00000114793310179219155990000003734866577946981306_);fill:#13110C;" d="M27.24,124.1
				c-0.82,0-1.61,0.45-1.97,1.12c-0.32,0.6-0.27,1.29,0.16,1.95c1.07,1.64,2.53,2.28,3.6,2.74l0.15,0.07
				c0.9,0.39,3.27,1.14,4.07,1.39l-0.72-6.58C31.78,124.67,28.2,124.1,27.24,124.1 M33.67,131.88l-0.26-0.08
				c-0.13-0.04-3.28-1.01-4.38-1.49l-0.15-0.07c-1.11-0.48-2.63-1.14-3.76-2.88c-0.5-0.78-0.57-1.6-0.18-2.32
				c0.43-0.79,1.35-1.31,2.29-1.31c1.11,0,5.31,0.69,5.49,0.72l0.14,0.02L33.67,131.88z"/>
			<path style="clip-path:url(#SVGID_00000114793310179219155990000003734866577946981306_);fill:#13110C;" d="M27.24,124.1
				c-0.82,0-1.61,0.45-1.97,1.12c-0.32,0.59-0.27,1.29,0.16,1.95c1.07,1.64,2.53,2.28,3.6,2.74l0.15,0.07
				c0.9,0.39,3.27,1.14,4.07,1.39l-0.72-6.58C31.78,124.67,28.2,124.1,27.24,124.1 M33.46,131.81l-0.05-0.01
				c-0.13-0.04-3.28-1.01-4.38-1.49l-0.15-0.07c-1.11-0.48-2.63-1.14-3.76-2.87c-0.5-0.78-0.57-1.6-0.18-2.32
				c0.43-0.79,1.35-1.31,2.29-1.31c1.11,0,5.31,0.69,5.49,0.72l0.15,0.16l0.77,6.99l-0.06,0.16L33.46,131.81z"/>
		</g>
		<g>
			<path class="st2" d="M44.43,120.7h-0.02c-0.13-0.01-3.15-0.25-4.17-0.63c-1.01-0.39-2.19-1.18-2.24-1.22l-0.05-0.25l0.25-0.05
				c0.01,0.01,1.19,0.81,2.16,1.18c0.97,0.37,4.04,0.61,4.07,0.61l0.17,0.2L44.43,120.7z"/>
		</g>
		<g>
			<defs>
				<rect id="SVGID_00000141437196418744694720000008464699406692830349_" x="1.6" y="13.39" width="77.22" height="115.6"/>
			</defs>
			<clipPath id="SVGID_00000060019720968275759210000011144448801041290370_">
				<use xlink:href="#SVGID_00000141437196418744694720000008464699406692830349_"  style="overflow:visible;"/>
			</clipPath>
			<path style="clip-path:url(#SVGID_00000060019720968275759210000011144448801041290370_);fill:#13110C;" d="M51.51,123.76
				l-0.06-0.01c-0.65-0.23-6.38-2.29-6.93-2.98c-0.54-0.68-1.09-2.07-1.04-3.9c0.05-1.72-0.16-2.74-0.16-2.75l0.14-0.22l0.21,0.14
				c0.01,0.04,0.22,1.06,0.17,2.83c-0.05,1.74,0.47,3.03,0.97,3.67c0.36,0.46,4.34,2,6.76,2.86l0.11,0.23L51.51,123.76z"/>
			<path style="clip-path:url(#SVGID_00000060019720968275759210000011144448801041290370_);fill:#13110C;" d="M55.82,129.41
				l-0.14-0.07c-0.03-0.04-2.89-3.52-3.84-4.84c-0.94-1.32-1.22-3.57-0.65-5.24c0.53-1.55,1.76-2.84,1.81-2.89l0.26-0.01l0,0.26
				c-0.01,0.01-1.22,1.28-1.73,2.76c-0.54,1.57-0.28,3.68,0.6,4.91c0.94,1.32,3.79,4.79,3.82,4.83l-0.03,0.26L55.82,129.41z"/>
			<path style="clip-path:url(#SVGID_00000060019720968275759210000011144448801041290370_);fill:#13110C;" d="M55.1,136.45
				l-0.08-0.02c-0.09-0.05-2.32-1.21-3.34-3.59c-1.01-2.35-1.02-7.05-1.02-7.25l0.18-0.18l0.18,0.18c0,0.05,0.01,4.83,0.99,7.11
				c0.75,1.74,2.22,2.82,2.86,3.22c-0.12-1.09-0.37-4.31,0.64-6.3c1.21-2.37,3.8-3.76,3.91-3.81l0.25,0.08l-0.08,0.25
				c-0.03,0.01-2.6,1.39-3.75,3.66c-1.16,2.27-0.56,6.41-0.56,6.45l-0.07,0.17L55.1,136.45z"/>
		</g>
		<g>
			<path class="st4" d="M50.99,120.65H44.6V97.29h-12.7v23.35h-6.4c0,0-0.01,0.4-0.01,0.89c0,0.49,0.21,0.89,1.7,0.89h22.1
				c1.5,0,1.7-0.4,1.7-0.89C51.01,121.05,50.99,120.65,50.99,120.65"/>
		</g>
		<g>
			<defs>
				<rect id="SVGID_00000079472705126316070530000017368888660237090694_" x="1.6" y="13.39" width="77.22" height="115.6"/>
			</defs>
			<clipPath id="SVGID_00000105390242358848614700000015584010985680354460_">
				<use xlink:href="#SVGID_00000079472705126316070530000017368888660237090694_"  style="overflow:visible;"/>
			</clipPath>
			<path style="clip-path:url(#SVGID_00000105390242358848614700000015584010985680354460_);fill:#13110C;" d="M25.69,120.83
				c0,0.16-0.01,0.42-0.01,0.71c0,0.3,0,0.71,1.52,0.71h22.1c1.52,0,1.52-0.41,1.52-0.71c0-0.29,0-0.55-0.01-0.71h-6.39V97.47H32.09
				v23.35H25.69z M49.31,122.61H27.2c-1.34,0-1.89-0.31-1.89-1.07c0-0.49,0.01-0.9,0.01-0.9l0-0.18h6.39V97.11h13.06v23.35h6.38
				l0.01,0.17c0,0,0.02,0.4,0.02,0.9C51.19,122.3,50.64,122.61,49.31,122.61"/>
			<path style="clip-path:url(#SVGID_00000105390242358848614700000015584010985680354460_);fill:#FFFFFF;" d="M37.99,44.13
				c-0.16,0.24-5.35,4.64-6.85,6.06c-1.5,1.42-5.04,5.35-5.98,6.53c-0.94,1.18-4.37,3.99-6.81,4.93c-2.44,0.94-7.49,2.7-8.99,4.27
				C7.86,67.5-3,80.54-3,80.54l-7.87-41.8L24.45,22.4c0,0,15.35,13.54,15.59,13.78C40.27,36.42,37.99,44.13,37.99,44.13"/>
			<path style="clip-path:url(#SVGID_00000105390242358848614700000015584010985680354460_);fill:#1F1F1C;" d="M-10.66,38.84
				l7.77,41.28C-1.26,78.17,7.87,67.23,9.23,65.8c1.32-1.39,5.32-2.9,7.96-3.9c0.4-0.15,0.77-0.29,1.1-0.42
				c2.41-0.93,5.81-3.72,6.74-4.88c1-1.25,4.52-5.16,6-6.55c0.78-0.74,2.55-2.28,4.11-3.63c1.24-1.08,2.52-2.19,2.7-2.38
				c0.81-2.75,2.06-7.19,2.05-7.77c-0.68-0.62-10.27-9.08-15.45-13.66L-10.66,38.84z M-3.11,80.95l-0.07-0.38l-7.89-41.94l0.13-0.06
				l35.43-16.38l0.09,0.08c0.63,0.55,15.36,13.55,15.59,13.78c0.09,0.1,0.31,0.31-2,8.13l-0.02,0.05c-0.08,0.12-0.83,0.77-2.78,2.47
				c-1.55,1.36-3.32,2.89-4.1,3.62c-1.46,1.39-4.97,5.28-5.96,6.52c-0.95,1.18-4.42,4.04-6.89,4.99c-0.32,0.13-0.7,0.27-1.1,0.42
				c-2.61,0.99-6.56,2.48-7.82,3.81C8.02,67.6-2.75,80.52-2.86,80.65L-3.11,80.95z"/>
		</g>
		<g>
			<path class="st8" d="M20.59,34.01c0,0-2.36,3.66-1.89,6.26c0.47,2.6,7.44,9.21,7.44,9.21"/>
			<path class="st9" d="M26.14,49.66l-0.12-0.05c-0.29-0.27-7.02-6.68-7.49-9.31c-0.48-2.64,1.82-6.24,1.92-6.39l0.25-0.05
				l0.05,0.25c-0.02,0.03-2.32,3.63-1.86,6.12c0.46,2.51,7.32,9.04,7.38,9.11l0.01,0.26L26.14,49.66z"/>
			<path class="st9" d="M10.38,51.85l-0.09-0.02l-0.07-0.25c0.04-0.07,3.59-6.5,4.05-9.51c0.46-3.02,0.7-10.47,0.71-10.54l0.19-0.18
				l0.18,0.19c0,0.07-0.24,7.54-0.71,10.59c-0.47,3.07-3.95,9.36-4.1,9.63L10.38,51.85z"/>
		</g>
		<g>
			<defs>
				<rect id="SVGID_00000021103089032242596330000014386329688952708488_" x="1.6" y="13.39" width="77.22" height="115.6"/>
			</defs>
			<clipPath id="SVGID_00000019670434113840820490000017379630475383426961_">
				<use xlink:href="#SVGID_00000021103089032242596330000014386329688952708488_"  style="overflow:visible;"/>
			</clipPath>
			<path style="clip-path:url(#SVGID_00000019670434113840820490000017379630475383426961_);fill:#1F1F1C;" d="M18.65,48.78
				L18.5,48.7c-0.12-0.16-2.9-4.03-3.25-4.62c-0.34-0.57-0.92-2.25-0.79-3.77l0.2-0.17l0.17,0.2c-0.12,1.42,0.43,3.04,0.74,3.55
				c0.35,0.58,3.21,4.55,3.24,4.59l-0.04,0.26L18.65,48.78z"/>
			<path style="clip-path:url(#SVGID_00000019670434113840820490000017379630475383426961_);fill:#AC7FB6;" d="M52.02-5.81v34.51
				c0,0.55-0.45,1.36-0.88,1.83l-3.96,4.29c-0.33,0.36-0.58,0.64-0.66,0.74c0.02,0.15,0.02,0.42,0.02,0.91v1.1H29.98v-1.1
				c0-0.5,0-0.77,0.02-0.91c-0.08-0.1-0.32-0.36-0.66-0.74l-3.96-4.29c-0.43-0.47-0.88-1.28-0.88-1.83V-5.81
				c0-0.6,0.68-1.09,1.51-1.09H50.5C51.34-6.89,52.02-6.41,52.02-5.81"/>
			<path style="clip-path:url(#SVGID_00000019670434113840820490000017379630475383426961_);fill:#1F1F1C;" d="M30.16,37.41h16.19
				v-0.92c0-0.49,0-0.76-0.02-0.89l-0.01-0.08l0.05-0.06c0.08-0.1,0.34-0.38,0.67-0.75L51,30.41c0.4-0.43,0.83-1.21,0.83-1.71V-5.81
				c0-0.49-0.61-0.9-1.33-0.9H26.01c-0.72,0-1.33,0.41-1.33,0.9v34.51c0,0.5,0.43,1.27,0.83,1.71l3.96,4.3
				c0.35,0.38,0.59,0.65,0.67,0.75l0.05,0.06l-0.01,0.08c-0.02,0.14-0.02,0.41-0.02,0.89V37.41z M46.71,37.77H29.8v-1.29
				c0-0.44,0-0.69,0.01-0.85c-0.11-0.12-0.32-0.36-0.61-0.68l-3.96-4.29c-0.45-0.49-0.93-1.34-0.93-1.95V-5.81
				c0-0.7,0.76-1.27,1.7-1.27H50.5c0.94,0,1.7,0.57,1.7,1.27v34.51c0,0.61-0.48,1.46-0.93,1.95l-3.95,4.29
				c-0.28,0.3-0.5,0.55-0.61,0.68c0.01,0.16,0.01,0.42,0.01,0.85V37.77z"/>
		</g>
		<g>
			<path class="st8" d="M24.94,107.28v-0.74c0.08-0.31,0.45-0.58,0.82-0.6l2.27-0.04c1.12-0.12,1.83-1.27,2.67-1.87l-0.02-49.81
				c0-0.29,0.28-0.51,0.43-0.62c0.92-0.7,1.72-1.15,2.8-1.44c0.42-0.1,1.27-0.33,1.3-0.68l0.05-0.38c-0.57-0.37-0.62-0.34,0-0.77
				l-0.05-1.52c0.12-0.58,0.57-1.11,0.9-1.11h4.25c0.38,0.02,0.82,0.82,0.85,1.07v1.61c0.6,0.43,0.6,0.28,0,0.73v0.48
				c0.03,0.23,0.35,0.31,1.15,0.56c1.22,0.35,2.42,0.95,3.1,1.46c0.2,0.14,0.43,0.31,0.43,0.54l0.05,49.94
				c0.46,0.6,0.89,1.78,1.82,1.85l3,0.04c0.6,0,0.8,0.45,0.82,0.74v0.58H24.94z"/>
			<path class="st2" d="M25.12,107.1h26.26v-0.39c-0.01-0.08-0.08-0.56-0.64-0.56l-3-0.04c-0.81-0.06-1.27-0.82-1.64-1.43
				c-0.11-0.18-0.22-0.36-0.32-0.49l-0.04-0.05v-0.06l-0.05-49.94c0-0.14-0.19-0.28-0.35-0.39c-0.71-0.54-1.93-1.12-3.04-1.43
				l-0.17-0.05c-0.76-0.23-1.07-0.33-1.11-0.66l0-0.59l0.07-0.06l0.24-0.17l0.07-0.05l-0.07-0.05l-0.24-0.16l-0.07-0.05v-1.7
				c-0.02-0.19-0.44-0.88-0.68-0.89h-4.23c-0.21,0-0.61,0.43-0.72,0.97l0.06,1.58l-0.08,0.05c-0.13,0.09-0.27,0.19-0.34,0.25
				l0.22,0.15l0.21,0.14l-0.07,0.5c-0.02,0.34-0.45,0.59-1.44,0.83c-0.97,0.26-1.74,0.65-2.73,1.41c-0.11,0.08-0.35,0.27-0.35,0.47
				l0.03,49.91l-0.08,0.06c-0.26,0.18-0.5,0.42-0.76,0.67c-0.58,0.56-1.17,1.14-2,1.23l-2.29,0.04c-0.29,0.02-0.6,0.23-0.65,0.46
				L25.12,107.1z M51.75,107.47H24.76l0-0.92c0.1-0.43,0.53-0.75,1-0.78l2.28-0.04c0.68-0.08,1.24-0.61,1.77-1.13
				c0.23-0.23,0.48-0.46,0.73-0.65L30.5,54.22c0-0.37,0.32-0.64,0.5-0.77c1.03-0.78,1.83-1.19,2.85-1.47
				c1.12-0.27,1.16-0.49,1.16-0.52l0.04-0.28l-0.02-0.01c-0.27-0.17-0.42-0.27-0.42-0.45c-0.01-0.17,0.13-0.28,0.45-0.5l-0.05-1.43
				c0.13-0.64,0.62-1.3,1.08-1.3h4.24c0.53,0.03,1,0.96,1.03,1.23v1.53l0.15,0.1c0.18,0.12,0.3,0.2,0.3,0.34
				c0,0.15-0.11,0.22-0.29,0.36l-0.16,0.11v0.39c0.01,0.07,0.38,0.19,0.85,0.33l0.17,0.05c1.17,0.33,2.4,0.92,3.15,1.49
				c0.21,0.15,0.5,0.36,0.5,0.68l0.05,49.88c0.1,0.14,0.2,0.3,0.31,0.48c0.35,0.57,0.74,1.21,1.35,1.25l2.99,0.04
				c0.64,0,0.96,0.46,1,0.91V107.47z"/>
			<path class="st12" d="M40.34,47.88h-4.24c-0.2,0-0.61,0.43-0.72,0.97l0.06,1.58l-0.08,0.06c-0.13,0.09-0.27,0.19-0.34,0.25
				l0.22,0.15l0.21,0.13l-0.06,0.5c-0.02,0.34-0.45,0.59-1.44,0.83c-0.97,0.26-1.73,0.66-2.73,1.41c-0.11,0.08-0.35,0.27-0.35,0.47
				l0,8.06H45.7l-0.01-8.14c0-0.14-0.19-0.28-0.35-0.39c-0.71-0.54-1.93-1.12-3.04-1.44l-0.17-0.05c-0.76-0.23-1.07-0.33-1.11-0.66
				l0-0.59l0.07-0.05l0.24-0.17l0.07-0.05l-0.07-0.05l-0.24-0.16l-0.07-0.06v-1.7C41,48.57,40.58,47.89,40.34,47.88"/>
			<path class="st2" d="M40.32,47.7h-4.25c-0.32,0-0.77,0.54-0.9,1.11l0.05,1.52c-0.62,0.43-0.57,0.4,0,0.77l-0.05,0.38
				c-0.03,0.35-0.88,0.58-1.3,0.68c-1.07,0.29-1.87,0.74-2.8,1.44c-0.15,0.1-0.42,0.33-0.42,0.62l0,8.06h0.21l0-8.06
				c0-0.21,0.24-0.4,0.35-0.47c1-0.75,1.76-1.15,2.73-1.41c0.98-0.24,1.41-0.49,1.44-0.83l0.06-0.5l-0.21-0.13l-0.22-0.15
				c0.07-0.06,0.21-0.16,0.34-0.25l0.08-0.06l-0.06-1.58c0.12-0.53,0.52-0.97,0.72-0.97h4.24c0.24,0.01,0.66,0.7,0.68,0.89v1.7
				l0.07,0.05l0.24,0.16l0.07,0.05l-0.07,0.05l-0.24,0.17l-0.07,0.05l0,0.59c0.03,0.33,0.35,0.43,1.11,0.66l0.17,0.05
				c1.11,0.32,2.33,0.89,3.04,1.44c0.16,0.11,0.35,0.25,0.35,0.39l0.01,8.14h0.15l-0.01-8.14c0-0.22-0.22-0.39-0.42-0.54
				c-0.67-0.51-1.87-1.11-3.1-1.46c-0.8-0.25-1.12-0.33-1.15-0.56V51.1c0.6-0.45,0.6-0.3,0-0.73v-1.61
				C41.15,48.52,40.7,47.72,40.32,47.7"/>
			<rect x="31.2" y="62.43" class="st4" width="14.11" height="44.8"/>
			<path class="st9" d="M31.38,107.05h13.75V62.61H31.38V107.05z M45.49,107.42H31.02V62.25h14.48V107.42z"/>
			<polygon class="st2" points="34.92,50.54 34.73,50.72 34.92,50.9 41.59,50.9 41.78,50.72 41.59,50.54 			"/>
			<polygon class="st2" points="35.23,51.55 35.05,51.73 35.23,51.91 41.28,51.91 41.46,51.73 41.28,51.55 			"/>
			<path class="st2" d="M41.22,49.56H35.3c-0.14,0-0.26-0.11-0.26-0.26c0-0.14,0.12-0.25,0.26-0.25h5.92c0.14,0,0.25,0.12,0.25,0.25
				C41.47,49.44,41.36,49.56,41.22,49.56"/>
			<polygon class="st2" points="30.69,53.99 30.5,54.18 30.69,54.36 45.82,54.36 46.01,54.18 45.82,53.99 			"/>
			<polygon class="st2" points="38.29,75.91 38.29,76.22 38.89,76.22 39.07,76.37 38.29,76.85 38.29,77.21 39.27,76.59 39.99,77.18 
				39.99,76.79 39.39,76.35 39.21,76.23 39.21,76.22 39.99,76.22 39.99,75.91 			"/>
			<path class="st2" d="M38.89,78.01c0.01-0.22-0.04-0.43-0.23-0.43l-0.18,0.17L38.65,78l0.07,0.01H38.89z M38.29,78.05l0.14-0.02
				v-0.01c-0.1-0.08-0.16-0.2-0.16-0.36c0-0.25,0.18-0.38,0.36-0.38c0.31,0,0.47,0.27,0.46,0.73h0.02c0.08,0,0.21-0.03,0.21-0.25
				l-0.09-0.33l0.2-0.06c0.05,0.09,0.11,0.25,0.11,0.44c0,0.39-0.25,0.51-0.52,0.51h-0.44l-0.29,0.02V78.05z"/>
			<path class="st2" d="M39.15,78.65c0.14,0,0.26,0,0.37-0.01v0.27l-0.19,0.01v0.01c0.1,0.05,0.21,0.19,0.21,0.39
				c0,0.21-0.14,0.44-0.52,0.44h-0.73v-0.31h0.69c0.18,0,0.31-0.07,0.31-0.23l-0.18-0.24l-0.1-0.01h-0.72v-0.31H39.15z"/>
			<path class="st2" d="M38.8,80.39l-0.07,0.01c-0.12,0.03-0.22,0.14-0.22,0.27c0,0.19,0.16,0.31,0.4,0.31
				c0.22,0,0.39-0.1,0.39-0.31c0-0.12-0.09-0.24-0.23-0.27l-0.08-0.01H38.8z M38.29,80.08l0.35,0.01h1.44v0.31h-0.73v0
				c0.12,0.08,0.2,0.21,0.2,0.39c0,0.3-0.25,0.51-0.62,0.51c-0.44,0-0.66-0.28-0.66-0.56c0-0.16,0.06-0.3,0.21-0.39v0l-0.18-0.02
				V80.08z"/>
			<path class="st2" d="M38.29,81.87h1.22v-0.31h-1.22V81.87z M39.69,81.71l0.17,0.18l0.17-0.17l-0.17-0.17L39.69,81.71z"/>
			<path class="st2" d="M38.58,82.19l-0.09,0.31c0,0.13,0.05,0.2,0.13,0.2c0.08,0,0.12-0.05,0.18-0.2c0.08-0.24,0.21-0.34,0.36-0.34
				c0.21,0,0.38,0.18,0.38,0.46c0,0.14-0.04,0.25-0.07,0.32l-0.22-0.06l0.07-0.26l-0.13-0.17c-0.08,0-0.12,0.06-0.17,0.21
				C38.94,82.89,38.83,83,38.65,83c-0.22,0-0.38-0.17-0.38-0.5c0-0.15,0.04-0.28,0.09-0.37L38.58,82.19z"/>
			<path class="st2" d="M39.61,83.59v0.04l0.05,0.08l0.05-0.08l0-0.05H39.61z M39.38,83.58v-0.11h0.41l0.01,0.17l-0.03,0.15
				l-0.09,0.05l-0.09-0.09h-0.01l-0.1,0.08l-0.1,0.03v-0.12l0.09-0.03l0.06-0.07v-0.04H39.38z M39.59,83.33
				c-0.18,0-0.33,0.14-0.33,0.32c0,0.18,0.15,0.32,0.33,0.32c0.18,0,0.33-0.13,0.33-0.32C39.92,83.46,39.77,83.33,39.59,83.33
				 M39.59,84.08c-0.24,0-0.43-0.19-0.43-0.44c0-0.24,0.19-0.44,0.43-0.44c0.23,0,0.42,0.2,0.42,0.44
				C40.01,83.89,39.83,84.08,39.59,84.08"/>
			<path class="st2" d="M36.05,75.21c-0.04-0.07-0.07-0.22-0.07-0.41c0-0.44,0.28-0.76,0.78-0.76c0.48,0,0.81,0.33,0.81,0.81
				c0,0.19-0.04,0.31-0.07,0.37l-0.16-0.05l0.06-0.31c0-0.36-0.23-0.6-0.63-0.6c-0.38,0-0.62,0.22-0.62,0.59l0.06,0.32L36.05,75.21z
				"/>
			<path class="st2" d="M36.57,76.03c0.01-0.22-0.03-0.47-0.25-0.47l-0.19,0.19c0,0.14,0.09,0.24,0.19,0.27l0.06,0.01H36.57z
				 M36,76.06l0.14-0.02v-0.01c-0.09-0.06-0.16-0.18-0.16-0.34c0-0.22,0.16-0.34,0.32-0.34c0.27,0,0.42,0.24,0.41,0.67h0.03
				c0.09,0,0.26-0.03,0.26-0.25l-0.08-0.29l0.13-0.05c0.06,0.09,0.1,0.22,0.1,0.36c0,0.34-0.23,0.42-0.45,0.42h-0.41L36,76.24V76.06
				z"/>
			<path class="st2" d="M36.81,76.55l0.3-0.01v0.18l-0.18,0.01v0c0.11,0.05,0.21,0.18,0.21,0.37c0,0.15-0.09,0.39-0.47,0.39H36v-0.2
				h0.64c0.18,0,0.33-0.07,0.33-0.26c0-0.13-0.09-0.24-0.21-0.27l-0.09-0.01H36v-0.2H36.81z"/>
			<path class="st2" d="M36.81,77.82l0.3-0.01v0.18L36.93,78v0c0.11,0.05,0.21,0.18,0.21,0.37c0,0.15-0.09,0.39-0.47,0.39H36v-0.2
				h0.64c0.18,0,0.33-0.07,0.33-0.26c0-0.13-0.09-0.24-0.21-0.27l-0.09-0.01H36v-0.2H36.81z"/>
			<path class="st2" d="M36.57,79.68c0.01-0.22-0.03-0.47-0.25-0.47l-0.19,0.19c0,0.14,0.09,0.23,0.19,0.27l0.06,0.01H36.57z
				 M36,79.71l0.14-0.02v-0.01c-0.09-0.06-0.16-0.18-0.16-0.34c0-0.22,0.16-0.34,0.32-0.34c0.27,0,0.42,0.24,0.41,0.67h0.03
				c0.09,0,0.26-0.02,0.26-0.25l-0.08-0.29l0.13-0.04c0.06,0.09,0.1,0.22,0.1,0.36c0,0.34-0.23,0.42-0.45,0.42h-0.41L36,79.89V79.71
				z"/>
			<path class="st2" d="M36.44,80.4l-0.07,0.01c-0.14,0.04-0.24,0.16-0.24,0.3c0,0.21,0.17,0.34,0.43,0.34
				c0.22,0,0.41-0.12,0.41-0.33c0-0.14-0.09-0.27-0.25-0.31l-0.08-0.01H36.44z M36,80.19l0.29,0.01h1.34v0.2h-0.7v0
				c0.12,0.07,0.21,0.2,0.21,0.38c0,0.27-0.23,0.47-0.57,0.47c-0.4,0-0.59-0.25-0.59-0.5c0-0.16,0.06-0.29,0.21-0.37v-0.01L36,80.36
				V80.19z"/>
			<path class="st2" d="M36,81.7h1.11v-0.2H36V81.7z M37.3,81.6l0.12,0.13l0.12-0.12l-0.12-0.13L37.3,81.6z"/>
			<path class="st2" d="M36.66,82.79l0.08-0.01c0.13-0.03,0.23-0.14,0.23-0.29c0-0.21-0.18-0.33-0.43-0.33
				c-0.23,0-0.41,0.11-0.41,0.33c0,0.13,0.09,0.26,0.24,0.29l0.09,0.01H36.66z M37.63,82.99h-1.34L36,83v-0.18l0.19-0.01v0
				c-0.12-0.06-0.22-0.2-0.22-0.38c0-0.27,0.22-0.47,0.56-0.47c0.37,0,0.6,0.23,0.6,0.5c0,0.17-0.08,0.28-0.17,0.33v0.01h0.66V82.99
				z"/>
			<path class="st2" d="M36,83.53h1.11v-0.2H36V83.53z M37.3,83.42l0.12,0.13l0.12-0.12l-0.12-0.12L37.3,83.42z"/>
			<path class="st2" d="M36.55,83.99c-0.24,0-0.43,0.14-0.43,0.34c0,0.19,0.18,0.34,0.43,0.34c0.19,0,0.42-0.09,0.42-0.33
				C36.98,84.09,36.76,83.99,36.55,83.99 M36.56,84.87c-0.41,0-0.59-0.28-0.59-0.55c0-0.3,0.22-0.53,0.57-0.53
				c0.37,0,0.59,0.24,0.59,0.55C37.13,84.65,36.9,84.87,36.56,84.87"/>
			<rect x="36" y="85.12" class="st2" width="1.63" height="0.2"/>
			<polygon class="st2" points="35.27,56.94 35.02,57.08 35.06,57.22 35.24,57.12 35.25,57.12 35.25,58.06 35.43,58.06 35.43,56.94 
							"/>
			<polygon class="st2" points="34.37,58.44 34.12,58.58 34.16,58.72 34.35,58.62 34.35,58.62 34.35,59.56 34.53,59.56 34.53,58.44 
							"/>
			<path class="st2" d="M34.67,59.78l0.11-0.43l0.2-0.02c-0.05,0.15-0.12,0.34-0.18,0.44L34.67,59.78z"/>
			<path class="st2" d="M35.54,58.6h-0.3l-0.04,0.25l0.04,0l0.21,0.08l0.1,0.26c0,0.22-0.14,0.39-0.37,0.39l-0.2-0.05l0.03-0.15
				l0.16,0.04c0.11,0,0.2-0.08,0.2-0.22c0-0.16-0.11-0.22-0.25-0.22l-0.09,0.01l0.07-0.54h0.43V58.6z"/>
			<path class="st2" d="M34.08,62.88v-0.12l0.11-0.13c0.14-0.19,0.27-0.36,0.27-0.55l-0.15-0.17l-0.17,0.06l-0.04-0.14l0.23-0.07
				c0.22,0,0.3,0.15,0.3,0.32c0,0.21-0.13,0.39-0.27,0.56l-0.07,0.09v0h0.36v0.16H34.08z"/>
			<path class="st2" d="M34.67,63.09l0.11-0.43l0.2-0.02c-0.05,0.15-0.12,0.33-0.18,0.44L34.67,63.09z"/>
			<path class="st2" d="M35.54,61.92h-0.3l-0.04,0.24l0.04,0l0.21,0.08l0.1,0.25c0,0.22-0.14,0.39-0.37,0.39l-0.2-0.05l0.03-0.15
				l0.16,0.04c0.11,0,0.2-0.08,0.2-0.22c0-0.16-0.11-0.22-0.25-0.22l-0.09,0l0.07-0.54h0.43V61.92z"/>
			<path class="st2" d="M34.11,66.1l0.16,0.04l0.18-0.19c0-0.13-0.1-0.2-0.22-0.2h-0.03v-0.13h0.02l0.2-0.17l-0.14-0.15l-0.14,0.05
				l-0.03-0.14l0.22-0.06c0.18,0,0.27,0.12,0.27,0.27l-0.16,0.25v0c0.11,0.03,0.2,0.13,0.2,0.29c0,0.18-0.13,0.33-0.35,0.33
				l-0.21-0.05L34.11,66.1z"/>
			<path class="st2" d="M34.67,66.5l0.11-0.43l0.2-0.02c-0.05,0.15-0.12,0.33-0.18,0.44L34.67,66.5z"/>
			<path class="st2" d="M35.54,65.33h-0.3l-0.04,0.25l0.04,0l0.21,0.08l0.1,0.26c0,0.22-0.14,0.39-0.37,0.39l-0.2-0.05l0.03-0.15
				l0.16,0.04c0.11,0,0.2-0.08,0.2-0.22c0-0.16-0.11-0.22-0.25-0.22l-0.09,0l0.07-0.54h0.43V65.33z"/>
			<path class="st2" d="M34.22,69.21l0.13-0.27l0.09-0.19h0l-0.01,0.2v0.27L34.22,69.21L34.22,69.21z M34.42,68.53l-0.37,0.71v0.12
				h0.38v0.29h0.16v-0.29h0.12v-0.15H34.6v-0.69H34.42z"/>
			<path class="st2" d="M34.67,69.86l0.11-0.43l0.2-0.02c-0.05,0.15-0.12,0.33-0.18,0.44L34.67,69.86z"/>
			<path class="st2" d="M35.54,68.69h-0.3l-0.04,0.25l0.04,0l0.21,0.08l0.1,0.26c0,0.22-0.14,0.39-0.37,0.39l-0.2-0.05l0.03-0.15
				l0.16,0.04c0.11,0,0.2-0.08,0.2-0.22c0-0.16-0.11-0.22-0.25-0.22l-0.09,0.01l0.07-0.54h0.43V68.69z"/>
			<path class="st2" d="M34.97,61.34v-0.12l0.1-0.13c0.14-0.19,0.28-0.36,0.28-0.55l-0.15-0.17l-0.17,0.06L35,60.28l0.23-0.07
				c0.22,0,0.3,0.15,0.3,0.32c0,0.21-0.13,0.39-0.27,0.56l-0.07,0.09v0h0.36v0.16H34.97z"/>
			<path class="st2" d="M35.01,64.48l0.16,0.04l0.18-0.19c0-0.13-0.1-0.2-0.22-0.2H35.1V64h0.03l0.19-0.17l-0.14-0.15l-0.14,0.05
				l-0.03-0.14l0.22-0.06c0.18,0,0.27,0.12,0.27,0.27l-0.16,0.25v0c0.11,0.03,0.2,0.13,0.2,0.29c0,0.18-0.13,0.33-0.35,0.33
				l-0.21-0.05L35.01,64.48z"/>
			<path class="st2" d="M35.06,67.59l0.14-0.27l0.09-0.19h0l-0.01,0.2v0.27L35.06,67.59L35.06,67.59z M35.26,66.91l-0.37,0.71v0.12
				h0.38v0.29h0.16v-0.29h0.12V67.6h-0.12v-0.69H35.26z"/>
			<path class="st2" d="M35.54,70.46h-0.3l-0.04,0.24h0.04l0.21,0.08l0.1,0.26c0,0.22-0.14,0.39-0.37,0.39l-0.2-0.05l0.03-0.15
				l0.16,0.04c0.11,0,0.2-0.08,0.2-0.22c0-0.16-0.11-0.22-0.25-0.22l-0.09,0l0.07-0.54h0.43V70.46z"/>
			<path class="st2" d="M34.26,55.58c0,0.27,0.04,0.42,0.13,0.42c0.08,0,0.12-0.16,0.12-0.42c0-0.25-0.03-0.42-0.12-0.42
				C34.3,55.16,34.26,55.32,34.26,55.58 M34.69,55.58c0,0.4-0.14,0.58-0.31,0.58c-0.21,0-0.3-0.25-0.3-0.57
				c0-0.35,0.11-0.58,0.32-0.58C34.62,55.01,34.69,55.27,34.69,55.58"/>
			<path class="st2" d="M34.67,56.35l0.11-0.43l0.2-0.02c-0.05,0.15-0.12,0.33-0.18,0.44L34.67,56.35z"/>
			<path class="st2" d="M35.54,55.18h-0.3l-0.04,0.25l0.04,0l0.21,0.08l0.1,0.25c0,0.22-0.14,0.39-0.37,0.39l-0.2-0.05l0.03-0.15
				L35.17,56c0.11,0,0.2-0.08,0.2-0.22c0-0.16-0.11-0.22-0.25-0.22l-0.09,0l0.07-0.54h0.43V55.18z"/>
			<polygon class="st2" points="36.39,57.32 36.21,57.5 36.39,57.68 42.49,57.68 42.67,57.5 42.49,57.32 			"/>
			<polygon class="st2" points="36.39,60.59 36.21,60.77 36.39,60.95 42.49,60.95 42.67,60.77 42.49,60.59 			"/>
			<polygon class="st2" points="36.39,63.92 36.21,64.1 36.39,64.28 42.49,64.28 42.67,64.1 42.49,63.92 			"/>
			<polygon class="st2" points="36.39,67.29 36.21,67.47 36.39,67.66 42.49,67.66 42.67,67.47 42.49,67.29 			"/>
			<polygon class="st2" points="36.39,70.69 36.21,70.87 36.39,71.05 42.49,71.05 42.67,70.87 42.49,70.69 			"/>
			<polygon class="st2" points="36.39,54.69 36.21,54.87 36.39,55.05 39.43,55.05 39.61,54.87 39.43,54.69 			"/>
			<polygon class="st2" points="36.39,56.4 36.21,56.59 36.39,56.77 39.43,56.77 39.61,56.59 39.43,56.4 			"/>
			<polygon class="st2" points="36.39,58.14 36.21,58.32 36.39,58.5 39.43,58.5 39.61,58.32 39.43,58.14 			"/>
			<polygon class="st2" points="36.39,61.44 36.21,61.63 36.39,61.81 39.43,61.81 39.61,61.63 39.43,61.44 			"/>
			<polygon class="st2" points="36.39,63.08 36.21,63.26 36.39,63.44 39.43,63.44 39.61,63.26 39.43,63.08 			"/>
			<polygon class="st2" points="36.39,64.78 36.21,64.96 36.39,65.14 39.43,65.14 39.61,64.96 39.43,64.78 			"/>
			<polygon class="st2" points="36.39,66.47 36.21,66.65 36.39,66.83 39.43,66.83 39.61,66.65 39.43,66.47 			"/>
			<polygon class="st2" points="36.39,68.15 36.21,68.33 36.39,68.51 39.43,68.51 39.61,68.33 39.43,68.15 			"/>
			<polygon class="st2" points="36.39,69.85 36.21,70.04 36.39,70.22 39.43,70.22 39.61,70.04 39.43,69.85 			"/>
			<polygon class="st2" points="36.39,59.77 36.21,59.95 36.39,60.13 39.43,60.13 39.61,59.95 39.43,59.77 			"/>
			<polygon class="st2" points="36.39,55.5 36.21,55.68 36.39,55.86 40.56,55.86 40.74,55.68 40.56,55.5 			"/>
			<polygon class="st2" points="36.39,55.5 36.21,55.68 36.39,55.86 40.56,55.86 40.74,55.68 40.56,55.5 			"/>
			<polygon class="st2" points="36.39,58.93 36.21,59.11 36.39,59.29 40.56,59.29 40.74,59.11 40.56,58.93 			"/>
			<polygon class="st2" points="36.39,62.24 36.21,62.42 36.39,62.6 40.56,62.6 40.74,62.42 40.56,62.24 			"/>
			<polygon class="st2" points="36.39,65.65 36.21,65.83 36.39,66.01 40.56,66.01 40.74,65.83 40.56,65.65 			"/>
			<polygon class="st2" points="36.39,69.02 36.21,69.2 36.39,69.38 40.56,69.38 40.74,69.2 40.56,69.02 			"/>
			<path class="st2" d="M36.38,88.33h-1.84l-0.17,0.82c0.05-0.22,0.27-0.41,0.49-0.41h1.43l0.25-0.21L36.38,88.33z M35.78,89.15
				h-1.41l-0.17,0.82c0.05-0.23,0.27-0.41,0.49-0.41h1.01l0.25-0.21L35.78,89.15z M36.03,89.96h-1.84l-0.17,0.82
				c0.04-0.21,0.27-0.41,0.49-0.41h1.43l0.25-0.2L36.03,89.96z"/>
			<polygon class="st2" points="38.6,88.33 38.17,90.37 38.48,90.37 38.92,88.33 			"/>
			<path class="st2" d="M41.32,89.76c-0.14,0.22-0.31,0.33-0.5,0.33l-0.13-0.05c-0.06-0.07-0.06-0.2-0.02-0.4
				c0.07-0.34,0.25-0.51,0.55-0.51l0.23,0.02L41.32,89.76z M41.78,88.92c-0.14-0.04-0.31-0.06-0.51-0.06c-0.5,0-0.81,0.26-0.92,0.77
				c-0.06,0.29-0.04,0.49,0.05,0.61c0.07,0.09,0.18,0.13,0.32,0.13c0.2,0,0.37-0.09,0.52-0.27l-0.04,0.27h0.28l0.31-1.44
				L41.78,88.92z"/>
			<polygon class="st2" points="37.27,88.59 38.31,88.59 38.36,88.33 37.01,88.33 36.57,90.37 37.95,90.37 38.01,90.1 36.94,90.1 
				37.08,89.47 38.07,89.47 38.13,89.2 37.14,89.2 			"/>
			<path class="st2" d="M39.95,89.29c-0.03,0.11-0.12,0.17-0.28,0.17h-0.43c0.08-0.23,0.23-0.34,0.46-0.34l0.23,0.06L39.95,89.29z
				 M39.76,88.86c-0.46,0-0.75,0.25-0.85,0.73c-0.06,0.27-0.03,0.47,0.07,0.6c0.09,0.12,0.25,0.17,0.46,0.17
				c0.22,0,0.41-0.06,0.57-0.19l0.01-0.01l0.06-0.29l-0.06,0.05c-0.15,0.12-0.33,0.17-0.53,0.17l-0.26-0.09l-0.04-0.29h0.44
				c0.36,0,0.57-0.14,0.63-0.42L40.22,89C40.14,88.91,39.98,88.86,39.76,88.86"/>
			<path class="st8" d="M31.72,45.07h13.06v3.04c0,0-0.2,0.43-6.39,0.43c-6.2,0-6.67-0.43-6.67-0.43V45.07z"/>
			<path class="st2" d="M31.91,47.99c0.26,0.08,1.51,0.36,6.49,0.36c4.83,0,5.96-0.26,6.21-0.35v-2.75h-12.7V47.99z M38.39,48.71
				c-4.62,0-6.54-0.24-6.79-0.47l-0.06-0.05v-3.3h13.43l-0.02,3.3C44.75,48.62,41.27,48.71,38.39,48.71"/>
			<path class="st8" d="M30.81,47.71c0,0,1.3,0.32,7.53,0.32s7.35-0.32,7.35-0.32v1.6c0,0-0.22,0.28-7.29,0.28
				c-7.06,0-7.6-0.28-7.6-0.28V47.71z"/>
			<path class="st2" d="M30.99,49.17c0.35,0.06,1.83,0.24,7.42,0.24c5.42,0,6.78-0.17,7.1-0.23v-1.25
				c-0.56,0.09-2.34,0.28-7.17,0.28c-4.92,0-6.77-0.2-7.35-0.29V49.17z M38.41,49.78c-6.91,0-7.62-0.27-7.68-0.3l-0.1-0.16v-1.6
				l0.07-0.14l0.16-0.04c0.01,0,1.39,0.32,7.49,0.32c6.08,0,7.26-0.3,7.31-0.32l0.16,0.03l0.07,0.14v1.6l-0.04,0.11
				C45.61,49.72,41.68,49.78,38.41,49.78"/>
			<path class="st8" d="M46.37,44.32c0,0-1.42,0.45-8.21,0.45c-6.79,0-8.02-0.45-8.02-0.45v2.22c0,0,0.24,0.4,7.94,0.4
				c7.7,0,8.29-0.4,8.29-0.4V44.32z"/>
			<path class="st2" d="M30.32,46.42c0.31,0.09,1.7,0.33,7.76,0.33c6.17,0,7.74-0.25,8.11-0.34v-1.86c-0.62,0.12-2.64,0.4-8.03,0.4
				c-5.3,0-7.23-0.27-7.84-0.4V46.42z M38.08,47.11c-2.91,0-7.84-0.06-8.1-0.48l-0.03-0.04v-2.54l0.25,0.09
				c0.05,0.02,1.33,0.44,7.96,0.44c6.64,0,8.14-0.43,8.16-0.44l0.23-0.07l0,2.57l-0.08,0.05C46.37,46.76,45.46,47.11,38.08,47.11"/>
			<path class="st2" d="M30.14,46.54L30.14,46.54L30.14,46.54z M30.32,46.42c0.31,0.09,1.7,0.33,7.76,0.33
				c6.17,0,7.74-0.25,8.11-0.34v-1.86c-0.62,0.12-2.64,0.4-8.03,0.4c-5.3,0-7.23-0.27-7.84-0.4V46.42z M38.08,47.11
				c-2.91,0-7.84-0.06-8.1-0.48l-0.03-0.1v-2.22l0.08-0.15l0.17-0.02c0.05,0.02,1.33,0.44,7.96,0.44c6.64,0,8.14-0.43,8.16-0.44
				l0.16,0.03l0.07,0.15v2.22l-0.08,0.15C46.37,46.76,45.46,47.11,38.08,47.11"/>
			<path class="st13" d="M30.14,35.6l0,0.11v1.44h0.01l0-0.18L30.14,35.6L30.14,35.6z M46.37,35.6v1.37v0.18h0.01L46.37,35.6
				L46.37,35.6z"/>
			<rect x="29.99" y="37.82" class="st8" width="16.53" height="7.72"/>
			<path class="st2" d="M30.17,45.36h16.16v-7.35H30.17V45.36z M46.7,45.72H29.81v-8.08H46.7V45.72z"/>
			<path class="st2" d="M30.17,45.36h16.16v-7.35H30.17V45.36z M46.7,45.72H29.81v-8.08H46.7V45.72z"/>
			<path class="st8" d="M46.59,41.24H29.92c-0.26,0-0.47,0.21-0.47,0.47c0,0.26,0.21,0.47,0.47,0.47h16.67
				c0.26,0,0.47-0.21,0.47-0.47C47.06,41.45,46.85,41.24,46.59,41.24"/>
			<path class="st2" d="M29.92,41.42c-0.16,0-0.29,0.13-0.29,0.29c0,0.16,0.13,0.29,0.29,0.29h16.67c0.16,0,0.29-0.13,0.29-0.29
				c0-0.16-0.13-0.29-0.29-0.29H29.92z M46.59,42.37H29.92c-0.36,0-0.65-0.29-0.65-0.65c0-0.36,0.29-0.65,0.65-0.65h16.67
				c0.36,0,0.65,0.29,0.65,0.65C47.24,42.07,46.95,42.37,46.59,42.37"/>
			<path class="st2" d="M29.92,41.42c-0.16,0-0.29,0.13-0.29,0.29c0,0.16,0.13,0.29,0.29,0.29h16.67c0.16,0,0.29-0.13,0.29-0.29
				c0-0.16-0.13-0.29-0.29-0.29H29.92z M46.59,42.37H29.92c-0.36,0-0.65-0.29-0.65-0.65c0-0.36,0.29-0.65,0.65-0.65h16.67
				c0.36,0,0.65,0.29,0.65,0.65C47.24,42.07,46.95,42.37,46.59,42.37"/>
			<path class="st8" d="M46.5,38.89l-16.53,0.7c-0.29,0.01-0.52,0.23-0.51,0.49c0.01,0.26,0.26,0.46,0.56,0.45l16.53-0.7
				c0.29-0.01,0.52-0.24,0.51-0.49C47.04,39.08,46.79,38.88,46.5,38.89"/>
			<path class="st2" d="M46.5,39.07l-16.53,0.7l-0.26,0.12l-0.07,0.19c0.01,0.15,0.17,0.28,0.35,0.28h0.02l16.53-0.7l0.26-0.12
				l0.07-0.19c-0.01-0.15-0.17-0.28-0.35-0.28L46.5,39.07z M29.99,40.71c-0.38,0-0.69-0.27-0.71-0.62
				c-0.01-0.17,0.05-0.33,0.16-0.45c0.13-0.14,0.32-0.23,0.51-0.24l16.53-0.7c0.41-0.01,0.73,0.26,0.75,0.62
				c0.01,0.16-0.05,0.32-0.17,0.45c-0.13,0.14-0.31,0.23-0.51,0.24l-16.53,0.7H29.99z"/>
			<path class="st8" d="M46.5,42.64l-16.53,0.7c-0.29,0.01-0.52,0.24-0.51,0.49c0.01,0.26,0.26,0.46,0.56,0.45l16.53-0.7
				c0.29-0.01,0.52-0.24,0.51-0.5C47.04,42.83,46.79,42.63,46.5,42.64"/>
			<path class="st2" d="M46.5,42.82l-16.53,0.7l-0.26,0.11l-0.07,0.19c0.01,0.16,0.2,0.28,0.37,0.28l16.53-0.7l0.26-0.12l0.07-0.19
				c-0.01-0.15-0.17-0.28-0.35-0.28H46.5z M29.99,44.47c-0.38,0-0.7-0.27-0.71-0.62c-0.01-0.17,0.05-0.33,0.16-0.45
				c0.13-0.14,0.32-0.23,0.51-0.23l16.53-0.7h0.03c0.38,0,0.7,0.27,0.71,0.62c0.01,0.16-0.05,0.32-0.17,0.45
				c-0.13,0.14-0.31,0.23-0.51,0.24l-16.53,0.7H29.99z"/>
			<path class="st2" d="M46.5,42.82l-16.53,0.7l-0.26,0.11l-0.07,0.19c0.01,0.16,0.2,0.28,0.37,0.28l16.53-0.7l0.26-0.12l0.07-0.19
				c-0.01-0.15-0.17-0.28-0.35-0.28H46.5z M29.99,44.47c-0.38,0-0.7-0.27-0.71-0.62c-0.01-0.17,0.05-0.33,0.16-0.45
				c0.13-0.14,0.32-0.23,0.51-0.23l16.53-0.7h0.03c0.38,0,0.7,0.27,0.71,0.62c0.01,0.16-0.05,0.32-0.17,0.45
				c-0.13,0.14-0.31,0.23-0.51,0.24l-16.53,0.7H29.99z"/>
			<path class="st8" d="M46.55,37.33H29.96c-0.28,0-0.51,0.23-0.51,0.51v0.32c0,0.28,0.23,0.51,0.51,0.51h16.59
				c0.28,0,0.51-0.23,0.51-0.51v-0.32C47.06,37.56,46.83,37.33,46.55,37.33"/>
			<path class="st2" d="M29.96,37.51c-0.18,0-0.33,0.15-0.33,0.33v0.32c0,0.18,0.15,0.33,0.33,0.33h16.59
				c0.18,0,0.33-0.15,0.33-0.33v-0.32c0-0.18-0.15-0.33-0.33-0.33H29.96z M46.55,38.86H29.96c-0.38,0-0.69-0.31-0.69-0.69v-0.32
				c0-0.38,0.31-0.69,0.69-0.69h16.59c0.38,0,0.69,0.31,0.69,0.69v0.32C47.24,38.55,46.93,38.86,46.55,38.86"/>
			<path class="st8" d="M46.59,44.99H29.92c-0.26,0-0.47,0.21-0.47,0.47c0,0.26,0.21,0.47,0.47,0.47h16.67
				c0.26,0,0.47-0.21,0.47-0.47C47.06,45.21,46.85,44.99,46.59,44.99"/>
			<path class="st2" d="M29.92,45.18c-0.16,0-0.29,0.13-0.29,0.29c0,0.16,0.13,0.29,0.29,0.29h16.67c0.16,0,0.29-0.13,0.29-0.29
				c0-0.16-0.13-0.29-0.29-0.29H29.92z M46.59,46.12H29.92c-0.36,0-0.65-0.29-0.65-0.65c0-0.36,0.29-0.65,0.65-0.65h16.67
				c0.36,0,0.65,0.29,0.65,0.65C47.24,45.83,46.95,46.12,46.59,46.12"/>
		</g>
		<g>
			<defs>
				<rect id="SVGID_00000042716467658531273060000013402347113837319850_" x="1.6" y="13.39" width="77.22" height="115.6"/>
			</defs>
			<clipPath id="SVGID_00000116196438362079244850000009341990551659473555_">
				<use xlink:href="#SVGID_00000042716467658531273060000013402347113837319850_"  style="overflow:visible;"/>
			</clipPath>
			<path style="clip-path:url(#SVGID_00000116196438362079244850000009341990551659473555_);fill:#13110C;" d="M29.92,45.18
				c-0.16,0-0.29,0.13-0.29,0.29c0,0.16,0.13,0.29,0.29,0.29h16.67c0.16,0,0.29-0.13,0.29-0.29c0-0.16-0.13-0.29-0.29-0.29H29.92z
				 M46.59,46.12H29.92c-0.36,0-0.65-0.29-0.65-0.65c0-0.36,0.29-0.65,0.65-0.65h16.67c0.36,0,0.65,0.29,0.65,0.65
				C47.24,45.83,46.95,46.12,46.59,46.12"/>
			<path style="clip-path:url(#SVGID_00000116196438362079244850000009341990551659473555_);fill:#FFFFFF;" d="M48.11,137.09
				c0,0-0.19-5.17-3.35-9.29c-3.16-4.12-9.43-7.28-10.96-7.37c-1.53-0.1-3.59,1.82-4.36,2.68c-0.77,0.86-0.48,2.2,0.38,5.36
				c0.86,3.16,2.57,6.78,3.53,8.31C34.31,138.31,48.11,137.09,48.11,137.09"/>
			<path style="clip-path:url(#SVGID_00000116196438362079244850000009341990551659473555_);fill:#13110C;" d="M33.68,120.6
				c-1.4,0-3.29,1.7-4.11,2.62c-0.69,0.78-0.44,2.04,0.42,5.2c0.88,3.2,2.61,6.82,3.51,8.26c0.65,1.04,9.1,0.7,14.41,0.24
				c-0.07-0.93-0.54-5.41-3.3-9.01c-3.18-4.15-9.46-7.22-10.83-7.3L33.68,120.6z M38.81,137.73c-2.78,0-5.2-0.2-5.61-0.86
				c-0.91-1.46-2.67-5.12-3.56-8.36c-0.83-3.06-1.2-4.57-0.34-5.53c0.1-0.12,2.58-2.87,4.5-2.74c1.69,0.11,7.96,3.35,11.1,7.44
				c3.16,4.12,3.39,9.34,3.39,9.4l-0.17,0.19C47.3,137.34,42.7,137.73,38.81,137.73"/>
			<path style="clip-path:url(#SVGID_00000116196438362079244850000009341990551659473555_);fill:#FFFFFF;" d="M33.79,120.42
				c0,0,1.32,0.76,2.15,1.92c1.1,1.53,2.2,4.07,2.2,4.07s-1.96,1.05-3.06,1.82c-1.1,0.77-2.35,2.01-2.35,2.01s-1.72-2.25-2.39-3.54
				c-0.67-1.29-1.29-2.78-1.29-2.78"/>
			<path style="clip-path:url(#SVGID_00000116196438362079244850000009341990551659473555_);fill:#13110C;" d="M32.74,130.42h-0.01
				l-0.13-0.07c-0.07-0.09-1.74-2.28-2.41-3.57c-0.67-1.29-1.29-2.78-1.3-2.79l0.1-0.24l0.24,0.1c0,0.01,0.63,1.49,1.29,2.76
				c0.55,1.07,1.85,2.81,2.25,3.35c0.36-0.35,1.33-1.27,2.22-1.88c0.92-0.64,2.45-1.49,2.94-1.75c-0.26-0.57-1.19-2.6-2.12-3.88
				c-0.8-1.11-2.08-1.86-2.1-1.87l-0.07-0.25l0.25-0.07c0.06,0.03,1.37,0.79,2.21,1.97c1.1,1.53,2.18,4,2.22,4.1l-0.08,0.23
				c-0.02,0.01-1.97,1.06-3.05,1.81c-1.08,0.75-2.31,1.98-2.32,1.99L32.74,130.42z"/>
		</g>
		<g>
			<polygon class="st16" points="46.33,35.54 30.18,35.54 30.18,35.59 30.17,35.6 46.34,35.6 46.34,35.59 			"/>
			<path class="st17" d="M46.37,35.54h-0.04l0.01,0.06v0.01h0.04V35.54z M30.18,35.54h-0.04v0.06h0.03v-0.01L30.18,35.54z"/>
			<path class="st16" d="M46.34,35.6H30.17c-0.01,0.14-0.01,0.4-0.01,0.89v0.66h16.19v-0.66C46.35,36,46.35,35.74,46.34,35.6"/>
			<path class="st17" d="M46.37,35.6h-0.03c0.02,0.14,0.02,0.4,0.02,0.89v0.66h0.02v-0.18V35.6z M30.17,35.6h-0.03v1.37l0,0.18h0.01
				v-0.66C30.16,36,30.16,35.74,30.17,35.6"/>
			<polygon class="st2" points="46.35,37.15 30.16,37.15 30.15,37.15 30.15,37.16 46.37,37.16 46.37,37.15 			"/>
			<rect x="24.62" y="13.38" class="st8" width="27.23" height="8.55"/>
			<polygon class="st2" points="43.47,20.27 43.18,20.27 43.18,19.16 43.17,19.16 42.99,19.41 42.28,20.27 41.91,20.27 42.75,19.29 
				41.85,17.97 42.2,17.97 42.96,19.1 43.18,18.85 43.18,17.97 43.47,17.97 			"/>
			<path class="st2" d="M40.76,18.81c0.33,0.01,0.7-0.05,0.7-0.37c0-0.19-0.13-0.29-0.28-0.29c-0.22,0-0.35,0.14-0.4,0.28l-0.02,0.1
				V18.81z M40.71,17.97l0.02,0.21h0.01c0.09-0.13,0.27-0.25,0.51-0.25c0.33,0,0.51,0.24,0.51,0.48c0,0.4-0.36,0.62-1,0.62v0.04
				c0,0.14,0.04,0.38,0.38,0.38c0.16,0,0.32-0.05,0.43-0.12l0.07,0.2c-0.14,0.09-0.34,0.15-0.54,0.15c-0.51,0-0.63-0.35-0.63-0.68
				v-0.62c0-0.14-0.01-0.29-0.03-0.4H40.71z"/>
			<path class="st2" d="M39.98,19.17c0,0.17,0,0.31,0.01,0.45h-0.27l-0.02-0.27H39.7c-0.08,0.16-0.27,0.31-0.55,0.31
				c-0.23,0-0.58-0.14-0.58-0.71v-0.99h0.3v0.95c0,0.27,0.1,0.49,0.38,0.49c0.2,0,0.35-0.14,0.4-0.31l0.02-0.14v-0.99h0.3V19.17z"/>
			<path class="st2" d="M37.78,18.63l-0.01-0.11c-0.06-0.21-0.23-0.35-0.45-0.35c-0.31,0-0.5,0.26-0.5,0.64
				c0,0.33,0.17,0.62,0.49,0.62c0.21,0,0.4-0.14,0.46-0.37l0.02-0.12V18.63z M38.09,17.97c-0.01,0.11-0.01,0.28-0.01,0.43v2h-0.3
				v-1.04h-0.01c-0.11,0.18-0.3,0.31-0.57,0.31c-0.41,0-0.7-0.34-0.7-0.85c0-0.59,0.37-0.89,0.74-0.89c0.24,0,0.43,0.09,0.55,0.31
				h0.01l0.01-0.27H38.09z"/>
			<path class="st2" d="M35.8,20.09l0.18,0.19l0.19-0.19l-0.18-0.18L35.8,20.09z M35.83,19.62h0.3v-1.66h-0.3V19.62z"/>
			<path class="st2" d="M35.37,18.27c-0.09-0.06-0.25-0.12-0.4-0.12c-0.22,0-0.32,0.11-0.32,0.25c0,0.14,0.08,0.22,0.31,0.3
				c0.3,0.11,0.44,0.27,0.44,0.47c0,0.27-0.21,0.49-0.57,0.49c-0.17,0-0.31-0.05-0.41-0.1l0.07-0.22c0.07,0.04,0.19,0.09,0.34,0.09
				c0.18,0,0.28-0.1,0.28-0.23c0-0.14-0.1-0.2-0.32-0.28c-0.29-0.11-0.43-0.25-0.43-0.5c0-0.29,0.23-0.5,0.62-0.5
				c0.18,0,0.35,0.04,0.47,0.11L35.37,18.27z"/>
			<path class="st2" d="M33.59,19.77h-0.06l-0.13,0.08l0.12,0.08l0.07-0.01V19.77z M33.6,19.46h0.13v0.56l-0.21,0.02l-0.2-0.04
				l-0.05-0.12l0.12-0.13v-0.01l-0.1-0.14l-0.04-0.14h0.14l0.04,0.14l0.12,0.09h0.06V19.46z M33.94,19.75
				c0-0.25-0.18-0.45-0.44-0.45c-0.25,0-0.43,0.2-0.43,0.44c0,0.25,0.18,0.45,0.43,0.45S33.94,20,33.94,19.75 M32.93,19.75
				c0-0.32,0.25-0.57,0.58-0.57c0.32,0,0.58,0.25,0.58,0.57c0,0.31-0.26,0.56-0.58,0.56C33.18,20.31,32.93,20.06,32.93,19.75"/>
			<path class="st2" d="M44.46,14.9c0.1-0.05,0.29-0.1,0.53-0.1c0.57,0,0.99,0.38,0.99,1.07c0,0.66-0.43,1.11-1.05,1.11
				c-0.25,0-0.41-0.06-0.48-0.09l0.06-0.22c0.1,0.05,0.24,0.09,0.4,0.09c0.47,0,0.79-0.32,0.79-0.87c0-0.52-0.28-0.85-0.77-0.85
				c-0.16,0-0.32,0.04-0.42,0.09L44.46,14.9z"/>
			<path class="st2" d="M43.38,15.6c0.29,0.01,0.61-0.05,0.61-0.34c0-0.18-0.12-0.26-0.25-0.26c-0.19,0-0.31,0.13-0.35,0.25
				l-0.02,0.09V15.6z M43.35,14.83l0.02,0.19h0.01c0.08-0.12,0.23-0.23,0.44-0.23c0.29,0,0.44,0.22,0.44,0.44
				c0,0.37-0.31,0.57-0.87,0.56v0.03c0,0.13,0.03,0.35,0.33,0.35c0.13,0,0.27-0.04,0.38-0.11l0.06,0.18
				c-0.12,0.08-0.29,0.13-0.48,0.13c-0.44,0-0.55-0.32-0.55-0.62v-0.57c0-0.13-0.01-0.26-0.02-0.36H43.35z"/>
			<path class="st2" d="M42.71,15.94c0,0.16,0,0.29,0.01,0.41h-0.23l-0.02-0.25h-0.01c-0.07,0.14-0.24,0.29-0.47,0.29
				c-0.2,0-0.51-0.12-0.51-0.65v-0.91h0.26v0.88c0,0.24,0.09,0.45,0.33,0.45c0.17,0,0.31-0.13,0.35-0.28l0.02-0.13v-0.91h0.26V15.94
				z"/>
			<path class="st2" d="M41.05,15.94c0,0.16,0,0.29,0.01,0.41h-0.23l-0.02-0.25h-0.01c-0.07,0.14-0.24,0.29-0.47,0.29
				c-0.2,0-0.51-0.12-0.51-0.65v-0.91h0.26v0.88c0,0.24,0.09,0.45,0.34,0.45c0.17,0,0.31-0.13,0.35-0.28l0.02-0.13v-0.91h0.26V15.94
				z"/>
			<path class="st2" d="M38.64,15.6c0.29,0.01,0.61-0.05,0.61-0.34c0-0.18-0.11-0.26-0.25-0.26c-0.19,0-0.31,0.13-0.35,0.25
				l-0.01,0.09V15.6z M38.6,14.83l0.02,0.19h0.01c0.08-0.12,0.24-0.23,0.44-0.23c0.29,0,0.44,0.22,0.44,0.44
				c0,0.37-0.31,0.57-0.87,0.56v0.03c0,0.13,0.03,0.35,0.33,0.35c0.13,0,0.27-0.04,0.38-0.11l0.06,0.18
				c-0.12,0.08-0.29,0.13-0.47,0.13c-0.44,0-0.55-0.32-0.55-0.62v-0.57c0-0.13,0-0.26-0.02-0.36H38.6z"/>
			<path class="st2" d="M37.7,15.44l-0.01-0.1c-0.05-0.19-0.2-0.32-0.39-0.32c-0.27,0-0.44,0.24-0.44,0.58
				c0,0.3,0.15,0.56,0.43,0.56c0.18,0,0.35-0.13,0.4-0.34l0.01-0.11V15.44z M37.97,14.83c-0.01,0.1-0.01,0.26-0.01,0.39v1.84H37.7
				V16.1H37.7c-0.09,0.17-0.26,0.28-0.49,0.28c-0.36,0-0.61-0.31-0.61-0.77c0-0.54,0.32-0.81,0.65-0.81c0.21,0,0.38,0.08,0.48,0.29
				h0.01l0.01-0.25H37.97z"/>
			<path class="st2" d="M35.97,16.77l0.16,0.17l0.16-0.17l-0.16-0.17L35.97,16.77z M36,16.35h0.26v-1.52H36V16.35z"/>
			<path class="st2" d="M34.59,15.73l0.01,0.12c0.04,0.18,0.18,0.32,0.38,0.32c0.27,0,0.43-0.25,0.43-0.59
				c0-0.31-0.14-0.56-0.43-0.56c-0.18,0-0.34,0.12-0.38,0.33l-0.01,0.12V15.73z M34.32,17.06v-1.84c0-0.13,0-0.29-0.01-0.39h0.23
				l0.01,0.26h0.01c0.08-0.17,0.26-0.3,0.49-0.3c0.35,0,0.62,0.31,0.62,0.77c0,0.5-0.29,0.82-0.65,0.82c-0.22,0-0.37-0.11-0.44-0.23
				h0v0.91H34.32z"/>
			<path class="st2" d="M33.6,16.77l0.16,0.17l0.16-0.17l-0.16-0.17L33.6,16.77z M33.62,16.35h0.26v-1.52h-0.26V16.35z"/>
			<path class="st2" d="M33.03,15.58c0-0.33-0.18-0.58-0.44-0.58c-0.25,0-0.44,0.25-0.44,0.59c0,0.26,0.12,0.58,0.43,0.58
				C32.89,16.18,33.03,15.87,33.03,15.58 M31.88,15.6c0-0.56,0.37-0.81,0.72-0.81c0.39,0,0.69,0.3,0.69,0.78
				c0,0.51-0.32,0.81-0.72,0.81C32.17,16.38,31.88,16.06,31.88,15.6"/>
			<rect x="31.29" y="14.83" class="st2" width="0.26" height="2.23"/>
			<polygon class="st2" points="44.51,13.38 44.36,13.47 44.35,13.47 44.35,13.38 44.1,13.38 44.1,13.73 44.32,13.73 44.75,13.49 
				44.72,13.38 			"/>
		</g>
		<g>
			<defs>
				<rect id="SVGID_00000121978879108596810600000014009350888982756246_" x="1.6" y="13.39" width="77.22" height="115.6"/>
			</defs>
			<clipPath id="SVGID_00000098932697083574863070000012326299755294169745_">
				<use xlink:href="#SVGID_00000121978879108596810600000014009350888982756246_"  style="overflow:visible;"/>
			</clipPath>
			<path style="clip-path:url(#SVGID_00000098932697083574863070000012326299755294169745_);fill:#13110C;" d="M43.16,12.7
				c0-0.53-0.15-0.83-0.39-0.83c-0.27,0-0.4,0.33-0.4,0.85c0,0.5,0.12,0.83,0.39,0.83C42.99,13.55,43.16,13.26,43.16,12.7
				 M42.1,12.73c0-0.69,0.24-1.08,0.67-1.08c0.38,0,0.63,0.37,0.64,1.05c0,0.68-0.28,1.06-0.68,1.06
				C42.34,13.77,42.1,13.38,42.1,12.73"/>
			<path style="clip-path:url(#SVGID_00000098932697083574863070000012326299755294169745_);fill:#13110C;" d="M41.63,12.7
				c0-0.53-0.15-0.83-0.39-0.83c-0.27,0-0.4,0.33-0.4,0.85c0,0.5,0.12,0.83,0.4,0.83C41.46,13.55,41.63,13.26,41.63,12.7
				 M40.57,12.73c0-0.69,0.24-1.08,0.67-1.08c0.38,0,0.64,0.37,0.64,1.05c0,0.68-0.28,1.06-0.68,1.06
				C40.81,13.77,40.57,13.38,40.57,12.73"/>
		</g>
		<g>
			<polygon class="st2" points="34.82,13.38 34.65,13.84 34.85,13.84 35.02,13.38 			"/>
			<rect x="31.69" y="13.38" class="st2" width="0.26" height="0.54"/>
		</g>
		<g>
			<defs>
				<rect id="SVGID_00000081628897235927747260000013613347003753427093_" x="1.6" y="13.39" width="77.22" height="115.6"/>
			</defs>
			<clipPath id="SVGID_00000096032390104873843750000014162220909985724561_">
				<use xlink:href="#SVGID_00000081628897235927747260000013613347003753427093_"  style="overflow:visible;"/>
			</clipPath>
			<path style="clip-path:url(#SVGID_00000096032390104873843750000014162220909985724561_);fill:#FFFFFF;" d="M20.63,3.75
				c0,0-1.28,2.87-1.47,6.26c-0.13,2.3-0.06,3.32-0.06,3.32s-2.94,2.11-4.66,4.02c-1.72,1.92-6.06,4.6-6.06,4.6v16.09
				c0,0,1.72-0.96,4.98-3.45c3.26-2.49,9.77-7.66,12.07-10.92c2.3-3.26,4.21-6.89,3.83-10.92c-0.38-4.02-2.85-6.28-4.15-7.4
				C23.24,3.75,20.63,3.75,20.63,3.75"/>
			<path style="clip-path:url(#SVGID_00000096032390104873843750000014162220909985724561_);fill:#FFFFFF;" d="M20.63,3.75
				c0,0-1.28,2.87-1.47,6.26c-0.13,2.3-0.06,3.32-0.06,3.32s-2.94,2.11-4.66,4.02c-1.72,1.92-14.29,8.12-14.29,8.12L0.01,45.66
				c0,0,10.08-8.58,13.34-11.07c3.26-2.49,9.77-7.66,12.07-10.92c2.3-3.26,4.21-6.89,3.83-10.92c-0.38-4.02-2.85-6.28-4.15-7.4
				C23.24,3.75,20.63,3.75,20.63,3.75"/>
			<path style="clip-path:url(#SVGID_00000096032390104873843750000014162220909985724561_);fill:#222220;" d="M0.33,25.58
				L0.2,45.27c1.71-1.45,10.14-8.6,13.04-10.82c3.53-2.7,9.79-7.7,12.03-10.88c1.98-2.8,4.2-6.57,3.8-10.79
				c-0.39-4.1-2.98-6.33-4.09-7.29c-1.56-1.34-3.71-1.52-4.23-1.55c-0.23,0.56-1.24,3.14-1.41,6.08c-0.13,2.26-0.06,3.29-0.06,3.3
				l0.01,0.1l-0.08,0.06c-0.03,0.02-2.94,2.12-4.63,3.99C12.9,19.32,1.6,24.95,0.33,25.58 M-0.17,46.06l0.14-20.7l0.1-0.05
				c0.12-0.06,12.55-6.21,14.23-8.08c1.56-1.73,4.12-3.63,4.61-3.99c-0.01-0.31-0.04-1.33,0.07-3.24c0.19-3.38,1.47-6.29,1.49-6.32
				l0.05-0.11h0.12c0.11,0,2.71,0.02,4.59,1.64c1.14,0.98,3.81,3.28,4.21,7.53c0.41,4.35-1.85,8.18-3.86,11.04
				c-2.27,3.21-8.56,8.24-12.1,10.96C10.24,37.19,0.23,45.72,0.13,45.8L-0.17,46.06z"/>
			<path style="clip-path:url(#SVGID_00000096032390104873843750000014162220909985724561_);fill:#FFFFFF;" d="M19.09,13.39
				c0,0,1.85,1.28,2.81,0.13c0.96-1.15,1.02-1.4,1.79-3.19c0.99-2.32,1.53-5.43,1.41-4.98"/>
			<path style="clip-path:url(#SVGID_00000096032390104873843750000014162220909985724561_);fill:#222220;" d="M20.14,14.74
				c-0.96,0-1.81-0.52-1.86-0.55l0.19-0.31c0.01,0.01,1.13,0.69,2.14,0.44c0.47-0.12,0.85-0.41,1.13-0.89
				c0.24-0.41,0.43-0.7,0.6-0.96c0.38-0.58,0.65-1,1.18-2.22c0.88-2.05,1.4-4.74,1.41-4.95l0.05,0L24.92,5.3l0.15-0.17l0.18,0.06
				l0.02,0.19h0h0c-0.04,0.76-0.77,3.53-1.42,5.02c-0.54,1.24-0.83,1.7-1.21,2.27c-0.17,0.26-0.36,0.54-0.59,0.94
				c-0.33,0.56-0.79,0.92-1.36,1.06C20.51,14.72,20.33,14.74,20.14,14.74"/>
		</g>
		<g>
			<path class="st2" d="M1.86,128.73h76.71V13.64H1.86V128.73z M79.08,129.24H1.35V13.13h77.73V129.24z"/>
			<path class="st2" d="M36.67,52.78L36.67,52.78L36.67,52.78z M38.15,52.85l-0.19-0.18l0.17-0.18h0.02l0.18,0.18L38.15,52.85z
				 M38.89,52.87l-0.2-0.18l0.23-0.18l0.15,0.21L38.89,52.87z M37.39,52.88l-0.18-0.16l0.16-0.21l0.22,0.18L37.39,52.88z
				 M39.63,52.94l-0.03,0l-0.16-0.21l0.2-0.15l0.02,0l0.15,0.21L39.63,52.94z M36.71,52.96l-0.04-0.18l-0.02-0.18l0.21,0.15
				L36.71,52.96z M40.36,53.06l-0.06-0.01l-0.15-0.2l0.21-0.15l0.05,0.01l0.12,0.23L40.36,53.06z M35.94,53.1l-0.18-0.16l0.16-0.21
				l0.03,0.18l-0.03-0.18l0.22,0.12l-0.12,0.23L35.94,53.1z M35.22,53.11L35.22,53.11L35.22,53.11z M41.08,53.24l-0.06-0.01
				L40.89,53l0.22-0.12l0.02,0.01l0.12,0.23L41.08,53.24z M35.3,53.27l-0.07-0.17l-0.04-0.18l0.23,0.12L35.3,53.27z M34.52,53.34
				L34.52,53.34L34.52,53.34z M41.78,53.47l-0.07-0.01l-0.1-0.24l0.22-0.11l0.03,0.01l0.1,0.24L41.78,53.47z M34.61,53.51
				l-0.08-0.16l-0.05-0.17l0.23,0.1L34.61,53.51z M42.47,53.74l-0.05-0.01l-0.04-0.02l-0.08-0.24l0.25-0.08l-0.08,0.16l0.08-0.16
				l0.12,0.22L42.47,53.74z M33.85,53.81l-0.17-0.1l0.08-0.24l0.01-0.01l0.24,0.08l-0.08,0.24L33.85,53.81z M43.13,54.07l-0.1-0.03
				l-0.08-0.24l0.25-0.08l0.03,0.02l0.05,0.25L43.13,54.07z M33.21,54.14l-0.17-0.09l0.06-0.23l0.08,0.16L33.1,53.8l0.25,0.05
				l-0.05,0.26L33.21,54.14z M43.77,54.44l-0.09-0.03l0.08-0.16l0.1-0.15l-0.1,0.15l0.11-0.15l0.06,0.25L43.77,54.44z M32.56,54.53
				l-0.15-0.08l0.05-0.25l0.02-0.01l0.25,0.06l-0.06,0.25L32.56,54.53z M44.37,54.86l-0.1-0.03l0.09-0.16l0.12-0.14l-0.12,0.14
				l0.12-0.14l0.04,0.25L44.37,54.86z M31.96,54.95l-0.15-0.07l0.03-0.25l0.02-0.02l0.25,0.05l-0.05,0.25L31.96,54.95z M44.96,55.32
				l-0.12-0.04l-0.03-0.26l0.25-0.03L45.08,55l0.02,0.26L44.96,55.32z M31.39,55.41l-0.14-0.06l0.02-0.24l0.11,0.14l-0.11-0.14
				l0.25,0.02l0,0.25L31.39,55.41z M45.5,55.82l-0.11-0.04l-0.01-0.27l0.25-0.01l-0.13,0.13l0.13-0.13l0.01,0.25L45.5,55.82z
				 M30.84,55.92l-0.12-0.05l-0.01-0.25l0.13,0.13l-0.13-0.13l0.25-0.01l0.03,0.25L30.84,55.92z M46.01,56.35l-0.12-0.05l-0.01-0.26
				l0.25-0.01l0.01,0.01l-0.01,0.26L46.01,56.35z M30.34,56.47l-0.11-0.04l-0.03-0.25l0.01-0.01l0.26-0.02l0.02,0.26L30.34,56.47z
				 M29.88,56.88L29.88,56.88L29.88,56.88z M46.48,56.93l-0.15-0.08l0.04-0.25l0.25,0.03l0.02,0.03l-0.05,0.25L46.48,56.93z
				 M30.04,56.97l-0.16-0.09l-0.14-0.12l0.25-0.04L30.04,56.97z M29.46,57.49L29.46,57.49L29.46,57.49z M46.91,57.53l-0.16-0.09
				l0.05-0.25l0.24,0.05l0.02,0.02l-0.06,0.25L46.91,57.53z M29.63,57.57l-0.16-0.08l-0.15-0.11l0.25-0.06L29.63,57.57z M47.3,58.17
				l-0.16-0.08l0.07-0.26l0.24,0.06l-0.16,0.08l0.16-0.08l-0.05,0.25L47.3,58.17z M29.09,58.31l-0.08-0.02l-0.08-0.25l0.02-0.03
				l0.25-0.05l0.05,0.25L29.09,58.31z M47.63,58.82l-0.16-0.1l0.08-0.25l0.24,0.08l0.01,0.01l-0.08,0.25L47.63,58.82z M28.76,58.97
				l-0.08-0.02l-0.08-0.25l0.16,0.08l-0.16-0.08l0.22-0.12l0.12,0.23l-0.02,0.05L28.76,58.97z M47.92,59.49l-0.16-0.11l0.16-0.09
				l0.17-0.06l-0.17,0.06l0.17-0.05l-0.1,0.23L47.92,59.49z M28.48,59.65l-0.06-0.01l-0.11-0.22l0.01-0.03l0.24-0.09l0.09,0.24
				L28.48,59.65z M48.16,60.2l-0.17-0.12L48.16,60l0.17-0.05L48.16,60l0.18-0.04l-0.12,0.23L48.16,60.2z M28.25,60.35l-0.05-0.01
				l-0.12-0.22l0.01-0.02l0.23-0.12l0.11,0.23L28.25,60.35z M48.35,60.91l-0.18-0.15l0.12-0.22l0.22,0.13l0.01,0.03l-0.15,0.21
				L48.35,60.91z M28.08,61.09l-0.03,0l-0.15-0.21l0.01-0.05l0.23-0.12l0.11,0.23L28.08,61.09z M48.49,61.64l-0.18-0.15l0.36-0.07
				l-0.18,0.02l0.18-0.01l-0.15,0.21L48.49,61.64z M27.95,61.8l-0.03,0l-0.15-0.2l0-0.02l0.21-0.15l0.15,0.21L27.95,61.8z
				 M48.58,62.37l-0.18-0.18l0.16-0.2l0.21,0.16l0,0.04L48.58,62.37z M27.87,62.55l-0.18-0.19l0-0.04l0.21-0.15l0.15,0.21
				L27.87,62.55z M48.61,63.24l-0.18-0.18l0.01-0.06l-0.01-0.06l0.18-0.19l0.18,0.17v0.01l-0.01,0.06l0.01,0.05v0.01L48.61,63.24z
				 M27.86,63.28l-0.18-0.17v-0.01l0.18-0.18l0.18,0.18L27.86,63.28z M48.58,63.97l-0.03,0l-0.15-0.21l0.18-0.17l0.18,0.19l0,0.04
				L48.58,63.97z M27.89,64.03l-0.18-0.16l0-0.04l0.18-0.18l0.18,0.18l-0.15,0.2L27.89,64.03z M27.79,64.6l0.18-0.03L27.79,64.6
				l0.15-0.22l0.21,0.15L27.79,64.6z M48.5,64.71l-0.03,0l-0.15-0.21l0.21-0.16l0.15,0.2l0,0.02L48.5,64.71z M48.37,65.44
				l-0.06-0.01L48.2,65.2l0.21-0.15l0.15,0.21l-0.01,0.05L48.37,65.44z M28.1,65.49l-0.18-0.16l0.18-0.02l-0.18,0.02l0.12-0.22
				l0.23,0.12l0.01,0.05l-0.16,0.21L28.1,65.49z M28.11,66.07l0.18-0.05L28.11,66.07l0.11-0.24l0.23,0.11l-0.17,0.07L28.11,66.07z
				 M48.19,66.15l-0.06-0.01l-0.12-0.23l0.23-0.12l0.12,0.22l-0.01,0.02L48.19,66.15z M28.35,66.78l0.17-0.06L28.35,66.78l0.1-0.24
				l0.23,0.09l-0.16,0.08L28.35,66.78z M47.95,66.86l-0.07-0.02l-0.1-0.24l0.23-0.11l0.11,0.22l-0.01,0.03L47.95,66.86z
				 M47.67,67.55l-0.05-0.01l-0.12-0.23l0.02-0.04l0.25-0.08l0.08,0.24l-0.16-0.08l0.16,0.08L47.67,67.55z M28.8,67.58l-0.15-0.1
				l-0.01-0.01l0.08-0.25l0.24,0.08l-0.08,0.25L28.8,67.58z M47.34,68.2l-0.1-0.03l-0.05-0.25l0.24-0.08l0.08,0.25l-0.02,0.03
				L47.34,68.2z M29.13,68.23l-0.14-0.09l0.16-0.08l-0.16,0.08l0.05-0.25l0.26,0.05l-0.07,0.26L29.13,68.23z M46.96,68.83l-0.1-0.03
				l-0.06-0.25l0.16,0.08l0.15,0.11L46.96,68.83z M29.52,68.87l-0.14-0.08l-0.01-0.02l0.06-0.25l0.25,0.06l-0.06,0.25L29.52,68.87z
				 M46.54,69.44l-0.11-0.03l-0.05-0.25l0.16,0.09l0.14,0.12L46.54,69.44z M29.94,69.48l-0.13-0.07l-0.02-0.02l0.05-0.25l0.25,0.05
				l-0.04,0.25L29.94,69.48z M46.07,70.02l-0.13-0.05v-0.26l0.26-0.03l0.03,0.26l-0.03,0.03L46.07,70.02z M30.4,70.04l-0.12-0.06
				l0.14-0.12l-0.14,0.11l0.01-0.25l0.25,0L30.52,70L30.4,70.04z M45.57,70.56l-0.13-0.05v-0.26l0.26-0.01l0,0.25l-0.01,0.01
				L45.57,70.56z M30.92,70.59l-0.12-0.05l-0.01-0.01v-0.26h0.26l0.01,0.26L30.92,70.59z M45.03,71.06L44.9,71l0-0.25l0.27,0.02
				l-0.02,0.24l-0.12-0.14l0.12,0.14L45.03,71.06z M31.47,71.09l-0.12-0.04l-0.03-0.02v-0.26h0.26l0.03,0.25L31.47,71.09z
				 M31.93,71.51l0.12-0.14L31.93,71.51l-0.04-0.25l0.25-0.05l-0.09,0.16L31.93,71.51z M44.45,71.53l-0.15-0.08l0.05-0.25l0.25,0.04
				l-0.03,0.25l-0.03,0.02L44.45,71.53z M32.55,71.94l0.1-0.15L32.55,71.94l-0.06-0.25l0.25-0.06l-0.08,0.16L32.55,71.94z
				 M43.85,71.95l-0.16-0.09l0.06-0.25l0.25,0.06l-0.05,0.24l-0.02,0.01L43.85,71.95z M43.2,72.33l-0.15-0.08L43.11,72l0.26,0.07
				L43.3,72.3l-0.08-0.16l0.08,0.16L43.2,72.33z M33.3,72.35l-0.08-0.02l-0.03-0.02l-0.05-0.25l0.25-0.05l0.08,0.24L33.3,72.35z
				 M42.55,72.66l-0.17-0.12l0.12-0.23l0.24,0.08l-0.09,0.25l-0.04,0.02L42.55,72.66z M33.96,72.68l-0.08-0.02l0.08-0.16l-0.08,0.16
				l-0.12-0.22l0.23-0.12l0.05,0.02l0.08,0.25L33.96,72.68z M41.87,72.94l-0.17-0.11l0.1-0.23l0.08,0.16l0.06,0.17L41.87,72.94z
				 M34.64,72.96l-0.05-0.01l-0.03-0.01l-0.09-0.24l0.24-0.1l0.1,0.23L34.64,72.96z M41.17,73.18l-0.17-0.12l0.12-0.23l0.07,0.17
				l0.04,0.18L41.17,73.18z M35.34,73.19l-0.05-0.01l-0.02-0.01l-0.12-0.23l0.23-0.12l0.12,0.23L35.34,73.19z M40.43,73.37
				l-0.16-0.13l0.12-0.23L40.46,73l0.18,0.16l-0.16,0.21l-0.03-0.18l0.03,0.18L40.43,73.37z M36.06,73.37l-0.07-0.01l-0.12-0.23
				l0.23-0.12l0.15,0.2L36.06,73.37z M39.72,73.49l-0.18-0.15l0.15-0.21l0.04,0.18l0.01,0.18L39.72,73.49z M36.79,73.5l-0.04,0
				l-0.15-0.21l0.21-0.15l0.16,0.21L36.79,73.5z M38.97,73.57l-0.17-0.15l0.16-0.21l0.2,0.18L39,73.57v-0.18l0,0.18L38.97,73.57z
				 M37.52,73.58l-0.04,0l-0.15-0.21l0.21-0.15l0.17,0.18L37.52,73.58z M38.26,73.6h-0.01l-0.18-0.18l0.18-0.18l0.19,0.18
				L38.26,73.6z"/>
			<path class="st2" d="M45.84,56.03l-0.07-0.01l-0.1-0.24l0.23-0.1l0.01,0l0.1,0.24L45.84,56.03z M46.53,56.31l-0.07-0.01
				l-0.11-0.24l0.23-0.1l0.01,0.01l0.1,0.24L46.53,56.31z M47.22,56.59l-0.07-0.01l-0.1-0.24l0.23-0.1l0.02,0.01l0.1,0.24
				L47.22,56.59z M47.91,56.87l-0.07-0.01l-0.1-0.24l0.23-0.1l0.01,0.01l0.1,0.24L47.91,56.87z M48.59,57.15l-0.07-0.01l-0.1-0.24
				l0.23-0.1l0.02,0.01l0.1,0.24L48.59,57.15z M49.28,57.43l-0.06-0.01l-0.11-0.24l0.22-0.11l0.02,0.01l0.11,0.23L49.28,57.43z
				 M49.97,57.71l-0.06-0.01l-0.12-0.24l0.23-0.11l0.01,0.01l0.11,0.23L49.97,57.71z M50.66,57.99l-0.06-0.01l-0.12-0.24l0.23-0.11
				l0.01,0.01l0.11,0.23L50.66,57.99z M51.35,58.27l-0.07-0.01l-0.11-0.24l0.23-0.1l0.02,0.01l0.1,0.24L51.35,58.27z M52.03,58.55
				l-0.07-0.01l-0.1-0.24l0.23-0.1l0.01,0.01l0.1,0.24L52.03,58.55z M52.72,58.83l-0.07-0.01l-0.11-0.24l0.23-0.1l0.02,0l0.1,0.24
				L52.72,58.83z M53.41,59.11l-0.07-0.02l-0.1-0.24l0.23-0.1l0.01,0.01L53.58,59L53.41,59.11z M54.1,59.39l-0.07-0.02l-0.1-0.24
				l0.23-0.1l0.02,0l0.1,0.24L54.1,59.39z M54.79,59.67l-0.07-0.01l-0.1-0.24l0.23-0.1l0.01,0l0.1,0.24L54.79,59.67z M55.48,59.95
				l-0.07-0.01l-0.1-0.24l0.23-0.1l0.02,0l0.1,0.24L55.48,59.95z M56.17,60.22l-0.06-0.01l-0.11-0.24l0.23-0.11l0.01,0l0.11,0.23
				L56.17,60.22z M56.85,60.5l-0.06-0.01l-0.12-0.24l0.23-0.11l0.01,0l0.11,0.23L56.85,60.5z M57.54,60.78l-0.06-0.01l-0.12-0.24
				l0.23-0.11l0.02,0l0.11,0.23L57.54,60.78z M58.23,61.06l-0.07-0.02l-0.11-0.24l0.23-0.1l0.01,0.01l0.1,0.24L58.23,61.06z
				 M58.92,61.34l-0.07-0.01l-0.1-0.24l0.23-0.1l0.01,0.01l0.1,0.24L58.92,61.34z M59.6,61.62l-0.07-0.01l-0.1-0.24l0.23-0.1l0.01,0
				l0.1,0.24L59.6,61.62z M60.29,61.9l-0.07-0.01l-0.1-0.24l0.23-0.1l0.01,0.01l0.1,0.24L60.29,61.9z M60.98,62.18l-0.07-0.01
				l-0.1-0.24l0.23-0.1l0.01,0.01l0.1,0.24L60.98,62.18z M61.67,62.46l-0.07-0.01l-0.1-0.24l0.23-0.1l0.01,0.01l0.1,0.24
				L61.67,62.46z M62.36,62.74l-0.07-0.01l-0.11-0.24l0.23-0.1l0.01,0l0.1,0.24L62.36,62.74z M63.05,63.02l-0.06-0.01l-0.12-0.24
				l0.23-0.11l0.01,0.01l0.11,0.23L63.05,63.02z M63.73,63.3l-0.06-0.01l-0.12-0.24l0.23-0.11l0.01,0l0.11,0.24L63.73,63.3z
				 M64.42,63.58l-0.06-0.01l-0.11-0.24l0.23-0.11l0.01,0l0.11,0.23L64.42,63.58z M65.11,63.86l-0.07-0.01l-0.1-0.24l0.23-0.1
				l0.01,0l0.1,0.24L65.11,63.86z M65.8,64.14l-0.07-0.01l-0.1-0.24l0.23-0.1l0.01,0.01l0.1,0.24L65.8,64.14z M66.49,64.42
				l-0.07-0.02l-0.11-0.24l0.23-0.1l0.01,0l0.1,0.24L66.49,64.42z M67.18,64.7l-0.07-0.01L67,64.44l0.23-0.1l0.01,0.01l0.1,0.24
				L67.18,64.7z M67.86,64.98l-0.07-0.01l-0.1-0.24l0.23-0.1l0.01,0.01l0.1,0.24L67.86,64.98z M68.55,65.26l-0.07-0.01L68.38,65
				l0.23-0.1l0.01,0.01l0.09,0.24L68.55,65.26z M69.24,65.54l-0.06-0.01l-0.12-0.24l0.23-0.11l0.01,0l0.11,0.23L69.24,65.54z
				 M69.93,65.82l-0.06-0.01l-0.12-0.24l0.23-0.11l0.01,0l0.11,0.24L69.93,65.82z M70.62,66.09l-0.06-0.01l-0.12-0.24l0.23-0.11
				l0.01,0.01l0.11,0.23L70.62,66.09z M71.3,66.37l-0.07-0.01l-0.1-0.24l0.23-0.1l0.01,0.01l0.1,0.24L71.3,66.37z M71.99,66.65
				l-0.07-0.01l-0.1-0.24l0.23-0.1l0.01,0l0.1,0.24L71.99,66.65z M72.68,66.93l-0.07-0.01l-0.11-0.24l0.23-0.1l0.01,0.01l0.1,0.24
				L72.68,66.93z M73.37,67.21L73.3,67.2l-0.1-0.24l0.23-0.1l0.01,0l0.1,0.24L73.37,67.21z M74.06,67.49l-0.07-0.01l-0.11-0.24
				l0.23-0.1l0.01,0.01l0.1,0.24L74.06,67.49z M74.75,67.77l-0.07-0.01l-0.1-0.24l0.23-0.1l0.01,0.01l0.1,0.24L74.75,67.77z
				 M75.43,68.05l-0.07-0.01l-0.1-0.24l0.23-0.1l0.01,0.01l0.1,0.24L75.43,68.05z M76.12,68.33l-0.06-0.01l-0.12-0.23l0.23-0.11
				l0.01,0.01l0.11,0.23L76.12,68.33z M76.81,68.61l-0.06-0.01l-0.11-0.24l0.23-0.11l0.01,0.01l0.11,0.23L76.81,68.61z M77.5,68.89
				l-0.06-0.01l-0.12-0.24l0.23-0.11l0.02,0.01l0.11,0.23L77.5,68.89z M78.19,69.17l-0.07-0.01l-0.1-0.24l0.23-0.1l0.01,0.01
				l0.1,0.24L78.19,69.17z M78.87,69.45l-0.07-0.01l-0.1-0.24l0.23-0.1l0.01,0.01l0.1,0.24L78.87,69.45z M79.56,69.73l-0.07-0.01
				l-0.1-0.24l0.23-0.1l0.02,0l0.1,0.24L79.56,69.73z M80.25,70.01L80.18,70l-0.1-0.24l0.23-0.1l0.01,0l0.1,0.24L80.25,70.01z
				 M80.94,70.29l-0.07-0.01l-0.11-0.24l0.23-0.1l0.01,0.01l0.1,0.24L80.94,70.29z M81.63,70.57l-0.07-0.02l-0.1-0.24l0.23-0.1
				l0.02,0.01l0.09,0.24L81.63,70.57z M82.32,70.85l-0.07-0.01l-0.1-0.24l0.23-0.1l0.01,0.01l0.1,0.24L82.32,70.85z M83,71.13
				l-0.06-0.01l-0.12-0.23l0.23-0.11l0.01,0l0.11,0.23L83,71.13z M83.69,71.41l-0.06-0.01l-0.12-0.24l0.23-0.11l0.01,0.01l0.11,0.23
				L83.69,71.41z M84.38,71.69l-0.07-0.01l-0.1-0.24l0.23-0.1l0.01,0.01l0.1,0.24L84.38,71.69z M85.07,71.97L85,71.95l-0.11-0.24
				l0.23-0.1l0.01,0.01l0.1,0.24L85.07,71.97z M85.76,72.25l-0.07-0.01l-0.1-0.24l0.23-0.1l0.01,0.01l0.1,0.24L85.76,72.25z
				 M86.44,72.52l-0.07-0.01l-0.1-0.24l0.23-0.1l0.01,0.01l0.1,0.24L86.44,72.52z M87.13,72.8l-0.07-0.01l-0.1-0.24l0.23-0.1
				l0.01,0.01l0.1,0.24L87.13,72.8z M87.82,73.08l-0.07-0.01l-0.1-0.24l0.23-0.1l0.01,0.01l0.1,0.24L87.82,73.08z"/>
			<path class="st2" d="M31.07,70.63l-0.16-0.1l0.08-0.25l0.24,0.08l0.01,0.01l-0.08,0.24L31.07,70.63z M31.4,71.3l-0.16-0.09
				l0.07-0.25l0.24,0.07l0.01,0.01l-0.07,0.25L31.4,71.3z M31.73,71.96l-0.16-0.1l0.08-0.25l0.24,0.07l0.01,0.01l-0.08,0.25
				L31.73,71.96z M32.07,72.63l-0.16-0.1l0.08-0.25l0.24,0.08l0.01,0.01l-0.08,0.24L32.07,72.63z M32.4,73.29l-0.16-0.1l0.07-0.25
				l0.25,0.07l0.01,0.01l-0.08,0.25L32.4,73.29z M32.73,73.95l-0.16-0.1l0.08-0.25l0.24,0.07l0.01,0.01l-0.08,0.25L32.73,73.95z
				 M33.06,74.62l-0.17-0.1l0.08-0.25l0.24,0.08l0.01,0.01l-0.09,0.24L33.06,74.62z M33.39,75.28l-0.16-0.1l0.08-0.25l0.24,0.08
				l0.01,0.01l-0.08,0.24L33.39,75.28z M33.73,75.95l-0.16-0.1l0.08-0.25l0.24,0.07l0.01,0.01l-0.08,0.24L33.73,75.95z M34.06,76.61
				l-0.16-0.1l0.08-0.25l0.24,0.08l0.01,0.01l-0.09,0.24L34.06,76.61z M34.39,77.28l-0.16-0.1l0.08-0.25L34.54,77l0.01,0.01
				l-0.08,0.24L34.39,77.28z M34.72,77.94l-0.16-0.1l0.08-0.25l0.24,0.08l0,0.01l-0.08,0.24L34.72,77.94z M35.05,78.61l-0.16-0.09
				l0.07-0.25l0.24,0.06l0.01,0.01l-0.07,0.25L35.05,78.61z M35.38,79.27l-0.16-0.1l0.08-0.25L35.54,79l0.01,0.01l-0.08,0.24
				L35.38,79.27z M35.72,79.94l-0.16-0.1l0.08-0.25l0.24,0.08l0.01,0.01l-0.08,0.25L35.72,79.94z M36.05,80.6l-0.16-0.1l0.08-0.25
				l0.24,0.08l0.01,0.01l-0.08,0.24L36.05,80.6z M36.38,81.27l-0.16-0.1l0.08-0.25l0.24,0.08l0.01,0.01l-0.09,0.24L36.38,81.27z
				 M36.71,81.93l-0.16-0.1l0.08-0.25l0.24,0.08l0.01,0.01l-0.08,0.24L36.71,81.93z M37.04,82.6l-0.16-0.1l0.08-0.25l0.24,0.08
				l0.01,0.01l-0.09,0.24L37.04,82.6z M37.37,83.26l-0.16-0.1l0.08-0.25l0.24,0.07L37.54,83l-0.08,0.24L37.37,83.26z M37.7,83.93
				l-0.16-0.1l0.08-0.25l0.24,0.08l0.01,0.01l-0.08,0.24L37.7,83.93z M38.04,84.59l-0.16-0.1l0.08-0.25l0.24,0.08l0.01,0.01
				l-0.09,0.24L38.04,84.59z M38.37,85.26l-0.16-0.1l0.08-0.25l0.24,0.07l0.01,0.01l-0.08,0.24L38.37,85.26z M38.7,85.92l-0.16-0.1
				l0.07-0.25l0.24,0.07l0.01,0.01l-0.08,0.25L38.7,85.92z M39.03,86.59l-0.16-0.1l0.08-0.25l0.24,0.08l0.01,0.01l-0.08,0.24
				L39.03,86.59z M39.36,87.25l-0.16-0.1l0.08-0.25l0.24,0.08l0.01,0.01l-0.08,0.24L39.36,87.25z M39.69,87.91l-0.16-0.1l0.08-0.25
				l0.24,0.08l0.01,0.01l-0.08,0.24L39.69,87.91z M40.03,88.58l-0.16-0.1l0.08-0.25l0.24,0.08l0.01,0.01l-0.08,0.24L40.03,88.58z
				 M40.36,89.24l-0.17-0.1l0.08-0.25l0.24,0.08l0.01,0.01l-0.09,0.24L40.36,89.24z M40.69,89.91l-0.16-0.1l0.08-0.25l0.24,0.08
				l0.01,0.01l-0.08,0.24L40.69,89.91z M41.02,90.57l-0.17-0.1l0.09-0.25l0.24,0.08l0.01,0.01l-0.09,0.24L41.02,90.57z M41.35,91.24
				l-0.16-0.09l0.07-0.25l0.24,0.07l0.01,0.01l-0.07,0.25L41.35,91.24z M41.69,91.9l-0.16-0.1l0.08-0.25l0.24,0.08l0.01,0.01
				l-0.08,0.24L41.69,91.9z M42.02,92.57l-0.16-0.1l0.08-0.25l0.24,0.08l0.01,0.01l-0.08,0.24L42.02,92.57z M42.35,93.23l-0.16-0.09
				l0.07-0.26l0.24,0.07l0.01,0.01l-0.07,0.25L42.35,93.23z M42.68,93.9l-0.16-0.1l0.08-0.25l0.24,0.08l0.01,0.01l-0.09,0.24
				L42.68,93.9z M43.01,94.56l-0.16-0.1l0.08-0.25l0.24,0.08l0.01,0.01l-0.08,0.24L43.01,94.56z M43.34,95.22l-0.16-0.1l0.08-0.25
				l0.24,0.08l0.01,0.01l-0.09,0.24L43.34,95.22z M43.68,95.89l-0.16-0.1l0.08-0.25l0.24,0.07l0.01,0.01l-0.08,0.24L43.68,95.89z
				 M44.01,96.55l-0.16-0.1l0.08-0.25l0.24,0.08l0.01,0.01l-0.08,0.25L44.01,96.55z M44.34,97.22l-0.17-0.1l0.08-0.25l0.24,0.08
				l0.01,0.02l-0.09,0.24L44.34,97.22z M44.67,97.88l-0.16-0.1l0.08-0.25l0.24,0.08l0.01,0.01l-0.08,0.24L44.67,97.88z M45,98.55
				l-0.16-0.1l0.07-0.25l0.24,0.07l0.01,0.01l-0.08,0.25L45,98.55z M45.33,99.21l-0.16-0.1l0.08-0.25l0.24,0.08l0.01,0.01
				l-0.08,0.24L45.33,99.21z M45.67,99.88l-0.16-0.1l0.08-0.25l0.24,0.08l0.01,0.01l-0.08,0.24L45.67,99.88z M46,100.54l-0.16-0.1
				l0.08-0.25l0.24,0.08l0.01,0.01l-0.08,0.24L46,100.54z M46.33,101.21l-0.16-0.1l0.08-0.25l0.24,0.08l0.01,0.01l-0.08,0.24
				L46.33,101.21z M46.66,101.87l-0.16-0.11l0.08-0.25l0.24,0.08l0.01,0.01l-0.09,0.24L46.66,101.87z M46.99,102.54l-0.16-0.1
				l0.08-0.25l0.24,0.08l0.01,0.01l-0.08,0.24L46.99,102.54z M47.32,103.2l-0.17-0.1l0.08-0.25l0.24,0.08l0.01,0.01l-0.09,0.24
				L47.32,103.2z M47.65,103.86l-0.16-0.1l0.08-0.25l0.24,0.08l0,0.01l-0.08,0.24L47.65,103.86z M47.99,104.53l-0.16-0.1l0.08-0.25
				l0.24,0.07l0.01,0.01l-0.08,0.24L47.99,104.53z M48.32,105.19l-0.16-0.1l0.08-0.25l0.24,0.08l0.01,0.01l-0.08,0.24L48.32,105.19z
				 M48.65,105.86l-0.16-0.09l0.07-0.25l0.24,0.06l0.01,0.01l-0.07,0.25L48.65,105.86z M48.98,106.52l-0.16-0.1l0.08-0.25l0.24,0.08
				l0.01,0.01l-0.09,0.24L48.98,106.52z M49.31,107.19l-0.16-0.1l0.08-0.25l0.24,0.08l0.01,0.01l-0.08,0.24L49.31,107.19z
				 M49.64,107.85l-0.16-0.1l0.08-0.25l0.24,0.08l0.01,0.01l-0.08,0.24L49.64,107.85z M49.98,108.52l-0.16-0.1l0.08-0.25l0.24,0.08
				l0.01,0.01l-0.08,0.24L49.98,108.52z M50.31,109.18l-0.16-0.1l0.08-0.25l0.24,0.08l0.01,0.01l-0.08,0.24L50.31,109.18z
				 M50.64,109.85l-0.16-0.1l0.08-0.25l0.24,0.08l0.01,0.01l-0.09,0.24L50.64,109.85z M50.97,110.51l-0.16-0.1l0.08-0.25l0.24,0.08
				l0.01,0.01l-0.08,0.25L50.97,110.51z M51.3,111.18l-0.16-0.1l0.07-0.25l0.24,0.07l0.01,0.01l-0.08,0.25L51.3,111.18z
				 M51.63,111.84l-0.16-0.1l0.08-0.25l0.24,0.08l0.01,0.01l-0.08,0.24L51.63,111.84z M51.97,112.51l-0.16-0.1l0.08-0.25l0.24,0.08
				l0.01,0.01l-0.08,0.25L51.97,112.51z M52.3,113.17l-0.16-0.09l0.07-0.25l0.24,0.07l0.01,0.01l-0.07,0.25L52.3,113.17z"/>
			<path class="st8" d="M108.39,100.97c0,16.17-13.11,29.27-29.27,29.27c-16.16,0-29.27-13.1-29.27-29.27
				c0-16.17,13.11-29.27,29.27-29.27C95.28,71.7,108.39,84.8,108.39,100.97"/>
		</g>
		<g>
			<defs>
				<path id="SVGID_00000109009998084194582110000014611374042152128172_" d="M49.85,100.97c0,16.17,13.11,29.27,29.27,29.27
					c16.17,0,29.27-13.11,29.27-29.27c0-16.17-13.11-29.27-29.27-29.27C62.95,71.7,49.85,84.8,49.85,100.97"/>
			</defs>
			<clipPath id="SVGID_00000183213561588195794800000012212698268977485203_">
				<use xlink:href="#SVGID_00000109009998084194582110000014611374042152128172_"  style="overflow:visible;"/>
			</clipPath>
			<path style="clip-path:url(#SVGID_00000183213561588195794800000012212698268977485203_);fill:#FFFFFF;" d="M38.23,217.15l0-1.87
				c0.19-0.78,1.13-1.46,2.08-1.51l5.74-0.1c2.82-0.3,4.63-3.19,6.75-4.72L52.73,83.19c0-0.73,0.69-1.3,1.07-1.56
				c2.33-1.77,4.35-2.91,7.06-3.64c1.07-0.26,3.22-0.83,3.28-1.71l0.12-0.96c-1.45-0.94-1.58-0.86,0-1.95l-0.12-3.84
				c0.31-1.46,1.45-2.81,2.27-2.81h10.72c0.95,0.05,2.08,2.08,2.14,2.7v4.05c1.51,1.09,1.51,0.7,0,1.85v1.22
				c0.06,0.57,0.88,0.78,2.9,1.4c3.09,0.88,6.12,2.39,7.82,3.69c0.51,0.36,1.07,0.78,1.07,1.35l0.13,126.06
				c1.15,1.52,2.26,4.49,4.6,4.67l7.57,0.1c1.51,0,2.02,1.14,2.08,1.87v1.46H38.23z"/>
			<path style="clip-path:url(#SVGID_00000183213561588195794800000012212698268977485203_);fill:#13110C;" d="M38.41,216.97h66.86
				v-1.27c-0.01-0.16-0.2-1.69-1.9-1.69l-7.57-0.1c-1.88-0.14-3.01-1.99-3.92-3.47c-0.29-0.47-0.56-0.92-0.83-1.27l-0.04-0.05v-0.06
				L90.88,82.99c0-0.48-0.53-0.87-1-1.2c-1.84-1.4-4.88-2.84-7.76-3.67l-0.43-0.13c-1.79-0.55-2.53-0.78-2.6-1.42l0-1.33l0.07-0.05
				c0.23-0.18,0.43-0.32,0.59-0.43c0.23-0.16,0.45-0.32,0.47-0.38c-0.03-0.03-0.25-0.18-0.47-0.33c-0.16-0.11-0.36-0.24-0.59-0.41
				l-0.08-0.05v-4.15c-0.06-0.58-1.16-2.48-1.97-2.52H66.41c-0.68,0-1.78,1.23-2.09,2.66l0.13,3.9l-0.08,0.06
				c-0.57,0.39-1.06,0.73-1.06,0.87c0,0.11,0.37,0.34,0.77,0.59l0.38,0.25l-0.14,1.08c-0.07,0.95-1.98,1.52-3.42,1.87
				c-2.49,0.67-4.45,1.68-6.99,3.61c-0.38,0.26-1,0.78-1,1.42l0.06,125.84l-0.08,0.06c-0.66,0.48-1.29,1.09-1.95,1.73
				c-1.42,1.38-2.9,2.81-4.88,3.03l-5.76,0.11c-0.86,0.05-1.74,0.67-1.91,1.37L38.41,216.97z M105.63,217.33H38.04l0-2.05
				c0.21-0.89,1.22-1.63,2.25-1.69l5.74-0.1c1.85-0.2,3.27-1.58,4.65-2.92c0.65-0.63,1.26-1.22,1.92-1.71L52.55,83.19
				c0-0.8,0.72-1.42,1.15-1.71c2.58-1.95,4.57-2.98,7.12-3.67c2.55-0.62,3.12-1.18,3.14-1.55l0.11-0.86l-0.19-0.12
				c-0.62-0.39-0.93-0.59-0.93-0.89c-0.01-0.32,0.33-0.56,1.13-1.12l-0.12-3.75c0.33-1.56,1.52-2.99,2.45-2.99h10.72
				c1.11,0.06,2.26,2.21,2.32,2.87v3.98c0.2,0.14,0.37,0.25,0.51,0.35c0.43,0.29,0.63,0.42,0.63,0.64c0,0.22-0.19,0.36-0.63,0.67
				c-0.14,0.1-0.31,0.22-0.51,0.37v1.13c0.05,0.39,0.77,0.61,2.35,1.1l0.43,0.13c2.92,0.83,6.01,2.29,7.88,3.72
				c0.51,0.37,1.14,0.83,1.14,1.5l0.13,126c0.27,0.36,0.53,0.79,0.81,1.25c0.91,1.48,1.93,3.17,3.62,3.29l7.55,0.1
				c1.64,0,2.19,1.28,2.26,2.04V217.33z"/>
		</g>
		<g>
			<defs>
				<path id="SVGID_00000155861823216429153240000012191049546524195203_" d="M78.6,71.7h-0.03c-0.15,0-0.31,0.01-0.46,0.01
					c-0.02,0-0.03,0-0.04,0c-0.05,0-0.1,0-0.14,0.01c-0.03,0-0.05,0-0.08,0c-0.03,0-0.05,0-0.08,0c-0.03,0-0.07,0-0.1,0
					c-0.02,0-0.05,0-0.07,0c-0.04,0-0.09,0.01-0.14,0.01c-0.01,0-0.03,0-0.05,0c-0.05,0-0.11,0.01-0.16,0.01h-0.01
					c-0.06,0-0.11,0.01-0.17,0.01c-0.01,0-0.02,0-0.02,0c-4.58,0.32-8.88,1.7-12.63,3.89l-0.08,0.65c-0.07,0.95-1.98,1.52-3.42,1.87
					c-0.08,0.02-0.15,0.04-0.23,0.06c-0.38,0.3-0.75,0.62-1.11,0.94l-0.01,0c-0.04,0.04-0.08,0.07-0.12,0.11
					c-0.01,0-0.01,0.01-0.02,0.02c-0.04,0.03-0.07,0.07-0.11,0.1c-0.01,0.01-0.02,0.02-0.03,0.03c-0.04,0.03-0.07,0.06-0.1,0.1
					c-0.01,0.01-0.02,0.02-0.03,0.03c-0.03,0.03-0.07,0.06-0.1,0.09c-0.04,0.04-0.08,0.08-0.13,0.12c-0.01,0.01-0.02,0.02-0.04,0.03
					c-0.03,0.03-0.07,0.07-0.1,0.1l-0.03,0.03c-0.04,0.03-0.07,0.07-0.11,0.1l-0.03,0.03c-0.04,0.04-0.07,0.07-0.11,0.11
					c-0.01,0.01-0.02,0.02-0.03,0.02c-0.04,0.04-0.08,0.08-0.12,0.12c-0.01,0-0.01,0.01-0.02,0.02c-0.04,0.04-0.08,0.08-0.12,0.13
					c0,0-0.01,0-0.01,0.01c-1.63,1.67-3.07,3.53-4.27,5.54c0,0,0,0.01-0.01,0.01c-0.03,0.05-0.06,0.1-0.09,0.15
					c0,0.01-0.01,0.02-0.01,0.02c-0.03,0.04-0.05,0.09-0.08,0.13c-0.01,0.01-0.02,0.02-0.02,0.04c-0.02,0.04-0.04,0.08-0.07,0.12
					c-0.01,0.02-0.02,0.03-0.03,0.05c-0.02,0.03-0.04,0.06-0.05,0.1c-0.01,0.02-0.03,0.05-0.04,0.07v0c-0.22,0.4-0.43,0.8-0.64,1.2
					l0.01,15.7h37.99l-0.02-20.63c0-0.48-0.53-0.87-1-1.2c-1.84-1.4-4.88-2.84-7.76-3.66l-0.43-0.13c-1.79-0.55-2.53-0.78-2.6-1.43
					v-1.33l0.07-0.05c0.23-0.18,0.43-0.32,0.59-0.43c0.23-0.16,0.45-0.32,0.47-0.38c-0.03-0.03-0.25-0.18-0.47-0.33
					c-0.16-0.11-0.36-0.24-0.59-0.41l-0.07-0.05V71.7C78.93,71.7,78.77,71.7,78.6,71.7"/>
			</defs>
			<clipPath id="SVGID_00000070092949451242962400000000358264143418875008_">
				<use xlink:href="#SVGID_00000155861823216429153240000012191049546524195203_"  style="overflow:visible;"/>
			</clipPath>
			
				<rect x="52.91" y="71.7" style="clip-path:url(#SVGID_00000070092949451242962400000000358264143418875008_);fill:#A87FB1;" width="37.99" height="31.92"/>
		</g>
		<g>
			<defs>
				<path id="SVGID_00000096034598715190847300000007022622601111210132_" d="M49.85,100.97c0,16.17,13.11,29.27,29.27,29.27
					c16.17,0,29.27-13.11,29.27-29.27c0-16.17-13.11-29.27-29.27-29.27C62.95,71.7,49.85,84.8,49.85,100.97"/>
			</defs>
			<clipPath id="SVGID_00000030486251444354938830000000683878157933062076_">
				<use xlink:href="#SVGID_00000096034598715190847300000007022622601111210132_"  style="overflow:visible;"/>
			</clipPath>
			<path style="clip-path:url(#SVGID_00000030486251444354938830000000683878157933062076_);fill:#13110C;" d="M79.12,71.7h-0.02
				v1.87l0.08,0.05c0.23,0.17,0.43,0.3,0.59,0.41c0.22,0.15,0.44,0.3,0.47,0.33c-0.03,0.06-0.24,0.21-0.48,0.38
				c-0.16,0.11-0.36,0.25-0.59,0.43l-0.07,0.05l0,1.33c0.07,0.65,0.81,0.88,2.6,1.42l0.43,0.13c2.88,0.82,5.92,2.26,7.76,3.66
				c0.47,0.34,1,0.72,1,1.2l0.02,20.62h0.11L91,82.99c0-0.57-0.57-0.99-1.07-1.35c-1.7-1.3-4.73-2.81-7.82-3.69
				c-2.02-0.62-2.84-0.83-2.9-1.4v-1.22c1.51-1.14,1.51-0.75,0-1.85V71.7H79.12 M64.41,75.66c-0.1,0.05-0.19,0.11-0.28,0.16
				l-0.06,0.46c-0.06,0.81-1.89,1.36-3.01,1.65c-0.13,0.1-0.26,0.2-0.38,0.31c0.08-0.02,0.16-0.04,0.23-0.06
				c1.43-0.35,3.35-0.92,3.42-1.87L64.41,75.66z M52.91,87.91c-0.09,0.17-0.17,0.35-0.25,0.52l0.01,15.18h0.26L52.91,87.91z"/>
			
				<rect x="54.02" y="103.92" style="clip-path:url(#SVGID_00000030486251444354938830000000683878157933062076_);fill:#E7D7EB;" width="35.63" height="113.1"/>
			<path style="clip-path:url(#SVGID_00000030486251444354938830000000683878157933062076_);fill:#1F1F1C;" d="M54.2,216.83h35.27
				V104.1H54.2V216.83z M89.83,217.2h-36V103.74h36V217.2z"/>
			<polygon style="clip-path:url(#SVGID_00000030486251444354938830000000683878157933062076_);fill:#13110C;" points="80.27,74.53 
				63.4,74.53 63.22,74.35 63.4,74.17 80.27,74.17 80.45,74.35 			"/>
			<polygon style="clip-path:url(#SVGID_00000030486251444354938830000000683878157933062076_);fill:#13110C;" points="79.47,77.09 
				64.2,77.09 64.02,76.91 64.2,76.72 79.47,76.72 79.65,76.91 			"/>
			<polygon style="clip-path:url(#SVGID_00000030486251444354938830000000683878157933062076_);fill:#13110C;" points="90.94,83.26 
				52.73,83.26 52.54,83.08 52.73,82.9 90.94,82.9 91.12,83.08 			"/>
			<polygon style="clip-path:url(#SVGID_00000030486251444354938830000000683878157933062076_);fill:#13110C;" points="64.25,90.51 
				64.24,90.51 63.76,90.77 63.68,90.41 64.31,90.06 64.7,90.06 64.7,92.89 64.25,92.89 			"/>
			<polygon style="clip-path:url(#SVGID_00000030486251444354938830000000683878157933062076_);fill:#13110C;" points="61.97,94.3 
				61.96,94.3 61.49,94.56 61.41,94.2 62.04,93.85 62.43,93.85 62.43,96.68 61.97,96.68 			"/>
			<path style="clip-path:url(#SVGID_00000030486251444354938830000000683878157933062076_);fill:#13110C;" d="M62.79,97.22
				c0.11-0.31,0.23-0.76,0.28-1.09l0.49-0.04c-0.12,0.37-0.3,0.84-0.46,1.1L62.79,97.22z"/>
			<path style="clip-path:url(#SVGID_00000030486251444354938830000000683878157933062076_);fill:#13110C;" d="M64.98,94.26h-0.76
				l-0.09,0.62l0.1,0c0.13,0,0.37,0.06,0.53,0.21c0.16,0.15,0.24,0.36,0.24,0.65c0,0.55-0.36,0.98-0.93,0.98
				c-0.19,0-0.39-0.05-0.51-0.12l0.08-0.37c0.1,0.05,0.24,0.1,0.4,0.1c0.28,0,0.49-0.2,0.49-0.56c0-0.41-0.28-0.56-0.62-0.56
				l-0.21,0.01l0.17-1.37h1.1V94.26z"/>
			<path style="clip-path:url(#SVGID_00000030486251444354938830000000683878157933062076_);fill:#13110C;" d="M61.3,105.05v-0.31
				l0.26-0.34c0.35-0.46,0.7-0.92,0.7-1.38c0-0.27-0.13-0.44-0.38-0.44c-0.19,0-0.33,0.09-0.41,0.15l-0.09-0.36
				c0.11-0.08,0.33-0.18,0.59-0.18c0.55,0,0.75,0.38,0.75,0.8c0,0.53-0.34,0.99-0.68,1.42l-0.18,0.23v0.01h0.9v0.41H61.3z"/>
			<path style="clip-path:url(#SVGID_00000030486251444354938830000000683878157933062076_);fill:#13110C;" d="M62.79,105.59
				c0.11-0.31,0.23-0.77,0.28-1.09l0.49-0.04c-0.12,0.37-0.3,0.84-0.46,1.1L62.79,105.59z"/>
			<path style="clip-path:url(#SVGID_00000030486251444354938830000000683878157933062076_);fill:#13110C;" d="M64.98,102.63h-0.76
				l-0.09,0.62l0.1-0.01c0.13,0,0.37,0.06,0.53,0.21c0.16,0.15,0.24,0.36,0.24,0.65c0,0.55-0.36,0.98-0.93,0.98
				c-0.19,0-0.39-0.05-0.51-0.12l0.08-0.37c0.1,0.05,0.24,0.1,0.4,0.1c0.28,0,0.49-0.2,0.49-0.56c0-0.41-0.28-0.57-0.62-0.57
				l-0.21,0.01l0.17-1.37h1.1V102.63z"/>
			<path style="clip-path:url(#SVGID_00000030486251444354938830000000683878157933062076_);fill:#13110C;" d="M61.37,113.19
				c0.1,0.06,0.26,0.11,0.41,0.11c0.29,0,0.46-0.19,0.46-0.48c0-0.34-0.24-0.51-0.55-0.51h-0.08v-0.34h0.06
				c0.2,0,0.49-0.12,0.49-0.43c0-0.24-0.14-0.37-0.35-0.37c-0.13,0-0.26,0.06-0.36,0.12l-0.07-0.35c0.11-0.08,0.32-0.16,0.55-0.16
				c0.45,0,0.69,0.3,0.69,0.67c0,0.28-0.15,0.52-0.41,0.64v0.01c0.26,0.08,0.49,0.32,0.49,0.73c0,0.44-0.32,0.84-0.89,0.84
				c-0.21,0-0.41-0.06-0.53-0.13L61.37,113.19z"/>
			<path style="clip-path:url(#SVGID_00000030486251444354938830000000683878157933062076_);fill:#13110C;" d="M62.79,114.19
				c0.11-0.31,0.23-0.76,0.28-1.09l0.49-0.04c-0.12,0.37-0.3,0.84-0.46,1.1L62.79,114.19z"/>
			<path style="clip-path:url(#SVGID_00000030486251444354938830000000683878157933062076_);fill:#13110C;" d="M64.98,111.23h-0.76
				l-0.09,0.62l0.1,0c0.13,0,0.37,0.06,0.53,0.21c0.16,0.15,0.24,0.36,0.24,0.65c0,0.55-0.36,0.98-0.93,0.98
				c-0.19,0-0.39-0.05-0.51-0.12l0.08-0.37c0.1,0.05,0.24,0.1,0.4,0.1c0.28,0,0.49-0.2,0.49-0.55c0-0.41-0.28-0.56-0.62-0.56
				l-0.21,0.01l0.17-1.37h1.1V111.23z"/>
			<path style="clip-path:url(#SVGID_00000030486251444354938830000000683878157933062076_);fill:#13110C;" d="M62.19,121.05v-0.68
				c0-0.17,0.02-0.34,0.03-0.5h-0.01c-0.08,0.19-0.14,0.32-0.22,0.48l-0.34,0.69v0.01H62.19z M62.19,122.14v-0.72h-0.96v-0.32
				l0.92-1.79h0.45v1.73h0.29v0.37h-0.29v0.72H62.19z"/>
			<path style="clip-path:url(#SVGID_00000030486251444354938830000000683878157933062076_);fill:#13110C;" d="M62.79,122.68
				c0.11-0.31,0.23-0.77,0.28-1.09l0.49-0.04c-0.12,0.37-0.3,0.84-0.46,1.1L62.79,122.68z"/>
			<path style="clip-path:url(#SVGID_00000030486251444354938830000000683878157933062076_);fill:#13110C;" d="M64.98,119.72h-0.76
				l-0.09,0.62l0.1,0c0.13,0,0.37,0.06,0.53,0.21c0.16,0.15,0.24,0.36,0.24,0.65c0,0.55-0.36,0.98-0.93,0.98
				c-0.19,0-0.39-0.05-0.51-0.12l0.08-0.37c0.1,0.05,0.24,0.1,0.4,0.1c0.28,0,0.49-0.19,0.49-0.55c0-0.41-0.28-0.56-0.62-0.56
				l-0.21,0.01l0.17-1.37h1.1V119.72z"/>
			<path style="clip-path:url(#SVGID_00000030486251444354938830000000683878157933062076_);fill:#13110C;" d="M63.55,101.16v-0.31
				l0.26-0.34c0.35-0.46,0.7-0.92,0.7-1.38c0-0.27-0.13-0.44-0.38-0.44c-0.19,0-0.33,0.09-0.42,0.15l-0.09-0.36
				c0.11-0.08,0.33-0.18,0.59-0.18c0.55,0,0.76,0.38,0.76,0.8c0,0.53-0.34,0.99-0.68,1.42l-0.18,0.23v0.01h0.9v0.41H63.55z"/>
			<path style="clip-path:url(#SVGID_00000030486251444354938830000000683878157933062076_);fill:#13110C;" d="M63.64,109.09
				c0.1,0.06,0.26,0.11,0.41,0.11c0.29,0,0.46-0.19,0.46-0.48c0-0.34-0.24-0.51-0.55-0.51h-0.08v-0.34h0.06
				c0.2,0,0.49-0.12,0.49-0.43c0-0.24-0.14-0.37-0.35-0.37c-0.13,0-0.26,0.06-0.36,0.12l-0.07-0.35c0.11-0.08,0.32-0.16,0.55-0.16
				c0.45,0,0.69,0.3,0.69,0.67c0,0.28-0.15,0.52-0.41,0.64v0.01c0.26,0.08,0.49,0.32,0.49,0.73c0,0.44-0.32,0.84-0.89,0.84
				c-0.21,0-0.41-0.06-0.53-0.12L63.64,109.09z"/>
			<path style="clip-path:url(#SVGID_00000030486251444354938830000000683878157933062076_);fill:#13110C;" d="M64.31,116.96v-0.68
				c0-0.17,0.01-0.34,0.03-0.5h-0.01c-0.08,0.19-0.14,0.32-0.22,0.48l-0.34,0.69v0.01H64.31z M64.31,118.06v-0.72h-0.96v-0.32
				l0.92-1.79h0.45v1.73h0.29v0.37h-0.29v0.72H64.31z"/>
			<path style="clip-path:url(#SVGID_00000030486251444354938830000000683878157933062076_);fill:#13110C;" d="M64.98,124.19h-0.76
				l-0.09,0.62l0.1,0c0.13,0,0.37,0.06,0.53,0.21c0.16,0.15,0.24,0.36,0.24,0.65c0,0.55-0.36,0.98-0.93,0.98
				c-0.19,0-0.39-0.05-0.51-0.12l0.08-0.37c0.1,0.05,0.24,0.11,0.4,0.11c0.28,0,0.49-0.2,0.49-0.55c0-0.41-0.28-0.57-0.62-0.57
				l-0.21,0.01l0.17-1.37h1.1V124.19z"/>
			<path style="clip-path:url(#SVGID_00000030486251444354938830000000683878157933062076_);fill:#13110C;" d="M61.75,86.62
				c0,0.67,0.09,1.05,0.33,1.05c0.21,0,0.3-0.39,0.3-1.05c0-0.63-0.08-1.05-0.3-1.05C61.86,85.57,61.75,85.95,61.75,86.62
				 M62.84,86.61c0,1.02-0.35,1.46-0.79,1.46c-0.53,0-0.77-0.62-0.77-1.44c0-0.87,0.27-1.46,0.8-1.46
				C62.65,85.17,62.84,85.84,62.84,86.61"/>
			<path style="clip-path:url(#SVGID_00000030486251444354938830000000683878157933062076_);fill:#13110C;" d="M62.79,88.58
				c0.11-0.31,0.23-0.76,0.28-1.09l0.49-0.04c-0.12,0.38-0.3,0.84-0.46,1.1L62.79,88.58z"/>
			<path style="clip-path:url(#SVGID_00000030486251444354938830000000683878157933062076_);fill:#13110C;" d="M64.98,85.61h-0.76
				l-0.09,0.62l0.1,0c0.13,0,0.37,0.06,0.53,0.21C64.92,86.59,65,86.8,65,87.09c0,0.55-0.36,0.98-0.93,0.98
				c-0.19,0-0.39-0.05-0.51-0.12l0.08-0.37c0.1,0.05,0.24,0.1,0.4,0.1c0.28,0,0.49-0.2,0.49-0.56c0-0.41-0.28-0.56-0.62-0.56
				l-0.21,0.01l0.17-1.37h1.1V85.61z"/>
			<polygon style="clip-path:url(#SVGID_00000030486251444354938830000000683878157933062076_);fill:#13110C;" points="82.53,91.66 
				67.13,91.66 66.95,91.48 67.13,91.29 82.53,91.29 82.71,91.48 			"/>
			<polygon style="clip-path:url(#SVGID_00000030486251444354938830000000683878157933062076_);fill:#13110C;" points="82.53,99.91 
				67.13,99.91 66.95,99.73 67.13,99.54 82.53,99.54 82.71,99.73 			"/>
			<polygon style="clip-path:url(#SVGID_00000030486251444354938830000000683878157933062076_);fill:#13110C;" points="
				82.53,108.32 67.13,108.32 66.95,108.13 67.13,107.95 82.53,107.95 82.71,108.13 			"/>
			<polygon style="clip-path:url(#SVGID_00000030486251444354938830000000683878157933062076_);fill:#13110C;" points="
				82.53,116.83 67.13,116.83 66.95,116.65 67.13,116.46 82.53,116.46 82.71,116.65 			"/>
			<polygon style="clip-path:url(#SVGID_00000030486251444354938830000000683878157933062076_);fill:#13110C;" points="82.53,125.4 
				67.13,125.4 66.95,125.22 67.13,125.03 82.53,125.03 82.71,125.22 			"/>
			<polygon style="clip-path:url(#SVGID_00000030486251444354938830000000683878157933062076_);fill:#13110C;" points="74.8,85.01 
				67.13,85.01 66.95,84.82 67.13,84.64 74.8,84.64 74.98,84.82 			"/>
			<polygon style="clip-path:url(#SVGID_00000030486251444354938830000000683878157933062076_);fill:#13110C;" points="74.8,89.34 
				67.13,89.34 66.95,89.16 67.13,88.98 74.8,88.98 74.98,89.16 			"/>
			<polygon style="clip-path:url(#SVGID_00000030486251444354938830000000683878157933062076_);fill:#13110C;" points="74.8,93.72 
				67.13,93.72 66.95,93.54 67.13,93.36 74.8,93.36 74.98,93.54 			"/>
			<polygon style="clip-path:url(#SVGID_00000030486251444354938830000000683878157933062076_);fill:#13110C;" points="74.8,102.07 
				67.13,102.07 66.95,101.89 67.13,101.7 74.8,101.7 74.98,101.89 			"/>
			<polygon style="clip-path:url(#SVGID_00000030486251444354938830000000683878157933062076_);fill:#13110C;" points="74.8,106.19 
				67.13,106.19 66.95,106.01 67.13,105.83 74.8,105.83 74.98,106.01 			"/>
			<polygon style="clip-path:url(#SVGID_00000030486251444354938830000000683878157933062076_);fill:#13110C;" points="74.8,110.48 
				67.13,110.48 66.95,110.3 67.13,110.12 74.8,110.12 74.98,110.3 			"/>
			<polygon style="clip-path:url(#SVGID_00000030486251444354938830000000683878157933062076_);fill:#13110C;" points="74.8,114.74 
				67.13,114.74 66.95,114.56 67.13,114.38 74.8,114.38 74.98,114.56 			"/>
			<polygon style="clip-path:url(#SVGID_00000030486251444354938830000000683878157933062076_);fill:#13110C;" points="74.8,118.99 
				67.13,118.99 66.95,118.8 67.13,118.62 74.8,118.62 74.98,118.8 			"/>
			<polygon style="clip-path:url(#SVGID_00000030486251444354938830000000683878157933062076_);fill:#13110C;" points="74.8,123.3 
				67.13,123.3 66.95,123.12 67.13,122.93 74.8,122.93 74.98,123.12 			"/>
			<polygon style="clip-path:url(#SVGID_00000030486251444354938830000000683878157933062076_);fill:#13110C;" points="74.8,97.84 
				67.13,97.84 66.95,97.66 67.13,97.48 74.8,97.48 74.98,97.66 			"/>
			<polygon style="clip-path:url(#SVGID_00000030486251444354938830000000683878157933062076_);fill:#13110C;" points="77.65,87.06 
				67.13,87.06 66.95,86.87 67.13,86.69 77.65,86.69 77.83,86.87 			"/>
			<polygon style="clip-path:url(#SVGID_00000030486251444354938830000000683878157933062076_);fill:#13110C;" points="77.65,87.06 
				67.13,87.06 66.95,86.87 67.13,86.69 77.65,86.69 77.83,86.87 			"/>
			<polygon style="clip-path:url(#SVGID_00000030486251444354938830000000683878157933062076_);fill:#13110C;" points="77.65,95.72 
				67.13,95.72 66.95,95.54 67.13,95.35 77.65,95.35 77.83,95.54 			"/>
			<polygon style="clip-path:url(#SVGID_00000030486251444354938830000000683878157933062076_);fill:#13110C;" points="
				77.65,104.08 67.13,104.08 66.95,103.89 67.13,103.71 77.65,103.71 77.83,103.89 			"/>
			<polygon style="clip-path:url(#SVGID_00000030486251444354938830000000683878157933062076_);fill:#13110C;" points="
				77.65,112.68 67.13,112.68 66.95,112.49 67.13,112.31 77.65,112.31 77.83,112.49 			"/>
			<polygon style="clip-path:url(#SVGID_00000030486251444354938830000000683878157933062076_);fill:#13110C;" points="
				77.65,121.18 67.13,121.18 66.95,121 67.13,120.82 77.65,120.82 77.83,121 			"/>
			<polygon style="clip-path:url(#SVGID_00000030486251444354938830000000683878157933062076_);fill:#1F1F1C;" points="
				102.36,106.08 131.21,106.08 131.21,101.75 102.36,101.75 102.36,98.51 93.01,103.91 102.36,109.31 			"/>
		</g>
		<g>
			<path class="st9" d="M79.12,71.95c-16,0-29.02,13.02-29.02,29.02s13.02,29.02,29.02,29.02s29.02-13.02,29.02-29.02
				S95.12,71.95,79.12,71.95 M79.12,130.49c-16.28,0-29.53-13.25-29.53-29.53c0-16.28,13.25-29.52,29.53-29.52
				c16.28,0,29.53,13.24,29.53,29.52C108.64,117.25,95.4,130.49,79.12,130.49"/>
		</g>
	</g>
	<path class="st27" d="M48.91,101.59c0,16.44,13.33,29.77,29.77,29.77c16.44,0,29.77-13.33,29.77-29.77
		c0-16.44-13.33-29.77-29.77-29.77C62.24,71.82,48.91,85.15,48.91,101.59z"/>
	<polyline class="st27" points="78.63,71.21 78.63,12.59 2.15,12.59 2.15,129.83 71.46,129.83 	"/>
	<g>
		<path class="st28" d="M97.51,13.93c0,5.96-4.83,10.79-10.79,10.79c-5.96,0-10.79-4.83-10.79-10.79c0-5.96,4.83-10.79,10.79-10.79
			C92.68,3.13,97.51,7.97,97.51,13.93z"/>
		<g>
			<path class="st29" d="M82.68,18.12l1.06-1.28c0.7,0.82,1.66,1.26,2.83,1.26c1.34,0,2.17-0.82,2.17-1.87
				c0-1.12-0.82-1.87-2.12-1.87c-0.88,0-1.63,0.27-2.31,0.9l-1.31-0.38V9.02h6.91v1.63h-5.06v3.04c0.52-0.49,1.38-0.9,2.39-0.9
				c1.79,0,3.38,1.23,3.38,3.4c0,2.18-1.68,3.57-4.03,3.57C84.78,19.75,83.53,19.12,82.68,18.12z"/>
		</g>
	</g>
</g>
</svg>
