<?xml version="1.0" encoding="utf-8"?>
<!-- Generator: Adobe Illustrator 26.0.0, SVG Export Plug-In . SVG Version: 6.00 Build 0)  -->
<svg version="1.1" id="Capa_1" xmlns="http://www.w3.org/2000/svg" xmlns:xlink="http://www.w3.org/1999/xlink" x="0px" y="0px"
	 viewBox="0 0 375.07 108.8" style="enable-background:new 0 0 375.07 108.8;" xml:space="preserve">
<style type="text/css">
	.st0{fill:#45413D;}
	.st1{fill:#662579;}
	.st2{fill:#908C8A;}
	.st3{fill:#5E5A58;}
	.st4{fill:#662982;}
	.st5{fill:none;stroke:#662982;stroke-width:1.9;stroke-miterlimit:10;}
	.st6{fill:#FFFFFF;}
</style>
<g>
	<g>
		<path class="st0" d="M13,40.97v-6.6h2.6c2.07,0,3.5,1.32,3.5,3.29c0,2-1.43,3.3-3.49,3.3H13z M17.67,37.67
			c0-1.16-0.71-2.06-2.06-2.06h-1.21v4.12h1.2C16.91,39.74,17.67,38.8,17.67,37.67z"/>
		<path class="st0" d="M19.78,37.68c0-1.99,1.45-3.41,3.45-3.41c1.99,0,3.44,1.42,3.44,3.41c0,1.99-1.45,3.41-3.44,3.41
			C21.24,41.09,19.78,39.67,19.78,37.68z M25.23,37.68c0-1.24-0.78-2.16-2-2.16c-1.23,0-2.01,0.93-2.01,2.16
			c0,1.23,0.78,2.17,2.01,2.17C24.45,39.85,25.23,38.91,25.23,37.68z"/>
		<path class="st0" d="M27.21,40.04l0.77-1.1c0.46,0.48,1.19,0.9,2.1,0.9c0.78,0,1.15-0.35,1.15-0.73c0-1.15-3.8-0.35-3.8-2.83
			c0-1.1,0.95-2.01,2.5-2.01c1.05,0,1.92,0.32,2.57,0.92l-0.78,1.05c-0.53-0.49-1.25-0.72-1.92-0.72c-0.59,0-0.93,0.26-0.93,0.65
			c0,1.04,3.79,0.34,3.79,2.8c0,1.21-0.87,2.12-2.64,2.12C28.74,41.09,27.83,40.67,27.21,40.04z"/>
		<path class="st0" d="M33.59,40.97v-6.6H35v6.6H33.59z"/>
		<path class="st0" d="M35.85,40.04l0.77-1.1c0.46,0.48,1.19,0.9,2.1,0.9c0.78,0,1.15-0.35,1.15-0.73c0-1.15-3.8-0.35-3.8-2.83
			c0-1.1,0.95-2.01,2.5-2.01c1.05,0,1.92,0.32,2.57,0.92l-0.78,1.05c-0.53-0.49-1.25-0.72-1.92-0.72c-0.59,0-0.93,0.26-0.93,0.65
			c0,1.04,3.79,0.34,3.79,2.8c0,1.21-0.87,2.12-2.64,2.12C37.38,41.09,36.47,40.67,35.85,40.04z"/>
	</g>
	<g>
		<g>
			<path class="st0" d="M18.51,58.89v-5.33l-2.15,5.33h-0.32l-2.16-5.33v5.33h-0.79v-6.34h1.13l1.98,4.89l1.97-4.89h1.13v6.34H18.51
				z"/>
			<path class="st0" d="M20.39,56.59c0-1.33,0.95-2.41,2.26-2.41c1.39,0,2.21,1.08,2.21,2.46v0.18h-3.71
				c0.06,0.87,0.66,1.59,1.64,1.59c0.53,0,1.06-0.21,1.43-0.59l0.34,0.46c-0.47,0.46-1.08,0.71-1.83,0.71
				C21.37,59.01,20.39,58.03,20.39,56.59z M22.64,54.78c-0.98,0-1.46,0.83-1.5,1.52h3.01C24.14,55.62,23.69,54.78,22.64,54.78z"/>
			<path class="st0" d="M29.02,58.89v-3c0-0.82-0.42-1.07-1.04-1.07c-0.56,0-1.08,0.34-1.36,0.71v3.36h-0.71V54.3h0.71v0.67
				c0.32-0.39,0.95-0.78,1.64-0.78c0.95,0,1.46,0.49,1.46,1.48v3.22H29.02z"/>
			<path class="st0" d="M30.79,56.59c0-1.33,0.87-2.41,2.27-2.41c1.4,0,2.27,1.07,2.27,2.41c0,1.33-0.88,2.41-2.27,2.41
				C31.67,59.01,30.79,57.92,30.79,56.59z M34.58,56.59c0-0.93-0.54-1.77-1.52-1.77s-1.52,0.84-1.52,1.77
				c0,0.94,0.54,1.78,1.52,1.78S34.58,57.53,34.58,56.59z"/>
			<path class="st0" d="M36.01,58.28l0.36-0.51c0.3,0.35,0.88,0.66,1.51,0.66c0.7,0,1.09-0.33,1.09-0.79c0-1.11-2.84-0.43-2.84-2.13
				c0-0.72,0.61-1.32,1.7-1.32c0.79,0,1.34,0.29,1.7,0.67l-0.33,0.49c-0.28-0.33-0.77-0.58-1.37-0.58c-0.63,0-1.02,0.31-1.02,0.72
				c0,1,2.84,0.34,2.84,2.13c0,0.77-0.62,1.39-1.8,1.39C37.1,59.01,36.47,58.77,36.01,58.28z"/>
			<path class="st0" d="M46.41,58.89v-0.69c-0.34,0.47-0.9,0.8-1.55,0.8c-1.2,0-2.04-0.91-2.04-2.4c0-1.47,0.85-2.42,2.04-2.42
				c0.62,0,1.18,0.3,1.55,0.81v-2.44h0.71v6.34H46.41z M46.41,57.64v-2.07c-0.25-0.4-0.81-0.74-1.37-0.74
				c-0.93,0-1.48,0.76-1.48,1.78c0,1.02,0.55,1.77,1.48,1.77C45.6,58.37,46.16,58.04,46.41,57.64z"/>
			<path class="st0" d="M48.19,56.59c0-1.33,0.95-2.41,2.26-2.41c1.39,0,2.21,1.08,2.21,2.46v0.18h-3.71
				c0.06,0.87,0.66,1.59,1.64,1.59c0.53,0,1.06-0.21,1.43-0.59l0.34,0.46c-0.47,0.46-1.08,0.71-1.83,0.71
				C49.16,59.01,48.19,58.03,48.19,56.59z M50.44,54.78c-0.98,0-1.46,0.83-1.5,1.52h3.01C51.94,55.62,51.48,54.78,50.44,54.78z"/>
			<path class="st0" d="M57.05,58.89v-5.3l-1.02,1.08l-0.48-0.49l1.59-1.64h0.69v6.34H57.05z"/>
			<path class="st0" d="M67.1,58.89v-3.12c0-0.58-0.25-0.95-0.85-0.95c-0.48,0-0.98,0.33-1.22,0.7v3.37h-0.71v-3.12
				c0-0.58-0.24-0.95-0.85-0.95c-0.47,0-0.96,0.34-1.21,0.71v3.36h-0.71V54.3h0.71v0.67c0.2-0.29,0.81-0.78,1.49-0.78
				c0.69,0,1.09,0.38,1.23,0.86c0.26-0.42,0.88-0.86,1.54-0.86c0.84,0,1.28,0.47,1.28,1.39v3.32H67.1z"/>
			<path class="st0" d="M69.14,58.89v-6.34h0.71v6.34H69.14z"/>
		</g>
	</g>
	<g>
		<g>
			<path class="st0" d="M12.98,75.91l0.49-0.53c0.42,0.54,0.98,0.85,1.75,0.85c0.87,0,1.46-0.59,1.46-1.36
				c0-0.84-0.6-1.37-1.45-1.37c-0.55,0-1.04,0.18-1.46,0.59l-0.58-0.2v-3.41h3.88v0.7h-3.09v2.21c0.31-0.3,0.85-0.57,1.48-0.57
				c1.07,0,2.03,0.71,2.03,2.02c0,1.28-0.99,2.09-2.26,2.09C14.15,76.92,13.45,76.53,12.98,75.91z"/>
			<path class="st0" d="M26.48,76.81v-3.12c0-0.58-0.25-0.95-0.85-0.95c-0.48,0-0.98,0.33-1.22,0.7v3.37h-0.71v-3.12
				c0-0.58-0.24-0.95-0.85-0.95c-0.47,0-0.96,0.34-1.21,0.71v3.36h-0.71v-4.59h0.71v0.67c0.2-0.29,0.81-0.78,1.49-0.78
				c0.69,0,1.09,0.38,1.23,0.86c0.26-0.42,0.88-0.86,1.54-0.86c0.84,0,1.28,0.47,1.28,1.39v3.32H26.48z"/>
			<path class="st0" d="M28.52,76.81v-6.34h0.71v6.34H28.52z"/>
			<path class="st0" d="M32.66,74.51c0-1.33,0.87-2.41,2.27-2.41c1.4,0,2.27,1.07,2.27,2.41c0,1.33-0.88,2.41-2.27,2.41
				C33.54,76.92,32.66,75.84,32.66,74.51z M36.46,74.51c0-0.93-0.54-1.77-1.52-1.77c-0.98,0-1.52,0.84-1.52,1.77
				c0,0.94,0.54,1.78,1.52,1.78C35.91,76.29,36.46,75.45,36.46,74.51z"/>
			<path class="st0" d="M46.18,76.81v-3.12c0-0.58-0.25-0.95-0.85-0.95c-0.48,0-0.98,0.33-1.22,0.7v3.37H43.4v-3.12
				c0-0.58-0.24-0.95-0.85-0.95c-0.47,0-0.96,0.34-1.21,0.71v3.36h-0.71v-4.59h0.71v0.67c0.2-0.29,0.81-0.78,1.49-0.78
				c0.69,0,1.09,0.38,1.23,0.86c0.26-0.42,0.88-0.86,1.54-0.86c0.84,0,1.28,0.47,1.28,1.39v3.32H46.18z"/>
			<path class="st0" d="M47.95,74.51c0-1.33,0.95-2.41,2.26-2.41c1.39,0,2.21,1.08,2.21,2.46v0.18h-3.71
				c0.06,0.87,0.66,1.59,1.64,1.59c0.53,0,1.06-0.21,1.43-0.59l0.34,0.46c-0.47,0.46-1.08,0.71-1.83,0.71
				C48.93,76.92,47.95,75.95,47.95,74.51z M50.2,72.69c-0.98,0-1.46,0.83-1.5,1.52h3.01C51.7,73.54,51.25,72.69,50.2,72.69z"/>
			<path class="st0" d="M56.58,76.81v-3c0-0.82-0.42-1.07-1.04-1.07c-0.56,0-1.08,0.34-1.36,0.71v3.36h-0.71v-4.59h0.71v0.67
				c0.32-0.39,0.95-0.78,1.64-0.78c0.95,0,1.46,0.49,1.46,1.48v3.22H56.58z"/>
			<path class="st0" d="M58.35,74.51c0-1.33,0.87-2.41,2.27-2.41c1.4,0,2.27,1.07,2.27,2.41c0,1.33-0.88,2.41-2.27,2.41
				C59.22,76.92,58.35,75.84,58.35,74.51z M62.14,74.51c0-0.93-0.54-1.77-1.52-1.77c-0.98,0-1.52,0.84-1.52,1.77
				c0,0.94,0.54,1.78,1.52,1.78C61.6,76.29,62.14,75.45,62.14,74.51z"/>
			<path class="st0" d="M63.57,76.2l0.36-0.51c0.3,0.35,0.88,0.66,1.51,0.66c0.7,0,1.09-0.33,1.09-0.79c0-1.11-2.84-0.43-2.84-2.13
				c0-0.72,0.61-1.32,1.7-1.32c0.79,0,1.34,0.29,1.7,0.66l-0.33,0.49c-0.28-0.33-0.77-0.58-1.37-0.58c-0.63,0-1.02,0.31-1.02,0.72
				c0,1,2.84,0.34,2.84,2.13c0,0.77-0.62,1.39-1.8,1.39C64.66,76.92,64.03,76.69,63.57,76.2z"/>
		</g>
	</g>
	<g>
		<g>
			<path class="st0" d="M18.51,94.73v-5.33l-2.15,5.33h-0.32l-2.16-5.33v5.33h-0.79v-6.34h1.13l1.98,4.89l1.97-4.89h1.13v6.34H18.51
				z"/>
			<path class="st0" d="M23.53,94.73v-0.52c-0.37,0.42-0.9,0.64-1.52,0.64c-0.77,0-1.6-0.52-1.6-1.52c0-1.04,0.82-1.51,1.6-1.51
				c0.63,0,1.15,0.2,1.52,0.62V91.6c0-0.61-0.49-0.96-1.16-0.96c-0.55,0-1,0.19-1.41,0.64l-0.33-0.49c0.49-0.51,1.08-0.76,1.83-0.76
				c0.98,0,1.78,0.44,1.78,1.55v3.16H23.53z M23.53,93.76v-0.87c-0.28-0.37-0.76-0.56-1.25-0.56c-0.67,0-1.14,0.42-1.14,1
				c0,0.59,0.47,1.01,1.14,1.01C22.77,94.33,23.25,94.14,23.53,93.76z M22.39,89.44h-0.54l1.41-1.37H24L22.39,89.44z"/>
			<path class="st0" d="M25.19,94.12l0.36-0.51c0.3,0.35,0.88,0.66,1.51,0.66c0.7,0,1.09-0.33,1.09-0.79c0-1.11-2.84-0.43-2.84-2.13
				c0-0.72,0.61-1.32,1.7-1.32c0.79,0,1.34,0.29,1.7,0.67l-0.33,0.49c-0.28-0.33-0.77-0.58-1.37-0.58c-0.63,0-1.02,0.31-1.02,0.72
				c0,1,2.84,0.34,2.84,2.13c0,0.77-0.62,1.39-1.8,1.39C26.28,94.84,25.65,94.6,25.19,94.12z"/>
			<path class="st0" d="M35.59,94.73v-0.69c-0.34,0.47-0.9,0.8-1.55,0.8c-1.2,0-2.04-0.91-2.04-2.4c0-1.47,0.85-2.42,2.04-2.42
				c0.62,0,1.18,0.3,1.55,0.81v-2.44h0.71v6.34H35.59z M35.59,93.47V91.4c-0.25-0.4-0.81-0.74-1.37-0.74
				c-0.93,0-1.48,0.76-1.48,1.78c0,1.02,0.55,1.77,1.48,1.77C34.78,94.21,35.34,93.87,35.59,93.47z"/>
			<path class="st0" d="M37.37,92.43c0-1.33,0.95-2.41,2.26-2.41c1.39,0,2.21,1.08,2.21,2.46v0.18h-3.71
				c0.06,0.87,0.66,1.59,1.64,1.59c0.53,0,1.06-0.21,1.43-0.59l0.34,0.46c-0.47,0.46-1.08,0.71-1.83,0.71
				C38.34,94.84,37.37,93.86,37.37,92.43z M39.62,90.61c-0.98,0-1.46,0.83-1.5,1.52h3.01C41.12,91.46,40.66,90.61,39.62,90.61z"/>
			<path class="st0" d="M45.16,93.82l0.49-0.53c0.42,0.54,0.98,0.85,1.75,0.85c0.87,0,1.46-0.59,1.46-1.36
				c0-0.84-0.6-1.37-1.45-1.37c-0.55,0-1.04,0.18-1.46,0.59l-0.58-0.2v-3.41h3.88v0.7h-3.09v2.21c0.31-0.3,0.85-0.57,1.48-0.57
				c1.07,0,2.03,0.71,2.03,2.02c0,1.28-0.99,2.09-2.26,2.09C46.33,94.84,45.64,94.45,45.16,93.82z"/>
			<path class="st0" d="M58.67,94.73v-3.12c0-0.58-0.25-0.95-0.85-0.95c-0.48,0-0.98,0.33-1.22,0.7v3.37h-0.71v-3.12
				c0-0.58-0.24-0.95-0.85-0.95c-0.47,0-0.96,0.34-1.21,0.71v3.36h-0.71v-4.59h0.71v0.67c0.2-0.29,0.81-0.78,1.49-0.78
				c0.69,0,1.09,0.38,1.23,0.86c0.26-0.42,0.88-0.86,1.54-0.86c0.84,0,1.28,0.47,1.28,1.39v3.32H58.67z"/>
			<path class="st0" d="M60.71,94.73v-6.34h0.71v6.34H60.71z"/>
		</g>
	</g>
	<g>
		<path class="st1" d="M93.33,37.68c0-2.04,1.53-3.41,3.52-3.41c1.44,0,2.28,0.78,2.75,1.61l-1.21,0.59
			c-0.28-0.53-0.87-0.96-1.54-0.96c-1.21,0-2.08,0.92-2.08,2.16c0,1.25,0.87,2.17,2.08,2.17c0.67,0,1.27-0.43,1.54-0.96l1.21,0.58
			c-0.46,0.82-1.3,1.62-2.75,1.62C94.86,41.09,93.33,39.71,93.33,37.68z"/>
		<path class="st1" d="M99.98,37.68c0-1.99,1.45-3.41,3.45-3.41c1.99,0,3.44,1.42,3.44,3.41c0,1.99-1.45,3.41-3.44,3.41
			C101.43,41.09,99.98,39.67,99.98,37.68z M105.43,37.68c0-1.24-0.78-2.16-2-2.16c-1.23,0-2.01,0.93-2.01,2.16
			c0,1.23,0.78,2.17,2.01,2.17C104.65,39.85,105.43,38.91,105.43,37.68z M103.51,33.78h-0.88l1.32-1.42h1.16L103.51,33.78z"/>
		<path class="st1" d="M113.45,40.97v-4.76l-1.86,4.76h-0.61l-1.86-4.76v4.76h-1.4v-6.6h1.97l1.6,4.12l1.6-4.12h1.98v6.6H113.45z"/>
		<path class="st1" d="M115.71,37.68c0-1.99,1.45-3.41,3.45-3.41c1.99,0,3.44,1.42,3.44,3.41c0,1.99-1.45,3.41-3.44,3.41
			C117.16,41.09,115.71,39.67,115.71,37.68z M121.15,37.68c0-1.24-0.78-2.16-2-2.16c-1.23,0-2.01,0.93-2.01,2.16
			c0,1.23,0.78,2.17,2.01,2.17C120.37,39.85,121.15,38.91,121.15,37.68z"/>
		<path class="st1" d="M131.57,40.97v-4.76l-1.86,4.76h-0.61l-1.86-4.76v4.76h-1.4v-6.6h1.97l1.6,4.12l1.6-4.12h1.98v6.6H131.57z"/>
		<path class="st1" d="M134.15,40.97v-6.6h4.67v1.24h-3.26V37h3.19v1.24h-3.19v1.5h3.26v1.24H134.15z"/>
		<path class="st1" d="M139.76,40.97v-6.6h2.6c2.07,0,3.5,1.32,3.5,3.29c0,2-1.43,3.3-3.49,3.3H139.76z M144.43,37.67
			c0-1.16-0.71-2.06-2.06-2.06h-1.21v4.12h1.2C143.67,39.74,144.43,38.8,144.43,37.67z"/>
		<path class="st1" d="M146.72,40.97v-6.6h1.4v6.6H146.72z"/>
		<path class="st1" d="M153.02,40.97l-1.29-2.34h-1.03v2.34h-1.4v-6.6h3.08c1.38,0,2.22,0.9,2.22,2.13c0,1.16-0.74,1.79-1.45,1.96
			l1.49,2.51H153.02z M153.16,36.5c0-0.55-0.42-0.88-0.98-0.88h-1.48v1.78h1.48C152.73,37.39,153.16,37.06,153.16,36.5z"/>
	</g>
	<g>
		<path class="st0" d="M93.73,56.43v-3.88h0.8v3.86c0,1.16,0.62,1.89,1.79,1.89c1.17,0,1.8-0.73,1.8-1.89v-3.86h0.8v3.87
			c0,1.58-0.88,2.59-2.6,2.59C94.61,59.01,93.73,57.99,93.73,56.43z"/>
		<path class="st0" d="M99.88,58.28l0.36-0.51c0.3,0.35,0.88,0.66,1.51,0.66c0.7,0,1.09-0.33,1.09-0.79c0-1.11-2.84-0.43-2.84-2.13
			c0-0.72,0.61-1.32,1.7-1.32c0.79,0,1.34,0.29,1.7,0.67l-0.33,0.49c-0.28-0.33-0.77-0.58-1.37-0.58c-0.63,0-1.02,0.31-1.02,0.72
			c0,1,2.84,0.34,2.84,2.13c0,0.77-0.62,1.39-1.8,1.39C100.97,59.01,100.35,58.77,99.88,58.28z"/>
		<path class="st0" d="M104.33,56.59c0-1.33,0.95-2.41,2.26-2.41c1.39,0,2.21,1.08,2.21,2.46v0.18h-3.71
			c0.06,0.87,0.66,1.59,1.64,1.59c0.53,0,1.06-0.21,1.43-0.59l0.34,0.46c-0.47,0.46-1.08,0.71-1.83,0.71
			C105.31,59.01,104.33,58.03,104.33,56.59z M106.58,54.78c-0.98,0-1.46,0.83-1.5,1.52h3.01C108.08,55.62,107.63,54.78,106.58,54.78
			z"/>
		<path class="st0" d="M115.31,58.89v-0.65c-0.35,0.4-0.95,0.76-1.63,0.76c-0.96,0-1.46-0.47-1.46-1.46V54.3h0.71v3.02
			c0,0.81,0.41,1.04,1.04,1.04c0.55,0,1.08-0.32,1.35-0.69V54.3h0.71v4.59H115.31z"/>
		<path class="st0" d="M120.46,58.89v-3c0-0.82-0.42-1.07-1.04-1.07c-0.56,0-1.08,0.34-1.36,0.71v3.36h-0.71V54.3h0.71v0.67
			c0.32-0.39,0.95-0.78,1.64-0.78c0.95,0,1.46,0.49,1.46,1.48v3.22H120.46z"/>
		<path class="st0" d="M125.37,58.89v-0.52c-0.37,0.42-0.9,0.64-1.52,0.64c-0.77,0-1.6-0.52-1.6-1.52c0-1.04,0.82-1.51,1.6-1.51
			c0.63,0,1.15,0.2,1.52,0.62v-0.83c0-0.61-0.49-0.96-1.16-0.96c-0.55,0-1,0.19-1.41,0.64l-0.33-0.49c0.49-0.51,1.08-0.76,1.83-0.76
			c0.98,0,1.78,0.44,1.78,1.55v3.16H125.37z M125.37,57.92v-0.87c-0.28-0.37-0.76-0.56-1.25-0.56c-0.67,0-1.14,0.42-1.14,1
			c0,0.59,0.47,1.01,1.14,1.01C124.61,58.49,125.1,58.3,125.37,57.92z"/>
		<path class="st0" d="M128.14,60.41l0.25-0.53c0.16,0.16,0.37,0.29,0.66,0.29c0.43,0,0.74-0.25,0.74-0.83V54.3h0.71v5.04
			c0,0.9-0.48,1.42-1.36,1.42C128.67,60.76,128.43,60.64,128.14,60.41z M129.66,53.17c0-0.27,0.22-0.49,0.48-0.49
			c0.27,0,0.48,0.22,0.48,0.49c0,0.27-0.21,0.47-0.48,0.47C129.88,53.64,129.66,53.44,129.66,53.17z"/>
		<path class="st0" d="M131.56,56.59c0-1.33,0.95-2.41,2.26-2.41c1.39,0,2.21,1.08,2.21,2.46v0.18h-3.71
			c0.06,0.87,0.66,1.59,1.64,1.59c0.53,0,1.06-0.21,1.43-0.59l0.34,0.46c-0.47,0.46-1.08,0.71-1.83,0.71
			C132.54,59.01,131.56,58.03,131.56,56.59z M133.82,54.78c-0.98,0-1.46,0.83-1.5,1.52h3.01C135.32,55.62,134.86,54.78,133.82,54.78
			z"/>
		<path class="st0" d="M137.08,58.89V54.3h0.71v0.73c0.37-0.48,0.9-0.84,1.53-0.84v0.73c-0.08-0.01-0.17-0.02-0.28-0.02
			c-0.45,0-1.05,0.36-1.25,0.73v3.25H137.08z"/>
		<path class="st0" d="M140,53.17c0-0.27,0.22-0.49,0.48-0.49s0.48,0.22,0.48,0.49c0,0.27-0.21,0.47-0.48,0.47S140,53.44,140,53.17z
			 M140.12,58.89V54.3h0.71v4.59H140.12z"/>
		<path class="st0" d="M145.27,58.89v-3c0-0.82-0.42-1.07-1.04-1.07c-0.56,0-1.08,0.34-1.36,0.71v3.36h-0.71V54.3h0.71v0.67
			c0.32-0.39,0.95-0.78,1.64-0.78c0.95,0,1.46,0.49,1.46,1.48v3.22H145.27z"/>
		<path class="st0" d="M147.3,60.06l0.36-0.51c0.38,0.45,0.84,0.62,1.49,0.62c0.76,0,1.48-0.37,1.48-1.34v-0.7
			c-0.34,0.47-0.9,0.82-1.55,0.82c-1.2,0-2.04-0.89-2.04-2.38c0-1.47,0.84-2.39,2.04-2.39c0.62,0,1.18,0.3,1.55,0.81V54.3h0.71v4.53
			c0,1.45-1.07,1.93-2.2,1.93C148.39,60.76,147.86,60.6,147.3,60.06z M150.64,57.57v-2.02c-0.26-0.39-0.81-0.73-1.37-0.73
			c-0.93,0-1.48,0.73-1.48,1.75c0,1.01,0.55,1.74,1.48,1.74C149.83,58.31,150.38,57.97,150.64,57.57z"/>
		<path class="st0" d="M155.55,58.89v-0.52c-0.37,0.42-0.9,0.64-1.52,0.64c-0.77,0-1.6-0.52-1.6-1.52c0-1.04,0.82-1.51,1.6-1.51
			c0.63,0,1.15,0.2,1.52,0.62v-0.83c0-0.61-0.49-0.96-1.16-0.96c-0.55,0-1,0.19-1.41,0.64l-0.33-0.49c0.49-0.51,1.08-0.76,1.83-0.76
			c0.98,0,1.78,0.44,1.78,1.55v3.16H155.55z M155.55,57.92v-0.87c-0.28-0.37-0.76-0.56-1.25-0.56c-0.67,0-1.14,0.42-1.14,1
			c0,0.59,0.47,1.01,1.14,1.01C154.79,58.49,155.28,58.3,155.55,57.92z"/>
		<path class="st0" d="M160.68,58.2v2.44h-0.71V54.3h0.71v0.68c0.33-0.46,0.9-0.8,1.55-0.8c1.21,0,2.04,0.91,2.04,2.41
			c0,1.48-0.84,2.41-2.04,2.41C161.6,59.01,161.06,58.7,160.68,58.2z M163.52,56.59c0-1.02-0.55-1.77-1.47-1.77
			c-0.56,0-1.12,0.33-1.37,0.73v2.07c0.25,0.4,0.81,0.74,1.37,0.74C162.97,58.37,163.52,57.61,163.52,56.59z"/>
		<path class="st0" d="M168.18,58.89v-0.52c-0.37,0.42-0.9,0.64-1.52,0.64c-0.77,0-1.6-0.52-1.6-1.52c0-1.04,0.82-1.51,1.6-1.51
			c0.63,0,1.15,0.2,1.52,0.62v-0.83c0-0.61-0.49-0.96-1.16-0.96c-0.55,0-1,0.19-1.41,0.64l-0.33-0.49c0.49-0.51,1.08-0.76,1.83-0.76
			c0.98,0,1.78,0.44,1.78,1.55v3.16H168.18z M168.18,57.92v-0.87c-0.28-0.37-0.76-0.56-1.25-0.56c-0.67,0-1.14,0.42-1.14,1
			c0,0.59,0.47,1.01,1.14,1.01C167.42,58.49,167.9,58.3,168.18,57.92z"/>
		<path class="st0" d="M170.23,58.89V54.3h0.71v0.73c0.37-0.48,0.9-0.84,1.53-0.84v0.73c-0.08-0.01-0.17-0.02-0.28-0.02
			c-0.45,0-1.05,0.36-1.25,0.73v3.25H170.23z"/>
		<path class="st0" d="M176.14,58.89v-0.52c-0.37,0.42-0.9,0.64-1.52,0.64c-0.77,0-1.6-0.52-1.6-1.52c0-1.04,0.82-1.51,1.6-1.51
			c0.63,0,1.15,0.2,1.52,0.62v-0.83c0-0.61-0.49-0.96-1.16-0.96c-0.55,0-1,0.19-1.41,0.64l-0.33-0.49c0.49-0.51,1.08-0.76,1.84-0.76
			c0.98,0,1.78,0.44,1.78,1.55v3.16H176.14z M176.14,57.92v-0.87c-0.28-0.37-0.76-0.56-1.25-0.56c-0.67,0-1.14,0.42-1.14,1
			c0,0.59,0.47,1.01,1.14,1.01C175.38,58.49,175.86,58.3,176.14,57.92z"/>
		<path class="st0" d="M183.43,58.89v-0.52c-0.37,0.42-0.9,0.64-1.52,0.64c-0.77,0-1.6-0.52-1.6-1.52c0-1.04,0.82-1.51,1.6-1.51
			c0.63,0,1.15,0.2,1.52,0.62v-0.83c0-0.61-0.49-0.96-1.16-0.96c-0.55,0-1,0.19-1.41,0.64l-0.33-0.49c0.49-0.51,1.08-0.76,1.83-0.76
			c0.98,0,1.78,0.44,1.78,1.55v3.16H183.43z M183.43,57.92v-0.87c-0.28-0.37-0.76-0.56-1.25-0.56c-0.67,0-1.14,0.42-1.14,1
			c0,0.59,0.47,1.01,1.14,1.01C182.66,58.49,183.15,58.3,183.43,57.92z"/>
		<path class="st0" d="M188.8,58.89v-0.69c-0.34,0.47-0.9,0.8-1.55,0.8c-1.2,0-2.04-0.91-2.04-2.4c0-1.47,0.85-2.42,2.04-2.42
			c0.62,0,1.18,0.3,1.55,0.81v-2.44h0.71v6.34H188.8z M188.8,57.64v-2.07c-0.25-0.4-0.81-0.74-1.37-0.74
			c-0.93,0-1.48,0.76-1.48,1.78c0,1.02,0.55,1.77,1.48,1.77C187.99,58.37,188.56,58.04,188.8,57.64z"/>
		<path class="st0" d="M196.38,58.89v-3.12c0-0.58-0.25-0.95-0.85-0.95c-0.48,0-0.98,0.33-1.22,0.7v3.37h-0.71v-3.12
			c0-0.58-0.24-0.95-0.85-0.95c-0.47,0-0.96,0.34-1.21,0.71v3.36h-0.71V54.3h0.71v0.67c0.2-0.29,0.81-0.78,1.49-0.78
			c0.69,0,1.09,0.38,1.23,0.86c0.26-0.42,0.88-0.86,1.54-0.86c0.84,0,1.28,0.47,1.28,1.39v3.32H196.38z"/>
		<path class="st0" d="M198.3,53.17c0-0.27,0.22-0.49,0.48-0.49c0.27,0,0.48,0.22,0.48,0.49c0,0.27-0.21,0.47-0.48,0.47
			C198.52,53.64,198.3,53.44,198.3,53.17z M198.42,58.89V54.3h0.71v4.59H198.42z"/>
		<path class="st0" d="M203.57,58.89v-3c0-0.82-0.42-1.07-1.04-1.07c-0.56,0-1.08,0.34-1.36,0.71v3.36h-0.71V54.3h0.71v0.67
			c0.32-0.39,0.95-0.78,1.64-0.78c0.95,0,1.46,0.49,1.46,1.48v3.22H203.57z"/>
		<path class="st0" d="M205.49,53.17c0-0.27,0.22-0.49,0.48-0.49s0.48,0.22,0.48,0.49c0,0.27-0.21,0.47-0.48,0.47
			S205.49,53.44,205.49,53.17z M205.61,58.89V54.3h0.71v4.59H205.61z"/>
		<path class="st0" d="M207.27,58.28l0.36-0.51c0.3,0.35,0.88,0.66,1.51,0.66c0.7,0,1.09-0.33,1.09-0.79c0-1.11-2.84-0.43-2.84-2.13
			c0-0.72,0.61-1.32,1.7-1.32c0.79,0,1.34,0.29,1.7,0.67l-0.33,0.49c-0.28-0.33-0.77-0.58-1.37-0.58c-0.63,0-1.02,0.31-1.02,0.72
			c0,1,2.84,0.34,2.84,2.13c0,0.77-0.62,1.39-1.8,1.39C208.36,59.01,207.73,58.77,207.27,58.28z"/>
		<path class="st0" d="M212.12,57.93v-3h-0.76V54.3h0.76v-1.25h0.72v1.25h0.93v0.63h-0.93v2.85c0,0.34,0.15,0.59,0.46,0.59
			c0.21,0,0.39-0.09,0.49-0.2l0.21,0.54c-0.18,0.17-0.44,0.29-0.85,0.29C212.46,59.01,212.12,58.62,212.12,57.93z"/>
		<path class="st0" d="M214.68,58.89V54.3h0.71v0.73c0.37-0.48,0.9-0.84,1.53-0.84v0.73c-0.08-0.01-0.17-0.02-0.28-0.02
			c-0.45,0-1.05,0.36-1.25,0.73v3.25H214.68z"/>
		<path class="st0" d="M220.59,58.89v-0.52c-0.37,0.42-0.9,0.64-1.52,0.64c-0.77,0-1.6-0.52-1.6-1.52c0-1.04,0.82-1.51,1.6-1.51
			c0.63,0,1.15,0.2,1.52,0.62v-0.83c0-0.61-0.49-0.96-1.16-0.96c-0.55,0-1,0.19-1.41,0.64l-0.33-0.49c0.49-0.51,1.08-0.76,1.84-0.76
			c0.98,0,1.78,0.44,1.78,1.55v3.16H220.59z M220.59,57.92v-0.87c-0.28-0.37-0.76-0.56-1.26-0.56c-0.67,0-1.14,0.42-1.14,1
			c0,0.59,0.47,1.01,1.14,1.01C219.83,58.49,220.31,58.3,220.59,57.92z"/>
		<path class="st0" d="M222.37,56.59c0-1.36,0.92-2.41,2.29-2.41c0.84,0,1.33,0.34,1.68,0.8l-0.47,0.43
			c-0.3-0.42-0.69-0.59-1.17-0.59c-0.97,0-1.59,0.75-1.59,1.77c0,1.02,0.62,1.78,1.59,1.78c0.48,0,0.87-0.19,1.17-0.6l0.47,0.44
			c-0.35,0.46-0.85,0.8-1.68,0.8C223.29,59.01,222.37,57.95,222.37,56.59z"/>
		<path class="st0" d="M227.13,53.17c0-0.27,0.22-0.49,0.48-0.49c0.27,0,0.48,0.22,0.48,0.49c0,0.27-0.21,0.47-0.48,0.47
			C227.35,53.64,227.13,53.44,227.13,53.17z M227.25,58.89V54.3h0.71v4.59H227.25z"/>
		<path class="st0" d="M229.03,56.59c0-1.33,0.87-2.41,2.27-2.41c1.4,0,2.27,1.07,2.27,2.41c0,1.33-0.88,2.41-2.27,2.41
			C229.91,59.01,229.03,57.92,229.03,56.59z M232.83,56.59c0-0.93-0.54-1.77-1.52-1.77c-0.98,0-1.52,0.84-1.52,1.77
			c0,0.94,0.54,1.78,1.52,1.78C232.28,58.37,232.83,57.53,232.83,56.59z M231.22,53.61h-0.54l1.41-1.37h0.74L231.22,53.61z"/>
		<path class="st0" d="M237.74,58.89v-3c0-0.82-0.42-1.07-1.04-1.07c-0.56,0-1.08,0.34-1.36,0.71v3.36h-0.71V54.3h0.71v0.67
			c0.32-0.39,0.95-0.78,1.64-0.78c0.95,0,1.46,0.49,1.46,1.48v3.22H237.74z"/>
		<path class="st0" d="M241.89,56.59c0-1.33,0.87-2.41,2.27-2.41c1.4,0,2.27,1.07,2.27,2.41c0,1.33-0.88,2.41-2.27,2.41
			C242.76,59.01,241.89,57.92,241.89,56.59z M245.68,56.59c0-0.93-0.54-1.77-1.52-1.77c-0.98,0-1.52,0.84-1.52,1.77
			c0,0.94,0.54,1.78,1.52,1.78C245.14,58.37,245.68,57.53,245.68,56.59z"/>
		<path class="st0" d="M247.49,58.89V54.3h0.71v0.73c0.37-0.48,0.9-0.84,1.53-0.84v0.73c-0.09-0.01-0.17-0.02-0.28-0.02
			c-0.45,0-1.05,0.36-1.26,0.73v3.25H247.49z"/>
		<path class="st0" d="M253.4,58.89v-0.52c-0.37,0.42-0.9,0.64-1.52,0.64c-0.77,0-1.6-0.52-1.6-1.52c0-1.04,0.82-1.51,1.6-1.51
			c0.63,0,1.15,0.2,1.52,0.62v-0.83c0-0.61-0.49-0.96-1.16-0.96c-0.55,0-1,0.19-1.41,0.64l-0.33-0.49c0.49-0.51,1.08-0.76,1.84-0.76
			c0.98,0,1.78,0.44,1.78,1.55v3.16H253.4z M253.4,57.92v-0.87c-0.28-0.37-0.76-0.56-1.26-0.56c-0.67,0-1.14,0.42-1.14,1
			c0,0.59,0.47,1.01,1.14,1.01C252.64,58.49,253.13,58.3,253.4,57.92z"/>
		<path class="st0" d="M255.45,58.89v-6.34h0.71v6.34H255.45z"/>
		<path class="st0" d="M263.18,58.89v-0.69c-0.34,0.47-0.9,0.8-1.55,0.8c-1.2,0-2.04-0.91-2.04-2.4c0-1.47,0.85-2.42,2.04-2.42
			c0.62,0,1.18,0.3,1.55,0.81v-2.44h0.71v6.34H263.18z M263.18,57.64v-2.07c-0.25-0.4-0.81-0.74-1.37-0.74
			c-0.93,0-1.48,0.76-1.48,1.78c0,1.02,0.55,1.77,1.48,1.77C262.38,58.37,262.94,58.04,263.18,57.64z"/>
		<path class="st0" d="M264.96,56.59c0-1.33,0.95-2.41,2.26-2.41c1.39,0,2.21,1.08,2.21,2.46v0.18h-3.71
			c0.06,0.87,0.66,1.59,1.64,1.59c0.53,0,1.05-0.21,1.43-0.59l0.34,0.46c-0.46,0.46-1.08,0.71-1.82,0.71
			C265.94,59.01,264.96,58.03,264.96,56.59z M267.21,54.78c-0.98,0-1.46,0.83-1.5,1.52h3.01C268.71,55.62,268.26,54.78,267.21,54.78
			z"/>
		<path class="st0" d="M273.82,58.89v-5.3l-1.02,1.08l-0.47-0.49l1.59-1.64h0.69v6.34H273.82z"/>
		<path class="st0" d="M283.88,58.89v-3.12c0-0.58-0.25-0.95-0.85-0.95c-0.48,0-0.98,0.33-1.22,0.7v3.37h-0.71v-3.12
			c0-0.58-0.24-0.95-0.85-0.95c-0.46,0-0.96,0.34-1.21,0.71v3.36h-0.71V54.3h0.71v0.67c0.2-0.29,0.81-0.78,1.49-0.78
			c0.7,0,1.09,0.38,1.23,0.86c0.26-0.42,0.88-0.86,1.54-0.86c0.84,0,1.28,0.47,1.28,1.39v3.32H283.88z"/>
		<path class="st0" d="M285.92,58.89v-6.34h0.71v6.34H285.92z"/>
	</g>
	<g>
		<path class="st0" d="M93.73,74.35v-3.88h0.8v3.86c0,1.16,0.62,1.89,1.79,1.89c1.17,0,1.8-0.73,1.8-1.89v-3.86h0.8v3.87
			c0,1.58-0.88,2.59-2.6,2.59C94.61,76.92,93.73,75.91,93.73,74.35z"/>
		<path class="st0" d="M99.88,76.2l0.36-0.51c0.3,0.35,0.88,0.66,1.51,0.66c0.7,0,1.09-0.33,1.09-0.79c0-1.11-2.84-0.43-2.84-2.13
			c0-0.72,0.61-1.32,1.7-1.32c0.79,0,1.34,0.29,1.7,0.66l-0.33,0.49c-0.28-0.33-0.77-0.58-1.37-0.58c-0.63,0-1.02,0.31-1.02,0.72
			c0,1,2.84,0.34,2.84,2.13c0,0.77-0.62,1.39-1.8,1.39C100.97,76.92,100.35,76.69,99.88,76.2z"/>
		<path class="st0" d="M104.33,74.51c0-1.33,0.95-2.41,2.26-2.41c1.39,0,2.21,1.08,2.21,2.46v0.18h-3.71
			c0.06,0.87,0.66,1.59,1.64,1.59c0.53,0,1.06-0.21,1.43-0.59l0.34,0.46c-0.47,0.46-1.08,0.71-1.83,0.71
			C105.31,76.92,104.33,75.95,104.33,74.51z M106.58,72.69c-0.98,0-1.46,0.83-1.5,1.52h3.01C108.08,73.54,107.63,72.69,106.58,72.69
			z"/>
		<path class="st0" d="M115.31,76.81v-0.65c-0.35,0.4-0.95,0.76-1.63,0.76c-0.96,0-1.46-0.47-1.46-1.46v-3.24h0.71v3.02
			c0,0.81,0.41,1.04,1.04,1.04c0.55,0,1.08-0.32,1.35-0.69v-3.38h0.71v4.59H115.31z"/>
		<path class="st0" d="M120.46,76.81v-3c0-0.82-0.42-1.07-1.04-1.07c-0.56,0-1.08,0.34-1.36,0.71v3.36h-0.71v-4.59h0.71v0.67
			c0.32-0.39,0.95-0.78,1.64-0.78c0.95,0,1.46,0.49,1.46,1.48v3.22H120.46z"/>
		<path class="st0" d="M125.37,76.81v-0.52c-0.37,0.42-0.9,0.64-1.52,0.64c-0.77,0-1.6-0.52-1.6-1.52c0-1.04,0.82-1.51,1.6-1.51
			c0.63,0,1.15,0.2,1.52,0.62v-0.83c0-0.61-0.49-0.96-1.16-0.96c-0.55,0-1,0.19-1.41,0.64l-0.33-0.49c0.49-0.51,1.08-0.76,1.83-0.76
			c0.98,0,1.78,0.44,1.78,1.55v3.16H125.37z M125.37,75.84v-0.87c-0.28-0.37-0.76-0.56-1.25-0.56c-0.67,0-1.14,0.42-1.14,1
			c0,0.59,0.47,1.01,1.14,1.01C124.61,76.41,125.1,76.22,125.37,75.84z"/>
		<path class="st0" d="M128.14,78.33l0.25-0.53c0.16,0.16,0.37,0.29,0.66,0.29c0.43,0,0.74-0.25,0.74-0.83v-5.04h0.71v5.04
			c0,0.9-0.48,1.42-1.36,1.42C128.67,78.67,128.43,78.56,128.14,78.33z M129.66,71.09c0-0.27,0.22-0.49,0.48-0.49
			c0.27,0,0.48,0.22,0.48,0.49c0,0.27-0.21,0.47-0.48,0.47C129.88,71.56,129.66,71.35,129.66,71.09z"/>
		<path class="st0" d="M131.56,74.51c0-1.33,0.95-2.41,2.26-2.41c1.39,0,2.21,1.08,2.21,2.46v0.18h-3.71
			c0.06,0.87,0.66,1.59,1.64,1.59c0.53,0,1.06-0.21,1.43-0.59l0.34,0.46c-0.47,0.46-1.08,0.71-1.83,0.71
			C132.54,76.92,131.56,75.95,131.56,74.51z M133.82,72.69c-0.98,0-1.46,0.83-1.5,1.52h3.01C135.32,73.54,134.86,72.69,133.82,72.69
			z"/>
		<path class="st0" d="M137.08,76.81v-4.59h0.71v0.73c0.37-0.48,0.9-0.84,1.53-0.84v0.73c-0.08-0.01-0.17-0.02-0.28-0.02
			c-0.45,0-1.05,0.36-1.25,0.73v3.25H137.08z"/>
		<path class="st0" d="M140,71.09c0-0.27,0.22-0.49,0.48-0.49s0.48,0.22,0.48,0.49c0,0.27-0.21,0.47-0.48,0.47S140,71.35,140,71.09z
			 M140.12,76.81v-4.59h0.71v4.59H140.12z"/>
		<path class="st0" d="M145.27,76.81v-3c0-0.82-0.42-1.07-1.04-1.07c-0.56,0-1.08,0.34-1.36,0.71v3.36h-0.71v-4.59h0.71v0.67
			c0.32-0.39,0.95-0.78,1.64-0.78c0.95,0,1.46,0.49,1.46,1.48v3.22H145.27z"/>
		<path class="st0" d="M147.3,77.98l0.36-0.51c0.38,0.45,0.84,0.62,1.49,0.62c0.76,0,1.48-0.37,1.48-1.34v-0.7
			c-0.34,0.47-0.9,0.82-1.55,0.82c-1.2,0-2.04-0.89-2.04-2.38c0-1.47,0.84-2.39,2.04-2.39c0.62,0,1.18,0.3,1.55,0.81v-0.69h0.71
			v4.53c0,1.45-1.07,1.93-2.2,1.93C148.39,78.67,147.86,78.52,147.3,77.98z M150.64,75.49v-2.02c-0.26-0.39-0.81-0.73-1.37-0.73
			c-0.93,0-1.48,0.73-1.48,1.75c0,1.01,0.55,1.74,1.48,1.74C149.83,76.23,150.38,75.89,150.64,75.49z"/>
		<path class="st0" d="M155.55,76.81v-0.52c-0.37,0.42-0.9,0.64-1.52,0.64c-0.77,0-1.6-0.52-1.6-1.52c0-1.04,0.82-1.51,1.6-1.51
			c0.63,0,1.15,0.2,1.52,0.62v-0.83c0-0.61-0.49-0.96-1.16-0.96c-0.55,0-1,0.19-1.41,0.64l-0.33-0.49c0.49-0.51,1.08-0.76,1.83-0.76
			c0.98,0,1.78,0.44,1.78,1.55v3.16H155.55z M155.55,75.84v-0.87c-0.28-0.37-0.76-0.56-1.25-0.56c-0.67,0-1.14,0.42-1.14,1
			c0,0.59,0.47,1.01,1.14,1.01C154.79,76.41,155.28,76.22,155.55,75.84z"/>
		<path class="st0" d="M160.68,76.12v2.44h-0.71v-6.34h0.71v0.68c0.33-0.46,0.9-0.8,1.55-0.8c1.21,0,2.04,0.91,2.04,2.41
			c0,1.48-0.84,2.41-2.04,2.41C161.6,76.92,161.06,76.62,160.68,76.12z M163.52,74.51c0-1.02-0.55-1.77-1.47-1.77
			c-0.56,0-1.12,0.33-1.37,0.73v2.07c0.25,0.4,0.81,0.74,1.37,0.74C162.97,76.29,163.52,75.53,163.52,74.51z"/>
		<path class="st0" d="M168.18,76.81v-0.52c-0.37,0.42-0.9,0.64-1.52,0.64c-0.77,0-1.6-0.52-1.6-1.52c0-1.04,0.82-1.51,1.6-1.51
			c0.63,0,1.15,0.2,1.52,0.62v-0.83c0-0.61-0.49-0.96-1.16-0.96c-0.55,0-1,0.19-1.41,0.64l-0.33-0.49c0.49-0.51,1.08-0.76,1.83-0.76
			c0.98,0,1.78,0.44,1.78,1.55v3.16H168.18z M168.18,75.84v-0.87c-0.28-0.37-0.76-0.56-1.25-0.56c-0.67,0-1.14,0.42-1.14,1
			c0,0.59,0.47,1.01,1.14,1.01C167.42,76.41,167.9,76.22,168.18,75.84z"/>
		<path class="st0" d="M170.23,76.81v-4.59h0.71v0.73c0.37-0.48,0.9-0.84,1.53-0.84v0.73c-0.08-0.01-0.17-0.02-0.28-0.02
			c-0.45,0-1.05,0.36-1.25,0.73v3.25H170.23z"/>
		<path class="st0" d="M176.14,76.81v-0.52c-0.37,0.42-0.9,0.64-1.52,0.64c-0.77,0-1.6-0.52-1.6-1.52c0-1.04,0.82-1.51,1.6-1.51
			c0.63,0,1.15,0.2,1.52,0.62v-0.83c0-0.61-0.49-0.96-1.16-0.96c-0.55,0-1,0.19-1.41,0.64l-0.33-0.49c0.49-0.51,1.08-0.76,1.84-0.76
			c0.98,0,1.78,0.44,1.78,1.55v3.16H176.14z M176.14,75.84v-0.87c-0.28-0.37-0.76-0.56-1.25-0.56c-0.67,0-1.14,0.42-1.14,1
			c0,0.59,0.47,1.01,1.14,1.01C175.38,76.41,175.86,76.22,176.14,75.84z"/>
		<path class="st0" d="M183.43,76.81v-0.52c-0.37,0.42-0.9,0.64-1.52,0.64c-0.77,0-1.6-0.52-1.6-1.52c0-1.04,0.82-1.51,1.6-1.51
			c0.63,0,1.15,0.2,1.52,0.62v-0.83c0-0.61-0.49-0.96-1.16-0.96c-0.55,0-1,0.19-1.41,0.64l-0.33-0.49c0.49-0.51,1.08-0.76,1.83-0.76
			c0.98,0,1.78,0.44,1.78,1.55v3.16H183.43z M183.43,75.84v-0.87c-0.28-0.37-0.76-0.56-1.25-0.56c-0.67,0-1.14,0.42-1.14,1
			c0,0.59,0.47,1.01,1.14,1.01C182.66,76.41,183.15,76.22,183.43,75.84z"/>
		<path class="st0" d="M188.8,76.81v-0.69c-0.34,0.47-0.9,0.8-1.55,0.8c-1.2,0-2.04-0.91-2.04-2.4c0-1.47,0.85-2.41,2.04-2.41
			c0.62,0,1.18,0.3,1.55,0.81v-2.44h0.71v6.34H188.8z M188.8,75.55v-2.07c-0.25-0.4-0.81-0.74-1.37-0.74
			c-0.93,0-1.48,0.76-1.48,1.78c0,1.02,0.55,1.77,1.48,1.77C187.99,76.29,188.56,75.96,188.8,75.55z"/>
		<path class="st0" d="M196.38,76.81v-3.12c0-0.58-0.25-0.95-0.85-0.95c-0.48,0-0.98,0.33-1.22,0.7v3.37h-0.71v-3.12
			c0-0.58-0.24-0.95-0.85-0.95c-0.47,0-0.96,0.34-1.21,0.71v3.36h-0.71v-4.59h0.71v0.67c0.2-0.29,0.81-0.78,1.49-0.78
			c0.69,0,1.09,0.38,1.23,0.86c0.26-0.42,0.88-0.86,1.54-0.86c0.84,0,1.28,0.47,1.28,1.39v3.32H196.38z"/>
		<path class="st0" d="M198.3,71.09c0-0.27,0.22-0.49,0.48-0.49c0.27,0,0.48,0.22,0.48,0.49c0,0.27-0.21,0.47-0.48,0.47
			C198.52,71.56,198.3,71.35,198.3,71.09z M198.42,76.81v-4.59h0.71v4.59H198.42z"/>
		<path class="st0" d="M203.57,76.81v-3c0-0.82-0.42-1.07-1.04-1.07c-0.56,0-1.08,0.34-1.36,0.71v3.36h-0.71v-4.59h0.71v0.67
			c0.32-0.39,0.95-0.78,1.64-0.78c0.95,0,1.46,0.49,1.46,1.48v3.22H203.57z"/>
		<path class="st0" d="M205.49,71.09c0-0.27,0.22-0.49,0.48-0.49s0.48,0.22,0.48,0.49c0,0.27-0.21,0.47-0.48,0.47
			S205.49,71.35,205.49,71.09z M205.61,76.81v-4.59h0.71v4.59H205.61z"/>
		<path class="st0" d="M207.27,76.2l0.36-0.51c0.3,0.35,0.88,0.66,1.51,0.66c0.7,0,1.09-0.33,1.09-0.79c0-1.11-2.84-0.43-2.84-2.13
			c0-0.72,0.61-1.32,1.7-1.32c0.79,0,1.34,0.29,1.7,0.66l-0.33,0.49c-0.28-0.33-0.77-0.58-1.37-0.58c-0.63,0-1.02,0.31-1.02,0.72
			c0,1,2.84,0.34,2.84,2.13c0,0.77-0.62,1.39-1.8,1.39C208.36,76.92,207.73,76.69,207.27,76.2z"/>
		<path class="st0" d="M212.12,75.85v-3h-0.76v-0.63h0.76v-1.25h0.72v1.25h0.93v0.63h-0.93v2.85c0,0.34,0.15,0.59,0.46,0.59
			c0.21,0,0.39-0.09,0.49-0.2l0.21,0.54c-0.18,0.17-0.44,0.29-0.85,0.29C212.46,76.92,212.12,76.53,212.12,75.85z"/>
		<path class="st0" d="M214.68,76.81v-4.59h0.71v0.73c0.37-0.48,0.9-0.84,1.53-0.84v0.73c-0.08-0.01-0.17-0.02-0.28-0.02
			c-0.45,0-1.05,0.36-1.25,0.73v3.25H214.68z"/>
		<path class="st0" d="M220.59,76.81v-0.52c-0.37,0.42-0.9,0.64-1.52,0.64c-0.77,0-1.6-0.52-1.6-1.52c0-1.04,0.82-1.51,1.6-1.51
			c0.63,0,1.15,0.2,1.52,0.62v-0.83c0-0.61-0.49-0.96-1.16-0.96c-0.55,0-1,0.19-1.41,0.64l-0.33-0.49c0.49-0.51,1.08-0.76,1.84-0.76
			c0.98,0,1.78,0.44,1.78,1.55v3.16H220.59z M220.59,75.84v-0.87c-0.28-0.37-0.76-0.56-1.26-0.56c-0.67,0-1.14,0.42-1.14,1
			c0,0.59,0.47,1.01,1.14,1.01C219.83,76.41,220.31,76.22,220.59,75.84z"/>
		<path class="st0" d="M222.37,74.51c0-1.36,0.92-2.41,2.29-2.41c0.84,0,1.33,0.34,1.68,0.8l-0.47,0.43
			c-0.3-0.42-0.69-0.59-1.17-0.59c-0.97,0-1.59,0.75-1.59,1.77c0,1.02,0.62,1.78,1.59,1.78c0.48,0,0.87-0.19,1.17-0.6l0.47,0.44
			c-0.35,0.46-0.85,0.8-1.68,0.8C223.29,76.92,222.37,75.87,222.37,74.51z"/>
		<path class="st0" d="M227.13,71.09c0-0.27,0.22-0.49,0.48-0.49c0.27,0,0.48,0.22,0.48,0.49c0,0.27-0.21,0.47-0.48,0.47
			C227.35,71.56,227.13,71.35,227.13,71.09z M227.25,76.81v-4.59h0.71v4.59H227.25z"/>
		<path class="st0" d="M229.03,74.51c0-1.33,0.87-2.41,2.27-2.41c1.4,0,2.27,1.07,2.27,2.41c0,1.33-0.88,2.41-2.27,2.41
			C229.91,76.92,229.03,75.84,229.03,74.51z M232.83,74.51c0-0.93-0.54-1.77-1.52-1.77c-0.98,0-1.52,0.84-1.52,1.77
			c0,0.94,0.54,1.78,1.52,1.78C232.28,76.29,232.83,75.45,232.83,74.51z M231.22,71.52h-0.54l1.41-1.37h0.74L231.22,71.52z"/>
		<path class="st0" d="M237.74,76.81v-3c0-0.82-0.42-1.07-1.04-1.07c-0.56,0-1.08,0.34-1.36,0.71v3.36h-0.71v-4.59h0.71v0.67
			c0.32-0.39,0.95-0.78,1.64-0.78c0.95,0,1.46,0.49,1.46,1.48v3.22H237.74z"/>
		<path class="st0" d="M241.89,74.51c0-1.33,0.87-2.41,2.27-2.41c1.4,0,2.27,1.07,2.27,2.41c0,1.33-0.88,2.41-2.27,2.41
			C242.76,76.92,241.89,75.84,241.89,74.51z M245.68,74.51c0-0.93-0.54-1.77-1.52-1.77c-0.98,0-1.52,0.84-1.52,1.77
			c0,0.94,0.54,1.78,1.52,1.78C245.14,76.29,245.68,75.45,245.68,74.51z"/>
		<path class="st0" d="M247.49,76.81v-4.59h0.71v0.73c0.37-0.48,0.9-0.84,1.53-0.84v0.73c-0.09-0.01-0.17-0.02-0.28-0.02
			c-0.45,0-1.05,0.36-1.26,0.73v3.25H247.49z"/>
		<path class="st0" d="M253.4,76.81v-0.52c-0.37,0.42-0.9,0.64-1.52,0.64c-0.77,0-1.6-0.52-1.6-1.52c0-1.04,0.82-1.51,1.6-1.51
			c0.63,0,1.15,0.2,1.52,0.62v-0.83c0-0.61-0.49-0.96-1.16-0.96c-0.55,0-1,0.19-1.41,0.64l-0.33-0.49c0.49-0.51,1.08-0.76,1.84-0.76
			c0.98,0,1.78,0.44,1.78,1.55v3.16H253.4z M253.4,75.84v-0.87c-0.28-0.37-0.76-0.56-1.26-0.56c-0.67,0-1.14,0.42-1.14,1
			c0,0.59,0.47,1.01,1.14,1.01C252.64,76.41,253.13,76.22,253.4,75.84z"/>
		<path class="st0" d="M255.45,76.81v-6.34h0.71v6.34H255.45z"/>
		<path class="st0" d="M263.18,76.81v-0.69c-0.34,0.47-0.9,0.8-1.55,0.8c-1.2,0-2.04-0.91-2.04-2.4c0-1.47,0.85-2.41,2.04-2.41
			c0.62,0,1.18,0.3,1.55,0.81v-2.44h0.71v6.34H263.18z M263.18,75.55v-2.07c-0.25-0.4-0.81-0.74-1.37-0.74
			c-0.93,0-1.48,0.76-1.48,1.78c0,1.02,0.55,1.77,1.48,1.77C262.38,76.29,262.94,75.96,263.18,75.55z"/>
		<path class="st0" d="M264.96,74.51c0-1.33,0.95-2.41,2.26-2.41c1.39,0,2.21,1.08,2.21,2.46v0.18h-3.71
			c0.06,0.87,0.66,1.59,1.64,1.59c0.53,0,1.05-0.21,1.43-0.59l0.34,0.46c-0.46,0.46-1.08,0.71-1.82,0.71
			C265.94,76.92,264.96,75.95,264.96,74.51z M267.21,72.69c-0.98,0-1.46,0.83-1.5,1.52h3.01C268.71,73.54,268.26,72.69,267.21,72.69
			z"/>
		<path class="st0" d="M272.76,75.91l0.48-0.53c0.42,0.54,0.98,0.85,1.75,0.85c0.87,0,1.46-0.59,1.46-1.36
			c0-0.84-0.6-1.37-1.45-1.37c-0.55,0-1.04,0.18-1.46,0.59l-0.58-0.2v-3.41h3.88v0.7h-3.09v2.21c0.31-0.3,0.85-0.57,1.48-0.57
			c1.07,0,2.03,0.71,2.03,2.02c0,1.28-0.99,2.09-2.26,2.09C273.93,76.92,273.23,76.53,272.76,75.91z"/>
		<path class="st0" d="M286.26,76.81v-3.12c0-0.58-0.25-0.95-0.85-0.95c-0.47,0-0.98,0.33-1.22,0.7v3.37h-0.71v-3.12
			c0-0.58-0.24-0.95-0.85-0.95c-0.47,0-0.96,0.34-1.21,0.71v3.36h-0.71v-4.59h0.71v0.67c0.2-0.29,0.81-0.78,1.49-0.78
			c0.69,0,1.09,0.38,1.23,0.86c0.26-0.42,0.88-0.86,1.54-0.86c0.84,0,1.28,0.47,1.28,1.39v3.32H286.26z"/>
		<path class="st0" d="M288.3,76.81v-6.34h0.71v6.34H288.3z"/>
		<path class="st0" d="M295.81,76.81v-0.65c-0.35,0.4-0.95,0.76-1.63,0.76c-0.96,0-1.46-0.47-1.46-1.46v-3.24h0.71v3.02
			c0,0.81,0.41,1.04,1.04,1.04c0.55,0,1.08-0.32,1.35-0.69v-3.38h0.71v4.59H295.81z"/>
		<path class="st0" d="M300.96,76.81v-3c0-0.82-0.42-1.07-1.04-1.07c-0.56,0-1.08,0.34-1.36,0.71v3.36h-0.71v-4.59h0.71v0.67
			c0.32-0.39,0.95-0.78,1.64-0.78c0.95,0,1.46,0.49,1.46,1.48v3.22H300.96z"/>
		<path class="st0" d="M305.87,76.81v-0.52c-0.37,0.42-0.9,0.64-1.52,0.64c-0.77,0-1.6-0.52-1.6-1.52c0-1.04,0.82-1.51,1.6-1.51
			c0.63,0,1.15,0.2,1.52,0.62v-0.83c0-0.61-0.49-0.96-1.16-0.96c-0.55,0-1,0.19-1.41,0.64l-0.33-0.49c0.49-0.51,1.08-0.76,1.84-0.76
			c0.98,0,1.78,0.44,1.78,1.55v3.16H305.87z M305.87,75.84v-0.87c-0.28-0.37-0.76-0.56-1.26-0.56c-0.67,0-1.14,0.42-1.14,1
			c0,0.59,0.47,1.01,1.14,1.01C305.11,76.41,305.59,76.22,305.87,75.84z"/>
		<path class="st0" d="M311.51,76.81l-1.91-4.59h0.78l1.52,3.76l1.53-3.76h0.77l-1.91,4.59H311.51z"/>
		<path class="st0" d="M314.58,74.51c0-1.33,0.95-2.41,2.26-2.41c1.39,0,2.21,1.08,2.21,2.46v0.18h-3.71
			c0.06,0.87,0.66,1.59,1.64,1.59c0.53,0,1.06-0.21,1.43-0.59l0.34,0.46c-0.47,0.46-1.08,0.71-1.83,0.71
			C315.56,76.92,314.58,75.95,314.58,74.51z M316.83,72.69c-0.98,0-1.46,0.83-1.5,1.52h3.01C318.33,73.54,317.88,72.69,316.83,72.69
			z"/>
		<path class="st0" d="M319.88,76.81v-0.56l2.53-3.4h-2.53v-0.63h3.46v0.54l-2.55,3.42h2.59v0.63H319.88z"/>
	</g>
	<g>
		<path class="st0" d="M93.73,92.27v-3.88h0.8v3.86c0,1.16,0.62,1.89,1.79,1.89c1.17,0,1.8-0.73,1.8-1.89v-3.86h0.8v3.87
			c0,1.58-0.88,2.59-2.6,2.59C94.61,94.84,93.73,93.82,93.73,92.27z"/>
		<path class="st0" d="M99.88,94.12l0.36-0.51c0.3,0.35,0.88,0.66,1.51,0.66c0.7,0,1.09-0.33,1.09-0.79c0-1.11-2.84-0.43-2.84-2.13
			c0-0.72,0.61-1.32,1.7-1.32c0.79,0,1.34,0.29,1.7,0.67l-0.33,0.49c-0.28-0.33-0.77-0.58-1.37-0.58c-0.63,0-1.02,0.31-1.02,0.72
			c0,1,2.84,0.34,2.84,2.13c0,0.77-0.62,1.39-1.8,1.39C100.97,94.84,100.35,94.6,99.88,94.12z"/>
		<path class="st0" d="M104.33,92.43c0-1.33,0.95-2.41,2.26-2.41c1.39,0,2.21,1.08,2.21,2.46v0.18h-3.71
			c0.06,0.87,0.66,1.59,1.64,1.59c0.53,0,1.06-0.21,1.43-0.59l0.34,0.46c-0.47,0.46-1.08,0.71-1.83,0.71
			C105.31,94.84,104.33,93.86,104.33,92.43z M106.58,90.61c-0.98,0-1.46,0.83-1.5,1.52h3.01C108.08,91.46,107.63,90.61,106.58,90.61
			z"/>
		<path class="st0" d="M115.31,94.73v-0.65c-0.35,0.4-0.95,0.76-1.63,0.76c-0.96,0-1.46-0.47-1.46-1.46v-3.24h0.71v3.02
			c0,0.81,0.41,1.04,1.04,1.04c0.55,0,1.08-0.32,1.35-0.69v-3.38h0.71v4.59H115.31z"/>
		<path class="st0" d="M120.46,94.73v-3c0-0.82-0.42-1.07-1.04-1.07c-0.56,0-1.08,0.34-1.36,0.71v3.36h-0.71v-4.59h0.71v0.67
			c0.32-0.39,0.95-0.78,1.64-0.78c0.95,0,1.46,0.49,1.46,1.48v3.22H120.46z"/>
		<path class="st0" d="M125.37,94.73v-0.52c-0.37,0.42-0.9,0.64-1.52,0.64c-0.77,0-1.6-0.52-1.6-1.52c0-1.04,0.82-1.51,1.6-1.51
			c0.63,0,1.15,0.2,1.52,0.62V91.6c0-0.61-0.49-0.96-1.16-0.96c-0.55,0-1,0.19-1.41,0.64l-0.33-0.49c0.49-0.51,1.08-0.76,1.83-0.76
			c0.98,0,1.78,0.44,1.78,1.55v3.16H125.37z M125.37,93.76v-0.87c-0.28-0.37-0.76-0.56-1.25-0.56c-0.67,0-1.14,0.42-1.14,1
			c0,0.59,0.47,1.01,1.14,1.01C124.61,94.33,125.1,94.14,125.37,93.76z"/>
		<path class="st0" d="M128.14,96.25l0.25-0.53c0.16,0.16,0.37,0.29,0.66,0.29c0.43,0,0.74-0.25,0.74-0.83v-5.04h0.71v5.04
			c0,0.9-0.48,1.42-1.36,1.42C128.67,96.59,128.43,96.48,128.14,96.25z M129.66,89.01c0-0.27,0.22-0.49,0.48-0.49
			c0.27,0,0.48,0.22,0.48,0.49c0,0.27-0.21,0.47-0.48,0.47C129.88,89.48,129.66,89.27,129.66,89.01z"/>
		<path class="st0" d="M131.56,92.43c0-1.33,0.95-2.41,2.26-2.41c1.39,0,2.21,1.08,2.21,2.46v0.18h-3.71
			c0.06,0.87,0.66,1.59,1.64,1.59c0.53,0,1.06-0.21,1.43-0.59l0.34,0.46c-0.47,0.46-1.08,0.71-1.83,0.71
			C132.54,94.84,131.56,93.86,131.56,92.43z M133.82,90.61c-0.98,0-1.46,0.83-1.5,1.52h3.01C135.32,91.46,134.86,90.61,133.82,90.61
			z"/>
		<path class="st0" d="M137.08,94.73v-4.59h0.71v0.73c0.37-0.48,0.9-0.84,1.53-0.84v0.73c-0.08-0.01-0.17-0.02-0.28-0.02
			c-0.45,0-1.05,0.36-1.25,0.73v3.25H137.08z"/>
		<path class="st0" d="M140,89.01c0-0.27,0.22-0.49,0.48-0.49s0.48,0.22,0.48,0.49c0,0.27-0.21,0.47-0.48,0.47S140,89.27,140,89.01z
			 M140.12,94.73v-4.59h0.71v4.59H140.12z"/>
		<path class="st0" d="M145.27,94.73v-3c0-0.82-0.42-1.07-1.04-1.07c-0.56,0-1.08,0.34-1.36,0.71v3.36h-0.71v-4.59h0.71v0.67
			c0.32-0.39,0.95-0.78,1.64-0.78c0.95,0,1.46,0.49,1.46,1.48v3.22H145.27z"/>
		<path class="st0" d="M147.3,95.9l0.36-0.51c0.38,0.45,0.84,0.62,1.49,0.62c0.76,0,1.48-0.37,1.48-1.34v-0.7
			c-0.34,0.47-0.9,0.82-1.55,0.82c-1.2,0-2.04-0.89-2.04-2.38c0-1.47,0.84-2.39,2.04-2.39c0.62,0,1.18,0.3,1.55,0.81v-0.69h0.71
			v4.53c0,1.45-1.07,1.93-2.2,1.93C148.39,96.59,147.86,96.44,147.3,95.9z M150.64,93.41v-2.02c-0.26-0.39-0.81-0.73-1.37-0.73
			c-0.93,0-1.48,0.73-1.48,1.75c0,1.01,0.55,1.74,1.48,1.74C149.83,94.15,150.38,93.81,150.64,93.41z"/>
		<path class="st0" d="M155.55,94.73v-0.52c-0.37,0.42-0.9,0.64-1.52,0.64c-0.77,0-1.6-0.52-1.6-1.52c0-1.04,0.82-1.51,1.6-1.51
			c0.63,0,1.15,0.2,1.52,0.62V91.6c0-0.61-0.49-0.96-1.16-0.96c-0.55,0-1,0.19-1.41,0.64l-0.33-0.49c0.49-0.51,1.08-0.76,1.83-0.76
			c0.98,0,1.78,0.44,1.78,1.55v3.16H155.55z M155.55,93.76v-0.87c-0.28-0.37-0.76-0.56-1.25-0.56c-0.67,0-1.14,0.42-1.14,1
			c0,0.59,0.47,1.01,1.14,1.01C154.79,94.33,155.28,94.14,155.55,93.76z"/>
		<path class="st0" d="M160.68,94.03v2.44h-0.71v-6.34h0.71v0.68c0.33-0.46,0.9-0.8,1.55-0.8c1.21,0,2.04,0.91,2.04,2.41
			c0,1.48-0.84,2.41-2.04,2.41C161.6,94.84,161.06,94.54,160.68,94.03z M163.52,92.43c0-1.02-0.55-1.77-1.47-1.77
			c-0.56,0-1.12,0.33-1.37,0.73v2.07c0.25,0.4,0.81,0.74,1.37,0.74C162.97,94.21,163.52,93.45,163.52,92.43z"/>
		<path class="st0" d="M168.18,94.73v-0.52c-0.37,0.42-0.9,0.64-1.52,0.64c-0.77,0-1.6-0.52-1.6-1.52c0-1.04,0.82-1.51,1.6-1.51
			c0.63,0,1.15,0.2,1.52,0.62V91.6c0-0.61-0.49-0.96-1.16-0.96c-0.55,0-1,0.19-1.41,0.64l-0.33-0.49c0.49-0.51,1.08-0.76,1.83-0.76
			c0.98,0,1.78,0.44,1.78,1.55v3.16H168.18z M168.18,93.76v-0.87c-0.28-0.37-0.76-0.56-1.25-0.56c-0.67,0-1.14,0.42-1.14,1
			c0,0.59,0.47,1.01,1.14,1.01C167.42,94.33,167.9,94.14,168.18,93.76z"/>
		<path class="st0" d="M170.23,94.73v-4.59h0.71v0.73c0.37-0.48,0.9-0.84,1.53-0.84v0.73c-0.08-0.01-0.17-0.02-0.28-0.02
			c-0.45,0-1.05,0.36-1.25,0.73v3.25H170.23z"/>
		<path class="st0" d="M176.14,94.73v-0.52c-0.37,0.42-0.9,0.64-1.52,0.64c-0.77,0-1.6-0.52-1.6-1.52c0-1.04,0.82-1.51,1.6-1.51
			c0.63,0,1.15,0.2,1.52,0.62V91.6c0-0.61-0.49-0.96-1.16-0.96c-0.55,0-1,0.19-1.41,0.64l-0.33-0.49c0.49-0.51,1.08-0.76,1.84-0.76
			c0.98,0,1.78,0.44,1.78,1.55v3.16H176.14z M176.14,93.76v-0.87c-0.28-0.37-0.76-0.56-1.25-0.56c-0.67,0-1.14,0.42-1.14,1
			c0,0.59,0.47,1.01,1.14,1.01C175.38,94.33,175.86,94.14,176.14,93.76z"/>
		<path class="st0" d="M183.43,94.73v-0.52c-0.37,0.42-0.9,0.64-1.52,0.64c-0.77,0-1.6-0.52-1.6-1.52c0-1.04,0.82-1.51,1.6-1.51
			c0.63,0,1.15,0.2,1.52,0.62V91.6c0-0.61-0.49-0.96-1.16-0.96c-0.55,0-1,0.19-1.41,0.64l-0.33-0.49c0.49-0.51,1.08-0.76,1.83-0.76
			c0.98,0,1.78,0.44,1.78,1.55v3.16H183.43z M183.43,93.76v-0.87c-0.28-0.37-0.76-0.56-1.25-0.56c-0.67,0-1.14,0.42-1.14,1
			c0,0.59,0.47,1.01,1.14,1.01C182.66,94.33,183.15,94.14,183.43,93.76z"/>
		<path class="st0" d="M188.8,94.73v-0.69c-0.34,0.47-0.9,0.8-1.55,0.8c-1.2,0-2.04-0.91-2.04-2.4c0-1.47,0.85-2.42,2.04-2.42
			c0.62,0,1.18,0.3,1.55,0.81v-2.44h0.71v6.34H188.8z M188.8,93.47V91.4c-0.25-0.4-0.81-0.74-1.37-0.74c-0.93,0-1.48,0.76-1.48,1.78
			c0,1.02,0.55,1.77,1.48,1.77C187.99,94.21,188.56,93.87,188.8,93.47z"/>
		<path class="st0" d="M196.38,94.73v-3.12c0-0.58-0.25-0.95-0.85-0.95c-0.48,0-0.98,0.33-1.22,0.7v3.37h-0.71v-3.12
			c0-0.58-0.24-0.95-0.85-0.95c-0.47,0-0.96,0.34-1.21,0.71v3.36h-0.71v-4.59h0.71v0.67c0.2-0.29,0.81-0.78,1.49-0.78
			c0.69,0,1.09,0.38,1.23,0.86c0.26-0.42,0.88-0.86,1.54-0.86c0.84,0,1.28,0.47,1.28,1.39v3.32H196.38z"/>
		<path class="st0" d="M198.3,89.01c0-0.27,0.22-0.49,0.48-0.49c0.27,0,0.48,0.22,0.48,0.49c0,0.27-0.21,0.47-0.48,0.47
			C198.52,89.48,198.3,89.27,198.3,89.01z M198.42,94.73v-4.59h0.71v4.59H198.42z"/>
		<path class="st0" d="M203.57,94.73v-3c0-0.82-0.42-1.07-1.04-1.07c-0.56,0-1.08,0.34-1.36,0.71v3.36h-0.71v-4.59h0.71v0.67
			c0.32-0.39,0.95-0.78,1.64-0.78c0.95,0,1.46,0.49,1.46,1.48v3.22H203.57z"/>
		<path class="st0" d="M205.49,89.01c0-0.27,0.22-0.49,0.48-0.49s0.48,0.22,0.48,0.49c0,0.27-0.21,0.47-0.48,0.47
			S205.49,89.27,205.49,89.01z M205.61,94.73v-4.59h0.71v4.59H205.61z"/>
		<path class="st0" d="M207.27,94.12l0.36-0.51c0.3,0.35,0.88,0.66,1.51,0.66c0.7,0,1.09-0.33,1.09-0.79c0-1.11-2.84-0.43-2.84-2.13
			c0-0.72,0.61-1.32,1.7-1.32c0.79,0,1.34,0.29,1.7,0.67l-0.33,0.49c-0.28-0.33-0.77-0.58-1.37-0.58c-0.63,0-1.02,0.31-1.02,0.72
			c0,1,2.84,0.34,2.84,2.13c0,0.77-0.62,1.39-1.8,1.39C208.36,94.84,207.73,94.6,207.27,94.12z"/>
		<path class="st0" d="M212.12,93.77v-3h-0.76v-0.63h0.76v-1.25h0.72v1.25h0.93v0.63h-0.93v2.85c0,0.34,0.15,0.59,0.46,0.59
			c0.21,0,0.39-0.09,0.49-0.2l0.21,0.54c-0.18,0.17-0.44,0.29-0.85,0.29C212.46,94.84,212.12,94.45,212.12,93.77z"/>
		<path class="st0" d="M214.68,94.73v-4.59h0.71v0.73c0.37-0.48,0.9-0.84,1.53-0.84v0.73c-0.08-0.01-0.17-0.02-0.28-0.02
			c-0.45,0-1.05,0.36-1.25,0.73v3.25H214.68z"/>
		<path class="st0" d="M220.59,94.73v-0.52c-0.37,0.42-0.9,0.64-1.52,0.64c-0.77,0-1.6-0.52-1.6-1.52c0-1.04,0.82-1.51,1.6-1.51
			c0.63,0,1.15,0.2,1.52,0.62V91.6c0-0.61-0.49-0.96-1.16-0.96c-0.55,0-1,0.19-1.41,0.64l-0.33-0.49c0.49-0.51,1.08-0.76,1.84-0.76
			c0.98,0,1.78,0.44,1.78,1.55v3.16H220.59z M220.59,93.76v-0.87c-0.28-0.37-0.76-0.56-1.26-0.56c-0.67,0-1.14,0.42-1.14,1
			c0,0.59,0.47,1.01,1.14,1.01C219.83,94.33,220.31,94.14,220.59,93.76z"/>
		<path class="st0" d="M222.37,92.43c0-1.36,0.92-2.41,2.29-2.41c0.84,0,1.33,0.34,1.68,0.8l-0.47,0.43
			c-0.3-0.42-0.69-0.59-1.17-0.59c-0.97,0-1.59,0.75-1.59,1.77s0.62,1.78,1.59,1.78c0.48,0,0.87-0.19,1.17-0.6l0.47,0.44
			c-0.35,0.46-0.85,0.8-1.68,0.8C223.29,94.84,222.37,93.79,222.37,92.43z"/>
		<path class="st0" d="M227.13,89.01c0-0.27,0.22-0.49,0.48-0.49c0.27,0,0.48,0.22,0.48,0.49c0,0.27-0.21,0.47-0.48,0.47
			C227.35,89.48,227.13,89.27,227.13,89.01z M227.25,94.73v-4.59h0.71v4.59H227.25z"/>
		<path class="st0" d="M229.03,92.43c0-1.33,0.87-2.41,2.27-2.41c1.4,0,2.27,1.07,2.27,2.41c0,1.33-0.88,2.41-2.27,2.41
			C229.91,94.84,229.03,93.76,229.03,92.43z M232.83,92.43c0-0.93-0.54-1.77-1.52-1.77c-0.98,0-1.52,0.84-1.52,1.77
			c0,0.94,0.54,1.78,1.52,1.78C232.28,94.21,232.83,93.37,232.83,92.43z M231.22,89.44h-0.54l1.41-1.37h0.74L231.22,89.44z"/>
		<path class="st0" d="M237.74,94.73v-3c0-0.82-0.42-1.07-1.04-1.07c-0.56,0-1.08,0.34-1.36,0.71v3.36h-0.71v-4.59h0.71v0.67
			c0.32-0.39,0.95-0.78,1.64-0.78c0.95,0,1.46,0.49,1.46,1.48v3.22H237.74z"/>
		<path class="st0" d="M241.89,92.43c0-1.33,0.87-2.41,2.27-2.41c1.4,0,2.27,1.07,2.27,2.41c0,1.33-0.88,2.41-2.27,2.41
			C242.76,94.84,241.89,93.76,241.89,92.43z M245.68,92.43c0-0.93-0.54-1.77-1.52-1.77c-0.98,0-1.52,0.84-1.52,1.77
			c0,0.94,0.54,1.78,1.52,1.78C245.14,94.21,245.68,93.37,245.68,92.43z"/>
		<path class="st0" d="M247.49,94.73v-4.59h0.71v0.73c0.37-0.48,0.9-0.84,1.53-0.84v0.73c-0.09-0.01-0.17-0.02-0.28-0.02
			c-0.45,0-1.05,0.36-1.26,0.73v3.25H247.49z"/>
		<path class="st0" d="M253.4,94.73v-0.52c-0.37,0.42-0.9,0.64-1.52,0.64c-0.77,0-1.6-0.52-1.6-1.52c0-1.04,0.82-1.51,1.6-1.51
			c0.63,0,1.15,0.2,1.52,0.62V91.6c0-0.61-0.49-0.96-1.16-0.96c-0.55,0-1,0.19-1.41,0.64l-0.33-0.49c0.49-0.51,1.08-0.76,1.84-0.76
			c0.98,0,1.78,0.44,1.78,1.55v3.16H253.4z M253.4,93.76v-0.87c-0.28-0.37-0.76-0.56-1.26-0.56c-0.67,0-1.14,0.42-1.14,1
			c0,0.59,0.47,1.01,1.14,1.01C252.64,94.33,253.13,94.14,253.4,93.76z"/>
		<path class="st0" d="M255.45,94.73v-6.34h0.71v6.34H255.45z"/>
		<path class="st0" d="M263.18,94.73v-0.69c-0.34,0.47-0.9,0.8-1.55,0.8c-1.2,0-2.04-0.91-2.04-2.4c0-1.47,0.85-2.42,2.04-2.42
			c0.62,0,1.18,0.3,1.55,0.81v-2.44h0.71v6.34H263.18z M263.18,93.47V91.4c-0.25-0.4-0.81-0.74-1.37-0.74
			c-0.93,0-1.48,0.76-1.48,1.78c0,1.02,0.55,1.77,1.48,1.77C262.38,94.21,262.94,93.87,263.18,93.47z"/>
		<path class="st0" d="M264.96,92.43c0-1.33,0.95-2.41,2.26-2.41c1.39,0,2.21,1.08,2.21,2.46v0.18h-3.71
			c0.06,0.87,0.66,1.59,1.64,1.59c0.53,0,1.05-0.21,1.43-0.59l0.34,0.46c-0.46,0.46-1.08,0.71-1.82,0.71
			C265.94,94.84,264.96,93.86,264.96,92.43z M267.21,90.61c-0.98,0-1.46,0.83-1.5,1.52h3.01C268.71,91.46,268.26,90.61,267.21,90.61
			z"/>
		<path class="st0" d="M272.76,93.82l0.48-0.53c0.42,0.54,0.98,0.85,1.75,0.85c0.87,0,1.46-0.59,1.46-1.36
			c0-0.84-0.6-1.37-1.45-1.37c-0.55,0-1.04,0.18-1.46,0.59l-0.58-0.2v-3.41h3.88v0.7h-3.09v2.21c0.31-0.3,0.85-0.57,1.48-0.57
			c1.07,0,2.03,0.71,2.03,2.02c0,1.28-0.99,2.09-2.26,2.09C273.93,94.84,273.23,94.45,272.76,93.82z"/>
		<path class="st0" d="M286.26,94.73v-3.12c0-0.58-0.25-0.95-0.85-0.95c-0.47,0-0.98,0.33-1.22,0.7v3.37h-0.71v-3.12
			c0-0.58-0.24-0.95-0.85-0.95c-0.47,0-0.96,0.34-1.21,0.71v3.36h-0.71v-4.59h0.71v0.67c0.2-0.29,0.81-0.78,1.49-0.78
			c0.69,0,1.09,0.38,1.23,0.86c0.26-0.42,0.88-0.86,1.54-0.86c0.84,0,1.28,0.47,1.28,1.39v3.32H286.26z"/>
		<path class="st0" d="M288.3,94.73v-6.34h0.71v6.34H288.3z"/>
		<path class="st0" d="M298.25,94.73v-3.12c0-0.58-0.25-0.95-0.85-0.95c-0.48,0-0.98,0.33-1.22,0.7v3.37h-0.71v-3.12
			c0-0.58-0.24-0.95-0.85-0.95c-0.46,0-0.96,0.34-1.21,0.71v3.36h-0.71v-4.59h0.71v0.67c0.2-0.29,0.81-0.78,1.49-0.78
			c0.7,0,1.09,0.38,1.23,0.86c0.26-0.42,0.88-0.86,1.54-0.86c0.84,0,1.28,0.47,1.28,1.39v3.32H298.25z"/>
		<path class="st0" d="M303.16,94.73v-0.52c-0.37,0.42-0.9,0.64-1.52,0.64c-0.77,0-1.6-0.52-1.6-1.52c0-1.04,0.82-1.51,1.6-1.51
			c0.63,0,1.15,0.2,1.52,0.62V91.6c0-0.61-0.49-0.96-1.16-0.96c-0.55,0-1,0.19-1.41,0.64l-0.33-0.49c0.49-0.51,1.08-0.76,1.84-0.76
			c0.98,0,1.78,0.44,1.78,1.55v3.16H303.16z M303.16,93.76v-0.87c-0.28-0.37-0.76-0.56-1.26-0.56c-0.67,0-1.14,0.42-1.14,1
			c0,0.59,0.47,1.01,1.14,1.01C302.4,94.33,302.89,94.14,303.16,93.76z M302.03,89.44h-0.54l1.41-1.37h0.74L302.03,89.44z"/>
		<path class="st0" d="M304.82,94.12l0.36-0.51c0.3,0.35,0.88,0.66,1.51,0.66c0.7,0,1.09-0.33,1.09-0.79c0-1.11-2.84-0.43-2.84-2.13
			c0-0.72,0.61-1.32,1.7-1.32c0.79,0,1.34,0.29,1.7,0.67l-0.33,0.49c-0.28-0.33-0.77-0.58-1.37-0.58c-0.63,0-1.02,0.31-1.02,0.72
			c0,1,2.84,0.34,2.84,2.13c0,0.77-0.62,1.39-1.8,1.39C305.91,94.84,305.29,94.6,304.82,94.12z"/>
		<path class="st0" d="M315.23,94.73v-0.69c-0.34,0.47-0.9,0.8-1.55,0.8c-1.2,0-2.04-0.91-2.04-2.4c0-1.47,0.85-2.42,2.04-2.42
			c0.62,0,1.18,0.3,1.55,0.81v-2.44h0.71v6.34H315.23z M315.23,93.47V91.4c-0.25-0.4-0.81-0.74-1.37-0.74
			c-0.93,0-1.48,0.76-1.48,1.78c0,1.02,0.55,1.77,1.48,1.77C314.42,94.21,314.98,93.87,315.23,93.47z"/>
		<path class="st0" d="M317,92.43c0-1.33,0.95-2.41,2.26-2.41c1.39,0,2.21,1.08,2.21,2.46v0.18h-3.71c0.06,0.87,0.66,1.59,1.64,1.59
			c0.53,0,1.05-0.21,1.43-0.59l0.34,0.46c-0.46,0.46-1.08,0.71-1.82,0.71C317.98,94.84,317,93.86,317,92.43z M319.25,90.61
			c-0.98,0-1.46,0.83-1.5,1.52h3.01C320.75,91.46,320.3,90.61,319.25,90.61z"/>
		<path class="st0" d="M327.98,94.73v-0.65c-0.35,0.4-0.95,0.76-1.63,0.76c-0.96,0-1.46-0.47-1.46-1.46v-3.24h0.71v3.02
			c0,0.81,0.41,1.04,1.04,1.04c0.55,0,1.08-0.32,1.35-0.69v-3.38h0.71v4.59H327.98z"/>
		<path class="st0" d="M333.13,94.73v-3c0-0.82-0.42-1.07-1.04-1.07c-0.56,0-1.08,0.34-1.36,0.71v3.36h-0.71v-4.59h0.71v0.67
			c0.32-0.39,0.95-0.78,1.64-0.78c0.95,0,1.45,0.49,1.45,1.48v3.22H333.13z"/>
		<path class="st0" d="M338.04,94.73v-0.52c-0.37,0.42-0.9,0.64-1.52,0.64c-0.77,0-1.6-0.52-1.6-1.52c0-1.04,0.82-1.51,1.6-1.51
			c0.63,0,1.15,0.2,1.52,0.62V91.6c0-0.61-0.49-0.96-1.16-0.96c-0.55,0-1,0.19-1.41,0.64l-0.33-0.49c0.49-0.51,1.08-0.76,1.84-0.76
			c0.98,0,1.78,0.44,1.78,1.55v3.16H338.04z M338.04,93.76v-0.87c-0.28-0.37-0.76-0.56-1.26-0.56c-0.67,0-1.14,0.42-1.14,1
			c0,0.59,0.47,1.01,1.14,1.01C337.28,94.33,337.77,94.14,338.04,93.76z"/>
		<path class="st0" d="M343.69,94.73l-1.91-4.59h0.78l1.52,3.76l1.53-3.76h0.77l-1.91,4.59H343.69z"/>
		<path class="st0" d="M346.75,92.43c0-1.33,0.95-2.41,2.26-2.41c1.39,0,2.21,1.08,2.21,2.46v0.18h-3.71
			c0.06,0.87,0.66,1.59,1.64,1.59c0.53,0,1.06-0.21,1.43-0.59l0.34,0.46c-0.47,0.46-1.08,0.71-1.83,0.71
			C347.73,94.84,346.75,93.86,346.75,92.43z M349.01,90.61c-0.98,0-1.46,0.83-1.5,1.52h3.01C350.51,91.46,350.05,90.61,349.01,90.61
			z"/>
		<path class="st0" d="M352.05,94.73v-0.56l2.53-3.4h-2.53v-0.63h3.46v0.54l-2.55,3.42h2.59v0.63H352.05z"/>
	</g>
	<path class="st2" d="M8.17,46.19h76.17v-0.5H8.17V46.19z M84.84,46.19h279.69v-0.5H84.84V46.19z"/>
	<path class="st2" d="M8.17,65.6h76.17v-0.5H8.17V65.6z M84.84,65.6h279.69v-0.5H84.84V65.6z"/>
	<path class="st2" d="M8.17,83.52h76.17v-0.5H8.17V83.52z M84.84,83.52h279.69v-0.5H84.84V83.52z"/>
	<path class="st2" d="M84.34,104.49h0.5V83.52h-0.5V104.49z M84.34,83.02h0.5V65.6h-0.5V83.02z M84.34,65.11h0.5V46.19h-0.5V65.11z
		 M84.34,45.7h0.5V11.23h-0.5V45.7z"/>
	<rect x="84.34" y="45.7" class="st3" width="0.5" height="0.5"/>
	<rect x="84.34" y="65.11" class="st3" width="0.5" height="0.5"/>
	<rect x="84.34" y="83.02" class="st3" width="0.5" height="0.5"/>
	<rect x="1.72" y="1.67" class="st4" width="371.62" height="24.67"/>
	<rect x="1.72" y="1.67" class="st5" width="371.62" height="105.47"/>
	<g>
		<path class="st6" d="M13.27,17.77V9.1h3.82c1.82,0,2.82,1.24,2.82,2.72c0,1.47-1.01,2.7-2.82,2.7h-2.3v3.25H13.27z M18.36,11.82
			c0-0.83-0.61-1.38-1.47-1.38H14.8v2.74h2.09C17.75,13.18,18.36,12.64,18.36,11.82z"/>
		<path class="st6" d="M20.83,17.77v-6.28h1.37v0.91c0.48-0.6,1.24-1.07,2.04-1.07v1.35c-0.12-0.03-0.25-0.04-0.42-0.04
			c-0.58,0-1.35,0.39-1.62,0.84v4.28H20.83z"/>
		<path class="st6" d="M24.64,14.63c0-1.82,1.33-3.29,3.19-3.29c1.88,0,3.08,1.43,3.08,3.41v0.34h-4.84
			c0.1,0.94,0.81,1.73,1.99,1.73c0.62,0,1.34-0.25,1.79-0.7l0.62,0.9c-0.64,0.6-1.56,0.92-2.55,0.92
			C26.03,17.93,24.64,16.62,24.64,14.63z M27.81,12.46c-1.16,0-1.7,0.9-1.75,1.65h3.54C29.55,13.37,29.04,12.46,27.81,12.46z"/>
		<path class="st6" d="M33.29,16.9v3.26h-1.37v-8.67h1.37v0.86c0.47-0.62,1.2-1.01,2.01-1.01c1.63,0,2.78,1.22,2.78,3.29
			s-1.16,3.3-2.78,3.3C34.52,17.93,33.81,17.57,33.29,16.9z M36.69,14.63c0-1.22-0.7-2.08-1.78-2.08c-0.64,0-1.3,0.36-1.61,0.83
			v2.48c0.3,0.47,0.98,0.86,1.61,0.86C35.99,16.72,36.69,15.85,36.69,14.63z"/>
		<path class="st6" d="M42.98,17.77v-0.69c-0.47,0.55-1.21,0.84-2.04,0.84c-1.01,0-2.17-0.7-2.17-2.08c0-1.46,1.14-2.05,2.17-2.05
			c0.86,0,1.57,0.27,2.04,0.81v-0.94c0-0.73-0.61-1.17-1.47-1.17c-0.7,0-1.33,0.26-1.86,0.81l-0.57-0.95
			c0.73-0.7,1.64-1.01,2.64-1.01c1.4,0,2.63,0.59,2.63,2.26v4.17H42.98z M42.98,16.34v-0.96c-0.33-0.43-0.91-0.65-1.5-0.65
			c-0.77,0-1.35,0.46-1.35,1.13c0,0.69,0.58,1.13,1.35,1.13C42.07,16.99,42.65,16.77,42.98,16.34z"/>
		<path class="st6" d="M45.79,17.77v-6.28h1.37v0.91c0.48-0.6,1.24-1.07,2.04-1.07v1.35c-0.12-0.03-0.25-0.04-0.42-0.04
			c-0.58,0-1.35,0.39-1.62,0.84v4.28H45.79z"/>
		<path class="st6" d="M49.6,14.63c0-1.82,1.33-3.29,3.19-3.29c1.88,0,3.08,1.43,3.08,3.41v0.34h-4.84c0.1,0.94,0.81,1.73,1.99,1.73
			c0.62,0,1.34-0.25,1.79-0.7l0.62,0.9c-0.64,0.6-1.56,0.92-2.55,0.92C50.99,17.93,49.6,16.62,49.6,14.63z M52.77,12.46
			c-1.16,0-1.7,0.9-1.75,1.65h3.54C54.51,13.37,54,12.46,52.77,12.46z"/>
		<path class="st6" d="M59.92,17.77V9.1h1.37v8.67H59.92z"/>
		<path class="st6" d="M66.57,17.77v-0.69c-0.47,0.55-1.21,0.84-2.04,0.84c-1.01,0-2.17-0.7-2.17-2.08c0-1.46,1.14-2.05,2.17-2.05
			c0.86,0,1.57,0.27,2.04,0.81v-0.94c0-0.73-0.61-1.17-1.47-1.17c-0.7,0-1.33,0.26-1.86,0.81l-0.57-0.95
			c0.73-0.7,1.64-1.01,2.64-1.01c1.4,0,2.63,0.59,2.63,2.26v4.17H66.57z M66.57,16.34v-0.96c-0.33-0.43-0.91-0.65-1.5-0.65
			c-0.77,0-1.35,0.46-1.35,1.13c0,0.69,0.58,1.13,1.35,1.13C65.66,16.99,66.25,16.77,66.57,16.34z"/>
		<path class="st6" d="M76.83,17.77v-0.86c-0.48,0.62-1.2,1.01-2.01,1.01c-1.6,0-2.78-1.22-2.78-3.3c0-2.03,1.17-3.29,2.78-3.29
			c0.79,0,1.52,0.35,2.01,1.03V9.1h1.37v8.67H76.83z M76.83,15.88v-2.48c-0.3-0.47-0.97-0.84-1.61-0.84c-1.09,0-1.78,0.87-1.78,2.08
			c0,1.22,0.69,2.09,1.78,2.09C75.86,16.72,76.53,16.34,76.83,15.88z"/>
		<path class="st6" d="M79.26,14.63c0-1.81,1.22-3.29,3.22-3.29c2,0,3.22,1.48,3.22,3.29c0,1.79-1.22,3.3-3.22,3.3
			C80.48,17.93,79.26,16.42,79.26,14.63z M84.29,14.63c0-1.1-0.64-2.08-1.81-2.08c-1.16,0-1.81,0.98-1.81,2.08
			c0,1.12,0.65,2.09,1.81,2.09C83.66,16.72,84.29,15.75,84.29,14.63z"/>
		<path class="st6" d="M86.24,16.94l0.62-0.97c0.44,0.46,1.31,0.87,2.12,0.87c0.82,0,1.25-0.34,1.25-0.83c0-1.23-3.8-0.35-3.8-2.77
			c0-1.03,0.88-1.9,2.47-1.9c1.07,0,1.87,0.38,2.43,0.87l-0.57,0.96c-0.38-0.42-1.07-0.75-1.86-0.75c-0.71,0-1.16,0.34-1.16,0.78
			c0,1.11,3.8,0.27,3.8,2.77c0,1.12-0.92,1.96-2.61,1.96C87.85,17.93,86.89,17.58,86.24,16.94z"/>
		<path class="st6" d="M92.43,9.88c0-0.47,0.38-0.85,0.85-0.85c0.47,0,0.84,0.38,0.84,0.85c0,0.47-0.38,0.84-0.84,0.84
			C92.81,10.73,92.43,10.35,92.43,9.88z M92.59,17.77v-6.28h1.37v6.28H92.59z"/>
		<path class="st6" d="M94.86,16.94l0.62-0.97c0.44,0.46,1.31,0.87,2.12,0.87c0.82,0,1.25-0.34,1.25-0.83c0-1.23-3.8-0.35-3.8-2.77
			c0-1.03,0.88-1.9,2.47-1.9c1.07,0,1.87,0.38,2.43,0.87l-0.57,0.96c-0.38-0.42-1.07-0.75-1.86-0.75c-0.71,0-1.16,0.34-1.16,0.78
			c0,1.11,3.8,0.27,3.8,2.77c0,1.12-0.92,1.96-2.61,1.96C96.47,17.93,95.51,17.58,94.86,16.94z"/>
		<path class="st6" d="M101.01,16.99c0-0.48,0.42-0.9,0.91-0.9c0.49,0,0.91,0.42,0.91,0.9c0,0.49-0.42,0.92-0.91,0.92
			C101.43,17.92,101.01,17.49,101.01,16.99z"/>
		<path class="st6" d="M106.72,16.55l0.65-0.83c0.56,0.65,1.49,1.25,2.72,1.25c1.55,0,2.04-0.83,2.04-1.51
			c0-2.24-5.14-0.99-5.14-4.08c0-1.43,1.27-2.42,2.99-2.42c1.31,0,2.34,0.45,3.07,1.22l-0.65,0.79c-0.65-0.73-1.56-1.04-2.51-1.04
			c-1.03,0-1.78,0.56-1.78,1.38c0,1.95,5.14,0.83,5.14,4.07c0,1.25-0.86,2.55-3.2,2.55C108.55,17.93,107.43,17.36,106.72,16.55z"/>
		<path class="st6" d="M118.73,17.77v-0.88c-0.48,0.54-1.3,1.04-2.24,1.04c-1.31,0-2-0.65-2-2v-4.43h0.98v4.13
			c0,1.11,0.56,1.43,1.42,1.43c0.75,0,1.48-0.44,1.85-0.95v-4.62h0.98v6.28H118.73z"/>
		<path class="st6" d="M131.95,17.77v-4.26c0-0.79-0.34-1.3-1.16-1.3c-0.65,0-1.34,0.45-1.66,0.96v4.6h-0.98v-4.26
			c0-0.79-0.32-1.3-1.16-1.3c-0.64,0-1.31,0.47-1.65,0.98v4.59h-0.98v-6.28h0.98v0.91c0.27-0.4,1.1-1.07,2.04-1.07
			c0.95,0,1.5,0.52,1.68,1.17c0.35-0.57,1.2-1.17,2.11-1.17c1.14,0,1.75,0.64,1.75,1.9v4.54H131.95z"/>
		<path class="st6" d="M134.19,14.63c0-1.82,1.3-3.29,3.09-3.29c1.9,0,3.02,1.48,3.02,3.37v0.25h-5.07c0.08,1.18,0.9,2.17,2.25,2.17
			c0.73,0,1.44-0.29,1.95-0.81l0.47,0.64c-0.64,0.62-1.48,0.97-2.5,0.97C135.52,17.93,134.19,16.59,134.19,14.63z M137.27,12.14
			c-1.34,0-2,1.13-2.05,2.08h4.12C139.32,13.3,138.7,12.14,137.27,12.14z M137.18,10.54h-0.74l1.92-1.87h1.01L137.18,10.54z"/>
		<path class="st6" d="M146.09,17.77v-0.94c-0.47,0.64-1.24,1.09-2.12,1.09c-1.64,0-2.79-1.25-2.79-3.29c0-2.02,1.16-3.3,2.79-3.3
			c0.84,0,1.61,0.42,2.12,1.1V9.1h0.97v8.67H146.09z M146.09,16.06v-2.83c-0.34-0.55-1.11-1.01-1.87-1.01
			c-1.27,0-2.03,1.04-2.03,2.43s0.75,2.42,2.03,2.42C144.99,17.06,145.76,16.6,146.09,16.06z"/>
		<path class="st6" d="M148.52,9.95c0-0.36,0.3-0.66,0.66-0.66c0.36,0,0.65,0.3,0.65,0.66c0,0.36-0.29,0.65-0.65,0.65
			C148.82,10.6,148.52,10.31,148.52,9.95z M148.69,17.77v-6.28h0.98v6.28H148.69z"/>
		<path class="st6" d="M150.93,14.63c0-1.86,1.26-3.29,3.13-3.29c1.14,0,1.82,0.47,2.3,1.09l-0.65,0.59
			c-0.42-0.57-0.95-0.81-1.6-0.81c-1.33,0-2.17,1.03-2.17,2.42s0.84,2.43,2.17,2.43c0.65,0,1.18-0.26,1.6-0.82l0.65,0.6
			c-0.48,0.62-1.16,1.09-2.3,1.09C152.19,17.93,150.93,16.49,150.93,14.63z"/>
		<path class="st6" d="M157.05,14.63c0-1.82,1.2-3.29,3.11-3.29c1.91,0,3.11,1.47,3.11,3.29c0,1.82-1.2,3.3-3.11,3.3
			C158.25,17.93,157.05,16.45,157.05,14.63z M162.24,14.63c0-1.27-0.74-2.42-2.08-2.42c-1.34,0-2.08,1.14-2.08,2.42
			c0,1.29,0.74,2.43,2.08,2.43C161.5,17.06,162.24,15.92,162.24,14.63z"/>
		<path class="st6" d="M167.57,17.77V9.1h0.98v8.67H167.57z"/>
		<path class="st6" d="M169.81,14.63c0-1.82,1.3-3.29,3.09-3.29c1.9,0,3.02,1.48,3.02,3.37v0.25h-5.07c0.08,1.18,0.9,2.17,2.25,2.17
			c0.73,0,1.44-0.29,1.95-0.81l0.47,0.64c-0.64,0.62-1.48,0.97-2.5,0.97C171.14,17.93,169.81,16.59,169.81,14.63z M172.89,12.14
			c-1.34,0-2,1.13-2.05,2.08h4.12C174.94,13.3,174.32,12.14,172.89,12.14z"/>
		<path class="st6" d="M180.03,9.95c0-0.36,0.3-0.66,0.66-0.66c0.36,0,0.65,0.3,0.65,0.66c0,0.36-0.29,0.65-0.65,0.65
			C180.33,10.6,180.03,10.31,180.03,9.95z M180.2,17.77v-6.28h0.98v6.28H180.2z"/>
		<path class="st6" d="M187.06,17.77v-4.11c0-1.12-0.57-1.46-1.42-1.46c-0.77,0-1.48,0.47-1.86,0.98v4.59h-0.98v-6.28h0.98v0.91
			c0.44-0.53,1.3-1.07,2.25-1.07c1.3,0,1.99,0.66,1.99,2.03v4.41H187.06z"/>
		<path class="st6" d="M194.21,17.77v-0.94c-0.47,0.64-1.24,1.09-2.12,1.09c-1.64,0-2.79-1.25-2.79-3.29c0-2.02,1.16-3.3,2.79-3.3
			c0.84,0,1.61,0.42,2.12,1.1V9.1h0.97v8.67H194.21z M194.21,16.06v-2.83c-0.34-0.55-1.11-1.01-1.87-1.01
			c-1.27,0-2.03,1.04-2.03,2.43s0.75,2.42,2.03,2.42C193.1,17.06,193.87,16.6,194.21,16.06z"/>
		<path class="st6" d="M196.64,9.95c0-0.36,0.3-0.66,0.66-0.66c0.36,0,0.65,0.3,0.65,0.66c0,0.36-0.29,0.65-0.65,0.65
			C196.94,10.6,196.64,10.31,196.64,9.95z M196.81,17.77v-6.28h0.98v6.28H196.81z"/>
		<path class="st6" d="M199.04,14.63c0-1.86,1.26-3.29,3.13-3.29c1.14,0,1.82,0.47,2.3,1.09l-0.65,0.59
			c-0.42-0.57-0.95-0.81-1.6-0.81c-1.33,0-2.17,1.03-2.17,2.42s0.84,2.43,2.17,2.43c0.65,0,1.18-0.26,1.6-0.82l0.65,0.6
			c-0.48,0.62-1.16,1.09-2.3,1.09C200.3,17.93,199.04,16.49,199.04,14.63z"/>
		<path class="st6" d="M209.45,17.77v-0.71c-0.51,0.57-1.24,0.87-2.08,0.87c-1.05,0-2.18-0.71-2.18-2.08c0-1.42,1.12-2.07,2.18-2.07
			c0.86,0,1.57,0.27,2.08,0.84V13.5c0-0.83-0.68-1.31-1.59-1.31c-0.75,0-1.37,0.26-1.92,0.87l-0.46-0.68
			c0.68-0.7,1.48-1.04,2.51-1.04c1.34,0,2.43,0.6,2.43,2.12v4.32H209.45z M209.45,16.45v-1.2c-0.38-0.51-1.04-0.77-1.72-0.77
			c-0.92,0-1.56,0.57-1.56,1.37c0,0.81,0.64,1.38,1.56,1.38C208.41,17.23,209.08,16.97,209.45,16.45z"/>
		<path class="st6" d="M212.07,17.77v-6.28h0.98v1c0.51-0.65,1.24-1.14,2.09-1.14v1c-0.12-0.01-0.23-0.03-0.38-0.03
			c-0.61,0-1.43,0.49-1.72,1v4.45H212.07z"/>
		<path class="st6" d="M219.96,17.77v-0.71c-0.51,0.57-1.23,0.87-2.08,0.87c-1.05,0-2.18-0.71-2.18-2.08c0-1.42,1.12-2.07,2.18-2.07
			c0.86,0,1.57,0.27,2.08,0.84V13.5c0-0.83-0.68-1.31-1.59-1.31c-0.75,0-1.36,0.26-1.92,0.87l-0.46-0.68
			c0.68-0.7,1.48-1.04,2.51-1.04c1.34,0,2.43,0.6,2.43,2.12v4.32H219.96z M219.96,16.45v-1.2c-0.38-0.51-1.04-0.77-1.71-0.77
			c-0.92,0-1.56,0.57-1.56,1.37c0,0.81,0.64,1.38,1.56,1.38C218.92,17.23,219.58,16.97,219.96,16.45z M218.41,10.54h-0.74l1.92-1.87
			h1.01L218.41,10.54z"/>
		<path class="st6" d="M225.61,17.77V9.1h0.97v8.67H225.61z"/>
		<path class="st6" d="M232.14,17.77v-0.71c-0.51,0.57-1.24,0.87-2.08,0.87c-1.05,0-2.19-0.71-2.19-2.08c0-1.42,1.12-2.07,2.19-2.07
			c0.86,0,1.57,0.27,2.08,0.84V13.5c0-0.83-0.68-1.31-1.59-1.31c-0.75,0-1.37,0.26-1.93,0.87l-0.45-0.68
			c0.68-0.7,1.48-1.04,2.51-1.04c1.34,0,2.43,0.6,2.43,2.12v4.32H232.14z M232.14,16.45v-1.2c-0.38-0.51-1.04-0.77-1.72-0.77
			c-0.92,0-1.56,0.57-1.56,1.37c0,0.81,0.64,1.38,1.56,1.38C231.1,17.23,231.76,16.97,232.14,16.45z"/>
		<path class="st6" d="M242.34,17.77v-0.94c-0.47,0.64-1.23,1.09-2.12,1.09c-1.64,0-2.79-1.25-2.79-3.29c0-2.02,1.16-3.3,2.79-3.3
			c0.85,0,1.61,0.42,2.12,1.1V9.1h0.97v8.67H242.34z M242.34,16.06v-2.83c-0.34-0.55-1.11-1.01-1.87-1.01
			c-1.28,0-2.03,1.04-2.03,2.43s0.75,2.42,2.03,2.42C241.24,17.06,242,16.6,242.34,16.06z"/>
		<path class="st6" d="M244.58,14.63c0-1.82,1.2-3.29,3.11-3.29c1.91,0,3.11,1.47,3.11,3.29c0,1.82-1.2,3.3-3.11,3.3
			C245.77,17.93,244.58,16.45,244.58,14.63z M249.77,14.63c0-1.27-0.74-2.42-2.08-2.42c-1.34,0-2.08,1.14-2.08,2.42
			c0,1.29,0.74,2.43,2.08,2.43C249.03,17.06,249.77,15.92,249.77,14.63z"/>
		<path class="st6" d="M251.52,16.94l0.49-0.7c0.42,0.48,1.21,0.9,2.07,0.9c0.96,0,1.5-0.46,1.5-1.08c0-1.52-3.89-0.59-3.89-2.91
			c0-0.99,0.83-1.81,2.33-1.81c1.08,0,1.83,0.4,2.33,0.91l-0.46,0.68c-0.38-0.46-1.05-0.79-1.87-0.79c-0.86,0-1.39,0.43-1.39,0.99
			c0,1.37,3.89,0.47,3.89,2.91c0,1.05-0.85,1.9-2.46,1.9C253.02,17.93,252.16,17.61,251.52,16.94z"/>
		<path class="st6" d="M257.6,9.95c0-0.36,0.3-0.66,0.66-0.66s0.65,0.3,0.65,0.66c0,0.36-0.29,0.65-0.65,0.65
			S257.6,10.31,257.6,9.95z M257.77,17.77v-6.28h0.97v6.28H257.77z"/>
		<path class="st6" d="M259.84,16.94l0.49-0.7c0.42,0.48,1.21,0.9,2.07,0.9c0.96,0,1.5-0.46,1.5-1.08c0-1.52-3.89-0.59-3.89-2.91
			c0-0.99,0.83-1.81,2.33-1.81c1.08,0,1.83,0.4,2.33,0.91l-0.46,0.68c-0.38-0.46-1.05-0.79-1.87-0.79c-0.86,0-1.39,0.43-1.39,0.99
			c0,1.37,3.89,0.47,3.89,2.91c0,1.05-0.85,1.9-2.46,1.9C261.34,17.93,260.48,17.61,259.84,16.94z"/>
		<path class="st6" d="M268.73,14.63c0-2.04,1.14-3.29,2.79-3.29c0.88,0,1.66,0.45,2.12,1.09v-0.94h0.97v8.67h-0.97v-3.34
			c-0.52,0.69-1.26,1.11-2.12,1.11C269.88,17.93,268.73,16.66,268.73,14.63z M273.65,16.04v-2.83c-0.34-0.55-1.11-1-1.87-1
			c-1.26,0-2.02,1.03-2.02,2.42s0.76,2.43,2.02,2.43C272.54,17.06,273.31,16.59,273.65,16.04z"/>
		<path class="st6" d="M280.49,17.77v-0.88c-0.48,0.54-1.3,1.04-2.24,1.04c-1.31,0-2-0.65-2-2v-4.43h0.97v4.13
			c0,1.11,0.56,1.43,1.42,1.43c0.75,0,1.48-0.44,1.85-0.95v-4.62h0.97v6.28H280.49z"/>
		<path class="st6" d="M282.72,14.63c0-1.82,1.3-3.29,3.09-3.29c1.9,0,3.02,1.48,3.02,3.37v0.25h-5.07c0.08,1.18,0.9,2.17,2.25,2.17
			c0.73,0,1.44-0.29,1.95-0.81l0.47,0.64c-0.64,0.62-1.48,0.97-2.5,0.97C284.06,17.93,282.72,16.59,282.72,14.63z M285.8,12.14
			c-1.34,0-2,1.13-2.05,2.08h4.12C287.86,13.3,287.23,12.14,285.8,12.14z"/>
		<path class="st6" d="M297.67,17.77v-0.94c-0.47,0.64-1.24,1.09-2.12,1.09c-1.64,0-2.79-1.25-2.79-3.29c0-2.02,1.16-3.3,2.79-3.3
			c0.84,0,1.61,0.42,2.12,1.1V9.1h0.97v8.67H297.67z M297.67,16.06v-2.83c-0.34-0.55-1.11-1.01-1.87-1.01
			c-1.27,0-2.03,1.04-2.03,2.43s0.75,2.42,2.03,2.42C296.57,17.06,297.33,16.6,297.67,16.06z"/>
		<path class="st6" d="M299.91,14.63c0-1.82,1.3-3.29,3.09-3.29c1.9,0,3.02,1.48,3.02,3.37v0.25h-5.07c0.08,1.18,0.9,2.17,2.25,2.17
			c0.73,0,1.44-0.29,1.95-0.81l0.47,0.64c-0.64,0.62-1.48,0.97-2.5,0.97C301.24,17.93,299.91,16.59,299.91,14.63z M302.99,12.14
			c-1.34,0-2,1.13-2.05,2.08h4.12C305.04,13.3,304.42,12.14,302.99,12.14z"/>
		<path class="st6" d="M307.26,17.77V9.1h0.98v3.34c0.51-0.69,1.27-1.1,2.12-1.1c1.65,0,2.79,1.29,2.79,3.3
			c0,2.04-1.16,3.29-2.79,3.29c-0.88,0-1.65-0.46-2.12-1.09v0.94H307.26z M310.12,17.06c1.26,0,2.02-1.03,2.02-2.42
			s-0.75-2.43-2.02-2.43c-0.78,0-1.55,0.47-1.88,1.01v2.85C308.58,16.62,309.34,17.06,310.12,17.06z"/>
		<path class="st6" d="M314.05,14.63c0-1.82,1.3-3.29,3.09-3.29c1.9,0,3.02,1.48,3.02,3.37v0.25h-5.07c0.08,1.18,0.9,2.17,2.25,2.17
			c0.73,0,1.44-0.29,1.95-0.81l0.47,0.64c-0.64,0.62-1.48,0.97-2.5,0.97C315.39,17.93,314.05,16.59,314.05,14.63z M317.13,12.14
			c-1.34,0-2,1.13-2.05,2.08h4.12C319.18,13.3,318.56,12.14,317.13,12.14z"/>
		<path class="st6" d="M328.69,17.77v-0.88c-0.48,0.54-1.3,1.04-2.24,1.04c-1.31,0-2-0.65-2-2v-4.43h0.97v4.13
			c0,1.11,0.56,1.43,1.42,1.43c0.75,0,1.48-0.44,1.85-0.95v-4.62h0.97v6.28H328.69z"/>
		<path class="st6" d="M331.48,16.46v-4.11h-1.04v-0.86h1.04V9.78h0.99v1.71h1.27v0.86h-1.27v3.9c0,0.47,0.21,0.81,0.62,0.81
			c0.29,0,0.53-0.13,0.66-0.27l0.29,0.74c-0.25,0.23-0.6,0.4-1.16,0.4C331.95,17.93,331.48,17.4,331.48,16.46z"/>
		<path class="st6" d="M334.61,9.95c0-0.36,0.3-0.66,0.66-0.66c0.36,0,0.65,0.3,0.65,0.66c0,0.36-0.29,0.65-0.65,0.65
			C334.91,10.6,334.61,10.31,334.61,9.95z M334.78,17.77v-6.28h0.97v6.28H334.78z"/>
		<path class="st6" d="M337.38,17.77V9.1h0.98v8.67H337.38z"/>
		<path class="st6" d="M339.82,9.95c0-0.36,0.3-0.66,0.66-0.66c0.37,0,0.65,0.3,0.65,0.66c0,0.36-0.29,0.65-0.65,0.65
			C340.11,10.6,339.82,10.31,339.82,9.95z M339.98,17.77v-6.28h0.98v6.28H339.98z"/>
		<path class="st6" d="M342.28,17.77v-0.77l3.46-4.65h-3.46v-0.86h4.73v0.74l-3.48,4.68h3.54v0.86H342.28z"/>
		<path class="st6" d="M352.32,17.77v-0.71c-0.51,0.57-1.24,0.87-2.08,0.87c-1.05,0-2.19-0.71-2.19-2.08c0-1.42,1.12-2.07,2.19-2.07
			c0.86,0,1.57,0.27,2.08,0.84V13.5c0-0.83-0.68-1.31-1.59-1.31c-0.75,0-1.37,0.26-1.93,0.87l-0.45-0.68
			c0.68-0.7,1.48-1.04,2.51-1.04c1.34,0,2.43,0.6,2.43,2.12v4.32H352.32z M352.32,16.45v-1.2c-0.38-0.51-1.04-0.77-1.72-0.77
			c-0.92,0-1.56,0.57-1.56,1.37c0,0.81,0.64,1.38,1.56,1.38C351.28,17.23,351.94,16.97,352.32,16.45z"/>
		<path class="st6" d="M354.93,17.77v-6.28h0.98v1c0.51-0.65,1.23-1.14,2.09-1.14v1c-0.12-0.01-0.23-0.03-0.38-0.03
			c-0.61,0-1.43,0.49-1.71,1v4.45H354.93z"/>
		<path class="st6" d="M358.7,17.19c0-0.39,0.32-0.71,0.71-0.71c0.39,0,0.71,0.32,0.71,0.71c0,0.39-0.33,0.71-0.71,0.71
			C359.03,17.9,358.7,17.58,358.7,17.19z"/>
	</g>
</g>
</svg>
