<?xml version="1.0" encoding="utf-8"?>
<!-- Generator: Adobe Illustrator 26.0.0, SVG Export Plug-In . SVG Version: 6.00 Build 0)  -->
<svg version="1.1" id="Capa_1" xmlns="http://www.w3.org/2000/svg" xmlns:xlink="http://www.w3.org/1999/xlink" x="0px" y="0px"
	 viewBox="0 0 133.49 120.1" style="enable-background:new 0 0 133.49 120.1;" xml:space="preserve">
<style type="text/css">
	.st0{clip-path:url(#SVGID_00000094614667483668443610000008519999924559976861_);fill:#1F1F1D;}
	.st1{fill:#1F1F1D;}
	.st2{fill:#FFFFFF;}
	.st3{fill:#13110C;}
	.st4{clip-path:url(#SVGID_00000028323246354726263910000016067702410238168972_);fill:#13110C;}
	.st5{clip-path:url(#SVGID_00000028323246354726263910000016067702410238168972_);fill:#C6C4C3;}
	.st6{fill:#C6C4C3;}
	.st7{clip-path:url(#SVGID_00000008851034165515044770000017383090575050410151_);fill:#1F1F1D;}
	.st8{clip-path:url(#SVGID_00000008851034165515044770000017383090575050410151_);fill:#FFFFFF;}
	.st9{clip-path:url(#SVGID_00000165928459243629267540000014281159331439105456_);fill:#1F1F1D;}
	.st10{clip-path:url(#SVGID_00000165928459243629267540000014281159331439105456_);fill:#FFFFFF;}
	.st11{fill:#ECEDED;}
	.st12{clip-path:url(#SVGID_00000115515052225496762960000011524547104906274445_);fill:#C6C4C3;}
	.st13{clip-path:url(#SVGID_00000115515052225496762960000011524547104906274445_);fill:#1F1F1D;}
	.st14{clip-path:url(#SVGID_00000115515052225496762960000011524547104906274445_);fill:#FFFFFF;}
	.st15{clip-path:url(#SVGID_00000115515052225496762960000011524547104906274445_);fill:#F0E2F1;}
	.st16{clip-path:url(#SVGID_00000115515052225496762960000011524547104906274445_);fill:#13110C;}
	.st17{fill:#686767;}
	.st18{fill:#8E8D8D;}
	.st19{fill:#D0D0D0;}
	.st20{clip-path:url(#SVGID_00000144317057640598635640000015802058699178213520_);fill:#0098BA;}
	.st21{clip-path:url(#SVGID_00000144317057640598635640000015802058699178213520_);fill:#FFFFFF;}
	.st22{clip-path:url(#SVGID_00000144317057640598635640000015802058699178213520_);fill:#9D9B9B;}
	.st23{clip-path:url(#SVGID_00000119823542709693754000000000612928269384167835_);fill:#9D9B9B;}
	.st24{clip-path:url(#SVGID_00000119823542709693754000000000612928269384167835_);fill:#FFFFFF;}
	.st25{clip-path:url(#SVGID_00000119823542709693754000000000612928269384167835_);fill:#C6C4C3;}
	.st26{fill:#CAC8CA;}
	.st27{clip-path:url(#SVGID_00000049941452980876732000000000141391472473566604_);fill:#FFFFFF;}
	.st28{clip-path:url(#SVGID_00000049941452980876732000000000141391472473566604_);fill:#1F1F1D;}
	.st29{fill:#F0E2F1;}
	.st30{fill:none;stroke:#662982;stroke-width:1.9;stroke-miterlimit:10;}
	.st31{fill:#FFFFFF;stroke:#662982;stroke-width:1.9;stroke-miterlimit:10;}
	.st32{fill:#662982;}
</style>
<g>
	<g>
		<g>
			<defs>
				<rect id="SVGID_1_" x="2.38" y="10.79" width="59.64" height="106.93"/>
			</defs>
			<clipPath id="SVGID_00000133486859935700554300000007504930728069962676_">
				<use xlink:href="#SVGID_1_"  style="overflow:visible;"/>
			</clipPath>
			<path style="clip-path:url(#SVGID_00000133486859935700554300000007504930728069962676_);fill:#1F1F1D;" d="M61.49,56.28
				c-0.27,0-0.54-0.01-0.81-0.04c-1.98-0.23-3.59-1.68-3.65-1.74l-0.01-0.24l0.25-0.01c0.02,0.01,1.59,1.43,3.46,1.65
				c1.88,0.21,3.92-0.49,3.94-0.5l0.22,0.1l-0.1,0.22C64.7,55.74,63.17,56.28,61.49,56.28"/>
		</g>
		<g>
			<path class="st1" d="M23.97,89.09l-0.13-0.03l-0.1-0.16l0.26-0.15c0.07-0.01,0.29-0.08,0.87-0.39c0.69-0.38,1.48-2.11,2.09-4.63
				c0.05-0.23,0.11-0.46,0.16-0.67c0.26-1.1,0.46-1.98,0.96-2.66c0.56-0.77,2.09-3.84,2.11-3.87l0.23-0.08l0.08,0.23
				c-0.07,0.13-1.56,3.12-2.14,3.92c-0.46,0.63-0.65,1.47-0.9,2.54c-0.05,0.22-0.11,0.44-0.16,0.67c-0.38,1.56-1.18,4.26-2.26,4.85
				C24.4,89,24.12,89.09,23.97,89.09"/>
			<path class="st1" d="M34.87,93.84l-0.61,6.89c0.64-0.2,2.37-0.8,3.57-1.59c1.39-0.92,2.06-1.81,2.18-2.89
				c0.05-0.44,0.06-1.26-0.39-1.81c-0.24-0.3-0.6-0.48-1.06-0.52C37.86,93.85,35.52,93.85,34.87,93.84 M34.05,101.14l-0.11-0.04
				l-0.06-0.15l0.65-7.3l0.17-0.16c0.13,0,3.06-0.01,3.88,0.08c0.55,0.06,0.99,0.27,1.29,0.65c0.53,0.65,0.52,1.57,0.46,2.06
				c-0.13,1.18-0.85,2.15-2.33,3.13c-1.54,1.02-3.82,1.69-3.91,1.71L34.05,101.14z"/>
			<path class="st2" d="M37.61,53.54l0.27,0.58c0.05,0.27-0.14,0.61-0.43,0.76l-1.78,0.85c-0.84,0.5-0.98,1.64-1.42,2.41
				l18.27,38.67c0.11,0.22-0.03,0.5-0.11,0.63c-0.47,0.88-0.94,1.51-1.68,2.13c-0.3,0.23-0.88,0.71-0.78,1l0.1,0.31
				c0.59,0.08,0.62,0.04,0.28,0.6l0.6,1.16c0.11,0.49-0.04,1.07-0.3,1.19l-3.35,1.53c-0.3,0.12-0.95-0.34-1.06-0.52l-0.59-1.25
				c-0.63-0.12-0.58,0-0.27-0.57l-0.18-0.38c-0.1-0.17-0.39-0.11-1.11-0.02c-1.1,0.17-2.26,0.14-2.98-0.02
				c-0.21-0.04-0.45-0.08-0.53-0.26L22.22,63.6c-0.58-0.3-1.36-1.06-2.12-0.78l-2.38,1.05c-0.47,0.21-0.8-0.06-0.92-0.28l-0.21-0.45
				L37.61,53.54z"/>
			<path class="st3" d="M45.36,103.37l0.05,0.01l0.25,0.04l0.09,0.02l0.62,1.33c0.08,0.13,0.65,0.51,0.84,0.44l3.34-1.53
				c0.15-0.07,0.31-0.55,0.21-0.99l-0.63-1.21l0.05-0.08l0.17-0.3l-0.21-0.03l-0.23-0.03l-0.13-0.42c-0.11-0.28,0.15-0.65,0.83-1.18
				c0.67-0.55,1.13-1.13,1.64-2.07c0.06-0.1,0.18-0.33,0.11-0.48L34.04,58.14l0.04-0.08c0.13-0.23,0.24-0.51,0.35-0.8
				c0.25-0.64,0.51-1.31,1.13-1.68l1.79-0.86c0.21-0.11,0.38-0.38,0.34-0.58l-0.19-0.38l-20.7,9.45l0.14,0.29
				c0.03,0.06,0.26,0.39,0.69,0.2l2.38-1.05c0.67-0.25,1.31,0.18,1.83,0.52c0.15,0.1,0.3,0.2,0.44,0.27l0.05,0.03l0.02,0.05
				l18.34,38.75c0.04,0.1,0.25,0.14,0.41,0.17c0.76,0.16,1.93,0.17,2.92,0.02l0.15-0.02c0.69-0.09,0.98-0.13,1.13,0.12l0.22,0.47
				l-0.04,0.07l-0.12,0.22L45.36,103.37z M47.17,105.55c-0.43,0-0.99-0.44-1.1-0.62l-0.56-1.18l-0.15-0.03
				c-0.2-0.03-0.32-0.05-0.38-0.17c-0.06-0.12,0-0.22,0.1-0.4l0.08-0.14l-0.14-0.3c-0.03-0.04-0.41,0.01-0.78,0.06l-0.15,0.02
				c-1.04,0.16-2.23,0.15-3.04-0.02c-0.22-0.04-0.53-0.1-0.65-0.35l-18.31-38.7c-0.12-0.07-0.27-0.16-0.41-0.26
				c-0.48-0.32-1.02-0.67-1.51-0.49l-2.37,1.04c-0.51,0.23-0.95-0.01-1.14-0.35l-0.29-0.61l0.16-0.07l21.18-9.67l0.35,0.73
				c0.08,0.38-0.14,0.79-0.51,0.98l-1.79,0.85c-0.5,0.3-0.74,0.91-0.97,1.5c-0.1,0.26-0.21,0.52-0.33,0.76l18.23,38.59
				c0.14,0.29-0.01,0.62-0.12,0.79c-0.52,0.96-1.02,1.59-1.72,2.17c-0.79,0.62-0.73,0.8-0.72,0.8l0.07,0.22
				c0.27,0.04,0.44,0.06,0.51,0.2c0.07,0.14,0,0.28-0.16,0.56l0.55,1.08c0.13,0.55-0.01,1.25-0.38,1.42l-3.35,1.53L47.17,105.55z"/>
			<polygon class="st3" points="45.19,103.64 45.03,103.54 45.11,103.31 50.39,100.9 50.62,100.99 50.53,101.21 45.26,103.62 			"/>
			<polygon class="st3" points="45.06,102.73 44.91,102.64 44.99,102.41 49.77,100.23 50,100.31 49.91,100.54 45.14,102.72 			"/>
			<polygon class="st3" points="46.01,104.6 45.85,104.5 45.93,104.27 50.61,102.14 50.84,102.22 50.75,102.45 46.08,104.58 			"/>
			<polygon class="st3" points="40.58,102.48 40.42,102.38 40.51,102.15 52.46,96.69 52.69,96.77 52.6,97 40.66,102.46 			"/>
			<polygon class="st3" points="37.22,83.32 37.11,83.09 37.73,82.81 37.72,82.8 37.54,82.77 36.9,82.64 36.76,82.34 37.54,82.54 
				38.09,81.7 38.22,81.99 37.78,82.64 37.98,82.69 38.45,82.48 38.56,82.71 			"/>
			<path class="st3" d="M37.32,81.3c0.08,0.17,0.19,0.32,0.34,0.25l0.08-0.2l-0.22-0.13l-0.06,0.02L37.32,81.3z M37.78,81.05
				l-0.1,0.06l0,0.01l0.26,0.22c0.09,0.19,0,0.36-0.14,0.43c-0.25,0.11-0.47-0.04-0.63-0.4l-0.02,0.01
				c-0.06,0.03-0.16,0.1-0.08,0.27l0.2,0.22L37.13,82c-0.08-0.05-0.18-0.16-0.25-0.31c-0.14-0.3,0.01-0.48,0.22-0.58l0.35-0.16
				l0.22-0.12L37.78,81.05z"/>
			<path class="st3" d="M36.88,80.9l-0.28,0.14l-0.1-0.21l0.14-0.08l0-0.01c-0.09-0.01-0.24-0.07-0.31-0.23
				c-0.08-0.17-0.05-0.39,0.25-0.53l0.58-0.26l0.11,0.24l-0.54,0.25c-0.14,0.06-0.22,0.16-0.16,0.29l0.23,0.12l0.08-0.03l0.57-0.26
				l0.11,0.24L36.88,80.9z"/>
			<path class="st3" d="M36.52,79.41l0.05-0.03l0.07-0.29c-0.07-0.15-0.24-0.19-0.43-0.1c-0.17,0.08-0.27,0.22-0.2,0.38l0.28,0.13
				l0.07-0.02L36.52,79.41z M37.04,79.48l-0.28,0.12l-1.14,0.52l-0.12-0.24l0.58-0.26l0,0c-0.12-0.02-0.23-0.09-0.3-0.23
				c-0.11-0.23,0.01-0.49,0.3-0.62c0.35-0.16,0.62-0.02,0.72,0.2l-0.03,0.38l0,0l0.15-0.05L37.04,79.48z"/>
			<path class="st3" d="M35.07,78.83l0.2,0.07l0.07-0.19l-0.19-0.08L35.07,78.83z M35.41,78.53l0.12,0.24l0.97-0.44l-0.12-0.24
				L35.41,78.53z"/>
			<path class="st3" d="M36.04,77.94l-0.04-0.28l-0.18-0.1c-0.07,0.03-0.08,0.08-0.07,0.22c0.02,0.21-0.04,0.34-0.16,0.39
				c-0.17,0.08-0.37,0-0.47-0.22l-0.06-0.28l0.19-0.03l0.04,0.23l0.16,0.09c0.06-0.03,0.07-0.09,0.06-0.23
				c-0.02-0.2,0.03-0.32,0.18-0.39c0.17-0.08,0.37,0,0.48,0.25l0.07,0.32L36.04,77.94z"/>
			<path class="st3" d="M34.71,77.23l-0.02-0.03l-0.07-0.04l-0.01,0.08l0.02,0.04L34.71,77.23z M34.89,77.15l0.04,0.09l-0.32,0.15
				l-0.07-0.13l-0.03-0.13l0.05-0.07l0.11,0.04l0,0l0.05-0.1l0.07-0.06l0.04,0.1l-0.06,0.06l-0.02,0.08l0.02,0.03L34.89,77.15z
				 M34.82,77.42c0.15-0.07,0.21-0.22,0.14-0.36c-0.07-0.14-0.23-0.19-0.38-0.13c-0.14,0.07-0.21,0.22-0.14,0.36
				C34.51,77.44,34.68,77.49,34.82,77.42 M34.54,76.84c0.19-0.09,0.41-0.01,0.5,0.18c0.09,0.19,0.01,0.41-0.18,0.49
				c-0.19,0.08-0.41,0-0.5-0.19C34.28,77.14,34.36,76.92,34.54,76.84"/>
			<path class="st3" d="M40.59,82.46c0.06,0.04,0.14,0.14,0.21,0.29c0.16,0.34,0.06,0.69-0.34,0.87c-0.38,0.17-0.76,0.04-0.94-0.33
				c-0.07-0.15-0.08-0.26-0.08-0.31l0.15-0.02l0.06,0.27c0.13,0.28,0.4,0.38,0.72,0.24c0.3-0.14,0.41-0.39,0.27-0.69l-0.17-0.23
				L40.59,82.46z"/>
			<path class="st3" d="M39.88,82c0.08,0.17,0.2,0.35,0.37,0.28l0.08-0.22l-0.25-0.14l-0.05,0.01L39.88,82z M40.32,81.77l-0.1,0.06
				l0,0.01l0.25,0.2c0.08,0.17,0,0.32-0.13,0.38c-0.21,0.1-0.41-0.04-0.57-0.37l-0.02,0.01c-0.07,0.03-0.19,0.11-0.11,0.29l0.17,0.2
				l-0.09,0.08l-0.21-0.25c-0.12-0.26,0.03-0.41,0.2-0.49l0.33-0.15l0.2-0.11L40.32,81.77z"/>
			<path class="st3" d="M39.5,81.68l-0.23,0.12l-0.06-0.14l0.14-0.07v0c-0.1-0.01-0.23-0.07-0.3-0.21
				c-0.05-0.12-0.07-0.34,0.23-0.47l0.52-0.24l0.07,0.16l-0.5,0.23c-0.14,0.06-0.23,0.17-0.16,0.32l0.26,0.14l0.08-0.02l0.53-0.24
				l0.07,0.16L39.5,81.68z"/>
			<path class="st3" d="M39.03,80.7l-0.23,0.12l-0.07-0.14l0.14-0.07l0,0c-0.11-0.01-0.23-0.07-0.3-0.21
				c-0.06-0.12-0.07-0.34,0.23-0.47l0.52-0.24l0.07,0.16l-0.5,0.23c-0.14,0.07-0.23,0.17-0.16,0.32l0.26,0.13l0.08-0.02l0.53-0.24
				l0.07,0.16L39.03,80.7z"/>
			<path class="st3" d="M38.54,79.17c0.08,0.17,0.2,0.35,0.37,0.27L39,79.23l-0.24-0.14L38.7,79.1L38.54,79.17z M38.98,78.94
				l-0.1,0.07l0,0l0.25,0.2c0.08,0.17,0,0.32-0.12,0.38c-0.21,0.09-0.41-0.04-0.57-0.37l-0.02,0.01c-0.07,0.04-0.19,0.11-0.11,0.29
				l0.17,0.2l-0.09,0.08l-0.21-0.25c-0.12-0.26,0.03-0.41,0.2-0.49l0.33-0.15l0.2-0.11L38.98,78.94z"/>
			<path class="st3" d="M38.38,78.57l0.05-0.03l0.07-0.32c-0.08-0.16-0.26-0.2-0.46-0.11c-0.18,0.08-0.28,0.24-0.21,0.4
				c0.05,0.11,0.17,0.17,0.31,0.15l0.07-0.02L38.38,78.57z M38.8,78.57l-0.23,0.09l-1.06,0.48l-0.07-0.15L38,78.74l0,0
				c-0.12-0.01-0.23-0.08-0.3-0.22c-0.1-0.21,0.01-0.45,0.27-0.57c0.31-0.14,0.56-0.02,0.65,0.17l-0.03,0.36l0,0.01l0.15-0.06
				L38.8,78.57z"/>
			<polygon class="st3" points="37.07,78.03 37.21,78.08 37.27,77.94 37.12,77.89 			"/>
			<path class="st3" d="M37.33,76.78l-0.06,0.04l-0.08,0.31c0.08,0.16,0.27,0.19,0.46,0.1c0.18-0.08,0.29-0.23,0.21-0.4
				c-0.05-0.1-0.17-0.17-0.3-0.14l-0.07,0.02L37.33,76.78z M36.49,76.98l1.06-0.48l0.22-0.11l0.07,0.14l-0.15,0.08v0
				c0.12,0,0.24,0.07,0.31,0.22c0.1,0.21,0,0.45-0.27,0.57c-0.29,0.13-0.55,0.04-0.65-0.17c-0.06-0.13-0.04-0.25,0.01-0.32l0,0
				l-0.52,0.24L36.49,76.98z"/>
			<path class="st3" d="M36.4,76.61l0.15,0.05l0.05-0.14l-0.15-0.06L36.4,76.61z M36.71,76.37l0.08,0.16l0.88-0.4l-0.08-0.16
				L36.71,76.37z"/>
			<path class="st3" d="M36.98,75.82c0.19-0.09,0.29-0.26,0.21-0.42c-0.07-0.15-0.27-0.2-0.46-0.11c-0.15,0.07-0.3,0.23-0.21,0.41
				C36.6,75.89,36.81,75.89,36.98,75.82 M36.65,75.14c0.32-0.15,0.57,0.01,0.67,0.22c0.11,0.23,0.02,0.49-0.26,0.62
				c-0.29,0.13-0.55,0.02-0.67-0.21C36.28,75.51,36.38,75.26,36.65,75.14"/>
			<polygon class="st3" points="35.64,75.17 35.71,75.32 37,74.74 36.92,74.58 			"/>
			<polygon class="st3" points="47.36,95.54 47.78,96.41 47.9,96.35 48.04,96.16 47.96,96.06 47.85,96.21 47.85,96.21 47.51,95.48 
							"/>
			<polygon class="st3" points="47.52,94.05 47.93,94.92 48.05,94.86 48.2,94.67 48.13,94.57 48.01,94.72 48.01,94.72 47.67,93.99 
							"/>
			<path class="st3" d="M47.33,93.93l0.07,0.38l-0.15,0.08c-0.02-0.13-0.03-0.3-0.02-0.41L47.33,93.93z"/>
			<path class="st3" d="M47.08,95.16l0.24-0.11l-0.06-0.2l-0.03,0.01l-0.2,0.01l-0.17-0.16c-0.08-0.17-0.03-0.35,0.14-0.43
				l0.18-0.04l0.03,0.13l-0.14,0.03l-0.07,0.24c0.06,0.12,0.17,0.13,0.28,0.08l0.06-0.03l0.14,0.44l-0.34,0.16L47.08,95.16z"/>
			<path class="st3" d="M46.66,91.32l0.05,0.09l-0.03,0.14c-0.04,0.19-0.08,0.38-0.02,0.52l0.18,0.08l0.11-0.1l0.08,0.1l-0.16,0.14
				c-0.17,0.08-0.29-0.01-0.35-0.14c-0.08-0.16-0.04-0.35,0.01-0.53l0.02-0.09v0l-0.28,0.13l-0.06-0.13L46.66,91.32z"/>
			<path class="st3" d="M46.12,91.36l0.07,0.37l-0.15,0.08c-0.02-0.13-0.03-0.3-0.01-0.41L46.12,91.36z"/>
			<path class="st3" d="M45.86,92.58l0.24-0.11l-0.06-0.2l-0.03,0.02l-0.19,0.01l-0.17-0.17c-0.08-0.17-0.03-0.35,0.15-0.43
				l0.18-0.04l0.03,0.12l-0.14,0.03l-0.07,0.24c0.06,0.12,0.17,0.13,0.28,0.08l0.06-0.04l0.14,0.44l-0.34,0.16L45.86,92.58z"/>
			<path class="st3" d="M45.46,88.82l-0.14,0.02l-0.07,0.21l0.24,0.08l0.03-0.01l0.05,0.11l-0.02,0.01l-0.09,0.2l0.16,0.06l0.1-0.09
				l0.07,0.1l-0.15,0.13c-0.14,0.06-0.26,0-0.31-0.11l0.04-0.26v0c-0.1,0.01-0.2-0.03-0.26-0.15c-0.06-0.13-0.02-0.3,0.16-0.39
				l0.18-0.04L45.46,88.82z"/>
			<path class="st3" d="M44.87,88.71l0.07,0.38l-0.15,0.08c-0.02-0.13-0.03-0.3-0.02-0.41L44.87,88.71z"/>
			<path class="st3" d="M44.62,89.94l0.24-0.11l-0.06-0.2l-0.03,0.01l-0.2,0.01l-0.17-0.16c-0.08-0.17-0.03-0.35,0.14-0.43
				l0.18-0.04l0.03,0.12l-0.14,0.03l-0.07,0.24c0.06,0.12,0.17,0.13,0.28,0.08l0.07-0.03l0.14,0.44l-0.35,0.16L44.62,89.94z"/>
			<path class="st3" d="M44.16,86.73l-0.1-0.21l0.17-0.08v0l-0.01,0.26l0,0.18h0L44.16,86.73z M43.77,86.24l0.11,0.22l-0.09,0.04
				l0.05,0.12l0.09-0.04l0.25,0.53l0.14-0.06l0.03-0.68l-0.05-0.1L44,86.41l-0.1-0.22L43.77,86.24z"/>
			<path class="st3" d="M43.64,86.1l0.07,0.38l-0.15,0.08c-0.02-0.13-0.03-0.3-0.02-0.41L43.64,86.1z"/>
			<path class="st3" d="M43.38,87.33l0.23-0.11l-0.06-0.2l-0.03,0.02l-0.2,0.01l-0.17-0.16c-0.08-0.17-0.03-0.35,0.14-0.43
				l0.18-0.04l0.03,0.12l-0.14,0.03L43.3,86.8c0.06,0.12,0.17,0.13,0.28,0.08l0.06-0.03l0.14,0.44l-0.34,0.16L43.38,87.33z"/>
			<path class="st3" d="M46.52,92.83l0.04,0.09l-0.03,0.14c-0.04,0.2-0.09,0.38-0.02,0.52l0.18,0.08l0.11-0.1l0.08,0.1l-0.16,0.14
				c-0.17,0.08-0.29-0.01-0.35-0.14c-0.08-0.16-0.04-0.35,0.01-0.53l0.02-0.1l0,0l-0.28,0.13l-0.06-0.13L46.52,92.83z"/>
			<path class="st3" d="M45.34,90.41l-0.14,0.02l-0.07,0.21l0.24,0.08l0.02-0.01l0.05,0.11l-0.02,0.01l-0.09,0.2l0.16,0.07L45.59,91
				l0.07,0.1l-0.15,0.12c-0.14,0.06-0.26,0.01-0.31-0.11l0.04-0.26l0,0c-0.09,0.01-0.2-0.03-0.26-0.15
				c-0.07-0.14-0.02-0.3,0.15-0.39l0.18-0.04L45.34,90.41z"/>
			<path class="st3" d="M44.09,88.29l-0.1-0.21L44.16,88v0l-0.01,0.26l0,0.18l0,0L44.09,88.29z M43.7,87.8l0.1,0.22l-0.09,0.04
				l0.05,0.12l0.09-0.04l0.25,0.53l0.14-0.06l0.03-0.68l-0.04-0.1l-0.3,0.14l-0.1-0.22L43.7,87.8z"/>
			<path class="st3" d="M42.73,85.95l0.23-0.11l-0.06-0.2l-0.03,0.02l-0.2,0.01l-0.17-0.16c-0.08-0.17-0.03-0.35,0.14-0.43
				l0.18-0.04l0.03,0.12l-0.14,0.03l-0.07,0.24c0.06,0.12,0.17,0.13,0.28,0.08l0.06-0.03l0.14,0.44l-0.34,0.16L42.73,85.95z"/>
			<path class="st3" d="M49.19,97.05c-0.09-0.21-0.18-0.31-0.25-0.28c-0.07,0.03-0.04,0.16,0.06,0.37c0.09,0.19,0.18,0.31,0.25,0.28
				C49.31,97.39,49.29,97.25,49.19,97.05 M48.86,97.2c-0.15-0.31-0.1-0.5,0.03-0.56c0.17-0.08,0.33,0.08,0.45,0.33
				c0.13,0.27,0.13,0.49-0.04,0.56C49.12,97.62,48.97,97.44,48.86,97.2"/>
			<path class="st3" d="M48.59,96.59l0.07,0.38l-0.15,0.08c-0.02-0.13-0.03-0.3-0.02-0.41L48.59,96.59z"/>
			<path class="st3" d="M48.33,97.82l0.24-0.11l-0.06-0.2l-0.03,0.01l-0.19,0.01l-0.17-0.17c-0.08-0.17-0.03-0.35,0.15-0.43
				l0.18-0.04l0.03,0.13l-0.14,0.03l-0.07,0.24c0.06,0.12,0.17,0.13,0.28,0.08l0.06-0.03l0.14,0.44l-0.34,0.16L48.33,97.82z"/>
			<polygon class="st3" points="41.99,98.69 41.84,98.59 41.92,98.37 46.73,96.17 46.96,96.25 46.88,96.48 42.07,98.67 			"/>
			<polygon class="st3" points="40.79,96.15 40.64,96.06 40.72,95.83 45.54,93.63 45.77,93.71 45.69,93.94 40.87,96.14 			"/>
			<polygon class="st3" points="39.58,93.57 39.42,93.47 39.5,93.24 44.32,91.04 44.55,91.13 44.46,91.35 39.65,93.55 			"/>
			<polygon class="st3" points="38.34,90.95 38.18,90.85 38.27,90.62 43.08,88.43 43.31,88.51 43.23,88.74 38.41,90.94 			"/>
			<polygon class="st3" points="37.1,88.32 36.94,88.22 37.02,87.99 41.84,85.79 42.07,85.87 41.99,86.1 37.17,88.3 			"/>
			<polygon class="st3" points="45.38,99.63 45.22,99.53 45.3,99.31 47.7,98.21 47.93,98.3 47.85,98.52 45.45,99.62 			"/>
			<polygon class="st3" points="44.75,98.3 44.59,98.2 44.67,97.97 47.07,96.88 47.3,96.96 47.22,97.19 44.82,98.28 			"/>
			<polygon class="st3" points="44.11,96.95 43.96,96.86 44.04,96.63 46.44,95.53 46.67,95.61 46.58,95.84 44.19,96.94 			"/>
			<polygon class="st3" points="42.9,94.39 42.74,94.29 42.83,94.06 45.22,92.97 45.46,93.05 45.37,93.28 42.97,94.37 			"/>
			<polygon class="st3" points="42.3,93.12 42.14,93.02 42.23,92.79 44.63,91.7 44.86,91.78 44.77,92.01 42.38,93.1 			"/>
			<polygon class="st3" points="41.68,91.8 41.52,91.7 41.61,91.47 44,90.38 44.23,90.46 44.15,90.69 41.75,91.78 			"/>
			<polygon class="st3" points="41.06,90.49 40.9,90.39 40.99,90.16 43.38,89.07 43.62,89.15 43.53,89.38 41.13,90.47 			"/>
			<polygon class="st3" points="40.44,89.18 40.29,89.08 40.37,88.86 42.77,87.76 43,87.84 42.91,88.07 40.52,89.17 			"/>
			<polygon class="st3" points="39.82,87.86 39.66,87.76 39.74,87.53 42.14,86.43 42.38,86.52 42.29,86.75 39.89,87.84 			"/>
			<polygon class="st3" points="43.51,95.68 43.36,95.59 43.44,95.36 45.84,94.26 46.07,94.35 45.98,94.57 43.59,95.67 			"/>
			<polygon class="st3" points="44.19,99.41 44.03,99.31 44.11,99.08 47.4,97.58 47.63,97.66 47.55,97.89 44.26,99.4 			"/>
			<polygon class="st3" points="44.19,99.41 44.03,99.31 44.11,99.08 47.4,97.58 47.63,97.66 47.55,97.89 44.26,99.4 			"/>
			<polygon class="st3" points="42.93,96.74 42.77,96.65 42.86,96.42 46.14,94.92 46.38,95 46.29,95.23 43,96.73 			"/>
			<polygon class="st3" points="41.72,94.18 41.56,94.08 41.64,93.85 44.93,92.35 45.16,92.43 45.08,92.66 41.79,94.16 			"/>
			<polygon class="st3" points="40.47,91.53 40.31,91.43 40.39,91.2 43.68,89.7 43.92,89.79 43.83,90.01 40.54,91.52 			"/>
			<polygon class="st3" points="39.23,88.91 39.08,88.82 39.16,88.59 42.45,87.09 42.68,87.17 42.6,87.4 39.31,88.9 			"/>
			<path class="st3" d="M35.52,72.38l1.45-0.66l-0.16-0.69c0.05,0.19-0.06,0.41-0.24,0.49l-1.13,0.52l-0.12,0.25L35.52,72.38z
				 M35.7,71.53l1.12-0.51l-0.16-0.7c0.04,0.19-0.06,0.41-0.24,0.5l-0.79,0.36l-0.12,0.25L35.7,71.53z M35.2,70.99l1.45-0.66
				l-0.16-0.7c0.04,0.18-0.06,0.41-0.24,0.5l-1.13,0.51L35,70.89L35.2,70.99z"/>
			<polygon class="st3" points="33.12,71.56 33.52,73.3 33.77,73.18 33.37,71.45 			"/>
			<path class="st3" d="M31.1,73.06c0.03-0.22,0.12-0.37,0.27-0.44l0.13-0.01c0.07,0.03,0.12,0.13,0.16,0.3
				c0.07,0.29-0.01,0.49-0.24,0.59l-0.19,0.07L31.1,73.06z M31.04,73.88c0.12-0.02,0.27-0.07,0.42-0.14
				c0.39-0.18,0.54-0.49,0.44-0.93c-0.06-0.25-0.14-0.4-0.27-0.46l-0.3,0.02c-0.16,0.07-0.26,0.2-0.31,0.4l-0.07-0.22l-0.22,0.1
				l0.29,1.23L31.04,73.88z"/>
			<polygon class="st3" points="34.72,72.5 33.9,72.87 33.96,73.1 35.02,72.61 34.62,70.87 33.54,71.37 33.59,71.59 34.43,71.21 
				34.55,71.75 33.77,72.11 33.82,72.34 34.6,71.98 			"/>
		</g>
		<g>
			<defs>
				<rect id="SVGID_00000078032043759688322660000011127476570622125993_" x="2.38" y="10.79" width="59.64" height="106.93"/>
			</defs>
			<clipPath id="SVGID_00000115478934827917491160000016259464598316261822_">
				<use xlink:href="#SVGID_00000078032043759688322660000011127476570622125993_"  style="overflow:visible;"/>
			</clipPath>
			<path style="clip-path:url(#SVGID_00000115478934827917491160000016259464598316261822_);fill:#13110C;" d="M32.35,72.93
				c-0.02-0.1,0.03-0.17,0.16-0.23l0.34-0.15c0.03,0.2-0.05,0.34-0.24,0.43L32.4,73L32.35,72.93z M32.66,73.19
				c0.37-0.16,0.5-0.46,0.4-0.88c-0.05-0.23-0.15-0.38-0.28-0.44c-0.12-0.06-0.26-0.04-0.43,0.03c-0.17,0.08-0.3,0.2-0.38,0.35
				l0,0.01l0.06,0.25l0.03-0.06c0.07-0.14,0.19-0.25,0.35-0.33l0.24-0.02l0.14,0.21l-0.35,0.16c-0.29,0.13-0.4,0.32-0.35,0.56
				l0.15,0.21C32.35,73.29,32.49,73.27,32.66,73.19"/>
			<path style="clip-path:url(#SVGID_00000115478934827917491160000016259464598316261822_);fill:#C6C4C3;" d="M-8.52,65l-0.19-0.29
				c2.49-1.63,60.96-40.05,66.59-41.55c5.64-1.5,15.3,2.25,15.71,2.41l-0.13,0.32c-0.1-0.04-9.96-3.87-15.49-2.4
				C52.39,24.99-7.91,64.61-8.52,65"/>
		</g>
		<g>
			<path class="st6" d="M31.86,10.79L2.38,25.75v0.39l30.24-15.34H31.86z M36.28,10.79L62.02,18v-0.35l-24.48-6.85H36.28z"/>
			<path class="st1" d="M23.7,90.25l-0.14-0.06l0.02-0.24c0.04-0.03,0.43-0.32,2.1-0.49c1.68-0.17,2.45,0.05,2.48,0.06l0.11,0.21
				l-0.21,0.11c-0.01,0-0.74-0.21-2.34-0.05c-1.54,0.16-1.92,0.41-1.92,0.41L23.7,90.25z"/>
		</g>
		<g>
			<defs>
				<rect id="SVGID_00000116918112728456333500000014486786271863504000_" x="2.38" y="10.79" width="59.64" height="106.93"/>
			</defs>
			<clipPath id="SVGID_00000029038869214121658390000016557899345408034467_">
				<use xlink:href="#SVGID_00000116918112728456333500000014486786271863504000_"  style="overflow:visible;"/>
			</clipPath>
			<path style="clip-path:url(#SVGID_00000029038869214121658390000016557899345408034467_);fill:#1F1F1D;" d="M23.06,94.66
				l-0.14-0.07l0.04-0.24c0.03-0.03,0.85-0.62,2.39-0.71c0.98-0.06,1.85,0,1.86,0l0.16,0.18l-0.17,0.16h-0.01
				c-0.01,0-0.86-0.05-1.81,0c-1.42,0.08-2.19,0.64-2.2,0.64L23.06,94.66z"/>
			<path style="clip-path:url(#SVGID_00000029038869214121658390000016557899345408034467_);fill:#FFFFFF;" d="M33.75,117.07
				l-0.61-5.42c0,0,1.38-2.41,1.68-5.26c0.3-2.86,0.3-7.98,1.07-10.08c0.76-2.11,2.9-7.22,3.36-8.12c0.46-0.9,0.77-3.16,0.77-3.16
				s1.41-3.08,0.46-5c-0.67-1.34-2.64-1.84-2.64-1.84s-3.02-0.08-5.31,2.78c-1.27,1.58-3.37,4.97-4.13,7.97
				c-0.77,3.01-1.22,6.47-2.45,7.22c-1.22,0.75-2.75,0.9-2.75,0.9s-0.3-3.61,0.15-5.57c0.46-1.96,0.92-4.81,0.92-6.77v-2.86
				c0,0,1.68-1.35,2.29-2.41c0.61-1.05,3.1-3.21,3.1-3.21l-2.34-8.23c0,0-3.58-0.22-6.27,2.26c-2.29,2.11-4.43,5.11-4.89,6.77
				c-0.46,1.66-1.53,2.71-3.98,4.36c-2.45,1.66-4.13,4.81-4.59,6.02c-0.46,1.2-0.61,2.86-0.61,2.86s-2.37,1.88-2.68,4.14
				c-0.31,2.26-1.3,24.15-1.3,24.15h31.2L33.75,117.07z"/>
			<path style="clip-path:url(#SVGID_00000029038869214121658390000016557899345408034467_);fill:#1F1F1D;" d="M3.19,118.4h30.79
				l-0.39-1.28l-0.01-0.03l-0.61-5.42l0.02-0.1c0.01-0.02,1.36-2.41,1.66-5.2c0.1-0.9,0.16-2.03,0.23-3.23
				c0.15-2.55,0.31-5.43,0.85-6.89c0.75-2.07,2.88-7.18,3.38-8.14c0.44-0.87,0.74-3.08,0.75-3.11l0.02-0.05
				c0.01-0.03,1.37-3.03,0.46-4.86c-0.62-1.25-2.5-1.75-2.52-1.75c0.01,0.01-2.93-0.03-5.14,2.72c-1.23,1.53-3.33,4.9-4.1,7.91
				c-0.17,0.68-0.33,1.4-0.49,2.09c-0.55,2.48-1.03,4.62-2.03,5.24c-1.25,0.76-2.76,0.92-2.83,0.93l-0.13-0.04l-0.06-0.12
				c-0.01-0.15-0.3-3.66,0.16-5.62c0.46-1.94,0.91-4.77,0.91-6.73v-2.86l0.06-0.13c0.02-0.01,1.66-1.35,2.26-2.36
				c0.56-0.97,2.61-2.79,3.06-3.18l-2.28-8l-0.07,0c-0.76,0-3.7,0.14-5.95,2.21c-2.21,2.03-4.39,5.03-4.85,6.69
				c-0.5,1.79-1.75,2.91-4.04,4.46c-2.49,1.68-4.14,4.93-4.53,5.93c-0.45,1.17-0.6,2.8-0.6,2.82l-0.06,0.12
				c-0.02,0.02-2.32,1.87-2.61,4.03C4.19,96.57,3.29,116.31,3.19,118.4 M34.21,118.75H3.01l-0.12-0.05l-0.05-0.12
				c0.04-0.9,1-21.93,1.3-24.17c0.29-2.13,2.31-3.89,2.68-4.2c0.04-0.33,0.2-1.75,0.61-2.83c0.42-1.11,2.09-4.36,4.65-6.1
				c2.57-1.74,3.48-2.74,3.91-4.27c0.48-1.74,2.65-4.75,4.94-6.85c2.71-2.49,6.25-2.31,6.4-2.3l0.15,0.13l2.34,8.23l-0.05,0.17
				c-0.02,0.02-2.48,2.15-3.06,3.16c-0.56,0.96-1.96,2.14-2.28,2.4v2.78c0,1.98-0.46,4.85-0.92,6.81c-0.39,1.66-0.22,4.58-0.16,5.34
				c0.43-0.07,1.57-0.28,2.5-0.86c0.88-0.54,1.37-2.72,1.88-5.02c0.15-0.69,0.31-1.41,0.49-2.1c0.78-3.06,2.91-6.49,4.16-8.04
				c2.32-2.89,5.35-2.84,5.45-2.85c0.12,0.03,2.1,0.55,2.79,1.94c0.95,1.9-0.31,4.81-0.45,5.13c-0.04,0.26-0.33,2.31-0.78,3.19
				c-0.43,0.84-2.58,5.96-3.36,8.1c-0.51,1.42-0.68,4.28-0.83,6.8c-0.07,1.2-0.14,2.33-0.23,3.25c-0.28,2.63-1.48,4.92-1.68,5.28
				l0.61,5.35l0.45,1.49l-0.03,0.15L34.21,118.75z"/>
		</g>
		<g>
			<path class="st2" d="M6.68,102.63c0,0,0.84-4.44,0.84-6.77c0-2.33-0.54-5.57-0.54-5.57"/>
			<path class="st1" d="M6.68,102.8l-0.03,0l-0.14-0.2c0.01-0.04,0.84-4.45,0.84-6.74c0-2.29-0.53-5.51-0.53-5.54l0.14-0.2l0.2,0.14
				c0.01,0.03,0.54,3.28,0.54,5.59c0,2.32-0.84,6.76-0.84,6.8L6.68,102.8z"/>
			<path class="st2" d="M22.35,79.01c0,0,1.34,1.05,1.57,1.96c0.23,0.9,0.31,1.99,0.31,1.99"/>
			<path class="st1" d="M24.23,83.13l-0.17-0.16c0-0.01-0.08-1.09-0.3-1.96c-0.21-0.83-1.49-1.85-1.51-1.86l-0.03-0.24l0.24-0.03
				c0.06,0.04,1.39,1.1,1.63,2.05c0.23,0.91,0.31,1.98,0.31,2.02l-0.16,0.18H24.23z"/>
		</g>
		<g>
			<defs>
				<rect id="SVGID_00000140711717464437533350000001009529354535938457_" x="2.38" y="10.79" width="59.64" height="106.93"/>
			</defs>
			<clipPath id="SVGID_00000016057002646848159260000014654421668617476261_">
				<use xlink:href="#SVGID_00000140711717464437533350000001009529354535938457_"  style="overflow:visible;"/>
			</clipPath>
			<path style="clip-path:url(#SVGID_00000016057002646848159260000014654421668617476261_);fill:#1F1F1D;" d="M37.99,87.79
				c-0.15,0-0.24-0.06-0.26-0.08l-0.05-0.07c-0.01-0.01-0.5-1.16-0.98-1.89c-0.3-0.46-0.89-0.92-1.32-1.25
				c-0.27-0.21-0.46-0.36-0.54-0.47c-0.22-0.3,0.25-1.26,0.56-1.8l2.41-3.88l0.24-0.06l0.06,0.24l-2.41,3.87
				c-0.35,0.62-0.62,1.3-0.57,1.44c0.05,0.07,0.26,0.22,0.47,0.39c0.45,0.35,1.06,0.83,1.4,1.33c0.44,0.67,0.87,1.63,0.98,1.89
				c0.07,0,0.29-0.06,0.56-0.49l1.38-2.18l0.3,0.18l-1.38,2.18c-0.24,0.38-0.49,0.6-0.74,0.64L37.99,87.79z"/>
			<path style="clip-path:url(#SVGID_00000016057002646848159260000014654421668617476261_);fill:#FFFFFF;" d="M71.93,39.02
				c0,0-3.1,0.51-4.53,0.56c-1.43,0.06-5.28-0.28-6.71,0.4c-1.43,0.68-4.99,2.82-5.33,3.27c-0.34,0.45-1.32,3.44-1.66,4.01
				c-0.34,0.56-3.33,4.63-4.02,5.92c-0.69,1.3-1.13,5.04-1.32,6.21c-0.92,5.7,2.5,6.68,4.47,4.35c1.43-1.69,2.81-3.5,2.81-4.8
				c0-1.3-0.06-1.81-0.06-1.81s2.01-1.07,2.76-2.2c0.74-1.13,1.49-2.43,1.49-2.43s1.2,0,2.75-0.17c1.55-0.17,2.41-0.73,2.41-0.73
				s0.86,1.58,2.18,2.76c1.32,1.18,5.33,2.76,5.33,2.76L71.93,39.02z"/>
			<path style="clip-path:url(#SVGID_00000016057002646848159260000014654421668617476261_);fill:#1F1F1D;" d="M64.23,39.72
				c-1.36,0-2.74,0.08-3.47,0.42c-1.52,0.72-4.97,2.82-5.27,3.22c-0.17,0.22-0.55,1.22-0.88,2.11c-0.31,0.83-0.61,1.61-0.77,1.88
				c-0.12,0.19-0.51,0.75-1.01,1.46c-1.01,1.43-2.54,3.59-3,4.46c-0.56,1.06-0.97,3.89-1.19,5.4c-0.04,0.3-0.08,0.56-0.11,0.75
				c-0.43,2.67,0.08,4.6,1.36,5.17c0.88,0.39,1.99,0.02,2.82-0.96c1.37-1.62,2.77-3.44,2.77-4.69c0-1.27-0.06-1.78-0.06-1.79
				l0.09-0.17c0.02-0.01,1.98-1.07,2.69-2.14c0.74-1.11,1.48-2.4,1.49-2.42l0.15-0.09c0.01,0,1.22,0,2.74-0.17
				c1.48-0.16,2.32-0.7,2.33-0.71l0.14-0.02l0.11,0.08c0.01,0.02,0.86,1.57,2.14,2.72c1.1,0.98,4.14,2.27,5.04,2.63l-0.56-17.65
				c-0.71,0.11-3.12,0.48-4.36,0.53c-0.38,0.02-0.92,0-1.54-0.01C65.36,39.74,64.79,39.72,64.23,39.72 M50.62,65.08
				c-0.3,0-0.6-0.06-0.88-0.19c-1.43-0.64-2.01-2.71-1.55-5.53c0.03-0.19,0.07-0.44,0.11-0.74c0.24-1.64,0.64-4.4,1.23-5.51
				c0.47-0.88,1.94-2.97,3.02-4.5c0.5-0.7,0.89-1.26,1-1.44c0.15-0.25,0.46-1.05,0.75-1.83c0.44-1.17,0.74-1.95,0.93-2.19
				c0.38-0.51,4.03-2.68,5.4-3.33c1.09-0.52,3.5-0.46,5.25-0.42c0.62,0.01,1.15,0.02,1.53,0.01c1.41-0.05,4.48-0.55,4.51-0.56
				l0.14,0.04l0.06,0.12l0.58,18.11l-0.08,0.15l-0.17,0.02c-0.16-0.07-4.06-1.61-5.39-2.8c-1.1-0.99-1.87-2.22-2.13-2.65
				c-0.32,0.17-1.12,0.54-2.32,0.67c-1.29,0.14-2.35,0.17-2.67,0.17c-0.18,0.31-0.82,1.4-1.45,2.35c-0.67,1.02-2.29,1.97-2.71,2.2
				c0.02,0.21,0.05,0.74,0.05,1.71c0,1.35-1.37,3.16-2.85,4.9C52.29,64.65,51.43,65.08,50.62,65.08"/>
		</g>
		<g>
			<path class="st2" d="M55.96,48.76c0,0,0.94,1.63,1.58,2.34c0.64,0.71,2.21,1.41,2.21,1.41"/>
			<path class="st1" d="M59.74,52.68l-0.07-0.02c-0.07-0.03-1.61-0.72-2.26-1.45c-0.64-0.71-1.56-2.3-1.6-2.37l0.07-0.23l0.24,0.06
				c0.01,0.02,0.94,1.62,1.55,2.31c0.61,0.67,2.13,1.36,2.15,1.37l0.08,0.23L59.74,52.68z"/>
			<path class="st2" d="M51.57,54.06c0,0,1.04,1.32,1.78,1.92c1.29,1.04,2.18,1.24,2.18,1.24"/>
			<path class="st1" d="M55.53,57.39l-0.04,0c-0.04-0.01-0.94-0.22-2.25-1.28c-0.75-0.61-1.76-1.89-1.8-1.95l0.03-0.24l0.25,0.03
				c0.01,0.01,1.03,1.31,1.75,1.89c1.24,1,2.1,1.21,2.11,1.21l0.13,0.21L55.53,57.39z"/>
			<path class="st11" d="M37.58,103.19c0,0,0.47,1.05-0.4,2.04c-0.88,1-0.69,1.81-0.34,2.13c0.2,0.18,0.51,0.3,0.84,0.3
				c0.59,0,1.23-0.38,1.31-1.47C39.11,104.49,37.58,103.19,37.58,103.19"/>
			<path class="st6" d="M37.88,103.75c0.03,0.43-0.06,1.02-0.57,1.59c-0.85,0.97-0.6,1.66-0.36,1.89c0.23,0.21,0.7,0.35,1.12,0.18
				c0.31-0.12,0.68-0.43,0.74-1.24C38.89,105.14,38.3,104.25,37.88,103.75 M37.68,107.83c-0.38,0-0.74-0.15-0.96-0.35
				c-0.47-0.43-0.56-1.35,0.33-2.37c0.79-0.9,0.38-1.85,0.38-1.86l0.05-0.21l0.22,0.01c0.06,0.05,1.6,1.38,1.46,3.14
				c-0.08,1.05-0.64,1.42-0.96,1.54C38.02,107.8,37.85,107.83,37.68,107.83"/>
			<path class="st11" d="M40.58,106.89c0,0,0.16,0.58-0.07,1.66c-0.18,0.84-0.81,2.01,0.06,2.32c0.12,0.04,0.22,0.06,0.32,0.06
				c0.73,0,1.05-0.99,0.94-1.74C41.66,107.88,40.58,106.89,40.58,106.89"/>
			<path class="st6" d="M40.81,107.4c0.01,0.29-0.02,0.69-0.13,1.19c-0.04,0.18-0.1,0.39-0.17,0.59c-0.25,0.81-0.37,1.36,0.12,1.53
				c0.24,0.09,0.45,0.06,0.62-0.08c0.31-0.25,0.49-0.86,0.41-1.42C41.56,108.45,41.13,107.79,40.81,107.4 M40.9,111.11
				c-0.12,0-0.24-0.02-0.38-0.07c-0.84-0.3-0.56-1.22-0.34-1.95c0.06-0.2,0.12-0.39,0.16-0.57c0.22-1.01,0.08-1.58,0.07-1.58
				l0.08-0.19l0.2,0.02c0.05,0.04,1.12,1.04,1.31,2.4c0.08,0.58-0.08,1.37-0.54,1.74C41.35,111.01,41.16,111.11,40.9,111.11"/>
			<path class="st11" d="M45.76,61.72c0,0-1.07,0.99-1.26,2.3c-0.11,0.76,0.22,1.75,0.94,1.75c0.1,0,0.21-0.02,0.33-0.06
				c0.88-0.31,0.25-1.48,0.06-2.32C45.6,62.3,45.76,61.72,45.76,61.72"/>
		</g>
		<g>
			<defs>
				<rect id="SVGID_00000157290563327643941520000009815077783227780742_" x="2.38" y="10.79" width="59.64" height="106.93"/>
			</defs>
			<clipPath id="SVGID_00000132809817142786209320000017034973883418876573_">
				<use xlink:href="#SVGID_00000157290563327643941520000009815077783227780742_"  style="overflow:visible;"/>
			</clipPath>
			<path style="clip-path:url(#SVGID_00000132809817142786209320000017034973883418876573_);fill:#C6C4C3;" d="M45.53,62.23
				c-0.32,0.39-0.75,1.05-0.86,1.82c-0.08,0.56,0.1,1.17,0.41,1.42c0.17,0.14,0.38,0.17,0.62,0.08c0.49-0.17,0.37-0.72,0.12-1.53
				c-0.06-0.21-0.12-0.41-0.16-0.59C45.55,62.91,45.53,62.52,45.53,62.23 M45.44,65.93c-0.26,0-0.45-0.1-0.58-0.2
				c-0.46-0.37-0.62-1.15-0.54-1.74c0.19-1.36,1.27-2.36,1.32-2.4l0.21-0.02l0.08,0.19c0,0.01-0.15,0.57,0.07,1.58
				c0.04,0.18,0.1,0.37,0.16,0.56c0.22,0.74,0.51,1.66-0.34,1.95C45.69,65.91,45.55,65.93,45.44,65.93"/>
			<path style="clip-path:url(#SVGID_00000132809817142786209320000017034973883418876573_);fill:#1F1F1D;" d="M61.78,59.84
				l-0.13-0.06l0.02-0.24c0.01-0.01,1.15-0.99,1.59-1.74c0.44-0.76,0.71-1.83,0.71-1.84l0.21-0.13l0.13,0.21
				c-0.01,0.05-0.28,1.12-0.74,1.93c-0.47,0.81-1.62,1.79-1.66,1.83L61.78,59.84z"/>
			<path style="clip-path:url(#SVGID_00000132809817142786209320000017034973883418876573_);fill:#1F1F1D;" d="M60.23,70.9l0.1,0.03
				l0.06,0.21c-0.01,0.03-1.13,2.69-1.02,4.27c0.04,0.46,0.18,0.8,0.45,1.03c0.51,0.43,1.37,0.42,2.23,0.34
				c0.92-0.08,2.88-2.9,3.71-4.19l-11.08-3.6c-0.15,0.67-0.63,3-0.59,3.89c0.02,0.36,0.35,0.71,0.84,0.9c0.77,0.3,2,0.21,3.16-0.9
				l2.01-1.92L60.23,70.9z M61.26,77.15c-0.64,0-1.24-0.1-1.66-0.46c-0.34-0.29-0.54-0.71-0.58-1.27c-0.08-1.14,0.43-2.77,0.77-3.69
				l-1.45,1.38c-1.29,1.23-2.67,1.31-3.53,0.98c-0.63-0.24-1.04-0.7-1.06-1.2c-0.06-1.08,0.61-4.04,0.63-4.16l0.09-0.11l0.14-0.01
				l11.47,3.72l0.11,0.1l-0.01,0.15c-0.28,0.45-2.78,4.42-4.09,4.54C61.81,77.13,61.53,77.15,61.26,77.15"/>
			<path style="clip-path:url(#SVGID_00000132809817142786209320000017034973883418876573_);fill:#FFFFFF;" d="M64.65,71.41
				c0,0-2.41,2.37-2.64,3.84c-0.23,1.47,0.17,3.27,2.24,2.71c2.07-0.56,4.88-3.55,4.88-3.55L64.65,71.41z"/>
			<path style="clip-path:url(#SVGID_00000132809817142786209320000017034973883418876573_);fill:#1F1F1D;" d="M64.67,71.63
				c-0.45,0.46-2.3,2.41-2.49,3.64c-0.13,0.8-0.06,1.84,0.5,2.33c0.35,0.31,0.86,0.37,1.52,0.19c1.73-0.47,4.06-2.76,4.65-3.36
				L64.67,71.63z M63.53,78.23c-0.43,0-0.79-0.12-1.08-0.38c-0.56-0.49-0.79-1.48-0.61-2.63c0.24-1.51,2.59-3.84,2.69-3.93
				l0.22-0.02l4.47,2.99l0.08,0.12l-0.04,0.13c-0.12,0.12-2.87,3.03-4.96,3.6C64.02,78.19,63.76,78.23,63.53,78.23"/>
			<path style="clip-path:url(#SVGID_00000132809817142786209320000017034973883418876573_);fill:#F0E2F1;" d="M73.46,61.14
				l-2.6,4.29L36.44,45.22l0.22-0.36c0.15-0.25,0.07-0.58-0.19-0.73c-0.25-0.15-0.59-0.07-0.74,0.18L31.06,52
				c-0.15,0.25-0.07,0.58,0.19,0.73c0.26,0.15,0.59,0.07,0.74-0.18l0.22-0.36L66.63,72.4l-2.61,4.3c0,0,0.24,0.15,0.55,0.33
				c0.3,0.18,0.63,0.2,1.18-0.71l8.19-13.49c0.55-0.91,0.38-1.19,0.08-1.37C73.71,61.27,73.46,61.14,73.46,61.14"/>
			<path style="clip-path:url(#SVGID_00000132809817142786209320000017034973883418876573_);fill:#13110C;" d="M64.26,76.64
				c0.1,0.06,0.24,0.15,0.4,0.24c0.17,0.1,0.4,0.24,0.95-0.66l8.19-13.49c0.54-0.89,0.31-1.03,0.14-1.13
				c-0.16-0.09-0.3-0.17-0.4-0.23l-2.61,4.29l-0.15-0.08L36.2,45.28l0.3-0.51l0.04-0.27l-0.17-0.22l-0.28-0.04l-0.22,0.16
				l-4.66,7.68c-0.1,0.17-0.05,0.39,0.13,0.5c0.17,0.1,0.4,0.04,0.51-0.12l0.3-0.5l0.15,0.09l34.56,20.3L64.26,76.64z M64.87,77.29
				c-0.13,0-0.26-0.04-0.4-0.12c-0.3-0.18-0.55-0.33-0.55-0.33l-0.14-0.09l2.6-4.29L32.27,52.42l-0.13,0.21
				c-0.2,0.33-0.64,0.45-0.98,0.24c-0.34-0.2-0.45-0.63-0.25-0.96l4.66-7.68c0.1-0.16,0.26-0.28,0.44-0.32
				c0.19-0.05,0.38-0.02,0.54,0.08c0.16,0.1,0.28,0.25,0.32,0.43c0.05,0.18,0.02,0.37-0.08,0.53l-0.13,0.21L70.79,65.2l2.6-4.29
				l0.15,0.08c0,0,0.26,0.13,0.56,0.31c0.5,0.29,0.49,0.76-0.02,1.6L65.9,76.4C65.53,77.01,65.21,77.29,64.87,77.29"/>
			<path style="clip-path:url(#SVGID_00000132809817142786209320000017034973883418876573_);fill:#FFFFFF;" d="M71.47,63.57
				c-1.89-1.07-3.9-2.82-6.42-3.44c-2.52-0.62-6.44-0.33-7.51,0.23c-2.52,1.3-3.84,3.33-3.84,3.33l1.55,6.26
				c0,0,1.49,1.35,3.15,1.69c1.66,0.34,4.24-0.06,6.6,1.07c2.35,1.13,6.25,5.36,6.25,5.36L71.47,63.57z"/>
			<path style="clip-path:url(#SVGID_00000132809817142786209320000017034973883418876573_);fill:#1F1F1D;" d="M55.4,69.85
				c0.24,0.21,1.58,1.32,3.04,1.62c0.54,0.11,1.21,0.14,1.91,0.18c1.46,0.07,3.13,0.15,4.72,0.91c2.01,0.96,5.05,4.07,6.01,5.08
				l0.22-13.97c-0.53-0.3-1.05-0.65-1.61-1.01c-1.43-0.95-2.92-1.92-4.68-2.36c-2.51-0.62-6.38-0.31-7.39,0.21
				c-2.22,1.14-3.5,2.87-3.74,3.21L55.4,69.85z M71.24,78.24l-0.13-0.06c-0.04-0.04-3.9-4.22-6.2-5.32
				c-1.53-0.73-3.15-0.81-4.59-0.88c-0.72-0.03-1.4-0.07-1.97-0.18c-1.69-0.35-3.18-1.68-3.24-1.74l-0.05-0.08l-1.55-6.26l0.02-0.13
				c0.05-0.08,1.37-2.09,3.91-3.39c1.07-0.55,5.01-0.88,7.64-0.24c1.82,0.45,3.4,1.49,4.79,2.41c0.58,0.38,1.13,0.75,1.68,1.05
				l0.09,0.15l-0.23,14.5l-0.11,0.16L71.24,78.24z"/>
		</g>
		<g>
			<path class="st2" d="M58.51,64.02c0,0,0.06,1.02,0.06,2.76c0,1.75,0.46,3.27,0.46,3.27l-3.79-0.11c0,0-2.12-0.85-2.35-2.71
				c-0.23-1.86,0.46-3.39,0.8-3.55C54.04,63.51,58.51,64.02,58.51,64.02"/>
			<path class="st1" d="M55.28,69.77l3.52,0.11c-0.13-0.49-0.4-1.71-0.4-3.09c0-1.35-0.04-2.27-0.05-2.61
				c-2.06-0.23-4.32-0.43-4.58-0.34c-0.25,0.12-0.93,1.56-0.71,3.38C53.26,68.84,55.04,69.67,55.28,69.77 M59.03,70.23L59.03,70.23
				l-3.79-0.11l-0.06-0.01c-0.09-0.04-2.22-0.91-2.46-2.85c-0.23-1.89,0.46-3.51,0.9-3.73c0.35-0.17,3.55,0.17,4.91,0.32l0.15,0.16
				c0,0.01,0.06,1.04,0.06,2.77c0,1.7,0.44,3.21,0.45,3.22l-0.03,0.15L59.03,70.23z"/>
			<polygon class="st2" points="28.94,71.55 28.21,65.41 23.63,65.95 30.74,81.14 31.85,78.88 30.23,74.74 			"/>
			<path class="st6" d="M34.77,88.63l-0.14-0.1L34.77,88.63L34.77,88.63z M26.06,85.84l0.06,0.35c0.29,1.45,0.95,2.65,1.85,3.41
				l0.24,0.19l0.27,0.18l0.29,0.16c2,1,4.28,0.05,5.49-1.4l0.17-0.22l0.04-0.05l0.01-0.02l0.11-0.16l0.04-0.07L34.76,88l0.03-0.04
				l0.13-0.24l0.12-0.25l0.02-0.04l0.1-0.23c0.57-1.48,0.64-3.26,0.22-5.61c-0.51-2.89-1.82-5.35-3.36-8.03
				c-0.84-1.47-1.56-2.81-1.89-4.29c-0.34-1.51-0.08-2.95,0.81-4.54c0.09-0.15,0.18-0.31,0.27-0.47c0.48-0.84,0.99-1.7,1.05-2.63
				c0.06-0.94-0.43-1.57-1.01-2.29c-0.1-0.12-0.2-0.25-0.3-0.38c-0.71-0.93-0.44-1.71-0.18-2.47c0.14-0.41,0.28-0.82,0.29-1.28
				c0.01-0.75-0.41-1.38-0.87-2.03c-0.18-0.26-0.37-0.53-0.53-0.81c-0.87-1.57-0.15-3.09,0.54-4.56c0.35-0.73,0.71-1.48,0.84-2.22
				c0.17-0.92-0.02-1.75-0.56-2.48c-0.16-0.22-0.35-0.43-0.53-0.63c-0.2-0.22-0.4-0.45-0.58-0.69c-0.72-1-0.47-2.04-0.12-2.93
				c0.08-0.2,0.16-0.41,0.24-0.61c0.51-1.24,1.03-2.53,0.93-3.82c-0.07-0.91-0.41-1.7-0.78-2.54c-0.19-0.45-0.39-0.91-0.55-1.4
				l-0.08-0.25c-0.22-0.72-0.47-1.54-1.33-1.6c-0.49-0.03-1.05,0.23-1.4,0.67l0,0.01l-0.09,0.12l-0.08,0.13l-0.07,0.16
				c-0.37,0.98,0.36,2.08,0.84,2.81l0.08,0.05l0.13,0.1c0.08,0.19,0.17,0.38,0.26,0.57c0.06,0.14,0.12,0.28,0.19,0.42
				c0.1,0.21,0.1,0.39,0.02,0.52c-0.15,0.24-0.5,0.27-0.91,0.3c-0.63,0.05-1.09,0.12-1.23,0.54c-0.23,0.69-0.2,1.2-0.16,1.98
				c0.02,0.38,0.04,0.81,0.04,1.36c0,0.59-0.13,1.75-0.24,2.69c-0.04,0.35-0.07,0.66-0.1,0.89c-0.09,0.97,0.52,1.71,1.16,2.39
				c0.98,1.05,1.56,2.06,1.21,3.63c-0.15,0.66-0.4,1.3-0.64,1.92c-0.16,0.4-0.32,0.82-0.45,1.23c-0.22,0.71-0.45,1.64-0.21,2.51
				c0.17,0.62,0.59,1.06,1.03,1.54c0.34,0.36,0.69,0.74,0.93,1.2c0.9,1.74-0.44,3.61-1.61,5.25c-0.38,0.52-0.73,1.02-0.98,1.47
				c-1.52,2.76-0.46,5.32,0.65,8.03c0.84,2.04,1.71,4.15,1.42,6.38c-0.14,1.04-0.44,2.09-0.72,3.1c-0.46,1.63-0.94,3.31-0.74,5.01
				l0.02,0.18l-0.16,0.07L26.06,85.84z M30.53,90.88c-0.64,0-1.29-0.14-1.92-0.45l-0.29-0.16l-0.29-0.19l-0.28-0.21l-0.04-0.04
				c-0.94-0.78-1.64-2.05-1.94-3.55l-0.07-0.39l-0.01-0.06l-0.02-0.18c-0.21-1.77,0.28-3.48,0.75-5.15c0.28-1,0.58-2.03,0.71-3.05
				c0.28-2.14-0.57-4.21-1.39-6.21c-1.1-2.67-2.23-5.42-0.64-8.32c0.26-0.47,0.62-0.97,1.01-1.5c1.12-1.56,2.39-3.33,1.58-4.89
				c-0.22-0.42-0.54-0.76-0.87-1.12c-0.45-0.48-0.92-0.98-1.11-1.68c-0.26-0.95-0.02-1.94,0.22-2.7c0.13-0.43,0.29-0.85,0.45-1.25
				c0.24-0.61,0.48-1.24,0.62-1.88c0.32-1.43-0.2-2.33-1.13-3.32c-0.66-0.7-1.35-1.54-1.25-2.65c0.02-0.23,0.06-0.54,0.1-0.9
				c0.11-0.93,0.23-2.08,0.23-2.65c0-0.54-0.02-0.96-0.04-1.34c-0.04-0.81-0.07-1.35,0.18-2.1c0.22-0.67,0.98-0.73,1.53-0.77
				c0.26-0.02,0.59-0.05,0.64-0.14l-0.03-0.21c-0.06-0.13-0.12-0.27-0.19-0.41c-0.07-0.17-0.15-0.33-0.22-0.5l-0.21-0.18
				c-0.52-0.78-1.3-1.97-0.88-3.11l0.07-0.16l0.02-0.04l0.07-0.12l0.02-0.04l0.1-0.14l0-0.01c0.42-0.53,1.09-0.85,1.7-0.8
				c1.1,0.07,1.41,1.09,1.64,1.84l0.07,0.24c0.16,0.47,0.35,0.93,0.54,1.37c0.36,0.83,0.73,1.69,0.8,2.65
				c0.11,1.37-0.43,2.69-0.96,3.97c-0.09,0.2-0.17,0.4-0.25,0.61c-0.33,0.84-0.55,1.74,0.08,2.6c0.17,0.23,0.37,0.46,0.56,0.67
				c0.19,0.21,0.38,0.42,0.55,0.66c0.6,0.8,0.81,1.73,0.62,2.74c-0.14,0.77-0.51,1.55-0.87,2.3c-0.69,1.45-1.34,2.83-0.55,4.25
				c0.15,0.26,0.33,0.53,0.51,0.78c0.47,0.67,0.95,1.37,0.93,2.23c-0.01,0.51-0.16,0.95-0.31,1.38c-0.25,0.74-0.47,1.37,0.12,2.15
				c0.1,0.13,0.2,0.25,0.29,0.37c0.6,0.75,1.16,1.45,1.09,2.53c-0.07,1.01-0.59,1.91-1.1,2.78c-0.09,0.16-0.18,0.31-0.27,0.46
				c-0.85,1.51-1.09,2.87-0.78,4.3c0.31,1.43,1.03,2.75,1.85,4.19c1.55,2.71,2.88,5.19,3.4,8.14c0.42,2.42,0.35,4.24-0.23,5.76
				l-0.12,0.27l-0.02,0.05l-0.11,0.23l-0.16,0.29l-0.18-0.04l0.15,0.09l-0.13,0.2l-0.05,0.08l-0.12,0.17l-0.14-0.1l0.13,0.11
				l-0.04,0.06l-0.18,0.23C33.61,90.04,32.1,90.88,30.53,90.88"/>
			<path class="st11" d="M27.65,28.65c-0.47,0-1,0.25-1.33,0.67l-0.01,0.01l-0.09,0.12l-0.07,0.13l-0.08,0.16
				c-0.37,0.98,0.36,2.08,0.84,2.81l0.08,0.06l0.13,0.1c0.09,0.19,0.17,0.38,0.26,0.57c0.06,0.14,0.13,0.28,0.19,0.41
				c0.09,0.22,0.1,0.39,0.01,0.52c-0.15,0.24-0.5,0.27-0.91,0.31c-0.63,0.05-1.09,0.12-1.23,0.54c-0.23,0.69-0.2,1.2-0.16,1.97
				c0.02,0.38,0.04,0.81,0.04,1.36c0,0.59-0.13,1.76-0.23,2.69c-0.04,0.35-0.07,0.66-0.1,0.89c-0.03,0.31,0.01,0.59,0.11,0.86
				c1.28-0.82,2.56-1.63,3.84-2.44c0-0.52,0.16-1.04,0.35-1.5c0.08-0.2,0.16-0.41,0.24-0.61c0.51-1.24,1.03-2.53,0.93-3.82
				c-0.07-0.91-0.41-1.7-0.78-2.54c-0.19-0.45-0.39-0.91-0.55-1.4l-0.08-0.24c-0.22-0.72-0.47-1.54-1.33-1.6
				C27.69,28.65,27.67,28.65,27.65,28.65 M28.96,40.77c-1.24,0.79-2.48,1.58-3.73,2.37c0.22,0.44,0.56,0.83,0.91,1.2
				c0.98,1.05,1.56,2.06,1.21,3.63c-0.15,0.66-0.4,1.31-0.64,1.93c-0.15,0.4-0.32,0.82-0.45,1.23c-0.22,0.71-0.45,1.64-0.21,2.51
				c0.17,0.62,0.59,1.06,1.03,1.54c0.34,0.36,0.69,0.73,0.93,1.2c0.21,0.4,0.3,0.81,0.29,1.22l2.48-1.13
				c0.14-0.4,0.28-0.81,0.29-1.25c0.01-0.75-0.42-1.37-0.87-2.03c-0.18-0.26-0.37-0.53-0.52-0.81c-0.87-1.57-0.16-3.09,0.54-4.56
				c0.35-0.73,0.71-1.48,0.84-2.22c0.17-0.92-0.02-1.75-0.56-2.48c-0.17-0.22-0.35-0.43-0.54-0.63c-0.2-0.22-0.4-0.45-0.58-0.69
				C29.15,41.46,29.02,41.11,28.96,40.77 M28.59,77.46c-0.45,0.43-0.96,0.93-1.35,1.38c-0.14,0.59-0.31,1.18-0.47,1.76
				c-0.46,1.63-0.94,3.31-0.74,5.02l0.02,0.18l-0.17,0.07l0.17-0.02l0.06,0.35c0.01,0.06,0.02,0.11,0.04,0.17
				c0.29-0.72,0.56-1.61,0.81-2.63c0.05-0.23,0.11-0.46,0.16-0.67c0.26-1.1,0.46-1.97,0.96-2.66c0.23-0.32,0.64-1.06,1.04-1.8
				L28.59,77.46z M29.31,78.98c-0.36,0.67-0.72,1.3-0.94,1.61c-0.46,0.63-0.65,1.47-0.9,2.54c-0.05,0.22-0.1,0.44-0.16,0.67
				c-0.21,0.87-0.55,2.09-1,3.11c0.32,1.04,0.84,1.92,1.52,2.55c0.12,0.02,0.21,0.03,0.26,0.04c0.05-0.2,0.1-0.41,0.15-0.61
				c0.54-2.13,1.74-4.44,2.85-6.17L29.31,78.98z"/>
			<path class="st17" d="M29.12,78.59c-0.39,0.74-0.8,1.47-1.04,1.8c-0.5,0.69-0.7,1.56-0.96,2.66c-0.05,0.21-0.1,0.44-0.16,0.67
				c-0.25,1.02-0.53,1.91-0.81,2.63c0.04,0.19,0.09,0.38,0.15,0.56c0.45-1.02,0.79-2.24,1-3.11c0.06-0.23,0.11-0.46,0.16-0.67
				c0.25-1.07,0.45-1.91,0.9-2.54c0.22-0.3,0.58-0.94,0.94-1.61L29.12,78.59z"/>
			<path class="st11" d="M30.64,56.91l-2.36,1.08c-0.16,1.24-1.06,2.49-1.88,3.63c-0.38,0.52-0.73,1.02-0.98,1.47
				c-0.51,0.93-0.73,1.83-0.76,2.73l3.54-0.41l0.73,6.14l1.3,3.19l1.62,4.15l-1.11,2.25l-1.85-3.95c-0.01,0.01-0.02,0.02-0.03,0.03
				l2.44,5.16c0.4-0.61,0.77-1.12,1.1-1.52c0.72-0.9,1.52-1.52,2.27-1.94c-0.66-1.82-1.6-3.54-2.64-5.36
				c-0.04-0.08-0.09-0.15-0.13-0.23c-0.07,0.18-0.21,0.31-0.42,0.41c-0.16,0.07-0.3,0.12-0.42,0.14l-0.02,0l-0.29-1.23l0.22-0.1
				l0.07,0.22c0.05-0.2,0.15-0.33,0.31-0.4h0.02c-0.55-1.03-0.99-2.03-1.23-3.1c-0.33-1.51-0.07-2.95,0.81-4.54
				c0.09-0.15,0.18-0.31,0.27-0.47c0.48-0.84,0.99-1.7,1.05-2.63c0.07-0.94-0.43-1.57-1.01-2.29c-0.1-0.12-0.2-0.25-0.3-0.38
				C30.38,58.21,30.45,57.54,30.64,56.91 M31.49,72.61l-0.12,0.01c-0.14,0.07-0.24,0.21-0.27,0.44l0.12,0.52l0.19-0.07
				c0.23-0.11,0.32-0.3,0.25-0.59C31.6,72.82,31.54,72.71,31.49,72.61"/>
			<path class="st18" d="M30.79,56.47l-2.48,1.13c0,0.13-0.01,0.26-0.03,0.39l2.36-1.08c0.04-0.14,0.09-0.28,0.14-0.41
				C30.79,56.49,30.79,56.48,30.79,56.47 M28.85,77.22c-0.09,0.08-0.18,0.16-0.27,0.25l0.53,1.13l0.19,0.39l1.77,3.74
				c0.07-0.12,0.15-0.23,0.22-0.34L28.85,77.22z"/>
			<path class="st18" d="M31.36,72.37h-0.02c-0.16,0.07-0.26,0.2-0.31,0.4l-0.07-0.22l-0.22,0.1l0.29,1.23l0.02,0
				c0.12-0.02,0.27-0.07,0.42-0.14c0.21-0.1,0.36-0.24,0.42-0.41c-0.08-0.14-0.15-0.27-0.23-0.41c0.07,0.29-0.01,0.49-0.25,0.59
				l-0.19,0.07l-0.12-0.52c0.03-0.22,0.12-0.37,0.27-0.44l0.12-0.01C31.45,72.53,31.4,72.45,31.36,72.37"/>
			<path class="st19" d="M28.93,40.37c-1.28,0.81-2.55,1.62-3.84,2.44c0.04,0.11,0.08,0.22,0.14,0.33c1.25-0.8,2.49-1.59,3.73-2.37
				C28.94,40.64,28.93,40.5,28.93,40.37"/>
			<path class="st17" d="M27.81,89.46c0.05,0.05,0.1,0.09,0.16,0.14l0.07,0.06c0.01-0.05,0.02-0.1,0.03-0.15
				C28.02,89.49,27.93,89.47,27.81,89.46"/>
			<path class="st11" d="M26.27,71.58c0.78,1.89,1.5,3.85,1.23,5.92c-0.03,0.22-0.07,0.45-0.11,0.67c0.44-0.47,0.94-0.94,1.35-1.32
				L26.27,71.58z M34.78,79.25c-0.7,0.4-1.44,0.98-2.11,1.82c-1.23,1.53-3.33,4.9-4.1,7.91c-0.08,0.29-0.15,0.59-0.22,0.89
				l0.13,0.09l0.29,0.16c0.58,0.29,1.17,0.41,1.76,0.41c1.46,0,2.87-0.78,3.73-1.82l0.17-0.22l0.04-0.05l0.01-0.01l0.12-0.17
				l0.04-0.07L34.76,88l0.03-0.04l0.13-0.24l0.12-0.25l0.02-0.04l0.1-0.23c0.29-0.74,0.44-1.56,0.48-2.48
				c-0.09-0.07-0.18-0.14-0.26-0.2c-0.27-0.21-0.46-0.36-0.54-0.47c-0.22-0.3,0.26-1.26,0.56-1.8l0.07-0.11
				c-0.03-0.17-0.06-0.35-0.09-0.54C35.24,80.78,35.03,80,34.78,79.25 M35.54,82.69c-0.27,0.53-0.46,1.04-0.42,1.15
				c0.05,0.07,0.25,0.23,0.47,0.4c0.02,0.01,0.03,0.03,0.05,0.04C35.64,83.78,35.61,83.25,35.54,82.69"/>
			<path class="st17" d="M28.73,76.85c-0.41,0.38-0.91,0.85-1.35,1.32c-0.04,0.22-0.09,0.45-0.14,0.67
				c0.39-0.45,0.89-0.95,1.35-1.38c0.09-0.09,0.18-0.17,0.27-0.25c0.01-0.01,0.02-0.02,0.04-0.03L28.73,76.85z M34.66,78.91
				c-0.75,0.42-1.54,1.04-2.27,1.94c-0.32,0.4-0.7,0.92-1.09,1.52c-0.07,0.11-0.15,0.22-0.22,0.34c-1.1,1.73-2.31,4.04-2.85,6.18
				c-0.05,0.2-0.1,0.4-0.15,0.61c-0.01,0.05-0.03,0.1-0.04,0.15l0.17,0.13l0.13,0.09c0.07-0.3,0.14-0.6,0.21-0.89
				c0.77-3.01,2.87-6.38,4.1-7.91c0.67-0.84,1.41-1.42,2.12-1.82C34.74,79.14,34.7,79.03,34.66,78.91"/>
			<path class="st17" d="M35.47,82.12l-0.07,0.11c-0.31,0.54-0.79,1.49-0.56,1.8c0.08,0.12,0.28,0.27,0.54,0.47
				c0.08,0.07,0.17,0.13,0.26,0.2c0.01-0.14,0.01-0.29,0.01-0.43c-0.02-0.01-0.04-0.03-0.05-0.04c-0.22-0.17-0.42-0.33-0.47-0.4
				c-0.04-0.12,0.15-0.62,0.42-1.15C35.52,82.5,35.49,82.32,35.47,82.12"/>
			<path class="st11" d="M28.21,65.41l-3.54,0.42c-0.05,1.77,0.67,3.5,1.41,5.3c0.06,0.15,0.13,0.31,0.19,0.46l2.47,5.27l0.15,0.33
				l1.85,3.95l1.11-2.25l-1.62-4.15l-1.3-3.19L28.21,65.41z"/>
		</g>
		<g>
			<defs>
				<rect id="SVGID_00000120539138499760626880000016470890738665106356_" x="2.38" y="10.79" width="59.64" height="106.93"/>
			</defs>
			<clipPath id="SVGID_00000051353052286072555820000005478361028515131800_">
				<use xlink:href="#SVGID_00000120539138499760626880000016470890738665106356_"  style="overflow:visible;"/>
			</clipPath>
			<path style="clip-path:url(#SVGID_00000051353052286072555820000005478361028515131800_);fill:#0098BA;" d="M27.63,28.48
				c-0.56,0-1.11,0.31-1.45,0.74h0l-0.09,0.13l-0.02,0.04l-0.06,0.11l-0.02,0.04l-0.06,0.14c-0.39,1.03,0.3,2.11,0.86,2.96l0.2,0.13
				c0.14,0.34,0.3,0.68,0.44,0.99c0.45,1.02-1.77,0.13-2.13,1.25c-0.35,1.06-0.12,1.69-0.12,3.38c0,0.81-0.25,2.73-0.33,3.56
				c-0.1,1.01,0.52,1.79,1.2,2.52c1.01,1.08,1.49,2.04,1.17,3.48c-0.24,1.08-0.75,2.09-1.08,3.14c-0.26,0.84-0.45,1.74-0.21,2.6
				c0.31,1.15,1.44,1.74,1.97,2.77c1.13,2.21-1.59,4.73-2.59,6.56c-2.74,4.98,2.71,9.4,2.05,14.47c-0.36,2.73-1.79,5.36-1.47,8.15
				l0.03,0.19l0.01,0.05l0.03,0.15l0.01,0.05l0.03,0.16l0.01,0.03c0.26,1.29,0.85,2.6,1.9,3.48l0.01,0.01l0.24,0.19l0.03,0.02
				l0.25,0.17l0.03,0.02l0.28,0.15c0.6,0.3,1.23,0.43,1.85,0.43c1.48,0,2.93-0.76,3.86-1.88l0.18-0.23l0.05-0.07l0.12-0.17
				l0.05-0.07l0.12-0.2l0.02-0.04l0.14-0.25l0.01-0.03l0.11-0.23l0.02-0.05l0.1-0.23l0.01-0.03c0.68-1.78,0.54-3.85,0.22-5.67
				c-0.52-2.94-1.88-5.47-3.38-8.08c-0.77-1.34-1.54-2.74-1.88-4.24c-0.35-1.59,0-3,0.79-4.42c0.56-0.99,1.26-2.02,1.35-3.17
				c0.08-1.18-0.66-1.89-1.34-2.78c-1.01-1.32,0.12-2.28,0.15-3.64c0.02-1.13-0.89-1.98-1.42-2.92c-1.26-2.28,0.99-4.46,1.41-6.66
				c0.18-0.94,0-1.83-0.59-2.62c-0.34-0.46-0.77-0.86-1.11-1.33c-0.65-0.89-0.47-1.82-0.1-2.76c0.56-1.44,1.3-2.96,1.19-4.5
				c-0.11-1.44-0.89-2.61-1.34-3.99c-0.25-0.78-0.47-1.89-1.56-1.96C27.69,28.48,27.66,28.48,27.63,28.48 M25.09,42.82
				c-0.09-0.27-0.13-0.55-0.11-0.86c0.02-0.23,0.06-0.54,0.1-0.89c0.1-0.93,0.23-2.1,0.23-2.69c0-0.54-0.03-0.98-0.04-1.36
				c-0.04-0.77-0.07-1.29,0.16-1.97c0.14-0.42,0.6-0.49,1.23-0.54c0.41-0.03,0.77-0.06,0.91-0.31c0.09-0.14,0.08-0.31-0.02-0.52
				c-0.06-0.13-0.12-0.27-0.19-0.41c-0.09-0.19-0.17-0.38-0.26-0.57l-0.13-0.1l-0.08-0.06c-0.48-0.73-1.21-1.82-0.84-2.81l0.07-0.16
				l0.08-0.13l0.09-0.12l0-0.01c0.33-0.42,0.87-0.67,1.33-0.67c0.02,0,0.04,0,0.07,0c0.86,0.06,1.11,0.88,1.33,1.6l0.08,0.24
				c0.16,0.49,0.36,0.95,0.55,1.4c0.36,0.84,0.71,1.64,0.78,2.54c0.1,1.29-0.42,2.57-0.93,3.82c-0.08,0.21-0.17,0.41-0.24,0.61
				c-0.19,0.47-0.34,0.98-0.35,1.5c0,0.13,0.01,0.26,0.03,0.4c0.05,0.34,0.19,0.69,0.43,1.03c0.18,0.24,0.38,0.47,0.58,0.69
				c0.18,0.2,0.37,0.41,0.53,0.63c0.54,0.73,0.73,1.56,0.56,2.48c-0.14,0.73-0.5,1.49-0.84,2.22c-0.7,1.47-1.42,2.98-0.54,4.56
				c0.15,0.28,0.34,0.55,0.52,0.81c0.46,0.65,0.88,1.28,0.87,2.03c-0.01,0.45-0.15,0.86-0.28,1.25c0,0.01-0.01,0.02-0.01,0.03
				c-0.05,0.14-0.1,0.28-0.14,0.42c-0.19,0.63-0.27,1.29,0.31,2.05c0.1,0.13,0.2,0.25,0.3,0.38c0.58,0.72,1.07,1.35,1.01,2.29
				c-0.06,0.93-0.57,1.8-1.05,2.63c-0.09,0.16-0.18,0.31-0.27,0.47c-0.89,1.58-1.14,3.03-0.81,4.54c0.24,1.07,0.68,2.07,1.23,3.1
				c0.05,0.08,0.09,0.16,0.13,0.24c0.05,0.1,0.11,0.2,0.17,0.3c0.08,0.13,0.15,0.27,0.23,0.41c0.04,0.08,0.09,0.15,0.13,0.23
				c1.04,1.82,1.98,3.54,2.64,5.36c0.04,0.11,0.08,0.22,0.12,0.33c0.26,0.75,0.46,1.53,0.6,2.33c0.03,0.18,0.06,0.36,0.09,0.54
				c0.03,0.2,0.05,0.39,0.07,0.57c0.07,0.56,0.1,1.09,0.1,1.59c0,0.14,0,0.29-0.01,0.43c-0.04,0.92-0.19,1.74-0.48,2.48l-0.1,0.23
				l-0.02,0.05l-0.12,0.25l-0.13,0.24L34.76,88l-0.12,0.19l-0.04,0.07l-0.11,0.16l-0.01,0.02l-0.04,0.05l-0.17,0.22
				c-0.87,1.04-2.27,1.82-3.73,1.82c-0.59,0-1.18-0.13-1.76-0.41l-0.29-0.16l-0.13-0.09l-0.13-0.09l-0.17-0.13l-0.07-0.05
				c-0.05-0.04-0.11-0.09-0.16-0.14c-0.68-0.62-1.2-1.5-1.52-2.55c-0.05-0.18-0.1-0.37-0.14-0.56c-0.01-0.06-0.03-0.11-0.04-0.17
				l-0.06-0.35l-0.17,0.02l0.17-0.07l-0.02-0.18c-0.2-1.7,0.28-3.39,0.74-5.02c0.16-0.58,0.33-1.16,0.47-1.76
				c0.05-0.22,0.1-0.45,0.14-0.67c0.04-0.22,0.08-0.45,0.11-0.67c0.27-2.06-0.45-4.02-1.23-5.92c-0.06-0.16-0.13-0.31-0.19-0.46
				c-0.74-1.8-1.45-3.53-1.41-5.3c0.02-0.9,0.24-1.8,0.76-2.73c0.25-0.45,0.6-0.94,0.98-1.47c0.82-1.14,1.72-2.39,1.88-3.63
				c0.02-0.13,0.03-0.26,0.03-0.39c0-0.41-0.09-0.82-0.3-1.22c-0.24-0.46-0.59-0.84-0.93-1.2c-0.44-0.47-0.86-0.92-1.03-1.54
				c-0.24-0.87-0.01-1.79,0.21-2.51c0.13-0.41,0.29-0.83,0.45-1.23c0.24-0.62,0.49-1.26,0.64-1.93c0.35-1.57-0.23-2.58-1.21-3.63
				c-0.35-0.37-0.69-0.76-0.91-1.2C25.18,43.04,25.13,42.93,25.09,42.82"/>
			<path style="clip-path:url(#SVGID_00000051353052286072555820000005478361028515131800_);fill:#FFFFFF;" d="M6.96,23.87H1.27
				c-2.37,0-4.3-1.9-4.3-4.23v-1.99c0-2.33,1.94-4.23,4.3-4.23h5.69c2.37,0,4.31,1.91,4.31,4.23v1.99
				C11.27,21.96,9.33,23.87,6.96,23.87"/>
			<path style="clip-path:url(#SVGID_00000051353052286072555820000005478361028515131800_);fill:#9D9B9B;" d="M2.28,13.58
				c-2.84,0-5.14,2.27-5.14,5.05c0,2.79,2.3,5.06,5.14,5.06h3.67c2.84,0,5.14-2.27,5.14-5.06c0-2.79-2.31-5.05-5.14-5.05H2.28z
				 M5.95,24.04H2.28c-3.03,0-5.49-2.42-5.49-5.4c0-2.97,2.46-5.4,5.49-5.4h3.67c3.03,0,5.49,2.42,5.49,5.4
				C11.44,21.62,8.98,24.04,5.95,24.04"/>
		</g>
		<g>
			<path class="st2" d="M23.92,34.51c0,0,0.11,2.65,0.8,2.88c0.69,0.22,3.32-0.07,4.7-0.79c1.09-0.56,1.38-0.9,1.38-3.16
				c0-2.26-1.03-2.99-1.03-2.99L23.92,34.51z"/>
		</g>
		<g>
			<defs>
				<rect id="SVGID_00000150818615829972890410000003536803500749474232_" x="2.38" y="10.79" width="59.64" height="106.93"/>
			</defs>
			<clipPath id="SVGID_00000152949389303885071260000005584230736286610600_">
				<use xlink:href="#SVGID_00000150818615829972890410000003536803500749474232_"  style="overflow:visible;"/>
			</clipPath>
			<path style="clip-path:url(#SVGID_00000152949389303885071260000005584230736286610600_);fill:#9D9B9B;" d="M24.1,34.6
				c0.05,1.02,0.3,2.5,0.68,2.63c0.66,0.22,3.26-0.1,4.57-0.78c1-0.52,1.28-0.76,1.28-3.01c0-1.74-0.63-2.53-0.87-2.77L24.1,34.6z
				 M25.44,37.63c-0.33,0-0.6-0.03-0.77-0.08c-0.76-0.25-0.9-2.57-0.92-3.03l0-0.09l6.03-4.19l0.1,0.07c0.04,0.03,1.1,0.81,1.1,3.13
				c0,2.3-0.3,2.7-1.47,3.31C28.41,37.32,26.56,37.63,25.44,37.63"/>
			<path style="clip-path:url(#SVGID_00000152949389303885071260000005584230736286610600_);fill:#FFFFFF;" d="M-2.5,38.84
				c0,0,1.91,3.61,7.65,3.69c3.06,0.04,6.58-2.03,6.58-2.03l0.15-9.18c0,0,0.76-3.01,1.99-2.41c1.22,0.6,5.2,3.16,5.81,4.51
				c0.61,1.35,2.75,2.26,6.12,1.5c3.37-0.75,7.5-3.16,5.35-5.42c-2.14-2.26-5.2-5.87-9.79-7.37c-4.59-1.5-8.87-0.9-8.87-0.9
				s-0.15-1.36-0.92-2.41c-0.76-1.05,0-0.07-4.13,0.9c-2.45,0.58-7.95,0.45-10.25-0.75C-5.1,17.77-2.5,38.84-2.5,38.84"/>
			<path style="clip-path:url(#SVGID_00000152949389303885071260000005584230736286610600_);fill:#9D9B9B;" d="M-2.33,38.78
				c0.19,0.32,2.18,3.5,7.48,3.57h0.08c2.7,0,5.78-1.66,6.32-1.96l0.15-9.08c0.03-0.13,0.56-2.16,1.48-2.58
				c0.25-0.11,0.51-0.11,0.76,0.02c1.22,0.6,5.26,3.19,5.89,4.6c0.55,1.24,2.6,2.15,5.92,1.41c2.42-0.54,5.25-1.95,5.73-3.51
				c0.18-0.56,0.02-1.11-0.47-1.63c-0.19-0.21-0.4-0.42-0.6-0.64c-2.1-2.25-4.98-5.33-9.11-6.68c-4.5-1.47-8.75-0.9-8.79-0.9
				l-0.18,0.03l-0.02-0.18c0-0.01-0.16-1.33-0.88-2.33l-0.03-0.04c-0.28-0.38-0.27-0.38-0.58-0.21c-0.42,0.24-1.3,0.73-3.34,1.21
				c-2.41,0.57-7.95,0.5-10.37-0.77l-0.16-0.01C-4.21,19.9-3.26,31.29-2.33,38.78 M5.24,42.69H5.15c-5.77-0.08-7.78-3.74-7.8-3.78
				l-0.02-0.06c-0.24-1.93-2.28-18.87-0.58-20.02c0.11-0.07,0.29-0.13,0.53-0.01c2.28,1.19,7.75,1.3,10.12,0.74
				c1.99-0.47,2.81-0.93,3.25-1.18c0.54-0.31,0.64-0.25,1.04,0.3l0.03,0.04c0.63,0.87,0.86,1.91,0.92,2.32
				c0.85-0.09,4.72-0.4,8.78,0.93c4.21,1.38,7.13,4.5,9.26,6.78c0.21,0.22,0.41,0.44,0.6,0.64c0.58,0.61,0.76,1.27,0.55,1.96
				c-0.53,1.69-3.42,3.16-5.99,3.74c-3.75,0.84-5.75-0.34-6.32-1.6c-0.59-1.32-4.57-3.86-5.73-4.43c-0.15-0.08-0.3-0.08-0.46-0.01
				c-0.64,0.29-1.14,1.76-1.28,2.31l-0.15,9.23l-0.08,0.05C11.67,40.72,8.29,42.69,5.24,42.69"/>
			<path style="clip-path:url(#SVGID_00000152949389303885071260000005584230736286610600_);fill:#C6C4C3;" d="M22.51,34.85
				c-0.56-1.21-1.28-2.35-2.11-3.4c-0.81-1.05-1.78-2.01-2.9-2.73c-2.26-1.44-4.9-2.32-7.59-2.23c-1.34,0-2.67,0.26-4.03,0.39
				c-0.68,0.05-1.41,0.03-2.06-0.26c-0.66-0.27-1.15-0.84-1.47-1.44c-0.33-0.6-0.54-1.24-0.73-1.89c-0.18-0.63-0.57-1.18-1.03-1.65
				c-0.95-0.93-2.19-1.57-3.46-2c1.29,0.38,2.56,0.96,3.57,1.88c0.5,0.46,0.91,1.04,1.11,1.7c0.2,0.63,0.42,1.26,0.74,1.83
				c0.31,0.57,0.77,1.07,1.37,1.31c0.59,0.26,1.28,0.27,1.93,0.21c1.33-0.14,2.68-0.43,4.05-0.45c2.77-0.07,5.47,0.89,7.73,2.37
				C19.92,30.05,21.47,32.4,22.51,34.85"/>
		</g>
		<g>
			<path class="st1" d="M2.69,117.42h59.03V11.09H2.69V117.42z M62.33,118.02H2.07V10.49h60.25V118.02z"/>
			<path class="st1" d="M62.47,117.42h59.03V11.09H62.47V117.42z M122.11,118.02H61.86V10.49h60.25V118.02z"/>
			<polygon class="st26" points="62.34,32.31 62.34,88.55 64.39,109.64 78.55,108.31 71.09,31.48 			"/>
		</g>
		<g>
			<defs>
				<rect id="SVGID_00000083074797476469678000000016890793555433297834_" x="62.34" y="10.79" width="59.29" height="106.93"/>
			</defs>
			<clipPath id="SVGID_00000043450190272120769330000004702277223279483041_">
				<use xlink:href="#SVGID_00000083074797476469678000000016890793555433297834_"  style="overflow:visible;"/>
			</clipPath>
			<path style="clip-path:url(#SVGID_00000043450190272120769330000004702277223279483041_);fill:#FFFFFF;" d="M113.39,14.6
				c0,0-15.83,1.13-27.76,6.54c-6.05,2.75-12.62,6.77-16.98,7.22c-4.36,0.45-8.72-1.35-8.72-1.35l8.95,88.45
				c0,0,25.01-2.93,30.05-6.54c5.04-3.61,11.01-7.67,18.35-8.35c7.34-0.68,13.99-1.13,13.99-1.13L113.39,14.6z"/>
			<path style="clip-path:url(#SVGID_00000043450190272120769330000004702277223279483041_);fill:#1F1F1D;" d="M60.14,27.27l8.9,88
				c2.25-0.27,25.06-3.1,29.79-6.49c5.65-4.04,11.32-7.72,18.44-8.38c6.56-0.6,12.64-1.04,13.8-1.12l-17.82-84.5
				c-1.65,0.13-16.4,1.46-27.54,6.52c-1.77,0.8-3.6,1.72-5.37,2.61c-4.39,2.21-8.55,4.3-11.66,4.62
				C64.93,28.93,61.16,27.65,60.14,27.27 M68.73,115.66l-0.02-0.17l-8.98-88.74L60,26.85c0.05,0.02,4.36,1.79,8.63,1.34
				c3.05-0.32,7.18-2.39,11.54-4.59c1.77-0.89,3.61-1.81,5.38-2.62c11.82-5.37,27.66-6.55,27.82-6.56l0.15-0.01l0.03,0.14
				l17.93,85.04l-0.2,0.01c-0.07,0.01-6.73,0.46-13.99,1.13c-7.04,0.65-12.66,4.3-18.27,8.32c-5.03,3.59-29.11,6.46-30.13,6.57
				L68.73,115.66z"/>
		</g>
		<g>
			<path class="st2" d="M75.18,101.62l-0.15-0.73c0.01-0.32,0.34-0.66,0.71-0.75L78,99.65c1.09-0.34,1.58-1.61,2.3-2.37l-9.98-49.04
				c-0.06-0.28,0.17-0.56,0.3-0.69c0.79-0.87,1.49-1.48,2.51-1.97c0.4-0.19,1.21-0.58,1.17-0.92l-0.03-0.38
				c-0.65-0.25-0.69-0.21-0.15-0.76l-0.35-1.49c0.01-0.59,0.35-1.21,0.68-1.27l4.25-0.83c0.38-0.05,0.99,0.65,1.06,0.89l0.32,1.58
				c0.69,0.31,0.65,0.16,0.14,0.72l0.1,0.48c0.07,0.22,0.41,0.23,1.26,0.32c1.29,0.1,2.62,0.46,3.39,0.83
				c0.23,0.1,0.49,0.22,0.53,0.44l10.04,49.16c0.57,0.5,1.25,1.58,2.19,1.46l3.01-0.55c0.6-0.12,0.89,0.29,0.97,0.57l0.12,0.57
				L75.18,101.62z"/>
			<path class="st3" d="M73.94,43.96l0.26,0.11l0.23,0.09l0.04,0.5c0.04,0.33-0.35,0.67-1.27,1.09c-0.92,0.45-1.61,0.99-2.46,1.93
				c-0.09,0.1-0.3,0.33-0.26,0.54l10,49.12l-0.06,0.06c-0.22,0.23-0.42,0.52-0.63,0.82c-0.46,0.66-0.95,1.35-1.75,1.6l-2.28,0.49
				c-0.29,0.07-0.56,0.35-0.57,0.59l0.11,0.52l26.31-5.17l-0.08-0.4c-0.02-0.08-0.19-0.54-0.77-0.43l-3.01,0.55
				c-0.81,0.1-1.43-0.55-1.92-1.08c-0.15-0.16-0.29-0.31-0.42-0.42l-0.04-0.04l-0.01-0.06L85.34,45.21
				c-0.03-0.14-0.25-0.23-0.44-0.32c-0.82-0.39-2.16-0.72-3.33-0.81l-0.18-0.02c-0.8-0.08-1.13-0.11-1.23-0.42l-0.12-0.58L80.09,43
				l0.2-0.22l0.07-0.08l-0.1-0.04l-0.27-0.11l-0.08-0.04l-0.34-1.67c-0.06-0.18-0.59-0.75-0.85-0.75h-0.02l-4.24,0.83
				c-0.21,0.04-0.53,0.55-0.54,1.11l0.37,1.54l-0.06,0.07L73.94,43.96z M75.04,101.82l-0.19-0.9c0.02-0.43,0.38-0.83,0.83-0.95
				l2.27-0.49c0.67-0.21,1.12-0.84,1.55-1.46c0.19-0.27,0.38-0.55,0.6-0.79l-9.97-48.96c-0.07-0.36,0.19-0.68,0.35-0.84
				c0.73-0.81,1.45-1.46,2.56-2c1.05-0.48,1.08-0.71,1.07-0.75l-0.02-0.29l-0.03-0.01c-0.3-0.11-0.46-0.18-0.5-0.35
				c-0.04-0.17,0.07-0.3,0.35-0.58l-0.33-1.4c0-0.65,0.36-1.39,0.81-1.48l4.25-0.83c0.52-0.07,1.18,0.73,1.27,1.01l0.31,1.51
				l0.18,0.08c0.2,0.08,0.33,0.13,0.36,0.27c0.03,0.14-0.06,0.23-0.22,0.4l-0.13,0.14l0.08,0.39c0.03,0.08,0.41,0.12,0.93,0.16
				l0.18,0.02c1.23,0.1,2.59,0.43,3.45,0.85c0.25,0.11,0.56,0.25,0.62,0.56l10.02,49.1c0.13,0.12,0.26,0.26,0.4,0.41
				c0.46,0.49,1,1.05,1.61,0.97l3-0.55c0.61-0.12,1.04,0.26,1.17,0.69l0.15,0.75l-0.17,0.03L75.04,101.82z"/>
			<polygon class="st3" points="73.85,44.14 73.68,44 73.82,43.8 80.5,42.49 80.71,42.62 80.57,42.82 73.88,44.13 			"/>
			<polygon class="st3" points="74.37,45.07 74.2,44.93 74.34,44.73 80.39,43.54 80.59,43.68 80.46,43.88 74.41,45.07 			"/>
			<polygon class="st3" points="73.95,42.67 73.78,42.53 73.91,42.33 79.84,41.16 80.05,41.3 79.91,41.5 73.98,42.66 			"/>
			<polygon class="st3" points="70.31,48.37 70.14,48.24 70.28,48.04 85.43,45.06 85.63,45.19 85.5,45.39 70.35,48.37 			"/>
			<polygon class="st3" points="83.96,67.77 84.03,68.08 83.25,68.23 83.25,68.24 83.46,68.32 84.14,68.64 84.22,69.02 83.38,68.58 
				82.53,69.39 82.46,69.03 83.14,68.41 82.93,68.29 82.33,68.41 82.27,68.11 			"/>
			<path class="st3" d="M83.29,70.06c-0.04-0.21-0.13-0.41-0.31-0.38l-0.14,0.21l0.22,0.21l0.07,0L83.29,70.06z M82.7,70.22
				l0.13-0.05v-0.01c-0.11-0.05-0.21-0.17-0.24-0.32c-0.05-0.24,0.1-0.42,0.29-0.45c0.31-0.06,0.52,0.18,0.61,0.62l0.02,0
				c0.08-0.02,0.21-0.08,0.16-0.29l-0.15-0.31l0.19-0.1c0.08,0.08,0.16,0.22,0.2,0.42c0.08,0.39-0.15,0.54-0.41,0.6l-0.45,0.09
				l-0.29,0.08L82.7,70.22z"/>
			<path class="st3" d="M83.68,70.63c0.14-0.03,0.26-0.05,0.37-0.08l0.05,0.27l-0.18,0.05l0,0.01c0.11,0.03,0.25,0.14,0.29,0.34
				c0.04,0.21-0.05,0.46-0.44,0.53l-0.73,0.14l-0.06-0.3l0.69-0.14c0.18-0.04,0.3-0.12,0.27-0.29l-0.23-0.2l-0.1,0.01l-0.72,0.14
				l-0.06-0.31L83.68,70.63z"/>
			<path class="st3" d="M83.67,72.42l-0.07,0.02c-0.12,0.06-0.19,0.18-0.16,0.31c0.04,0.19,0.22,0.28,0.47,0.23
				c0.22-0.04,0.37-0.18,0.33-0.38c-0.03-0.12-0.14-0.22-0.28-0.22l-0.08,0L83.67,72.42z M83.1,72.21l0.35-0.06l1.44-0.28l0.06,0.3
				l-0.73,0.15v0c0.13,0.05,0.24,0.17,0.27,0.35c0.06,0.29-0.15,0.55-0.52,0.62c-0.44,0.09-0.71-0.15-0.77-0.42
				c-0.03-0.16,0-0.31,0.13-0.42v0l-0.19,0.02L83.1,72.21z"/>
			<path class="st3" d="M83.4,73.67l0.06,0.31l1.23-0.24l-0.06-0.31L83.4,73.67z M84.83,73.54l0.2,0.14l0.13-0.21l-0.2-0.14
				L84.83,73.54z"/>
			<path class="st3" d="M83.81,74.23l-0.03,0.33c0.03,0.13,0.09,0.18,0.18,0.17c0.08-0.02,0.12-0.07,0.14-0.23
				c0.04-0.25,0.15-0.38,0.29-0.4c0.22-0.04,0.42,0.1,0.48,0.38c0.03,0.13,0.02,0.26-0.01,0.33l-0.23-0.02l0.02-0.27l-0.16-0.14
				c-0.08,0.01-0.1,0.08-0.13,0.24c-0.04,0.23-0.13,0.36-0.31,0.4c-0.22,0.04-0.42-0.1-0.48-0.42c-0.03-0.15-0.02-0.29,0.01-0.38
				L83.81,74.23z"/>
			<path class="st3" d="M85.13,75.4l0.01,0.04l0.07,0.07l0.04-0.09l-0.01-0.05L85.13,75.4z M84.89,75.45l-0.02-0.11l0.41-0.08
				l0.04,0.16v0.15l-0.08,0.06l-0.11-0.07l0,0l-0.09,0.1l-0.09,0.05l-0.02-0.12l0.09-0.05l0.04-0.09l-0.01-0.04L84.89,75.45z
				 M85.05,75.15c-0.18,0.03-0.3,0.2-0.26,0.38c0.04,0.18,0.21,0.28,0.39,0.25c0.18-0.04,0.3-0.2,0.26-0.38
				C85.4,75.22,85.23,75.12,85.05,75.15 M85.2,75.89c-0.24,0.05-0.47-0.1-0.52-0.34c-0.05-0.24,0.1-0.47,0.34-0.51
				c0.23-0.05,0.46,0.11,0.51,0.35C85.59,75.62,85.44,75.85,85.2,75.89"/>
			<path class="st3" d="M79.88,67.85c-0.05-0.06-0.12-0.2-0.15-0.38c-0.09-0.43,0.12-0.8,0.63-0.91c0.48-0.09,0.88,0.16,0.97,0.63
				c0.04,0.19,0.02,0.32,0,0.37l-0.17-0.01c0.02-0.08,0.03-0.19,0-0.32c-0.07-0.36-0.35-0.55-0.76-0.47
				c-0.38,0.07-0.58,0.33-0.5,0.71l0.13,0.31L79.88,67.85z"/>
			<path class="st3" d="M80.57,68.57c-0.04-0.22-0.13-0.46-0.34-0.41c-0.13,0.03-0.18,0.12-0.16,0.22c0.03,0.14,0.14,0.21,0.24,0.23
				l0.07,0L80.57,68.57z M80.01,68.71l0.14-0.04v-0.01c-0.1-0.04-0.2-0.14-0.23-0.3c-0.04-0.22,0.09-0.37,0.25-0.4
				c0.27-0.05,0.46,0.15,0.55,0.57l0.02,0c0.09-0.02,0.25-0.08,0.21-0.3l-0.14-0.27l0.12-0.07c0.08,0.08,0.14,0.2,0.17,0.34
				c0.07,0.33-0.15,0.46-0.37,0.5l-0.42,0.08l-0.26,0.07L80.01,68.71z"/>
			<path class="st3" d="M80.91,69.03l0.3-0.07l0.04,0.18l-0.18,0.05v0c0.12,0.03,0.24,0.14,0.28,0.32c0.03,0.15-0.01,0.4-0.4,0.48
				l-0.66,0.13l-0.04-0.2l0.64-0.12c0.18-0.04,0.31-0.13,0.28-0.32c-0.03-0.13-0.14-0.21-0.26-0.23l-0.1,0l-0.67,0.13l-0.04-0.2
				L80.91,69.03z"/>
			<path class="st3" d="M81.17,70.28l0.3-0.07l0.04,0.18l-0.18,0.05l0,0c0.12,0.03,0.24,0.14,0.28,0.32c0.03,0.15-0.02,0.4-0.4,0.48
				l-0.66,0.13l-0.04-0.2l0.64-0.12c0.18-0.04,0.31-0.13,0.28-0.32c-0.03-0.13-0.14-0.21-0.26-0.23l-0.09,0l-0.67,0.13l-0.04-0.2
				L81.17,70.28z"/>
			<path class="st3" d="M81.29,72.16c-0.04-0.22-0.13-0.46-0.35-0.41c-0.13,0.03-0.18,0.12-0.15,0.23c0.03,0.14,0.14,0.21,0.24,0.23
				l0.07,0L81.29,72.16z M80.73,72.29l0.14-0.04l0-0.01c-0.1-0.04-0.2-0.14-0.23-0.3c-0.05-0.22,0.09-0.36,0.25-0.4
				c0.27-0.05,0.46,0.15,0.54,0.57l0.03,0c0.09-0.02,0.25-0.08,0.21-0.3l-0.14-0.27l0.12-0.07c0.08,0.08,0.14,0.2,0.17,0.34
				c0.07,0.33-0.15,0.46-0.37,0.5l-0.42,0.08l-0.26,0.07L80.73,72.29z"/>
			<path class="st3" d="M81.32,72.89l-0.07,0.02c-0.13,0.07-0.21,0.2-0.18,0.34c0.04,0.21,0.24,0.3,0.49,0.25
				c0.22-0.04,0.39-0.19,0.35-0.4c-0.03-0.14-0.15-0.25-0.31-0.25l-0.09,0L81.32,72.89z M80.83,72.77l0.29-0.05l1.34-0.26l0.04,0.2
				l-0.7,0.14l0,0c0.14,0.05,0.24,0.16,0.28,0.33c0.05,0.27-0.14,0.51-0.47,0.57c-0.4,0.08-0.64-0.13-0.7-0.37
				c-0.03-0.16,0.01-0.3,0.14-0.41l0,0l-0.19,0.03L80.83,72.77z"/>
			<path class="st3" d="M81.09,74.06l0.04,0.2l1.11-0.22l-0.04-0.2L81.09,74.06z M82.41,73.9l0.15,0.1l0.1-0.15l-0.15-0.1
				L82.41,73.9z"/>
			<path class="st3" d="M82.01,75.2l0.08-0.03c0.12-0.05,0.21-0.18,0.18-0.33c-0.04-0.2-0.25-0.29-0.5-0.24
				c-0.22,0.04-0.39,0.19-0.35,0.4c0.03,0.13,0.14,0.24,0.3,0.24l0.09-0.01L82.01,75.2z M83.02,75.21l-1.34,0.26l-0.29,0.07
				l-0.04-0.18l0.19-0.05v0c-0.14-0.04-0.26-0.15-0.29-0.33c-0.05-0.26,0.13-0.51,0.47-0.58c0.37-0.07,0.64,0.11,0.69,0.37
				c0.04,0.17-0.02,0.29-0.1,0.36v0l0.66-0.13L83.02,75.21z"/>
			<path class="st3" d="M81.46,75.86l0.04,0.2l1.11-0.22l-0.04-0.2L81.46,75.86z M82.77,75.7l0.15,0.1l0.1-0.15l-0.15-0.1
				L82.77,75.7z"/>
			<path class="st3" d="M82.14,76.4c-0.24,0.05-0.4,0.22-0.36,0.42c0.04,0.19,0.25,0.29,0.5,0.25c0.19-0.04,0.4-0.18,0.36-0.41
				C82.59,76.42,82.35,76.36,82.14,76.4 M82.33,77.26c-0.41,0.08-0.65-0.16-0.7-0.43c-0.06-0.3,0.12-0.57,0.46-0.63
				c0.37-0.07,0.64,0.12,0.7,0.42C82.86,76.94,82.67,77.2,82.33,77.26"/>
			<polygon class="st3" points="81.82,77.63 81.86,77.82 83.48,77.5 83.44,77.31 			"/>
			<polygon class="st3" points="75.45,50.03 75.23,50.21 75.29,50.34 75.46,50.2 75.47,50.2 75.65,51.13 75.84,51.1 75.61,49.99 			
				"/>
			<polygon class="st3" points="74.85,51.68 74.63,51.86 74.7,52 74.86,51.86 74.87,51.86 75.05,52.79 75.24,52.75 75.01,51.65 			
				"/>
			<path class="st3" d="M75.42,52.93c0.02-0.13,0.03-0.32,0.02-0.45l0.19-0.05c-0.02,0.15-0.05,0.35-0.1,0.46L75.42,52.93z"/>
			<path class="st3" d="M76.05,51.61l-0.3,0.06l0.02,0.25l0.04-0.01l0.23,0.04l0.15,0.23c0.04,0.22-0.07,0.41-0.29,0.46l-0.21-0.01
				l0.01-0.15l0.17,0.01c0.11-0.02,0.18-0.12,0.15-0.26c-0.03-0.16-0.16-0.2-0.29-0.17l-0.09,0.02l-0.04-0.55l0.44-0.08L76.05,51.61
				z"/>
			<path class="st3" d="M75.45,56.11l-0.02-0.12l0.08-0.16c0.1-0.21,0.2-0.41,0.17-0.59l-0.19-0.14l-0.15,0.09l-0.06-0.13l0.22-0.12
				c0.22-0.04,0.33,0.09,0.36,0.25c0.04,0.21-0.06,0.41-0.16,0.61l-0.05,0.1v0L76,55.83l0.03,0.16L75.45,56.11z"/>
			<path class="st3" d="M76.08,56.2c0.02-0.13,0.03-0.32,0.02-0.45l0.19-0.05c-0.02,0.15-0.05,0.35-0.1,0.46L76.08,56.2z"/>
			<path class="st3" d="M76.71,54.88l-0.3,0.06l0.01,0.25l0.04-0.01l0.23,0.04l0.15,0.23c0.04,0.21-0.07,0.41-0.29,0.46l-0.21-0.01
				l0-0.15l0.17,0.01c0.11-0.02,0.18-0.12,0.15-0.25c-0.03-0.16-0.16-0.2-0.29-0.17l-0.08,0.02l-0.04-0.55l0.44-0.09L76.71,54.88z"
				/>
			<path class="st3" d="M76.12,59.27l0.17,0.01l0.14-0.22c-0.03-0.13-0.13-0.18-0.26-0.16l-0.03,0.01l-0.03-0.13l0.02-0.01
				l0.16-0.21l-0.17-0.12l-0.13,0.07l-0.06-0.13l0.21-0.1c0.18-0.03,0.3,0.07,0.33,0.21l-0.11,0.28v0c0.11,0.01,0.22,0.09,0.25,0.25
				c0.04,0.17-0.06,0.35-0.28,0.4l-0.22-0.01L76.12,59.27z"/>
			<path class="st3" d="M76.76,59.56c0.02-0.13,0.03-0.32,0.02-0.45l0.19-0.06c-0.02,0.16-0.05,0.35-0.1,0.47L76.76,59.56z"/>
			<path class="st3" d="M77.4,58.23l-0.3,0.06l0.01,0.25l0.04-0.01l0.23,0.04l0.15,0.23c0.04,0.21-0.07,0.41-0.29,0.46l-0.21-0.01
				l0-0.15l0.17,0.01c0.11-0.02,0.18-0.12,0.15-0.26c-0.03-0.16-0.15-0.2-0.29-0.17l-0.08,0.02l-0.04-0.55l0.44-0.08L77.4,58.23z"/>
			<path class="st3" d="M76.85,62.31l0.08-0.3l0.05-0.2l0.01,0l0.03,0.2l0.05,0.26L76.85,62.31L76.85,62.31z M76.92,61.6l-0.22,0.77
				l0.03,0.12l0.38-0.07l0.06,0.28l0.16-0.03l-0.06-0.28l0.12-0.02l-0.03-0.15l-0.12,0.02l-0.14-0.67L76.92,61.6z"/>
			<path class="st3" d="M77.44,62.87c0.02-0.13,0.03-0.32,0.03-0.45l0.19-0.06c-0.02,0.16-0.05,0.35-0.1,0.47L77.44,62.87z"/>
			<path class="st3" d="M78.07,61.54l-0.3,0.06l0.02,0.25l0.04-0.01l0.23,0.04l0.15,0.23c0.04,0.21-0.07,0.41-0.29,0.46l-0.21-0.01
				l0-0.15l0.17,0.01c0.11-0.02,0.18-0.12,0.15-0.25c-0.03-0.16-0.16-0.2-0.29-0.17l-0.08,0.02l-0.04-0.54l0.44-0.09L78.07,61.54z"
				/>
			<path class="st3" d="M76.03,54.41l-0.02-0.12l0.08-0.16c0.1-0.21,0.2-0.41,0.17-0.59l-0.18-0.14l-0.15,0.09l-0.06-0.13l0.22-0.12
				c0.22-0.04,0.33,0.09,0.36,0.25c0.04,0.21-0.05,0.41-0.15,0.61l-0.05,0.1v0l0.36-0.07l0.03,0.16L76.03,54.41z"/>
			<path class="st3" d="M76.7,57.5l0.17,0.01l0.15-0.22c-0.03-0.13-0.14-0.18-0.26-0.16l-0.03,0L76.7,57l0.03,0l0.16-0.21
				l-0.16-0.12l-0.13,0.07l-0.06-0.13l0.21-0.1c0.18-0.03,0.3,0.06,0.33,0.21l-0.11,0.28v0c0.11,0.01,0.22,0.09,0.25,0.25
				c0.03,0.17-0.06,0.35-0.29,0.4l-0.22-0.01L76.7,57.5z"/>
			<path class="st3" d="M77.37,60.56l0.08-0.3l0.05-0.21l0.01,0l0.03,0.2l0.05,0.27L77.37,60.56L77.37,60.56z M77.44,59.84
				l-0.22,0.77l0.02,0.12l0.38-0.07l0.06,0.28l0.16-0.03l-0.05-0.28l0.12-0.02l-0.03-0.14l-0.12,0.02l-0.14-0.67L77.44,59.84z"/>
			<path class="st3" d="M78.42,63.28l-0.3,0.06l0.02,0.25l0.04-0.01l0.23,0.04l0.15,0.23c0.04,0.21-0.07,0.41-0.29,0.46l-0.21-0.01
				l0-0.15l0.17,0.01c0.11-0.02,0.18-0.12,0.15-0.26c-0.03-0.16-0.16-0.2-0.29-0.17L78,63.76l-0.04-0.55l0.44-0.08L78.42,63.28z"/>
			<path class="st3" d="M74.17,48.88c0.05,0.26,0.12,0.4,0.21,0.38c0.08-0.02,0.09-0.18,0.04-0.43c-0.05-0.25-0.12-0.4-0.2-0.39
				C74.13,48.46,74.12,48.62,74.17,48.88 M74.6,48.79c0.08,0.4-0.03,0.6-0.2,0.63c-0.21,0.04-0.36-0.18-0.42-0.5
				c-0.07-0.34-0.01-0.59,0.2-0.63C74.41,48.25,74.54,48.49,74.6,48.79"/>
			<path class="st3" d="M74.73,49.56c0.02-0.13,0.03-0.32,0.02-0.45l0.19-0.06c-0.02,0.16-0.05,0.35-0.1,0.47L74.73,49.56z"/>
			<path class="st3" d="M75.37,48.24l-0.3,0.06l0.01,0.25l0.04-0.01l0.23,0.04l0.15,0.23c0.04,0.21-0.06,0.41-0.29,0.45l-0.21,0
				l0-0.15l0.17,0.01c0.11-0.02,0.18-0.12,0.15-0.26c-0.03-0.16-0.15-0.2-0.29-0.17l-0.08,0.02l-0.04-0.55l0.44-0.08L75.37,48.24z"
				/>
			<polygon class="st3" points="76.69,50.53 76.52,50.39 76.65,50.19 82.76,48.99 82.96,49.12 82.83,49.33 76.72,50.52 			"/>
			<polygon class="st3" points="77.34,53.75 77.17,53.61 77.31,53.41 83.41,52.21 83.62,52.34 83.48,52.54 77.37,53.74 			"/>
			<polygon class="st3" points="78.01,57.02 77.84,56.89 77.97,56.69 84.08,55.49 84.28,55.62 84.15,55.82 78.04,57.02 			"/>
			<polygon class="st3" points="78.68,60.34 78.51,60.21 78.65,60.01 84.75,58.81 84.96,58.94 84.82,59.14 78.71,60.34 			"/>
			<polygon class="st3" points="79.36,63.69 79.19,63.55 79.32,63.35 85.43,62.15 85.63,62.28 85.5,62.49 79.39,63.68 			"/>
			<polygon class="st3" points="76.13,47.6 75.99,47.8 76.16,47.93 76.2,47.93 79.23,47.33 79.37,47.13 79.16,47 			"/>
			<polygon class="st3" points="76.47,49.28 76.33,49.49 76.5,49.62 76.54,49.62 79.58,49.03 79.71,48.82 79.51,48.69 			"/>
			<polygon class="st3" points="76.82,50.99 76.68,51.2 76.85,51.33 76.88,51.33 79.92,50.73 80.06,50.53 79.86,50.4 			"/>
			<polygon class="st3" points="77.48,54.25 77.34,54.45 77.51,54.59 77.54,54.58 80.58,53.99 80.72,53.78 80.52,53.65 			"/>
			<polygon class="st3" points="77.8,55.86 77.67,56.06 77.84,56.2 77.87,56.19 80.91,55.6 81.05,55.39 80.84,55.26 			"/>
			<polygon class="st3" points="78.14,57.53 78.01,57.73 78.18,57.87 78.21,57.87 81.25,57.27 81.39,57.07 81.18,56.93 			"/>
			<polygon class="st3" points="78.48,59.19 78.34,59.39 78.51,59.53 78.55,59.53 81.59,58.93 81.73,58.73 81.52,58.6 			"/>
			<polygon class="st3" points="78.82,60.85 78.68,61.05 78.85,61.19 78.89,61.18 81.93,60.59 82.06,60.38 81.86,60.25 			"/>
			<polygon class="st3" points="79.16,62.53 79.02,62.73 79.19,62.87 79.23,62.86 82.27,62.27 82.4,62.07 82.2,61.93 			"/>
			<polygon class="st3" points="77.14,52.6 77.01,52.8 77.18,52.94 77.21,52.94 80.25,52.34 80.39,52.14 80.18,52 			"/>
			<polygon class="st3" points="76.29,48.39 76.15,48.6 76.32,48.73 76.36,48.73 80.53,47.91 80.66,47.71 80.46,47.57 			"/>
			<polygon class="st3" points="76.29,48.39 76.15,48.6 76.32,48.73 76.36,48.73 80.53,47.91 80.66,47.71 80.46,47.57 			"/>
			<polygon class="st3" points="76.97,51.77 76.84,51.97 77.01,52.11 77.04,52.11 81.21,51.29 81.35,51.09 81.15,50.95 			"/>
			<polygon class="st3" points="77.63,55.03 77.5,55.23 77.67,55.37 77.7,55.37 81.88,54.55 82.01,54.35 81.81,54.21 			"/>
			<polygon class="st3" points="78.32,58.39 78.18,58.59 78.35,58.72 78.39,58.72 82.56,57.9 82.7,57.7 82.49,57.57 			"/>
			<polygon class="st3" points="78.99,61.7 78.85,61.91 79.02,62.04 79.06,62.04 83.23,61.22 83.37,61.02 83.16,60.88 			"/>
			<path class="st3" d="M82.84,80.71l-1.85,0.36l-0.01,0.84c0-0.23,0.19-0.45,0.41-0.5l1.44-0.28l0.21-0.25L82.84,80.71z
				 M82.4,81.63l-1.42,0.28l-0.01,0.83c0-0.23,0.19-0.45,0.41-0.5l1.01-0.2l0.21-0.25L82.4,81.63z M82.82,82.38l-1.84,0.36
				l-0.01,0.84c0-0.22,0.19-0.45,0.41-0.5l1.43-0.28l0.21-0.25L82.82,82.38z"/>
			<polygon class="st3" points="85.06,80.27 85.03,82.36 85.35,82.3 85.38,80.21 			"/>
			<path class="st3" d="M88.07,81.14c-0.1,0.25-0.24,0.39-0.43,0.43l-0.15-0.03c-0.07-0.06-0.1-0.19-0.1-0.39
				c0-0.35,0.15-0.55,0.45-0.61l0.24-0.02L88.07,81.14z M88.37,80.23c-0.15-0.01-0.32,0-0.52,0.04c-0.5,0.1-0.76,0.41-0.76,0.94
				c0,0.3,0.05,0.49,0.18,0.59c0.08,0.07,0.2,0.09,0.34,0.06c0.2-0.04,0.35-0.16,0.47-0.37l0.02,0.28l0.28-0.06l0.02-1.48
				L88.37,80.23z"/>
			<polygon class="st3" points="83.47,80.59 83.44,82.68 84.81,82.41 84.82,82.14 83.76,82.35 83.77,81.69 84.76,81.49 84.76,81.23 
				83.77,81.42 83.78,80.79 84.82,80.59 84.82,80.32 			"/>
			<path class="st3" d="M86.61,80.95c0,0.12-0.08,0.19-0.24,0.22l-0.43,0.08c0.03-0.24,0.16-0.38,0.39-0.43l0.24,0.02L86.61,80.95z
				 M86.32,80.57c-0.46,0.09-0.7,0.39-0.7,0.89c0,0.28,0.06,0.47,0.19,0.58c0.12,0.09,0.28,0.12,0.5,0.08
				c0.22-0.04,0.4-0.14,0.53-0.29l0.01-0.01l0-0.3l-0.05,0.06c-0.12,0.14-0.29,0.23-0.5,0.28l-0.28-0.04
				c-0.06-0.05-0.09-0.14-0.09-0.27l0.44-0.09c0.36-0.07,0.55-0.25,0.55-0.54c0-0.13-0.04-0.23-0.11-0.29
				C86.71,80.54,86.55,80.52,86.32,80.57"/>
			<path class="st29" d="M88.83,29.34l7.18-0.05l0.43,55.68l-0.6,0.01c-0.42,0-0.76,0.34-0.76,0.76c0,0.41,0.35,0.75,0.77,0.75
				l12.85-0.1c0.42,0,0.76-0.34,0.76-0.76c0-0.41-0.35-0.75-0.77-0.75l-0.6,0l-0.43-55.68l7.18-0.05c0,0,0.01-0.4,0-0.89
				c0-0.49-0.22-0.89-1.75-0.88l-22.56,0.17c-1.53,0.01-1.74,0.41-1.73,0.91C88.81,28.94,88.83,29.34,88.83,29.34"/>
			<path class="st3" d="M96.18,29.12l0.44,56.02l-0.78,0.01c-0.16,0-0.3,0.06-0.42,0.17c-0.11,0.11-0.17,0.26-0.17,0.41
				c0,0.15,0.06,0.3,0.18,0.41c0.11,0.11,0.26,0.17,0.41,0.17h0.01l12.85-0.09c0.33,0,0.59-0.27,0.59-0.58
				c0-0.32-0.27-0.58-0.59-0.58h0l-0.77,0l-0.43-56.02l7.19-0.05c0-0.16,0.01-0.42,0-0.72c0-0.3-0.01-0.71-1.5-0.71h-0.07
				l-22.56,0.17c-0.66,0.01-1.11,0.09-1.34,0.24c-0.16,0.11-0.21,0.24-0.21,0.49c0,0.3,0.01,0.56,0.02,0.72L96.18,29.12z
				 M95.85,86.65c-0.25,0-0.48-0.09-0.66-0.27c-0.18-0.17-0.28-0.4-0.28-0.65c0-0.25,0.09-0.48,0.27-0.65
				c0.18-0.18,0.41-0.28,0.66-0.28l0.43,0l-0.43-55.34l-7.17,0.05l-0.01-0.16c0,0-0.02-0.41-0.03-0.9c0-0.25,0.04-0.55,0.37-0.78
				c0.3-0.2,0.79-0.3,1.54-0.3l22.56-0.17h0.07c1.31,0,1.85,0.3,1.85,1.05c0,0.49-0.01,0.9-0.01,0.9l0,0.17l-7.18,0.05l0.43,55.34
				l0.43,0h0.01c0.52,0,0.93,0.41,0.94,0.92c0,0.51-0.41,0.93-0.93,0.93L95.85,86.65L95.85,86.65z"/>
		</g>
	</g>
	<g>
		<g>
			<polygon class="st30" points="121.34,117.88 2.02,117.88 2.02,10.54 61.91,10.54 121.34,10.54 			"/>
			<line class="st30" x1="62.53" y1="117.88" x2="62.53" y2="10.54"/>
		</g>
		<g>
			<path class="st31" d="M130.73,12.81c0,5.96-4.83,10.79-10.79,10.79s-10.79-4.83-10.79-10.79s4.83-10.79,10.79-10.79
				S130.73,6.84,130.73,12.81z"/>
			<g>
				<path class="st32" d="M116.02,18.44v-8.16l-1.72,1.8l-1.08-1.12l3.04-3.07h1.61v10.54H116.02z"/>
				<path class="st32" d="M121.63,18.44v-8.16l-1.72,1.8l-1.08-1.12l3.04-3.07h1.61v10.54H121.63z"/>
			</g>
		</g>
	</g>
</g>
</svg>
