<?xml version="1.0" encoding="utf-8"?>
<!-- Generator: Adobe Illustrator 26.0.0, SVG Export Plug-In . SVG Version: 6.00 Build 0)  -->
<svg version="1.1" id="Capa_1" xmlns="http://www.w3.org/2000/svg" xmlns:xlink="http://www.w3.org/1999/xlink" x="0px" y="0px"
	 viewBox="0 0 119.89 110.8" style="enable-background:new 0 0 119.89 110.8;" xml:space="preserve">
<style type="text/css">
	.st0{fill:#13110C;}
	.st1{clip-path:url(#SVGID_00000059302266902003338820000000655808096458545588_);fill:#1F1F1D;}
	.st2{fill:#1F1F1D;}
	.st3{fill:#AC7FB6;}
	.st4{fill:#959191;}
	.st5{clip-path:url(#SVGID_00000062914686021416048660000018160586691171972248_);fill:#1A1917;}
	.st6{clip-path:url(#SVGID_00000062914686021416048660000018160586691171972248_);fill:#FFFFFF;}
	.st7{clip-path:url(#SVGID_00000062914686021416048660000018160586691171972248_);fill:#1F1F1D;}
	.st8{fill:#FFFFFF;}
	.st9{clip-path:url(#SVGID_00000127028630048014434210000004567434815148886925_);fill:#13110C;}
	.st10{clip-path:url(#SVGID_00000127028630048014434210000004567434815148886925_);fill:#FFFFFF;}
	.st11{fill:none;stroke:#662982;stroke-width:1.9;stroke-miterlimit:10;}
	.st12{fill:#FFFFFF;stroke:#662982;stroke-width:1.9;stroke-miterlimit:10;}
	.st13{fill:#662982;}
</style>
<g>
	<g>
		<path class="st0" d="M90.03,26.04l-0.18-0.18l0.18-0.17c0.04,0,4.62-0.01,6.03-0.9c1.43-0.9,3.21-2.8,3.23-2.82l0.25-0.01
			l0.01,0.25c-0.07,0.08-1.83,1.95-3.3,2.87C94.75,26.03,90.22,26.04,90.03,26.04"/>
		<path class="st0" d="M70.53,34.71c-0.12-0.01-2.15-0.28-3.1-0.96c-0.97-0.69-1.38-2.02-1.4-2.08l0.12-0.22l0.22,0.12
			c0,0.01,0.39,1.27,1.27,1.89c0.88,0.63,2.9,0.89,2.92,0.89l2.1-0.07l0.18,0.17l-0.17,0.18L70.53,34.71z"/>
		<path class="st0" d="M94.15,29.75l-0.18-0.17l0.18-0.18c0.02,0,2.13-0.02,5.18-1.63c3.08-1.63,5.22-3.15,5.24-3.16l0.25,0.04
			l-0.04,0.24c-0.02,0.02-2.18,1.55-5.28,3.19C96.36,29.73,94.24,29.75,94.15,29.75"/>
		<g>
			<defs>
				<rect id="SVGID_1_" x="3.92" y="3.25" width="105.15" height="105.31"/>
			</defs>
			<clipPath id="SVGID_00000147206587616522593670000018398986685354386093_">
				<use xlink:href="#SVGID_1_"  style="overflow:visible;"/>
			</clipPath>
			<path style="clip-path:url(#SVGID_00000147206587616522593670000018398986685354386093_);fill:#1F1F1D;" d="M43.11,85.25
				l-0.04-0.01c-0.03-0.01-0.68-0.16-1.54-0.61c-0.87-0.46-1.81-1.48-1.84-1.53l0.01-0.25l0.25,0.01c0.01,0.01,0.94,1.02,1.75,1.45
				c0.82,0.43,1.45,0.58,1.46,0.58l0.13,0.21L43.11,85.25z"/>
		</g>
		<g>
			<rect x="55.17" y="3.25" class="st2" width="2.82" height="12.86"/>
			<polygon class="st2" points="53.06,15.09 56.58,21.14 60.09,15.09 			"/>
			<path class="st3" d="M71.77,55.6l-4.39-5.34c-0.45-0.54-0.8-0.99-0.79-0.99c0.01,0,0.03-0.53,0.03-1.18v-1.2H48.57v1.2
				c0,0.65,0.01,1.18,0.03,1.18c0.01,0-0.34,0.45-0.79,0.99l-4.4,5.34c-0.45,0.54-0.94,1.52-0.94,2.16v42.89
				c0,0.64,0.68,1.17,1.51,1.17H71.2c0.83,0,1.5-0.53,1.5-1.17V57.76C72.71,57.12,72.22,56.14,71.77,55.6"/>
			<path class="st2" d="M48.77,49.22c0.05,0.1,0,0.16-0.82,1.15l-4.4,5.34c-0.43,0.52-0.9,1.46-0.9,2.05v42.89c0,0.55,0.6,1,1.33,1
				H71.2c0.73,0,1.33-0.45,1.33-1V57.76c0-0.59-0.47-1.53-0.9-2.05l-4.39-5.34c-0.82-1-0.87-1.05-0.82-1.16
				c0.01-0.1,0.02-0.49,0.02-1.12v-1.02H48.75v1.02C48.75,48.7,48.76,49.12,48.77,49.22 M71.2,102H43.98
				c-0.93,0-1.68-0.61-1.68-1.35V57.76c0-0.68,0.5-1.69,0.98-2.27l4.39-5.34c0.39-0.47,0.65-0.8,0.74-0.92
				c-0.02-0.18-0.02-0.52-0.02-1.13v-1.37h18.4v1.37c0,0.62,0,0.95-0.02,1.13c0.1,0.12,0.38,0.48,0.74,0.92l4.39,5.34
				c0.48,0.58,0.98,1.59,0.98,2.27v42.89C72.89,101.4,72.13,102,71.2,102"/>
			<path class="st4" d="M66.44,47.08H48.75v1.02c0,0.57,0.01,0.97,0.02,1.1h17.66c0.01-0.12,0.02-0.5,0.02-1.1V47.08z"/>
		</g>
		<g>
			<defs>
				<rect id="SVGID_00000121237780505307709760000005419008262688788882_" x="3.92" y="3.25" width="105.15" height="105.31"/>
			</defs>
			<clipPath id="SVGID_00000174582796805848694270000006275572470686798720_">
				<use xlink:href="#SVGID_00000121237780505307709760000005419008262688788882_"  style="overflow:visible;"/>
			</clipPath>
			<path style="clip-path:url(#SVGID_00000174582796805848694270000006275572470686798720_);fill:#1A1917;" d="M66.62,46.9H48.57
				v2.02l0,0.28h0.19c-0.01-0.13-0.02-0.53-0.02-1.1v-1.02h17.69v1.02c0,0.6-0.01,0.98-0.02,1.1h0.19v-0.28V46.9z"/>
			<path style="clip-path:url(#SVGID_00000174582796805848694270000006275572470686798720_);fill:#FFFFFF;" d="M47.02,66.08
				c0,0-5.79-0.92-8.59-1.06c-2.79-0.13-5.39,1.98-5.39,1.98s-1.73-0.46-3.33-0.07c-1.15,0.29-1.86,0.86-1.86,0.86
				s-3.33-0.4-5.59,0.26c-2.26,0.66-3.59,1.72-6.79,5.42c-3.19,3.7-4.86,5.09-9.65,8.47c-2.87,2.02-2.88,3.17-2.88,3.17v24.9h31.3
				c0,0,1.21-0.94,3.86-3.34c2.26-2.05,5.73-2.64,7.99-1.85c1.82,0.64,6.37,2.75,10.65,1.72c4.27-1.03,6.24-1.98,7.86-3.71
				c0.87-0.93,0.94-4.37,0.4-5.82c-0.55-1.48-2.6-2.51-3.73-3.04c-2.48-1.16-3.79-1.46-6.06-1.59c-2.26-0.13-5.26,0-5.26,0
				s-2.13-0.79-4.39-1.19c-2.26-0.4-4.79-0.93-6.39-1.72c-1.6-0.79-4.53-3.04-4.53-3.04s2.8-0.53,4-1.19
				c1.2-0.66,3.39-2.25,4.19-3.57c0.8-1.32,1.66-2.64,2.06-4.5c0.4-1.85,1.86-3.57,1.86-3.57L47.02,66.08z"/>
			<path style="clip-path:url(#SVGID_00000174582796805848694270000006275572470686798720_);fill:#1F1F1D;" d="M3.12,109.86h31.06
				c0.25-0.2,1.48-1.19,3.8-3.29c2.16-1.95,5.67-2.77,8.17-1.89c0.23,0.08,0.5,0.18,0.81,0.3c2.12,0.8,6.05,2.3,9.74,1.41
				c4.2-1.01,6.15-1.93,7.77-3.65c0.8-0.85,0.9-4.19,0.36-5.64c-0.5-1.35-2.32-2.33-3.64-2.95c-2.57-1.2-3.87-1.45-5.99-1.57
				c-2.23-0.13-5.21,0-5.24,0l-0.04,0l-0.04-0.01c-0.02-0.01-2.14-0.79-4.36-1.18c-2.12-0.37-4.77-0.9-6.44-1.74
				c-1.6-0.79-4.44-2.97-4.56-3.06l-0.31-0.24l0.38-0.07c0.03-0.01,2.78-0.53,3.94-1.17c1.22-0.67,3.37-2.25,4.13-3.51l0.19-0.31
				c0.73-1.21,1.49-2.46,1.85-4.13c0.37-1.72,1.62-3.3,1.86-3.6l0.26-7.33c-0.94-0.14-5.91-0.91-8.41-1.03
				c-2.71-0.13-5.24,1.92-5.27,1.95l-0.07,0.06L33,67.17c-0.02,0-1.71-0.45-3.24-0.07c-1.1,0.27-1.79,0.82-1.8,0.83l-0.06,0.05
				l-0.07-0.01c-0.03,0-3.32-0.38-5.52,0.26c-2.23,0.65-3.54,1.7-6.7,5.37c-3.23,3.74-4.96,5.17-9.68,8.49
				c-2.72,1.92-2.8,3.03-2.8,3.04V109.86z M34.31,110.21H2.77V85.13c0-0.05,0.04-1.27,2.95-3.32c4.76-3.35,6.39-4.7,9.62-8.44
				c3.22-3.73,4.56-4.8,6.87-5.48c2.11-0.62,5.08-0.33,5.59-0.28c0.2-0.14,0.87-0.6,1.87-0.85c1.44-0.36,2.95-0.04,3.33,0.05
				c0.44-0.35,2.83-2.11,5.44-1.97c2.77,0.13,8.55,1.05,8.61,1.06l0.15,0.03l-0.27,7.75l-0.04,0.05c-0.01,0.02-1.44,1.71-1.83,3.5
				c-0.38,1.74-1.15,3.01-1.9,4.24l-0.19,0.31c-0.8,1.33-2.97,2.93-4.26,3.64c-0.96,0.53-2.85,0.96-3.66,1.13
				c0.79,0.59,2.93,2.17,4.19,2.79c1.63,0.81,4.25,1.33,6.34,1.7c2.1,0.37,4.11,1.08,4.39,1.19c0.35-0.01,3.13-0.12,5.24,0
				c2.42,0.14,3.73,0.49,6.12,1.6c1.38,0.64,3.27,1.67,3.82,3.14c0.53,1.42,0.51,4.99-0.44,6c-1.67,1.78-3.67,2.73-7.94,3.75
				c-3.8,0.91-7.8-0.61-9.95-1.43c-0.31-0.11-0.58-0.22-0.8-0.3c-2.03-0.71-5.46-0.32-7.81,1.81c-2.62,2.38-3.86,3.34-3.87,3.35
				L34.31,110.21z"/>
		</g>
		<g>
			<path class="st2" d="M64.2,103.43c-0.46,0-5.2-0.01-6.46-0.54c-1.39-0.58-1.71-3.17-1.3-5.32c0.36-1.88,2.49-1.83,2.51-1.83
				l5.42,0.1l0,0.35l-5.43-0.1c-0.09-0.01-1.85-0.04-2.15,1.54c-0.38,1.99-0.07,4.45,1.09,4.93c1.23,0.52,6.3,0.52,6.35,0.51v0.35
				H64.2z"/>
			<path class="st2" d="M52.62,95.06l-0.16-0.1c0-0.01-0.26-0.54-0.83-1.11c-0.58-0.57-1.95-1.39-1.96-1.4l-0.06-0.24l0.24-0.06
				c0.06,0.03,1.42,0.84,2.03,1.45c0.61,0.61,0.89,1.18,0.9,1.21l-0.09,0.23L52.62,95.06z"/>
			<path class="st2" d="M48.59,105.91l-0.18-0.17l0.17-0.18c0.02,0,2.48-0.1,3.75-2.29c0.52-0.9,0.51-3.39,0.51-3.42l0.18-0.18
				l0.18,0.17c0,0.11,0.01,2.61-0.55,3.59C51.27,105.81,48.7,105.91,48.59,105.91L48.59,105.91z"/>
			<path class="st2" d="M45.46,93.8l-0.14-0.08c-0.01-0.01-0.83-1.18-1.4-1.69c-0.58-0.51-2.28-1.46-2.3-1.47l-0.07-0.24l0.24-0.07
				c0.07,0.04,1.75,0.97,2.36,1.51c0.61,0.54,1.43,1.7,1.46,1.75l-0.05,0.24L45.46,93.8z"/>
			<path class="st2" d="M34.81,86.79l-0.1-0.03c0,0-0.62-0.44-2.38-1.45c-1.77-1.01-3.06-1.54-3.08-1.54l-0.1-0.23l0.23-0.1
				c0.01,0.01,1.33,0.55,3.12,1.57c1.78,1.02,2.39,1.45,2.41,1.46l0.04,0.24L34.81,86.79z"/>
			<path class="st2" d="M34.88,86.56l-0.02,0l-0.15-0.2c0-0.03,0.39-2.94-0.13-6.7c-0.21-1.48-1.34-4.29-1.36-4.33l0.1-0.23
				l0.23,0.1c0.05,0.12,1.16,2.89,1.37,4.41c0.53,3.82,0.14,6.76,0.13,6.79L34.88,86.56z"/>
			<path class="st2" d="M35.21,86.46l-0.12-0.05l-0.01-0.25c0.03-0.04,3.27-3.67,3.88-6.99c0.33-1.78-0.39-6.48-0.4-6.52l0.15-0.2
				l0.2,0.14c0.03,0.2,0.74,4.81,0.4,6.64c-0.63,3.41-3.83,7.01-3.97,7.16L35.21,86.46z"/>
			<path class="st2" d="M39.96,78.78c-0.42,0-0.71-0.03-0.74-0.03l-0.16-0.19l0.19-0.16c0.02,0,2.51,0.21,3.74-0.66
				c0.96-0.69,2.2-2.74,2.21-2.76l0.24-0.06l0.06,0.24c-0.05,0.09-1.29,2.13-2.31,2.86C42.3,78.67,40.84,78.78,39.96,78.78"/>
			<polygon class="st3" points="42.61,85.46 50.42,85.34 50.42,63.07 42.61,63.18 			"/>
			<path class="st2" d="M42.22,87.49l-0.04,0c-0.03-0.01-0.68-0.16-1.54-0.61c-0.87-0.45-1.81-1.48-1.85-1.53l0.01-0.25l0.25,0.01
				c0.01,0.01,0.94,1.02,1.75,1.45c0.81,0.43,1.45,0.58,1.46,0.58l0.13,0.21L42.22,87.49z"/>
			<rect x="42.3" y="62.72" class="st2" width="0.37" height="22.97"/>
			<rect x="48.41" y="36.84" class="st8" width="18.37" height="9.59"/>
			<path class="st0" d="M48.58,46.26H66.6v-9.24H48.58V46.26z M66.95,46.61H48.23v-9.94h18.72V46.61z"/>
			<path class="st8" d="M66.79,42.19H48.4c-0.32,0-0.59-0.26-0.59-0.59c0-0.32,0.27-0.59,0.59-0.59h18.39
				c0.33,0,0.59,0.26,0.59,0.59C67.38,41.92,67.12,42.19,66.79,42.19"/>
			<path class="st0" d="M48.34,41.19c-0.2,0-0.36,0.16-0.36,0.35v0.12c0,0.19,0.16,0.36,0.36,0.36h18.51c0.2,0,0.36-0.16,0.36-0.36
				v-0.12c0-0.19-0.16-0.35-0.36-0.35H48.34z M66.85,42.36H48.34c-0.39,0-0.71-0.31-0.71-0.7v-0.12c0-0.39,0.32-0.7,0.71-0.7h18.51
				c0.39,0,0.71,0.31,0.71,0.7v0.12C67.56,42.05,67.24,42.36,66.85,42.36"/>
			<path class="st8" d="M66.75,45.11l-18.37-0.87c-0.32-0.02-0.58-0.29-0.56-0.62c0.02-0.32,0.3-0.58,0.62-0.56l18.37,0.87
				c0.32,0.01,0.58,0.29,0.56,0.61C67.35,44.88,67.08,45.13,66.75,45.11"/>
			<path class="st0" d="M66.76,44.94c0.22,0.01,0.42-0.16,0.43-0.39c0.01-0.23-0.17-0.42-0.4-0.43l-18.37-0.87
				c-0.23,0-0.42,0.17-0.43,0.39c-0.01,0.23,0.17,0.42,0.4,0.43L66.76,44.94z M66.78,45.29h-0.04l-18.37-0.87
				c-0.2-0.01-0.39-0.1-0.53-0.25c-0.14-0.15-0.21-0.35-0.2-0.55c0.02-0.42,0.39-0.75,0.8-0.72l18.37,0.87
				c0.42,0.02,0.75,0.38,0.73,0.8c-0.01,0.2-0.1,0.39-0.25,0.53C67.15,45.22,66.97,45.29,66.78,45.29"/>
			<path class="st8" d="M66.75,40.45l-18.37-0.87c-0.32-0.02-0.58-0.29-0.56-0.62c0.02-0.32,0.3-0.57,0.62-0.56l18.37,0.87
				c0.32,0.02,0.58,0.29,0.56,0.61C67.35,40.21,67.08,40.47,66.75,40.45"/>
			<path class="st0" d="M66.76,40.27l0.3-0.11l0.14-0.29c0.01-0.23-0.17-0.42-0.4-0.43l-18.37-0.87c-0.23-0.01-0.42,0.17-0.43,0.39
				l0.11,0.3l0.29,0.14L66.76,40.27z M66.78,40.63l-0.04,0l-18.37-0.87c-0.2-0.01-0.39-0.1-0.53-0.25c-0.14-0.15-0.21-0.35-0.2-0.55
				c0.02-0.42,0.39-0.74,0.8-0.73l18.37,0.87c0.2,0.01,0.39,0.1,0.53,0.25c0.14,0.15,0.21,0.35,0.2,0.55
				c-0.01,0.2-0.1,0.39-0.25,0.53C67.15,40.56,66.97,40.63,66.78,40.63"/>
			<path class="st8" d="M66.54,47.05h-17.9c-0.46,0-0.84-0.38-0.84-0.84c0-0.46,0.38-0.84,0.84-0.84h17.9
				c0.46,0,0.84,0.38,0.84,0.84C67.38,46.67,67,47.05,66.54,47.05"/>
			<path class="st0" d="M48.34,45.55c-0.2,0-0.36,0.16-0.36,0.35v0.61c0,0.2,0.16,0.35,0.36,0.35h18.51c0.2,0,0.36-0.16,0.36-0.35
				v-0.61c0-0.2-0.16-0.35-0.36-0.35H48.34z M66.85,47.22H48.34c-0.39,0-0.71-0.32-0.71-0.71v-0.61c0-0.39,0.32-0.7,0.71-0.7h18.51
				c0.39,0,0.71,0.32,0.71,0.7v0.61C67.56,46.91,67.24,47.22,66.85,47.22"/>
			<path class="st8" d="M64.75,37.11H50.44V33.8c0,0,0.22-0.46,7-0.46c6.79,0,7.31,0.46,7.31,0.46V37.11z"/>
			<path class="st0" d="M50.61,36.94h13.96v-3.02c-0.27-0.09-1.6-0.4-7.13-0.4c-5.39,0-6.58,0.29-6.83,0.39V36.94z M64.92,37.28
				H50.26l0.02-3.56c0.23-0.49,4.59-0.56,7.16-0.56c6.53,0,7.33,0.42,7.43,0.51l0.06,0.05V37.28z"/>
			<path class="st8" d="M65.75,34.23c0,0-1.42-0.35-8.25-0.35c-6.83,0-8.06,0.35-8.06,0.35v-1.74c0,0,0.25-0.31,7.98-0.31
				c7.74,0,8.33,0.31,8.33,0.31V34.23z"/>
			<path class="st0" d="M57.5,33.71c5.47,0,7.47,0.22,8.07,0.32v-1.4c-0.36-0.07-1.94-0.27-8.15-0.27c-6.04,0-7.48,0.19-7.81,0.26
				v1.4C50.2,33.92,52.11,33.71,57.5,33.71 M65.75,34.41l-0.04-0.01c-0.02,0-1.52-0.34-8.21-0.34c-6.67,0-8,0.34-8.01,0.34
				l-0.15-0.03l-0.07-0.14v-1.74l0.04-0.11c0.25-0.31,4.55-0.38,8.12-0.38c7.56,0,8.34,0.3,8.41,0.33l0.09,0.16v1.74l-0.07,0.14
				L65.75,34.41z"/>
			<path class="st8" d="M66.79,37.52H48.4c-0.32,0-0.59-0.26-0.59-0.59c0-0.32,0.27-0.59,0.59-0.59h18.39
				c0.33,0,0.59,0.26,0.59,0.59C67.38,37.26,67.12,37.52,66.79,37.52"/>
		</g>
		<g>
			<defs>
				<rect id="SVGID_00000133521373708159661170000005649284125720584859_" x="3.92" y="3.25" width="105.15" height="105.31"/>
			</defs>
			<clipPath id="SVGID_00000111168467207217339680000009274272018639437198_">
				<use xlink:href="#SVGID_00000133521373708159661170000005649284125720584859_"  style="overflow:visible;"/>
			</clipPath>
			<path style="clip-path:url(#SVGID_00000111168467207217339680000009274272018639437198_);fill:#13110C;" d="M48.34,36.52
				c-0.2,0-0.36,0.16-0.36,0.35v0.12c0,0.2,0.16,0.35,0.36,0.35h18.51c0.2,0,0.36-0.16,0.36-0.35v-0.12c0-0.2-0.16-0.35-0.36-0.35
				H48.34z M66.85,37.7H48.34c-0.39,0-0.71-0.32-0.71-0.71v-0.12c0-0.39,0.32-0.7,0.71-0.7h18.51c0.39,0,0.71,0.31,0.71,0.7v0.12
				C67.56,37.38,67.24,37.7,66.85,37.7"/>
			<path style="clip-path:url(#SVGID_00000111168467207217339680000009274272018639437198_);fill:#FFFFFF;" d="M93.95,2.35
				c0,0-3.4,0.3-6.59,2.78C84.17,7.61,82.27,9,80.17,9.99c-2.1,0.99-4.99,2.88-5.59,3.77c-0.6,0.89-2.5,1.89-3.5,2.68
				c-1,0.79-3.09,1.79-4.89,2.58c-1.8,0.79-2.9,1.49-4.09,1.79c-1.2,0.3-2.59,0.89-3.79,1.88c-1.2,0.99-2.9,1.29-4.69,2.08
				c-1.8,0.79-3.6,1.69-3.79,2.78c-0.2,1.09,0.3,3.57,2,4.07c1.7,0.49,13.18,0.3,13.18,0.3s1.5-0.3,4.69-1.19
				c3.19-0.89,9.68-4.17,9.68-4.17s5.79,0.2,8.79-0.69c3-0.89,8.89-5.46,8.89-5.46s2.9,1.98,4.89,3.17c2,1.19,6.85,4.38,6.85,4.38
				l0.1-26.49L93.95,2.35z"/>
			<path style="clip-path:url(#SVGID_00000111168467207217339680000009274272018639437198_);fill:#13110C;" d="M93.97,2.53
				c-0.1,0.01-3.41,0.35-6.49,2.74c-3.34,2.59-5.18,3.92-7.22,4.88c-2.24,1.06-4.98,2.9-5.52,3.71c-0.41,0.62-1.37,1.25-2.29,1.85
				c-0.47,0.31-0.91,0.6-1.24,0.87c-0.81,0.64-2.42,1.49-4.93,2.6c-0.63,0.28-1.18,0.55-1.67,0.79c-0.93,0.45-1.66,0.81-2.45,1.01
				c-1.37,0.34-2.7,1-3.72,1.85c-0.81,0.67-1.84,1.03-2.93,1.42c-0.58,0.2-1.19,0.42-1.8,0.69c-1.69,0.75-3.51,1.63-3.69,2.65
				c-0.17,0.94,0.26,3.4,1.87,3.87c1.65,0.48,13.01,0.29,13.13,0.29c-0.02,0,1.5-0.3,4.65-1.19c3.14-0.88,9.59-4.12,9.65-4.15
				l0.04-0.02l0.05,0c0.06,0,5.8,0.19,8.73-0.69c2.93-0.87,8.77-5.38,8.83-5.43l0.1-0.08l0.11,0.07c0.03,0.02,2.91,1.99,4.88,3.17
				c1.71,1.02,5.54,3.51,6.59,4.2l0.1-25.98L93.97,2.53z M60.01,32.13c-3.34,0-7.28-0.06-8.24-0.35c-1.78-0.52-2.34-3.09-2.12-4.27
				c0.22-1.19,2.04-2.09,3.9-2.91c0.63-0.28,1.24-0.49,1.82-0.7c1.11-0.39,2.07-0.73,2.83-1.36c1.07-0.89,2.44-1.57,3.86-1.92
				c0.76-0.19,1.48-0.54,2.38-0.98c0.49-0.24,1.05-0.51,1.68-0.79c2.48-1.09,4.07-1.93,4.86-2.56c0.35-0.28,0.79-0.57,1.27-0.88
				c0.85-0.56,1.82-1.2,2.19-1.76c0.64-0.95,3.57-2.84,5.66-3.83c2.02-0.95,3.84-2.26,7.16-4.84c3.2-2.48,6.65-2.81,6.68-2.81
				l0.01,0l15.13-0.89l-0.1,27l-0.27-0.18c-0.05-0.03-4.88-3.2-6.85-4.37c-1.76-1.05-4.25-2.74-4.8-3.11
				c-0.82,0.63-6.03,4.57-8.84,5.41c-2.88,0.86-8.21,0.72-8.8,0.7c-0.56,0.28-6.63,3.31-9.68,4.16c-3.17,0.89-4.69,1.19-4.71,1.19
				C64.81,32.09,62.59,32.13,60.01,32.13"/>
		</g>
		<path class="st8" d="M108.89,27.96c0,0-5.96,0.09-9.25,0.39c-3.3,0.3-4.6,1.39-4.6,1.39s-0.4-1.59-4.59-1.29
			c-4.19,0.3-13.28,1.59-15.38,3.08c-2.1,1.49-3.39,2.98-3.39,2.98s-2.07-0.2-2.2,1.98c-0.09,1.5,0.43,3.66,1.07,5
			c0.67,1.39,1.5,2.41,7.42,2.25c3.3-0.09,5.59,0.3,5.59,0.3s4.29,0.79,6.79,1.19c2.5,0.4,4.59-0.1,4.59-0.1s4.39,0.4,5.89,1.39
			c1.5,0.99,7.85,5.27,7.85,5.27L108.89,27.96z"/>
		<path class="st0" d="M94.94,44.94l0.03,0c0.18,0.02,4.46,0.41,5.97,1.42c1.3,0.86,6.35,4.26,7.58,5.09l0.2-23.31
			c-1.02,0.02-6.13,0.12-9.06,0.38c-3.19,0.29-4.48,1.34-4.49,1.35l-0.22,0.18l-0.07-0.27c0-0.01-0.46-1.44-4.41-1.16
			c-4.27,0.3-13.27,1.62-15.29,3.04c-2.05,1.46-3.35,2.94-3.36,2.95l-0.06,0.07l-0.09-0.01c-0.01,0-0.82-0.07-1.4,0.43
			c-0.36,0.31-0.57,0.78-0.61,1.39c-0.1,1.57,0.47,3.7,1.05,4.91c0.67,1.4,1.54,2.31,7.26,2.15c3.27-0.09,5.6,0.29,5.63,0.3
			c0.04,0.01,4.32,0.8,6.79,1.19c2.43,0.39,4.5-0.09,4.53-0.1L94.94,44.94z M108.87,52.1l-0.27-0.18c-0.06-0.04-6.37-4.29-7.85-5.27
			c-1.38-0.92-5.41-1.32-5.78-1.36c-0.27,0.06-2.26,0.47-4.63,0.09c-2.47-0.39-6.75-1.18-6.79-1.19c-0.02,0-2.31-0.38-5.55-0.3
			c-5.91,0.17-6.88-0.87-7.58-2.35c-0.6-1.25-1.18-3.45-1.08-5.08c0.04-0.72,0.29-1.27,0.73-1.64c0.58-0.49,1.31-0.52,1.57-0.51
			c0.28-0.3,1.52-1.63,3.37-2.94c2.09-1.49,11.04-2.79,15.46-3.11c3.39-0.24,4.39,0.74,4.68,1.2c0.46-0.31,1.84-1.06,4.51-1.3
			c3.26-0.29,9.2-0.39,9.26-0.39l0.18,0L108.87,52.1z"/>
		<path class="st0" d="M94.95,45.29l-0.1-0.03c-0.02-0.01-2.11-1.4-3.01-2.09c-0.97-0.75-0.68-2.57-0.67-2.65l0.2-0.14l0.15,0.2
			c0,0.02-0.27,1.69,0.53,2.32c0.88,0.68,2.96,2.06,2.99,2.07l0.05,0.24L94.95,45.29z"/>
		<path class="st0" d="M76.88,43.9l-0.17-0.16l0.16-0.19c0.04,0,4.38-0.4,5.74-0.98c0.45-0.19,0.81-0.62,1.06-1.26
			c0.43-1.09,0.41-2.52-0.06-3.57c-0.84-1.87-2.15-2.78-4.14-2.87c-2.17-0.1-7.73-0.2-7.78-0.2l-0.17-0.18l0.18-0.17
			c0.05,0,5.62,0.1,7.79,0.2c2.11,0.09,3.56,1.1,4.45,3.08c0.5,1.12,0.53,2.66,0.06,3.84c-0.29,0.72-0.72,1.23-1.25,1.46
			c-1.41,0.6-5.66,0.99-5.84,1L76.88,43.9z"/>
		<path class="st0" d="M79.37,26.74l-0.1-0.03c-0.06-0.04-1.46-0.99-2.58-2.34c-1.14-1.36-1.5-3.32-1.51-3.41l0.14-0.2l0.21,0.14
			c0,0.02,0.36,1.96,1.44,3.24c1.09,1.3,2.49,2.27,2.51,2.27l0.05,0.24L79.37,26.74z"/>
		<path class="st0" d="M67.46,31.4l-0.02,0c-0.06,0-1.4-0.13-2.94-1.01c-1.53-0.89-2.86-2.62-2.91-2.69l0.04-0.24l0.25,0.04
			c0.01,0.02,1.34,1.75,2.81,2.6c1.46,0.85,2.78,0.97,2.79,0.97l0.16,0.19L67.46,31.4z"/>
		<path class="st0" d="M97.05,20.58L97.05,20.58c-0.06,0-0.62-0.04-1.6-0.99c-1.95-1.91-2.17-4.25-2.17-4.35l0.16-0.19l0.19,0.16
			c0,0.02,0.22,2.32,2.07,4.13c0.42,0.42,0.76,0.64,0.99,0.76c-0.36-0.69-1.06-2.16-1.23-3.26c-0.4-2.51,0.06-4.2,0.08-4.27
			l0.22-0.12l0.12,0.22c-0.01,0.02-0.46,1.68-0.07,4.12c0.22,1.41,1.39,3.52,1.4,3.54l0,0.17L97.05,20.58z"/>
		<path class="st2" d="M3.04,108.29h106.41V3.2H3.04V108.29z M109.34,108.83H2.49V2.66h106.85V108.83z"/>
		<rect x="42.72" y="64.85" class="st8" width="29.75" height="21.93"/>
		<polygon class="st0" points="51.97,66.71 52.29,66.71 52.29,67.91 52.3,67.91 52.5,67.65 53.27,66.71 53.67,66.71 52.76,67.77 
			53.74,69.21 53.36,69.21 52.53,67.98 52.29,68.25 52.29,69.21 51.97,69.21 		"/>
		<path class="st0" d="M54.93,68.29c-0.36-0.01-0.77,0.06-0.77,0.4c0,0.21,0.14,0.31,0.31,0.31c0.24,0,0.38-0.15,0.44-0.3l0.02-0.1
			V68.29z M54.98,69.21l-0.03-0.23h-0.01c-0.1,0.14-0.29,0.27-0.55,0.27c-0.37,0-0.55-0.26-0.55-0.51c0-0.44,0.39-0.67,1.09-0.67
			v-0.04c0-0.15-0.04-0.42-0.41-0.42c-0.17,0-0.34,0.05-0.47,0.13l-0.08-0.22c0.15-0.1,0.37-0.16,0.59-0.16
			c0.55,0,0.69,0.37,0.69,0.73v0.67c0,0.16,0.01,0.31,0.03,0.43H54.98z"/>
		<path class="st0" d="M55.78,67.9c0-0.19,0-0.34-0.02-0.49h0.29l0.02,0.3h0.01c0.09-0.17,0.3-0.34,0.6-0.34
			c0.25,0,0.64,0.15,0.64,0.77v1.07h-0.33v-1.04c0-0.29-0.11-0.53-0.42-0.53c-0.22,0-0.39,0.15-0.44,0.33l-0.02,0.15v1.08h-0.33
			V67.9z"/>
		<path class="st0" d="M58.18,68.49l0.01,0.12c0.06,0.23,0.25,0.38,0.49,0.38c0.34,0,0.55-0.28,0.55-0.69
			c0-0.36-0.19-0.67-0.54-0.67c-0.23,0-0.43,0.15-0.5,0.4l-0.02,0.13V68.49z M57.84,69.21c0.01-0.12,0.01-0.3,0.01-0.46v-2.17h0.33
			v1.13h0.01c0.12-0.2,0.33-0.33,0.62-0.33c0.45,0,0.77,0.37,0.76,0.92c0,0.64-0.41,0.96-0.81,0.96c-0.26,0-0.47-0.1-0.61-0.34
			h-0.01l-0.01,0.3H57.84z"/>
		<path class="st0" d="M59.99,69.21h0.33v-1.8h-0.33V69.21z M59.94,66.91l0.2,0.2l0.21-0.2l-0.2-0.2L59.94,66.91z"/>
		<path class="st0" d="M60.82,68.88c0.1,0.06,0.27,0.13,0.43,0.13c0.24,0,0.35-0.12,0.35-0.27c0-0.16-0.09-0.24-0.34-0.33
			c-0.33-0.11-0.48-0.29-0.48-0.51c0-0.29,0.23-0.53,0.62-0.53c0.18,0,0.34,0.05,0.45,0.11l-0.08,0.24c-0.07-0.04-0.2-0.1-0.37-0.1
			c-0.19,0-0.3,0.11-0.3,0.25c0,0.15,0.11,0.22,0.34,0.3c0.31,0.12,0.48,0.27,0.48,0.54c0,0.32-0.25,0.54-0.68,0.54
			c-0.2,0-0.38-0.05-0.51-0.12L60.82,68.88z"/>
		<path class="st0" d="M62.76,67.25h0.07l0.14-0.09l-0.13-0.09l-0.08,0.01V67.25z M62.76,67.59h-0.14v-0.61l0.24-0.02l0.21,0.04
			l0.06,0.13L63,67.29v0.01l0.11,0.15l0.04,0.15H63l-0.05-0.15l-0.13-0.1h-0.07V67.59z M62.38,67.27c0,0.27,0.2,0.49,0.48,0.49
			c0.27,0,0.47-0.22,0.47-0.48c0-0.27-0.2-0.49-0.47-0.49C62.58,66.79,62.38,67.01,62.38,67.27 M63.48,67.27
			c0,0.35-0.27,0.62-0.63,0.62c-0.35,0-0.63-0.27-0.63-0.62c0-0.34,0.28-0.61,0.63-0.61C63.21,66.67,63.48,66.94,63.48,67.27"/>
		<path class="st0" d="M50.89,72.54c-0.1,0.05-0.31,0.11-0.58,0.11c-0.62,0-1.08-0.41-1.08-1.16c0-0.72,0.46-1.21,1.15-1.21
			c0.27,0,0.45,0.06,0.52,0.1l-0.07,0.24c-0.11-0.05-0.26-0.09-0.44-0.09c-0.51,0-0.86,0.34-0.86,0.95c0,0.56,0.31,0.92,0.84,0.92
			c0.17,0,0.35-0.04,0.46-0.1L50.89,72.54z"/>
		<path class="st0" d="M52.07,71.77c-0.31-0.01-0.67,0.05-0.67,0.37c0,0.19,0.12,0.29,0.27,0.29c0.21,0,0.34-0.14,0.38-0.28
			l0.02-0.09V71.77z M52.11,72.61l-0.02-0.21h-0.01c-0.09,0.13-0.26,0.25-0.48,0.25c-0.32,0-0.48-0.24-0.48-0.47
			c0-0.4,0.34-0.62,0.95-0.61v-0.03c0-0.14-0.04-0.38-0.36-0.38c-0.15,0-0.3,0.04-0.41,0.12l-0.07-0.2
			c0.13-0.09,0.32-0.15,0.52-0.15c0.48,0,0.6,0.34,0.6,0.68v0.62c0,0.14,0.01,0.28,0.03,0.39H52.11z"/>
		<path class="st0" d="M52.8,71.41c0-0.17,0-0.31-0.01-0.45h0.25l0.02,0.27h0.01c0.08-0.15,0.26-0.31,0.52-0.31
			c0.22,0,0.56,0.14,0.56,0.7v0.98h-0.29v-0.95c0-0.27-0.09-0.49-0.36-0.49c-0.19,0-0.33,0.14-0.38,0.3l-0.02,0.14v0.99H52.8V71.41z
			"/>
		<path class="st0" d="M54.61,71.41c0-0.17,0-0.31-0.01-0.45h0.25l0.02,0.27h0.01c0.08-0.15,0.26-0.31,0.52-0.31
			c0.22,0,0.56,0.14,0.56,0.7v0.98h-0.29v-0.95c0-0.27-0.09-0.49-0.36-0.49c-0.19,0-0.34,0.14-0.38,0.3l-0.02,0.14v0.99h-0.29V71.41
			z"/>
		<path class="st0" d="M57.25,71.77c-0.31-0.01-0.67,0.05-0.67,0.37c0,0.19,0.12,0.29,0.27,0.29c0.21,0,0.34-0.14,0.38-0.28
			l0.02-0.09V71.77z M57.29,72.61l-0.02-0.21h-0.01c-0.09,0.13-0.26,0.25-0.48,0.25c-0.32,0-0.48-0.24-0.48-0.47
			c0-0.4,0.34-0.62,0.95-0.61v-0.03c0-0.14-0.03-0.38-0.36-0.38c-0.15,0-0.3,0.04-0.41,0.12l-0.07-0.2
			c0.13-0.09,0.32-0.15,0.52-0.15c0.48,0,0.6,0.34,0.6,0.68v0.62c0,0.14,0.01,0.28,0.03,0.39H57.29z"/>
		<path class="st0" d="M58.27,71.96l0.01,0.11c0.06,0.21,0.22,0.35,0.43,0.35c0.3,0,0.48-0.26,0.48-0.63c0-0.33-0.16-0.61-0.47-0.61
			c-0.2,0-0.38,0.14-0.44,0.37l-0.02,0.12V71.96z M57.98,72.61c0.01-0.11,0.01-0.28,0.01-0.42V70.2h0.28v1.04h0.01
			c0.1-0.18,0.28-0.3,0.54-0.3c0.39,0,0.67,0.34,0.66,0.84c0,0.59-0.36,0.88-0.71,0.88c-0.23,0-0.41-0.09-0.53-0.31h-0.01
			l-0.01,0.27H57.98z"/>
		<path class="st0" d="M59.84,72.61h0.29v-1.65h-0.29V72.61z M59.81,70.5l0.17,0.18l0.18-0.18l-0.18-0.19L59.81,70.5z"/>
		<path class="st0" d="M61.68,71.64l-0.01-0.13c-0.04-0.19-0.2-0.35-0.41-0.35c-0.3,0-0.47,0.27-0.47,0.64
			c0,0.33,0.16,0.61,0.47,0.61c0.19,0,0.37-0.13,0.42-0.36l0.01-0.13V71.64z M61.96,70.2v1.99c0,0.15,0,0.31,0.01,0.43h-0.26
			l-0.01-0.29H61.7c-0.09,0.18-0.28,0.32-0.54,0.32c-0.38,0-0.67-0.34-0.67-0.84c0-0.55,0.32-0.88,0.71-0.88
			c0.24,0,0.4,0.12,0.48,0.25h0V70.2H61.96z"/>
		<path class="st0" d="M62.44,72.61h0.29v-1.65h-0.29V72.61z M62.41,70.5l0.17,0.18l0.18-0.18l-0.18-0.19L62.41,70.5z"/>
		<path class="st0" d="M63.38,71.79c0,0.36,0.2,0.63,0.48,0.63c0.27,0,0.48-0.27,0.48-0.64c0-0.28-0.13-0.63-0.47-0.63
			C63.52,71.16,63.38,71.48,63.38,71.79 M64.63,71.78c0,0.61-0.4,0.88-0.79,0.88c-0.43,0-0.76-0.33-0.76-0.85
			c0-0.55,0.35-0.88,0.78-0.88C64.32,70.93,64.63,71.27,64.63,71.78"/>
		<rect x="64.99" y="70.2" class="st0" width="0.29" height="2.42"/>
		<polygon class="st0" points="51.04,73.81 50.58,74.07 50.63,74.29 51,74.09 51.01,74.09 51.01,76.02 51.29,76.02 51.29,73.81 		
			"/>
		<path class="st0" d="M52.31,74.92c0,0.58,0.17,0.9,0.43,0.9c0.29,0,0.43-0.36,0.43-0.92c0-0.55-0.13-0.9-0.43-0.9
			C52.5,74,52.31,74.32,52.31,74.92 M53.46,74.89c0,0.75-0.27,1.17-0.74,1.17c-0.41,0-0.69-0.4-0.7-1.14c0-0.74,0.31-1.15,0.74-1.15
			C53.21,73.77,53.46,74.19,53.46,74.89"/>
		<path class="st0" d="M53.98,74.92c0,0.58,0.17,0.9,0.43,0.9c0.29,0,0.43-0.36,0.43-0.92c0-0.55-0.13-0.9-0.43-0.9
			C54.17,74,53.98,74.32,53.98,74.92 M55.13,74.89c0,0.75-0.27,1.17-0.74,1.17c-0.42,0-0.69-0.4-0.7-1.14
			c0-0.74,0.31-1.15,0.74-1.15C54.88,73.77,55.13,74.19,55.13,74.89"/>
		<path class="st0" d="M56.18,74.82c0-0.17,0-0.31-0.01-0.45h0.25l0.01,0.27h0.01c0.09-0.16,0.23-0.31,0.49-0.31
			c0.21,0,0.38,0.14,0.45,0.33h0.01l0.18-0.21c0.09-0.07,0.2-0.12,0.35-0.12c0.21,0,0.52,0.14,0.52,0.72v0.97h-0.28v-0.93
			c0-0.32-0.11-0.51-0.34-0.51c-0.16,0-0.29,0.13-0.34,0.27L57.45,75v1.02h-0.28v-0.99c0-0.26-0.11-0.45-0.33-0.45
			c-0.18,0-0.31,0.15-0.35,0.3l-0.02,0.14v0.99h-0.28V74.82z"/>
		<path class="st0" d="M59.96,75.02l-0.02-0.13c-0.05-0.18-0.19-0.32-0.4-0.32c-0.27,0-0.47,0.24-0.47,0.62
			c0,0.32,0.15,0.59,0.46,0.59c0.18,0,0.34-0.12,0.4-0.31l0.02-0.16V75.02z M60.25,74.37c-0.01,0.12-0.01,0.25-0.01,0.45v0.96
			c0,0.38-0.07,0.61-0.22,0.75c-0.15,0.15-0.38,0.2-0.57,0.2c-0.19,0-0.4-0.05-0.53-0.13l0.07-0.23c0.1,0.07,0.27,0.13,0.46,0.13
			c0.29,0,0.51-0.16,0.51-0.58v-0.18h-0.01c-0.09,0.15-0.26,0.28-0.5,0.28c-0.39,0-0.67-0.35-0.67-0.81c0-0.56,0.35-0.88,0.71-0.88
			c0.27,0,0.42,0.15,0.49,0.29h0.01L60,74.37H60.25z"/>
		<polygon class="st0" points="61.38,73.69 60.47,76.16 60.69,76.16 61.6,73.69 		"/>
		<path class="st0" d="M61.83,74.82c0-0.17,0-0.31-0.02-0.45h0.25l0.01,0.27h0.01c0.09-0.16,0.23-0.31,0.49-0.31
			c0.22,0,0.38,0.14,0.45,0.33h0.01l0.18-0.21c0.09-0.07,0.2-0.12,0.35-0.12c0.21,0,0.52,0.14,0.52,0.72v0.97H63.8v-0.93
			c0-0.32-0.11-0.51-0.34-0.51c-0.17,0-0.29,0.13-0.34,0.27L63.1,75v1.02h-0.28v-0.99c0-0.26-0.11-0.45-0.33-0.45
			c-0.18,0-0.31,0.15-0.36,0.3l-0.02,0.14v0.99h-0.28V74.82z"/>
		<rect x="64.55" y="73.6" class="st0" width="0.29" height="2.42"/>
		<path class="st0" d="M45.89,79.44c0.11,0.07,0.27,0.12,0.44,0.12c0.25,0,0.4-0.13,0.4-0.32c0-0.18-0.1-0.27-0.36-0.37
			c-0.31-0.11-0.5-0.27-0.5-0.53c0-0.29,0.25-0.51,0.61-0.51c0.19,0,0.33,0.05,0.42,0.09l-0.07,0.2c-0.06-0.03-0.19-0.09-0.36-0.09
			c-0.26,0-0.36,0.15-0.36,0.28c0,0.17,0.11,0.26,0.37,0.36c0.32,0.12,0.48,0.28,0.48,0.55c0,0.29-0.22,0.54-0.66,0.54
			c-0.18,0-0.38-0.05-0.48-0.12L45.89,79.44z"/>
		<path class="st0" d="M47.47,79.07c0,0.29,0.17,0.52,0.41,0.52c0.24,0,0.41-0.22,0.41-0.52c0-0.23-0.12-0.52-0.41-0.52
			C47.6,78.54,47.47,78.81,47.47,79.07 M48.55,79.05c0,0.5-0.35,0.71-0.68,0.71c-0.37,0-0.65-0.27-0.65-0.69
			c0-0.45,0.3-0.72,0.67-0.72C48.28,78.36,48.55,78.64,48.55,79.05"/>
		<rect x="48.86" y="77.76" class="st0" width="0.25" height="1.98"/>
		<path class="st0" d="M50.66,79.37l0.01,0.37h-0.22l-0.01-0.22h-0.01c-0.06,0.11-0.21,0.25-0.45,0.25c-0.21,0-0.47-0.12-0.47-0.59
			v-0.79h0.25v0.75c0,0.26,0.08,0.43,0.3,0.43c0.17,0,0.28-0.12,0.32-0.22l0.02-0.13v-0.83h0.25V79.37z"/>
		<path class="st0" d="M52.03,79.69c-0.06,0.03-0.21,0.08-0.39,0.08c-0.41,0-0.67-0.28-0.67-0.69c0-0.42,0.29-0.72,0.73-0.72
			c0.15,0,0.27,0.04,0.34,0.07l-0.06,0.19l-0.29-0.07c-0.31,0-0.48,0.23-0.48,0.51c0,0.31,0.2,0.5,0.47,0.5l0.3-0.07L52.03,79.69z"
			/>
		<path class="st0" d="M52.32,79.74h0.25v-1.35h-0.25V79.74z M52.29,78.01l0.15,0.15l0.16-0.15l-0.15-0.15L52.29,78.01z"/>
		<path class="st0" d="M53.91,77.8l-0.34,0.4h-0.18l0.25-0.4H53.91z M53.13,79.07c0,0.29,0.17,0.52,0.41,0.52
			c0.24,0,0.41-0.22,0.41-0.52c0-0.23-0.11-0.52-0.41-0.52C53.25,78.54,53.13,78.81,53.13,79.07 M54.21,79.05
			c0,0.5-0.35,0.71-0.68,0.71c-0.37,0-0.65-0.27-0.65-0.69c0-0.45,0.3-0.72,0.67-0.72C53.94,78.36,54.21,78.64,54.21,79.05"/>
		<path class="st0" d="M54.52,78.75l-0.01-0.36h0.22l0.01,0.22h0.01c0.07-0.13,0.22-0.25,0.45-0.25c0.19,0,0.48,0.11,0.48,0.58v0.81
			h-0.25v-0.78c0-0.22-0.08-0.4-0.31-0.4c-0.16,0-0.29,0.12-0.33,0.25l-0.02,0.11v0.81h-0.25V78.75z"/>
		<path class="st0" d="M56.82,79.07c0,0.29,0.17,0.52,0.41,0.52c0.23,0,0.41-0.22,0.41-0.52c0-0.23-0.11-0.52-0.41-0.52
			C56.94,78.54,56.82,78.81,56.82,79.07 M57.9,79.05c0,0.5-0.35,0.71-0.68,0.71c-0.37,0-0.65-0.27-0.65-0.69
			c0-0.45,0.3-0.72,0.67-0.72C57.63,78.36,57.9,78.64,57.9,79.05"/>
		<path class="st0" d="M58.21,78.81c0-0.16,0-0.3-0.01-0.42h0.22l0.01,0.26h0.01c0.06-0.18,0.21-0.29,0.38-0.29l0.07,0.01v0.23
			l-0.08-0.01c-0.17,0-0.3,0.13-0.33,0.32l-0.01,0.12v0.72h-0.24V78.81z"/>
		<path class="st0" d="M59.83,79.05c-0.27,0-0.58,0.04-0.58,0.3c0,0.16,0.11,0.24,0.23,0.24c0.18,0,0.29-0.11,0.33-0.23l0.02-0.08
			V79.05z M59.86,79.74l-0.02-0.17h-0.01c-0.08,0.11-0.22,0.2-0.42,0.2c-0.28,0-0.41-0.19-0.41-0.39c0-0.33,0.29-0.5,0.82-0.5v-0.03
			c0-0.11-0.03-0.31-0.31-0.31l-0.35,0.1l-0.05-0.16c0.11-0.07,0.27-0.12,0.44-0.12c0.41,0,0.52,0.28,0.52,0.55v0.5l0.02,0.32H59.86
			z"/>
		<rect x="60.46" y="77.76" class="st0" width="0.24" height="1.98"/>
		<path class="st0" d="M62.25,77.8c-0.21,0.27-0.35,0.63-0.35,1.14c0,0.5,0.15,0.85,0.35,1.13h-0.19c-0.18-0.23-0.37-0.59-0.37-1.13
			c0-0.55,0.19-0.91,0.37-1.14H62.25z"/>
		<path class="st0" d="M63.43,78.92l-0.01-0.11c-0.05-0.14-0.17-0.26-0.34-0.26c-0.24,0-0.41,0.2-0.41,0.51
			c0,0.26,0.14,0.48,0.4,0.48c0.15,0,0.29-0.09,0.34-0.25l0.02-0.13V78.92z M63.68,78.39c-0.01,0.1-0.01,0.21-0.01,0.37v0.78
			c0,0.31-0.06,0.5-0.19,0.62c-0.13,0.12-0.32,0.16-0.49,0.16c-0.16,0-0.34-0.04-0.45-0.11l0.06-0.18c0.09,0.05,0.23,0.1,0.4,0.1
			c0.25,0,0.44-0.13,0.44-0.47v-0.15h0c-0.08,0.12-0.22,0.22-0.43,0.22c-0.34,0-0.58-0.28-0.58-0.66c0-0.46,0.3-0.72,0.61-0.72
			c0.24,0,0.37,0.12,0.42,0.23h0.01l0.01-0.2H63.68z"/>
		<path class="st0" d="M64.24,79.07c0,0.29,0.17,0.52,0.41,0.52c0.24,0,0.41-0.22,0.41-0.52c0-0.23-0.11-0.52-0.41-0.52
			C64.36,78.54,64.24,78.81,64.24,79.07 M65.31,79.05c0,0.5-0.35,0.71-0.68,0.71c-0.37,0-0.65-0.27-0.65-0.69
			c0-0.45,0.3-0.72,0.67-0.72C65.05,78.36,65.31,78.64,65.31,79.05"/>
		<path class="st0" d="M65.92,78v0.39h0.35v0.18h-0.35v0.73c0,0.17,0.05,0.26,0.18,0.26l0.14-0.02l0.01,0.18l-0.22,0.03l-0.27-0.1
			c-0.07-0.07-0.1-0.19-0.1-0.35v-0.74h-0.21v-0.18h0.21v-0.33L65.92,78z"/>
		<path class="st0" d="M67.27,79.05c-0.27,0-0.58,0.04-0.58,0.3c0,0.16,0.11,0.24,0.23,0.24c0.18,0,0.29-0.11,0.33-0.23l0.01-0.08
			V79.05z M67.3,79.74l-0.02-0.17h-0.01c-0.08,0.11-0.22,0.2-0.42,0.2c-0.27,0-0.41-0.19-0.41-0.39c0-0.33,0.29-0.5,0.82-0.5v-0.03
			c0-0.11-0.03-0.31-0.31-0.31l-0.35,0.1l-0.05-0.16c0.11-0.07,0.27-0.12,0.45-0.12c0.41,0,0.51,0.28,0.51,0.55v0.5l0.02,0.32H67.3z
			"/>
		<path class="st0" d="M67.87,79.49l0.33,0.1c0.18,0,0.26-0.09,0.26-0.2c0-0.12-0.07-0.18-0.25-0.25c-0.24-0.09-0.36-0.22-0.36-0.38
			c0-0.22,0.18-0.4,0.47-0.4l0.33,0.09l-0.06,0.18l-0.28-0.08c-0.15,0-0.23,0.08-0.23,0.19c0,0.11,0.08,0.16,0.26,0.23
			c0.24,0.09,0.36,0.21,0.36,0.41c0,0.24-0.19,0.4-0.51,0.4c-0.15,0-0.29-0.04-0.38-0.09L67.87,79.49z"/>
		<path class="st0" d="M68.86,80.07c0.2-0.27,0.36-0.64,0.36-1.14c0-0.5-0.15-0.86-0.36-1.13h0.19c0.18,0.23,0.37,0.59,0.37,1.14
			c0,0.55-0.19,0.9-0.37,1.14H68.86z"/>
		<path class="st0" d="M45.62,82.52l-0.48-1.46h0.21l0.23,0.72c0.06,0.2,0.12,0.38,0.16,0.55h0c0.04-0.17,0.1-0.35,0.17-0.54
			l0.25-0.72h0.2l-0.53,1.46H45.62z"/>
		<path class="st0" d="M47.11,81.9c0-0.12-0.05-0.31-0.27-0.31c-0.19,0-0.28,0.18-0.29,0.31H47.11z M46.55,82.03
			c0,0.26,0.17,0.36,0.36,0.36l0.29-0.05l0.03,0.14c-0.07,0.03-0.18,0.06-0.35,0.06c-0.33,0-0.52-0.21-0.52-0.53
			c0-0.32,0.19-0.57,0.5-0.57c0.34,0,0.44,0.3,0.44,0.49l-0.01,0.09H46.55z"/>
		<path class="st0" d="M47.53,81.76l-0.01-0.28h0.17l0.01,0.17h0c0.05-0.1,0.18-0.2,0.35-0.2c0.15,0,0.37,0.09,0.37,0.45v0.63h-0.19
			v-0.6c0-0.17-0.06-0.31-0.25-0.31l-0.26,0.2l-0.01,0.09v0.63h-0.19V81.76z"/>
		<polygon class="st0" points="48.78,81.22 48.78,81.47 48.61,81.47 48.61,81.62 48.78,81.62 48.78,82.19 48.85,82.46 49.06,82.54 
			49.23,82.52 49.22,82.38 49.11,82.39 48.97,82.19 48.97,81.62 49.24,81.62 49.24,81.47 48.97,81.47 48.97,81.17 		"/>
		<path class="st0" d="M50.01,81.99c-0.21-0.01-0.45,0.03-0.45,0.24l0.18,0.18L50,82.23l0.01-0.06V81.99z M50.04,82.52l-0.02-0.13
			h-0.01c-0.06,0.08-0.17,0.16-0.32,0.16c-0.21,0-0.32-0.15-0.32-0.3c0-0.25,0.23-0.39,0.63-0.39v-0.02c0-0.09-0.02-0.24-0.24-0.24
			l-0.28,0.08l-0.04-0.13l0.35-0.09c0.32,0,0.4,0.22,0.4,0.43v0.39l0.02,0.25H50.04z"/>
		<path class="st0" d="M51.16,82.1l0.01,0.07l0.29,0.22c0.2,0,0.32-0.16,0.32-0.4c0-0.21-0.11-0.39-0.31-0.39
			c-0.13,0-0.25,0.09-0.29,0.23l-0.01,0.08V82.1z M50.96,82.52l0.01-0.27v-1.27h0.19v0.66h0c0.07-0.12,0.19-0.19,0.36-0.19
			c0.26,0,0.45,0.21,0.45,0.54c0,0.38-0.24,0.56-0.47,0.56c-0.15,0-0.27-0.06-0.35-0.2h-0.01l-0.01,0.17H50.96z"/>
		<path class="st0" d="M52.77,81.99c-0.21-0.01-0.45,0.03-0.45,0.24l0.18,0.18l0.25-0.18l0.01-0.06V81.99z M52.8,82.52l-0.02-0.13
			h-0.01c-0.06,0.08-0.17,0.16-0.32,0.16c-0.21,0-0.32-0.15-0.32-0.3c0-0.25,0.23-0.39,0.63-0.39v-0.02c0-0.09-0.02-0.24-0.24-0.24
			l-0.28,0.08l-0.04-0.13l0.35-0.09c0.32,0,0.4,0.22,0.4,0.43v0.39l0.02,0.25H52.8z"/>
		<path class="st0" d="M53.5,81.18l-0.12,0.12l-0.12-0.12l0.12-0.12L53.5,81.18z M53,82.83l0.21-0.08c0.05-0.06,0.07-0.14,0.07-0.39
			v-0.88h0.19v0.95c0,0.2-0.03,0.33-0.13,0.43l-0.33,0.12L53,82.83z"/>
		<path class="st0" d="M53.91,82c0,0.23,0.13,0.4,0.32,0.4c0.18,0,0.32-0.17,0.32-0.41c0-0.18-0.09-0.4-0.32-0.4
			C54.01,81.59,53.91,81.8,53.91,82 M54.75,81.99c0,0.39-0.27,0.56-0.53,0.56c-0.29,0-0.51-0.21-0.51-0.54
			c0-0.35,0.23-0.56,0.52-0.56C54.54,81.45,54.75,81.67,54.75,81.99"/>
		<path class="st0" d="M55.45,81.8l-0.01-0.33h0.17l0.01,0.21h0.01c0.05-0.14,0.16-0.23,0.29-0.23l0.05,0.01v0.18l-0.07-0.01
			c-0.13,0-0.23,0.1-0.26,0.24l-0.01,0.09v0.56h-0.19V81.8z"/>
		<path class="st0" d="M56.81,81.9c0-0.12-0.05-0.31-0.27-0.31c-0.2,0-0.28,0.18-0.3,0.31H56.81z M56.25,82.03
			c0,0.26,0.17,0.36,0.36,0.36l0.29-0.05l0.03,0.14c-0.07,0.03-0.19,0.06-0.35,0.06c-0.33,0-0.52-0.21-0.52-0.53
			c0-0.32,0.19-0.57,0.5-0.57c0.34,0,0.44,0.3,0.44,0.49l-0.01,0.09H56.25z"/>
		<path class="st0" d="M57.99,82.48c-0.05,0.03-0.16,0.06-0.3,0.06c-0.32,0-0.53-0.21-0.53-0.54c0-0.32,0.22-0.56,0.57-0.56
			l0.27,0.05l-0.04,0.15l-0.22-0.05c-0.24,0-0.37,0.18-0.37,0.4c0,0.24,0.16,0.39,0.37,0.39l0.24-0.05L57.99,82.48z"/>
		<path class="st0" d="M58.87,81.9c0-0.12-0.05-0.31-0.27-0.31c-0.2,0-0.28,0.18-0.3,0.31H58.87z M58.31,82.03
			c0,0.26,0.17,0.36,0.36,0.36l0.29-0.05l0.03,0.14c-0.07,0.03-0.18,0.06-0.35,0.06c-0.33,0-0.52-0.21-0.52-0.53
			c0-0.32,0.19-0.57,0.5-0.57c0.34,0,0.44,0.3,0.44,0.49l-0.01,0.09H58.31z"/>
		<polygon class="st0" points="59.34,81.22 59.34,81.47 59.17,81.47 59.17,81.62 59.34,81.62 59.34,82.19 59.41,82.46 59.62,82.54 
			59.79,82.52 59.78,82.38 59.67,82.39 59.52,82.19 59.52,81.62 59.8,81.62 59.8,81.47 59.52,81.47 59.52,81.17 		"/>
		<path class="st0" d="M60.57,81.99c-0.21-0.01-0.45,0.03-0.45,0.24l0.18,0.18l0.25-0.18l0.01-0.06V81.99z M60.6,82.52l-0.01-0.13
			h-0.01c-0.06,0.08-0.17,0.16-0.32,0.16c-0.21,0-0.32-0.15-0.32-0.3c0-0.25,0.23-0.39,0.63-0.39v-0.02c0-0.09-0.02-0.24-0.24-0.24
			l-0.28,0.08l-0.04-0.13l0.35-0.09c0.32,0,0.4,0.22,0.4,0.43v0.39l0.02,0.25H60.6z"/>
		<path class="st0" d="M62.08,81.99c-0.21-0.01-0.45,0.03-0.45,0.24l0.18,0.18l0.26-0.18l0.01-0.06V81.99z M62.11,82.52l-0.01-0.13
			h-0.01c-0.06,0.08-0.17,0.16-0.32,0.16c-0.21,0-0.32-0.15-0.32-0.3c0-0.25,0.23-0.39,0.64-0.39v-0.02c0-0.09-0.02-0.24-0.24-0.24
			l-0.27,0.08l-0.04-0.13l0.35-0.09c0.32,0,0.4,0.22,0.4,0.43v0.39l0.02,0.25H62.11z"/>
		<path class="st0" d="M62.58,81.8l-0.01-0.33h0.17l0.01,0.21h0.01c0.05-0.14,0.16-0.23,0.29-0.23l0.05,0.01v0.18l-0.06-0.01
			c-0.14,0-0.23,0.1-0.26,0.24l-0.01,0.09v0.56h-0.19V81.8z"/>
		<path class="st0" d="M64.02,82.48c-0.05,0.03-0.16,0.06-0.3,0.06c-0.32,0-0.53-0.21-0.53-0.54c0-0.32,0.22-0.56,0.57-0.56
			l0.27,0.05l-0.04,0.15l-0.22-0.05c-0.24,0-0.37,0.18-0.37,0.4c0,0.24,0.16,0.39,0.37,0.39l0.24-0.05L64.02,82.48z"/>
		<path class="st0" d="M64.25,80.98h0.19v0.65h0.01l0.14-0.13l0.2-0.06c0.14,0,0.37,0.09,0.37,0.45v0.63h-0.19v-0.6
			c0-0.17-0.06-0.31-0.24-0.31l-0.26,0.19l-0.02,0.09v0.63h-0.19V80.98z"/>
		<path class="st0" d="M65.46,82.52h0.19v-1.05h-0.19V82.52z M65.43,81.18l0.12,0.12l0.12-0.12l-0.12-0.12L65.43,81.18z"/>
		<polygon class="st0" points="66.64,81.47 66.43,82.06 66.34,82.33 66.33,82.33 66.25,82.06 66.04,81.47 65.84,81.47 66.24,82.52 
			66.42,82.52 66.84,81.47 		"/>
		<path class="st0" d="M67.57,81.99c-0.21-0.01-0.45,0.03-0.45,0.24l0.18,0.18l0.26-0.18l0.01-0.06V81.99z M67.59,82.52l-0.02-0.13
			h-0.01c-0.06,0.08-0.17,0.16-0.32,0.16c-0.21,0-0.32-0.15-0.32-0.3c0-0.25,0.23-0.39,0.63-0.39v-0.02c0-0.09-0.02-0.24-0.24-0.24
			l-0.28,0.08L67,81.54l0.34-0.09c0.32,0,0.4,0.22,0.4,0.43v0.39l0.02,0.25H67.59z"/>
		<path class="st0" d="M68.78,81.9l-0.01-0.08c-0.03-0.12-0.13-0.22-0.28-0.22c-0.2,0-0.32,0.17-0.32,0.4c0,0.21,0.1,0.39,0.31,0.39
			c0.13,0,0.25-0.09,0.28-0.23l0.01-0.08V81.9z M68.97,80.98v1.27l0.01,0.27h-0.17l-0.01-0.18h0c-0.06,0.12-0.19,0.21-0.36,0.21
			c-0.26,0-0.45-0.21-0.45-0.53c0-0.35,0.21-0.57,0.47-0.57c0.16,0,0.27,0.08,0.32,0.16h0v-0.63H68.97z"/>
		<path class="st0" d="M69.85,81.99c-0.21-0.01-0.45,0.03-0.45,0.24l0.18,0.18l0.25-0.18l0.01-0.06V81.99z M69.88,82.52l-0.02-0.13
			h-0.01c-0.06,0.08-0.17,0.16-0.32,0.16c-0.21,0-0.32-0.15-0.32-0.3c0-0.25,0.23-0.39,0.63-0.39v-0.02c0-0.09-0.03-0.24-0.24-0.24
			l-0.27,0.08l-0.04-0.13l0.34-0.09c0.32,0,0.4,0.22,0.4,0.43v0.39l0.02,0.25H69.88z"/>
		<rect x="47.18" y="83.54" class="st0" width="0.19" height="1.46"/>
		<path class="st0" d="M47.71,85v-1.46h0.21l0.47,0.74c0.11,0.17,0.2,0.33,0.27,0.47l0,0c-0.02-0.19-0.02-0.37-0.02-0.6v-0.61h0.18
			V85h-0.19l-0.47-0.74c-0.1-0.16-0.2-0.33-0.27-0.49l-0.01,0c0.01,0.19,0.01,0.36,0.01,0.6V85H47.71z"/>
		<path class="st0" d="M49.33,84.85l0.19,0.01c0.41,0,0.63-0.22,0.63-0.62c0-0.35-0.19-0.56-0.6-0.56l-0.22,0.02V84.85z
			 M49.14,83.56c0.12-0.02,0.25-0.03,0.4-0.03c0.27,0,0.47,0.06,0.6,0.18c0.13,0.12,0.21,0.29,0.21,0.53c0,0.24-0.07,0.43-0.21,0.57
			c-0.14,0.14-0.36,0.21-0.65,0.21L49.14,85V83.56z"/>
		<path class="st0" d="M50.78,83.54v0.87c0,0.33,0.14,0.46,0.34,0.46c0.22,0,0.36-0.14,0.36-0.46v-0.87h0.19v0.85
			c0,0.45-0.24,0.63-0.56,0.63c-0.3,0-0.53-0.17-0.53-0.62v-0.86H50.78z"/>
		<path class="st0" d="M51.98,84.77l0.34,0.1c0.19,0,0.31-0.1,0.31-0.25c0-0.14-0.08-0.21-0.28-0.29c-0.24-0.09-0.39-0.21-0.39-0.42
			c0-0.23,0.19-0.4,0.47-0.4c0.15,0,0.26,0.04,0.33,0.07l-0.05,0.15l-0.28-0.07c-0.2,0-0.28,0.12-0.28,0.22
			c0,0.14,0.09,0.2,0.29,0.28c0.25,0.1,0.38,0.22,0.38,0.43c0,0.23-0.17,0.42-0.52,0.42c-0.14,0-0.29-0.04-0.38-0.09L51.98,84.77z"
			/>
		<polygon class="st0" points="52.91,83.54 52.91,83.7 53.36,83.7 53.36,85 53.55,85 53.55,83.7 54,83.7 54,83.54 		"/>
		<path class="st0" d="M54.36,84.22h0.19c0.2,0,0.33-0.11,0.33-0.28c0-0.19-0.14-0.27-0.34-0.27l-0.19,0.02V84.22z M54.16,83.56
			l0.36-0.03c0.2,0,0.33,0.04,0.42,0.12l0.12,0.28c0,0.19-0.12,0.32-0.28,0.37v0c0.11,0.04,0.18,0.14,0.22,0.29
			c0.05,0.2,0.08,0.35,0.11,0.4h-0.2c-0.02-0.04-0.06-0.17-0.1-0.35c-0.04-0.2-0.12-0.28-0.29-0.28h-0.18V85h-0.19V83.56z"/>
		<rect x="55.34" y="83.54" class="st0" width="0.19" height="1.46"/>
		<path class="st0" d="M56.28,83.97l0.07-0.27h0.01l0.08,0.27l0.14,0.42h-0.44L56.28,83.97z M56.25,83.54L55.75,85h0.2l0.15-0.46
			h0.52L56.78,85h0.2l-0.5-1.46H56.25z"/>
		<path class="st0" d="M58.08,83.97l0.07-0.27h0l0.08,0.27l0.14,0.42h-0.44L58.08,83.97z M58.05,83.54L57.55,85h0.2l0.15-0.46h0.52
			L58.57,85h0.2l-0.5-1.46H58.05z"/>
		<path class="st0" d="M59.18,84.22h0.19c0.2,0,0.33-0.11,0.33-0.28c0-0.19-0.14-0.27-0.34-0.27l-0.19,0.02V84.22z M58.99,83.56
			l0.37-0.03c0.2,0,0.33,0.04,0.43,0.12l0.12,0.28c0,0.19-0.12,0.32-0.28,0.37v0c0.11,0.04,0.18,0.14,0.22,0.29
			c0.05,0.2,0.08,0.35,0.11,0.4h-0.2c-0.02-0.04-0.06-0.17-0.1-0.35c-0.04-0.2-0.12-0.28-0.29-0.28h-0.18V85h-0.19V83.56z"/>
		<path class="st0" d="M61.29,84.94c-0.09,0.03-0.25,0.08-0.45,0.08c-0.22,0-0.41-0.06-0.55-0.19c-0.13-0.12-0.21-0.32-0.21-0.54
			c0-0.44,0.3-0.75,0.8-0.75c0.17,0,0.3,0.04,0.37,0.07l-0.04,0.15c-0.08-0.04-0.18-0.06-0.32-0.06c-0.36,0-0.59,0.22-0.59,0.59
			c0,0.37,0.23,0.59,0.57,0.59l0.25-0.04v-0.44h-0.3v-0.15h0.48V84.94z"/>
		<polygon class="st0" points="61.58,83.54 61.58,85 62.41,85 62.41,84.84 61.77,84.84 61.77,84.31 62.34,84.31 62.34,84.16 
			61.77,84.16 61.77,83.7 62.38,83.7 62.38,83.54 		"/>
		<path class="st0" d="M62.65,85v-1.46h0.21l0.47,0.74c0.11,0.17,0.19,0.33,0.26,0.47l0,0c-0.02-0.19-0.02-0.37-0.02-0.6v-0.61h0.18
			V85h-0.19l-0.47-0.74c-0.1-0.16-0.2-0.33-0.27-0.49l-0.01,0c0.01,0.19,0.01,0.36,0.01,0.6V85H62.65z"/>
		<polygon class="st0" points="63.92,83.54 63.92,83.7 64.37,83.7 64.37,85 64.56,85 64.56,83.7 65.01,83.7 65.01,83.54 		"/>
		<rect x="65.17" y="83.54" class="st0" width="0.19" height="1.46"/>
		<path class="st0" d="M65.69,85v-1.46h0.21l0.47,0.74c0.11,0.17,0.19,0.33,0.26,0.47l0,0c-0.02-0.19-0.02-0.37-0.02-0.6v-0.61h0.18
			V85h-0.19l-0.47-0.74c-0.1-0.16-0.2-0.33-0.28-0.49l-0.01,0c0.01,0.19,0.02,0.36,0.02,0.6V85H65.69z"/>
		<path class="st0" d="M67.55,83.97l0.07-0.27h0l0.08,0.27l0.14,0.42h-0.44L67.55,83.97z M67.52,83.54L67.02,85h0.2l0.15-0.46h0.52
			L68.05,85h0.2l-0.5-1.46H67.52z"/>
	</g>
	<rect x="3.09" y="3.23" class="st11" width="106.42" height="105.47"/>
	<g>
		<path class="st12" d="M118.23,97.91c0,5.96-4.83,10.79-10.79,10.79c-5.96,0-10.79-4.83-10.79-10.79s4.83-10.79,10.79-10.79
			C113.39,87.12,118.23,91.95,118.23,97.91z"/>
		<g>
			<path class="st13" d="M103.32,103.54v-1.47c4.09-3.1,5.71-4.46,5.71-5.99c0-1.11-0.96-1.6-1.93-1.6c-1.23,0-2.17,0.49-2.85,1.25
				l-1.07-1.2c0.93-1.14,2.42-1.69,3.9-1.69c2.04,0,3.81,1.14,3.81,3.24c0,1.96-1.79,3.7-4.6,5.83h4.66v1.63H103.32z"/>
		</g>
	</g>
</g>
</svg>
