<?xml version="1.0" encoding="utf-8"?>
<!-- Generator: Adobe Illustrator 26.0.0, SVG Export Plug-In . SVG Version: 6.00 Build 0)  -->
<svg version="1.1" id="Capa_1" xmlns="http://www.w3.org/2000/svg" xmlns:xlink="http://www.w3.org/1999/xlink" x="0px" y="0px"
	 viewBox="0 0 114.26 114.59" style="enable-background:new 0 0 114.26 114.59;" xml:space="preserve">
<style type="text/css">
	.st0{clip-path:url(#SVGID_00000089549681929956851330000001902516576076068494_);fill:#1F1F1D;}
	.st1{fill:#1F1F1D;}
	.st2{clip-path:url(#SVGID_00000166673140886202301310000007430975357489945480_);fill:#1F1F1D;}
	.st3{clip-path:url(#SVGID_00000019680480391130891970000009030851658641185710_);fill:#1F1F1D;}
	.st4{fill:#F0E2F1;}
	.st5{fill:#13110C;}
	.st6{fill:#FFFFFF;}
	.st7{fill:#BC8EBF;}
	.st8{fill:#1F1F1C;}
	.st9{clip-path:url(#SVGID_00000162341711927648026320000004369113096389606534_);fill:#13110C;}
	.st10{clip-path:url(#SVGID_00000162341711927648026320000004369113096389606534_);fill:#FFFFFF;}
	.st11{clip-path:url(#SVGID_00000162341711927648026320000004369113096389606534_);fill:#1F1F1D;}
	.st12{fill:none;stroke:#662982;stroke-width:1.9;stroke-miterlimit:10;}
	.st13{fill:#FFFFFF;stroke:#662982;stroke-width:1.9;stroke-miterlimit:10;}
	.st14{fill:#662982;}
</style>
<g>
	<g>
		<g>
			<defs>
				<rect id="SVGID_1_" x="2.28" y="11.96" width="100.84" height="100.84"/>
			</defs>
			<clipPath id="SVGID_00000062879023465774512130000009296926054002570149_">
				<use xlink:href="#SVGID_1_"  style="overflow:visible;"/>
			</clipPath>
			<path style="clip-path:url(#SVGID_00000062879023465774512130000009296926054002570149_);fill:#1F1F1D;" d="M107.58,20.53
				c-2.59,0.65-5.24,0.97-7.89,1.12c-2.65,0.09-5.34,0.07-7.88,0.81c-1.26,0.36-2.46,0.92-3.32,1.83c-0.85,0.91-1.26,2.18-1.42,3.42
				c-0.24,2.54,1.01,5.06,2.84,6.95l0,0.05l-0.04,0c-2.1-1.6-3.69-4.23-3.45-7.06c0.12-1.37,0.62-2.76,1.64-3.78
				c1.01-1.02,2.37-1.47,3.66-1.76c1.32-0.27,2.65-0.36,3.97-0.53l3.96-0.47l7.92-0.65l0.04,0.03L107.58,20.53z"/>
		</g>
		<g>
			<path class="st1" d="M93.65,22.28l0.02,0L93.65,22.28z"/>
		</g>
		<g>
			<defs>
				<rect id="SVGID_00000137093781181366488690000008673471201442178949_" x="2.28" y="11.96" width="100.84" height="100.84"/>
			</defs>
			<clipPath id="SVGID_00000096763887419341203110000003920742057574695309_">
				<use xlink:href="#SVGID_00000137093781181366488690000008673471201442178949_"  style="overflow:visible;"/>
			</clipPath>
			<path style="clip-path:url(#SVGID_00000096763887419341203110000003920742057574695309_);fill:#1F1F1D;" d="M100.11,15.51
				c-2.09,2.23-4.34,4.33-6.6,6.4l-0.01,0.01l-0.01,0.01l0.66-0.06c2.08-2.03,4.13-4.08,6.05-6.27c2.01-2.32,3.89-4.75,5.69-7.24
				C104.07,10.82,102.16,13.23,100.11,15.51"/>
			<path style="clip-path:url(#SVGID_00000096763887419341203110000003920742057574695309_);fill:#1F1F1D;" d="M91.83,41.38
				c0.81,0.42,1.54,0.96,2.22,1.56c0.68,0.6,1.33,1.24,1.85,1.99c1.02,1.49,1.95,3.08,2.83,4.6c0.47,0.72,1.12,1.3,1.9,1.52
				c0.78,0.23,1.64,0.14,2.46-0.09c1.65-0.49,3.19-1.44,4.66-2.46l0.04,0.01v0.04c-1.23,1.32-2.73,2.44-4.51,3.04
				c-0.89,0.27-1.9,0.42-2.84,0.07c-0.95-0.31-1.68-1.06-2.11-1.88c-0.42-0.85-0.65-1.68-1.13-2.45c-0.46-0.77-1.04-1.45-1.66-2.09
				c-1.22-1.29-2.43-2.57-3.76-3.8l0-0.04L91.83,41.38z"/>
		</g>
		<g>
			<path class="st1" d="M86.79,28.76c-0.05,2.93-0.1,5.87-0.06,8.79c0.04,1.45,0.18,2.92,0.48,4.33c0.16,0.69,0.38,1.4,0.77,1.92
				c0.21,0.26,0.46,0.52,0.73,0.73c0.24,0.2,0.61,0.39,0.77,0.39l0.07,0c0.18,0,0.31,0.15,0.3,0.33c-0.01,0.18-0.15,0.31-0.33,0.3
				H89.5c-0.58-0.07-0.84-0.32-1.17-0.57c-0.3-0.26-0.55-0.54-0.79-0.85c-0.47-0.68-0.64-1.43-0.79-2.16
				c-0.27-1.47-0.35-2.94-0.33-4.42C86.48,34.61,86.64,31.69,86.79,28.76"/>
			<path class="st1" d="M75.94,48.13c-1.56,1.38-3.08,2.79-4.37,4.36c-0.64,0.78-1.24,1.59-1.66,2.46
				c-0.38,0.84-0.69,1.88-0.97,2.83c-0.56,1.94-1.01,4-0.66,6.02c0.09,0.5,0.22,0.99,0.43,1.45c0.21,0.44,0.48,0.94,0.65,1.44
				c0.35,1,0.61,2.04,0.78,3.08c0.17,1.04,0.3,2.09,0.38,3.13l0.13,1.54c0.04,0.54,0.13,0.88,0.31,1.34
				c0.78,1.77,2.05,3.43,3.44,4.84c1.42,1.4,2.97,2.63,5.01,2.84c2.03,0.39,4.07,0.81,6.11,1.31l0.05,0.07l-0.06,0.05
				c-2.08-0.08-4.17-0.26-6.25-0.46l-0.78-0.08l-0.84-0.17c-0.54-0.17-1.07-0.37-1.56-0.64c-0.99-0.52-1.84-1.22-2.63-1.96
				c-1.54-1.53-2.79-3.3-3.6-5.38c-0.19-0.5-0.33-1.19-0.31-1.7l-0.02-1.57c-0.02-1.04,0.01-2.07-0.06-3.09
				c-0.09-1.02-0.18-2.05-0.52-3.01c-0.32-0.93-0.89-1.9-1.06-2.96c-0.45-2.08-0.37-4.26,0.04-6.35c0.24-1.06,0.49-2.04,0.99-3.08
				c0.51-1,1.2-1.85,1.94-2.62c1.5-1.52,3.19-2.8,5.04-3.81l0.09,0.03L75.94,48.13z"/>
		</g>
		<g>
			<defs>
				<rect id="SVGID_00000014618189782526976680000007857095249906883237_" x="2.28" y="11.96" width="100.84" height="100.84"/>
			</defs>
			<clipPath id="SVGID_00000158729973558386359290000002001189867854326673_">
				<use xlink:href="#SVGID_00000014618189782526976680000007857095249906883237_"  style="overflow:visible;"/>
			</clipPath>
			<path style="clip-path:url(#SVGID_00000158729973558386359290000002001189867854326673_);fill:#1F1F1D;" d="M74.54,80.78
				c1.55,1.65,2.96,3.4,4.03,5.4c1.02,2.01,1.68,4.12,2.24,6.26c-0.74-2.07-1.6-4.13-2.75-5.96c-1.19-1.79-2.76-3.36-4.38-4.76
				l-0.02-0.02c-0.26-0.23-0.29-0.63-0.06-0.9c0.23-0.26,0.63-0.3,0.9-0.06L74.54,80.78z"/>
			<path style="clip-path:url(#SVGID_00000158729973558386359290000002001189867854326673_);fill:#1F1F1D;" d="M69.17,68.79
				c-1.15,2.59-2.31,5.17-3.32,7.8c-0.5,1.31-0.99,2.64-1.35,3.95c-0.3,1.28-0.33,2.67-0.29,4.05c0.09,2.78,0.48,5.59,1.09,8.35
				c0.65,2.74,1.5,5.49,2.88,7.91c1.38,2.48,3.33,4.46,5.69,5.9c2.33,1.49,4.95,2.52,7.57,3.51c5.27,1.95,10.72,3.68,15.88,6.09
				l0.03,0.08l-0.08,0.04l-0.01,0c-5.43-1.64-10.88-3.08-16.3-4.93c-2.68-1-5.33-2.17-7.74-3.82c-1.19-0.83-2.32-1.8-3.25-2.92
				c-0.94-1.13-1.65-2.4-2.28-3.68c-1.29-2.58-2.05-5.33-2.86-8.06c-0.78-2.74-1.46-5.52-1.71-8.41c-0.11-1.44-0.1-2.92,0.29-4.4
				c0.42-1.42,0.95-2.73,1.53-4.04c1.19-2.6,2.55-5.11,4.12-7.48l0.09-0.02L69.17,68.79z"/>
		</g>
		<g>
			<path class="st1" d="M89.75,81.84c-0.61-0.45-1.17-0.95-1.72-1.47c-0.28-0.26-0.54-0.54-0.78-0.86
				c-0.12-0.16-0.24-0.33-0.34-0.56l-0.1-0.12l-0.17-0.16c-1.1-0.87-2.41-1.68-3.61-2.56c-1.23-0.87-2.43-1.79-3.49-2.93
				c-1.08-1.15-1.81-2.51-2.44-3.89c-1.19-2.75-2.17-5.73-1.81-8.85c0.34-3.04,1.15-5.94,2.02-8.83c0.1-0.35,0.48-0.55,0.83-0.45
				c0.2,0.06,0.35,0.21,0.43,0.39l0.01,0.03c0.45,1.12,0.94,2.24,1.44,3.35c0.53,1.09,1.04,2.2,1.69,3.19
				c0.3,0.5,0.7,0.94,1.09,1.42l1.16,1.44c0.78,0.96,1.53,1.94,2.27,2.94l-0.01,0.09l-0.08,0c-0.92-0.83-1.82-1.68-2.71-2.55
				c-0.87-0.9-1.8-1.65-2.6-2.72c-0.78-1.03-1.42-2.11-1.99-3.24c-0.57-1.12-1.08-2.25-1.53-3.44l1.27-0.03
				c-0.95,2.8-1.83,5.66-2.45,8.53c-0.67,2.83-0.03,5.93,1.38,8.51c0.73,1.28,1.61,2.49,2.69,3.41c1.09,0.95,2.29,1.82,3.46,2.74
				c1.18,0.92,2.4,1.74,3.52,2.87l0.21,0.25l0.19,0.36c0.04,0.12,0.11,0.28,0.2,0.42c0.18,0.3,0.4,0.59,0.62,0.89
				c0.44,0.6,0.93,1.16,1.41,1.74l-0.01,0.09L89.75,81.84z"/>
			<path class="st1" d="M86.99,42.08c-0.94,0.56-1.87,1.15-2.68,1.84c-0.76,0.67-1.58,1.61-1.13,2.41c0.46,0.87,1.34,1.54,2.23,2.12
				c0.91,0.58,1.88,1.06,2.88,1.52c-1.08-0.21-2.13-0.59-3.12-1.1c-0.99-0.51-1.96-1.18-2.55-2.25c-0.32-0.61-0.17-1.38,0.17-1.86
				c0.34-0.5,0.77-0.89,1.23-1.22C84.94,42.89,85.94,42.41,86.99,42.08"/>
			<polygon class="st1" points="52.02,26.72 33.53,14.88 32.12,17.08 50.61,28.92 49.56,30.56 56.06,30.86 53.07,25.08 			"/>
			<path class="st1" d="M86.34,37.44c-0.21,0.52-0.54,0.99-0.96,1.39c-0.41,0.4-0.93,0.74-1.56,0.85c-0.59,0.06-1.12,0.05-1.68,0.02
				c-0.55-0.02-1.11-0.06-1.65-0.17c0.55-0.16,1.09-0.25,1.63-0.32c0.53-0.09,1.1-0.1,1.6-0.16c0.46-0.06,0.91-0.32,1.35-0.6
				C85.52,38.16,85.92,37.8,86.34,37.44"/>
			<path class="st4" d="M13.96,42.93l3.54-5.56L37.72,50.3l7.03-11.05L24.52,26.32l3.54-5.57c0,0-0.34-0.23-0.77-0.5
				c-0.43-0.27-0.89-0.31-1.72,0.99L13.35,40.48c-0.83,1.31-0.6,1.71-0.17,1.98C13.6,42.72,13.96,42.93,13.96,42.93"/>
			<path class="st5" d="M17.45,37.15l20.23,12.93l6.86-10.78L24.31,26.37l0.09-0.13l3.46-5.44c-0.14-0.09-0.37-0.25-0.64-0.41
				c-0.22-0.14-0.37-0.16-0.56-0.08c-0.26,0.12-0.58,0.46-0.94,1.03L13.48,40.56c-0.86,1.35-0.47,1.59-0.22,1.76
				c0.26,0.17,0.51,0.31,0.65,0.4L17.45,37.15z M37.77,50.52L17.55,37.59l-3.53,5.55l-0.13-0.07c0,0-0.36-0.21-0.79-0.48
				c-0.64-0.41-0.61-1.05,0.12-2.2l12.24-19.23c0.4-0.64,0.75-1,1.08-1.15c0.36-0.16,0.65-0.03,0.86,0.11
				c0.43,0.27,0.77,0.5,0.77,0.5l0.13,0.09l-3.54,5.56L44.97,39.2l-0.08,0.13L37.77,50.52z"/>
			<path class="st6" d="M45.26,31.09l0.64,0.41c0.23,0.24,0.25,0.71,0.06,1.05l-1.22,2c-0.52,1.04,0.09,2.3,0.15,3.36l43.37,27.55
				c0.25,0.16,0.29,0.52,0.3,0.71c0.1,1.19,0.05,2.14-0.29,3.23c-0.15,0.43-0.42,1.29-0.13,1.51l0.3,0.25
				c0.64-0.3,0.64-0.36,0.67,0.43l1.35,0.8c0.43,0.43,0.65,1.12,0.47,1.4l-2.35,3.7c-0.23,0.31-1.17,0.26-1.4,0.15l-1.4-0.89
				c-0.71,0.28-0.58,0.37-0.63-0.4l-0.42-0.27c-0.21-0.1-0.46,0.13-1.12,0.69c-0.98,0.87-2.16,1.58-2.99,1.89
				c-0.24,0.09-0.5,0.2-0.7,0.07l-43.48-27.6c-0.19,0.01-0.41,0.01-0.64,0.01c-0.71-0.01-1.55-0.03-1.98,0.56l-1.69,2.59
				c-0.33,0.52-0.84,0.45-1.1,0.31l-0.5-0.32L45.26,31.09z"/>
			<path class="st5" d="M36.48,50.96l0.04,0.03l43.48,27.6c0.13,0.08,0.37-0.01,0.56-0.09c0.87-0.32,2.05-1.06,2.94-1.86l0.14-0.12
				c0.61-0.52,0.87-0.74,1.16-0.6l0.5,0.32l0.01,0.08c0.01,0.12,0.01,0.22,0.02,0.3l0.01,0.14l0.12-0.05l0.27-0.12l0.07-0.03
				l1.47,0.93c0.17,0.08,1.03,0.12,1.19-0.11l2.35-3.69c0.12-0.18-0.04-0.79-0.45-1.2l-1.4-0.82l0-0.09
				c-0.01-0.19-0.01-0.39-0.04-0.47l-0.28,0.12l-0.22,0.1l-0.38-0.32c-0.27-0.2-0.25-0.72,0.08-1.68c0.31-0.99,0.39-1.88,0.29-3.17
				c0-0.14-0.04-0.47-0.23-0.59L44.75,38l0-0.08c-0.02-0.33-0.09-0.67-0.17-1.04c-0.17-0.81-0.34-1.65,0.03-2.4l1.23-2.01
				c0.15-0.27,0.13-0.67-0.04-0.85l-0.48-0.3L30.74,54.21l0.37,0.23c0.08,0.04,0.56,0.25,0.88-0.26l1.7-2.59
				c0.49-0.66,1.4-0.64,2.12-0.63c0.22,0,0.43,0.01,0.61,0L36.48,50.96z M80.14,78.94l-0.3-0.08L36.4,51.28
				c-0.18,0.01-0.38,0.01-0.59,0c-0.69-0.01-1.47-0.03-1.86,0.49l-1.69,2.58c-0.35,0.54-0.91,0.57-1.31,0.36l-0.65-0.41l0.09-0.13
				l14.82-23.31L46,31.36c0.3,0.31,0.34,0.85,0.12,1.26l-1.23,2.01c-0.32,0.65-0.16,1.43,0,2.18c0.07,0.33,0.14,0.68,0.17,1
				l43.29,27.51c0.31,0.2,0.37,0.61,0.38,0.84c0.11,1.32,0.03,2.25-0.3,3.29c-0.38,1.12-0.22,1.3-0.19,1.33l0.23,0.2l0.04-0.02
				c0.29-0.13,0.45-0.21,0.59-0.12c0.14,0.09,0.16,0.26,0.18,0.66l1.28,0.76c0.52,0.5,0.75,1.26,0.52,1.62l-2.35,3.7
				c-0.3,0.41-1.35,0.34-1.61,0.2l-1.34-0.85L85.59,77c-0.21,0.09-0.33,0.14-0.44,0.07c-0.12-0.07-0.12-0.2-0.13-0.43L85,76.43
				l-0.36-0.23c-0.09-0.05-0.37,0.2-0.79,0.56l-0.14,0.12c-0.93,0.83-2.12,1.58-3.04,1.91C80.53,78.86,80.33,78.94,80.14,78.94"/>
			<path class="st7" d="M81.16,61.14l-8.24,12.95l7.09,4.5c0.04,0.02,0.08,0.03,0.13,0.03c0.13,0,0.29-0.06,0.43-0.12
				c0.87-0.32,2.05-1.06,2.94-1.86l0.14-0.12c0.49-0.42,0.75-0.64,0.98-0.64c0.06,0,0.11,0.01,0.17,0.04l0.5,0.32l0.01,0.08
				c0.01,0.12,0.01,0.22,0.02,0.3l0.01,0.14l0.12-0.05l0.27-0.11l0.07-0.03l1.47,0.93c0.07,0.04,0.28,0.07,0.51,0.07
				c0.28,0,0.59-0.04,0.68-0.17l2.35-3.69c0.12-0.18-0.04-0.79-0.45-1.2l-1.4-0.82l0-0.09c-0.01-0.19-0.01-0.39-0.04-0.47
				l-0.28,0.12l-0.22,0.1l-0.38-0.32c-0.27-0.2-0.25-0.72,0.08-1.68c0.31-0.99,0.39-1.88,0.29-3.17c0-0.14-0.04-0.47-0.23-0.59
				L81.16,61.14z"/>
			<path class="st5" d="M81.26,60.98l-0.1,0.16l7.02,4.46c0.19,0.12,0.22,0.45,0.23,0.59c0.11,1.29,0.03,2.18-0.28,3.17
				c-0.33,0.96-0.35,1.48-0.08,1.68l0.38,0.32l0.22-0.1l0.28-0.12c0.02,0.08,0.03,0.28,0.04,0.47l0,0.09l1.39,0.82
				c0.41,0.41,0.57,1.02,0.45,1.2l-2.35,3.69c-0.09,0.12-0.4,0.17-0.68,0.17c-0.22,0-0.43-0.03-0.5-0.07l-1.47-0.93l-0.07,0.03
				l-0.27,0.12l-0.12,0.05l-0.01-0.14c0-0.08-0.01-0.18-0.02-0.3l-0.01-0.08l-0.5-0.32c-0.06-0.03-0.12-0.04-0.17-0.04
				c-0.23,0-0.5,0.22-0.98,0.64l-0.14,0.12c-0.89,0.79-2.07,1.54-2.94,1.86c-0.13,0.06-0.3,0.12-0.43,0.12
				c-0.05,0-0.09-0.01-0.13-0.03l-7.09-4.5l-0.07,0.11l7.09,4.5c0.07,0.04,0.14,0.06,0.21,0.06c0.16,0,0.33-0.07,0.49-0.13
				c0.82-0.3,2.01-1.02,2.99-1.89c0.56-0.47,0.82-0.72,1.02-0.72c0.04,0,0.07,0.01,0.1,0.02l0.42,0.27
				c0.04,0.45,0.01,0.61,0.11,0.61c0.08,0,0.22-0.08,0.52-0.2l1.4,0.89c0.1,0.05,0.35,0.09,0.61,0.09c0.32,0,0.67-0.06,0.8-0.24
				l2.35-3.7c0.18-0.28-0.04-0.97-0.47-1.4l-1.35-0.8c-0.02-0.46-0.03-0.63-0.16-0.63c-0.09,0-0.25,0.08-0.51,0.2l-0.3-0.25
				c-0.29-0.22-0.02-1.08,0.13-1.51c0.34-1.09,0.39-2.04,0.29-3.23c-0.01-0.19-0.05-0.55-0.3-0.71L81.26,60.98z"/>
			
				<rect x="50.15" y="32" transform="matrix(0.5367 -0.8438 0.8438 0.5367 -19.8849 73.9882)" class="st4" width="14.56" height="46.21"/>
			<path class="st8" d="M34.25,48.79l38.72,24.63l7.64-12.02L41.89,36.78L34.25,48.79z M73.07,73.86l-0.13-0.08L33.81,48.89
				l0.09-0.13l7.9-12.42l0.13,0.09l39.12,24.89l-0.09,0.13L73.07,73.86z"/>
			<polygon class="st5" points="85.27,77.05 85.19,77.03 85.14,76.81 88.84,71 89.06,70.95 89.1,71.17 85.41,76.98 			"/>
			<polygon class="st5" points="84.57,76.21 84.48,76.19 84.43,75.97 87.78,70.71 88,70.66 88.05,70.88 84.7,76.14 			"/>
			<polygon class="st5" points="86.72,77.57 86.6,77.53 86.53,77.23 89.81,72.07 90.11,72.01 90.18,72.31 86.9,77.47 			"/>
			<polygon class="st5" points="79.92,78.82 79.84,78.79 79.79,78.57 88.17,65.4 88.39,65.35 88.44,65.57 80.06,78.74 			"/>
			<polygon class="st5" points="64.24,61.55 63.97,61.38 64.4,60.7 64.4,60.7 64.19,60.78 63.47,61.06 63.14,60.85 64.05,60.54 
				64.05,59.35 64.36,59.55 64.35,60.49 64.58,60.42 64.91,59.9 65.18,60.07 			"/>
			<path class="st5" d="M63.02,59.43c0.19,0.12,0.39,0.2,0.5,0.04l-0.06-0.25l-0.3,0.01l-0.05,0.05L63.02,59.43z M63.31,58.89
				l-0.06,0.13l0.01,0c0.12-0.04,0.27-0.03,0.41,0.06c0.21,0.14,0.24,0.37,0.13,0.53c-0.17,0.27-0.5,0.25-0.89,0l-0.01,0.02
				c-0.04,0.07-0.09,0.2,0.1,0.32l0.34,0.11l-0.06,0.21c-0.11,0-0.28-0.04-0.45-0.15c-0.34-0.22-0.3-0.5-0.16-0.73l0.25-0.39
				l0.15-0.26L63.31,58.89z"/>
			<path class="st5" d="M62.32,59.31c-0.08,0.12-0.14,0.23-0.19,0.32l-0.24-0.15l0.09-0.17l-0.01,0c-0.1,0.05-0.28,0.08-0.46-0.03
				c-0.19-0.12-0.3-0.36-0.09-0.7l0.4-0.63l0.27,0.17l-0.38,0.6c-0.1,0.15-0.12,0.3,0.03,0.4l0.31-0.02l0.07-0.08l0.4-0.63
				l0.27,0.17L62.32,59.31z"/>
			<path class="st5" d="M61,58.03l0.03-0.07c0.04-0.12,0-0.27-0.12-0.34c-0.17-0.11-0.36-0.04-0.5,0.18
				c-0.12,0.19-0.13,0.4,0.05,0.51l0.37-0.05l0.05-0.06L61,58.03z M61.55,57.77l-0.2,0.29l-0.8,1.25l-0.27-0.17l0.4-0.64l0,0
				c-0.13,0.06-0.29,0.06-0.45-0.05c-0.26-0.17-0.31-0.5-0.1-0.82c0.24-0.38,0.61-0.42,0.85-0.27c0.14,0.09,0.23,0.22,0.22,0.4l0,0
				l0.12-0.15L61.55,57.77z"/>
			<path class="st5" d="M59.11,58.13l0.06,0.24l0.24-0.05l-0.06-0.24L59.11,58.13z M59.31,57.84l0.27,0.17l0.68-1.07l-0.27-0.17
				L59.31,57.84z"/>
			<path class="st5" d="M59.56,56.84l-0.22-0.25c-0.12-0.08-0.2-0.06-0.25,0.01c-0.04,0.07-0.03,0.14,0.08,0.27
				c0.16,0.2,0.18,0.37,0.1,0.5c-0.12,0.19-0.37,0.24-0.62,0.08c-0.12-0.08-0.2-0.17-0.24-0.24l0.17-0.16l0.19,0.21l0.22-0.02
				c0.04-0.07,0.02-0.13-0.09-0.27c-0.15-0.19-0.18-0.35-0.08-0.51c0.12-0.19,0.36-0.24,0.64-0.06c0.13,0.08,0.23,0.19,0.28,0.28
				L59.56,56.84z"/>
			<path class="st5" d="M57.77,56.97l-0.04-0.02h-0.1l0.04,0.09l0.04,0.02L57.77,56.97z M57.9,56.77l0.1,0.06l-0.23,0.35l-0.15-0.08
				l-0.11-0.11l0.01-0.1l0.13-0.03l0,0l-0.01-0.13l0.03-0.1l0.11,0.07l-0.03,0.1l0.03,0.09l0.04,0.02L57.9,56.77z M58,57.1
				c0.1-0.16,0.06-0.36-0.1-0.46c-0.16-0.1-0.35-0.05-0.46,0.11c-0.1,0.16-0.07,0.36,0.09,0.46C57.7,57.31,57.9,57.25,58,57.1
				 M57.35,56.68c0.13-0.21,0.4-0.27,0.62-0.13c0.21,0.13,0.28,0.4,0.14,0.61c-0.13,0.2-0.41,0.26-0.62,0.12
				C57.28,57.16,57.22,56.88,57.35,56.68"/>
			<path class="st5" d="M67.03,58.51c0.08,0.01,0.23,0.06,0.4,0.16c0.38,0.24,0.51,0.66,0.23,1.1c-0.27,0.42-0.73,0.52-1.15,0.26
				c-0.17-0.11-0.25-0.21-0.28-0.26l0.13-0.11l0.23,0.23c0.31,0.2,0.65,0.13,0.88-0.22c0.21-0.33,0.15-0.66-0.17-0.87l-0.32-0.12
				L67.03,58.51z"/>
			<path class="st5" d="M66.03,58.5c0.19,0.12,0.43,0.23,0.55,0.04l-0.06-0.27c-0.12-0.08-0.26-0.05-0.34,0.01l-0.04,0.05
				L66.03,58.5z M66.31,58l-0.06,0.13l0.01,0c0.1-0.04,0.25-0.04,0.38,0.04c0.2,0.12,0.21,0.33,0.12,0.46
				c-0.15,0.23-0.44,0.23-0.81-0.01l-0.01,0.02c-0.05,0.08-0.12,0.24,0.08,0.36l0.3,0.09l-0.03,0.14c-0.11,0-0.25-0.04-0.37-0.12
				c-0.3-0.19-0.24-0.43-0.12-0.63l0.23-0.36l0.13-0.24L66.31,58z"/>
			<path class="st5" d="M65.44,58.43l-0.16,0.27l-0.16-0.1l0.09-0.17l0,0c-0.11,0.06-0.27,0.08-0.43-0.02
				c-0.13-0.09-0.29-0.3-0.08-0.63l0.37-0.58l0.18,0.11l-0.36,0.55c-0.1,0.16-0.12,0.32,0.04,0.43c0.12,0.07,0.26,0.05,0.35-0.03
				l0.06-0.07l0.37-0.58l0.18,0.11L65.44,58.43z"/>
			<path class="st5" d="M64.34,57.72l-0.16,0.27l-0.15-0.1l0.09-0.17l0,0c-0.11,0.06-0.28,0.08-0.43-0.02
				c-0.13-0.08-0.29-0.29-0.08-0.63l0.37-0.58l0.18,0.11l-0.36,0.56c-0.1,0.16-0.12,0.32,0.04,0.43c0.11,0.07,0.26,0.05,0.35-0.03
				l0.06-0.08l0.37-0.58l0.17,0.11L64.34,57.72z"/>
			<path class="st5" d="M62.85,56.49c0.19,0.12,0.43,0.23,0.55,0.04l-0.06-0.27c-0.12-0.08-0.26-0.05-0.34,0.01l-0.05,0.05
				L62.85,56.49z M63.14,55.98l-0.06,0.13l0.01,0c0.1-0.04,0.25-0.04,0.39,0.05c0.19,0.12,0.21,0.32,0.12,0.46
				c-0.15,0.23-0.44,0.23-0.81-0.01l-0.01,0.02c-0.05,0.08-0.12,0.24,0.08,0.36l0.29,0.09l-0.03,0.14c-0.11,0-0.25-0.04-0.37-0.12
				c-0.29-0.19-0.24-0.43-0.12-0.63l0.23-0.36l0.13-0.24L63.14,55.98z"/>
			<path class="st5" d="M62.3,55.98l0.03-0.07c0.04-0.14,0-0.29-0.13-0.37c-0.18-0.12-0.38-0.04-0.53,0.18
				c-0.12,0.19-0.13,0.42,0.06,0.54c0.12,0.08,0.28,0.06,0.4-0.05l0.06-0.06L62.3,55.98z M62.72,55.71l-0.17,0.24l-0.74,1.17
				l-0.17-0.11l0.38-0.6l0,0c-0.13,0.07-0.29,0.07-0.44-0.03c-0.24-0.15-0.28-0.46-0.1-0.75c0.22-0.34,0.55-0.38,0.76-0.24
				c0.14,0.09,0.22,0.21,0.21,0.39l0.01,0l0.11-0.16L62.72,55.71z"/>
			<path class="st5" d="M60.6,56.1l0.04,0.18l0.18-0.04l-0.04-0.17L60.6,56.1z M60.79,55.84l0.18,0.11l0.61-0.96l-0.18-0.11
				L60.79,55.84z"/>
			<path class="st5" d="M60.09,54.84l-0.04,0.08c-0.05,0.13-0.01,0.28,0.12,0.36c0.18,0.12,0.39,0.03,0.53-0.19
				c0.12-0.2,0.13-0.42-0.06-0.54c-0.12-0.07-0.27-0.06-0.39,0.04l-0.06,0.07L60.09,54.84z M59.38,55.57l0.74-1.17l0.15-0.25
				l0.16,0.1l-0.1,0.17l0,0c0.12-0.07,0.29-0.08,0.45,0.02c0.23,0.15,0.29,0.46,0.1,0.75c-0.2,0.32-0.53,0.39-0.76,0.24
				c-0.15-0.09-0.2-0.23-0.2-0.33l0,0l-0.37,0.58L59.38,55.57z"/>
			<path class="st5" d="M59.01,55.08l0.04,0.18l0.18-0.04l-0.04-0.17L59.01,55.08z M59.2,54.82l0.17,0.11l0.61-0.96l-0.18-0.11
				L59.2,54.82z"/>
			<path class="st5" d="M59.11,54.09c0.13-0.21,0.11-0.45-0.06-0.56c-0.17-0.11-0.39-0.03-0.53,0.19c-0.11,0.16-0.16,0.42,0.05,0.55
				C58.78,54.41,59,54.27,59.11,54.09 M58.34,53.61c0.23-0.36,0.57-0.36,0.81-0.21c0.26,0.17,0.34,0.49,0.14,0.79
				c-0.2,0.32-0.54,0.38-0.8,0.21C58.21,54.23,58.15,53.91,58.34,53.61"/>
			<polygon class="st5" points="57.35,54.28 57.53,54.4 58.43,52.98 58.25,52.87 			"/>
			<polygon class="st5" points="82.29,67.46 83.27,68.08 83.35,67.95 83.38,67.65 83.23,67.6 83.22,67.82 83.22,67.83 82.39,67.31 
							"/>
			<polygon class="st5" points="81.49,65.85 82.46,66.47 82.55,66.33 82.57,66.04 82.42,65.99 82.41,66.21 82.41,66.21 81.59,65.69 
							"/>
			<path class="st5" d="M81.22,65.85l0.32,0.33l-0.09,0.18c-0.1-0.12-0.22-0.29-0.28-0.4L81.22,65.85z"/>
			<path class="st5" d="M81.76,67.26L81.93,67l-0.2-0.17l-0.02,0.03L81.53,67l-0.28-0.06c-0.19-0.12-0.26-0.34-0.14-0.54l0.15-0.15
				l0.11,0.11l-0.12,0.11c-0.06,0.1-0.04,0.21,0.08,0.29c0.14,0.09,0.26,0.03,0.33-0.09l0.04-0.08l0.43,0.36l-0.24,0.38L81.76,67.26
				z"/>
			<path class="st5" d="M78.85,63.62l0.1,0.07l0.06,0.17c0.08,0.22,0.16,0.44,0.32,0.54l0.23-0.03l0.04-0.18l0.14,0.05l-0.07,0.24
				c-0.12,0.19-0.3,0.18-0.44,0.09c-0.18-0.12-0.27-0.33-0.34-0.54l-0.04-0.11l0,0l-0.2,0.31l-0.14-0.09L78.85,63.62z"/>
			<path class="st5" d="M78.34,64.02l0.32,0.33l-0.09,0.18c-0.1-0.12-0.23-0.29-0.28-0.4L78.34,64.02z"/>
			<path class="st5" d="M78.88,65.42l0.16-0.26l-0.19-0.16l-0.02,0.03l-0.19,0.14l-0.27-0.06c-0.19-0.12-0.26-0.34-0.14-0.53
				l0.15-0.15l0.11,0.11l-0.12,0.12c-0.06,0.1-0.04,0.21,0.08,0.29c0.14,0.09,0.26,0.03,0.33-0.09l0.04-0.08l0.44,0.36l-0.24,0.38
				L78.88,65.42z"/>
			<path class="st5" d="M76.03,61.86l-0.13,0.12l0.07,0.26c0.12,0.07,0.23,0.03,0.3-0.08l0.02-0.03l0.12,0.08l-0.01,0.02l0.04,0.26
				l0.21-0.04l0.04-0.15l0.13,0.05l-0.06,0.22c-0.1,0.15-0.26,0.17-0.38,0.09c-0.1-0.06-0.14-0.17-0.13-0.28l0,0
				c-0.09,0.07-0.22,0.1-0.36,0.01c-0.15-0.1-0.22-0.29-0.1-0.49l0.16-0.15L76.03,61.86z"/>
			<path class="st5" d="M75.37,62.13l0.31,0.33l-0.09,0.18c-0.1-0.12-0.22-0.29-0.28-0.4L75.37,62.13z"/>
			<path class="st5" d="M75.91,63.53l0.16-0.26l-0.19-0.17l-0.02,0.03l-0.19,0.14l-0.28-0.06c-0.19-0.12-0.26-0.34-0.14-0.53
				l0.15-0.15l0.11,0.11l-0.12,0.12c-0.06,0.1-0.04,0.21,0.08,0.29c0.14,0.09,0.26,0.03,0.33-0.09l0.04-0.08l0.43,0.36l-0.24,0.38
				L75.91,63.53z"/>
			<path class="st5" d="M73.37,60.57l-0.23-0.15l0.12-0.19l0,0l0.16,0.27l0.12,0.18l0,0L73.37,60.57z M73.01,60.34l-0.25-0.16
				l-0.09,0.14l0.25,0.16l-0.06,0.1l0.13,0.08l0.07-0.1l0.59,0.38l0.1-0.15l-0.41-0.71l-0.11-0.07L73.01,60.34z"/>
			<path class="st5" d="M72.44,60.27l0.32,0.33l-0.09,0.18c-0.1-0.12-0.22-0.29-0.28-0.4L72.44,60.27z"/>
			<path class="st5" d="M72.98,61.67l0.17-0.26l-0.19-0.16l-0.02,0.03l-0.19,0.14l-0.28-0.06c-0.19-0.12-0.26-0.34-0.14-0.53
				l0.15-0.15l0.11,0.11l-0.12,0.12c-0.06,0.1-0.04,0.21,0.08,0.29c0.14,0.09,0.26,0.03,0.33-0.09l0.04-0.08l0.44,0.36l-0.24,0.38
				L72.98,61.67z"/>
			<path class="st5" d="M79.7,65.25l0.11,0.07l0.06,0.17c0.08,0.22,0.16,0.44,0.32,0.54l0.23-0.03l0.04-0.18l0.14,0.04l-0.06,0.24
				c-0.12,0.19-0.3,0.18-0.44,0.09c-0.18-0.12-0.27-0.33-0.34-0.54l-0.04-0.11l0,0l-0.2,0.31l-0.14-0.09L79.7,65.25z"/>
			<path class="st5" d="M76.94,63.55l-0.13,0.12l0.06,0.26c0.12,0.08,0.23,0.03,0.3-0.08l0.02-0.03l0.12,0.08l-0.01,0.02l0.04,0.26
				l0.21-0.04l0.04-0.15l0.13,0.05l-0.06,0.22c-0.1,0.16-0.26,0.17-0.38,0.09c-0.1-0.06-0.14-0.17-0.13-0.28l0,0
				c-0.09,0.07-0.22,0.1-0.36,0.01c-0.15-0.1-0.22-0.29-0.1-0.49l0.16-0.15L76.94,63.55z"/>
			<path class="st5" d="M74.31,62.2l-0.23-0.15l0.12-0.19l0,0l0.16,0.27l0.12,0.18l0,0L74.31,62.2z M73.95,61.97l-0.25-0.16
				l-0.09,0.14l0.25,0.16l-0.06,0.1l0.13,0.08l0.07-0.1l0.6,0.38l0.1-0.15l-0.41-0.71l-0.11-0.07L73.95,61.97z"/>
			<path class="st5" d="M71.44,60.69l0.17-0.26l-0.19-0.16L71.4,60.3l-0.19,0.14l-0.28-0.06c-0.19-0.12-0.26-0.34-0.14-0.53
				l0.15-0.15l0.11,0.11l-0.12,0.12c-0.06,0.1-0.04,0.21,0.08,0.29c0.14,0.09,0.26,0.03,0.33-0.09l0.04-0.08l0.44,0.36l-0.24,0.38
				L71.44,60.69z"/>
			<path class="st5" d="M85.1,67.82c-0.23-0.15-0.38-0.2-0.43-0.12c-0.05,0.07,0.07,0.19,0.29,0.33c0.22,0.14,0.38,0.2,0.43,0.12
				C85.44,68.09,85.33,67.97,85.1,67.82 M84.87,68.2c-0.35-0.22-0.42-0.44-0.33-0.59c0.12-0.18,0.38-0.13,0.67,0.05
				c0.3,0.19,0.44,0.41,0.33,0.6C85.4,68.45,85.13,68.37,84.87,68.2"/>
			<path class="st5" d="M84.2,67.75l0.32,0.33l-0.09,0.18c-0.1-0.12-0.22-0.29-0.28-0.4L84.2,67.75z"/>
			<path class="st5" d="M84.74,69.15l0.16-0.26l-0.19-0.17l-0.02,0.03L84.5,68.9l-0.28-0.06c-0.19-0.12-0.26-0.34-0.13-0.54
				l0.15-0.15l0.11,0.11l-0.12,0.11c-0.06,0.1-0.04,0.21,0.08,0.29c0.14,0.09,0.25,0.03,0.33-0.09l0.04-0.08l0.43,0.36l-0.24,0.38
				L84.74,69.15z"/>
			<polygon class="st5" points="78.87,74.07 78.79,74.05 78.74,73.83 82.12,68.52 82.34,68.48 82.38,68.69 79.01,74 			"/>
			<polygon class="st5" points="76.03,72.27 75.94,72.24 75.89,72.02 79.27,66.71 79.49,66.66 79.54,66.88 76.16,72.19 			"/>
			<polygon class="st5" points="73.13,70.42 73.05,70.4 73,70.18 76.37,64.87 76.59,64.82 76.64,65.04 73.26,70.35 			"/>
			<polygon class="st5" points="70.19,68.56 70.11,68.53 70.06,68.31 73.44,63 73.66,62.96 73.71,63.17 70.33,68.48 			"/>
			<polygon class="st5" points="67.24,66.68 67.16,66.65 67.11,66.43 70.48,61.12 70.7,61.07 70.75,61.3 67.38,66.6 			"/>
			<polygon class="st5" points="82.86,72.87 82.78,72.84 82.73,72.63 84.41,69.98 84.63,69.93 84.68,70.15 82.99,72.8 			"/>
			<polygon class="st5" points="81.36,71.92 81.28,71.89 81.23,71.67 82.92,69.03 83.13,68.98 83.18,69.2 81.5,71.84 			"/>
			<polygon class="st5" points="79.86,70.96 79.77,70.93 79.72,70.71 81.41,68.07 81.62,68.02 81.67,68.24 79.99,70.88 			"/>
			<polygon class="st5" points="76.98,69.13 76.9,69.1 76.85,68.88 78.53,66.24 78.75,66.19 78.79,66.41 77.11,69.05 			"/>
			<polygon class="st5" points="75.56,68.22 75.47,68.2 75.42,67.98 77.1,65.34 77.32,65.29 77.37,65.51 75.69,68.15 			"/>
			<polygon class="st5" points="74.08,67.28 73.99,67.26 73.95,67.04 75.63,64.4 75.85,64.35 75.89,64.57 74.21,67.21 			"/>
			<polygon class="st5" points="72.61,66.35 72.52,66.32 72.48,66.1 74.16,63.46 74.38,63.41 74.43,63.63 72.74,66.27 			"/>
			<polygon class="st5" points="71.15,65.42 71.06,65.39 71.01,65.17 72.69,62.53 72.92,62.48 72.96,62.7 71.28,65.34 			"/>
			<polygon class="st5" points="69.66,64.47 69.58,64.45 69.52,64.23 71.21,61.59 71.43,61.54 71.48,61.75 69.79,64.4 			"/>
			<polygon class="st5" points="78.43,70.05 78.35,70.03 78.3,69.81 79.98,67.17 80.2,67.12 80.25,67.34 78.57,69.98 			"/>
			<polygon class="st5" points="81.53,73.4 81.44,73.38 81.4,73.16 83.7,69.53 83.92,69.49 83.97,69.7 81.66,73.33 			"/>
			<polygon class="st5" points="81.53,73.4 81.44,73.38 81.4,73.16 83.7,69.53 83.92,69.49 83.97,69.7 81.66,73.33 			"/>
			<polygon class="st5" points="78.54,71.5 78.46,71.48 78.41,71.26 80.71,67.63 80.93,67.58 80.98,67.8 78.68,71.43 			"/>
			<polygon class="st5" points="75.66,69.67 75.58,69.65 75.53,69.43 77.83,65.8 78.05,65.75 78.1,65.97 75.79,69.6 			"/>
			<polygon class="st5" points="72.7,67.79 72.61,67.76 72.56,67.54 74.87,63.92 75.09,63.87 75.14,64.08 72.83,67.71 			"/>
			<polygon class="st5" points="69.76,65.92 69.68,65.9 69.63,65.68 71.94,62.05 72.16,62 72.21,62.22 69.9,65.85 			"/>
			<path class="st5" d="M55.43,51.53l1.02-1.6l-0.62-0.6c0.17,0.17,0.21,0.46,0.08,0.65l-0.79,1.25l0.04,0.33L55.43,51.53z
				 M55.05,50.56l0.78-1.23l-0.61-0.6c0.17,0.17,0.21,0.46,0.08,0.66l-0.56,0.88l0.04,0.33L55.05,50.56z M54.2,50.33l1.02-1.6
				l-0.62-0.6c0.16,0.16,0.21,0.46,0.08,0.66l-0.79,1.25l0.04,0.33L54.2,50.33z"/>
			<polygon class="st5" points="54.2,53.47 52.67,51.96 52.49,52.23 54.02,53.74 			"/>
			<path class="st5" d="M51.45,55.04c-0.11-0.25-0.12-0.46-0.02-0.62l0.12-0.09c0.09-0.01,0.21,0.06,0.36,0.21
				c0.26,0.25,0.3,0.5,0.14,0.76l-0.15,0.19L51.45,55.04z M51.92,55.91c0.11-0.1,0.23-0.24,0.34-0.41c0.28-0.43,0.22-0.84-0.16-1.22
				c-0.22-0.21-0.4-0.31-0.56-0.29c-0.11,0.01-0.21,0.08-0.29,0.21c-0.11,0.17-0.13,0.38-0.05,0.61l-0.22-0.18l-0.16,0.25l1.09,1.07
				L51.92,55.91z"/>
			<polygon class="st5" points="54.7,52.16 54.13,53.07 54.33,53.26 55.08,52.08 53.55,50.57 52.79,51.77 52.99,51.97 53.57,51.04 
				54.05,51.51 53.5,52.38 53.7,52.57 54.25,51.71 			"/>
		</g>
		<g>
			<defs>
				<rect id="SVGID_00000176012206139796372370000013255969219693936278_" x="2.28" y="11.96" width="100.84" height="100.84"/>
			</defs>
			<clipPath id="SVGID_00000021090165481049026500000008484885539570113970_">
				<use xlink:href="#SVGID_00000176012206139796372370000013255969219693936278_"  style="overflow:visible;"/>
			</clipPath>
			<path style="clip-path:url(#SVGID_00000021090165481049026500000008484885539570113970_);fill:#13110C;" d="M52.61,54.11
				c-0.08-0.08-0.08-0.19,0.01-0.33l0.24-0.37c0.16,0.19,0.17,0.38,0.04,0.59l-0.18,0.16L52.61,54.11z M53.1,54.18
				c0.25-0.4,0.2-0.79-0.17-1.14c-0.21-0.2-0.39-0.29-0.57-0.27c-0.15,0.02-0.29,0.12-0.41,0.31c-0.12,0.19-0.17,0.39-0.15,0.6
				l0,0.01l0.22,0.22l-0.01-0.08c-0.02-0.19,0.03-0.38,0.14-0.56l0.22-0.17l0.27,0.12l-0.24,0.38c-0.2,0.31-0.19,0.58,0.02,0.79
				l0.29,0.12C52.85,54.49,52.97,54.38,53.1,54.18"/>
			<path style="clip-path:url(#SVGID_00000021090165481049026500000008484885539570113970_);fill:#FFFFFF;" d="M26.26,20.26
				c0,0-1.33-0.83-3.35-0.58c-2.27,0.29-2.49,0.37-4.01,0.82c-1.52,0.46-1.67,1.06-5.02,0.76c-3.34-0.3-16.26-0.91-16.26-0.91v62.32
				c0,0,1.98,0,6.23-0.3c4.26-0.3,10.34-4.56,10.34-4.56s5.17-0.15,8.97-0.61c3.8-0.46,7.45-1.06,8.36-3.65
				c0.91-2.58,0.76-5.93,0.76-5.93s2.59,0.46,3.95-1.67c1.37-2.13,3.35-8.06,3.35-8.06s1.06-1.06,1.21-3.19
				c0.15-2.13-0.3-3.95-0.3-3.95s5.93-2.89,6.99-4.56c1.06-1.67,3.04-2.58,3.49-3.34c0.46-0.76,0.76-5.01-1.52-6.08
				c-2.28-1.06-7.9-0.91-10.64-0.76c-2.74,0.15-6.84,0.46-6.84,0.46s-5.78,0-10.03-0.46c-4.26-0.46-8.66-0.15-8.66-0.15l-5.62-1.06
				l4.56-1.06c0,0,5.63-0.23,6.3-1.32c0.79-1.3,4.65-7.39,4.65-7.39L26.26,20.26z"/>
			<path style="clip-path:url(#SVGID_00000021090165481049026500000008484885539570113970_);fill:#1F1F1D;" d="M-2.22,20.52v61.99
				c0.55-0.01,2.53-0.05,6.06-0.3c4.16-0.3,10.2-4.49,10.26-4.53l0.09-0.03c0.05,0,5.2-0.16,8.95-0.61
				c3.84-0.46,7.36-1.08,8.23-3.54c0.89-2.52,0.75-5.83,0.75-5.87l0.05-0.13l0.13-0.04c0.03,0,2.5,0.41,3.79-1.6
				c1.34-2.09,3.31-7.96,3.33-8.02l0.04-0.06c0.01-0.01,1.03-1.05,1.17-3.09c0.15-2.08-0.3-3.88-0.3-3.9l0.08-0.18
				c0.06-0.03,5.9-2.89,6.93-4.5c0.64-1.01,1.61-1.74,2.38-2.33c0.51-0.39,0.95-0.72,1.12-1.01c0.25-0.41,0.51-2.32,0.02-3.93
				c-0.29-0.96-0.79-1.61-1.47-1.93c-2.3-1.07-8.16-0.88-10.56-0.74c-2.7,0.15-6.8,0.45-6.84,0.45h-0.01
				c-0.3,0-5.92-0.01-10.05-0.46c-4.19-0.45-8.59-0.15-8.63-0.15l-0.04,0l-5.62-1.06L7.5,34.79l0.12-0.16l4.56-1.06
				c1.57-0.07,5.69-0.42,6.2-1.25c0.79-1.28,4.61-7.33,4.65-7.39l3.01-4.61c-0.38-0.2-1.53-0.67-3.11-0.48
				c-2.19,0.28-2.44,0.35-3.85,0.78l-0.13,0.04c-0.36,0.11-0.64,0.23-0.92,0.34c-0.85,0.35-1.59,0.66-4.16,0.43
				C10.78,21.14-0.69,20.59-2.22,20.52 M-2.38,82.83l-0.16-0.16V20.35l0.05-0.11l0.12-0.04c0.13,0.01,12.96,0.61,16.27,0.91
				c2.49,0.23,3.16-0.05,4.01-0.4c0.28-0.12,0.57-0.24,0.95-0.35l0.13-0.04c1.39-0.42,1.69-0.51,3.9-0.79
				c2.06-0.26,3.4,0.57,3.46,0.6l0.07,0.1l-0.02,0.12l-3.1,4.76c-0.04,0.06-3.86,6.1-4.65,7.38c-0.69,1.13-5.85,1.38-6.43,1.4
				l-3.8,0.89l4.87,0.92c0.33-0.02,4.6-0.28,8.67,0.15c4.2,0.45,9.96,0.46,10.01,0.46c0.03,0,4.12-0.3,6.83-0.46
				c2.44-0.13,8.35-0.33,10.72,0.78c0.77,0.36,1.32,1.07,1.64,2.12c0.51,1.68,0.26,3.67-0.05,4.18c-0.2,0.34-0.64,0.67-1.2,1.09
				c-0.75,0.57-1.69,1.29-2.3,2.25c-1.01,1.58-6.09,4.14-6.94,4.56c0.1,0.45,0.41,2.04,0.28,3.88c-0.14,2-1.06,3.08-1.24,3.26
				c-0.18,0.53-2.02,6-3.35,8.06c-1.19,1.85-3.28,1.82-3.92,1.76c0.02,0.75,0.01,3.57-0.77,5.8c-0.93,2.64-4.55,3.28-8.49,3.75
				c-3.57,0.43-8.4,0.59-8.93,0.61c-0.57,0.4-6.26,4.27-10.38,4.56C-0.35,82.82-2.35,82.83-2.38,82.83"/>
			<path style="clip-path:url(#SVGID_00000021090165481049026500000008484885539570113970_);fill:#1F1F1D;" d="M7.77,35.01
				L7.77,35.01c-0.29,0-7.11-0.02-9.89-1.7l-0.05-0.22l0.22-0.05c2.7,1.63,9.66,1.65,9.73,1.65l0.16,0.16L7.77,35.01z"/>
			<path style="clip-path:url(#SVGID_00000021090165481049026500000008484885539570113970_);fill:#1F1F1D;" d="M6.29,56.83
				c-0.12,0-0.24-0.01-0.36-0.02C3.3,56.59-0.25,54.49-0.4,54.4l-0.06-0.22l0.22-0.05c0.04,0.02,3.65,2.15,6.2,2.37
				c2.53,0.22,5.44-2.22,5.47-2.24l0.22,0.02l-0.02,0.22C11.52,54.6,8.85,56.83,6.29,56.83"/>
			<path style="clip-path:url(#SVGID_00000021090165481049026500000008484885539570113970_);fill:#1F1F1D;" d="M6.78,71.88
				c-0.13,0-0.26,0-0.39-0.01c-3.29-0.23-8.31-1.82-8.36-1.83l-0.1-0.2l0.2-0.1c0.05,0.02,5.04,1.59,8.28,1.82
				c3.23,0.23,8.41-2.69,8.46-2.72l0.22,0.06l-0.06,0.22C14.82,69.23,10.09,71.88,6.78,71.88"/>
			<path style="clip-path:url(#SVGID_00000021090165481049026500000008484885539570113970_);fill:#1F1F1D;" d="M2.98,78.82
				c-3.19,0-5.01-0.91-5.09-0.95l-0.07-0.21l0.21-0.07c0.02,0.01,1.83,0.91,4.94,0.91c2.05,0,4.24-0.58,5.84-1.01
				c0.91-0.24,1.63-0.43,2.13-0.47c1.39-0.12,3.26,0.55,3.33,0.58l0.1,0.2l-0.2,0.1c-0.02-0.01-1.9-0.67-3.2-0.56
				c-0.47,0.04-1.21,0.24-2.08,0.47C7.28,78.23,5.07,78.82,2.98,78.82"/>
		</g>
		<g>
			<path class="st1" d="M17.46,71.41l-0.11-0.04l-0.01-0.22c0.08-0.09,2.05-2.2,2.91-2.55c0.7-0.29,3.53-0.41,5.8-0.51
				c0.53-0.02,1.02-0.04,1.44-0.07c2.13-0.11,4.63-0.52,4.66-0.53l0.18,0.13l-0.13,0.18c-0.03,0-2.54,0.42-4.69,0.53
				c-0.42,0.02-0.91,0.04-1.44,0.07c-2.13,0.09-5.04,0.23-5.69,0.49c-0.79,0.33-2.77,2.45-2.79,2.47L17.46,71.41z"/>
			<path class="st1" d="M16.66,55.22l-0.13-0.06l0.04-0.22c0.09-0.07,2.22-1.62,3.95-1.85c1.13-0.15,3.29,0.09,5.58,0.34
				c1.21,0.13,2.46,0.27,3.58,0.35c3.48,0.25,5.78-0.6,7.09-1.35c1.58-0.91,3.72-1.82,3.74-1.83l0.21,0.08l-0.09,0.21
				c-0.02,0.01-2.14,0.92-3.71,1.82c-1.36,0.77-3.73,1.65-7.27,1.39c-1.12-0.08-2.38-0.22-3.59-0.35c-2.27-0.25-4.41-0.48-5.5-0.33
				c-1.65,0.22-3.78,1.78-3.8,1.8L16.66,55.22z"/>
			<path class="st1" d="M48.19,45.32L48.19,45.32l-0.16-0.16c0-0.03,0.05-3.11,0.16-4.36c0.12-1.28,1.75-3.48,1.82-3.57l0.22-0.03
				l0.03,0.22c-0.02,0.02-1.65,2.22-1.76,3.41c-0.11,1.23-0.16,4.3-0.16,4.34L48.19,45.32z"/>
			<path class="st1" d="M21.11,21.59c-1.46,0-4.79-0.06-4.83-0.06l-0.16-0.16l0.16-0.16h0c0.03,0,3.36,0.06,4.82,0.06
				c1.5,0,4.36-0.79,4.97-1.16l0.22,0.06l-0.06,0.22C25.53,20.81,22.57,21.59,21.11,21.59"/>
			<polygon class="st6" points="93.55,59.21 86.12,62.17 86.42,67.58 86.7,72.48 87.21,76.44 87.93,78.89 88.79,80.41 96.07,80.04 
							"/>
			<path class="st1" d="M86.56,30.4c-0.07,1.35-0.3,2.7-0.81,3.99c-0.27,0.64-0.6,1.28-1.15,1.81c-0.56,0.52-1.12,0.86-1.68,1.23
				c-2.2,1.46-4.51,2.9-5.93,4.94c-0.36,0.5-0.59,1.06-0.72,1.64c-0.08,0.55-0.04,1.23,0.02,1.9c0.1,1.32,0.21,2.66,0.77,3.83
				c0.29,0.57,0.7,1.08,1.21,1.48c0.51,0.4,1.09,0.68,1.69,1.02c1.17,0.67,2.32,1.4,3.35,2.31c1.02,0.91,1.97,1.97,2.57,3.26
				c0.32,0.63,0.53,1.32,0.68,2.03c0.13,0.73,0.16,1.39,0.21,2.06c0.19,2.68,0.35,5.35,0.49,8.01c0.06,1.33,0.14,2.66,0.23,3.98
				c0.1,1.33,0.19,2.62,0.57,3.85c0.37,1.23,0.75,2.53,1.66,3.35c0.87,0.87,2.36,0.62,3.67,0.8l0.06,0.07l-0.06,0.06l-2.01,0.14
				c-0.69,0.06-1.48-0.11-2.06-0.56c-1.19-0.92-1.74-2.29-2.21-3.56c-0.48-1.31-0.67-2.71-0.84-4.03c-0.17-1.34-0.27-2.68-0.37-4.02
				c-0.18-2.68-0.23-5.36-0.33-8.02c-0.04-1.37-0.1-2.56-0.62-3.74c-0.48-1.16-1.23-2.23-2.13-3.17c-0.92-0.92-1.95-1.76-3.1-2.43
				c-1.14-0.62-2.4-1.42-3.04-2.69c-0.64-1.24-0.88-2.61-1.11-3.93c-0.11-0.66-0.23-1.32-0.19-2.1c0.09-0.74,0.32-1.47,0.71-2.08
				c0.74-1.26,1.8-2.2,2.89-3.02c1.1-0.82,2.26-1.53,3.42-2.2c0.56-0.34,1.19-0.66,1.64-1.01c0.45-0.37,0.81-0.9,1.1-1.47
				c0.59-1.15,0.99-2.43,1.29-3.73l0.07-0.05L86.56,30.4z"/>
			<path class="st1" d="M90.59,55.97c0.41,1.89,0.71,3.8,0.9,5.72c0.19,1.93,0.28,3.87,0.14,5.82c-0.14,1.95-0.49,3.88-0.95,5.77
				c-0.46,1.9-1.01,3.75-1.7,5.61c-0.12,0.33-0.49,0.5-0.82,0.37c-0.33-0.12-0.5-0.49-0.38-0.82l0.01-0.03l0.01-0.02
				c0.75-1.72,1.41-3.54,1.96-5.37c0.55-1.83,0.99-3.69,1.24-5.58c0.24-1.89,0.26-3.82,0.18-5.74C91.09,59.8,90.9,57.87,90.59,55.97
				"/>
			<path class="st5" d="M2.5,112.59h100.4V12.19H2.5V112.59z M103.34,113.03H2.05V11.74h101.29V113.03z"/>
		</g>
	</g>
	<g>
		<g>
			<rect x="2.28" y="11.91" class="st12" width="101.35" height="100.43"/>
		</g>
		<g>
			<path class="st13" d="M112.11,14.08c0,5.96-4.83,10.79-10.79,10.79c-5.96,0-10.79-4.83-10.79-10.79
				c0-5.96,4.83-10.79,10.79-10.79C107.28,3.29,112.11,8.12,112.11,14.08z"/>
			<g>
				<path class="st14" d="M97.08,16.99c0-1.33,1.09-2.29,2.37-2.72c-1.19-0.38-2.2-1.17-2.2-2.5c0-1.96,2.01-2.77,3.87-2.77
					c1.87,0,3.87,0.81,3.87,2.77c0,1.33-1.01,2.12-2.2,2.5c1.28,0.43,2.37,1.39,2.37,2.72c0,1.9-1.9,2.91-4.05,2.91
					C98.96,19.9,97.08,18.89,97.08,16.99z M103.29,16.76c0-1.09-1.52-1.57-2.17-1.66c-0.66,0.09-2.17,0.57-2.17,1.66
					c0,0.93,0.96,1.5,2.17,1.5C102.29,18.26,103.29,17.69,103.29,16.76z M103.12,12.06c0-0.9-0.85-1.41-1.99-1.41
					c-1.14,0-1.99,0.51-1.99,1.41c0,0.98,1.36,1.36,1.99,1.47C101.77,13.42,103.12,13.04,103.12,12.06z"/>
			</g>
		</g>
	</g>
</g>
</svg>
