<?xml version="1.0" encoding="utf-8"?>
<!-- Generator: Adobe Illustrator 26.0.0, SVG Export Plug-In . SVG Version: 6.00 Build 0)  -->
<svg version="1.1" id="Capa_1" xmlns="http://www.w3.org/2000/svg" xmlns:xlink="http://www.w3.org/1999/xlink" x="0px" y="0px"
	 viewBox="0 0 119.02 111.58" style="enable-background:new 0 0 119.02 111.58;" xml:space="preserve">
<style type="text/css">
	.st0{clip-path:url(#SVGID_00000109025296343582481830000013752121541131172522_);fill:#FFFFFF;}
	.st1{clip-path:url(#SVGID_00000109025296343582481830000013752121541131172522_);fill:#1F1F1D;}
	.st2{fill:#1F1F1D;}
	.st3{fill:#F8F7F6;}
	.st4{fill:#6F6B6C;}
	.st5{clip-path:url(#SVGID_00000114074740476163456880000014099423030284659127_);fill:#F8F7F6;}
	.st6{clip-path:url(#SVGID_00000114074740476163456880000014099423030284659127_);fill:#1F1F1D;}
	.st7{clip-path:url(#SVGID_00000114074740476163456880000014099423030284659127_);fill:#FFFFFF;}
	.st8{fill:#FFFFFF;}
	.st9{fill:#F0E2F1;}
	.st10{fill:#13110C;}
	.st11{clip-path:url(#SVGID_00000089575221524045626020000008171188906562112389_);fill:#13110C;}
	.st12{clip-path:url(#SVGID_00000089575221524045626020000008171188906562112389_);fill:#1F1F1D;}
	.st13{clip-path:url(#SVGID_00000129899297657694990210000013677656561891134862_);fill:#F8F7F6;}
	.st14{fill:#969494;}
	.st15{fill:#BC8EBF;}
	.st16{fill:#ECEDED;}
	.st17{clip-path:url(#SVGID_00000021829756137853018870000014524317888490845350_);fill:#6F6B6C;}
	.st18{clip-path:url(#SVGID_00000021829756137853018870000014524317888490845350_);fill:#FFFFFF;}
	.st19{clip-path:url(#SVGID_00000021829756137853018870000014524317888490845350_);fill:#1F1F1D;}
	.st20{clip-path:url(#SVGID_00000075158928380499778890000004548752067115463357_);fill:#1F1F1D;}
	.st21{clip-path:url(#SVGID_00000075158928380499778890000004548752067115463357_);fill:#FFFFFF;}
	.st22{clip-path:url(#SVGID_00000133518494751982623750000005829608423346435753_);fill:#FFFFFF;}
	.st23{clip-path:url(#SVGID_00000133518494751982623750000005829608423346435753_);fill:#1F1F1D;}
	.st24{clip-path:url(#SVGID_00000039826157643416139080000006291833909651893642_);fill:#1F1F1D;}
	.st25{clip-path:url(#SVGID_00000039826157643416139080000006291833909651893642_);fill:#FFFFFF;}
	.st26{fill:#C6C4C4;}
	.st27{fill:#1F1F1C;}
	.st28{clip-path:url(#SVGID_00000098903815358390161670000016306806967469886885_);fill:#13110C;}
	.st29{clip-path:url(#SVGID_00000098903815358390161670000016306806967469886885_);fill:#1F1F1D;}
	.st30{fill:#828181;}
	.st31{fill:#D9D8D9;}
	.st32{clip-path:url(#SVGID_00000075159127574729821200000007162539885540686778_);fill:#6F6B6C;}
	.st33{clip-path:url(#SVGID_00000075159127574729821200000007162539885540686778_);fill:#FFFFFF;}
	.st34{clip-path:url(#SVGID_00000075159127574729821200000007162539885540686778_);fill:#1F1F1D;}
	.st35{clip-path:url(#SVGID_00000148660249792390194730000004927474235091824058_);fill:#1F1F1D;}
	.st36{clip-path:url(#SVGID_00000148660249792390194730000004927474235091824058_);fill:#FFFFFF;}
	.st37{fill:none;stroke:#662982;stroke-width:1.9;stroke-miterlimit:10;}
	.st38{fill:#FFFFFF;stroke:#662982;stroke-width:1.9;stroke-miterlimit:10;}
	.st39{fill:#662982;}
</style>
<g>
	<g>
		<g>
			<defs>
				<rect id="SVGID_1_" x="55.49" y="11.99" width="52.23" height="97.69"/>
			</defs>
			<clipPath id="SVGID_00000176739290355951484330000006900451047191389099_">
				<use xlink:href="#SVGID_1_"  style="overflow:visible;"/>
			</clipPath>
			<path style="clip-path:url(#SVGID_00000176739290355951484330000006900451047191389099_);fill:#FFFFFF;" d="M122.84,49.4
				c-0.29-0.04-3.76-0.64-5.54-1.26c-1.78-0.63-3.51-1.71-3.51-1.71s-2.13,1.25-4.94,1.83c-2.8,0.58-5.2,0.17-5.2,0.17
				s-3.32,1.97-4.93,2.24c-1.6,0.27-5.3,0.51-6.38-1.54c-0.52-0.98-0.35-3.3,1.02-4.47c1.36-1.17,7.88-5.96,8.14-6.17
				c0.26-0.2-8.66,6.12-9.69,7.78c-1.6,2.56-2.42,2.63-3.73,2.88c-1.31,0.25-3.52-3.09-4.05-4.9C83.5,42.44,84.25,32,84.25,32
				l7.56-1.6l10.05,5.71l25.52,1.98L122.84,49.4z"/>
			<path style="clip-path:url(#SVGID_00000176739290355951484330000006900451047191389099_);fill:#1F1F1D;" d="M93.15,45.1
				c-1,1.17-1.12,3.09-0.66,3.96c1.18,2.24,5.71,1.55,6.22,1.46c1.56-0.26,4.84-2.2,4.88-2.22l0.05-0.03l0.06,0.01
				c0.02,0,2.4,0.4,5.14-0.17c2.75-0.57,4.87-1.8,4.89-1.82l0.08-0.05l0.08,0.05c0.02,0.01,1.73,1.08,3.48,1.7
				c1.6,0.56,4.69,1.13,5.39,1.24l4.41-11l-25.37-1.98l-10-5.69l-7.39,1.56c-0.08,1.15-0.7,10.42-0.21,12.08
				c0.55,1.87,2.7,5,3.87,4.79l0.13-0.02c1.2-0.22,1.99-0.37,3.5-2.78c0.18-0.29,0.61-0.74,1.26-1.32c0.1-0.12,0.21-0.22,0.33-0.32
				c0.22-0.19,0.57-0.47,1.01-0.82c0.74-0.6,1.63-1.3,2.66-2.08c0.04-0.03,3.2-2.41,4.26-3.12c0.12-0.08,0.19-0.14,0.21-0.16
				l0.01,0.02l0.11-0.05l0.1,0.02l0.05,0.2l-0.08,0.07c-0.05,0.04-0.34,0.25-0.78,0.58c-1.48,1.09-4.51,3.34-6.27,4.71
				C94.03,44.33,93.55,44.73,93.15,45.1 M96.6,51c-1.61,0-3.61-0.33-4.39-1.8c-0.38-0.73-0.4-2.12,0.1-3.3
				c-0.17,0.18-0.29,0.33-0.37,0.46c-1.58,2.53-2.43,2.68-3.7,2.92l-0.13,0.02l-0.16,0.01c-1.43,0-3.54-3.23-4.06-5.02
				c-0.54-1.81,0.18-11.88,0.21-12.31l0.01-0.12l0.12-0.02l7.62-1.61l0.05,0.03l10.02,5.7l25.69,2l-4.66,11.61l-0.12-0.01
				c-0.21-0.03-3.73-0.62-5.58-1.27c-1.56-0.55-3.1-1.46-3.46-1.68c-0.42,0.23-2.41,1.29-4.9,1.81c-2.56,0.53-4.81,0.24-5.2,0.18
				c-0.43,0.25-3.41,1.98-4.94,2.23C98.42,50.88,97.58,51,96.6,51"/>
			<path style="clip-path:url(#SVGID_00000176739290355951484330000006900451047191389099_);fill:#1F1F1D;" d="M103.36,48.76
				l-0.12-0.06l0.03-0.21c0.02-0.01,1.5-1.12,2.59-3.09c0.43-0.79,0.85-2.63,0.86-2.64l0.18-0.12l0.12,0.18
				c-0.02,0.08-0.44,1.9-0.89,2.73c-1.13,2.04-2.62,3.15-2.68,3.19L103.36,48.76z"/>
			<path style="clip-path:url(#SVGID_00000176739290355951484330000006900451047191389099_);fill:#FFFFFF;" d="M40.37,66.58
				c0.29-0.04,3.76-0.64,5.54-1.26c1.78-0.63,3.51-1.71,3.51-1.71s2.13,1.25,4.94,1.83c2.8,0.58,5.2,0.17,5.2,0.17
				s3.32,1.97,4.93,2.24c1.6,0.27,5.29,0.51,6.38-1.54c0.52-0.98,0.35-3.3-1.02-4.47c-1.36-1.17-7.88-5.96-8.14-6.16
				c-0.26-0.2,9.68,7.03,11.53,7.63c4.45,1.45,6.8,0.82,8.27,0.18c0.9-0.39,1.46-0.78,1.96-0.68c1.31,0.25-0.18,0.46,0.35-1.35
				c0.53-1.81,0.99-12.78,0.99-12.78l-13.41-1.1L61.35,53.3l-25.52,1.98L40.37,66.58z"/>
			<path style="clip-path:url(#SVGID_00000176739290355951484330000006900451047191389099_);fill:#1F1F1D;" d="M59.58,65.45
				l0.05,0.03c0.04,0.02,3.32,1.96,4.87,2.22c0.51,0.09,5.04,0.77,6.22-1.46c0.5-0.95,0.32-3.17-0.98-4.28
				c-1.09-0.93-5.45-4.16-7.31-5.55c-0.47-0.35-0.77-0.57-0.82-0.62l-0.12-0.09l0.09-0.12c0.06-0.08,0.08-0.11,0.22-0.02l0-0.01
				l0.05,0.04c0.08,0.05,0.18,0.12,0.33,0.23c7.87,5.64,10.38,7.11,11.11,7.34c5.11,1.67,7.42,0.56,8.8-0.11
				c0.57-0.28,0.98-0.47,1.41-0.4l0.13,0.03c-0.09-0.26-0.13-0.66,0.05-1.27c0.49-1.66,0.92-11.29,0.98-12.6l-13.22-1.08
				l-10.08,5.71l-25.31,1.97l4.41,11c0.66-0.11,3.72-0.65,5.4-1.24c1.74-0.61,3.46-1.69,3.48-1.7l0.08-0.05l0.08,0.05
				c0.02,0.01,2.14,1.24,4.89,1.81c2.74,0.57,5.12,0.18,5.14,0.17L59.58,65.45z M66.61,68.18c-0.99,0-1.83-0.12-2.16-0.18
				c-1.53-0.25-4.5-1.98-4.93-2.23c-0.38,0.06-2.63,0.35-5.2-0.18c-2.49-0.52-4.48-1.58-4.9-1.81c-0.36,0.22-1.9,1.13-3.46,1.68
				c-1.84,0.65-5.37,1.25-5.57,1.27l-0.12,0.02l-0.04-0.11l-4.61-11.5l25.69-2l10.06-5.72l0.05,0.01l13.56,1.11l-0.01,0.15
				c-0.02,0.45-0.47,11.01-1,12.82c-0.29,0.97,0.04,1.27,0.11,1.32l0.1,0.12l0.02,0.1l-0.09,0.06l-0.19-0.02
				c-0.05-0.02-0.19-0.07-0.48-0.12c-0.31-0.06-0.69,0.12-1.21,0.37c-1.42,0.68-3.81,1.83-9.03,0.12c-0.59-0.19-2.03-1.05-4.25-2.54
				c0.44,0.34,0.79,0.62,1.01,0.81c1.4,1.2,1.6,3.62,1.05,4.66C70.22,67.86,68.22,68.18,66.61,68.18"/>
			<path style="clip-path:url(#SVGID_00000176739290355951484330000006900451047191389099_);fill:#1F1F1D;" d="M59.84,65.94
				l-0.09-0.03c-0.06-0.05-1.55-1.16-2.68-3.2c-0.46-0.82-0.87-2.65-0.89-2.72l0.12-0.18l0.18,0.12c0,0.02,0.42,1.86,0.86,2.64
				c1.09,1.98,2.58,3.09,2.59,3.09l0.03,0.22L59.84,65.94z"/>
			<path style="clip-path:url(#SVGID_00000176739290355951484330000006900451047191389099_);fill:#FFFFFF;" d="M117.84,10.27h-37.5
				c0,0-1.56,3.69-1.99,4.83c-0.43,1.14-4.26,5.82-3.83,8.1c0.42,2.27,3.12,4.4,6.11,2.98c2.98-1.42,6.51-4.63,8.22-6.58
				c1.72-1.95,2-2.8,2-2.8s2.13,0.85,5.26,0.28c3.12-0.57,4.54-2.13,4.54-2.13s2.84,2.7,7.1,3.12c4.26,0.43,8.1-0.85,8.1-0.85
				s-2.56,2.84-2.27,5.11c0.29,2.27,1.85,4.83,1.85,4.83l4.54,0.14V9.56L117.84,10.27z"/>
			<path style="clip-path:url(#SVGID_00000176739290355951484330000006900451047191389099_);fill:#1F1F1D;" d="M115.51,27.02
				l4.3,0.13V9.77l-1.93,0.64l-0.05,0.01h-37.4c-0.25,0.58-1.56,3.71-1.95,4.73c-0.13,0.34-0.54,0.97-1.06,1.76
				c-1.22,1.87-3.06,4.7-2.77,6.25c0.22,1.19,1.08,2.3,2.22,2.88c1.14,0.58,2.44,0.58,3.67-0.01c3.05-1.45,6.56-4.71,8.18-6.54
				c1.67-1.88,1.97-2.74,1.97-2.75l0.08-0.09l0.12,0c0.02,0.01,2.13,0.83,5.17,0.27c3.04-0.55,4.45-2.07,4.46-2.08l0.11-0.05
				l0.11,0.04c0.03,0.03,2.85,2.67,7.01,3.08c4.17,0.42,7.99-0.83,8.03-0.85l0.18,0.06l-0.02,0.19c-0.02,0.03-2.51,2.82-2.23,4.99
				C113.98,24.33,115.26,26.59,115.51,27.02 M119.97,27.47L119.97,27.47l-4.55-0.14l-0.13-0.07c-0.06-0.11-1.58-2.61-1.87-4.89
				c-0.23-1.83,1.29-3.97,1.98-4.84c-1.18,0.32-4.31,1.05-7.67,0.71c-3.79-0.38-6.51-2.57-7.08-3.07c-0.39,0.37-1.83,1.58-4.52,2.07
				c-2.72,0.49-4.67-0.06-5.2-0.24c-0.15,0.32-0.63,1.18-1.97,2.7c-1.63,1.85-5.19,5.14-8.28,6.61c-1.31,0.63-2.71,0.63-3.94,0.01
				c-1.23-0.63-2.15-1.81-2.39-3.1c-0.31-1.68,1.57-4.56,2.82-6.48c0.49-0.75,0.91-1.39,1.02-1.7c0.42-1.12,1.98-4.8,1.99-4.84
				l0.14-0.09h37.47l2.11-0.7l0.14,0.02l0.06,0.12v17.75l-0.05,0.11L119.97,27.47z"/>
			<path style="clip-path:url(#SVGID_00000176739290355951484330000006900451047191389099_);fill:#1F1F1D;" d="M90.85,16.95
				l-0.15-0.15c0-0.03-0.11-2.59-0.32-3.63c-0.2-1.02-1.34-2.48-1.35-2.49l0.03-0.21l0.22,0.03c0.05,0.06,1.2,1.53,1.41,2.62
				C90.9,14.18,91,16.69,91,16.79L90.85,16.95L90.85,16.95z"/>
		</g>
		<g>
			<polygon class="st2" points="100.72,11.99 100.5,14.94 100.64,15.11 100.65,15.11 100.81,14.97 101.03,11.99 			"/>
			<path class="st3" d="M76.6,64.26c-1.84,0.18-3.63,0.43-5.32,0.73c0,0.55-0.1,1.05-0.29,1.4c-0.78,1.47-2.77,1.8-4.38,1.8
				c-0.99,0-1.83-0.12-2.16-0.18c-0.45-0.08-1.03-0.28-1.63-0.54c-1.33,0.67-2.08,1.35-2.08,1.96c0,0.07,0.01,0.13,0.03,0.2l0,0
				c0.01,0.05,0.03,0.1,0.05,0.15c0.46,0.93,2.72,1.87,6.37,2.59c2.63,0.52,5.92,0.92,9.58,1.15l-0.01-9.25
				C76.71,64.27,76.66,64.26,76.6,64.26"/>
			<path class="st3" d="M70.98,65.04c-1.2,0.22-2.36,0.48-3.45,0.77c-1.74,0.46-3.21,0.96-4.33,1.48c0.49,0.2,0.94,0.35,1.31,0.41
				c0.21,0.03,1.06,0.17,2.09,0.17c1.53,0,3.43-0.29,4.13-1.63C70.88,65.94,70.97,65.52,70.98,65.04"/>
			<path class="st4" d="M76.77,64.24c-0.06,0-0.12,0.01-0.18,0.02c0.06,0.01,0.12,0.01,0.18,0.02V64.24z M71.28,64.99
				c-0.1,0.02-0.2,0.04-0.3,0.06c-0.01,0.47-0.1,0.9-0.26,1.2c-0.71,1.34-2.61,1.63-4.13,1.63c-1.03,0-1.88-0.13-2.09-0.17
				c-0.36-0.06-0.82-0.21-1.31-0.41c-0.13,0.06-0.25,0.12-0.37,0.18c0.6,0.26,1.18,0.46,1.63,0.53c0.33,0.05,1.17,0.18,2.16,0.18
				c1.61,0,3.61-0.33,4.38-1.8C71.18,66.04,71.28,65.54,71.28,64.99"/>
		</g>
		<g>
			<defs>
				<rect id="SVGID_00000070115869220836450830000005761050095559585972_" x="55.49" y="11.99" width="52.23" height="97.69"/>
			</defs>
			<clipPath id="SVGID_00000103964695306751379360000015890779609445535874_">
				<use xlink:href="#SVGID_00000070115869220836450830000005761050095559585972_"  style="overflow:visible;"/>
			</clipPath>
			<path style="clip-path:url(#SVGID_00000103964695306751379360000015890779609445535874_);fill:#F8F7F6;" d="M92.52,64.35l0,9.11
				c3.38-0.25,6.4-0.64,8.83-1.14c3.47-0.72,5.62-1.62,6.08-2.53c0.03-0.05,0.04-0.1,0.06-0.15h0c0.02-0.07,0.03-0.14,0.03-0.21
				C107.53,67.74,101.48,65.34,92.52,64.35"/>
			<path style="clip-path:url(#SVGID_00000103964695306751379360000015890779609445535874_);fill:#1F1F1D;" d="M84.14,63.89
				c-5.99,0-11.89,0.68-16.61,1.92c-4.18,1.09-6.78,2.48-6.78,3.62c0,2.09,9.4,4.32,23.39,4.32s23.39-2.23,23.39-4.32
				C107.53,67.25,97.49,63.89,84.14,63.89 M84.14,74.06c-13.29,0-23.7-2.03-23.7-4.63c0-2.65,10.57-5.85,23.7-5.85
				c13.13,0,23.7,3.2,23.7,5.85C107.84,72.03,97.43,74.06,84.14,74.06"/>
			<path style="clip-path:url(#SVGID_00000103964695306751379360000015890779609445535874_);fill:#FFFFFF;" d="M54.63,7.32
				c0.64,0.32,11.51,3.73,11.51,3.73s4.58,2.34,9.16,5.86c4.58,3.52,11.98,10.87,12.84,11.61c0.85,0.75,6.12,4.97,3.46,9.21
				c-1.33,2.13-3.09,2.77-6.28,1.17c-3.2-1.6-9.48-4.42-10.87-6.44c-0.06-0.09-0.85-0.48-2.03-0.96c-2.43-1-8.55-3.31-8.74-5.01
				c-0.05-0.48-1.17,0.53-3.41,0.32c-2.24-0.21-6.82-2.24-6.82-2.24L54.63,7.32z"/>
			<path style="clip-path:url(#SVGID_00000103964695306751379360000015890779609445535874_);fill:#1F1F1D;" d="M63.53,26.22
				l0.18,0.05c0.05,0.03,0.11,0.1,0.12,0.22c0.16,1.46,5.42,3.58,7.94,4.6l0.7,0.29c0.2,0.08,1.95,0.8,2.09,1.01
				c1.15,1.69,5.8,3.95,9.19,5.6c0.59,0.29,1.14,0.55,1.62,0.79c2.91,1.46,4.68,1.13,6.08-1.12c1.12-1.8,1.47-4.81-3.29-8.9
				l-0.14-0.12c-0.19-0.17-0.69-0.64-1.44-1.36c-2.54-2.44-7.84-7.51-11.39-10.24c-4.52-3.47-9.09-5.82-9.14-5.84
				c-0.4-0.12-9.68-3.04-11.29-3.64l-1.15,16.94c0.68,0.29,4.66,1.99,6.67,2.18c1.26,0.12,2.16-0.16,2.7-0.33
				C63.23,26.27,63.4,26.22,63.53,26.22 M88.4,39.96c-0.9,0-1.94-0.31-3.15-0.91c-0.48-0.24-1.03-0.51-1.62-0.79
				c-3.42-1.67-8.11-3.95-9.31-5.7c-0.07-0.06-0.72-0.4-1.96-0.9l-0.7-0.28c-3.85-1.55-7.96-3.33-8.13-4.85
				c-0.05-0.01-0.26,0.06-0.45,0.12c-0.56,0.17-1.5,0.46-2.82,0.34c-2.24-0.21-6.68-2.17-6.87-2.25l-0.1-0.04l1.2-17.6l0.21,0.1
				c0.5,0.25,7.73,2.54,11.48,3.72c0.07,0.03,4.67,2.4,9.21,5.88c3.57,2.74,8.87,7.82,11.42,10.27c0.72,0.69,1.24,1.19,1.43,1.35
				l0.14,0.12c4.93,4.23,4.54,7.39,3.36,9.29C90.83,39.26,89.77,39.96,88.4,39.96"/>
		</g>
		<g>
			<path class="st8" d="M65.82,16.97c0,0-1.76,2.82-2.29,5.65c-0.29,1.53,0.16,3.89,0.16,3.89"/>
			<path class="st2" d="M63.53,26.53c-0.02-0.1-0.45-2.41-0.16-3.95c0.54-2.82,2.29-5.67,2.31-5.7l0.26,0.16
				c-0.02,0.03-1.75,2.83-2.27,5.59c-0.28,1.48,0.15,3.81,0.16,3.83L63.53,26.53z"/>
			<path class="st8" d="M77.96,23.78c0,0-2.18,2.88-2.82,4.63c-0.64,1.76-0.69,4.05-0.69,4.05"/>
			<path class="st2" d="M74.6,32.47l-0.31-0.01c0-0.09,0.06-2.34,0.7-4.1c0.64-1.76,2.76-4.55,2.84-4.67l0.25,0.19
				c-0.02,0.03-2.18,2.88-2.8,4.59C74.66,30.18,74.6,32.45,74.6,32.47"/>
			<polygon class="st2" points="100.19,63.31 100.19,38.53 97.75,38.53 97.75,63.31 95.93,63.31 98.97,68.57 102.01,63.31 			"/>
			<path class="st9" d="M71.74,24.66h6.49v23.73h12.9V24.66h6.5c0,0,0.01-0.41,0.01-0.9c0-0.5-0.21-0.9-1.73-0.9H73.45
				c-1.53,0-1.73,0.41-1.73,0.9C71.72,24.25,71.74,24.66,71.74,24.66"/>
			<path class="st10" d="M78.39,48.24h12.59V24.51h6.5c0-0.16,0.01-0.44,0.01-0.75c0-0.3,0-0.75-1.58-0.75H73.45
				c-1.58,0-1.58,0.45-1.58,0.75c0,0.31,0.01,0.59,0.01,0.75h6.5V48.24z M91.29,48.55H78.08V24.81h-6.49l-0.01-0.15
				c0,0-0.02-0.41-0.02-0.91c0-0.75,0.54-1.06,1.88-1.06h22.46c1.34,0,1.88,0.31,1.88,1.06c0,0.5-0.01,0.91-0.01,0.91l0,0.15h-6.5
				V48.55z"/>
			<path class="st8" d="M98.21,26.05v0.75c-0.08,0.32-0.46,0.59-0.84,0.61l-2.31,0.04c-1.13,0.12-1.86,1.29-2.72,1.9l0.03,50.62
				c0,0.29-0.28,0.52-0.43,0.63c-0.94,0.71-1.75,1.17-2.84,1.46c-0.43,0.1-1.29,0.33-1.32,0.69l-0.05,0.39
				c0.58,0.38,0.63,0.35,0,0.79l0.05,1.55c-0.13,0.59-0.58,1.13-0.91,1.13h-4.31c-0.38-0.02-0.84-0.84-0.86-1.09v-1.63
				c-0.61-0.44-0.61-0.28,0-0.74v-0.49c-0.03-0.23-0.36-0.31-1.17-0.56c-1.24-0.36-2.46-0.96-3.15-1.49
				c-0.2-0.15-0.43-0.31-0.43-0.54l-0.05-50.75c-0.46-0.61-0.91-1.81-1.86-1.88l-3.04-0.04c-0.61,0-0.81-0.46-0.84-0.75v-0.59H98.21
				z"/>
			<path class="st10" d="M81.43,83.52l0.11,0.07l0.24,0.17l0.06,0.04v1.71c0.02,0.19,0.45,0.92,0.72,0.93h4.3
				c0.22,0,0.64-0.43,0.76-1.01l-0.06-1.6l0.07-0.04c0.16-0.11,0.32-0.22,0.38-0.28l-0.26-0.17l-0.2-0.13l0.06-0.48
				c0.03-0.33,0.47-0.59,1.44-0.82c0.99-0.27,1.77-0.67,2.79-1.44c0.12-0.08,0.37-0.28,0.37-0.51l-0.03-50.7l0.06-0.05
				c0.26-0.19,0.51-0.43,0.78-0.69c0.58-0.57,1.19-1.15,2.01-1.24l2.32-0.04c0.31-0.02,0.63-0.24,0.69-0.49l0-0.56H71.31v0.43
				c0.01,0.09,0.08,0.6,0.69,0.6l3.05,0.04c0.8,0.06,1.27,0.82,1.64,1.43c0.12,0.19,0.22,0.37,0.33,0.51l0.03,0.04v0.05l0.05,50.75
				c0,0.16,0.21,0.3,0.37,0.42c0.72,0.55,1.97,1.14,3.1,1.46l0.17,0.05c0.76,0.23,1.07,0.33,1.1,0.64l0,0.58l-0.06,0.05l-0.24,0.17
				L81.43,83.52z M86.87,86.76h-4.31c-0.49-0.03-0.99-0.94-1.02-1.23v-1.57l-0.17-0.12c-0.18-0.12-0.29-0.19-0.29-0.32
				c0-0.13,0.1-0.21,0.28-0.34l0.17-0.12v-0.42c-0.01-0.1-0.36-0.2-0.89-0.36l-0.17-0.05c-1.18-0.34-2.44-0.93-3.2-1.51
				c-0.21-0.15-0.49-0.35-0.49-0.67l-0.05-50.7c-0.11-0.14-0.21-0.31-0.32-0.49c-0.36-0.58-0.76-1.24-1.39-1.29l-3.04-0.04
				c-0.63,0-0.95-0.45-0.99-0.89v-0.75h27.37v0.91c-0.1,0.41-0.54,0.74-0.98,0.76l-2.32,0.04c-0.71,0.08-1.27,0.62-1.82,1.15
				c-0.24,0.23-0.49,0.47-0.75,0.67l0.02,50.55c0,0.36-0.31,0.63-0.5,0.76c-1.04,0.79-1.85,1.21-2.89,1.49
				c-1.1,0.27-1.2,0.49-1.21,0.55l-0.04,0.3l0.03,0.02c0.27,0.17,0.41,0.26,0.41,0.42c0,0.17-0.13,0.27-0.46,0.49l0.05,1.46
				C87.79,86.16,87.28,86.76,86.87,86.76"/>
			<path class="st9" d="M91.81,26.3l0.03,53.67c0,0.29-0.26,0.52-0.4,0.63c-0.88,0.71-1.63,1.17-2.64,1.47
				c-0.4,0.1-1.2,0.33-1.23,0.69l-0.05,0.39c0.54,0.38,0.59,0.35,0,0.79l0.05,1.55c-0.12,0.59-0.54,1.13-0.85,1.13H82.7
				c-0.36-0.02-0.78-0.84-0.8-1.09v-1.63c-0.57-0.44-0.57-0.28,0-0.74v-0.49c-0.02-0.23-0.33-0.31-1.09-0.56
				c-1.16-0.36-2.29-0.96-2.93-1.49c-0.19-0.15-0.4-0.31-0.4-0.54l-0.05-53.8L91.81,26.3z"/>
			<path class="st10" d="M86.71,86.76H82.7c-0.49-0.03-0.93-0.95-0.96-1.23v-1.57l-0.16-0.12c-0.17-0.12-0.27-0.19-0.27-0.32
				c0-0.13,0.09-0.2,0.27-0.33l0.16-0.12v-0.42c-0.01-0.1-0.31-0.2-0.82-0.36l-0.16-0.05c-1.1-0.34-2.27-0.93-2.98-1.51
				c-0.19-0.15-0.46-0.35-0.46-0.66l-0.05-53.8h0.31l0.05,53.8c0,0.15,0.16,0.28,0.34,0.42c0.67,0.55,1.83,1.14,2.88,1.46l0.17,0.05
				c0.68,0.23,1,0.33,1.02,0.64l0,0.58L82,83.26l-0.22,0.17l-0.11,0.08l0.11,0.08l0.22,0.17l0.06,0.05v1.71
				c0.02,0.22,0.43,0.92,0.66,0.93h4c0.2,0,0.59-0.45,0.7-1.01l-0.05-1.59l0.06-0.05c0.15-0.11,0.3-0.23,0.35-0.28l-0.24-0.18
				l-0.18-0.13l0.06-0.48c0.03-0.42,0.73-0.66,1.34-0.82c0.92-0.26,1.64-0.67,2.59-1.43c0.13-0.1,0.34-0.29,0.34-0.51L91.66,26.3
				h0.31l0.02,53.67c0,0.36-0.29,0.62-0.46,0.75c-0.96,0.78-1.74,1.21-2.69,1.49c-1.02,0.27-1.11,0.49-1.12,0.55l-0.04,0.3
				l0.03,0.02c0.25,0.17,0.38,0.26,0.38,0.42c0,0.16-0.12,0.27-0.42,0.49l0.04,1.47C87.59,86.1,87.14,86.76,86.71,86.76"/>
			<polygon class="st10" points="81.29,83.38 81.14,83.53 81.29,83.69 88.08,83.69 88.23,83.53 88.08,83.38 			"/>
			<polygon class="st10" points="81.61,82.35 81.46,82.5 81.61,82.66 87.76,82.66 87.91,82.5 87.76,82.35 			"/>
			<path class="st10" d="M87.69,85.19h-6.02c-0.12,0-0.21-0.1-0.21-0.21c0-0.12,0.1-0.22,0.21-0.22h6.02c0.12,0,0.21,0.1,0.21,0.22
				C87.91,85.09,87.81,85.19,87.69,85.19"/>
			<polygon class="st10" points="76.99,79.87 76.84,80.02 76.99,80.17 92.38,80.17 92.53,80.02 92.38,79.87 			"/>
			<polygon class="st10" points="82.92,57.93 82.92,57.62 83.72,57.62 83.72,57.61 83.53,57.49 82.92,57.04 82.92,56.65 
				83.66,57.24 84.65,56.61 84.65,56.98 83.86,57.46 84.04,57.62 84.65,57.62 84.65,57.93 			"/>
			<path class="st10" d="M84.04,55.79c-0.01,0.22,0.04,0.44,0.23,0.44c0.12,0,0.18-0.08,0.18-0.18c0-0.12-0.08-0.22-0.17-0.24
				l-0.07-0.01H84.04z M84.65,55.75l-0.14,0.02v0.01c0.1,0.08,0.16,0.21,0.16,0.37c0,0.25-0.18,0.39-0.37,0.39
				c-0.32,0-0.47-0.28-0.47-0.74h-0.02c-0.08,0-0.22,0.03-0.22,0.25c0,0.12,0.04,0.25,0.09,0.33l-0.2,0.06
				c-0.06-0.09-0.11-0.25-0.11-0.45c0-0.4,0.25-0.52,0.53-0.52h0.45c0.12,0,0.22,0,0.3-0.02V55.75z"/>
			<path class="st10" d="M83.77,55.15c-0.14,0-0.26,0-0.37,0.01v-0.28l0.19-0.01v-0.01c-0.1-0.05-0.21-0.19-0.21-0.4
				c0-0.22,0.14-0.44,0.53-0.44h0.74v0.32h-0.7c-0.18,0-0.32,0.07-0.32,0.24c0,0.13,0.09,0.21,0.19,0.25l0.1,0.01h0.73v0.32H83.77z"
				/>
			<path class="st10" d="M84.13,53.37l0.08-0.01c0.12-0.03,0.22-0.14,0.22-0.28c0-0.19-0.16-0.32-0.41-0.32
				c-0.22,0-0.4,0.1-0.4,0.31c0,0.13,0.09,0.24,0.23,0.28l0.08,0.01H84.13z M84.65,53.7c-0.08-0.01-0.22-0.01-0.35-0.01h-1.47v-0.32
				h0.74v0c-0.12-0.08-0.2-0.21-0.2-0.4c0-0.3,0.25-0.52,0.63-0.52c0.45,0,0.67,0.28,0.67,0.56c0,0.16-0.06,0.31-0.21,0.4v0
				l0.19,0.01V53.7z"/>
			<path class="st10" d="M83.4,52.19h1.25v-0.32H83.4V52.19z M82.88,52.03l0.17,0.18l0.17-0.17l-0.17-0.18L82.88,52.03z"/>
			<path class="st10" d="M84.36,51.55c0.04-0.07,0.09-0.21,0.09-0.32c0-0.14-0.06-0.2-0.14-0.2c-0.08,0-0.13,0.05-0.18,0.21
				c-0.08,0.24-0.22,0.35-0.36,0.34c-0.22,0-0.39-0.18-0.39-0.47c0-0.14,0.04-0.26,0.07-0.33l0.22,0.06L83.6,51.1
				c0,0.11,0.05,0.17,0.13,0.17c0.08,0,0.12-0.06,0.17-0.22c0.08-0.23,0.2-0.33,0.38-0.33c0.22,0,0.39,0.18,0.39,0.51
				c0,0.15-0.04,0.29-0.09,0.38L84.36,51.55z"/>
			<path class="st10" d="M83.3,50.13v-0.04L83.25,50l-0.06,0.08l0,0.05H83.3z M83.54,50.13v0.11h-0.41l-0.01-0.17l0.03-0.15
				l0.09-0.05l0.09,0.09h0.01l0.1-0.08l0.1-0.03v0.13l-0.1,0.03l-0.06,0.08v0.04H83.54z M83.33,50.39c0.18,0,0.33-0.14,0.33-0.32
				c0-0.18-0.15-0.32-0.33-0.32c-0.19,0-0.33,0.13-0.33,0.32C83,50.26,83.14,50.39,83.33,50.39 M83.33,49.63
				c0.24,0,0.44,0.19,0.44,0.44c0,0.25-0.19,0.45-0.44,0.45c-0.24,0-0.43-0.2-0.43-0.45C82.9,49.82,83.09,49.63,83.33,49.63"/>
			<path class="st10" d="M86.92,58.65c0.04,0.07,0.08,0.22,0.08,0.42c0,0.44-0.28,0.77-0.79,0.77c-0.49,0-0.82-0.33-0.82-0.82
				c0-0.2,0.04-0.32,0.07-0.37l0.16,0.05c-0.04,0.08-0.06,0.19-0.06,0.32c0,0.37,0.23,0.61,0.65,0.61c0.38,0,0.63-0.22,0.63-0.6
				c0-0.12-0.03-0.25-0.07-0.33L86.92,58.65z"/>
			<path class="st10" d="M86.4,57.81c-0.01,0.22,0.04,0.48,0.25,0.48c0.13,0,0.2-0.09,0.2-0.19c0-0.15-0.09-0.24-0.19-0.27
				l-0.06-0.01H86.4z M86.97,57.78l-0.14,0.02v0.01c0.09,0.06,0.17,0.18,0.17,0.34c0,0.23-0.16,0.34-0.32,0.34
				c-0.28,0-0.42-0.24-0.42-0.68h-0.02c-0.09,0-0.26,0.03-0.26,0.26l0.08,0.29l-0.14,0.05c-0.06-0.09-0.1-0.23-0.1-0.37
				c0-0.34,0.24-0.43,0.46-0.43h0.42l0.27-0.02V57.78z"/>
			<path class="st10" d="M86.15,57.28c-0.12,0-0.21,0-0.3,0.01v-0.18l0.19-0.01v0c-0.11-0.06-0.21-0.19-0.21-0.37
				c0-0.16,0.09-0.4,0.48-0.4h0.67v0.21h-0.65c-0.18,0-0.33,0.07-0.33,0.26c0,0.13,0.1,0.24,0.21,0.28l0.1,0.01h0.68v0.2H86.15z"/>
			<path class="st10" d="M86.15,55.99c-0.12,0-0.21,0-0.3,0.01v-0.18l0.19-0.01v0c-0.11-0.05-0.21-0.19-0.21-0.37
				c0-0.16,0.09-0.4,0.48-0.4h0.67v0.21h-0.65c-0.18,0-0.33,0.07-0.33,0.26c0,0.13,0.1,0.24,0.21,0.27l0.1,0.01h0.68v0.2H86.15z"/>
			<path class="st10" d="M86.4,54.1c-0.01,0.22,0.04,0.48,0.25,0.48c0.13,0,0.2-0.09,0.2-0.19c0-0.15-0.09-0.24-0.19-0.27
				l-0.06-0.01H86.4z M86.97,54.07l-0.14,0.02v0.01c0.09,0.06,0.17,0.19,0.17,0.35c0,0.23-0.16,0.34-0.32,0.34
				c-0.28,0-0.42-0.24-0.42-0.68h-0.02c-0.09,0-0.26,0.03-0.26,0.25l0.08,0.3l-0.14,0.04c-0.06-0.09-0.1-0.23-0.1-0.37
				c0-0.34,0.24-0.43,0.46-0.43h0.42l0.27-0.02V54.07z"/>
			<path class="st10" d="M86.52,53.37l0.07-0.01c0.14-0.04,0.24-0.16,0.24-0.31c0-0.21-0.18-0.34-0.44-0.34
				c-0.22,0-0.42,0.12-0.42,0.33c0,0.14,0.1,0.27,0.25,0.31l0.08,0.01H86.52z M86.97,53.58l-0.29-0.01h-1.36v-0.2h0.71v0
				c-0.12-0.07-0.21-0.2-0.21-0.38c0-0.28,0.23-0.48,0.57-0.48c0.4,0,0.6,0.25,0.6,0.51c0,0.16-0.06,0.29-0.21,0.38v0.01l0.18,0.01
				V53.58z"/>
			<path class="st10" d="M85.85,52.25h1.12v-0.21h-1.12V52.25z M85.41,52.15l0.13,0.13l0.12-0.12l-0.12-0.13L85.41,52.15z"/>
			<path class="st10" d="M86.31,50.94l-0.09,0.01c-0.13,0.03-0.24,0.14-0.24,0.29c0,0.21,0.19,0.34,0.44,0.34
				c0.23,0,0.42-0.11,0.42-0.33c0-0.14-0.09-0.26-0.24-0.3l-0.09-0.01H86.31z M85.32,50.73h1.36l0.29-0.01v0.18l-0.2,0.01v0
				c0.12,0.06,0.22,0.2,0.22,0.38c0,0.27-0.23,0.48-0.57,0.48c-0.38,0-0.61-0.23-0.61-0.5c0-0.17,0.08-0.29,0.17-0.34v0h-0.67V50.73
				z"/>
			<path class="st10" d="M85.85,50.39h1.12v-0.21h-1.12V50.39z M85.41,50.29l0.13,0.13l0.12-0.12l-0.12-0.13L85.41,50.29z"/>
			<path class="st10" d="M86.42,49.72c0.24,0,0.43-0.14,0.43-0.34c0-0.2-0.18-0.34-0.44-0.34c-0.19,0-0.43,0.1-0.43,0.34
				C85.98,49.62,86.2,49.72,86.42,49.72 M86.4,48.83c0.42,0,0.6,0.29,0.6,0.56c0,0.3-0.22,0.54-0.58,0.54c-0.38,0-0.6-0.25-0.6-0.56
				C85.82,49.05,86.06,48.83,86.4,48.83"/>
			<rect x="85.32" y="48.37" class="st10" width="1.65" height="0.2"/>
			<polygon class="st10" points="87.55,76.07 87.55,77.21 87.71,77.21 87.97,77.07 87.93,76.92 87.74,77.03 87.74,77.03 
				87.74,76.07 			"/>
			<polygon class="st10" points="88.47,74.54 88.47,75.68 88.63,75.68 88.88,75.54 88.85,75.4 88.66,75.5 88.65,75.5 88.65,74.54 
							"/>
			<path class="st10" d="M88.33,74.33c-0.04,0.12-0.09,0.31-0.11,0.44l-0.2,0.02c0.05-0.15,0.12-0.34,0.19-0.45L88.33,74.33z"/>
			<path class="st10" d="M87.44,75.52h0.3l0.04-0.25l-0.04,0l-0.21-0.09c-0.06-0.06-0.1-0.15-0.1-0.26c0-0.22,0.14-0.4,0.37-0.4
				l0.2,0.05l-0.03,0.15l-0.16-0.04c-0.11,0-0.2,0.08-0.2,0.22c0,0.17,0.11,0.23,0.25,0.23l0.09,0l-0.07,0.55h-0.44V75.52z"/>
			<path class="st10" d="M88.92,71.17v0.12l-0.11,0.14c-0.14,0.19-0.28,0.37-0.28,0.55l0.15,0.18l0.17-0.06l0.04,0.14l-0.24,0.07
				c-0.22,0-0.3-0.15-0.3-0.32c0-0.21,0.14-0.4,0.27-0.57l0.07-0.09v0h-0.36v-0.16H88.92z"/>
			<path class="st10" d="M88.33,70.96c-0.04,0.12-0.09,0.31-0.11,0.44l-0.2,0.02c0.05-0.15,0.12-0.34,0.19-0.44L88.33,70.96z"/>
			<path class="st10" d="M87.44,72.15h0.3l0.04-0.25l-0.04,0l-0.21-0.09c-0.06-0.06-0.1-0.14-0.1-0.26c0-0.22,0.14-0.4,0.37-0.4
				l0.2,0.05l-0.03,0.15l-0.16-0.04c-0.11,0-0.2,0.08-0.2,0.22c0,0.17,0.11,0.23,0.25,0.23l0.09-0.01l-0.07,0.55h-0.44V72.15z"/>
			<path class="st10" d="M88.9,67.9l-0.17-0.04c-0.12,0-0.18,0.08-0.18,0.19c0,0.14,0.09,0.21,0.22,0.21h0.03v0.14h-0.03
				c-0.08,0-0.2,0.05-0.2,0.17l0.14,0.15l0.14-0.05l0.03,0.14l-0.22,0.06c-0.18,0-0.28-0.12-0.28-0.27c0-0.11,0.06-0.21,0.17-0.26v0
				c-0.11-0.04-0.2-0.13-0.2-0.29c0-0.18,0.13-0.34,0.36-0.34l0.21,0.05L88.9,67.9z"/>
			<path class="st10" d="M88.33,67.49c-0.04,0.12-0.09,0.31-0.11,0.44l-0.2,0.02c0.05-0.15,0.12-0.34,0.19-0.44L88.33,67.49z"/>
			<path class="st10" d="M87.44,68.69h0.3l0.04-0.25l-0.04,0l-0.21-0.09c-0.06-0.06-0.1-0.14-0.1-0.26c0-0.22,0.14-0.39,0.37-0.39
				l0.2,0.04l-0.03,0.15l-0.16-0.04c-0.11,0-0.2,0.08-0.2,0.22c0,0.16,0.11,0.23,0.25,0.23l0.09-0.01l-0.07,0.55h-0.44V68.69z"/>
			<path class="st10" d="M88.57,65.01v-0.27h0.22v0l-0.14,0.28l-0.09,0.19h-0.01L88.57,65.01z M88.4,64.29v0.29h-0.12v0.15h0.12v0.7
				h0.18l0.37-0.72v-0.13h-0.38v-0.29H88.4z"/>
			<path class="st10" d="M88.33,64.07c-0.04,0.12-0.09,0.31-0.11,0.44l-0.2,0.02c0.05-0.15,0.12-0.34,0.19-0.44L88.33,64.07z"/>
			<path class="st10" d="M87.44,65.27h0.3l0.04-0.25l-0.04,0l-0.21-0.09c-0.06-0.06-0.1-0.15-0.1-0.26c0-0.22,0.14-0.4,0.37-0.4
				l0.2,0.05l-0.03,0.15l-0.16-0.04c-0.11,0-0.2,0.08-0.2,0.22c0,0.16,0.11,0.23,0.25,0.23l0.09,0l-0.07,0.55h-0.44V65.27z"/>
			<path class="st10" d="M88.02,72.74v0.12L87.92,73c-0.14,0.19-0.28,0.37-0.28,0.56l0.15,0.17l0.17-0.06l0.04,0.14l-0.24,0.07
				c-0.22,0-0.3-0.15-0.3-0.32c0-0.21,0.13-0.4,0.27-0.57l0.07-0.09v0h-0.36v-0.16H88.02z"/>
			<path class="st10" d="M87.98,69.55l-0.17-0.05c-0.12,0-0.18,0.07-0.18,0.19c0,0.13,0.1,0.21,0.22,0.21h0.03v0.14h-0.03
				c-0.08,0-0.2,0.05-0.2,0.17l0.14,0.15l0.14-0.05l0.03,0.14l-0.22,0.06c-0.18,0-0.28-0.12-0.28-0.27c0-0.11,0.06-0.21,0.16-0.26v0
				c-0.11-0.03-0.2-0.13-0.2-0.29c0-0.18,0.13-0.34,0.36-0.34l0.21,0.05L87.98,69.55z"/>
			<path class="st10" d="M87.71,66.65v-0.27h0.22v0l-0.14,0.28l-0.09,0.19h0L87.71,66.65z M87.55,65.94v0.29h-0.12v0.15h0.12v0.7
				h0.18l0.37-0.72v-0.13h-0.38v-0.29H87.55z"/>
			<path class="st10" d="M87.44,63.47h0.3l0.04-0.25l-0.04,0l-0.21-0.09c-0.06-0.06-0.1-0.14-0.1-0.26c0-0.22,0.14-0.39,0.37-0.39
				l0.2,0.05l-0.03,0.15l-0.16-0.04c-0.11,0-0.2,0.08-0.2,0.22c0,0.16,0.11,0.23,0.25,0.23l0.09,0l-0.07,0.55h-0.44V63.47z"/>
			<path class="st10" d="M88.74,78.59c0-0.27-0.04-0.42-0.13-0.42c-0.08,0-0.12,0.16-0.12,0.42c0,0.25,0.03,0.42,0.12,0.42
				C88.7,79.02,88.74,78.86,88.74,78.59 M88.3,78.6c0-0.41,0.14-0.58,0.32-0.58c0.21,0,0.31,0.25,0.31,0.58
				c0,0.35-0.11,0.59-0.32,0.59C88.38,79.18,88.3,78.91,88.3,78.6"/>
			<path class="st10" d="M88.33,77.81c-0.04,0.12-0.09,0.31-0.11,0.44l-0.2,0.02c0.05-0.15,0.12-0.34,0.19-0.44L88.33,77.81z"/>
			<path class="st10" d="M87.44,79h0.3l0.04-0.25l-0.04,0l-0.21-0.08c-0.06-0.06-0.1-0.15-0.1-0.26c0-0.22,0.14-0.39,0.37-0.39
				l0.2,0.05l-0.03,0.15l-0.16-0.04c-0.11,0-0.2,0.08-0.2,0.22c0,0.17,0.11,0.23,0.25,0.23l0.09,0l-0.07,0.55h-0.44V79z"/>
			<polygon class="st10" points="80.38,76.49 80.23,76.64 80.38,76.79 86.58,76.79 86.73,76.64 86.58,76.49 			"/>
			<polygon class="st10" points="80.38,73.16 80.23,73.32 80.38,73.47 86.58,73.47 86.73,73.32 86.58,73.16 			"/>
			<polygon class="st10" points="80.38,69.78 80.23,69.93 80.38,70.09 86.58,70.09 86.73,69.93 86.58,69.78 			"/>
			<polygon class="st10" points="80.38,66.35 80.23,66.51 80.38,66.66 86.58,66.66 86.73,66.51 86.58,66.35 			"/>
			<polygon class="st10" points="80.38,62.9 80.23,63.05 80.38,63.21 86.58,63.21 86.73,63.05 86.58,62.9 			"/>
			<polygon class="st10" points="83.49,79.16 83.34,79.32 83.49,79.47 86.58,79.47 86.73,79.32 86.58,79.16 			"/>
			<polygon class="st10" points="83.49,77.42 83.34,77.57 83.49,77.72 86.58,77.72 86.73,77.57 86.58,77.42 			"/>
			<polygon class="st10" points="83.49,75.65 83.34,75.81 83.49,75.96 86.58,75.96 86.73,75.81 86.58,75.65 			"/>
			<polygon class="st10" points="83.49,72.29 83.34,72.45 83.49,72.6 86.58,72.6 86.73,72.45 86.58,72.29 			"/>
			<polygon class="st10" points="83.49,70.63 83.34,70.79 83.49,70.94 86.58,70.94 86.73,70.79 86.58,70.63 			"/>
			<polygon class="st10" points="83.49,68.91 83.34,69.06 83.49,69.22 86.58,69.22 86.73,69.06 86.58,68.91 			"/>
			<polygon class="st10" points="83.49,67.19 83.34,67.34 83.49,67.5 86.58,67.5 86.73,67.34 86.58,67.19 			"/>
			<polygon class="st10" points="83.49,65.48 83.34,65.64 83.49,65.79 86.58,65.79 86.73,65.64 86.58,65.48 			"/>
			<polygon class="st10" points="83.49,63.75 83.34,63.9 83.49,64.05 86.58,64.05 86.73,63.9 86.58,63.75 			"/>
			<polygon class="st10" points="83.49,73.99 83.34,74.15 83.49,74.3 86.58,74.3 86.73,74.15 86.58,73.99 			"/>
			<polygon class="st10" points="82.34,78.34 82.19,78.49 82.34,78.64 86.58,78.64 86.73,78.49 86.58,78.34 			"/>
			<polygon class="st10" points="82.34,78.34 82.19,78.49 82.34,78.64 86.58,78.64 86.73,78.49 86.58,78.34 			"/>
			<polygon class="st10" points="82.34,74.85 82.19,75 82.34,75.16 86.58,75.16 86.73,75 86.58,74.85 			"/>
			<polygon class="st10" points="82.34,71.49 82.19,71.64 82.34,71.79 86.58,71.79 86.73,71.64 86.58,71.49 			"/>
			<polygon class="st10" points="82.34,68.02 82.19,68.18 82.34,68.33 86.58,68.33 86.73,68.18 86.58,68.02 			"/>
			<polygon class="st10" points="82.34,64.6 82.19,64.75 82.34,64.91 86.58,64.91 86.73,64.75 86.58,64.6 			"/>
			<path class="st10" d="M86.59,45.31h1.87l0.18-0.83c-0.05,0.23-0.27,0.41-0.5,0.41h-1.46c-0.11,0-0.23,0.09-0.25,0.21
				C86.4,45.22,86.48,45.31,86.59,45.31 M87.2,44.48h1.44l0.18-0.83c-0.05,0.23-0.28,0.41-0.5,0.41h-1.02
				c-0.12,0-0.23,0.09-0.25,0.21C87.01,44.39,87.08,44.48,87.2,44.48 M86.94,43.65h1.87l0.18-0.83c-0.05,0.22-0.27,0.42-0.5,0.42
				h-1.46c-0.11,0-0.23,0.09-0.25,0.21C86.75,43.56,86.83,43.65,86.94,43.65"/>
			<polygon class="st10" points="84.46,43.24 84.01,45.31 84.33,45.31 84.77,43.24 			"/>
			<path class="st10" d="M81.57,43.86c0.14-0.23,0.32-0.34,0.5-0.34l0.14,0.06c0.06,0.07,0.06,0.21,0.02,0.41
				c-0.07,0.35-0.26,0.52-0.56,0.52l-0.24-0.02L81.57,43.86z M81.1,44.71c0.14,0.04,0.32,0.06,0.52,0.06c0.51,0,0.82-0.26,0.93-0.78
				c0.06-0.3,0.04-0.5-0.05-0.62c-0.07-0.09-0.18-0.13-0.32-0.13c-0.2,0-0.38,0.09-0.53,0.28l0.04-0.28h-0.29l-0.31,1.46L81.1,44.71
				z"/>
			<polygon class="st10" points="85.69,45.04 84.63,45.04 84.58,45.31 85.95,45.31 86.39,43.24 85,43.24 84.94,43.51 86.02,43.51 
				85.88,44.15 84.87,44.15 84.81,44.42 85.82,44.42 			"/>
		</g>
		<g>
			<defs>
				<rect id="SVGID_00000181065711991397869690000001479993022453342141_" x="55.49" y="11.99" width="52.23" height="97.69"/>
			</defs>
			<clipPath id="SVGID_00000103975677675866629600000017379898022120871301_">
				<use xlink:href="#SVGID_00000181065711991397869690000001479993022453342141_"  style="overflow:visible;"/>
			</clipPath>
			<path style="clip-path:url(#SVGID_00000103975677675866629600000017379898022120871301_);fill:#13110C;" d="M82.96,44.34
				c0.03-0.12,0.12-0.17,0.28-0.17h0.43c-0.07,0.23-0.23,0.35-0.47,0.35c-0.12,0-0.19-0.02-0.23-0.06L82.96,44.34z M83.16,44.77
				c0.47,0,0.76-0.25,0.86-0.75c0.06-0.28,0.04-0.48-0.07-0.62c-0.09-0.12-0.25-0.17-0.47-0.17c-0.22,0-0.41,0.06-0.58,0.19
				l-0.01,0.01l-0.06,0.3l0.06-0.05c0.15-0.12,0.33-0.18,0.54-0.18c0.12,0,0.21,0.03,0.26,0.09c0.05,0.06,0.06,0.16,0.04,0.29h-0.45
				c-0.37,0-0.58,0.14-0.64,0.43c-0.03,0.13-0.01,0.23,0.05,0.3C82.77,44.72,82.93,44.77,83.16,44.77"/>
			<path style="clip-path:url(#SVGID_00000103975677675866629600000017379898022120871301_);fill:#1F1F1D;" d="M66.06,117.17h35.95
				l5.41-46.83c-2.07,2.16-11.58,3.73-23.27,3.73c-11.71,0-21.22-1.57-23.28-3.73L66.06,117.17z M102.14,117.47H65.92l-0.15-0.13
				l-5.29-47.64l0.12-0.17l0.18,0.11c0.64,2.27,11.12,4.12,23.36,4.12c12.22,0,22.7-1.85,23.36-4.11l0.18-0.11l0.12,0.17l-5.5,47.64
				L102.14,117.47z"/>
		</g>
		<g>
			<defs>
				<path id="SVGID_00000058584139680110101540000016994963492509282688_" d="M65.23,109.67h37.64l4.54-39.34
					c-1.54,1.61-7.24,2.89-14.89,3.44l0,6.2c0,0.02,0,0.03,0,0.04l0,0l0,0c-0.03,0.33-0.32,0.58-0.5,0.71
					c-1.04,0.79-1.85,1.21-2.89,1.48c-1.1,0.27-1.2,0.49-1.21,0.55l-0.04,0.3l0.03,0.02c0.27,0.17,0.41,0.26,0.41,0.43
					c0,0.17-0.13,0.27-0.45,0.49l0.05,1.47c-0.14,0.69-0.65,1.29-1.07,1.29h-4.31c-0.5-0.03-0.99-0.94-1.02-1.23v-0.4
					c-0.04-0.04-0.07-0.1-0.07-0.16c0-0.06,0.03-0.12,0.07-0.16v-0.85l-0.17-0.12c-0.18-0.12-0.29-0.19-0.29-0.32
					c0-0.13,0.1-0.2,0.29-0.34l0.17-0.12v-0.41c-0.01-0.1-0.36-0.2-0.89-0.37l-0.17-0.05c-1.18-0.34-2.44-0.93-3.2-1.51
					c-0.21-0.15-0.49-0.35-0.49-0.67l-0.01-6.21c-8.18-0.5-14.31-1.83-15.92-3.51L65.23,109.67z"/>
			</defs>
			<clipPath id="SVGID_00000138550030196795437460000000594013439549094324_">
				<use xlink:href="#SVGID_00000058584139680110101540000016994963492509282688_"  style="overflow:visible;"/>
			</clipPath>
			
				<rect x="60.86" y="70.33" style="clip-path:url(#SVGID_00000138550030196795437460000000594013439549094324_);fill:#F8F7F6;" width="46.55" height="39.34"/>
		</g>
		<g>
			<path class="st3" d="M92.22,73.8c-0.08,0-0.16,0.01-0.23,0.02l0,6.05h0.23L92.22,73.8z M77.09,73.86l0.01,6h0.24l-0.01-5.99
				C77.25,73.87,77.17,73.87,77.09,73.86 M92.16,80.17h-0.2c-0.06,0.21-0.21,0.37-0.34,0.48c0.08-0.05,0.16-0.11,0.23-0.17
				C91.93,80.42,92.08,80.31,92.16,80.17 M77.34,80.17h-0.21c0.06,0.11,0.21,0.21,0.33,0.3c0.06,0.05,0.13,0.1,0.2,0.14
				C77.53,80.51,77.39,80.36,77.34,80.17"/>
			<path class="st14" d="M92.53,73.77c-0.1,0.01-0.2,0.02-0.31,0.02l0,6.07h0.15l0.15,0.15c0-0.01,0-0.03,0-0.04L92.53,73.77z
				 M76.78,73.84l0.01,6.21c0,0.31,0.29,0.52,0.49,0.67c0.76,0.58,2.01,1.17,3.2,1.51l0.17,0.05c0.53,0.16,0.88,0.27,0.89,0.37v0.41
				l-0.17,0.12c-0.18,0.13-0.29,0.2-0.28,0.34c0,0.13,0.1,0.2,0.29,0.32l0.17,0.12v0.85c0.04-0.03,0.09-0.05,0.14-0.05h0.07v-0.8
				l-0.16-0.11c-0.09-0.06-0.15-0.11-0.2-0.16h-0.1l-0.15-0.15l0.15-0.15h0.08c0.04-0.06,0.12-0.11,0.21-0.19l0.16-0.12v-0.41h-0.13
				l-0.15-0.15l0.03-0.03c-0.14-0.05-0.33-0.12-0.56-0.19l-0.16-0.06c-1.1-0.34-2.27-0.93-2.98-1.51c-0.04-0.03-0.08-0.06-0.12-0.1
				c-0.07-0.05-0.14-0.1-0.2-0.15c-0.12-0.09-0.27-0.19-0.33-0.3h-0.14l-0.15-0.15l0.15-0.15h0.1l-0.01-6
				C76.99,73.86,76.88,73.85,76.78,73.84 M92.53,80.02l-0.15,0.15h-0.21c-0.08,0.14-0.23,0.25-0.31,0.31
				c-0.08,0.06-0.16,0.12-0.24,0.17c-0.03,0.03-0.06,0.05-0.09,0.07c-0.96,0.78-1.74,1.21-2.69,1.49c-1.02,0.27-1.11,0.49-1.12,0.55
				l-0.04,0.3l0.03,0.02c0.17,0.12,0.29,0.2,0.35,0.29h0.02l0.15,0.15l-0.15,0.15h-0.04c-0.06,0.09-0.18,0.18-0.36,0.31l0.02,0.76
				c0.12,0,0.21,0.1,0.21,0.21c0,0.11-0.09,0.21-0.2,0.21l0.01,0.28c-0.12,0.62-0.58,1.29-1,1.29H82.7
				c-0.49-0.03-0.93-0.95-0.95-1.23v-0.34h-0.07c-0.05,0-0.1-0.02-0.14-0.05v0.4c0.03,0.29,0.52,1.2,1.02,1.23h4.31
				c0.42,0,0.92-0.6,1.07-1.29l-0.05-1.47c0.32-0.22,0.46-0.33,0.46-0.49c0-0.17-0.15-0.26-0.41-0.43l-0.03-0.02l0.04-0.3
				c0-0.06,0.1-0.29,1.21-0.55c1.04-0.28,1.85-0.7,2.89-1.48C92.21,80.61,92.5,80.36,92.53,80.02"/>
			<path class="st15" d="M91.68,73.83c-1.61,0.1-3.3,0.17-5.06,0.21l0.11,0.11l-0.15,0.15h-3.09l-0.15-0.15l0.09-0.09
				c-2.01-0.01-3.95-0.07-5.79-0.17l0,5.97h14.04L91.68,73.83z M88.02,74.78c0.05-0.15,0.12-0.34,0.19-0.45l0.12-0.01
				c-0.04,0.12-0.09,0.31-0.11,0.44L88.02,74.78z M87.75,75.27l-0.21-0.09c-0.06-0.06-0.1-0.15-0.1-0.26c0-0.22,0.15-0.39,0.37-0.39
				l0.2,0.05l-0.03,0.15l-0.16-0.04c-0.11,0-0.2,0.08-0.2,0.22c0,0.17,0.11,0.23,0.25,0.23l0.09,0l-0.07,0.55h-0.44v-0.16h0.3
				l0.04-0.25L87.75,75.27z M88.47,75.68v-1.14h0.18v0.96h0l0.19-0.1l0.03,0.15l-0.25,0.14H88.47z M82.34,75.16L82.19,75l0.15-0.15
				h4.24L86.73,75l-0.15,0.15H82.34z M83.49,75.96l-0.15-0.15l0.15-0.15h3.09l0.15,0.15l-0.15,0.15H83.49z M87.55,77.21v-1.13h0.19
				v0.96h0l0.19-0.1l0.03,0.15l-0.25,0.14H87.55z M80.38,76.79l-0.15-0.15l0.15-0.15h6.2l0.15,0.15l-0.15,0.15H80.38z M83.49,77.72
				l-0.15-0.15l0.15-0.15h3.09l0.15,0.15l-0.15,0.15H83.49z M88.02,78.26c0.05-0.15,0.12-0.34,0.19-0.44l0.12-0.01
				c-0.04,0.12-0.09,0.31-0.11,0.44L88.02,78.26z M88.61,79.18c-0.23,0-0.3-0.27-0.3-0.58c0-0.41,0.14-0.58,0.32-0.58
				c0.21,0,0.31,0.25,0.31,0.58C88.93,78.94,88.82,79.18,88.61,79.18 M87.75,78.75l-0.21-0.08c-0.06-0.06-0.1-0.15-0.1-0.26
				c0-0.22,0.15-0.39,0.37-0.39l0.2,0.05l-0.03,0.15l-0.16-0.04c-0.11,0-0.2,0.08-0.2,0.22c0,0.17,0.11,0.23,0.25,0.23l0.09,0
				l-0.07,0.55h-0.44V79h0.3l0.04-0.25L87.75,78.75z M82.19,78.49L82.19,78.49l0.15-0.15h4.24l0.15,0.15l-0.15,0.15h-4.24
				L82.19,78.49z M83.49,79.47l-0.15-0.15l0.15-0.15h3.09l0.15,0.15l-0.15,0.15H83.49z M91.63,80.17H77.67
				c0.06,0.1,0.18,0.2,0.31,0.3c0.67,0.55,1.83,1.14,2.88,1.46l0.17,0.05c0.42,0.14,0.7,0.23,0.86,0.36h5.78
				c0.26-0.2,0.7-0.33,1.09-0.44c0.92-0.26,1.64-0.67,2.59-1.43C91.43,80.42,91.55,80.31,91.63,80.17 M87.43,82.66h-5.38l0,0.56
				L82,83.26l-0.15,0.12h5.74l-0.05-0.04l-0.19-0.13l0.06-0.48C87.41,82.71,87.42,82.68,87.43,82.66 M87.58,83.69h-5.69l0.1,0.07
				l0.06,0.05v0.95h5.34l-0.03-0.9l0.07-0.05C87.48,83.76,87.53,83.72,87.58,83.69 M87.41,85.19h-5.35v0.33
				c0.02,0.22,0.42,0.92,0.66,0.94h4.01c0.19,0,0.59-0.45,0.7-1.01L87.41,85.19z"/>
			<path class="st14" d="M91.99,73.81c-0.1,0.01-0.2,0.01-0.31,0.02l0,6.03h0.31L91.99,73.81z M77.33,73.87l0.01,5.99h0.31
				l-0.01-5.97C77.53,73.89,77.43,73.88,77.33,73.87 M91.96,80.17h-0.33c-0.07,0.13-0.2,0.24-0.29,0.31
				c-0.94,0.77-1.67,1.17-2.59,1.44c-0.39,0.1-0.83,0.24-1.09,0.43h0.09l0.15,0.15l-0.15,0.15h-0.33c-0.01,0.03-0.01,0.05-0.02,0.08
				l-0.06,0.48l0.19,0.13l0.05,0.04h0.47c-0.06-0.09-0.18-0.17-0.35-0.29l-0.03-0.02l0.04-0.3c0-0.06,0.1-0.29,1.12-0.55
				c0.95-0.27,1.74-0.71,2.7-1.49c0.03-0.02,0.06-0.05,0.09-0.07C91.75,80.54,91.9,80.38,91.96,80.17 M77.67,80.17h-0.32
				c0.04,0.19,0.18,0.33,0.32,0.45c0.04,0.04,0.09,0.07,0.13,0.1c0.7,0.58,1.87,1.17,2.98,1.51l0.16,0.06
				c0.23,0.08,0.42,0.14,0.56,0.19l0.13-0.13h0.28c-0.16-0.12-0.44-0.22-0.86-0.36l-0.17-0.05c-1.05-0.32-2.21-0.91-2.88-1.46
				C77.84,80.37,77.73,80.28,77.67,80.17 M82.05,82.66h-0.31v0.41l-0.16,0.12c-0.1,0.08-0.17,0.13-0.22,0.19h0.47L82,83.26
				l0.06-0.05L82.05,82.66z M88.04,83.69h-0.46c-0.05,0.04-0.1,0.08-0.15,0.12l-0.07,0.05l0.03,0.91h0.3h0L87.67,84
				C87.85,83.87,87.97,83.77,88.04,83.69 M81.89,83.69h-0.5c0.05,0.05,0.11,0.1,0.2,0.16l0.16,0.11v0.8h0.31v-0.95l-0.06-0.04
				L81.89,83.69z M87.71,85.19c-0.01,0-0.01,0-0.02,0h-0.29l0.01,0.25c-0.11,0.56-0.5,1.01-0.7,1.01h-4.01
				c-0.23-0.01-0.64-0.71-0.66-0.93v-0.33h-0.31l0,0.34c0.03,0.28,0.47,1.2,0.95,1.23h4.02c0.43,0,0.88-0.66,1-1.29L87.71,85.19z"/>
			<polygon class="st14" points="88.06,83.38 87.59,83.38 81.84,83.38 81.37,83.38 81.29,83.38 81.14,83.53 81.29,83.69 
				81.39,83.69 81.89,83.69 87.58,83.69 88.04,83.69 88.08,83.69 88.23,83.53 88.08,83.38 			"/>
			<polygon class="st14" points="87.66,82.35 81.89,82.35 81.61,82.35 81.48,82.48 81.46,82.5 81.61,82.66 81.75,82.66 82.05,82.66 
				87.42,82.66 87.76,82.66 87.91,82.5 87.76,82.35 			"/>
			<path class="st14" d="M87.69,84.76h-0.3h-5.34h-0.31h-0.07c-0.05,0-0.1,0.02-0.14,0.05c-0.04,0.04-0.07,0.1-0.07,0.16
				c0,0.06,0.03,0.12,0.07,0.16c0.04,0.03,0.09,0.05,0.14,0.05h0.07h0.31h5.35h0.29c0.01,0,0.01,0,0.02,0
				c0.11-0.01,0.2-0.1,0.2-0.21C87.91,84.86,87.81,84.76,87.69,84.76L87.69,84.76"/>
			<polygon class="st14" points="92.22,79.87 91.99,79.87 91.68,79.87 77.64,79.87 77.33,79.87 77.1,79.87 76.99,79.87 76.84,80.02 
				76.99,80.17 77.13,80.17 77.34,80.17 77.67,80.17 91.63,80.17 91.96,80.17 92.16,80.17 92.38,80.17 92.53,80.02 92.53,80.02 
				92.53,80.02 92.38,79.87 			"/>
			<path class="st16" d="M88.61,78.17c-0.08,0-0.12,0.16-0.12,0.42c0,0.25,0.03,0.42,0.12,0.42c0.09,0,0.13-0.16,0.13-0.42
				C88.75,78.32,88.71,78.17,88.61,78.17"/>
			<polygon class="st14" points="87.55,76.07 87.55,77.21 87.71,77.21 87.97,77.07 87.93,76.92 87.74,77.03 87.74,77.03 
				87.74,76.07 			"/>
			<polygon class="st14" points="88.47,74.54 88.47,75.68 88.63,75.68 88.88,75.54 88.85,75.4 88.66,75.5 88.65,75.5 88.65,74.54 
							"/>
			<path class="st14" d="M88.33,74.33l-0.12,0.01c-0.06,0.11-0.14,0.29-0.19,0.45l0.2-0.02C88.23,74.63,88.28,74.45,88.33,74.33"/>
			<path class="st14" d="M87.81,74.53c-0.23,0-0.37,0.17-0.37,0.39c0,0.12,0.04,0.2,0.1,0.26l0.21,0.08l0.04,0l-0.04,0.25h-0.3v0.16
				h0.44l0.07-0.55l-0.09,0.01c-0.14,0-0.25-0.06-0.25-0.23c0-0.15,0.08-0.22,0.2-0.22l0.16,0.04l0.03-0.15L87.81,74.53z"/>
			<path class="st14" d="M88.62,78.01c-0.18,0-0.32,0.18-0.32,0.59c0,0.31,0.08,0.58,0.3,0.58c0.21,0,0.32-0.23,0.32-0.58
				C88.93,78.26,88.83,78.01,88.62,78.01 M88.61,79.02c-0.09,0-0.12-0.17-0.12-0.42c0-0.27,0.04-0.42,0.12-0.42
				c0.1,0,0.13,0.15,0.13,0.42C88.74,78.86,88.7,79.02,88.61,79.02"/>
			<path class="st14" d="M88.33,77.81l-0.12,0.01c-0.06,0.1-0.14,0.29-0.19,0.44l0.2-0.02C88.23,78.11,88.28,77.93,88.33,77.81"/>
			<path class="st14" d="M87.81,78.01c-0.23,0-0.37,0.17-0.37,0.39c0,0.12,0.04,0.2,0.1,0.26l0.21,0.08l0.04,0L87.75,79h-0.3v0.16
				h0.44l0.07-0.55l-0.09,0.01c-0.14,0-0.25-0.06-0.25-0.23c0-0.15,0.08-0.22,0.2-0.22l0.16,0.04l0.03-0.15L87.81,78.01z"/>
			<polygon class="st14" points="80.38,76.49 80.23,76.64 80.38,76.79 86.58,76.79 86.73,76.64 86.58,76.49 			"/>
			<polygon class="st14" points="83.49,79.16 83.34,79.32 83.49,79.47 86.58,79.47 86.73,79.32 86.58,79.16 			"/>
			<polygon class="st14" points="83.49,77.42 83.34,77.57 83.49,77.72 86.58,77.72 86.73,77.57 86.58,77.42 			"/>
			<polygon class="st14" points="83.49,75.65 83.34,75.81 83.49,75.96 86.58,75.96 86.73,75.81 86.58,75.65 			"/>
			<path class="st14" d="M86.62,74.04c-0.81,0.02-1.64,0.02-2.48,0.02c-0.24,0-0.47,0-0.71,0l-0.09,0.09l0.15,0.15h3.09l0.15-0.15
				L86.62,74.04z"/>
			<polygon class="st14" points="82.34,78.34 82.19,78.49 82.34,78.64 86.58,78.64 86.73,78.49 86.58,78.34 			"/>
			<polygon class="st14" points="82.34,74.85 82.19,75 82.34,75.16 86.58,75.16 86.73,75 86.58,74.85 			"/>
		</g>
		<g>
			<defs>
				<rect id="SVGID_00000054959529797405659560000017666156302028565896_" x="55.49" y="11.99" width="52.23" height="97.69"/>
			</defs>
			<clipPath id="SVGID_00000145024067434609784540000008580289866090943904_">
				<use xlink:href="#SVGID_00000054959529797405659560000017666156302028565896_"  style="overflow:visible;"/>
			</clipPath>
			<path style="clip-path:url(#SVGID_00000145024067434609784540000008580289866090943904_);fill:#6F6B6C;" d="M60.63,69.68l4.44,40
				h0.16l-4.37-39.34c1.61,1.69,7.75,3.01,15.92,3.51c0.1,0.01,0.21,0.01,0.31,0.02c0.08,0.01,0.16,0.01,0.24,0.01
				c0.1,0.01,0.21,0.01,0.31,0.02c1.84,0.1,3.79,0.15,5.79,0.17c0.24,0,0.47,0,0.71,0c0.84,0,1.67-0.01,2.48-0.02
				c1.75-0.04,3.45-0.1,5.06-0.21c0.1-0.01,0.21-0.01,0.31-0.02c0.08-0.01,0.15-0.01,0.23-0.02c0.1-0.01,0.21-0.01,0.31-0.02
				c7.65-0.55,13.34-1.83,14.89-3.44l-4.54,39.34h0.16l4.62-39.99c-0.68,2.35-10.94,4.22-23.5,4.22
				C71.57,73.91,61.31,72.03,60.63,69.68"/>
			<path style="clip-path:url(#SVGID_00000145024067434609784540000008580289866090943904_);fill:#FFFFFF;" d="M51.75,37.71
				c0,0,5.43,1.6,7.99,2.24c2.56,0.64,4.05,0.43,4.05,0.43s9.48,0.21,12.57,0.32c3.09,0.11,6.02,0.75,6.92,1.49
				c0.6,0.49,0.85,0.96,0.85,0.96s1.81,0.64,2.03,3.09c0.21,2.45-0.21,6.07-0.74,6.82c-0.53,0.75-2.24,0.85-2.24,0.85
				s0.11,1.28-3.52,2.24c-3.62,0.96-11.4,1.81-13.74,1.7c-2.35-0.11-5.54-0.43-8.52-1.28c-2.98-0.85-6.18-2.13-6.18-2.13
				L51.75,37.71z"/>
			<path style="clip-path:url(#SVGID_00000145024067434609784540000008580289866090943904_);fill:#1F1F1D;" d="M51.38,54.33
				c0.57,0.22,3.42,1.33,6.06,2.08c3.05,0.87,6.3,1.17,8.49,1.27c2.21,0.11,9.98-0.72,13.7-1.7c3.41-0.9,3.4-2.07,3.4-2.08
				l-0.01-0.15l0.15-0.01c0.02,0,1.64-0.11,2.12-0.79c0.48-0.68,0.94-4.19,0.72-6.72c-0.2-2.31-1.85-2.93-1.92-2.96l-0.05-0.02
				l-0.03-0.05c0,0-0.26-0.45-0.82-0.91c-0.88-0.73-3.82-1.35-6.83-1.46c-3.06-0.1-12.48-0.32-12.57-0.32
				c-0.04,0.01-1.52,0.21-4.08-0.43c-2.26-0.56-6.82-1.89-7.8-2.18L51.38,54.33z M66.35,58.01c-0.16,0-0.3,0-0.43-0.01
				c-2.2-0.1-5.48-0.4-8.56-1.28c-2.96-0.84-6.16-2.12-6.19-2.14l-0.1-0.04l0-0.11l0.54-16.92l0.19,0.06
				c0.05,0.02,5.46,1.6,7.98,2.23c2.49,0.62,3.97,0.42,3.99,0.42c0.12,0,9.54,0.21,12.6,0.32c3.12,0.11,6.07,0.75,7.02,1.53
				c0.5,0.42,0.78,0.82,0.86,0.95c0.32,0.13,1.87,0.89,2.07,3.2c0.21,2.43-0.2,6.12-0.78,6.92c-0.49,0.68-1.8,0.86-2.22,0.91
				c-0.08,0.39-0.6,1.44-3.61,2.24C76.18,57.22,69.03,58.01,66.35,58.01"/>
		</g>
		<g>
			<path class="st8" d="M84.03,43.14c0,0-7.67,0.32-8.2,0.32c-0.53,0-2.72,0.75-2.88,4.21c-0.16,3.46,0.69,4.9,1.81,5.54
				c1.12,0.64,8.41,0.69,8.41,0.69"/>
		</g>
		<g>
			<defs>
				<rect id="SVGID_00000101795866072106036040000014085306084072421820_" x="55.49" y="11.99" width="52.23" height="97.69"/>
			</defs>
			<clipPath id="SVGID_00000084500008593383569100000016946939337903945914_">
				<use xlink:href="#SVGID_00000101795866072106036040000014085306084072421820_"  style="overflow:visible;"/>
			</clipPath>
			<path style="clip-path:url(#SVGID_00000084500008593383569100000016946939337903945914_);fill:#1F1F1D;" d="M83.18,54.06
				c-0.3,0-7.35-0.06-8.49-0.71c-1.41-0.8-2.03-2.66-1.89-5.68c0.17-3.58,2.47-4.35,3.03-4.35c0.52,0,8.12-0.32,8.2-0.32l0.01,0.31
				c-0.31,0.01-7.68,0.32-8.21,0.32c-0.5,0-2.57,0.72-2.72,4.06c-0.13,2.89,0.43,4.66,1.73,5.4c0.86,0.49,5.83,0.65,8.34,0.67
				L83.18,54.06z"/>
			<path style="clip-path:url(#SVGID_00000084500008593383569100000016946939337903945914_);fill:#FFFFFF;" d="M118.69,23.33
				c-1.28-0.14-7.67,0-7.67,0s-5.82-1.85-8.81-2.41c-2.98-0.57-9.09-2.27-10.94-2.13c-1.85,0.14-3.41-0.71-5.11,2.91
				c-1.55,3.3-1.92,7.74,0.36,9.59c2.27,1.85,8.03,4.97,10.72,6.39c2.7,1.42,5.83,1.99,8.95,2.13c3.12,0.14,12.78-0.14,12.78-0.14
				L118.69,23.33z"/>
			<path style="clip-path:url(#SVGID_00000084500008593383569100000016946939337903945914_);fill:#1F1F1D;" d="M89.86,18.95
				c-1.24,0-2.35,0.24-3.56,2.82c-1.51,3.21-1.92,7.59,0.31,9.4c2.41,1.96,8.8,5.37,10.7,6.37c2.39,1.26,5.3,1.95,8.88,2.11
				c2.87,0.13,11.38-0.1,12.62-0.14l-0.28-16.04c-1.51-0.12-7.45,0.01-7.52,0.01l-0.05-0.01c-0.06-0.02-5.85-1.85-8.79-2.41
				c-0.96-0.18-2.26-0.49-3.62-0.81c-2.84-0.66-6.06-1.41-7.27-1.32c-0.35,0.03-0.68,0.02-1,0.01C90.14,18.95,90,18.95,89.86,18.95
				 M108.7,40c-1.01,0-1.89-0.01-2.52-0.04c-3.63-0.17-6.58-0.87-9.01-2.15c-1.91-1-8.32-4.43-10.75-6.41
				c-2.35-1.91-1.96-6.46-0.4-9.77c1.44-3.05,2.8-3.02,4.27-2.99c0.32,0.01,0.64,0.02,0.97-0.01c1.27-0.1,4.51,0.66,7.37,1.33
				c1.36,0.32,2.65,0.62,3.61,0.81c2.86,0.54,8.38,2.28,8.8,2.41c0.5-0.01,6.42-0.14,7.67,0l0.14,0.15l0.29,16.33l-0.15,0.16
				C118.9,39.82,112.75,40,108.7,40"/>
		</g>
		<g>
			<path class="st8" d="M85.1,28.84c0,0,9.02,2.45,10.44,2.66c1.42,0.21,2.41,0.5,3.41-1.92c1-2.41,1.21-4.47,1-5.4
				c-0.21-0.92-0.5-1.21-2.56-1.92c-2.06-0.71-9.87-2.49-9.87-2.49"/>
			<path class="st2" d="M96.73,31.79c-0.32,0-0.66-0.05-1.02-0.11l-0.2-0.03c-1.42-0.21-10.09-2.57-10.46-2.67l-0.11-0.19l0.19-0.11
				c0.09,0.03,9.03,2.45,10.42,2.66l0.2,0.03c1.29,0.2,2.14,0.33,3.04-1.85c0.97-2.36,1.19-4.41,0.99-5.31
				c-0.2-0.86-0.43-1.11-2.46-1.81c-2.03-0.7-9.78-2.46-9.86-2.48l-0.12-0.19l0.18-0.12c0.08,0.02,7.85,1.79,9.89,2.49
				c2.02,0.7,2.42,1,2.66,2.03c0.22,0.98,0,3.05-1,5.49C98.36,31.4,97.61,31.79,96.73,31.79"/>
			<path class="st10" d="M55.7,109.46h51.8V12.2H55.7V109.46z M107.94,109.89H55.27V11.77h52.66V109.89z"/>
		</g>
		<g>
			<defs>
				<rect id="SVGID_00000109732281728407964890000018230312432804111243_" x="3.25" y="11.99" width="52.23" height="97.69"/>
			</defs>
			<clipPath id="SVGID_00000084491820007009829720000011259538075896279478_">
				<use xlink:href="#SVGID_00000109732281728407964890000018230312432804111243_"  style="overflow:visible;"/>
			</clipPath>
			<path style="clip-path:url(#SVGID_00000084491820007009829720000011259538075896279478_);fill:#FFFFFF;" d="M64.05,44.19
				c-0.26-0.03-3.39-0.58-4.99-1.14c-1.61-0.56-3.16-1.54-3.16-1.54s-1.92,1.13-4.45,1.65c-2.53,0.53-4.68,0.16-4.68,0.16
				s-3,1.78-4.44,2.02c-1.44,0.24-4.77,0.46-5.75-1.39c-0.47-0.88-0.32-2.97,0.91-4.03c1.23-1.05,7.1-5.37,7.33-5.55
				c0.23-0.18-7.8,5.51-8.73,7.01c-1.44,2.3-2.18,2.37-3.36,2.59s-3.17-2.78-3.65-4.42c-0.48-1.63,0.19-11.04,0.19-11.04l6.81-1.44
				l9.06,5.15l22.98,1.79L64.05,44.19z"/>
			<path style="clip-path:url(#SVGID_00000084491820007009829720000011259538075896279478_);fill:#1F1F1D;" d="M37.32,40.31
				c-0.91,1.05-1.02,2.78-0.6,3.56c1.06,2,5.13,1.39,5.59,1.31c1.4-0.23,4.36-1.98,4.39-2l0.05-0.03l0.05,0.01
				c0.02,0,2.16,0.36,4.62-0.16c2.47-0.51,4.38-1.62,4.4-1.63l0.08-0.05l0.08,0.05c0.02,0.01,1.56,0.98,3.13,1.53
				c1.43,0.5,4.19,1.01,4.85,1.12l3.96-9.88l-22.84-1.79l-9-5.12l-6.64,1.4c-0.07,1.08-0.63,9.38-0.19,10.87
				c0.48,1.63,2.31,4.32,3.37,4.32l0.1-0.01l0.12-0.02c1.07-0.2,1.78-0.33,3.14-2.5c0.16-0.26,0.54-0.66,1.12-1.18l0.31-0.31
				c0.2-0.17,0.53-0.43,0.94-0.75c0.66-0.54,1.45-1.16,2.37-1.86c0.04-0.03,2.83-2.14,3.82-2.79c0.12-0.09,0.19-0.14,0.21-0.16
				l0.01,0.02l0.11-0.05h0l0.1,0.02l0.05,0.2l-0.08,0.07c-0.05,0.04-0.32,0.24-0.73,0.55c-1.35,1-4.15,3.08-5.71,4.29
				C38.05,39.67,37.66,40.01,37.32,40.31 M40.41,45.64c-1.46,0-3.26-0.29-3.96-1.63c-0.34-0.63-0.38-1.83,0.03-2.89
				c-0.11,0.12-0.2,0.23-0.25,0.32c-1.43,2.28-2.23,2.43-3.34,2.64l-0.12,0.02l-0.15,0.01c-1.29,0-3.2-2.92-3.67-4.54
				c-0.48-1.64,0.16-10.7,0.19-11.09l0.01-0.12l0.11-0.02l6.87-1.45l0.05,0.03l9.03,5.13l23.16,1.8l-4.21,10.49l-0.12-0.01
				c-0.19-0.02-3.36-0.56-5.02-1.15c-1.4-0.49-2.78-1.3-3.12-1.51c-0.39,0.22-2.18,1.16-4.41,1.63c-2.3,0.48-4.32,0.22-4.68,0.17
				c-0.4,0.24-3.07,1.78-4.45,2.01C42.05,45.54,41.3,45.64,40.41,45.64"/>
			<path style="clip-path:url(#SVGID_00000084491820007009829720000011259538075896279478_);fill:#1F1F1D;" d="M46.5,43.63
				l-0.12-0.06l0.03-0.22c0.02-0.01,1.35-1,2.33-2.78c0.39-0.71,0.77-2.36,0.77-2.38l0.19-0.12l0.12,0.18
				c-0.01,0.07-0.39,1.71-0.8,2.46c-1.02,1.84-2.36,2.84-2.42,2.88L46.5,43.63z"/>
			<path style="clip-path:url(#SVGID_00000084491820007009829720000011259538075896279478_);fill:#FFFFFF;" d="M-10.25,72.85
				c0.26-0.03,3.38-0.57,4.99-1.14c1.61-0.56,3.16-1.54,3.16-1.54s1.92,1.12,4.45,1.65c2.53,0.53,4.68,0.16,4.68,0.16
				s2.99,1.78,4.44,2.02c1.44,0.24,4.77,0.46,5.75-1.39c0.47-0.88,0.31-2.97-0.92-4.03c-1.23-1.05-7.1-5.37-7.33-5.55
				c-0.23-0.18,8.72,6.33,10.39,6.88c6.46,2.11,8.04-0.67,9.21-0.45c1.18,0.22-0.16,0.42,0.32-1.21c0.48-1.63,0.9-11.52,0.9-11.52
				l-12.08-0.99l-9.06,5.15l-22.98,1.79L-10.25,72.85z"/>
			<path style="clip-path:url(#SVGID_00000084491820007009829720000011259538075896279478_);fill:#1F1F1D;" d="M7.06,71.81
				l0.05,0.03c0.03,0.02,2.99,1.77,4.39,2c0.46,0.08,4.53,0.69,5.59-1.31c0.45-0.85,0.28-2.84-0.88-3.84
				c-0.98-0.84-4.91-3.76-6.59-5c-0.42-0.31-0.69-0.51-0.74-0.55l-0.12-0.09l0.09-0.12c0.06-0.08,0.08-0.11,0.22-0.02l0,0l0.05,0.04
				c0.07,0.04,0.16,0.11,0.29,0.2c7.09,5.08,9.35,6.4,10.01,6.62c4.6,1.5,6.68,0.5,7.92-0.09c0.5-0.24,0.9-0.43,1.28-0.36l0.09,0.02
				c-0.08-0.24-0.1-0.6,0.05-1.12c0.44-1.49,0.83-10.09,0.88-11.33l-11.89-0.98l-9.08,5.14l-22.78,1.77l3.96,9.88
				c0.62-0.1,3.35-0.59,4.85-1.11c1.57-0.55,3.12-1.52,3.13-1.53l0.08-0.05l0.08,0.04c0.02,0.01,1.93,1.12,4.4,1.63
				c2.46,0.51,4.6,0.16,4.62,0.16L7.06,71.81z M13.39,74.3c-0.89,0-1.64-0.11-1.94-0.16c-1.37-0.23-4.04-1.77-4.45-2.01
				c-0.36,0.05-2.38,0.31-4.68-0.17c-2.23-0.46-4.02-1.4-4.41-1.62c-0.34,0.21-1.72,1.02-3.12,1.51c-1.66,0.58-4.84,1.12-5.02,1.15
				l-0.12,0.01l-0.04-0.11l-4.16-10.38l23.16-1.8l9.07-5.16l0.05,0.01l12.23,1l-0.01,0.15c-0.02,0.4-0.42,9.92-0.9,11.55
				c-0.25,0.85,0.03,1.12,0.09,1.17l0.1,0.12l0.02,0.1l-0.09,0.06l-0.19-0.01c-0.05-0.02-0.17-0.06-0.42-0.11
				c-0.28-0.06-0.62,0.11-1.08,0.33c-1.28,0.62-3.43,1.65-8.15,0.11c-0.5-0.16-1.69-0.87-3.51-2.08c0.25,0.2,0.46,0.37,0.6,0.49
				c1.32,1.13,1.45,3.28,0.95,4.21C16.65,74.01,14.85,74.3,13.39,74.3"/>
			<path style="clip-path:url(#SVGID_00000084491820007009829720000011259538075896279478_);fill:#1F1F1D;" d="M7.3,72.29
				l-0.09-0.03c-0.06-0.04-1.4-1.04-2.42-2.88c-0.41-0.74-0.79-2.39-0.8-2.46l0.12-0.18l0.19,0.12c0,0.02,0.38,1.67,0.77,2.38
				C6.04,71,7.38,72,7.39,72.01l0.03,0.22L7.3,72.29z"/>
			<path style="clip-path:url(#SVGID_00000084491820007009829720000011259538075896279478_);fill:#FFFFFF;" d="M59.54,8.93H25.76
				c0,0-1.41,3.33-1.79,4.35c-0.38,1.02-3.84,5.25-3.46,7.29c0.39,2.05,2.82,3.97,5.5,2.69c2.69-1.28,5.86-4.17,7.41-5.93
				c1.55-1.75,1.8-2.52,1.8-2.52s1.92,0.77,4.73,0.26c2.81-0.51,4.09-1.92,4.09-1.92s2.56,2.43,6.4,2.81
				c3.84,0.38,7.29-0.77,7.29-0.77s-2.3,2.56-2.05,4.61c0.26,2.05,1.66,4.35,1.66,4.35l4.1,0.13v-16L59.54,8.93z"/>
			<path style="clip-path:url(#SVGID_00000084491820007009829720000011259538075896279478_);fill:#1F1F1D;" d="M57.46,24.01
				l3.85,0.12V8.51l-1.72,0.57l-0.05,0.01H25.86c-0.23,0.55-1.41,3.34-1.75,4.25c-0.12,0.31-0.48,0.88-0.95,1.59
				c-1.1,1.68-2.76,4.23-2.5,5.62c0.2,1.07,0.97,2.06,2,2.59c1.02,0.52,2.19,0.52,3.29-0.01c2.74-1.31,5.9-4.24,7.36-5.89
				c1.5-1.7,1.77-2.46,1.77-2.47l0.08-0.09l0.12,0c0.02,0.01,1.92,0.74,4.65,0.25c2.72-0.5,4-1.86,4.01-1.87L44.05,13l0.11,0.04
				c0.03,0.02,2.57,2.4,6.31,2.77c3.77,0.38,7.2-0.75,7.23-0.76l0.18,0.06l-0.01,0.19c-0.02,0.03-2.25,2.53-2.01,4.48
				C56.08,21.58,57.22,23.61,57.46,24.01 M61.46,24.44L61.46,24.44l-4.1-0.13l-0.13-0.07c-0.06-0.1-1.43-2.36-1.69-4.41
				c-0.2-1.63,1.12-3.53,1.76-4.34c-1.09,0.3-3.87,0.93-6.87,0.63c-3.4-0.34-5.84-2.29-6.38-2.76c-0.37,0.35-1.66,1.42-4.07,1.86
				c-2.43,0.44-4.18-0.05-4.68-0.21c-0.14,0.3-0.58,1.08-1.77,2.43c-1.47,1.67-4.67,4.64-7.46,5.96c-1.19,0.57-2.45,0.57-3.56,0.01
				c-1.12-0.57-1.94-1.64-2.16-2.8c-0.28-1.52,1.42-4.12,2.54-5.85c0.44-0.67,0.81-1.25,0.92-1.53c0.38-1.02,1.78-4.32,1.79-4.36
				l0.14-0.09h33.76l1.9-0.63l0.14,0.02l0.06,0.12v16l-0.05,0.11L61.46,24.44z"/>
			<path style="clip-path:url(#SVGID_00000084491820007009829720000011259538075896279478_);fill:#1F1F1D;" d="M35.23,14.97
				l-0.15-0.15c0-0.02-0.1-2.33-0.28-3.27c-0.19-0.91-1.21-2.23-1.22-2.24L33.6,9.1l0.22,0.03c0.04,0.06,1.08,1.38,1.28,2.37
				c0.19,0.96,0.29,3.22,0.29,3.32L35.23,14.97L35.23,14.97z"/>
		</g>
		<g>
			<polygon class="st2" points="43.99,11.99 43.91,13.14 44.05,13.31 44.06,13.31 44.21,13.17 44.3,11.99 			"/>
			<path class="st3" d="M22.53,76.25c-8.55,0.82-14.4,3.08-14.4,4.66c0,0.06,0.01,0.12,0.03,0.18l0,0c0.02,0.06,0.05,0.12,0.08,0.19
				c0.46,0.8,2.41,1.6,5.51,2.24c2.4,0.48,5.42,0.85,8.8,1.07L22.53,76.25z M36.75,76.34l0,8.17c3.12-0.23,5.9-0.6,8.12-1.06
				c2.88-0.61,4.71-1.36,5.22-2.12c0.05-0.08,0.09-0.16,0.11-0.24l0.01,0c0.02-0.06,0.03-0.12,0.03-0.18
				C50.24,79.39,44.8,77.23,36.75,76.34"/>
		</g>
		<g>
			<defs>
				<rect id="SVGID_00000034086258225129205330000007448090704216233096_" x="3.25" y="11.99" width="52.23" height="97.69"/>
			</defs>
			<clipPath id="SVGID_00000146464709057725436250000014144353985096279958_">
				<use xlink:href="#SVGID_00000034086258225129205330000007448090704216233096_"  style="overflow:visible;"/>
			</clipPath>
			<path style="clip-path:url(#SVGID_00000146464709057725436250000014144353985096279958_);fill:#1F1F1D;" d="M29.18,75.93
				c-12.01,0-21.05,3.02-21.05,4.97c0,1.87,8.46,3.88,21.05,3.88s21.06-2,21.06-3.88C50.24,78.95,41.2,75.93,29.18,75.93
				 M29.18,85.09c-10.5,0-21.36-1.57-21.36-4.18c0-2.39,9.53-5.28,21.36-5.28c11.83,0,21.36,2.89,21.36,5.28
				C50.55,83.52,39.68,85.09,29.18,85.09"/>
			<path style="clip-path:url(#SVGID_00000146464709057725436250000014144353985096279958_);fill:#FFFFFF;" d="M2.6,24.95
				c0.58,0.29,10.37,3.36,10.37,3.36s4.13,2.11,8.25,5.28c4.13,3.17,10.79,9.79,11.56,10.46c0.77,0.67,5.51,4.47,3.12,8.3
				c-1.2,1.92-2.78,2.49-5.66,1.05c-2.88-1.44-8.54-3.98-9.79-5.81c-0.05-0.08-0.77-0.43-1.82-0.86c-2.2-0.9-7.7-2.98-7.87-4.51
				c-0.05-0.43-1.05,0.48-3.07,0.29c-2.02-0.19-6.14-2.01-6.14-2.01L2.6,24.95z"/>
			<path style="clip-path:url(#SVGID_00000146464709057725436250000014144353985096279958_);fill:#1F1F1D;" d="M10.62,41.96
				L10.79,42c0.05,0.03,0.11,0.09,0.12,0.21c0.15,1.31,4.87,3.21,7.14,4.13l0.63,0.26c0.29,0.12,1.76,0.73,1.89,0.92
				c1.04,1.52,5.39,3.64,8.27,5.04c0.53,0.26,1.03,0.5,1.46,0.71c2.62,1.31,4.2,1.02,5.46-1c1.01-1.62,1.32-4.32-2.97-8l-0.12-0.11
				c-0.18-0.15-0.63-0.59-1.31-1.24c-2.29-2.19-7.05-6.76-10.25-9.22c-4.07-3.12-8.19-5.24-8.23-5.26
				c-0.35-0.11-8.64-2.71-10.15-3.27L1.71,40.4c0.64,0.28,4.2,1.79,6,1.96c1.13,0.11,1.94-0.14,2.42-0.29
				C10.34,42.01,10.5,41.96,10.62,41.96 M33.02,54.37c-0.82,0-1.76-0.28-2.85-0.83c-0.43-0.22-0.92-0.46-1.46-0.71
				c-3.08-1.5-7.31-3.56-8.39-5.14c-0.06-0.05-0.65-0.36-1.75-0.81l-0.63-0.26c-3.45-1.39-7.14-2.99-7.33-4.36
				c-0.07,0-0.24,0.05-0.39,0.1c-0.51,0.16-1.36,0.42-2.54,0.3c-2.02-0.19-6.02-1.95-6.19-2.03l-0.1-0.04l1.08-15.89l0.21,0.1
				c0.45,0.22,6.96,2.29,10.34,3.35c0.07,0.03,4.21,2.16,8.3,5.3c3.21,2.46,7.98,7.04,10.27,9.24c0.66,0.63,1.13,1.08,1.3,1.23
				l0.12,0.1c4.45,3.82,4.1,6.67,3.03,8.4C35.22,53.74,34.26,54.37,33.02,54.37"/>
		</g>
		<g>
			<path class="st8" d="M12.68,33.64c0,0-1.58,2.54-2.06,5.09c-0.26,1.37,0.14,3.5,0.14,3.5"/>
			<path class="st2" d="M10.61,42.26c-0.02-0.09-0.41-2.17-0.14-3.56c0.48-2.54,2.07-5.11,2.08-5.14l0.26,0.16
				c-0.02,0.03-1.57,2.55-2.04,5.03c-0.25,1.33,0.14,3.42,0.14,3.44L10.61,42.26z"/>
			<path class="st8" d="M23.62,39.78c0,0-1.97,2.59-2.54,4.18c-0.58,1.58-0.62,3.65-0.62,3.65"/>
			<path class="st2" d="M20.6,47.61L20.3,47.6c0-0.09,0.05-2.11,0.63-3.7c0.58-1.59,2.48-4.11,2.56-4.22l0.25,0.19
				c-0.02,0.03-1.96,2.59-2.52,4.13C20.66,45.55,20.6,47.59,20.6,47.61"/>
			<polygon class="st2" points="41.44,57.8 41.44,80.13 43.64,80.13 43.64,57.8 45.28,57.8 42.54,53.06 39.8,57.8 			"/>
			<path class="st9" d="M18.01,21.9h5.85v21.38h11.62V21.9h5.86c0,0,0.01-0.37,0.01-0.81c0-0.45-0.19-0.81-1.56-0.81H19.56
				c-1.37,0-1.56,0.37-1.56,0.81C18,21.53,18.01,21.9,18.01,21.9"/>
			<path class="st10" d="M24.02,43.13h11.32V21.75h5.86c0-0.15,0.01-0.39,0.01-0.66c0-0.26,0-0.66-1.41-0.66H19.56
				c-1.41,0-1.41,0.39-1.41,0.66c0,0.27,0.01,0.51,0.01,0.66h5.86V43.13z M35.64,43.43H23.71V22.05h-5.84l-0.01-0.15
				c0,0-0.02-0.37-0.02-0.82c0-0.69,0.5-0.97,1.71-0.97h20.24c1.22,0,1.71,0.28,1.71,0.97c0,0.45-0.01,0.82-0.01,0.82l-0.01,0.15
				h-5.85V43.43z"/>
			<path class="st8" d="M41.86,41.82v0.68c-0.07,0.28-0.41,0.53-0.75,0.55l-2.08,0.04c-1.02,0.11-1.68,1.16-2.45,1.71L36.6,90.4
				c0,0.26-0.25,0.47-0.39,0.56c-0.85,0.64-1.58,1.06-2.56,1.32c-0.39,0.1-1.17,0.3-1.19,0.62l-0.05,0.35
				c0.53,0.34,0.57,0.31,0,0.71l0.05,1.4c-0.12,0.53-0.53,1.02-0.82,1.02h-3.89c-0.34-0.02-0.75-0.75-0.78-0.98v-1.47
				c-0.55-0.4-0.55-0.25,0-0.67v-0.44c-0.02-0.21-0.32-0.28-1.05-0.51c-1.12-0.32-2.22-0.87-2.84-1.34
				c-0.18-0.13-0.39-0.28-0.39-0.49l-0.05-45.72c-0.42-0.55-0.82-1.63-1.67-1.69l-2.74-0.04c-0.55,0-0.73-0.41-0.75-0.68v-0.53
				H41.86z"/>
			<path class="st10" d="M26.77,93.6l0.08,0.05l0.22,0.15l0.06,0.05v1.55c0.02,0.19,0.41,0.81,0.63,0.83h3.88
				c0.19,0,0.57-0.4,0.67-0.9l-0.05-1.44l0.07-0.05c0.13-0.09,0.27-0.18,0.32-0.24l-0.21-0.15l-0.19-0.12l0.06-0.44
				c0.02-0.3,0.43-0.54,1.31-0.75c0.89-0.24,1.59-0.6,2.5-1.29c0.1-0.07,0.33-0.25,0.33-0.44l-0.02-45.68l0.06-0.04
				c0.23-0.17,0.46-0.39,0.7-0.62c0.53-0.51,1.07-1.04,1.82-1.12l2.1-0.04c0.27-0.01,0.55-0.21,0.61-0.43l-0.01-0.49H17.64v0.37
				c0.01,0.08,0.07,0.52,0.6,0.52l2.75,0.04c0.73,0.06,1.16,0.75,1.5,1.3c0.1,0.17,0.2,0.33,0.29,0.45l0.03,0.04v0.05l0.05,45.72
				c0,0.13,0.18,0.26,0.32,0.36c0.65,0.5,1.77,1.02,2.79,1.32l0.15,0.05c0.69,0.21,0.98,0.3,1.01,0.59v0.54l-0.06,0.05l-0.22,0.16
				L26.77,93.6z M31.64,96.53h-3.89c-0.48-0.03-0.9-0.87-0.93-1.12l0-1.41l-0.15-0.1c-0.16-0.11-0.26-0.18-0.27-0.31
				c0-0.13,0.09-0.19,0.26-0.31l0.15-0.11v-0.37c-0.01-0.08-0.34-0.17-0.79-0.32l-0.15-0.04c-1.06-0.31-2.2-0.84-2.88-1.36
				c-0.19-0.14-0.45-0.32-0.45-0.61L22.5,44.81c-0.09-0.13-0.19-0.28-0.28-0.44c-0.32-0.52-0.68-1.11-1.25-1.15l-2.74-0.04
				c-0.57,0-0.87-0.41-0.9-0.82v-0.7h24.69v0.83c-0.09,0.39-0.48,0.68-0.9,0.7l-2.09,0.04c-0.63,0.07-1.14,0.56-1.62,1.04
				c-0.22,0.21-0.44,0.42-0.67,0.6l0.02,45.53c0,0.33-0.29,0.57-0.46,0.69c-0.94,0.71-1.67,1.09-2.61,1.34
				c-1.01,0.24-1.07,0.45-1.08,0.48l-0.03,0.26l0.02,0.01c0.24,0.16,0.38,0.24,0.38,0.4c0,0.16-0.12,0.25-0.41,0.45l0.04,1.31
				C32.5,95.93,32.06,96.53,31.64,96.53"/>
			<path class="st26" d="M36.44,83.02h-13.6v1.57c2.01,0.12,4.14,0.19,6.34,0.19c1.02,0,2.02-0.01,3-0.04
				c-0.01-0.03-0.01-0.07-0.01-0.11c0-0.19,0.12-0.36,0.24-0.52l0.06-0.08v0h-0.33v-0.15h0.53V84l-0.1,0.12
				c-0.13,0.17-0.25,0.33-0.25,0.5l0.1,0.11c0.06,0,0.13,0,0.19-0.01l0,0l0,0c1.32-0.04,2.6-0.11,3.83-0.19L36.44,83.02z
				 M25.8,84.56l-0.15-0.15l0.15-0.15h5.58l0.15,0.15l-0.15,0.15H25.8z"/>
			<path class="st10" d="M36.63,83.02h-0.18v1.51c0.06,0,0.12-0.01,0.18-0.01V83.02z M22.84,83.02h-0.13l0,1.57
				c0.04,0,0.09,0,0.13,0.01L22.84,83.02z"/>
			<rect x="23.21" y="41.87" class="st9" width="12.92" height="41.02"/>
			<path class="st27" d="M23.37,82.73h12.61V42.02H23.37V82.73z M36.29,83.04H23.06V41.72h13.23V83.04z"/>
			<polygon class="st10" points="26.62,93.45 26.46,93.61 26.62,93.76 32.73,93.76 32.89,93.61 32.73,93.45 			"/>
			<polygon class="st10" points="26.91,92.53 26.75,92.68 26.91,92.83 32.44,92.83 32.59,92.68 32.44,92.53 			"/>
			<path class="st10" d="M32.38,95.12h-5.42c-0.12,0-0.22-0.1-0.22-0.21c0-0.12,0.1-0.21,0.22-0.21h5.42c0.12,0,0.22,0.1,0.22,0.21
				C32.6,95.02,32.5,95.12,32.38,95.12"/>
			<polygon class="st10" points="22.75,90.29 22.59,90.44 22.75,90.6 36.6,90.6 36.76,90.44 36.6,90.29 			"/>
			<polygon class="st10" points="28.75,69.92 28.09,69.39 28.09,69.74 28.63,70.14 28.8,70.26 28.8,70.26 28.09,70.26 28.09,70.54 
				29.64,70.54 29.64,70.26 29.1,70.26 28.93,70.12 29.64,69.68 29.64,69.35 			"/>
			<path class="st10" d="M29.09,68.62c-0.01,0.2,0.04,0.39,0.21,0.39l0.16-0.16c0-0.11-0.07-0.2-0.15-0.22l-0.06-0.01H29.09z
				 M29.64,68.58l-0.12,0.02v0.01c0.09,0.07,0.15,0.18,0.15,0.33c0,0.23-0.16,0.35-0.33,0.35c-0.28,0-0.43-0.25-0.43-0.66h-0.02
				c-0.08,0-0.2,0.03-0.2,0.23l0.08,0.3l-0.18,0.06c-0.05-0.08-0.1-0.23-0.1-0.41c0-0.36,0.23-0.46,0.47-0.46h0.41l0.27-0.02V68.58z
				"/>
			<path class="st10" d="M28.85,68.04c-0.13,0-0.24,0-0.33,0.01V67.8l0.17-0.01v-0.01c-0.09-0.05-0.19-0.17-0.19-0.36
				c0-0.2,0.13-0.4,0.48-0.4h0.67v0.28h-0.63c-0.16,0-0.28,0.06-0.28,0.21c0,0.11,0.08,0.19,0.16,0.22l0.09,0.01h0.66v0.29H28.85z"
				/>
			<path class="st10" d="M29.18,66.44l0.07-0.01c0.11-0.03,0.2-0.13,0.2-0.25c0-0.18-0.14-0.29-0.37-0.29
				c-0.2,0-0.36,0.09-0.36,0.28c0,0.11,0.08,0.22,0.21,0.25L29,66.44H29.18z M29.64,66.73c-0.07,0-0.2-0.01-0.32-0.01H28v-0.28h0.67
				v0c-0.11-0.07-0.18-0.19-0.18-0.36c0-0.27,0.23-0.47,0.57-0.47c0.4,0,0.6,0.26,0.6,0.51c0,0.15-0.05,0.27-0.19,0.35v0l0.17,0.01
				V66.73z"/>
			<path class="st10" d="M28.52,65.37h1.12v-0.29h-1.12V65.37z M28.05,65.23l0.15,0.16l0.15-0.16l-0.15-0.16L28.05,65.23z"/>
			<path class="st10" d="M29.38,64.8l0.08-0.29c0-0.12-0.05-0.18-0.12-0.18c-0.08,0-0.12,0.04-0.17,0.18
				c-0.07,0.22-0.19,0.31-0.33,0.31c-0.2,0-0.35-0.16-0.35-0.42c0-0.12,0.03-0.23,0.07-0.3l0.2,0.05l-0.06,0.24l0.12,0.16
				c0.07,0,0.11-0.05,0.16-0.19c0.07-0.2,0.18-0.3,0.34-0.3c0.2,0,0.35,0.16,0.35,0.46c0,0.13-0.03,0.26-0.08,0.34L29.38,64.8z"/>
			<path class="st10" d="M28.43,63.52v-0.04l-0.05-0.08l-0.05,0.07l0,0.04H28.43z M28.64,63.52v0.1h-0.37l-0.01-0.15l0.03-0.14
				l0.08-0.04l0.08,0.08h0.01l0.09-0.07l0.09-0.03v0.11l-0.09,0.03l-0.05,0.07v0.04H28.64z M28.45,63.75c0.17,0,0.3-0.12,0.3-0.29
				c0-0.17-0.13-0.29-0.3-0.29c-0.17,0-0.3,0.12-0.3,0.29C28.15,63.63,28.29,63.75,28.45,63.75 M28.45,63.06
				c0.22,0,0.39,0.18,0.39,0.4c0,0.22-0.17,0.4-0.39,0.4c-0.21,0-0.39-0.18-0.39-0.4C28.06,63.24,28.24,63.06,28.45,63.06"/>
			<path class="st10" d="M31.69,71.19c0.03,0.07,0.07,0.2,0.07,0.37c0,0.4-0.25,0.7-0.72,0.7c-0.44,0-0.74-0.3-0.74-0.74
				c0-0.17,0.04-0.29,0.06-0.33l0.15,0.04c-0.03,0.07-0.06,0.17-0.06,0.28c0,0.33,0.21,0.55,0.58,0.55c0.35,0,0.57-0.2,0.57-0.54
				c0-0.11-0.02-0.22-0.06-0.3L31.69,71.19z"/>
			<path class="st10" d="M31.22,70.43c0,0.2,0.03,0.43,0.23,0.43c0.12,0,0.17-0.08,0.17-0.17c0-0.13-0.08-0.22-0.17-0.25l-0.06-0.01
				H31.22z M31.74,70.41l-0.13,0.02v0.01c0.08,0.06,0.15,0.17,0.15,0.31c0,0.21-0.14,0.31-0.29,0.31c-0.25,0-0.38-0.22-0.38-0.61
				h-0.02c-0.08,0-0.23,0.02-0.23,0.23l0.07,0.26l-0.12,0.04c-0.05-0.08-0.09-0.21-0.09-0.33c0-0.31,0.21-0.39,0.41-0.39h0.38
				l0.24-0.02V70.41z"/>
			<path class="st10" d="M31,69.96l-0.27,0.01V69.8l0.17-0.01v0c-0.1-0.05-0.19-0.17-0.19-0.34c0-0.14,0.08-0.36,0.43-0.36h0.61
				v0.19h-0.59c-0.16,0-0.3,0.06-0.3,0.23c0,0.12,0.08,0.21,0.19,0.25l0.09,0.01h0.61v0.19H31z"/>
			<path class="st10" d="M31,68.79l-0.27,0.01v-0.16l0.17-0.01v0c-0.1-0.05-0.19-0.17-0.19-0.33c0-0.14,0.08-0.36,0.43-0.36h0.61
				v0.18h-0.59c-0.16,0-0.3,0.06-0.3,0.23c0,0.12,0.08,0.22,0.19,0.25l0.09,0.01h0.61v0.19H31z"/>
			<path class="st10" d="M31.22,67.1c0,0.2,0.03,0.43,0.23,0.43c0.12,0,0.17-0.08,0.17-0.17c0-0.13-0.08-0.22-0.17-0.25L31.4,67.1
				H31.22z M31.74,67.07l-0.13,0.02v0.01c0.08,0.06,0.15,0.17,0.15,0.31c0,0.21-0.14,0.31-0.29,0.31c-0.25,0-0.38-0.22-0.38-0.61
				h-0.02c-0.08,0-0.23,0.02-0.23,0.23l0.07,0.26l-0.12,0.04c-0.05-0.08-0.09-0.21-0.09-0.33c0-0.31,0.21-0.38,0.41-0.38h0.38
				l0.24-0.02V67.07z"/>
			<path class="st10" d="M31.33,66.44l0.07-0.01c0.13-0.04,0.21-0.14,0.21-0.28c0-0.19-0.16-0.31-0.39-0.31
				c-0.2,0-0.38,0.11-0.38,0.3c0,0.12,0.09,0.24,0.23,0.28l0.07,0.01H31.33z M31.74,66.63l-0.26-0.01h-1.23v-0.18h0.64v0
				c-0.11-0.07-0.19-0.18-0.19-0.35c0-0.25,0.21-0.43,0.52-0.43c0.36,0,0.54,0.23,0.54,0.46c0,0.15-0.06,0.26-0.19,0.34v0.01
				l0.17,0.01V66.63z"/>
			<path class="st10" d="M30.72,65.43h1.02v-0.18h-1.02V65.43z M30.32,65.34l0.12,0.12l0.11-0.11l-0.11-0.12L30.32,65.34z"/>
			<path class="st10" d="M31.14,64.25l-0.08,0.01c-0.12,0.03-0.21,0.13-0.21,0.27c0,0.19,0.17,0.3,0.39,0.3
				c0.21,0,0.37-0.1,0.37-0.3c0-0.12-0.08-0.24-0.22-0.27l-0.08-0.01H31.14z M30.25,64.06h1.23l0.26-0.01v0.17l-0.18,0.01v0
				c0.11,0.06,0.2,0.18,0.2,0.34c0,0.25-0.21,0.43-0.51,0.43c-0.34,0-0.55-0.21-0.55-0.45c0-0.16,0.07-0.26,0.15-0.31v0h-0.61V64.06
				z"/>
			<path class="st10" d="M30.72,63.76h1.02v-0.19h-1.02V63.76z M30.32,63.66l0.12,0.12l0.11-0.11l-0.11-0.12L30.32,63.66z"/>
			<path class="st10" d="M31.23,63.15c0.22,0,0.39-0.13,0.39-0.31c0-0.17-0.16-0.31-0.39-0.31c-0.17,0-0.39,0.09-0.39,0.3
				C30.84,63.06,31.04,63.15,31.23,63.15 M31.22,62.34c0.38,0,0.54,0.26,0.54,0.51c0,0.27-0.2,0.49-0.52,0.49
				c-0.34,0-0.54-0.22-0.54-0.5C30.7,62.54,30.91,62.34,31.22,62.34"/>
			<rect x="30.25" y="61.93" class="st10" width="1.49" height="0.18"/>
			<polygon class="st10" points="32.26,86.88 32.26,87.91 32.41,87.91 32.63,87.79 32.6,87.65 32.43,87.75 32.43,87.75 32.43,86.88 
							"/>
			<polygon class="st10" points="33.08,85.51 33.08,86.53 33.23,86.53 33.46,86.41 33.42,86.28 33.25,86.37 33.25,86.37 
				33.25,85.51 			"/>
			<path class="st10" d="M32.95,85.31c-0.04,0.11-0.08,0.28-0.1,0.4l-0.18,0.01c0.04-0.14,0.11-0.31,0.17-0.4L32.95,85.31z"/>
			<path class="st10" d="M32.16,86.39h0.28l0.03-0.22l-0.03,0l-0.19-0.08l-0.09-0.24c0-0.2,0.13-0.36,0.34-0.36l0.18,0.04
				l-0.03,0.13l-0.15-0.04c-0.1,0-0.18,0.07-0.18,0.2c0,0.15,0.1,0.2,0.23,0.2l0.08,0l-0.06,0.5h-0.4V86.39z"/>
			<path class="st10" d="M33.5,82.47v0.11l-0.1,0.12c-0.13,0.17-0.25,0.33-0.25,0.5l0.14,0.16l0.15-0.05l0.04,0.13l-0.21,0.07
				c-0.2,0-0.28-0.14-0.28-0.29c0-0.19,0.12-0.36,0.25-0.52l0.06-0.08v0h-0.33v-0.15H33.5z"/>
			<path class="st10" d="M32.95,82.28c-0.04,0.11-0.08,0.28-0.1,0.4l-0.18,0.02c0.04-0.14,0.11-0.31,0.17-0.4L32.95,82.28z"/>
			<path class="st10" d="M32.16,83.35h0.28l0.03-0.22h-0.03l-0.19-0.08l-0.09-0.24c0-0.2,0.13-0.36,0.34-0.36l0.18,0.04l-0.03,0.13
				L32.5,82.6c-0.1,0-0.18,0.07-0.18,0.2c0,0.15,0.1,0.21,0.23,0.21l0.08,0l-0.06,0.5h-0.4V83.35z"/>
			<path class="st10" d="M33.47,79.52l-0.15-0.04l-0.17,0.17c0,0.12,0.09,0.18,0.2,0.18h0.03v0.12h-0.02
				c-0.07,0-0.18,0.04-0.18,0.16l0.12,0.13l0.13-0.04l0.03,0.12l-0.2,0.06c-0.16,0-0.25-0.11-0.25-0.24l0.15-0.23v0
				c-0.1-0.03-0.18-0.12-0.18-0.26c0-0.16,0.12-0.31,0.32-0.31l0.19,0.04L33.47,79.52z"/>
			<path class="st10" d="M32.95,79.16c-0.04,0.11-0.08,0.28-0.1,0.4l-0.18,0.01c0.04-0.13,0.11-0.31,0.17-0.4L32.95,79.16z"/>
			<path class="st10" d="M32.16,80.23h0.28l0.03-0.22l-0.03,0l-0.19-0.08l-0.09-0.23c0-0.2,0.13-0.35,0.34-0.35l0.18,0.04
				l-0.03,0.13l-0.15-0.04c-0.1,0-0.18,0.07-0.18,0.2c0,0.15,0.1,0.21,0.23,0.21l0.08,0l-0.06,0.5h-0.4V80.23z"/>
			<path class="st10" d="M33.17,76.92v-0.25h0.2v0l-0.13,0.25l-0.08,0.17h-0.01L33.17,76.92z M33.02,76.27v0.26h-0.11v0.14h0.11
				v0.63h0.16l0.33-0.65v-0.12h-0.35v-0.26H33.02z"/>
			<path class="st10" d="M32.95,76.08c-0.04,0.11-0.08,0.28-0.1,0.4l-0.18,0.02c0.04-0.14,0.11-0.31,0.17-0.4L32.95,76.08z"/>
			<path class="st10" d="M32.16,77.15h0.28l0.03-0.22l-0.03,0l-0.19-0.08l-0.09-0.24c0-0.2,0.13-0.36,0.34-0.36l0.18,0.04
				l-0.03,0.13L32.5,76.4c-0.1,0-0.18,0.07-0.18,0.2c0,0.15,0.1,0.21,0.23,0.21l0.08,0l-0.06,0.5h-0.4V77.15z"/>
			<path class="st10" d="M32.68,83.89V84l-0.09,0.12c-0.13,0.17-0.25,0.33-0.25,0.5l0.14,0.16l0.15-0.05l0.04,0.13l-0.21,0.07
				c-0.2,0-0.28-0.14-0.28-0.29c0-0.19,0.12-0.36,0.25-0.52l0.06-0.08v0h-0.33v-0.15H32.68z"/>
			<path class="st10" d="M32.65,81.01l-0.15-0.04l-0.17,0.17c0,0.12,0.09,0.19,0.2,0.19h0.03v0.12h-0.02
				c-0.07,0-0.18,0.04-0.18,0.16l0.12,0.14l0.13-0.04l0.02,0.13l-0.2,0.06c-0.16,0-0.25-0.11-0.25-0.24l0.15-0.23V81.4
				c-0.1-0.03-0.18-0.12-0.18-0.26c0-0.16,0.12-0.31,0.32-0.31l0.19,0.04L32.65,81.01z"/>
			<path class="st10" d="M32.4,78.4v-0.25h0.2v0l-0.12,0.25l-0.08,0.18h0L32.4,78.4z M32.25,77.76v0.26h-0.11v0.13h0.11v0.63h0.16
				l0.34-0.65v-0.12H32.4v-0.26H32.25z"/>
			<path class="st10" d="M32.16,75.53h0.28l0.03-0.22l-0.03,0l-0.19-0.08L32.15,75c0-0.2,0.13-0.36,0.34-0.36l0.18,0.04l-0.03,0.13
				l-0.15-0.04c-0.1,0-0.18,0.07-0.18,0.2c0,0.15,0.1,0.21,0.23,0.21l0.08,0l-0.06,0.5h-0.4V75.53z"/>
			<path class="st10" d="M33.33,89.16c0-0.24-0.03-0.38-0.12-0.38c-0.08,0-0.11,0.14-0.11,0.38c0,0.23,0.03,0.38,0.11,0.38
				C33.29,89.54,33.33,89.4,33.33,89.16 M32.93,89.16c0-0.37,0.13-0.53,0.29-0.53c0.19,0,0.28,0.23,0.28,0.52
				c0,0.32-0.1,0.53-0.29,0.53C33,89.68,32.93,89.44,32.93,89.16"/>
			<path class="st10" d="M32.95,88.45c-0.04,0.11-0.08,0.28-0.1,0.39l-0.18,0.02c0.04-0.14,0.11-0.31,0.17-0.4L32.95,88.45z"/>
			<path class="st10" d="M32.16,89.52h0.28l0.03-0.22h-0.03l-0.19-0.08l-0.09-0.24c0-0.2,0.13-0.36,0.34-0.36l0.18,0.04l-0.03,0.13
				l-0.15-0.04c-0.1,0-0.18,0.07-0.18,0.2c0,0.15,0.1,0.21,0.23,0.21l0.08,0l-0.06,0.5h-0.4V89.52z"/>
			<polygon class="st10" points="25.8,87.24 25.64,87.4 25.8,87.55 31.38,87.55 31.53,87.4 31.38,87.24 			"/>
			<polygon class="st10" points="25.8,84.25 25.64,84.41 25.8,84.56 31.38,84.56 31.53,84.41 31.38,84.25 			"/>
			<polygon class="st10" points="25.8,81.2 25.64,81.36 25.8,81.51 31.38,81.51 31.53,81.36 31.38,81.2 			"/>
			<polygon class="st10" points="25.8,78.12 25.64,78.27 25.8,78.42 31.38,78.42 31.53,78.27 31.38,78.12 			"/>
			<polygon class="st10" points="25.8,75.01 25.64,75.16 25.8,75.31 31.38,75.31 31.53,75.16 31.38,75.01 			"/>
			<polygon class="st10" points="28.6,89.66 28.44,89.81 28.6,89.96 31.38,89.96 31.53,89.81 31.38,89.66 			"/>
			<polygon class="st10" points="28.6,88.08 28.44,88.24 28.6,88.39 31.38,88.39 31.53,88.24 31.38,88.08 			"/>
			<polygon class="st10" points="28.6,86.5 28.44,86.65 28.6,86.8 31.38,86.8 31.53,86.65 31.38,86.5 			"/>
			<polygon class="st10" points="28.6,83.47 28.44,83.62 28.6,83.77 31.38,83.77 31.53,83.62 31.38,83.47 			"/>
			<polygon class="st10" points="28.6,81.97 28.44,82.13 28.6,82.28 31.38,82.28 31.53,82.13 31.38,81.97 			"/>
			<polygon class="st10" points="28.6,80.42 28.44,80.57 28.6,80.72 31.38,80.72 31.53,80.57 31.38,80.42 			"/>
			<polygon class="st10" points="28.6,78.87 28.44,79.03 28.6,79.18 31.38,79.18 31.53,79.03 31.38,78.87 			"/>
			<polygon class="st10" points="28.6,77.33 28.44,77.49 28.6,77.64 31.38,77.64 31.53,77.49 31.38,77.33 			"/>
			<polygon class="st10" points="28.6,75.77 28.44,75.92 28.6,76.08 31.38,76.08 31.53,75.92 31.38,75.77 			"/>
			<polygon class="st10" points="28.6,85 28.44,85.15 28.6,85.31 31.38,85.31 31.53,85.15 31.38,85 			"/>
			<polygon class="st10" points="27.56,88.91 27.41,89.07 27.56,89.22 31.38,89.22 31.54,89.07 31.38,88.91 			"/>
			<polygon class="st10" points="27.56,88.91 27.41,89.07 27.56,89.22 31.38,89.22 31.54,89.07 31.38,88.91 			"/>
			<polygon class="st10" points="27.56,85.77 27.41,85.92 27.56,86.08 31.38,86.08 31.54,85.92 31.38,85.77 			"/>
			<polygon class="st10" points="27.56,82.74 27.41,82.89 27.56,83.05 31.38,83.05 31.54,82.89 31.38,82.74 			"/>
			<polygon class="st10" points="27.56,79.62 27.41,79.77 27.56,79.93 31.38,79.93 31.54,79.77 31.38,79.62 			"/>
			<polygon class="st10" points="27.56,76.54 27.41,76.69 27.56,76.84 31.38,76.84 31.54,76.69 31.38,76.54 			"/>
			<path class="st10" d="M31.39,59.17h1.68l0.16-0.75c-0.04,0.21-0.25,0.37-0.45,0.37h-1.31l-0.23,0.19L31.39,59.17z M31.94,58.43
				h1.3l0.16-0.75c-0.04,0.21-0.25,0.37-0.45,0.37h-0.92l-0.23,0.19L31.94,58.43z M31.71,57.68h1.68l0.16-0.75
				c-0.04,0.2-0.24,0.37-0.45,0.37h-1.31l-0.23,0.19L31.71,57.68z"/>
			<polygon class="st10" points="29.47,57.31 29.07,59.17 29.36,59.17 29.75,57.31 			"/>
			<path class="st10" d="M26.87,57.87c0.13-0.2,0.28-0.31,0.45-0.31l0.12,0.05c0.05,0.06,0.05,0.19,0.02,0.37
				c-0.07,0.31-0.23,0.47-0.5,0.47l-0.21-0.02L26.87,57.87z M26.44,58.64c0.13,0.04,0.29,0.05,0.47,0.05c0.46,0,0.74-0.24,0.84-0.7
				c0.06-0.27,0.04-0.45-0.05-0.56c-0.06-0.08-0.16-0.12-0.29-0.12c-0.18,0-0.34,0.08-0.48,0.25l0.03-0.25H26.7l-0.28,1.32
				L26.44,58.64z"/>
			<polygon class="st10" points="30.58,58.93 29.63,58.93 29.58,59.17 30.81,59.17 31.21,57.31 29.95,57.31 29.9,57.55 30.87,57.55 
				30.75,58.13 29.84,58.13 29.79,58.37 30.7,58.37 			"/>
		</g>
		<g>
			<defs>
				<rect id="SVGID_00000157282675734361039280000012538647545635269294_" x="3.25" y="11.99" width="52.23" height="97.69"/>
			</defs>
			<clipPath id="SVGID_00000036232919611253597830000012449069934762673038_">
				<use xlink:href="#SVGID_00000157282675734361039280000012538647545635269294_"  style="overflow:visible;"/>
			</clipPath>
			<path style="clip-path:url(#SVGID_00000036232919611253597830000012449069934762673038_);fill:#13110C;" d="M28.12,58.3
				c0.02-0.1,0.11-0.15,0.25-0.15h0.39c-0.07,0.21-0.21,0.31-0.42,0.31l-0.21-0.06L28.12,58.3z M28.3,58.69
				c0.42,0,0.68-0.23,0.78-0.67c0.05-0.25,0.03-0.44-0.06-0.55c-0.08-0.11-0.23-0.16-0.42-0.16c-0.2,0-0.37,0.06-0.52,0.17l-0.01,0
				l-0.06,0.27l0.05-0.04c0.13-0.11,0.3-0.16,0.49-0.16c0.11,0,0.19,0.03,0.23,0.08c0.05,0.06,0.06,0.14,0.04,0.26h-0.4
				c-0.33,0-0.53,0.13-0.58,0.39c-0.02,0.11-0.01,0.21,0.04,0.28C27.95,58.65,28.09,58.69,28.3,58.69"/>
			<path style="clip-path:url(#SVGID_00000036232919611253597830000012449069934762673038_);fill:#1F1F1D;" d="M12.91,112.8h32.37
				l4.83-31.01c-1.99,1.92-10.5,3.3-20.92,3.3c-10.43,0-18.94-1.38-20.92-3.31L12.91,112.8z M45.4,113.11H12.77l-0.15-0.13
				L7.85,81.15l0.12-0.17l0.18,0.11c0.58,2.04,10.01,3.7,21.03,3.7c11,0,20.43-1.66,21.03-3.69l0.18-0.11l0.12,0.17l-4.96,31.83
				L45.4,113.11z"/>
		</g>
		<g>
			<path class="st3" d="M8.26,81.79l4.17,27.88h33.32L50.1,81.8c-0.6,0.58-1.78,1.1-3.38,1.53c-2.43,0.68-5.89,1.21-9.97,1.5l0,5.57
				c0,0.01,0,0.02,0,0.04l0,0l0,0c-0.02,0.31-0.29,0.54-0.45,0.65c-0.94,0.71-1.67,1.09-2.61,1.34c-1.01,0.24-1.07,0.45-1.08,0.48
				l-0.03,0.26l0.02,0.01c0.24,0.16,0.38,0.24,0.38,0.4c0,0.16-0.12,0.25-0.41,0.45l0.04,1.31c-0.12,0.58-0.56,1.17-0.98,1.17h-3.89
				c-0.48-0.02-0.91-0.87-0.93-1.12v-0.34c-0.05-0.04-0.07-0.1-0.07-0.16c0-0.06,0.03-0.12,0.07-0.16v-0.74l-0.14-0.1
				c-0.17-0.11-0.27-0.18-0.27-0.31c0-0.13,0.09-0.19,0.26-0.31l0.15-0.11v-0.37c-0.01-0.07-0.34-0.18-0.79-0.32l-0.15-0.04
				c-1.06-0.3-2.2-0.84-2.88-1.36c-0.19-0.13-0.45-0.32-0.45-0.61l0-5.58c-4.58-0.28-8.45-0.85-11.06-1.61
				C9.96,82.86,8.84,82.36,8.26,81.79"/>
			<path class="st4" d="M8.26,81.79L8.26,81.79c0.58,0.57,1.7,1.07,3.21,1.5C9.94,82.84,8.83,82.34,8.26,81.79 M50.1,81.79
				c-0.59,0.57-1.76,1.09-3.38,1.54c1.59-0.44,2.77-0.95,3.37-1.53L50.1,81.79z"/>
			<path class="st14" d="M36.75,84.83c-0.04,0-0.09,0.01-0.13,0.01l0,5.48l0.12,0.12c0-0.01,0-0.03,0-0.04L36.75,84.83z
				 M22.54,84.89l0,5.58c0,0.29,0.26,0.48,0.45,0.61c0.69,0.52,1.82,1.06,2.88,1.36l0.15,0.05c0.46,0.14,0.78,0.24,0.79,0.32v0.37
				l-0.15,0.11c-0.17,0.12-0.27,0.19-0.26,0.31c0,0.13,0.1,0.19,0.27,0.31l0.15,0.1l0,0.74c0.04-0.03,0.09-0.05,0.14-0.05H27v-0.76
				c-0.1-0.07-0.17-0.12-0.24-0.16h-0.15l-0.15-0.15l0.15-0.15h0.11c0.07-0.05,0.16-0.11,0.28-0.2v-0.42h-0.1l-0.15-0.15l0.07-0.08
				c-0.16-0.09-0.44-0.17-0.88-0.3c-1.12-0.32-2.22-0.87-2.84-1.34c-0.15-0.11-0.31-0.22-0.37-0.37h0l-0.15-0.16l0.13-0.13
				l-0.01-5.4C22.66,84.9,22.6,84.9,22.54,84.89 M36.75,90.44L36.6,90.6h-0.02c-0.08,0.17-0.24,0.3-0.34,0.37
				c-0.85,0.64-1.58,1.06-2.56,1.32c-0.39,0.1-1.17,0.3-1.19,0.62l-0.05,0.35c0.25,0.16,0.39,0.24,0.41,0.32l0.03,0.03l-0.07,0.07
				c-0.01,0.02-0.03,0.03-0.05,0.05l-0.04,0.04h-0.01c-0.07,0.05-0.16,0.12-0.28,0.2l0.03,0.75c0.08,0.03,0.13,0.11,0.13,0.2
				c0,0.08-0.05,0.16-0.12,0.19l0.01,0.26c-0.12,0.53-0.53,1.02-0.82,1.02h-3.89c-0.34-0.02-0.75-0.75-0.78-0.98v-0.28h-0.04
				c-0.05,0-0.1-0.02-0.14-0.05v0.34c0.03,0.25,0.45,1.09,0.93,1.12h3.89c0.42,0,0.86-0.6,0.98-1.18l-0.04-1.31
				c0.29-0.2,0.41-0.3,0.41-0.45c0-0.16-0.13-0.24-0.38-0.4l-0.02-0.01l0.03-0.26c0-0.04,0.07-0.24,1.08-0.48
				c0.94-0.25,1.67-0.63,2.61-1.34C36.46,90.98,36.73,90.75,36.75,90.44"/>
			<path class="st15" d="M36.45,84.85c-1.58,0.11-3.26,0.18-5,0.21l0.09,0.09l-0.15,0.15H28.6l-0.15-0.15l0.07-0.06
				c-1.97-0.01-3.87-0.07-5.66-0.18l0.01,5.38h13.6L36.45,84.85z M32.68,85.72c0.04-0.14,0.11-0.31,0.17-0.4l0.11-0.01
				c-0.04,0.11-0.08,0.28-0.1,0.4L32.68,85.72z M32.43,86.17l-0.19-0.08l-0.09-0.23c0-0.2,0.13-0.36,0.33-0.36l0.19,0.04l-0.03,0.13
				l-0.14-0.04c-0.1,0-0.18,0.07-0.18,0.2c0,0.15,0.1,0.21,0.23,0.21l0.08,0l-0.06,0.5h-0.4v-0.15h0.27l0.03-0.22L32.43,86.17z
				 M33.08,86.53v-1.02h0.16v0.86h0l0.17-0.09l0.03,0.13l-0.22,0.12H33.08z M27.56,86.08l-0.15-0.15l0.15-0.15h3.82l0.15,0.15
				l-0.15,0.15H27.56z M28.6,86.8l-0.15-0.15l0.15-0.15h2.78l0.15,0.15l-0.15,0.15H28.6z M32.26,87.91v-1.02h0.17v0.86h0l0.17-0.09
				l0.03,0.13l-0.22,0.12H32.26z M25.8,87.55l-0.15-0.15l0.15-0.15h5.58l0.15,0.15l-0.15,0.15H25.8z M28.6,88.39l-0.15-0.15
				l0.15-0.15h2.78l0.15,0.15l-0.15,0.15H28.6z M32.68,88.86c0.04-0.13,0.11-0.31,0.17-0.4l0.11-0.01c-0.04,0.11-0.08,0.28-0.1,0.39
				L32.68,88.86z M33.21,89.68c-0.2,0-0.27-0.24-0.27-0.52c0-0.37,0.13-0.53,0.29-0.53c0.19,0,0.28,0.23,0.28,0.52
				C33.5,89.47,33.4,89.68,33.21,89.68 M32.43,89.3l-0.19-0.08l-0.09-0.23c0-0.2,0.13-0.36,0.33-0.36l0.19,0.04l-0.03,0.13
				l-0.14-0.04c-0.1,0-0.18,0.07-0.18,0.2c0,0.15,0.1,0.2,0.23,0.2l0.08,0l-0.06,0.5h-0.4v-0.15h0.27l0.03-0.22L32.43,89.3z
				 M27.41,89.07L27.41,89.07l0.15-0.15h3.82l0.15,0.15l-0.15,0.15h-3.82L27.41,89.07z M28.6,89.96l-0.15-0.15l0.15-0.15h2.78
				l0.15,0.15l-0.15,0.15H28.6z M36.38,90.6H22.9c0.06,0.09,0.18,0.17,0.28,0.24c0.65,0.5,1.77,1.02,2.79,1.32l0.15,0.05
				c0.42,0.13,0.69,0.21,0.85,0.33h5.47l0.05,0.05c0.2-0.17,0.57-0.31,1.12-0.44c0.89-0.24,1.59-0.6,2.51-1.29
				C36.19,90.8,36.31,90.71,36.38,90.6 M32.32,92.84h-5.19l0,0.5l-0.06,0.05l-0.11,0.08h5.48l0,0l-0.18-0.12l0.06-0.44
				C32.31,92.87,32.32,92.85,32.32,92.84"/>
			<path class="st30" d="M36.63,84.84c-0.06,0-0.12,0.01-0.18,0.01l0,5.44h0.16l0.03,0.03L36.63,84.84z M22.72,84.9l0.01,5.4
				l0.02-0.02h0.11l-0.01-5.38C22.81,84.91,22.76,84.91,22.72,84.9 M36.58,90.6h-0.2c-0.07,0.11-0.19,0.2-0.26,0.25
				c-0.91,0.69-1.62,1.05-2.5,1.29c-0.56,0.13-0.93,0.28-1.12,0.44l0.1,0.1l-0.15,0.15h-0.12c-0.01,0.02-0.01,0.03-0.01,0.05
				l-0.06,0.44l0.19,0.12l0,0h0.29l0.12,0.12c-0.02-0.08-0.16-0.16-0.41-0.32l0.05-0.35c0.02-0.32,0.8-0.53,1.19-0.62
				c0.98-0.26,1.72-0.68,2.56-1.32C36.34,90.9,36.51,90.77,36.58,90.6 M22.9,90.6h-0.15c0.06,0.15,0.22,0.26,0.37,0.37
				c0.62,0.47,1.71,1.02,2.84,1.34c0.44,0.13,0.72,0.22,0.88,0.3l0.08-0.08h0.06c-0.15-0.11-0.42-0.2-0.85-0.32l-0.15-0.05
				c-1.02-0.29-2.14-0.82-2.79-1.32C23.08,90.77,22.96,90.68,22.9,90.6 M27.13,92.84H27v0.42c-0.12,0.09-0.21,0.15-0.28,0.2h0.24
				l0.1-0.08l0.06-0.05V92.84z M32.82,93.68l-0.05,0.05C32.79,93.71,32.81,93.69,32.82,93.68"/>
			<path class="st31" d="M32.44,93.76h-5.43l0.05,0.04l0.06,0.05v0.84h5.16l-0.03-0.81l0.07-0.05
				C32.37,93.81,32.4,93.79,32.44,93.76 M32.31,95.12h-5.18v0.28c0.02,0.19,0.41,0.81,0.63,0.83h3.88c0.19,0,0.57-0.4,0.67-0.9
				L32.31,95.12z"/>
			<path class="st30" d="M32.72,93.76h-0.29c-0.04,0.02-0.07,0.05-0.11,0.07l-0.07,0.05l0.03,0.81h0.09c0.03,0,0.06,0.01,0.09,0.02
				l-0.03-0.74C32.57,93.88,32.66,93.82,32.72,93.76 M27.01,93.76h-0.24c0.06,0.04,0.14,0.09,0.23,0.16v0.77h0.13v-0.84l-0.06-0.05
				L27.01,93.76z M32.48,95.1c-0.03,0.01-0.06,0.02-0.1,0.02h-0.08l0.01,0.21c-0.11,0.5-0.48,0.9-0.67,0.9h-3.88
				c-0.22-0.01-0.61-0.64-0.63-0.83v-0.28H27v0.28c0.03,0.23,0.44,0.96,0.78,0.98h3.89c0.3,0,0.71-0.49,0.82-1.02L32.48,95.1z"/>
			<polygon class="st14" points="32.44,93.45 26.96,93.45 26.73,93.45 26.62,93.45 26.46,93.61 26.62,93.76 26.77,93.76 
				27.01,93.76 32.44,93.76 32.72,93.76 32.73,93.76 32.77,93.72 32.82,93.68 32.89,93.61 32.85,93.58 32.73,93.45 			"/>
			<polygon class="st14" points="26.97,92.53 26.91,92.53 26.83,92.61 26.75,92.68 26.91,92.83 27,92.83 27.13,92.83 32.32,92.83 
				32.44,92.83 32.59,92.68 32.49,92.58 32.44,92.53 			"/>
			<path class="st14" d="M32.38,94.69h-0.09h-5.16H27h-0.04c-0.05,0-0.1,0.02-0.14,0.05c-0.05,0.04-0.08,0.1-0.08,0.16
				c0,0.06,0.03,0.12,0.08,0.16c0.04,0.03,0.09,0.05,0.14,0.05H27h0.13h5.18h0.08c0.04,0,0.07-0.01,0.1-0.02
				c0.07-0.04,0.12-0.11,0.12-0.19c0-0.09-0.05-0.17-0.13-0.2C32.44,94.7,32.42,94.69,32.38,94.69"/>
			<polygon class="st14" points="36.45,90.29 22.85,90.29 22.75,90.29 22.73,90.31 22.59,90.44 22.75,90.6 22.75,90.6 22.9,90.6 
				36.38,90.6 36.58,90.6 36.6,90.6 36.75,90.45 36.76,90.44 36.75,90.44 36.63,90.32 36.6,90.29 			"/>
			<polygon class="st14" points="32.26,86.88 32.26,87.91 32.41,87.91 32.63,87.79 32.6,87.65 32.43,87.75 32.43,87.75 32.43,86.88 
							"/>
			<polygon class="st14" points="33.08,85.51 33.08,86.53 33.23,86.53 33.46,86.41 33.42,86.28 33.25,86.37 33.25,86.37 
				33.25,85.51 			"/>
			<path class="st14" d="M32.95,85.31l-0.11,0.01c-0.06,0.09-0.12,0.26-0.17,0.4l0.18-0.01C32.87,85.59,32.92,85.42,32.95,85.31"/>
			<path class="st14" d="M32.49,85.5c-0.21,0-0.33,0.16-0.33,0.36l0.09,0.23l0.19,0.08l0.03,0l-0.03,0.22h-0.27v0.15h0.4l0.06-0.5
				l-0.08,0c-0.12,0-0.23-0.06-0.23-0.2c0-0.13,0.08-0.2,0.18-0.2l0.14,0.04l0.03-0.13L32.49,85.5z"/>
			<path class="st31" d="M33.21,88.78c-0.08,0-0.11,0.14-0.11,0.38c0,0.23,0.03,0.38,0.11,0.38c0.08,0,0.12-0.14,0.12-0.38
				C33.33,88.92,33.3,88.78,33.21,88.78"/>
			<path class="st14" d="M33.22,88.63c-0.16,0-0.29,0.16-0.29,0.53c0,0.28,0.07,0.52,0.27,0.52c0.19,0,0.29-0.21,0.29-0.53
				C33.5,88.86,33.41,88.63,33.22,88.63 M33.21,89.54c-0.08,0-0.11-0.15-0.11-0.38c0-0.24,0.03-0.38,0.11-0.38
				c0.09,0,0.12,0.14,0.12,0.38C33.33,89.4,33.29,89.54,33.21,89.54"/>
			<path class="st14" d="M32.95,88.45l-0.11,0.01c-0.06,0.09-0.12,0.26-0.17,0.4l0.18-0.02C32.87,88.73,32.92,88.56,32.95,88.45"/>
			<path class="st14" d="M32.49,88.63c-0.21,0-0.33,0.15-0.33,0.36l0.09,0.24l0.19,0.08h0.03l-0.03,0.22h-0.27v0.15h0.4l0.06-0.5
				l-0.08,0c-0.12,0-0.23-0.06-0.23-0.21c0-0.13,0.08-0.2,0.18-0.2l0.14,0.04l0.03-0.13L32.49,88.63z"/>
			<polygon class="st14" points="25.8,87.24 25.64,87.4 25.8,87.55 31.38,87.55 31.53,87.4 31.38,87.24 			"/>
			<polygon class="st14" points="28.6,89.66 28.44,89.81 28.6,89.96 31.38,89.96 31.53,89.81 31.38,89.66 			"/>
			<polygon class="st14" points="28.6,88.08 28.44,88.24 28.6,88.39 31.38,88.39 31.53,88.24 31.38,88.08 			"/>
			<polygon class="st14" points="28.6,86.5 28.44,86.65 28.6,86.8 31.38,86.8 31.53,86.65 31.38,86.5 			"/>
			<path class="st14" d="M31.45,85.07c-0.74,0.01-1.5,0.02-2.26,0.02c-0.22,0-0.45,0-0.67,0l-0.06,0.07l0.15,0.15h2.78l0.15-0.15
				L31.45,85.07z"/>
			<polygon class="st14" points="27.56,88.91 27.41,89.07 27.56,89.22 31.38,89.22 31.54,89.07 31.38,88.91 			"/>
			<polygon class="st14" points="27.56,85.77 27.41,85.92 27.56,86.08 31.38,86.08 31.54,85.92 31.38,85.77 			"/>
		</g>
		<g>
			<defs>
				<rect id="SVGID_00000075140622484027824090000008768955352812156860_" x="3.25" y="11.99" width="52.23" height="97.69"/>
			</defs>
			<clipPath id="SVGID_00000060024048419696896950000012999322411311497640_">
				<use xlink:href="#SVGID_00000075140622484027824090000008768955352812156860_"  style="overflow:visible;"/>
			</clipPath>
			<path style="clip-path:url(#SVGID_00000060024048419696896950000012999322411311497640_);fill:#6F6B6C;" d="M8.01,81.13
				l4.27,28.55h0.16L8.26,81.79l0-0.01c0.57,0.55,1.68,1.06,3.21,1.5c2.62,0.75,6.49,1.32,11.06,1.61l0.18,0.01
				c0.04,0,0.08,0.01,0.13,0.01c1.8,0.1,3.69,0.16,5.66,0.18c0.22,0,0.45,0,0.67,0c0.77,0,1.52-0.01,2.27-0.02
				c1.74-0.03,3.42-0.11,5-0.21c0.06,0,0.12-0.01,0.18-0.01c0.04,0,0.09-0.01,0.13-0.01c4.07-0.29,7.54-0.82,9.97-1.5
				c1.62-0.45,2.79-0.97,3.38-1.54l0,0.01l-4.34,27.87h0.16l4.44-28.54c-0.62,2.12-9.86,3.8-21.17,3.8
				C17.86,84.94,8.61,83.25,8.01,81.13"/>
			<path style="clip-path:url(#SVGID_00000060024048419696896950000012999322411311497640_);fill:#FFFFFF;" d="M0.01,46.84
				c0,0,4.89,1.44,7.2,2.02c2.3,0.58,3.65,0.38,3.65,0.38s8.54,0.19,11.32,0.29c2.78,0.09,5.42,0.67,6.24,1.34
				c0.54,0.44,0.77,0.86,0.77,0.86s1.63,0.58,1.82,2.78c0.19,2.21-0.19,5.47-0.67,6.14c-0.48,0.67-2.02,0.77-2.02,0.77
				s0.1,1.15-3.17,2.02c-3.26,0.86-10.27,1.63-12.38,1.53c-2.11-0.1-4.99-0.38-7.68-1.15c-2.69-0.77-5.57-1.92-5.57-1.92L0.01,46.84
				z"/>
			<path style="clip-path:url(#SVGID_00000060024048419696896950000012999322411311497640_);fill:#1F1F1D;" d="M-0.31,61.8
				c0.53,0.21,3.08,1.2,5.45,1.88c2.75,0.78,5.67,1.06,7.64,1.15c2,0.09,8.99-0.64,12.34-1.53c3.05-0.81,3.05-1.85,3.05-1.86
				l-0.01-0.15l0.15-0.01c0.01,0,1.47-0.1,1.9-0.7c0.44-0.61,0.84-3.77,0.64-6.04c-0.18-2.08-1.66-2.63-1.72-2.65l-0.05-0.02
				l-0.03-0.05c0,0-0.23-0.41-0.73-0.82c-0.79-0.65-3.44-1.21-6.14-1.31c-2.75-0.09-11.24-0.29-11.32-0.29
				c-0.03,0-1.37,0.19-3.68-0.39c-2.02-0.51-6.09-1.69-7.01-1.96L-0.31,61.8z M13.15,65.14c-0.14,0-0.28,0-0.39-0.01
				c-1.99-0.09-4.94-0.37-7.71-1.16c-2.66-0.76-5.55-1.91-5.58-1.92l-0.1-0.04l0-0.11l0.48-15.27l0.19,0.06
				c0.05,0.01,4.92,1.45,7.19,2.01c2.24,0.56,3.58,0.38,3.59,0.38c0.11,0,8.6,0.19,11.35,0.29c2.81,0.1,5.48,0.68,6.33,1.38
				c0.45,0.37,0.7,0.73,0.78,0.86c0.3,0.12,1.69,0.82,1.87,2.89c0.19,2.19-0.18,5.52-0.7,6.24c-0.44,0.61-1.6,0.78-2,0.82
				c-0.07,0.37-0.55,1.3-3.27,2.02C22.01,64.43,15.57,65.14,13.15,65.14"/>
		</g>
		<g>
			<path class="st8" d="M29.09,51.73c0,0-6.91,0.29-7.39,0.29c-0.48,0-2.45,0.67-2.59,3.79c-0.14,3.12,0.62,4.41,1.63,4.99
				c1.01,0.58,7.58,0.62,7.58,0.62"/>
		</g>
		<g>
			<defs>
				<rect id="SVGID_00000117646798393868369150000004218478434108105377_" x="3.25" y="11.99" width="52.23" height="97.69"/>
			</defs>
			<clipPath id="SVGID_00000085956894441678773530000003160696097552257158_">
				<use xlink:href="#SVGID_00000117646798393868369150000004218478434108105377_"  style="overflow:visible;"/>
			</clipPath>
			<path style="clip-path:url(#SVGID_00000085956894441678773530000003160696097552257158_);fill:#1F1F1D;" d="M28.32,61.58
				c-0.27,0-6.62-0.05-7.66-0.64c-1.28-0.73-1.84-2.41-1.71-5.13c0.15-3.24,2.23-3.94,2.74-3.94c0.47,0,7.32-0.29,7.38-0.29
				l0.01,0.31c-0.28,0.01-6.92,0.29-7.4,0.29c-0.45,0-2.3,0.65-2.44,3.64c-0.12,2.6,0.39,4.18,1.55,4.85
				c0.8,0.45,5.69,0.59,7.51,0.6L28.32,61.58z"/>
			<path style="clip-path:url(#SVGID_00000085956894441678773530000003160696097552257158_);fill:#FFFFFF;" d="M60.31,20.71
				c-1.15-0.13-6.91,0-6.91,0s-5.25-1.66-7.94-2.18c-2.69-0.51-8.19-2.05-9.85-1.92c-1.66,0.13-3.07-0.64-4.61,2.62
				c-1.4,2.98-1.73,6.97,0.32,8.64c2.05,1.66,7.23,4.48,9.66,5.76c2.43,1.28,5.24,1.79,8.06,1.92c2.81,0.13,11.52-0.13,11.52-0.13
				L60.31,20.71z"/>
			<path style="clip-path:url(#SVGID_00000085956894441678773530000003160696097552257158_);fill:#1F1F1D;" d="M34.34,16.77
				c-1.11,0-2.1,0.22-3.19,2.53c-1.36,2.89-1.72,6.83,0.28,8.45c2.18,1.77,7.93,4.84,9.64,5.74c2.15,1.13,4.77,1.76,8,1.9
				c2.57,0.12,10.18-0.09,11.35-0.12l-0.25-14.43c-1.38-0.1-6.7,0.01-6.76,0.01l-0.05-0.01c-0.05-0.02-5.27-1.67-7.91-2.17
				c-0.87-0.17-2.04-0.44-3.27-0.73c-2.55-0.6-5.43-1.28-6.55-1.19c-0.31,0.02-0.62,0.02-0.9,0.01
				C34.59,16.77,34.47,16.77,34.34,16.77 M51.31,35.74c-0.92,0-1.71-0.01-2.27-0.04c-3.28-0.15-5.93-0.78-8.12-1.94
				c-1.72-0.9-7.49-3.99-9.69-5.77c-2.12-1.72-1.77-5.83-0.36-8.82c1.29-2.76,2.54-2.73,3.86-2.7c0.28,0.01,0.57,0.01,0.87-0.01
				c1.14-0.1,4.07,0.59,6.64,1.2c1.23,0.29,2.39,0.56,3.25,0.72c2.57,0.49,7.54,2.05,7.93,2.17c0.47-0.01,5.78-0.12,6.91,0
				l0.14,0.15l0.25,14.71l-0.15,0.16C60.5,35.58,54.96,35.74,51.31,35.74"/>
		</g>
		<g>
			<path class="st8" d="M30.05,25.66c0,0,8.12,2.21,9.4,2.4c1.28,0.19,2.17,0.45,3.07-1.73c0.89-2.18,1.09-4.03,0.89-4.86
				c-0.19-0.83-0.45-1.09-2.3-1.73c-1.85-0.64-8.89-2.24-8.89-2.24"/>
			<path class="st2" d="M40.53,28.34c-0.29,0-0.6-0.05-0.92-0.1l-0.18-0.03c-1.27-0.19-9.09-2.31-9.42-2.4l-0.11-0.19l0.19-0.11
				c0.08,0.02,8.13,2.21,9.39,2.4l0.18,0.03c1.15,0.18,1.92,0.3,2.72-1.66c0.87-2.12,1.07-3.96,0.89-4.77
				c-0.18-0.77-0.39-0.99-2.21-1.62c-1.83-0.63-8.81-2.22-8.88-2.24l-0.12-0.19l0.18-0.12c0.07,0.02,7.07,1.61,8.91,2.24
				c1.83,0.63,2.19,0.91,2.4,1.84c0.2,0.88,0,2.76-0.9,4.95C42.01,27.99,41.32,28.34,40.53,28.34"/>
			<path class="st10" d="M3.46,109.46h51.8V12.2H3.46V109.46z M55.69,109.89H3.03V11.77h52.66V109.89z"/>
		</g>
	</g>
	<g>
		<g>
			<rect x="3.2" y="12.14" class="st37" width="104.12" height="97.21"/>
			<line class="st37" x1="55.26" y1="11.8" x2="55.26" y2="109.43"/>
		</g>
		<g>
			<path class="st38" d="M117.35,12.56c0,5.96-4.83,10.79-10.79,10.79c-5.96,0-10.79-4.83-10.79-10.79s4.83-10.79,10.79-10.79
				C112.52,1.77,117.35,6.6,117.35,12.56z"/>
			<g>
				<path class="st39" d="M101.72,18.2v-8.16l-1.72,1.8l-1.08-1.12l3.04-3.07h1.61V18.2H101.72z"/>
				<path class="st39" d="M104.96,12.94c0-2.66,1.25-5.44,4.22-5.44c2.96,0,4.21,2.78,4.21,5.44c0,2.64-1.25,5.45-4.21,5.45
					C106.2,18.39,104.96,15.58,104.96,12.94z M111.5,12.94c0-2.02-0.6-3.79-2.32-3.79c-1.72,0-2.34,1.77-2.34,3.79
					c0,2.01,0.62,3.81,2.34,3.81C110.88,16.75,111.5,14.94,111.5,12.94z"/>
			</g>
		</g>
	</g>
</g>
</svg>
