<?xml version="1.0" encoding="utf-8"?>
<!-- Generator: Adobe Illustrator 26.0.0, SVG Export Plug-In . SVG Version: 6.00 Build 0)  -->
<svg version="1.1" id="Capa_1" xmlns="http://www.w3.org/2000/svg" xmlns:xlink="http://www.w3.org/1999/xlink" x="0px" y="0px"
	 viewBox="0 0 109.31 116.34" style="enable-background:new 0 0 109.31 116.34;" xml:space="preserve">
<style type="text/css">
	.st0{clip-path:url(#SVGID_00000028304539539180160850000008143644288100757171_);fill:#FFFFFF;}
	.st1{clip-path:url(#SVGID_00000028304539539180160850000008143644288100757171_);fill:#1F1F1D;}
	.st2{fill:#1F1F1D;}
	.st3{clip-path:url(#SVGID_00000077297677592413453400000015242178141370284457_);fill:#1F1F1D;}
	.st4{fill:#F0E2F1;}
	.st5{fill:#13110C;}
	.st6{fill:#FFFFFF;}
	.st7{fill:#BC8EBF;}
	.st8{fill:#1F1F1C;}
	.st9{clip-path:url(#SVGID_00000127022529376705486430000016779424378098855849_);fill:#1F1F1D;}
	.st10{clip-path:url(#SVGID_00000127022529376705486430000016779424378098855849_);fill:#FFFFFF;}
	.st11{clip-path:url(#SVGID_00000036954105726357135870000017907684060622594434_);fill:#13110C;}
	.st12{clip-path:url(#SVGID_00000036954105726357135870000017907684060622594434_);fill:#BC8EBF;}
	.st13{clip-path:url(#SVGID_00000036954105726357135870000017907684060622594434_);fill:#1F1F1D;}
	.st14{fill:#959191;}
	.st15{fill:#1A1917;}
	.st16{fill:none;stroke:#662982;stroke-width:1.9;stroke-miterlimit:10;}
	.st17{fill:#FFFFFF;stroke:#662982;stroke-width:1.9;stroke-miterlimit:10;}
	.st18{fill:#662982;}
</style>
<g>
	<g>
		<g>
			<defs>
				<rect id="SVGID_1_" x="2.78" y="11.97" width="93.61" height="101.75"/>
			</defs>
			<clipPath id="SVGID_00000144310888083780425020000005021824240754247075_">
				<use xlink:href="#SVGID_1_"  style="overflow:visible;"/>
			</clipPath>
			<path style="clip-path:url(#SVGID_00000144310888083780425020000005021824240754247075_);fill:#FFFFFF;" d="M103.4,54.67
				c-0.25,0-11.6-1.26-21.68-4.78c-1.55-0.54-3.2-1.1-3.2-1.1s-1.71,1.3-4.06,2.1c-2.36,0.8-4.46,0.7-4.46,0.7s-2.65,2.05-4.01,2.45
				c-1.35,0.4-4.51,1-5.66-0.65c-0.55-0.79-0.65-2.8,0.4-3.96c1.05-1.15,5.01-4.61,5.21-4.81c0.2-0.2-6.81,4.76-8.21,5.71
				c-1.4,0.95-4.71,2.46-5.81,2.8c-1.1,0.35-4.81,0.45-5.46-1.05c-0.65-1.5,0.15-10.72,0.15-10.72l7.86,1.55l12.67-1.75l36.5,1.95
				L103.4,54.67z"/>
			<path style="clip-path:url(#SVGID_00000144310888083780425020000005021824240754247075_);fill:#1F1F1D;" d="M78.48,48.58
				l0.09,0.03c0,0,1.66,0.56,3.21,1.1c9.43,3.3,19.96,4.58,21.44,4.75l0.24-11.18l-36.33-1.94l-12.67,1.76l-0.03-0.01l-7.67-1.51
				c-0.27,3.23-0.64,9.3-0.15,10.43c0.6,1.37,4.18,1.29,5.24,0.95c1.03-0.33,4.35-1.82,5.76-2.78c0.59-0.4,2.14-1.49,3.78-2.63
				c2.83-1.98,3.9-2.73,4.34-2.98l0.07-0.07l0.02,0.02c0.18-0.09,0.21-0.06,0.25-0.01l0.11,0.12l-0.12,0.12
				c-0.05,0.05-0.32,0.29-0.72,0.65c-1.2,1.07-3.69,3.29-4.48,4.16c-0.98,1.08-0.91,2.98-0.39,3.73c1.24,1.77,5.03,0.71,5.46,0.58
				c1.3-0.39,3.92-2.4,3.95-2.42l0.05-0.04l0.07,0c0.02,0,2.1,0.09,4.39-0.69c2.3-0.78,3.99-2.07,4.01-2.08L78.48,48.58z
				 M103.58,54.84h-0.18c-0.08,0-11.44-1.19-21.73-4.79c-1.34-0.47-2.75-0.95-3.12-1.07c-0.37,0.27-1.93,1.36-4.03,2.07
				c-2.15,0.73-4.07,0.73-4.46,0.71c-0.39,0.3-2.73,2.07-4.01,2.44c-0.74,0.22-4.51,1.22-5.86-0.72c-0.59-0.84-0.72-2.94,0.42-4.18
				c0.56-0.62,1.95-1.89,3.15-2.97c-0.68,0.47-1.43,1-2.14,1.5c-1.64,1.15-3.19,2.24-3.78,2.64c-1.47,0.99-4.78,2.49-5.86,2.83
				c-1.1,0.35-4.96,0.5-5.68-1.15c-0.66-1.53,0.1-10.43,0.14-10.81l0.02-0.2l8.03,1.59l12.64-1.75l36.71,1.96l-0.01,0.17
				L103.58,54.84z"/>
			<path style="clip-path:url(#SVGID_00000144310888083780425020000005021824240754247075_);fill:#FFFFFF;" d="M103.34,4.73
				c0,0-20.27,2.99-24.88,3.99c-4.61,1-11.02,2.8-13.42,3.2c-2.4,0.4-6.81,2.81-9.02,4.41c-2.21,1.6-11.02,8.62-12.82,9.42
				c-1.8,0.8-4.41,3.81-4.01,6.01c0.4,2.2,2,4.61,3.41,4.61c1.4,0,7.66-2.74,8.91-3.01c2.8-0.6,5.31-3.41,5.31-3.41
				s5.21-2,7.62-3.01c2.4-1,3.4-3.2,3.4-3.2s3.21,1.8,6.41,1c1.6-0.4,2.8-0.8,3.61-1.1c0.8-0.3,1.2-0.5,1.2-0.5s0.41,3,1.6,4.01
				c2.6,2.2,22.54,7.14,22.17,6.94L103.34,4.73z"/>
			<path style="clip-path:url(#SVGID_00000144310888083780425020000005021824240754247075_);fill:#1F1F1D;" d="M103.16,4.94
				c-2.17,0.32-20.36,3.02-24.65,3.95c-2.16,0.47-4.77,1.13-7.08,1.71c-2.72,0.69-5.07,1.28-6.35,1.5
				c-2.44,0.41-6.84,2.85-8.94,4.38c-0.62,0.45-1.81,1.36-3.17,2.41c-3.54,2.72-8.38,6.44-9.69,7.02c-1.81,0.81-4.28,3.73-3.9,5.81
				c0.41,2.25,2.01,4.46,3.23,4.46c0.83,0,3.55-1.04,5.73-1.88c1.42-0.54,2.64-1.01,3.14-1.12c2.71-0.58,5.19-3.32,5.21-3.35
				l0.07-0.05c0.05-0.02,5.23-2.01,7.61-3c2.31-0.96,3.3-3.09,3.31-3.11l0.08-0.18l0.17,0.1c0.03,0.02,3.18,1.76,6.28,0.98
				c1.65-0.41,2.86-0.82,3.59-1.1c0.78-0.29,1.18-0.49,1.18-0.49l0.23-0.11l0.03,0.25c0,0.03,0.41,2.94,1.54,3.89
				c2.44,2.07,19.9,6.4,21.88,6.87L103.16,4.94z M42.61,36.54c-1.55,0-3.17-2.51-3.58-4.75c-0.41-2.24,2.2-5.36,4.11-6.21
				c1.27-0.56,6.29-4.43,9.61-6.98c1.37-1.05,2.55-1.96,3.18-2.42c2.13-1.55,6.6-4.02,9.09-4.44c1.27-0.21,3.72-0.83,6.32-1.49
				c2.3-0.58,4.92-1.24,7.09-1.71c4.56-0.99,24.68-3.96,24.89-3.99l0.21-0.03l0,0.21l-0.5,29.25l0,0l0,0.12l-0.01,0.11l-0.1,0.05
				l-0.03,0c-0.52,0-6.65-1.6-10.27-2.63c-4.74-1.34-10.69-3.19-12.06-4.35c-1.04-0.88-1.5-3.14-1.63-3.88
				c-0.2,0.09-0.53,0.23-1,0.41c-0.73,0.27-1.95,0.69-3.63,1.11c-2.86,0.72-5.67-0.57-6.38-0.93c-0.29,0.55-1.34,2.26-3.42,3.12
				c-2.27,0.95-7.09,2.8-7.58,2.99c-0.3,0.33-2.68,2.85-5.38,3.43c-0.47,0.1-1.68,0.57-3.09,1.11
				C46.14,35.53,43.5,36.54,42.61,36.54"/>
		</g>
		<g>
			<path class="st2" d="M67.85,23.92l-0.18-0.17c0-0.02-0.04-1.48-0.53-3.54c-0.48-2.03-2.4-4.04-2.43-4.06l0.01-0.25l0.25,0
				c0.08,0.09,2.01,2.1,2.52,4.22c0.5,2.1,0.54,3.55,0.54,3.61L67.85,23.92L67.85,23.92z"/>
		</g>
		<g>
			<defs>
				<rect id="SVGID_00000028297949708904707910000010334629764189516220_" x="2.78" y="11.97" width="93.61" height="101.75"/>
			</defs>
			<clipPath id="SVGID_00000145778806538867407400000017573521342255524783_">
				<use xlink:href="#SVGID_00000028297949708904707910000010334629764189516220_"  style="overflow:visible;"/>
			</clipPath>
			<path style="clip-path:url(#SVGID_00000145778806538867407400000017573521342255524783_);fill:#1F1F1D;" d="M79.07,23.32h-0.02
				l-0.16-0.19c0-0.04,0.31-3.66,1.21-6.06c0.9-2.41,1.8-3.42,1.84-3.46l0.25-0.01l0.01,0.25c-0.01,0.01-0.89,1.01-1.77,3.35
				c-0.88,2.35-1.19,5.93-1.19,5.96L79.07,23.32z"/>
			<path style="clip-path:url(#SVGID_00000145778806538867407400000017573521342255524783_);fill:#1F1F1D;" d="M80.37,16.81
				l-0.17-0.13c-0.01-0.04-0.28-0.92-0.14-2.54c0.17-2.01,0.95-2.9,0.98-2.94l0.25-0.02l0.01,0.25c-0.01,0.01-0.73,0.86-0.89,2.73
				c-0.13,1.54,0.12,2.39,0.12,2.4l-0.12,0.22L80.37,16.81z"/>
		</g>
		<g>
			<path class="st4" d="M37.2,15.15h6.3v23.02h12.52V15.15h6.3c0,0,0.01-0.39,0.01-0.88s-0.2-0.88-1.68-0.88H38.86
				c-1.48,0-1.68,0.39-1.68,0.88S37.2,15.15,37.2,15.15"/>
			<path class="st5" d="M62.14,14.97c0-0.16,0.01-0.41,0.01-0.7c0-0.29,0-0.7-1.5-0.7H38.86c-1.5,0-1.5,0.4-1.5,0.7
				c0,0.29,0.01,0.54,0.01,0.7h6.3v23.02h12.16V14.97H62.14z M38.86,13.22h21.79c1.32,0,1.86,0.31,1.86,1.06
				c0,0.49-0.01,0.88-0.01,0.88l-0.01,0.17h-6.3v23.02H43.32V15.33h-6.29l-0.01-0.17c0,0-0.02-0.4-0.02-0.89
				C37,13.52,37.54,13.22,38.86,13.22"/>
			<path class="st6" d="M62.88,28.32v0.73c-0.07,0.3-0.44,0.57-0.81,0.59l-2.24,0.04c-1.1,0.12-1.81,1.25-2.63,1.84l0.03,49.11
				c0,0.28-0.27,0.51-0.42,0.61c-0.91,0.69-1.7,1.13-2.76,1.42c-0.42,0.1-1.26,0.32-1.28,0.67l-0.05,0.38
				c0.57,0.37,0.62,0.33,0,0.76l0.05,1.5c-0.12,0.57-0.57,1.1-0.88,1.1h-4.19c-0.37-0.02-0.81-0.81-0.84-1.06v-1.58
				c-0.59-0.43-0.59-0.27,0-0.72v-0.48c-0.03-0.22-0.34-0.3-1.13-0.55c-1.21-0.34-2.39-0.93-3.05-1.44c-0.2-0.14-0.42-0.3-0.42-0.53
				L42.2,31.48c-0.45-0.59-0.88-1.76-1.8-1.82l-2.95-0.04c-0.59,0-0.79-0.45-0.81-0.73v-0.57H62.88z"/>
			<path class="st5" d="M62.7,28.5H36.81v0.39c0.01,0.08,0.08,0.55,0.63,0.55l2.96,0.04c0.8,0.06,1.25,0.81,1.62,1.41
				c0.11,0.18,0.21,0.35,0.32,0.49l0.04,0.05v0.06l0.05,49.23c0,0.13,0.19,0.27,0.34,0.38c0.7,0.54,1.9,1.1,3,1.41l0.17,0.05
				c0.75,0.23,1.06,0.32,1.09,0.65v0.59l-0.07,0.05l-0.23,0.17l-0.07,0.05l0.07,0.05l0.23,0.16l0.08,0.05v1.68
				c0.02,0.19,0.43,0.86,0.67,0.88h4.18c0.2,0,0.6-0.43,0.71-0.95l-0.06-1.56l0.08-0.06c0.13-0.09,0.27-0.19,0.34-0.25l-0.22-0.15
				l-0.21-0.13l0.06-0.49c0.02-0.34,0.45-0.58,1.42-0.82c0.96-0.26,1.71-0.65,2.69-1.39c0.11-0.08,0.35-0.26,0.35-0.47l-0.03-49.2
				l0.07-0.05c0.25-0.18,0.49-0.42,0.75-0.66c0.57-0.55,1.16-1.12,1.97-1.21l2.26-0.04c0.29-0.02,0.59-0.23,0.64-0.45L62.7,28.5z
				 M36.45,28.14h26.61v0.91c-0.1,0.42-0.53,0.74-0.98,0.77l-2.25,0.04c-0.67,0.07-1.22,0.6-1.74,1.11
				c-0.23,0.22-0.47,0.46-0.71,0.64l0.03,49.02c0,0.36-0.31,0.63-0.5,0.76c-1.01,0.77-1.8,1.18-2.81,1.45
				c-1.1,0.27-1.15,0.48-1.15,0.51l-0.04,0.27l0.01,0.01c0.27,0.17,0.41,0.26,0.42,0.44c0,0.17-0.13,0.28-0.44,0.49l0.04,1.4
				c-0.13,0.63-0.61,1.28-1.06,1.28h-4.19c-0.52-0.03-0.99-0.94-1.02-1.22l0-1.51l-0.15-0.1c-0.18-0.12-0.29-0.2-0.29-0.34
				c0-0.14,0.11-0.22,0.29-0.35l0.15-0.11v-0.39c-0.01-0.07-0.38-0.18-0.84-0.33l-0.17-0.05c-1.15-0.33-2.37-0.91-3.11-1.47
				c-0.21-0.15-0.49-0.35-0.49-0.67l-0.05-49.17c-0.1-0.14-0.2-0.3-0.3-0.47c-0.34-0.56-0.73-1.19-1.33-1.23l-2.95-0.04
				c-0.63,0-0.95-0.45-0.99-0.9V28.14z"/>
			<path class="st7" d="M57.03,72.68H42.42l0.01,8.03c0,0.13,0.19,0.27,0.34,0.38c0.7,0.53,1.9,1.1,3,1.41l0.17,0.05
				c0.75,0.23,1.06,0.32,1.09,0.65v0.59l-0.07,0.05l-0.23,0.17l-0.07,0.05l0.07,0.05l0.23,0.16l0.08,0.05v1.67
				c0.02,0.19,0.43,0.86,0.67,0.88h4.18c0.2,0,0.6-0.43,0.71-0.95l-0.06-1.56l0.08-0.06c0.13-0.09,0.27-0.19,0.34-0.24l-0.22-0.15
				l-0.21-0.13l0.06-0.49c0.02-0.34,0.45-0.59,1.42-0.82c0.96-0.25,1.71-0.65,2.69-1.39c0.11-0.08,0.35-0.26,0.35-0.47L57.03,72.68z
				"/>
			<path class="st5" d="M57.24,72.68h-0.21l0,7.95c0,0.21-0.24,0.39-0.35,0.47c-0.98,0.74-1.74,1.13-2.69,1.39
				c-0.97,0.24-1.39,0.48-1.42,0.82l-0.06,0.49l0.21,0.13l0.22,0.15c-0.06,0.06-0.2,0.15-0.33,0.24l-0.08,0.06l0.05,1.56
				c-0.11,0.53-0.51,0.95-0.71,0.95H47.7c-0.24-0.01-0.65-0.69-0.67-0.88v-1.67l-0.08-0.05l-0.23-0.16l-0.07-0.05l0.07-0.05
				l0.23-0.17l0.07-0.05v-0.59c-0.04-0.32-0.35-0.42-1.09-0.65l-0.17-0.05c-1.09-0.31-2.3-0.88-3-1.41
				c-0.15-0.11-0.34-0.25-0.34-0.38l-0.01-8.03h-0.15l0.01,8.03c0,0.22,0.22,0.38,0.42,0.53c0.66,0.51,1.85,1.1,3.05,1.44
				c0.79,0.24,1.11,0.32,1.13,0.55v0.48c-0.59,0.45-0.59,0.29,0,0.72v1.58c0.03,0.24,0.47,1.04,0.84,1.05h4.19
				c0.32,0,0.76-0.53,0.89-1.1l-0.05-1.5c0.62-0.43,0.57-0.4,0-0.76l0.05-0.38c0.03-0.34,0.86-0.57,1.28-0.67
				c1.06-0.28,1.85-0.73,2.76-1.42c0.15-0.1,0.42-0.32,0.42-0.61L57.24,72.68z"/>
			<rect x="42.8" y="28.37" class="st4" width="13.92" height="44.16"/>
			<path class="st8" d="M56.53,28.55H42.98v43.8h13.55V28.55z M42.62,28.19h14.27v44.52H42.62V28.19z"/>
			<polygon class="st5" points="46.46,83.91 46.28,84.09 46.46,84.26 53.05,84.26 53.23,84.09 53.05,83.91 			"/>
			<polygon class="st5" points="47.05,85.58 46.9,85.75 47.05,85.93 52.61,85.93 52.76,85.75 52.61,85.58 			"/>
			<polygon class="st5" points="46.78,82.91 46.6,83.09 46.78,83.27 52.74,83.27 52.92,83.09 52.74,82.91 			"/>
			<polygon class="st5" points="42.29,80.5 42.12,80.68 42.29,80.85 57.22,80.85 57.4,80.68 57.22,80.5 			"/>
			<polygon class="st5" points="48.76,58.58 48.05,58 48.05,58.38 48.64,58.82 48.82,58.94 48.82,58.95 48.05,58.95 48.05,59.25 
				49.72,59.25 49.72,58.95 49.13,58.95 48.95,58.8 49.72,58.32 49.72,57.97 			"/>
			<path class="st5" d="M49.13,57.18c-0.01,0.22,0.04,0.42,0.22,0.42l0.17-0.17l-0.17-0.24l-0.07-0.01H49.13z M49.72,57.14
				l-0.13,0.02v0.01c0.09,0.08,0.16,0.2,0.16,0.36c0,0.24-0.18,0.38-0.36,0.38c-0.3,0-0.46-0.27-0.46-0.72h-0.02
				c-0.08,0-0.21,0.03-0.21,0.25l0.09,0.32l-0.2,0.06c-0.05-0.09-0.11-0.25-0.11-0.44c0-0.39,0.24-0.5,0.51-0.5h0.44l0.29-0.02
				V57.14z"/>
			<path class="st5" d="M48.87,56.55c-0.14,0-0.26,0-0.36,0.01V56.3l0.18-0.01v-0.01c-0.09-0.05-0.21-0.18-0.21-0.39
				c0-0.21,0.14-0.43,0.52-0.43h0.72v0.3h-0.68c-0.17,0-0.3,0.06-0.3,0.23l0.18,0.24l0.1,0.01h0.71v0.31H48.87z"/>
			<path class="st5" d="M49.22,54.83l0.07-0.01c0.12-0.03,0.21-0.14,0.21-0.27c0-0.19-0.16-0.31-0.4-0.31c-0.21,0-0.39,0.1-0.39,0.3
				c0,0.13,0.09,0.24,0.22,0.27l0.08,0.01H49.22z M49.72,55.14l-0.34-0.01h-1.42v-0.31h0.72v0c-0.12-0.08-0.19-0.21-0.19-0.39
				c0-0.3,0.24-0.51,0.61-0.5c0.44,0,0.65,0.28,0.65,0.55c0,0.16-0.06,0.29-0.21,0.38v0l0.18,0.02V55.14z"/>
			<path class="st5" d="M48.51,53.68h1.21v-0.31h-1.21V53.68z M48.01,53.53l0.17,0.17l0.16-0.17l-0.16-0.17L48.01,53.53z"/>
			<path class="st5" d="M49.44,53.06l0.09-0.31c0-0.13-0.06-0.19-0.13-0.19c-0.08,0-0.12,0.05-0.18,0.2
				c-0.08,0.24-0.21,0.34-0.35,0.33c-0.21,0-0.38-0.18-0.38-0.46c0-0.13,0.04-0.25,0.07-0.32l0.21,0.06l-0.07,0.26l0.13,0.17
				c0.08,0,0.12-0.06,0.17-0.21c0.08-0.22,0.19-0.32,0.37-0.32c0.22,0,0.38,0.17,0.38,0.49c0,0.15-0.03,0.28-0.08,0.37L49.44,53.06z
				"/>
			<path class="st5" d="M48.42,51.68v-0.04l-0.05-0.08l-0.05,0.08l0,0.05H48.42z M48.65,51.68v0.11h-0.4l-0.01-0.17l0.03-0.15
				l0.09-0.04l0.09,0.09h0.01l0.1-0.08l0.1-0.03v0.12l-0.09,0.03l-0.06,0.07v0.04H48.65z M48.44,51.94c0.18,0,0.32-0.13,0.32-0.31
				c0-0.18-0.14-0.31-0.32-0.31c-0.18,0-0.32,0.13-0.32,0.31C48.12,51.8,48.26,51.94,48.44,51.94 M48.44,51.2
				c0.23,0,0.42,0.19,0.42,0.43c0,0.24-0.19,0.43-0.42,0.43c-0.23,0-0.42-0.19-0.42-0.43C48.02,51.38,48.21,51.2,48.44,51.2"/>
			<path class="st5" d="M51.93,59.95c0.04,0.07,0.07,0.22,0.07,0.4c0,0.43-0.27,0.75-0.77,0.75c-0.48,0-0.8-0.32-0.8-0.79
				c0-0.19,0.04-0.31,0.07-0.36l0.16,0.05L50.6,60.3c0,0.36,0.23,0.59,0.63,0.59c0.37,0,0.61-0.22,0.61-0.59l-0.06-0.32L51.93,59.95
				z"/>
			<path class="st5" d="M51.42,59.13c0,0.22,0.03,0.46,0.24,0.46l0.19-0.19c0-0.14-0.09-0.23-0.18-0.26l-0.06-0.01H51.42z
				 M51.98,59.1l-0.14,0.02v0.01C51.92,59.18,52,59.3,52,59.46c0,0.22-0.16,0.33-0.31,0.33c-0.27,0-0.41-0.23-0.41-0.66h-0.02
				c-0.09,0-0.25,0.03-0.25,0.25l0.08,0.28l-0.13,0.05c-0.06-0.09-0.1-0.22-0.1-0.36c0-0.33,0.23-0.41,0.45-0.41h0.41l0.26-0.02
				V59.1z"/>
			<path class="st5" d="M51.18,58.62l-0.29,0.01v-0.18l0.18-0.01v0c-0.1-0.05-0.21-0.18-0.21-0.36c0-0.15,0.09-0.38,0.47-0.38h0.65
				v0.2h-0.63c-0.17,0-0.32,0.06-0.32,0.25c0,0.13,0.09,0.23,0.2,0.26l0.09,0.02h0.66v0.2H51.18z"/>
			<path class="st5" d="M51.18,57.37l-0.29,0.01V57.2l0.18-0.01v0c-0.1-0.05-0.21-0.18-0.21-0.36c0-0.15,0.09-0.38,0.47-0.38h0.65
				v0.2h-0.63c-0.17,0-0.32,0.06-0.32,0.25c0,0.13,0.09,0.23,0.2,0.27l0.09,0.01h0.66v0.2H51.18z"/>
			<path class="st5" d="M51.42,55.54c0,0.21,0.03,0.46,0.24,0.46l0.19-0.19c0-0.14-0.09-0.23-0.18-0.26l-0.06-0.01H51.42z
				 M51.98,55.51l-0.14,0.02v0.01c0.09,0.06,0.16,0.18,0.16,0.33c0,0.22-0.16,0.33-0.31,0.33c-0.27,0-0.41-0.23-0.41-0.66h-0.02
				c-0.09,0-0.25,0.03-0.25,0.25l0.08,0.29l-0.13,0.04c-0.06-0.09-0.1-0.22-0.1-0.36c0-0.33,0.23-0.42,0.45-0.42h0.41l0.26-0.02
				V55.51z"/>
			<path class="st5" d="M51.54,54.83l0.07-0.01c0.14-0.04,0.23-0.15,0.23-0.3c0-0.21-0.17-0.33-0.42-0.33
				c-0.22,0-0.41,0.11-0.41,0.32c0,0.13,0.09,0.26,0.24,0.3l0.08,0.01H51.54z M51.98,55.03l-0.28-0.01h-1.32v-0.2h0.69v0
				c-0.12-0.07-0.2-0.2-0.2-0.37c0-0.27,0.22-0.46,0.56-0.46c0.39,0,0.59,0.25,0.59,0.49c0,0.16-0.06,0.28-0.21,0.37v0.01l0.18,0.01
				V55.03z"/>
			<path class="st5" d="M50.89,53.74h1.09v-0.2h-1.09V53.74z M50.45,53.64l0.12,0.12l0.12-0.12l-0.12-0.13L50.45,53.64z"/>
			<path class="st5" d="M51.33,52.47l-0.08,0.01c-0.12,0.03-0.23,0.14-0.23,0.29c0,0.21,0.18,0.33,0.42,0.33
				c0.22,0,0.4-0.11,0.4-0.32c0-0.13-0.09-0.26-0.24-0.29l-0.08-0.01H51.33z M50.38,52.27h1.32l0.28-0.01v0.18l-0.19,0.01v0
				c0.12,0.06,0.21,0.2,0.21,0.37c0,0.26-0.22,0.47-0.55,0.47c-0.36,0-0.59-0.22-0.59-0.49c0-0.17,0.08-0.28,0.17-0.33v0h-0.65
				V52.27z"/>
			<path class="st5" d="M50.89,51.94h1.09v-0.2h-1.09V51.94z M50.45,51.84l0.12,0.12l0.12-0.12l-0.12-0.13L50.45,51.84z"/>
			<path class="st5" d="M51.43,51.29c0.24,0,0.42-0.14,0.42-0.33c0-0.19-0.18-0.33-0.43-0.33c-0.19,0-0.42,0.09-0.42,0.33
				C51.01,51.19,51.23,51.29,51.43,51.29 M51.42,50.42c0.4,0,0.58,0.28,0.58,0.54c0,0.29-0.22,0.52-0.56,0.52
				c-0.37,0-0.58-0.24-0.58-0.54C50.86,50.63,51.09,50.42,51.42,50.42"/>
			<rect x="50.38" y="49.97" class="st5" width="1.6" height="0.2"/>
			<polygon class="st5" points="52.54,76.85 52.54,77.95 52.69,77.95 52.94,77.81 52.91,77.67 52.72,77.77 52.72,77.77 52.72,76.85 
							"/>
			<polygon class="st5" points="53.43,75.37 53.43,76.47 53.58,76.47 53.83,76.33 53.79,76.19 53.61,76.29 53.6,76.29 53.6,75.37 
							"/>
			<path class="st5" d="M53.29,75.15l-0.11,0.43l-0.19,0.02c0.05-0.15,0.12-0.33,0.18-0.43L53.29,75.15z"/>
			<path class="st5" d="M52.43,76.31h0.29l0.03-0.24l-0.04,0l-0.21-0.08l-0.09-0.25c0-0.22,0.14-0.39,0.36-0.39l0.2,0.05l-0.03,0.14
				L52.8,75.5c-0.11,0-0.19,0.08-0.19,0.22c0,0.16,0.11,0.22,0.24,0.22l0.08,0l-0.07,0.53h-0.43V76.31z"/>
			<path class="st5" d="M53.87,72.1v0.12l-0.1,0.13c-0.14,0.18-0.27,0.36-0.27,0.54l0.15,0.17L53.81,73l0.04,0.14l-0.23,0.07
				c-0.21,0-0.29-0.15-0.29-0.31c0-0.21,0.13-0.39,0.26-0.55l0.07-0.09v0H53.3V72.1H53.87z"/>
			<path class="st5" d="M53.29,71.88l-0.11,0.43l-0.19,0.02c0.05-0.15,0.12-0.33,0.18-0.43L53.29,71.88z"/>
			<path class="st5" d="M52.43,73.04h0.29l0.03-0.24h-0.04l-0.21-0.08l-0.09-0.25c0-0.21,0.14-0.38,0.36-0.38l0.2,0.05l-0.03,0.14
				l-0.16-0.04c-0.11,0-0.19,0.08-0.19,0.22c0,0.16,0.11,0.22,0.24,0.22l0.08-0.01l-0.07,0.53h-0.43V73.04z"/>
			<path class="st5" d="M53.84,68.92l-0.16-0.04l-0.18,0.19c0,0.13,0.09,0.2,0.21,0.2h0.03v0.13h-0.02l-0.19,0.17l0.13,0.14
				l0.14-0.05l0.03,0.13l-0.22,0.06c-0.18,0-0.27-0.12-0.27-0.26l0.16-0.25v0c-0.1-0.03-0.19-0.12-0.19-0.29
				c0-0.17,0.12-0.33,0.35-0.33l0.21,0.05L53.84,68.92z"/>
			<path class="st5" d="M53.29,68.52l-0.11,0.43l-0.19,0.02c0.05-0.15,0.12-0.33,0.18-0.43L53.29,68.52z"/>
			<path class="st5" d="M52.43,69.68h0.29l0.03-0.24l-0.04,0l-0.21-0.08l-0.09-0.25c0-0.22,0.14-0.38,0.36-0.38l0.2,0.04l-0.03,0.15
				l-0.16-0.04c-0.11,0-0.19,0.08-0.19,0.22c0,0.16,0.11,0.22,0.24,0.22l0.08,0l-0.07,0.53h-0.43V69.68z"/>
			<path class="st5" d="M53.52,66.11v-0.26h0.21v0l-0.13,0.27l-0.08,0.19h-0.01L53.52,66.11z M53.36,65.42v0.28h-0.12v0.15h0.12
				v0.67h0.18l0.36-0.7V65.7h-0.38v-0.28H53.36z"/>
			<path class="st5" d="M53.29,65.21l-0.11,0.43l-0.19,0.02c0.05-0.15,0.12-0.33,0.18-0.43L53.29,65.21z"/>
			<path class="st5" d="M52.43,66.37h0.29l0.03-0.24h-0.04l-0.21-0.08l-0.09-0.25c0-0.22,0.14-0.38,0.36-0.38l0.2,0.04l-0.03,0.14
				l-0.16-0.04c-0.11,0-0.19,0.08-0.19,0.22c0,0.16,0.11,0.22,0.24,0.22l0.08,0l-0.07,0.53h-0.43V66.37z"/>
			<path class="st5" d="M52.99,73.62v0.12l-0.1,0.13c-0.14,0.18-0.27,0.36-0.27,0.54l0.15,0.17l0.16-0.06l0.04,0.14l-0.23,0.07
				c-0.22,0-0.29-0.15-0.29-0.31c0-0.21,0.13-0.39,0.26-0.55l0.07-0.09v0h-0.35v-0.16H52.99z"/>
			<path class="st5" d="M52.95,70.52l-0.16-0.04l-0.18,0.19c0,0.13,0.09,0.2,0.21,0.2h0.03v0.13h-0.03l-0.19,0.17l0.13,0.15
				l0.14-0.05l0.03,0.14l-0.21,0.06c-0.17,0-0.27-0.12-0.27-0.26l0.16-0.25v0c-0.11-0.03-0.19-0.12-0.19-0.29
				c0-0.17,0.12-0.33,0.34-0.33l0.21,0.05L52.95,70.52z"/>
			<path class="st5" d="M52.69,67.71v-0.27h0.21v0l-0.13,0.27l-0.09,0.19h0L52.69,67.71z M52.53,67.02v0.28h-0.12v0.15h0.12v0.68
				h0.18l0.36-0.7V67.3h-0.37v-0.28H52.53z"/>
			<path class="st5" d="M52.43,64.62h0.29l0.03-0.24l-0.04,0l-0.21-0.08l-0.09-0.25c0-0.22,0.14-0.38,0.36-0.38l0.2,0.04l-0.03,0.15
				l-0.16-0.04c-0.11,0-0.19,0.08-0.19,0.22c0,0.16,0.11,0.22,0.24,0.22l0.08,0l-0.07,0.54h-0.43V64.62z"/>
			<path class="st5" d="M53.69,79.29c0-0.26-0.04-0.41-0.13-0.41c-0.08,0-0.12,0.15-0.12,0.41c0,0.25,0.03,0.41,0.12,0.41
				C53.65,79.7,53.69,79.55,53.69,79.29 M53.27,79.3c0-0.4,0.14-0.57,0.31-0.57c0.21,0,0.3,0.24,0.3,0.56
				c0,0.34-0.11,0.57-0.31,0.57C53.34,79.86,53.27,79.6,53.27,79.3"/>
			<path class="st5" d="M53.29,78.53l-0.11,0.43l-0.19,0.02c0.05-0.15,0.12-0.33,0.18-0.43L53.29,78.53z"/>
			<path class="st5" d="M52.43,79.69h0.29l0.03-0.24l-0.04,0l-0.21-0.08l-0.09-0.25c0-0.22,0.14-0.38,0.36-0.38l0.2,0.04l-0.03,0.14
				l-0.16-0.04c-0.11,0-0.19,0.08-0.19,0.22c0,0.16,0.11,0.22,0.24,0.22l0.08-0.01l-0.07,0.54h-0.43V79.69z"/>
			<polygon class="st5" points="45.58,77.22 45.4,77.4 45.58,77.58 51.59,77.58 51.77,77.4 51.59,77.22 			"/>
			<polygon class="st5" points="45.58,73.99 45.4,74.17 45.58,74.35 51.59,74.35 51.77,74.17 51.59,73.99 			"/>
			<polygon class="st5" points="45.58,70.71 45.4,70.89 45.58,71.07 51.59,71.07 51.77,70.89 51.59,70.71 			"/>
			<polygon class="st5" points="45.58,67.39 45.4,67.57 45.58,67.75 51.59,67.75 51.77,67.57 51.59,67.39 			"/>
			<polygon class="st5" points="45.58,64.04 45.4,64.22 45.58,64.4 51.59,64.4 51.77,64.22 51.59,64.04 			"/>
			<polygon class="st5" points="48.6,79.81 48.42,79.99 48.6,80.17 51.59,80.17 51.77,79.99 51.59,79.81 			"/>
			<polygon class="st5" points="48.6,78.12 48.42,78.3 48.6,78.48 51.59,78.48 51.77,78.3 51.59,78.12 			"/>
			<polygon class="st5" points="48.6,76.41 48.42,76.59 48.6,76.77 51.59,76.77 51.77,76.59 51.59,76.41 			"/>
			<polygon class="st5" points="48.6,73.15 48.42,73.33 48.6,73.51 51.59,73.51 51.77,73.33 51.59,73.15 			"/>
			<polygon class="st5" points="48.6,71.54 48.42,71.72 48.6,71.9 51.59,71.9 51.77,71.72 51.59,71.54 			"/>
			<polygon class="st5" points="48.6,69.87 48.42,70.05 48.6,70.22 51.59,70.22 51.77,70.05 51.59,69.87 			"/>
			<polygon class="st5" points="48.6,68.2 48.42,68.38 48.6,68.56 51.59,68.56 51.77,68.38 51.59,68.2 			"/>
			<polygon class="st5" points="48.6,66.55 48.42,66.72 48.6,66.9 51.59,66.9 51.77,66.72 51.59,66.55 			"/>
			<polygon class="st5" points="48.6,64.86 48.42,65.04 48.6,65.22 51.59,65.22 51.77,65.04 51.59,64.86 			"/>
			<polygon class="st5" points="48.6,74.8 48.42,74.98 48.6,75.16 51.59,75.16 51.77,74.98 51.59,74.8 			"/>
			<polygon class="st5" points="47.48,79.01 47.3,79.19 47.48,79.37 51.59,79.37 51.77,79.19 51.59,79.01 			"/>
			<polygon class="st5" points="47.48,79.01 47.3,79.19 47.48,79.37 51.59,79.37 51.77,79.19 51.59,79.01 			"/>
			<polygon class="st5" points="47.48,75.63 47.3,75.81 47.48,75.99 51.59,75.99 51.77,75.81 51.59,75.63 			"/>
			<polygon class="st5" points="47.48,72.37 47.3,72.55 47.48,72.73 51.59,72.73 51.77,72.55 51.59,72.37 			"/>
			<polygon class="st5" points="47.48,69.01 47.3,69.19 47.48,69.37 51.59,69.37 51.77,69.19 51.59,69.01 			"/>
			<polygon class="st5" points="47.48,65.69 47.3,65.87 47.48,66.05 51.59,66.05 51.77,65.87 51.59,65.69 			"/>
			<path class="st5" d="M51.61,47.01h1.81l0.17-0.8c-0.05,0.22-0.27,0.4-0.49,0.4h-1.41l-0.24,0.2L51.61,47.01z M52.19,46.2h1.4
				l0.17-0.8c-0.05,0.22-0.27,0.4-0.49,0.4h-0.99L52.03,46L52.19,46.2z M51.94,45.4h1.82l0.17-0.81c-0.04,0.21-0.27,0.4-0.49,0.4
				h-1.41l-0.24,0.2L51.94,45.4z"/>
			<polygon class="st5" points="49.53,45 49.1,47.01 49.41,47.01 49.84,45 			"/>
			<path class="st5" d="M46.73,45.6c0.14-0.22,0.31-0.33,0.49-0.33l0.13,0.05c0.06,0.07,0.06,0.2,0.02,0.4
				c-0.07,0.34-0.25,0.5-0.54,0.5l-0.23-0.02L46.73,45.6z M46.28,46.43c0.14,0.04,0.3,0.06,0.5,0.06c0.49,0,0.79-0.25,0.9-0.76
				c0.06-0.29,0.04-0.48-0.05-0.6C47.56,45.04,47.46,45,47.32,45c-0.2,0-0.37,0.09-0.52,0.27L46.84,45h-0.28l-0.3,1.42L46.28,46.43z
				"/>
			<polygon class="st5" points="50.73,46.75 49.7,46.75 49.65,47.01 50.98,47.01 51.41,45 50.06,45 50,45.26 51.05,45.26 
				50.91,45.88 49.93,45.88 49.88,46.15 50.86,46.15 			"/>
			<path class="st5" d="M48.08,46.06c0.02-0.11,0.11-0.17,0.28-0.17h0.42c-0.07,0.23-0.22,0.34-0.45,0.34l-0.22-0.06L48.08,46.06z
				 M48.27,46.49c0.45,0,0.74-0.24,0.84-0.72c0.06-0.27,0.04-0.47-0.07-0.6C48.95,45.05,48.8,45,48.59,45
				c-0.21,0-0.4,0.06-0.56,0.18l-0.01,0.01l-0.06,0.29l0.06-0.05c0.15-0.11,0.32-0.17,0.52-0.17l0.25,0.09l0.04,0.28H48.4
				c-0.36,0-0.56,0.14-0.62,0.42l0.05,0.3C47.9,46.44,48.05,46.49,48.27,46.49"/>
			<polygon class="st2" points="30.6,80.71 30.6,99.05 33.71,99.05 33.71,80.71 36.02,80.71 32.16,74.01 28.29,80.71 			"/>
			<path class="st2" d="M69.77,51.95l-0.13-0.05l0.01-0.25c0.01-0.01,1.17-1.12,1.89-2.92c0.29-0.72,0.46-2.34,0.46-2.36l0.2-0.16
				l0.16,0.2c-0.01,0.07-0.17,1.69-0.48,2.45c-0.76,1.89-1.93,3-1.98,3.05L69.77,51.95z"/>
		</g>
		<g>
			<defs>
				<rect id="SVGID_00000121958662837360330250000007063938095920634767_" x="2.78" y="11.97" width="93.61" height="101.75"/>
			</defs>
			<clipPath id="SVGID_00000049190088279270730750000006616170298257241235_">
				<use xlink:href="#SVGID_00000121958662837360330250000007063938095920634767_"  style="overflow:visible;"/>
			</clipPath>
			<path style="clip-path:url(#SVGID_00000049190088279270730750000006616170298257241235_);fill:#1F1F1D;" d="M78.5,48.97
				l-0.14-0.06l0.02-0.25c0.01-0.01,0.88-0.75,0.84-1.94l0.17-0.19l0.19,0.17c0.05,1.38-0.93,2.2-0.97,2.23L78.5,48.97z"/>
			<path style="clip-path:url(#SVGID_00000049190088279270730750000006616170298257241235_);fill:#FFFFFF;" d="M104.1,22.8
				c0,0-21.82,5.95-25.16,6.62c-3.34,0.67-11.08,1.74-13.89,1.87c-2.81,0.13-13.22,0.13-14.83,0.4c-1.6,0.27-7.08,1.2-7.31,4.27
				c-0.18,2.41-0.3,5.08,0.77,6.01c1.07,0.93,2.81,1.07,2.81,1.07s4.27,2,9.48,2.27c5.21,0.27,11.09,0.53,14.03-0.27
				c2.94-0.8,5.47-1.6,8.68-1.2c3.21,0.4,25.18,4.05,25.18,4.05L104.1,22.8z"/>
			<path style="clip-path:url(#SVGID_00000049190088279270730750000006616170298257241235_);fill:#1F1F1D;" d="M76.98,43.56
				c0.55,0,1.12,0.03,1.71,0.11c3.01,0.38,22.73,3.64,24.98,4.01l0.24-24.64c-2.34,0.64-21.82,5.94-24.94,6.56
				c-3.28,0.66-11.03,1.74-13.92,1.87c-1.07,0.05-3.29,0.08-5.64,0.12c-3.84,0.05-8.19,0.12-9.17,0.28
				c-4.6,0.77-7.01,2.15-7.16,4.11c-0.18,2.38-0.29,4.99,0.71,5.86c1.01,0.88,2.68,1.02,2.7,1.03l0.06,0.02
				c0.04,0.02,4.3,1.99,9.42,2.25c4.62,0.24,10.96,0.56,13.97-0.26l0.64-0.18C72.69,44.12,74.71,43.56,76.98,43.56 M104.02,48.1
				l-0.21-0.03c-0.22-0.04-22-3.65-25.17-4.05c-2.94-0.36-5.27,0.28-7.97,1.02l-0.64,0.18c-3.07,0.84-9.44,0.51-14.08,0.27
				c-4.96-0.25-9.13-2.1-9.52-2.27c-0.26-0.02-1.85-0.21-2.88-1.11c-1.12-0.98-1.03-3.58-0.83-6.16c0.16-2.15,2.68-3.64,7.46-4.44
				c1-0.17,5.37-0.23,9.22-0.29c2.34-0.03,4.56-0.07,5.63-0.12c2.87-0.14,10.59-1.21,13.87-1.87c3.29-0.66,24.93-6.56,25.15-6.62
				l0.23-0.06l0,0.24L104.02,48.1z"/>
		</g>
		<g>
			<path class="st6" d="M46.06,42.98c0,0,5.36-0.1,7.31-0.25c1.95-0.15,2.56-1.21,2.6-4.51c0.05-3.71-1.8-3.96-2.75-4.16
				c-0.95-0.2-9.27,0-9.27,0"/>
			<path class="st2" d="M46.07,43.16l-0.01-0.36c0.05,0,5.38-0.1,7.3-0.25c1.85-0.14,2.4-1.11,2.44-4.33
				c0.05-3.43-1.55-3.76-2.51-3.96l-0.1-0.02c-0.73-0.15-6.35-0.06-9.22,0l-0.01-0.36c0.34-0.01,8.35-0.2,9.31,0l0.1,0.02
				c1,0.2,2.85,0.59,2.8,4.31c-0.04,3.39-0.72,4.53-2.77,4.69C51.45,43.05,46.12,43.16,46.07,43.16"/>
			<path class="st6" d="M56.93,98.74H42.58V95.4c0,0,0.22-0.47,7.03-0.47s7.33,0.47,7.33,0.47V98.74z"/>
			<path class="st5" d="M42.76,98.56h14v-3.05c-0.27-0.09-1.61-0.4-7.15-0.4c-5.39,0-6.6,0.29-6.85,0.39V98.56z M56.93,98.92H42.58
				l-0.18-0.18V95.4l0.02-0.08c0.23-0.5,4.6-0.57,7.19-0.57c6.55,0,7.36,0.43,7.45,0.51l0.06,0.13v3.34L56.93,98.92z"/>
			<path class="st6" d="M57.93,95.84c0,0-1.43-0.35-8.28-0.35c-6.85,0-8.08,0.35-8.08,0.35v-1.76c0,0,0.25-0.31,8.01-0.31
				c7.76,0,8.35,0.31,8.35,0.31V95.84z"/>
			<path class="st5" d="M49.66,95.3c5.47,0,7.49,0.22,8.1,0.32v-1.41c-0.36-0.07-1.95-0.27-8.17-0.27c-6.05,0-7.5,0.19-7.83,0.26
				v1.41C42.34,95.52,44.27,95.3,49.66,95.3 M57.93,96.02l-0.04,0c-0.02,0-1.52-0.35-8.24-0.35c-6.69,0-8.02,0.34-8.03,0.35
				l-0.16-0.03l-0.07-0.14v-1.76l0.04-0.11c0.25-0.32,4.57-0.38,8.15-0.38c7.59,0,8.37,0.3,8.44,0.33l0.1,0.16v1.76l-0.07,0.14
				L57.93,96.02z"/>
			<path class="st6" d="M58.24,99.37c0,0-1.48-0.47-8.59-0.47c-7.11,0-8.39,0.47-8.39,0.47v-2.32c0,0,0.26-0.41,8.31-0.41
				c8.05,0,8.67,0.41,8.67,0.41V99.37z"/>
		</g>
		<g>
			<defs>
				<rect id="SVGID_00000001641850191899001080000010522248949336113025_" x="2.78" y="11.97" width="93.61" height="101.75"/>
			</defs>
			<clipPath id="SVGID_00000065055129518321286300000013586138785988855734_">
				<use xlink:href="#SVGID_00000001641850191899001080000010522248949336113025_"  style="overflow:visible;"/>
			</clipPath>
			<path style="clip-path:url(#SVGID_00000065055129518321286300000013586138785988855734_);fill:#13110C;" d="M49.66,98.72
				c5.68,0,7.78,0.29,8.41,0.42v-1.97c-0.33-0.08-1.93-0.36-8.49-0.36c-6.39,0-7.82,0.26-8.13,0.35v1.98
				C42.06,99.01,44.07,98.72,49.66,98.72 M58.24,99.55l-0.05-0.01c-0.01-0.01-1.58-0.46-8.54-0.46c-6.93,0-8.28,0.44-8.33,0.46
				l-0.16-0.02l-0.07-0.15v-2.32l0.03-0.09c0.27-0.43,5.42-0.5,8.46-0.5c7.88,0,8.7,0.4,8.77,0.44l0.08,0.15v2.32l-0.07,0.15
				L58.24,99.55z"/>
			<path style="clip-path:url(#SVGID_00000065055129518321286300000013586138785988855734_);fill:#BC8EBF;" d="M63.1,113.87
				l-4.14-4.49c-0.42-0.46-0.75-0.83-0.74-0.83c0.01,0,0.03-0.44,0.03-0.99v-1.01H41.26v1.01c0,0.54,0.01,0.99,0.03,0.99
				c0.01,0-0.32,0.38-0.74,0.83l-4.14,4.49c-0.42,0.46-0.88,1.28-0.88,1.82v7.38c0,0.54,0.64,0.99,1.42,0.99h25.62
				c0.78,0,1.42-0.45,1.42-0.99v-7.38C63.98,115.15,63.52,114.33,63.1,113.87"/>
			<path style="clip-path:url(#SVGID_00000065055129518321286300000013586138785988855734_);fill:#1F1F1D;" d="M41.45,108.5
				c0.04,0.09,0,0.13-0.77,0.97l-4.14,4.49c-0.41,0.44-0.85,1.23-0.85,1.73v7.38c0,0.46,0.56,0.84,1.25,0.84h25.62
				c0.69,0,1.25-0.38,1.25-0.84v-7.38c0-0.5-0.44-1.29-0.85-1.73l-4.14-4.49c-0.77-0.84-0.81-0.88-0.77-0.97
				c0.01-0.08,0.02-0.41,0.02-0.94v-0.86H41.43v0.86C41.43,108.07,41.44,108.41,41.45,108.5 M62.57,124.21H36.94
				c-0.87,0-1.58-0.51-1.58-1.14v-7.38c0-0.57,0.47-1.42,0.92-1.92l4.14-4.49c0.36-0.4,0.61-0.67,0.7-0.77
				c-0.02-0.15-0.02-0.44-0.02-0.96v-1.15h17.32v1.15c0,0.52,0,0.8-0.02,0.96c0.09,0.1,0.35,0.4,0.7,0.77l4.13,4.49
				c0.46,0.49,0.92,1.34,0.92,1.92v7.38C64.15,123.7,63.44,124.21,62.57,124.21"/>
		</g>
		<g>
			<path class="st14" d="M58.08,106.7H41.43v0.86c0,0.48,0.01,0.82,0.02,0.93h16.62c0.01-0.1,0.02-0.42,0.02-0.93V106.7z"/>
			<path class="st15" d="M58.25,106.55H41.26v1.7l0,0.23h0.18c-0.01-0.11-0.02-0.45-0.02-0.93v-0.86h16.65v0.86
				c0,0.5-0.01,0.82-0.02,0.93h0.18v-0.23V106.55z"/>
			<rect x="41.11" y="98.09" class="st6" width="17.29" height="8.07"/>
			<path class="st5" d="M41.29,105.98h16.93v-7.71H41.29V105.98z M58.4,106.34H41.11l-0.18-0.18v-8.07l0.18-0.18H58.4l0.18,0.18
				v8.07L58.4,106.34z"/>
			<path class="st6" d="M58.54,102.58H40.97c-0.23,0-0.43-0.19-0.43-0.43v-0.14c0-0.23,0.19-0.42,0.43-0.42h17.57
				c0.24,0,0.43,0.19,0.43,0.42v0.14C58.97,102.39,58.78,102.58,58.54,102.58"/>
			<path class="st5" d="M40.97,101.77c-0.14,0-0.25,0.11-0.25,0.25v0.14c0,0.14,0.11,0.25,0.25,0.25h17.57
				c0.14,0,0.25-0.11,0.25-0.25v-0.14c0-0.14-0.11-0.25-0.25-0.25H40.97z M58.54,102.76H40.97c-0.33,0-0.61-0.27-0.61-0.61v-0.14
				c0-0.33,0.27-0.6,0.61-0.6h17.57c0.33,0,0.61,0.27,0.61,0.6v0.14C59.15,102.49,58.87,102.76,58.54,102.76"/>
			<path class="st6" d="M58.37,105.05l-17.29-0.73c-0.31-0.01-0.54-0.24-0.53-0.52c0.02-0.27,0.28-0.48,0.58-0.47l17.29,0.74
				c0.31,0.01,0.54,0.24,0.53,0.52C58.94,104.85,58.68,105.06,58.37,105.05"/>
			<path class="st5" d="M58.38,104.87h0.02c0.2,0,0.37-0.13,0.38-0.3l-0.08-0.2l-0.28-0.12l-17.29-0.73l-0.02,0
				c-0.2,0-0.37,0.13-0.38,0.3l0.08,0.2l0.28,0.12L58.38,104.87z M58.4,105.22h-0.04l-17.29-0.73c-0.21-0.01-0.4-0.1-0.53-0.24
				c-0.12-0.13-0.18-0.29-0.17-0.46c0.02-0.36,0.35-0.64,0.74-0.64l0.03,0l17.29,0.73c0.21,0.01,0.4,0.1,0.53,0.24
				c0.12,0.13,0.18,0.3,0.17,0.46C59.12,104.94,58.79,105.22,58.4,105.22"/>
			<path class="st6" d="M58.37,101.12l-17.29-0.73c-0.31-0.01-0.54-0.25-0.53-0.52c0.02-0.27,0.28-0.48,0.58-0.47l17.29,0.73
				c0.31,0.01,0.54,0.25,0.53,0.52C58.94,100.92,58.68,101.13,58.37,101.12"/>
			<path class="st5" d="M41.11,99.58c-0.2,0-0.37,0.13-0.38,0.3l0.08,0.2l0.28,0.12l17.29,0.73c0.19,0.01,0.39-0.13,0.39-0.3
				l-0.08-0.2l-0.28-0.13l-17.29-0.73H41.11z M58.4,101.3h-0.04l-17.29-0.73c-0.21-0.01-0.4-0.1-0.53-0.24
				c-0.12-0.13-0.18-0.29-0.17-0.46c0.02-0.36,0.35-0.64,0.74-0.64h0.03l17.29,0.73c0.21,0.01,0.4,0.1,0.53,0.25
				c0.12,0.13,0.18,0.29,0.17,0.46C59.12,101.02,58.79,101.3,58.4,101.3"/>
			<path class="st6" d="M58.36,106.67H41.15c-0.33,0-0.61-0.27-0.61-0.61v-0.19c0-0.33,0.27-0.61,0.61-0.61h17.21
				c0.33,0,0.61,0.27,0.61,0.61v0.19C58.97,106.4,58.69,106.67,58.36,106.67"/>
			<path class="st5" d="M41.15,105.45c-0.24,0-0.43,0.19-0.43,0.43v0.19c0,0.24,0.19,0.43,0.43,0.43h17.21
				c0.24,0,0.43-0.19,0.43-0.43v-0.19c0-0.24-0.19-0.43-0.43-0.43H41.15z M58.36,106.85H41.15c-0.43,0-0.79-0.35-0.79-0.79v-0.19
				c0-0.43,0.35-0.79,0.79-0.79h17.21c0.43,0,0.79,0.35,0.79,0.79v0.19C59.15,106.5,58.79,106.85,58.36,106.85"/>
			<path class="st6" d="M58.54,98.66H40.97c-0.23,0-0.43-0.19-0.43-0.43v-0.14c0-0.23,0.19-0.43,0.43-0.43h17.57
				c0.24,0,0.43,0.19,0.43,0.43v0.14C58.97,98.46,58.78,98.66,58.54,98.66"/>
			<path class="st5" d="M40.97,97.85c-0.14,0-0.25,0.11-0.25,0.25v0.14c0,0.14,0.11,0.25,0.25,0.25h17.57
				c0.14,0,0.25-0.11,0.25-0.25v-0.14c0-0.13-0.11-0.25-0.25-0.25H40.97z M58.54,98.84H40.97c-0.33,0-0.61-0.27-0.61-0.61v-0.14
				c0-0.33,0.27-0.61,0.61-0.61h17.57c0.33,0,0.61,0.27,0.61,0.61v0.14C59.15,98.56,58.87,98.84,58.54,98.84"/>
			<path class="st2" d="M3.04,113.47h93.11V12.22H3.04V113.47z M96.65,113.98H2.53V11.72h94.11V113.98z"/>
		</g>
	</g>
	<g>
		<g>
			<rect x="2.59" y="11.65" class="st16" width="94.44" height="101.81"/>
		</g>
		<g>
			<path class="st17" d="M106.77,13.72c0,5.96-4.83,10.79-10.79,10.79c-5.96,0-10.79-4.83-10.79-10.79
				c0-5.96,4.83-10.79,10.79-10.79C101.94,2.92,106.77,7.76,106.77,13.72z"/>
			<g>
				<path class="st18" d="M93.49,19.35l3.98-8.92H92V8.81h7.6v1.28l-4.08,9.26H93.49z"/>
			</g>
		</g>
	</g>
</g>
</svg>
