<?xml version="1.0" encoding="utf-8"?>
<!-- Generator: Adobe Illustrator 26.0.0, SVG Export Plug-In . SVG Version: 6.00 Build 0)  -->
<svg version="1.1" id="Capa_1" xmlns="http://www.w3.org/2000/svg" xmlns:xlink="http://www.w3.org/1999/xlink" x="0px" y="0px"
	 viewBox="0 0 109.31 118.07" style="enable-background:new 0 0 109.31 118.07;" xml:space="preserve">
<style type="text/css">
	.st0{clip-path:url(#SVGID_00000094597667963473973880000000299915477421098388_);fill:#FFFFFF;}
	.st1{clip-path:url(#SVGID_00000094597667963473973880000000299915477421098388_);fill:#1F1F1D;}
	.st2{fill:#1F1F1D;}
	.st3{fill:#F0E2F1;}
	.st4{fill:#13110C;}
	.st5{fill:#FFFFFF;}
	.st6{fill:#BC90C1;}
	.st7{fill:#1F1F1C;}
	.st8{clip-path:url(#SVGID_00000063606147337026680430000004530465962942781074_);fill:#1F1F1D;}
	.st9{clip-path:url(#SVGID_00000063606147337026680430000004530465962942781074_);fill:#FFFFFF;}
	.st10{clip-path:url(#SVGID_00000181793388730711056700000011585207309081606051_);fill:#13110C;}
	.st11{clip-path:url(#SVGID_00000181793388730711056700000011585207309081606051_);fill:#BC90C1;}
	.st12{clip-path:url(#SVGID_00000181793388730711056700000011585207309081606051_);fill:#1F1F1D;}
	.st13{fill:#959191;}
	.st14{fill:#1A1917;}
	.st15{clip-path:url(#SVGID_00000015350731510541087680000003819906666632106174_);fill:#13110C;}
	.st16{clip-path:url(#SVGID_00000077325218332883693730000017303219028259342220_);fill:#13110C;}
	.st17{clip-path:url(#SVGID_00000077325218332883693730000017303219028259342220_);fill:#FFFFFF;}
	.st18{clip-path:url(#SVGID_00000077325218332883693730000017303219028259342220_);fill:#1F1F1D;}
	.st19{fill:none;stroke:#662982;stroke-width:1.9;stroke-miterlimit:10;}
	.st20{fill:#FFFFFF;stroke:#662982;stroke-width:1.216;stroke-miterlimit:10;}
	.st21{fill:#662982;}
</style>
<g>
	<g>
		<g>
			<defs>
				<rect id="SVGID_1_" x="2.67" y="12.1" width="94.72" height="102.95"/>
			</defs>
			<clipPath id="SVGID_00000114779215196163362230000017416395063532742795_">
				<use xlink:href="#SVGID_1_"  style="overflow:visible;"/>
			</clipPath>
			<path style="clip-path:url(#SVGID_00000114779215196163362230000017416395063532742795_);fill:#FFFFFF;" d="M104.47,59.65
				c-0.25,0-11.73-1.27-21.93-4.83c-1.57-0.55-3.24-1.11-3.24-1.11s-1.72,1.32-4.11,2.13c-2.38,0.81-4.51,0.71-4.51,0.71
				s-2.69,2.08-4.05,2.48c-1.37,0.4-4.56,1.01-5.73-0.66c-0.56-0.8-0.66-2.84,0.41-4c1.06-1.17,5.07-4.66,5.27-4.87
				c0.2-0.2-6.89,4.81-8.31,5.78c-1.42,0.96-4.76,2.48-5.88,2.84c-1.12,0.35-4.87,0.46-5.52-1.06c-0.66-1.52,0.15-10.84,0.15-10.84
				l7.95,1.57L67.79,46l36.93,1.97L104.47,59.65z"/>
			<path style="clip-path:url(#SVGID_00000114779215196163362230000017416395063532742795_);fill:#1F1F1D;" d="M79.26,53.5
				l0.09,0.03c0,0,1.67,0.57,3.24,1.12c9.54,3.34,20.19,4.64,21.69,4.8l0.24-11.31l-36.75-1.96l-12.82,1.78l-0.03-0.01l-7.76-1.53
				c-0.28,3.27-0.65,9.41-0.15,10.55c0.6,1.39,4.23,1.3,5.3,0.96c1.04-0.33,4.4-1.85,5.83-2.82c0.59-0.4,2.17-1.5,3.83-2.67
				c2.85-2,3.94-2.76,4.38-3.01l0.08-0.07l0.02,0.02c0.19-0.09,0.21-0.06,0.25-0.01l0.11,0.13l-0.12,0.12
				c-0.05,0.05-0.33,0.29-0.73,0.65c-1.21,1.08-3.74,3.33-4.54,4.21c-1,1.09-0.92,3.01-0.39,3.78c1.25,1.79,5.09,0.72,5.52,0.59
				c1.32-0.39,3.97-2.43,4-2.45l0.05-0.04l0.07,0c0.02,0.01,2.12,0.09,4.45-0.7c2.32-0.79,4.03-2.09,4.05-2.1L79.26,53.5z
				 M104.65,59.83h-0.18c-0.08,0-11.57-1.2-21.99-4.84c-1.35-0.47-2.78-0.96-3.15-1.09c-0.37,0.27-1.95,1.37-4.08,2.1
				c-2.18,0.74-4.12,0.74-4.51,0.72c-0.39,0.3-2.77,2.09-4.06,2.47c-0.75,0.22-4.56,1.23-5.93-0.73c-0.59-0.85-0.73-2.97,0.42-4.23
				c0.57-0.62,1.98-1.91,3.19-3c-0.68,0.47-1.44,1-2.16,1.51c-1.66,1.17-3.24,2.27-3.83,2.67c-1.48,1-4.84,2.51-5.92,2.86
				c-1.11,0.35-5.02,0.5-5.75-1.17c-0.67-1.55,0.11-10.55,0.14-10.93l0.02-0.2l8.12,1.6l12.79-1.77l37.14,1.98L104.65,59.83z"/>
			<path style="clip-path:url(#SVGID_00000114779215196163362230000017416395063532742795_);fill:#FFFFFF;" d="M104.41,9.13
				c0,0-20.51,3.02-25.17,4.03C74.58,14.17,68.1,16,65.67,16.4c-2.43,0.41-6.89,2.84-9.12,4.46c-2.23,1.62-11.15,8.72-12.97,9.53
				c-1.83,0.81-4.46,3.85-4.05,6.08c0.4,2.23,2.03,4.66,3.45,4.66c1.42,0,7.75-2.77,9.02-3.04c2.84-0.61,5.37-3.45,5.37-3.45
				s5.27-2.03,7.7-3.04c2.43-1.01,3.44-3.24,3.44-3.24s3.24,1.83,6.49,1.01c1.62-0.4,2.84-0.81,3.65-1.12
				c0.81-0.3,1.22-0.51,1.22-0.51s0.41,3.03,1.62,4.05c2.63,2.23,22.81,7.23,22.43,7.02L104.41,9.13z"/>
			<path style="clip-path:url(#SVGID_00000114779215196163362230000017416395063532742795_);fill:#1F1F1D;" d="M104.23,9.34
				c-2.19,0.32-20.59,3.05-24.94,4c-2.19,0.48-4.83,1.14-7.16,1.73c-2.75,0.69-5.13,1.3-6.43,1.51c-2.47,0.41-6.92,2.88-9.04,4.43
				c-0.63,0.46-1.82,1.38-3.2,2.44c-3.58,2.75-8.48,6.52-9.81,7.11c-1.83,0.81-4.33,3.77-3.95,5.88c0.41,2.28,2.03,4.51,3.27,4.51
				c0.84,0,3.59-1.05,5.8-1.9c1.44-0.55,2.68-1.03,3.18-1.13c2.75-0.59,5.25-3.36,5.27-3.39l0.07-0.05c0.05-0.02,5.3-2.04,7.7-3.04
				c2.33-0.97,3.34-3.13,3.35-3.15l0.08-0.18l0.17,0.1c0.03,0.02,3.22,1.78,6.35,1c1.67-0.42,2.9-0.83,3.63-1.11
				c0.79-0.29,1.2-0.5,1.2-0.5L80,27.48l0.03,0.25c0,0.03,0.42,2.97,1.56,3.94c2.47,2.09,20.14,6.48,22.14,6.95L104.23,9.34z
				 M42.96,41.31c-1.58,0-3.21-2.54-3.62-4.81c-0.41-2.26,2.22-5.42,4.16-6.28c1.29-0.57,6.37-4.48,9.73-7.07
				c1.38-1.06,2.57-1.98,3.21-2.44c2.16-1.57,6.67-4.07,9.2-4.49c1.28-0.21,3.77-0.84,6.4-1.51c2.33-0.59,4.98-1.26,7.17-1.73
				c4.61-1,24.98-4.01,25.18-4.04l0.21-0.03l-0.51,29.81l0,0l0,0.12l-0.01,0.11L103.98,39c-0.2,0.08-6.65-1.59-10.42-2.66
				c-4.8-1.36-10.81-3.22-12.2-4.4c-1.06-0.89-1.52-3.17-1.65-3.93c-0.2,0.09-0.54,0.23-1.01,0.41c-0.74,0.28-1.98,0.7-3.67,1.12
				c-2.89,0.72-5.74-0.58-6.45-0.94c-0.29,0.55-1.35,2.29-3.46,3.16c-2.29,0.96-7.17,2.84-7.67,3.03c-0.31,0.34-2.71,2.88-5.44,3.47
				c-0.47,0.1-1.7,0.57-3.12,1.12C46.54,40.29,43.87,41.31,42.96,41.31"/>
		</g>
		<g>
			<path class="st2" d="M68.5,28.54l-0.18-0.18c0-0.01-0.04-1.5-0.53-3.58c-0.49-2.06-2.43-4.09-2.46-4.11l0-0.26l0.26,0
				c0.08,0.09,2.03,2.12,2.55,4.27c0.5,2.12,0.54,3.59,0.54,3.65L68.5,28.54L68.5,28.54z"/>
			<path class="st2" d="M79.85,27.94h-0.01l-0.17-0.2c0-0.04,0.32-3.7,1.23-6.13c0.91-2.44,1.82-3.46,1.86-3.5l0.26-0.01l0.01,0.26
				c-0.01,0.01-0.9,1.03-1.79,3.39c-0.89,2.38-1.2,6-1.21,6.03L79.85,27.94z"/>
			<path class="st2" d="M81.17,21.35L81,21.22c-0.01-0.04-0.28-0.93-0.14-2.57c0.17-2.03,0.96-2.94,0.99-2.98l0.26-0.02l0.02,0.26
				c-0.01,0.01-0.74,0.87-0.9,2.77c-0.13,1.56,0.12,2.42,0.13,2.43l-0.12,0.23L81.17,21.35z"/>
			<path class="st3" d="M37.49,16.05h6.37v23.29h12.66V16.05h6.38c0,0,0.01-0.4,0.01-0.89c0-0.49-0.21-0.89-1.7-0.89H39.17
				c-1.5,0-1.7,0.4-1.7,0.89C37.47,15.65,37.49,16.05,37.49,16.05"/>
			<path class="st4" d="M62.73,15.87c0-0.16,0.01-0.42,0.01-0.71c0-0.3,0-0.71-1.52-0.71H39.17c-1.52,0-1.52,0.41-1.52,0.71
				c0,0.29,0.01,0.55,0.01,0.71h6.38v23.29h12.3V15.87H62.73z M39.17,14.09h22.04c1.34,0,1.88,0.31,1.88,1.07
				c0,0.49-0.01,0.89-0.01,0.89l0,0.18h-6.37v23.29H43.68V16.23h-6.36l-0.01-0.17c0,0-0.02-0.4-0.02-0.9
				C37.29,14.4,37.84,14.09,39.17,14.09"/>
			<path class="st5" d="M63.48,29.38v0.74c-0.07,0.31-0.45,0.57-0.82,0.6l-2.27,0.04c-1.12,0.12-1.83,1.26-2.67,1.87l0.02,49.68
				c0,0.29-0.27,0.51-0.42,0.62c-0.92,0.7-1.72,1.15-2.79,1.44c-0.42,0.1-1.27,0.33-1.29,0.68l-0.05,0.38
				c0.57,0.37,0.62,0.34,0,0.77l0.05,1.52c-0.12,0.58-0.57,1.11-0.9,1.11H48.1c-0.37-0.02-0.82-0.82-0.85-1.07v-1.6
				c-0.6-0.43-0.6-0.28,0-0.73v-0.48c-0.03-0.23-0.35-0.31-1.15-0.55c-1.22-0.35-2.42-0.94-3.09-1.46c-0.2-0.14-0.42-0.31-0.42-0.53
				l-0.05-49.81c-0.45-0.6-0.89-1.78-1.82-1.85l-2.99-0.04c-0.6,0-0.8-0.45-0.82-0.74v-0.58H63.48z"/>
			<path class="st4" d="M63.29,29.56H37.1v0.39c0.01,0.08,0.08,0.56,0.64,0.56l2.99,0.04c0.81,0.06,1.27,0.82,1.64,1.42
				c0.11,0.18,0.22,0.36,0.32,0.49l0.04,0.05v0.06l0.05,49.81c0,0.14,0.19,0.28,0.35,0.39c0.71,0.54,1.93,1.12,3.04,1.43l0.17,0.05
				c0.76,0.23,1.07,0.33,1.11,0.66l0,0.59l-0.07,0.06l-0.24,0.17l-0.08,0.05l0.07,0.05l0.24,0.16l0.08,0.05v1.7
				c0.02,0.19,0.44,0.87,0.67,0.89h4.22c0.2,0,0.6-0.43,0.72-0.97L53,86.09l0.08-0.06c0.13-0.09,0.27-0.19,0.34-0.25l-0.22-0.15
				l-0.21-0.13l0.07-0.49c0.02-0.34,0.45-0.59,1.43-0.83c0.97-0.26,1.73-0.65,2.72-1.41c0.11-0.08,0.35-0.27,0.35-0.47l-0.02-49.78
				l0.08-0.05c0.26-0.18,0.5-0.42,0.76-0.67c0.58-0.56,1.17-1.14,1.99-1.23l2.28-0.04c0.29-0.02,0.6-0.23,0.65-0.46L63.29,29.56z
				 M36.73,29.19h26.92l0,0.92c-0.1,0.43-0.53,0.75-0.99,0.78l-2.27,0.04c-0.68,0.07-1.23,0.61-1.76,1.12
				c-0.23,0.23-0.47,0.46-0.72,0.65l0.02,49.59c0,0.37-0.32,0.64-0.5,0.77c-1.03,0.78-1.83,1.19-2.85,1.46
				c-1.11,0.27-1.16,0.49-1.16,0.51l-0.03,0.28l0.01,0.01c0.27,0.17,0.42,0.27,0.42,0.45c0,0.17-0.13,0.28-0.44,0.5l0.05,1.42
				c-0.13,0.63-0.62,1.3-1.08,1.3H48.1c-0.53-0.03-1-0.95-1.03-1.23v-1.53l-0.15-0.11c-0.18-0.12-0.3-0.2-0.3-0.34
				c0-0.14,0.11-0.22,0.29-0.36l0.16-0.11v-0.39c-0.01-0.07-0.38-0.18-0.85-0.33l-0.17-0.05c-1.16-0.33-2.4-0.92-3.15-1.49
				c-0.21-0.15-0.5-0.36-0.5-0.68l-0.05-49.75c-0.1-0.14-0.2-0.3-0.31-0.47c-0.34-0.56-0.73-1.2-1.34-1.25l-2.98-0.04
				c-0.63,0-0.96-0.45-1-0.9V29.19z"/>
			<path class="st6" d="M57.56,74.26H42.77l0.01,8.12c0,0.13,0.19,0.27,0.35,0.39c0.71,0.54,1.92,1.11,3.03,1.43l0.17,0.05
				c0.76,0.23,1.07,0.33,1.11,0.66l0,0.59l-0.07,0.05l-0.24,0.17l-0.07,0.05l0.07,0.05l0.24,0.16l0.08,0.05v1.69
				c0.02,0.19,0.44,0.87,0.67,0.89h4.23c0.2,0,0.6-0.43,0.72-0.96L53,86.09l0.08-0.05c0.13-0.1,0.27-0.19,0.34-0.25l-0.22-0.15
				l-0.21-0.13l0.07-0.49c0.02-0.34,0.45-0.59,1.43-0.83c0.97-0.26,1.73-0.65,2.72-1.4c0.11-0.08,0.35-0.26,0.35-0.47L57.56,74.26z"
				/>
			<path class="st6" d="M57.77,74.26h-0.21l0,8.04c0,0.21-0.24,0.4-0.35,0.47c-0.99,0.75-1.76,1.15-2.72,1.4
				c-0.98,0.24-1.41,0.49-1.43,0.83l-0.06,0.49l0.21,0.13l0.22,0.15c-0.07,0.06-0.2,0.15-0.34,0.25L53,86.09l0.06,1.57
				c-0.12,0.53-0.52,0.96-0.72,0.96h-4.23c-0.24-0.01-0.65-0.7-0.68-0.89v-1.69l-0.08-0.05l-0.24-0.16l-0.07-0.05l0.07-0.05
				l0.24-0.17l0.07-0.05l0-0.59c-0.03-0.33-0.35-0.42-1.11-0.66l-0.17-0.05c-1.11-0.32-2.32-0.89-3.03-1.43
				c-0.16-0.11-0.35-0.25-0.35-0.39l-0.01-8.12h-0.15l0.01,8.12c0,0.23,0.22,0.39,0.42,0.53c0.67,0.51,1.87,1.11,3.09,1.46
				c0.8,0.25,1.12,0.33,1.15,0.55v0.48c-0.6,0.45-0.6,0.3,0,0.73v1.6c0.03,0.25,0.47,1.05,0.85,1.07h4.23c0.32,0,0.77-0.53,0.9-1.11
				l-0.05-1.52c0.62-0.43,0.57-0.4,0-0.77l0.05-0.38c0.03-0.35,0.87-0.58,1.3-0.68c1.07-0.29,1.87-0.74,2.79-1.44
				c0.15-0.1,0.42-0.33,0.42-0.62L57.77,74.26z"/>
			<rect x="43.16" y="29.43" class="st3" width="14.08" height="44.68"/>
			<path class="st7" d="M57.05,29.61H43.34v44.32h13.72V29.61z M42.97,29.25h14.44v45.05H42.97V29.25z"/>
			<polygon class="st4" points="46.86,85.62 46.68,85.8 46.86,85.98 53.53,85.98 53.71,85.8 53.53,85.62 			"/>
			<polygon class="st4" points="47.46,87.31 47.3,87.49 47.46,87.67 53.09,87.67 53.24,87.49 53.09,87.31 			"/>
			<polygon class="st4" points="47.18,84.61 47,84.79 47.18,84.97 53.21,84.97 53.39,84.79 53.21,84.61 			"/>
			<polygon class="st4" points="42.65,82.17 42.46,82.35 42.65,82.53 57.74,82.53 57.93,82.35 57.74,82.17 			"/>
			<polygon class="st4" points="49.19,59.99 48.47,59.41 48.47,59.79 49.06,60.23 49.25,60.35 49.25,60.36 48.47,60.36 48.47,60.67 
				50.16,60.67 50.16,60.36 49.56,60.36 49.38,60.21 50.16,59.73 50.16,59.37 			"/>
			<path class="st4" d="M49.56,58.57C49.56,58.79,49.61,59,49.79,59l0.18-0.18l-0.17-0.24l-0.07-0.01H49.56z M50.16,58.53
				l-0.13,0.02v0.01c0.09,0.08,0.16,0.2,0.16,0.36c0,0.25-0.18,0.38-0.36,0.38c-0.31,0-0.46-0.27-0.46-0.72h-0.02
				c-0.08,0-0.21,0.03-0.21,0.25l0.09,0.33l-0.2,0.06c-0.06-0.09-0.11-0.25-0.11-0.44c0-0.39,0.25-0.5,0.51-0.5h0.44l0.29-0.02
				V58.53z"/>
			<path class="st4" d="M49.3,57.94c-0.14,0-0.26,0-0.36,0.01v-0.27l0.18-0.01v-0.01c-0.1-0.05-0.21-0.19-0.21-0.39
				c0-0.21,0.14-0.43,0.53-0.43h0.73v0.31h-0.69c-0.18,0-0.31,0.06-0.31,0.23l0.18,0.24l0.1,0.01h0.72v0.31H49.3z"/>
			<path class="st4" d="M49.66,56.2l0.07-0.01c0.12-0.03,0.22-0.14,0.22-0.27c0-0.19-0.16-0.31-0.4-0.31c-0.22,0-0.39,0.1-0.39,0.31
				c0,0.13,0.09,0.24,0.23,0.27l0.08,0.01H49.66z M50.16,56.51l-0.34-0.01h-1.44V56.2h0.73v-0.01c-0.12-0.08-0.19-0.21-0.19-0.39
				c0-0.3,0.25-0.51,0.62-0.51c0.44,0,0.66,0.28,0.66,0.55c0,0.16-0.06,0.3-0.21,0.39v0l0.18,0.01V56.51z"/>
			<path class="st4" d="M48.94,55.03h1.22v-0.31h-1.22V55.03z M48.43,54.88l0.17,0.17l0.17-0.17l-0.17-0.18L48.43,54.88z"/>
			<path class="st4" d="M49.88,54.41l0.09-0.31c0-0.14-0.06-0.2-0.13-0.2c-0.08,0-0.12,0.05-0.18,0.2
				c-0.08,0.24-0.21,0.34-0.36,0.34c-0.21,0-0.38-0.18-0.38-0.46c0-0.13,0.03-0.25,0.07-0.32l0.22,0.06l-0.07,0.26l0.13,0.17
				c0.08,0,0.12-0.06,0.17-0.21c0.08-0.22,0.19-0.32,0.38-0.33c0.22,0,0.38,0.17,0.38,0.5c0,0.15-0.04,0.28-0.08,0.37L49.88,54.41z"
				/>
			<path class="st4" d="M48.84,53.01v-0.04l-0.05-0.08l-0.06,0.08l0,0.05H48.84z M49.07,53.01v0.11h-0.4l-0.01-0.17l0.03-0.15
				l0.09-0.05l0.09,0.09h0.01l0.1-0.08l0.1-0.03v0.12l-0.09,0.03l-0.06,0.08v0.04H49.07z M48.86,53.27c0.18,0,0.33-0.14,0.33-0.32
				c0-0.18-0.15-0.31-0.33-0.31c-0.18,0-0.33,0.13-0.33,0.31C48.54,53.14,48.69,53.27,48.86,53.27 M48.86,52.52
				c0.24,0,0.43,0.19,0.43,0.44c0,0.24-0.19,0.44-0.43,0.44c-0.23,0-0.42-0.2-0.42-0.44C48.44,52.71,48.63,52.52,48.86,52.52"/>
			<path class="st4" d="M52.39,61.37c0.04,0.07,0.07,0.22,0.07,0.41c0,0.43-0.27,0.76-0.78,0.76c-0.48,0-0.81-0.33-0.81-0.8
				c0-0.19,0.04-0.31,0.07-0.36l0.16,0.05l-0.06,0.31c0,0.36,0.23,0.6,0.64,0.6c0.38,0,0.62-0.22,0.62-0.59l-0.06-0.32L52.39,61.37z
				"/>
			<path class="st4" d="M51.88,60.55c-0.01,0.22,0.03,0.47,0.25,0.47l0.19-0.19c0-0.14-0.09-0.23-0.18-0.27l-0.06-0.01H51.88z
				 M52.44,60.52l-0.14,0.02v0.01c0.09,0.06,0.16,0.18,0.16,0.34c0,0.22-0.16,0.34-0.32,0.34c-0.27,0-0.41-0.24-0.41-0.66h-0.02
				c-0.09,0-0.26,0.03-0.26,0.25l0.08,0.29l-0.13,0.05c-0.06-0.09-0.1-0.23-0.1-0.36c0-0.34,0.23-0.42,0.45-0.42h0.41l0.26-0.02
				V60.52z"/>
			<path class="st4" d="M51.64,60.03l-0.3,0.01v-0.18l0.18-0.01v0c-0.1-0.05-0.21-0.18-0.21-0.37c0-0.15,0.09-0.39,0.47-0.39h0.66
				v0.2h-0.64c-0.18,0-0.33,0.07-0.33,0.26c0,0.13,0.09,0.24,0.21,0.27l0.09,0.01h0.67v0.2H51.64z"/>
			<path class="st4" d="M51.64,58.76l-0.3,0.01v-0.18l0.18-0.01v-0.01c-0.1-0.05-0.21-0.18-0.21-0.36c0-0.15,0.09-0.39,0.47-0.39
				h0.66v0.2h-0.64c-0.18,0-0.33,0.07-0.33,0.26c0,0.13,0.09,0.23,0.21,0.27l0.09,0.01h0.67v0.2H51.64z"/>
			<path class="st4" d="M51.88,56.91c-0.01,0.22,0.03,0.47,0.25,0.47l0.19-0.19c0-0.14-0.09-0.23-0.18-0.27l-0.06-0.01H51.88z
				 M52.44,56.88l-0.14,0.02v0.01c0.09,0.06,0.16,0.18,0.16,0.34c0,0.22-0.16,0.34-0.32,0.34c-0.27,0-0.41-0.24-0.41-0.67h-0.02
				c-0.09,0-0.26,0.03-0.26,0.25l0.08,0.29l-0.13,0.05c-0.06-0.09-0.1-0.22-0.1-0.36c0-0.34,0.23-0.42,0.45-0.42h0.41l0.26-0.02
				V56.88z"/>
			<path class="st4" d="M52,56.19l0.07-0.01c0.14-0.04,0.23-0.16,0.23-0.3c0-0.21-0.17-0.33-0.42-0.33c-0.22,0-0.41,0.11-0.41,0.33
				c0,0.14,0.09,0.26,0.25,0.3l0.08,0.01H52z M52.44,56.4l-0.29-0.01h-1.34v-0.2h0.7v0c-0.12-0.07-0.2-0.2-0.2-0.38
				c0-0.27,0.23-0.47,0.56-0.46c0.39,0,0.59,0.25,0.59,0.49c0,0.16-0.06,0.29-0.2,0.37v0.01l0.18,0.01V56.4z"/>
			<path class="st4" d="M51.34,55.09h1.1v-0.2h-1.1V55.09z M50.9,54.99l0.13,0.12L51.15,55l-0.12-0.13L50.9,54.99z"/>
			<path class="st4" d="M51.79,53.81l-0.08,0.01c-0.13,0.03-0.23,0.14-0.23,0.29c0,0.21,0.18,0.33,0.43,0.33
				c0.22,0,0.41-0.11,0.41-0.33c0-0.13-0.09-0.26-0.24-0.29l-0.09-0.01H51.79z M50.82,53.61h1.34l0.29-0.01v0.18l-0.19,0.01v0
				c0.12,0.06,0.22,0.2,0.22,0.38c0,0.27-0.23,0.47-0.56,0.47c-0.37,0-0.59-0.23-0.59-0.49c0-0.17,0.08-0.28,0.17-0.33v0h-0.66
				V53.61z"/>
			<path class="st4" d="M51.34,53.27h1.1v-0.2h-1.1V53.27z M50.9,53.17l0.13,0.12l0.12-0.12l-0.12-0.13L50.9,53.17z"/>
			<path class="st4" d="M51.89,52.61c0.24,0,0.42-0.14,0.42-0.34c0-0.19-0.18-0.34-0.43-0.34c-0.19,0-0.42,0.09-0.42,0.33
				C51.46,52.51,51.68,52.61,51.89,52.61 M51.88,51.74c0.41,0,0.59,0.28,0.59,0.55c0,0.3-0.22,0.53-0.57,0.53
				c-0.37,0-0.59-0.24-0.59-0.55C51.31,51.95,51.54,51.74,51.88,51.74"/>
			<rect x="50.82" y="51.28" class="st4" width="1.62" height="0.2"/>
			<polygon class="st4" points="53.01,78.47 53.01,79.59 53.17,79.59 53.42,79.45 53.39,79.31 53.2,79.41 53.2,79.41 53.2,78.47 			
				"/>
			<polygon class="st4" points="53.91,76.97 53.91,78.09 54.07,78.09 54.32,77.95 54.28,77.81 54.1,77.91 54.09,77.91 54.09,76.97 
							"/>
			<path class="st4" d="M53.77,76.76l-0.11,0.43l-0.19,0.02c0.05-0.15,0.12-0.33,0.18-0.44L53.77,76.76z"/>
			<path class="st4" d="M52.91,77.93h0.3l0.03-0.24l-0.04,0l-0.21-0.08l-0.1-0.26c0-0.22,0.14-0.39,0.37-0.39l0.2,0.05l-0.03,0.15
				l-0.16-0.04c-0.11,0-0.19,0.08-0.19,0.22c0,0.16,0.11,0.22,0.25,0.22l0.09,0l-0.07,0.54h-0.43V77.93z"/>
			<path class="st4" d="M54.36,73.67v0.12l-0.1,0.14c-0.14,0.18-0.27,0.36-0.27,0.54l0.15,0.17l0.17-0.06l0.04,0.14L54.1,74.8
				c-0.22,0-0.3-0.15-0.3-0.32c0-0.21,0.13-0.39,0.27-0.56l0.07-0.09v0h-0.35v-0.16H54.36z"/>
			<path class="st4" d="M53.77,73.45l-0.11,0.43l-0.19,0.02c0.05-0.15,0.12-0.33,0.18-0.44L53.77,73.45z"/>
			<path class="st4" d="M52.91,74.62h0.3l0.03-0.24l-0.04,0l-0.21-0.08l-0.1-0.26c0-0.22,0.14-0.39,0.37-0.39l0.2,0.05l-0.03,0.14
				l-0.16-0.04c-0.11,0-0.19,0.08-0.19,0.22c0,0.16,0.11,0.22,0.25,0.22l0.09-0.01l-0.07,0.54h-0.43V74.62z"/>
			<path class="st4" d="M54.33,70.45l-0.16-0.04l-0.18,0.19c0,0.13,0.09,0.2,0.22,0.2h0.03v0.14h-0.03l-0.19,0.17l0.14,0.15
				l0.14-0.05l0.03,0.14l-0.22,0.06c-0.18,0-0.27-0.12-0.27-0.26L54,70.88v0c-0.1-0.03-0.19-0.13-0.19-0.29
				c0-0.17,0.13-0.33,0.35-0.33l0.21,0.05L54.33,70.45z"/>
			<path class="st4" d="M53.77,70.05l-0.11,0.43l-0.19,0.02c0.05-0.15,0.12-0.33,0.18-0.44L53.77,70.05z"/>
			<path class="st4" d="M52.91,71.22h0.3l0.03-0.24H53.2l-0.21-0.08l-0.1-0.25c0-0.22,0.14-0.39,0.37-0.39l0.2,0.04l-0.03,0.15
				l-0.16-0.04c-0.11,0-0.19,0.08-0.19,0.22c0,0.16,0.11,0.22,0.25,0.22l0.09,0l-0.07,0.54h-0.43V71.22z"/>
			<path class="st4" d="M54,67.61v-0.27h0.22v0l-0.13,0.27L54,67.81h-0.01L54,67.61z M53.84,66.91v0.29h-0.12v0.15h0.12v0.68h0.18
				l0.36-0.71V67.2H54v-0.29H53.84z"/>
			<path class="st4" d="M53.77,66.7l-0.11,0.43l-0.19,0.02c0.05-0.15,0.12-0.33,0.18-0.44L53.77,66.7z"/>
			<path class="st4" d="M52.91,67.87h0.3l0.03-0.24l-0.04,0l-0.21-0.08l-0.1-0.26c0-0.22,0.14-0.39,0.37-0.39l0.2,0.05l-0.03,0.15
				l-0.16-0.04c-0.11,0-0.19,0.08-0.19,0.22c0,0.16,0.11,0.22,0.25,0.22l0.09,0l-0.07,0.54h-0.43V67.87z"/>
			<path class="st4" d="M53.47,75.2v0.12l-0.1,0.14c-0.14,0.18-0.27,0.36-0.27,0.54l0.15,0.17l0.17-0.06l0.03,0.14l-0.23,0.07
				c-0.22,0-0.3-0.15-0.3-0.32c0-0.21,0.13-0.39,0.27-0.56l0.07-0.09v0h-0.36V75.2H53.47z"/>
			<path class="st4" d="M53.43,72.07l-0.16-0.05l-0.18,0.19c0,0.13,0.1,0.2,0.22,0.2h0.03v0.14h-0.02l-0.19,0.17l0.14,0.15
				l0.14-0.05l0.03,0.14l-0.22,0.06c-0.18,0-0.27-0.12-0.27-0.26l0.16-0.25v0c-0.11-0.03-0.19-0.13-0.19-0.29
				c0-0.17,0.12-0.33,0.35-0.33l0.21,0.05L53.43,72.07z"/>
			<path class="st4" d="M53.17,69.23v-0.27h0.22v0l-0.14,0.27l-0.08,0.19h-0.01L53.17,69.23z M53.01,68.53v0.29h-0.12v0.15h0.12
				v0.68h0.18l0.36-0.71v-0.12h-0.38v-0.29H53.01z"/>
			<path class="st4" d="M52.91,66.1h0.3l0.03-0.24l-0.04,0l-0.21-0.09l-0.1-0.25c0-0.22,0.14-0.39,0.37-0.39l0.2,0.05l-0.03,0.15
				l-0.16-0.04c-0.11,0-0.19,0.08-0.19,0.22c0,0.16,0.11,0.22,0.25,0.22l0.09,0l-0.07,0.54h-0.43V66.1z"/>
			<path class="st4" d="M54.18,80.95c0-0.26-0.04-0.41-0.13-0.41c-0.08,0-0.12,0.15-0.12,0.41c0,0.25,0.03,0.42,0.12,0.42
				C54.14,81.36,54.18,81.21,54.18,80.95 M53.75,80.95c0-0.4,0.14-0.57,0.31-0.57c0.21,0,0.31,0.25,0.31,0.57
				c0,0.35-0.11,0.58-0.32,0.58C53.82,81.52,53.75,81.26,53.75,80.95"/>
			<path class="st4" d="M53.77,80.17l-0.11,0.43l-0.19,0.02c0.05-0.15,0.12-0.33,0.18-0.44L53.77,80.17z"/>
			<path class="st4" d="M52.91,81.35h0.3l0.03-0.24l-0.04,0l-0.21-0.08l-0.1-0.26c0-0.22,0.14-0.39,0.37-0.39l0.2,0.04l-0.03,0.15
				l-0.16-0.04c-0.11,0-0.19,0.08-0.19,0.22c0,0.16,0.11,0.22,0.25,0.22l0.09-0.01l-0.07,0.54h-0.43V81.35z"/>
			<polygon class="st4" points="45.97,78.85 45.79,79.03 45.97,79.21 52.06,79.21 52.24,79.03 52.06,78.85 			"/>
			<polygon class="st4" points="45.97,75.59 45.79,75.77 45.97,75.95 52.06,75.95 52.24,75.77 52.06,75.59 			"/>
			<polygon class="st4" points="45.97,72.27 45.79,72.45 45.97,72.63 52.06,72.63 52.24,72.45 52.06,72.27 			"/>
			<polygon class="st4" points="45.97,68.9 45.79,69.08 45.97,69.27 52.06,69.27 52.24,69.08 52.06,68.9 			"/>
			<polygon class="st4" points="45.97,65.52 45.79,65.7 45.97,65.88 52.06,65.88 52.24,65.7 52.06,65.52 			"/>
			<polygon class="st4" points="49.03,81.48 48.84,81.66 49.03,81.84 52.05,81.84 52.23,81.66 52.05,81.48 			"/>
			<polygon class="st4" points="49.03,79.76 48.84,79.95 49.03,80.13 52.05,80.13 52.23,79.95 52.05,79.76 			"/>
			<polygon class="st4" points="49.03,78.03 48.84,78.21 49.03,78.4 52.05,78.4 52.23,78.21 52.05,78.03 			"/>
			<polygon class="st4" points="49.03,74.74 48.84,74.92 49.03,75.1 52.05,75.1 52.23,74.92 52.05,74.74 			"/>
			<polygon class="st4" points="49.03,73.11 48.84,73.29 49.03,73.47 52.05,73.47 52.23,73.29 52.05,73.11 			"/>
			<polygon class="st4" points="49.03,71.41 48.84,71.59 49.03,71.78 52.05,71.78 52.23,71.59 52.05,71.41 			"/>
			<polygon class="st4" points="49.03,69.73 48.84,69.91 49.03,70.09 52.05,70.09 52.23,69.91 52.05,69.73 			"/>
			<polygon class="st4" points="49.03,68.05 48.84,68.23 49.03,68.41 52.05,68.41 52.23,68.23 52.05,68.05 			"/>
			<polygon class="st4" points="49.03,66.35 48.84,66.53 49.03,66.71 52.05,66.71 52.23,66.53 52.05,66.35 			"/>
			<polygon class="st4" points="49.03,76.41 48.84,76.59 49.03,76.77 52.05,76.77 52.23,76.59 52.05,76.41 			"/>
			<polygon class="st4" points="47.9,80.67 47.72,80.85 47.9,81.03 52.05,81.03 52.23,80.85 52.05,80.67 			"/>
			<polygon class="st4" points="47.9,80.67 47.72,80.85 47.9,81.03 52.05,81.03 52.23,80.85 52.05,80.67 			"/>
			<polygon class="st4" points="47.9,77.24 47.72,77.43 47.9,77.61 52.05,77.61 52.23,77.43 52.05,77.24 			"/>
			<polygon class="st4" points="47.9,73.94 47.72,74.12 47.9,74.3 52.05,74.3 52.23,74.12 52.05,73.94 			"/>
			<polygon class="st4" points="47.9,70.54 47.72,70.73 47.9,70.91 52.05,70.91 52.23,70.73 52.05,70.54 			"/>
			<polygon class="st4" points="47.9,67.18 47.72,67.36 47.9,67.55 52.05,67.55 52.23,67.36 52.05,67.18 			"/>
			<path class="st4" d="M52.07,48.28h1.83l0.17-0.81c-0.05,0.23-0.27,0.41-0.49,0.41h-1.43l-0.25,0.2L52.07,48.28z M52.66,47.47
				h1.41l0.17-0.81c-0.05,0.23-0.27,0.41-0.49,0.41h-1l-0.25,0.2L52.66,47.47z M52.41,46.65h1.84l0.17-0.82
				c-0.04,0.21-0.27,0.41-0.49,0.41H52.5l-0.25,0.2L52.41,46.65z"/>
			<polygon class="st4" points="49.97,46.25 49.54,48.28 49.85,48.28 50.28,46.25 			"/>
			<path class="st4" d="M47.14,46.86c0.14-0.22,0.31-0.33,0.5-0.33l0.13,0.05c0.06,0.07,0.06,0.2,0.02,0.4
				c-0.07,0.34-0.25,0.5-0.55,0.5l-0.23-0.02L47.14,46.86z M46.68,47.7c0.14,0.04,0.31,0.06,0.51,0.06c0.5,0,0.8-0.26,0.91-0.77
				c0.06-0.29,0.04-0.49-0.05-0.61c-0.07-0.08-0.17-0.13-0.32-0.13c-0.2,0-0.37,0.09-0.52,0.27l0.04-0.27h-0.28l-0.31,1.44
				L46.68,47.7z"/>
			<polygon class="st4" points="51.18,48.02 50.15,48.02 50.09,48.28 51.44,48.28 51.87,46.25 50.5,46.25 50.45,46.51 51.5,46.51 
				51.37,47.15 50.38,47.15 50.32,47.41 51.31,47.41 			"/>
			<path class="st4" d="M48.5,47.32c0.02-0.11,0.11-0.17,0.28-0.17h0.43c-0.07,0.23-0.23,0.34-0.46,0.34l-0.23-0.06L48.5,47.32z
				 M48.7,47.76c0.46,0,0.74-0.25,0.85-0.73c0.06-0.27,0.03-0.47-0.07-0.6c-0.09-0.12-0.25-0.17-0.46-0.17
				c-0.22,0-0.41,0.06-0.56,0.18l-0.01,0.01l-0.06,0.29l0.06-0.05c0.15-0.12,0.33-0.17,0.53-0.17l0.26,0.09l0.04,0.29h-0.44
				c-0.36,0-0.57,0.14-0.63,0.42l0.05,0.3C48.32,47.71,48.47,47.76,48.7,47.76"/>
			<path class="st2" d="M70.45,56.91l-0.13-0.06l0.01-0.26c0.01-0.01,1.18-1.13,1.92-2.96c0.29-0.73,0.46-2.37,0.46-2.38l0.2-0.16
				l0.16,0.2c-0.01,0.07-0.17,1.71-0.49,2.48c-0.77,1.91-1.95,3.04-2,3.09L70.45,56.91z"/>
		</g>
		<g>
			<defs>
				<rect id="SVGID_00000109719918284545744020000002362868903060286625_" x="2.67" y="12.1" width="94.72" height="102.95"/>
			</defs>
			<clipPath id="SVGID_00000096056960747634904260000016935799357360977542_">
				<use xlink:href="#SVGID_00000109719918284545744020000002362868903060286625_"  style="overflow:visible;"/>
			</clipPath>
			<path style="clip-path:url(#SVGID_00000096056960747634904260000016935799357360977542_);fill:#1F1F1D;" d="M79.28,53.88
				l-0.14-0.07l0.02-0.25c0.01-0.01,0.89-0.76,0.85-1.96l0.17-0.19l0.19,0.17c0.05,1.39-0.94,2.22-0.98,2.26L79.28,53.88z"/>
			<path style="clip-path:url(#SVGID_00000096056960747634904260000016935799357360977542_);fill:#FFFFFF;" d="M105.18,27.41
				c0,0-22.08,6.03-25.46,6.7C76.34,34.78,68.5,35.86,65.67,36c-2.84,0.14-13.38,0.14-15,0.41c-1.62,0.27-7.16,1.21-7.4,4.32
				c-0.19,2.43-0.3,5.14,0.78,6.08c1.08,0.95,2.84,1.08,2.84,1.08s4.32,2.03,9.59,2.3c5.27,0.27,11.22,0.54,14.19-0.27
				c2.97-0.81,5.54-1.62,8.78-1.22c3.24,0.41,25.47,4.09,25.47,4.09L105.18,27.41z"/>
			<path style="clip-path:url(#SVGID_00000096056960747634904260000016935799357360977542_);fill:#1F1F1D;" d="M77.74,48.41
				c0.56,0,1.13,0.03,1.73,0.11c3.04,0.38,23,3.68,25.27,4.06l0.25-24.93c-2.37,0.64-22.08,6.01-25.24,6.64
				c-3.32,0.66-11.16,1.76-14.08,1.9c-1.09,0.05-3.33,0.08-5.71,0.12c-3.88,0.05-8.29,0.12-9.27,0.29c-4.66,0.78-7.1,2.17-7.25,4.16
				c-0.18,2.41-0.3,5.05,0.72,5.93c1.02,0.9,2.71,1.04,2.73,1.04l0.06,0.02c0.04,0.02,4.35,2.01,9.53,2.28
				c4.68,0.24,11.08,0.57,14.13-0.27l0.65-0.18C73.4,48.97,75.44,48.41,77.74,48.41 M105.1,53.01l-0.21-0.03
				c-0.22-0.04-22.26-3.69-25.47-4.09c-2.97-0.37-5.33,0.28-8.06,1.03l-0.65,0.18c-3.11,0.85-9.55,0.52-14.25,0.28
				c-5.02-0.26-9.24-2.12-9.63-2.3c-0.26-0.02-1.87-0.21-2.91-1.12c-1.14-1-1.04-3.62-0.84-6.23c0.17-2.17,2.71-3.68,7.55-4.49
				c1.01-0.17,5.43-0.23,9.33-0.29c2.37-0.04,4.61-0.07,5.69-0.12c2.91-0.14,10.72-1.23,14.03-1.89c3.33-0.67,25.22-6.64,25.45-6.7
				l0.23-0.06l0,0.24L105.1,53.01z"/>
		</g>
		<g>
			<path class="st5" d="M46.46,47.82c0,0,5.42-0.1,7.4-0.25c1.97-0.15,2.59-1.23,2.63-4.56c0.05-3.75-1.83-4-2.79-4.21
				c-0.96-0.2-9.38,0-9.38,0"/>
			<path class="st2" d="M46.46,48l-0.01-0.36c0.06,0,5.44-0.1,7.39-0.25c1.87-0.14,2.42-1.13,2.47-4.38
				c0.04-3.47-1.57-3.81-2.54-4.01l-0.1-0.02c-0.75-0.16-6.43-0.07-9.33,0l-0.01-0.36c0.34-0.01,8.44-0.2,9.42,0l0.1,0.02
				c1.01,0.21,2.88,0.59,2.83,4.36c-0.05,3.43-0.73,4.58-2.8,4.74C51.91,47.9,46.52,48,46.46,48"/>
			<path class="st5" d="M57.46,91.17H42.93v-3.38c0,0,0.22-0.47,7.11-0.47c6.89,0,7.42,0.47,7.42,0.47V91.17z"/>
			<path class="st4" d="M43.11,90.99h14.17V87.9c-0.27-0.09-1.62-0.4-7.23-0.4c-5.46,0-6.67,0.29-6.93,0.39V90.99z M57.46,91.35
				H42.93l-0.18-0.18v-3.38l0.02-0.08c0.23-0.5,4.66-0.58,7.28-0.58c6.62,0,7.44,0.43,7.54,0.52l0.06,0.13v3.38L57.46,91.35z"/>
			<path class="st5" d="M58.47,88.23c0,0-1.45-0.36-8.37-0.36c-6.93,0-8.18,0.36-8.18,0.36v-1.78c0,0,0.25-0.32,8.1-0.32
				c7.85,0,8.45,0.32,8.45,0.32V88.23z"/>
			<path class="st4" d="M50.1,87.69c5.54,0,7.58,0.23,8.19,0.32v-1.42c-0.37-0.07-1.98-0.27-8.27-0.27c-6.12,0-7.59,0.19-7.92,0.27
				v1.43C42.7,87.91,44.65,87.69,50.1,87.69 M58.47,88.41l-0.04,0c-0.01,0-1.54-0.35-8.33-0.35c-6.77,0-8.12,0.35-8.13,0.35
				l-0.16-0.03l-0.07-0.14v-1.78l0.04-0.11c0.25-0.32,4.62-0.39,8.25-0.39c7.68,0,8.47,0.3,8.54,0.34l0.1,0.16v1.78l-0.07,0.14
				L58.47,88.41z"/>
			<path class="st5" d="M58.78,91.8c0,0-1.5-0.47-8.69-0.47c-7.19,0-8.49,0.47-8.49,0.47v-2.35c0,0,0.26-0.42,8.41-0.42
				c8.15,0,8.77,0.42,8.77,0.42V91.8z"/>
		</g>
		<g>
			<defs>
				<rect id="SVGID_00000029748011228868032280000013447987617028571830_" x="2.67" y="12.1" width="94.72" height="102.95"/>
			</defs>
			<clipPath id="SVGID_00000115505077001924311070000003122277210532793528_">
				<use xlink:href="#SVGID_00000029748011228868032280000013447987617028571830_"  style="overflow:visible;"/>
			</clipPath>
			<path style="clip-path:url(#SVGID_00000115505077001924311070000003122277210532793528_);fill:#13110C;" d="M50.09,91.15
				c5.74,0,7.87,0.3,8.51,0.43v-2c-0.34-0.08-1.95-0.36-8.59-0.36c-6.46,0-7.92,0.26-8.23,0.35v2
				C42.41,91.44,44.44,91.15,50.09,91.15 M58.78,91.98l-0.05-0.01c-0.01-0.01-1.6-0.46-8.64-0.46c-7.01,0-8.37,0.44-8.43,0.46
				l-0.17-0.02l-0.08-0.15v-2.35l0.03-0.1c0.27-0.44,5.48-0.5,8.56-0.5c7.98,0,8.8,0.4,8.87,0.45l0.08,0.15v2.35l-0.07,0.14
				L58.78,91.98z"/>
			<path style="clip-path:url(#SVGID_00000115505077001924311070000003122277210532793528_);fill:#BC90C1;" d="M63.7,106.48
				l-4.18-4.54c-0.43-0.46-0.76-0.84-0.75-0.84c0.01,0,0.03-0.45,0.03-1v-1.02H41.6v1.02c0,0.55,0.01,1,0.03,1
				c0.01,0-0.32,0.38-0.75,0.84l-4.19,4.54c-0.43,0.46-0.89,1.29-0.89,1.84v36.53c0,0.55,0.65,1,1.43,1h25.92
				c0.79,0,1.43-0.45,1.43-1v-36.53C64.59,107.77,64.12,106.94,63.7,106.48"/>
			<path style="clip-path:url(#SVGID_00000115505077001924311070000003122277210532793528_);fill:#1F1F1D;" d="M41.79,101.04
				c0.04,0.09,0,0.14-0.78,0.98l-4.19,4.55c-0.41,0.45-0.86,1.24-0.86,1.75v36.53c0,0.47,0.57,0.85,1.27,0.85h25.92
				c0.7,0,1.27-0.38,1.27-0.85v-36.53c0-0.51-0.45-1.3-0.86-1.75l-4.19-4.55c-0.78-0.85-0.82-0.89-0.78-0.98
				c0.01-0.08,0.02-0.41,0.02-0.95v-0.87H41.77v0.87C41.77,100.6,41.78,100.96,41.79,101.04 M63.16,146H37.23
				c-0.88,0-1.6-0.52-1.6-1.15v-36.53c0-0.58,0.48-1.44,0.93-1.94l4.19-4.55c0.37-0.4,0.62-0.68,0.7-0.78
				c-0.02-0.16-0.02-0.44-0.02-0.97v-1.17h17.52v1.17c0,0.53,0,0.81-0.02,0.97c0.09,0.11,0.35,0.4,0.7,0.78l4.18,4.55
				c0.46,0.5,0.93,1.36,0.93,1.94v36.53C64.76,145.48,64.04,146,63.16,146"/>
		</g>
		<g>
			<path class="st13" d="M58.62,99.22H41.77v0.87c0,0.49,0.01,0.83,0.02,0.94H58.6c0.01-0.1,0.02-0.43,0.02-0.94V99.22z"/>
			<path class="st14" d="M58.79,99.07H41.6v1.72l0,0.24h0.18c-0.01-0.11-0.02-0.45-0.02-0.94v-0.87h16.85v0.87
				c0,0.51-0.01,0.83-0.02,0.94h0.19v-0.24V99.07z"/>
			<rect x="41.45" y="90.51" class="st5" width="17.49" height="8.17"/>
			<path class="st4" d="M41.63,98.49h17.13v-7.8H41.63V98.49z M58.94,98.85H41.45l-0.18-0.18v-8.17l0.18-0.18h17.49l0.18,0.18v8.17
				L58.94,98.85z"/>
			<path class="st5" d="M59.08,95.05H41.31c-0.24,0-0.43-0.19-0.43-0.43v-0.14c0-0.24,0.19-0.43,0.43-0.43h17.78
				c0.24,0,0.43,0.2,0.43,0.43v0.14C59.52,94.86,59.32,95.05,59.08,95.05"/>
			<path class="st4" d="M41.31,94.24c-0.14,0-0.25,0.11-0.25,0.25v0.14c0,0.14,0.11,0.25,0.25,0.25h17.78
				c0.14,0,0.25-0.11,0.25-0.25v-0.14c0-0.14-0.11-0.25-0.25-0.25H41.31z M59.08,95.24H41.31c-0.34,0-0.61-0.28-0.61-0.61v-0.14
				c0-0.34,0.28-0.61,0.61-0.61h17.78c0.34,0,0.61,0.28,0.61,0.61v0.14C59.7,94.96,59.42,95.24,59.08,95.24"/>
			<path class="st5" d="M58.92,97.55l-17.5-0.74c-0.31-0.01-0.55-0.25-0.54-0.52c0.01-0.28,0.28-0.49,0.59-0.48l17.5,0.74
				c0.31,0.01,0.55,0.25,0.54,0.52C59.49,97.35,59.23,97.56,58.92,97.55"/>
			<path class="st4" d="M58.92,97.37h0.02c0.2,0,0.37-0.14,0.38-0.31l-0.08-0.2l-0.28-0.13l-17.5-0.74l-0.02,0
				c-0.2,0-0.37,0.14-0.38,0.3l0.08,0.21l0.28,0.13L58.92,97.37z M58.94,97.73h-0.03l-17.5-0.74c-0.21-0.01-0.41-0.1-0.54-0.25
				c-0.12-0.13-0.18-0.3-0.17-0.47c0.02-0.36,0.35-0.65,0.75-0.65l0.03,0l17.5,0.74c0.21,0.01,0.4,0.1,0.54,0.24
				c0.12,0.13,0.18,0.3,0.17,0.47C59.67,97.44,59.34,97.73,58.94,97.73"/>
			<path class="st5" d="M58.92,93.57l-17.5-0.74c-0.31-0.01-0.55-0.25-0.54-0.52c0.01-0.28,0.28-0.49,0.59-0.48l17.5,0.74
				c0.31,0.01,0.55,0.25,0.54,0.52C59.49,93.37,59.23,93.59,58.92,93.57"/>
			<path class="st4" d="M41.45,92.02c-0.2,0-0.37,0.14-0.38,0.3l0.08,0.21l0.29,0.13l17.5,0.74c0.2,0.02,0.39-0.13,0.4-0.3
				l-0.08-0.21l-0.28-0.13l-17.5-0.74H41.45z M58.94,93.76h-0.03l-17.5-0.74c-0.21-0.01-0.4-0.1-0.54-0.24
				c-0.12-0.13-0.18-0.3-0.17-0.47c0.02-0.36,0.35-0.65,0.74-0.65h0.04l17.5,0.74c0.21,0.01,0.4,0.1,0.54,0.25
				c0.12,0.13,0.18,0.3,0.17,0.47C59.67,93.47,59.34,93.76,58.94,93.76"/>
			<path class="st5" d="M58.9,99.19H41.49c-0.34,0-0.61-0.28-0.61-0.61v-0.2c0-0.34,0.28-0.61,0.61-0.61H58.9
				c0.34,0,0.61,0.28,0.61,0.61v0.2C59.52,98.92,59.24,99.19,58.9,99.19"/>
			<path class="st4" d="M41.49,97.95c-0.24,0-0.43,0.19-0.43,0.43v0.2c0,0.24,0.19,0.43,0.43,0.43H58.9c0.24,0,0.43-0.19,0.43-0.43
				v-0.2c0-0.24-0.19-0.43-0.43-0.43H41.49z M58.9,99.38H41.49c-0.44,0-0.79-0.36-0.79-0.79v-0.2c0-0.44,0.36-0.79,0.79-0.79H58.9
				c0.44,0,0.79,0.36,0.79,0.79v0.2C59.7,99.02,59.34,99.38,58.9,99.38"/>
			<path class="st5" d="M59.08,91.08H41.31c-0.24,0-0.43-0.19-0.43-0.43v-0.14c0-0.24,0.19-0.43,0.43-0.43h17.78
				c0.24,0,0.43,0.19,0.43,0.43v0.14C59.52,90.89,59.32,91.08,59.08,91.08"/>
		</g>
		<g>
			<defs>
				<rect id="SVGID_00000155869178153920077140000017055198579198316969_" x="2.67" y="12.1" width="94.72" height="102.95"/>
			</defs>
			<clipPath id="SVGID_00000039831924751786988040000015501293108285724324_">
				<use xlink:href="#SVGID_00000155869178153920077140000017055198579198316969_"  style="overflow:visible;"/>
			</clipPath>
			<path style="clip-path:url(#SVGID_00000039831924751786988040000015501293108285724324_);fill:#13110C;" d="M41.31,90.26
				c-0.14,0-0.25,0.11-0.25,0.25v0.14c0,0.14,0.11,0.25,0.25,0.25h17.78c0.14,0,0.25-0.11,0.25-0.25v-0.14
				c0-0.14-0.11-0.25-0.25-0.25H41.31z M59.08,91.27H41.31c-0.34,0-0.61-0.28-0.61-0.61v-0.14c0-0.34,0.28-0.61,0.61-0.61h17.78
				c0.34,0,0.61,0.28,0.61,0.61v0.14C59.7,90.99,59.42,91.27,59.08,91.27"/>
		</g>
		<g>
			<rect x="36.05" y="110.63" class="st5" width="28.34" height="4.41"/>
			<polygon class="st4" points="44.77,112.37 45.08,112.37 45.08,113.52 45.09,113.52 45.28,113.27 46.01,112.37 46.4,112.37 
				45.53,113.39 46.46,114.77 46.1,114.77 45.31,113.59 45.08,113.85 45.08,114.77 44.77,114.77 			"/>
			<path class="st4" d="M47.6,113.89c-0.34-0.01-0.73,0.05-0.73,0.39c0,0.2,0.13,0.3,0.29,0.3c0.23,0,0.37-0.14,0.42-0.29l0.02-0.1
				V113.89z M47.64,114.77l-0.02-0.22h-0.01c-0.1,0.14-0.28,0.26-0.53,0.26c-0.35,0-0.53-0.25-0.53-0.49c0-0.42,0.37-0.64,1.04-0.64
				v-0.03c0-0.14-0.04-0.4-0.39-0.4c-0.16,0-0.33,0.05-0.45,0.13l-0.07-0.21c0.14-0.09,0.35-0.15,0.57-0.15
				c0.53,0,0.65,0.36,0.65,0.71v0.64c0,0.15,0.01,0.29,0.03,0.41H47.64z"/>
			<path class="st4" d="M48.41,113.51c0-0.18,0-0.32-0.01-0.47h0.28l0.02,0.29h0.01c0.08-0.16,0.28-0.32,0.57-0.32
				c0.24,0,0.61,0.14,0.61,0.73v1.03h-0.31v-0.99c0-0.28-0.1-0.51-0.4-0.51c-0.21,0-0.37,0.15-0.42,0.32l-0.02,0.15v1.04h-0.31
				V113.51z"/>
			<path class="st4" d="M50.69,114.07l0.01,0.12c0.06,0.22,0.24,0.37,0.47,0.37c0.33,0,0.52-0.27,0.52-0.66
				c0-0.34-0.18-0.64-0.51-0.64c-0.21,0-0.41,0.14-0.48,0.38l-0.02,0.13V114.07z M50.37,114.77c0.01-0.12,0.02-0.29,0.02-0.44v-2.08
				h0.31v1.08h0.01c0.11-0.19,0.31-0.32,0.59-0.32c0.43,0,0.73,0.36,0.73,0.88c0,0.62-0.39,0.92-0.77,0.92
				c-0.25,0-0.45-0.1-0.58-0.32h-0.01l-0.01,0.29H50.37z"/>
			<path class="st4" d="M52.41,114.77h0.31v-1.72h-0.31V114.77z M52.37,112.56l0.19,0.19l0.2-0.19l-0.19-0.19L52.37,112.56z"/>
			<path class="st4" d="M53.2,114.45c0.09,0.06,0.26,0.12,0.41,0.12c0.23,0,0.33-0.12,0.33-0.26c0-0.15-0.09-0.23-0.32-0.32
				c-0.31-0.11-0.46-0.28-0.46-0.49c0-0.28,0.23-0.5,0.6-0.5c0.17,0,0.33,0.05,0.42,0.11l-0.08,0.23c-0.07-0.04-0.19-0.1-0.35-0.1
				c-0.19,0-0.29,0.11-0.29,0.24c0,0.14,0.1,0.21,0.33,0.29c0.3,0.11,0.45,0.26,0.45,0.52c0,0.3-0.24,0.52-0.64,0.52
				c-0.19,0-0.36-0.05-0.49-0.12L53.2,114.45z"/>
		</g>
		<g>
			<defs>
				<rect id="SVGID_00000050661187998710453890000006666457386067266723_" x="2.67" y="12.1" width="94.72" height="102.95"/>
			</defs>
			<clipPath id="SVGID_00000113331063663537362890000012653745405679848079_">
				<use xlink:href="#SVGID_00000050661187998710453890000006666457386067266723_"  style="overflow:visible;"/>
			</clipPath>
			<path style="clip-path:url(#SVGID_00000113331063663537362890000012653745405679848079_);fill:#13110C;" d="M55.05,112.89h0.07
				l0.13-0.09l-0.12-0.09l-0.08,0.01V112.89z M55.05,113.22h-0.13v-0.58l0.23-0.02l0.2,0.04l0.06,0.13l-0.12,0.13v0.01l0.11,0.14
				l0.04,0.15h-0.15l-0.05-0.14l-0.12-0.09h-0.07V113.22z M54.69,112.91c0,0.26,0.19,0.47,0.46,0.47c0.26,0,0.44-0.21,0.44-0.46
				c0-0.26-0.19-0.47-0.45-0.47C54.88,112.45,54.69,112.66,54.69,112.91 M55.74,112.91c0,0.33-0.26,0.59-0.6,0.59
				c-0.33,0-0.6-0.26-0.6-0.59c0-0.32,0.27-0.58,0.6-0.58C55.48,112.33,55.74,112.59,55.74,112.91"/>
			<path style="clip-path:url(#SVGID_00000113331063663537362890000012653745405679848079_);fill:#FFFFFF;" d="M38.42,111.5
				c0,0-4.57-0.74-6.78-0.84c-2.21-0.1-4.25,1.58-4.25,1.58s-1.37-0.37-2.63-0.05c-0.91,0.23-1.47,0.68-1.47,0.68
				s-2.63-0.31-4.41,0.21c-1.79,0.53-2.84,1.37-5.36,4.31c-2.52,2.94-3.83,4.04-7.62,6.72c-2.27,1.61-2.27,2.52-2.27,2.52v19.78
				h24.71c0,0,0.96-0.75,3.05-2.65c1.78-1.63,4.52-2.1,6.3-1.47c1.44,0.51,5.03,2.18,8.41,1.37c3.37-0.81,4.93-1.57,6.2-2.94
				c0.68-0.74,0.74-3.47,0.32-4.62c-0.44-1.18-2.05-2-2.94-2.42c-1.96-0.92-3-1.16-4.78-1.26c-1.79-0.11-4.15,0-4.15,0
				s-1.68-0.63-3.47-0.95c-1.79-0.32-3.78-0.74-5.05-1.37c-1.26-0.63-3.57-2.42-3.57-2.42s2.21-0.42,3.15-0.95
				c0.94-0.52,2.68-1.79,3.31-2.84c0.63-1.05,1.31-2.1,1.63-3.57c0.31-1.47,1.47-2.84,1.47-2.84L38.42,111.5z"/>
			<path style="clip-path:url(#SVGID_00000113331063663537362890000012653745405679848079_);fill:#1F1F1D;" d="M3.81,146.24h24.46
				c0.22-0.18,1.19-0.96,2.99-2.61c1.71-1.56,4.5-2.21,6.49-1.51c0.18,0.06,0.4,0.14,0.64,0.24c1.66,0.64,4.76,1.82,7.66,1.12
				c3.3-0.8,4.84-1.53,6.11-2.89c0.61-0.65,0.7-3.31,0.28-4.44c-0.39-1.06-1.81-1.83-2.85-2.32c-2.02-0.95-3.04-1.14-4.71-1.24
				c-1.76-0.1-4.11,0-4.13,0l-0.04,0l-0.03-0.01c-0.02-0.01-1.69-0.63-3.44-0.94c-1.67-0.29-3.77-0.72-5.09-1.38
				c-1.26-0.63-3.51-2.36-3.6-2.44l-0.32-0.25l0.4-0.08c0.02,0,2.19-0.42,3.1-0.93c0.95-0.53,2.65-1.78,3.24-2.77l0.15-0.25
				c0.58-0.96,1.17-1.94,1.46-3.27c0.29-1.36,1.25-2.6,1.47-2.87l0.2-5.77c-0.82-0.13-4.66-0.72-6.6-0.81
				c-2.1-0.12-4.11,1.52-4.13,1.53l-0.07,0.06l-0.09-0.02c-0.01,0-1.34-0.35-2.54-0.05c-0.86,0.21-1.39,0.64-1.4,0.65l-0.06,0.05
				l-0.08-0.01c-0.03,0-2.61-0.31-4.34,0.21c-1.75,0.51-2.78,1.35-5.27,4.25c-2.55,2.98-3.92,4.11-7.65,6.76
				c-2.12,1.5-2.19,2.37-2.19,2.38V146.24z M28.4,146.6H3.45v-19.96c0-0.11,0.07-1.06,2.35-2.67c3.76-2.66,5.04-3.72,7.59-6.7
				c2.55-2.97,3.61-3.83,5.45-4.36c1.65-0.49,3.96-0.27,4.41-0.22c0.17-0.13,0.7-0.48,1.48-0.67c1.12-0.28,2.29-0.05,2.63,0.03
				c0.39-0.3,2.28-1.65,4.31-1.56c2.19,0.1,6.75,0.83,6.8,0.84l0.16,0.03l-0.22,6.21l-0.04,0.05c-0.01,0.01-1.13,1.35-1.43,2.76
				c-0.3,1.38-0.91,2.4-1.5,3.38L35.27,124c-0.64,1.06-2.36,2.34-3.38,2.9c-0.72,0.4-2.13,0.74-2.81,0.88
				c0.68,0.51,2.27,1.68,3.23,2.16c1.28,0.64,3.34,1.06,4.99,1.35c1.64,0.29,3.21,0.85,3.46,0.94c0.31-0.01,2.48-0.1,4.13,0
				c1.91,0.11,2.96,0.39,4.85,1.28c1.1,0.52,2.6,1.34,3.04,2.52c0.43,1.16,0.42,3.98-0.35,4.81c-1.32,1.42-2.91,2.18-6.29,3
				c-3.01,0.73-6.18-0.48-7.88-1.13c-0.24-0.09-0.45-0.17-0.63-0.24c-1.59-0.56-4.28-0.25-6.12,1.43c-2.07,1.89-3.05,2.65-3.06,2.66
				L28.4,146.6z"/>
		</g>
		<g>
			<polygon class="st5" points="35.63,110.7 35.63,115.05 39.04,115.05 39.04,110.63 			"/>
			<rect x="35.63" y="109.04" class="st2" width="0.35" height="6.01"/>
			<path class="st2" d="M2.92,114.79h94.21V12.35H2.92V114.79z M97.64,115.3H2.42V11.84h95.22V115.3z"/>
		</g>
	</g>
	<g>
		<g>
			<rect x="2.49" y="11.89" class="st19" width="95.47" height="103.55"/>
		</g>
		<g>
			<path class="st20" d="M107.5,12.92c0,5.96-4.83,10.79-10.79,10.79c-5.96,0-10.79-4.83-10.79-10.79c0-5.96,4.83-10.79,10.79-10.79
				C102.66,2.13,107.5,6.96,107.5,12.92z"/>
			<g>
				<path class="st21" d="M92.42,13.29c0-3.04,1.6-5.44,4.65-5.44c1.3,0,2.31,0.46,3.02,1.17l-0.85,1.39
					c-0.55-0.57-1.17-0.92-2.17-0.92c-1.77,0-2.78,1.63-2.78,3.48c0,0.09,0,0.19,0,0.3c0.49-0.71,1.6-1.49,2.83-1.49
					c1.9,0,3.54,1.17,3.54,3.42c0,1.94-1.53,3.54-3.89,3.54C93.67,18.74,92.42,16.23,92.42,13.29z M98.77,15.26
					c0-1.3-1.01-1.88-2.15-1.88c-0.9,0-1.79,0.47-2.31,1.23c0.09,1.14,0.73,2.48,2.34,2.48C98.05,17.1,98.77,16.1,98.77,15.26z"/>
			</g>
		</g>
	</g>
</g>
</svg>
