<?xml version="1.0" encoding="utf-8"?>
<!-- Generator: Adobe Illustrator 24.0.0, SVG Export Plug-In . SVG Version: 6.00 Build 0)  -->
<svg version="1.1" id="Capa_1" xmlns="http://www.w3.org/2000/svg" xmlns:xlink="http://www.w3.org/1999/xlink" x="0px" y="0px"
	 viewBox="0 0 109.9 58.4" style="enable-background:new 0 0 109.9 58.4;" xml:space="preserve">
<style type="text/css">
	.st0{fill:#66318C;}
	.st1{fill:#9466C2;}
	.st2{fill:#27A884;}
</style>
<g>
	<g>
		<g>
			<path class="st0" d="M18.1,14.3h6l-9.8,11.8l4.3,14.4h-6.1L9,27l0,0L6.1,40.5H0.6l5.5-26.3h5.5L9.2,25.5h0.1L18.1,14.3z"/>
			<path class="st0" d="M35.5,37.1c-0.2,1.1-0.4,2.3-0.5,3.4h-4.8l0.2-2.4h-0.1c-1.4,1.9-3.1,2.8-5.4,2.8c-3.6,0-4.3-2.6-3.6-5.9
				c1.3-6.1,6-6.4,10.8-6.2l0.4-1.4c0.4-1.6,0.4-2.6-1.4-2.6c-1.8,0-2.2,1.3-2.5,2.8h-5c0.5-2.2,1.4-3.6,2.9-4.4
				c1.3-0.8,3.1-1.2,5-1.2c6.5,0,6.7,2.8,6,6.1L35.5,37.1z M26.5,34.8c-0.2,1.3-0.4,2.9,1.3,2.9c3,0,3.4-4.1,3.8-6.1
				C29.1,31.7,27.2,31.5,26.5,34.8z"/>
			<path class="st0" d="M47.6,24L47.6,24c1.4-1.7,3-2.2,4.9-2.2c2.4,0,4.3,1.4,3.7,4l-3.1,14.7h-5.2L50.6,28
				c0.4-1.7,0.4-2.9-1.3-2.9s-2.2,1.3-2.5,2.9l-2.6,12.6H39l4-18.5h5.2L47.6,24z"/>
			<path class="st0" d="M62.7,14.3h5.2l-2,9.6h0.1c1.4-1.6,2.8-2.2,4.7-2.2c5.2,0,3.8,5.8,3,9.4c-0.8,3.7-1.9,9.7-7.2,9.7
				c-1.9,0-3.2-0.6-3.8-2.4h-0.1l-0.5,2h-4.9L62.7,14.3z M68.6,31.1c0.7-3.7,1.3-6.2-0.8-6.2s-2.6,2.5-3.4,6.2
				c-1,4.6-1.1,6.6,0.7,6.6C66.8,37.7,67.5,35.8,68.6,31.1z"/>
			<path class="st0" d="M80.9,40.5h-5.2l4-18.3h5.2L80.9,40.5z"/>
			<path class="st0" d="M90.6,34.6c-0.2,0.8-0.4,1.7-0.2,2.2c0.1,0.6,0.6,0.8,1.7,0.8c1,0,2-0.6,2.3-1.9c0.8-3.8-8.4-3-7.1-8.9
				c0.8-4,5-5.2,8.3-5.2c3.5,0,6.2,1.7,5.2,5.6h-5c0.2-1.3,0.2-2,0-2.4c-0.2-0.4-0.7-0.4-1.2-0.4c-1.1,0-1.9,0.7-2.2,1.9
				c-0.6,2.9,8.4,2.8,7.2,8.6c-0.7,3.2-3.8,5.6-8,5.6c-4.4,0-7.2-1.1-5.9-6.2h5V34.6z"/>
		</g>
		<g>
			<path class="st1" d="M52.5,52.2c0.4-1.9,0.8-5.2,4.1-5.2c2.5,0,1.9,2.3,1.8,2.9h-1c0.2-1.1,0.1-2.2-1.1-2.2c-2.2,0-2.5,1.9-3,4.4
				c-0.5,2.5-1,4.4,1.2,4.4c1.1,0,1.8-1,2-2.3h1c-0.1,0.7-0.8,3-3.1,3C51.2,57.4,52.1,54.1,52.5,52.2z"/>
			<path class="st1" d="M61.6,56.3L61.6,56.3c-0.6,0.6-1.3,1-2.2,1c-1.2,0-1.7-0.8-1.4-2c0.5-2.4,2.9-2.2,4.3-2.3l0.1-0.6
				c0.2-1,0-1.7-1.1-1.7c-0.7,0-1.4,0.4-1.6,1.2H59c0.4-1.3,1.4-1.8,2.6-1.8c0.7,0,2.2,0.1,1.8,1.8l-0.7,3.5c-0.1,0.5-0.2,1-0.2,1.7
				h-0.8L61.6,56.3z M62.1,53.7c-1.2,0-2.9-0.1-3.2,1.6c-0.1,0.7,0.1,1.4,1,1.4c1,0,1.9-0.8,2-1.8L62.1,53.7z"/>
			<path class="st1" d="M64.3,57.1h-0.8l1.4-6.8h0.8l-0.2,0.8l0,0c0.5-0.6,1.1-1,1.9-1c1.7,0,1.6,1.3,1.4,2.2l-1.1,4.8h-0.8l1.1-4.8
				c0.1-0.8,0-1.6-1-1.6c-0.7,0-1.6,0.5-1.9,2L64.3,57.1z"/>
			<path class="st1" d="M69.8,57.1h-0.8l1.4-6.8h0.8l-0.1,0.8l0,0c0.5-0.6,1.1-1,1.9-1c1.7,0,1.6,1.3,1.4,2.2l-1.1,4.8h-0.8l1.1-4.8
				c0.1-0.8,0-1.6-1-1.6c-0.7,0-1.6,0.5-1.9,2L69.8,57.1z"/>
			<path class="st1" d="M78.3,56.3L78.3,56.3c-0.6,0.6-1.3,1-2.2,1c-1.2,0-1.7-0.8-1.4-2c0.5-2.4,2.9-2.2,4.3-2.3l0.1-0.6
				c0.2-1,0-1.7-1.1-1.7c-0.7,0-1.4,0.4-1.6,1.2h-0.8c0.4-1.3,1.4-1.8,2.6-1.8c0.7,0,2.2,0.1,1.8,1.8l-0.7,3.5
				c-0.1,0.5-0.2,1-0.2,1.7h-0.8V56.3z M78.8,53.7c-1.2,0-2.9-0.1-3.2,1.6c-0.1,0.7,0.1,1.4,1,1.4c1,0,1.9-0.8,2-1.8L78.8,53.7z"/>
			<path class="st1" d="M80.1,57.1c0.1-0.2,0.1-0.5,0.2-0.7l1.9-9.1h0.8L82.2,51l0,0c0.6-0.6,1.2-1,1.9-1c2.3,0,1.6,2.4,1.3,3.6
				c-0.4,1.6-0.8,3.6-2.9,3.6c-0.8,0-1.3-0.4-1.6-1l0,0l-0.1,0.8H80.1z M82.5,56.7c1.6,0,1.8-1.3,2.2-2.9c0.4-1.6,0.6-3-1-3
				c-1.3,0-1.9,1.8-2,2.9C81.4,54.7,81,56.7,82.5,56.7z"/>
			<path class="st1" d="M86,57.1l1.4-6.8h0.8l-1.4,6.8H86z M87.8,48.4l0.2-1.1h1l-0.2,1.1H87.8z"/>
			<path class="st1" d="M91.9,56.3L91.9,56.3c-0.6,0.7-1.2,1-2,1c-2,0-1.7-1.9-1.3-3.6c0.2-1.3,0.7-3.6,2.9-3.6
				c0.6,0,1.2,0.2,1.4,0.8l0,0l0.8-3.6h0.8l-1.7,8.5c-0.1,0.7-0.2,1.1-0.2,1.3h-0.8L91.9,56.3z M92.4,54.4l0.2-1.2
				c0.1-0.4,0.5-2.3-1.1-2.3c-1.4,0-1.8,1.3-2.2,3c-0.6,2.5,0,2.9,0.8,2.9C91.1,56.7,92.1,56.1,92.4,54.4z"/>
			<path class="st1" d="M94,57.1l1.4-6.8h0.8l-1.4,6.8H94z M95.8,48.4l0.2-1.1h1l-0.2,1.1H95.8z"/>
			<path class="st1" d="M96.7,54.5l0.4-1.7c0.2-0.8,0.6-2.6,3-2.6c2.4,0,2,1.8,1.8,2.6l-0.5,1.7c-0.4,1.8-1.2,2.9-3,2.9
				C96.7,57.3,96.3,56.3,96.7,54.5z M100.2,55.7c0.2-0.4,0.5-1.6,0.6-2c0.5-2,0.4-2.9-1-2.9c-1.3,0-1.8,0.8-2.2,2.9
				c-0.1,0.5-0.4,1.7-0.2,2c0,0.1,0.1,1,1.2,1C99.7,56.7,100.1,55.9,100.2,55.7z"/>
			<path class="st1" d="M102.1,57.1l2-9.8h0.8l-2,9.8H102.1z"/>
		</g>
		<g>
			<path class="st0" d="M109.6,24.9c-0.4,1.7-2,3.1-3.7,3.1c-1.7,0-2.9-1.3-2.5-3.1c0.4-1.7,2-3.1,3.7-3.1
				C108.9,21.8,109.9,23.2,109.6,24.9z M109.1,24.9c0.2-1.4-0.6-2.5-2-2.5s-2.8,1.2-3,2.5c-0.2,1.4,0.6,2.5,2,2.5
				C107.4,27.4,108.7,26.3,109.1,24.9z M105.7,26.7h-0.8l0.7-3.6h1.6c0.6,0,0.8,0.4,0.7,1c-0.1,0.5-0.4,0.8-1,0.8l0,0
				c0.1,0,0.7,0,0.6,0.7c0,0.2-0.1,1-0.1,1.1h-0.8c-0.1-0.2,0-0.5,0-0.7c0.1-0.5,0.2-0.8-0.4-0.8H106L105.7,26.7z M106.2,24.8h0.4
				c0.4,0,0.5-0.4,0.5-0.5c0.1-0.4-0.1-0.5-0.4-0.5h-0.4L106.2,24.8z"/>
		</g>
	</g>
	<path class="st2" d="M86,16c-0.2,1.4-1.4,2.6-2.9,2.6c-1.4,0-2.4-1.2-2.3-2.6s1.4-2.6,2.9-2.6C85.1,13.4,86.1,14.6,86,16z"/>
	<g>
		<path class="st0" d="M48.3,4.9c-0.2-0.4-0.5-0.6-1-0.8l-5.5-3.2c-0.8-0.5-1.9-0.5-2.9,0L33.4,4c-0.5,0.2-1.1,0.7-1.1,1.3
			c-0.1,1.4,1.7,2.3,2.9,2.9c2,1.1,3.5,1.8,4.4,2.8c0.2,0.2,0.6,0.6,0.7,1c0.1-0.4,0.5-0.7,0.7-1c1-1.1,2.4-1.7,4.4-2.8
			c1.2-0.6,3-1.4,2.9-2.9C48.4,5.2,48.4,5,48.3,4.9z M40.4,8.7c-1,0-1.8-0.8-1.8-1.8s0.8-1.8,1.8-1.8c1,0,1.8,0.8,1.8,1.8
			C42.2,8,41.3,8.7,40.4,8.7z"/>
		<path class="st2" d="M45.5,9.2c-2.5,1.3-4.2,1.9-4.9,4.1c-0.1,0.2-0.2,0.5-0.2,1.1c-0.1-0.6-0.2-0.8-0.2-1.1
			c-0.7-2.2-2.4-2.8-4.9-4.1c-2.5-1.3-3.1-2-3.2-2.3v6c0,1,0.6,1.9,1.4,2.5l5.5,3.1c0.2,0.1,0.4,0.2,0.6,0.2
			c-0.1-0.2-0.1-0.5-0.2-0.7c-1.7-4.9-4.8-6.1-4.8-6.1s1.4,0.1,3.5,2.3c1,1.1,1.8,2.3,2.4,3.5c0,0,1.3-2.5,2.4-3.5
			c2-2.2,3.5-2.3,3.5-2.3s-3.1,1.2-4.8,6.1c-0.1,0.2-0.1,0.5-0.2,0.7c0.2-0.1,0.4-0.1,0.6-0.2l5.5-3.2c0.8-0.5,1.4-1.4,1.4-2.5v-6
			C48.7,7.1,48.1,7.7,45.5,9.2z"/>
	</g>
</g>
</svg>
