<?xml version="1.0" encoding="utf-8"?>
<!-- Generator: Adobe Illustrator 25.0.0, SVG Export Plug-In . SVG Version: 6.00 Build 0)  -->
<svg version="1.1" id="Capa_1" xmlns="http://www.w3.org/2000/svg" xmlns:xlink="http://www.w3.org/1999/xlink" x="0px" y="0px"
	 viewBox="0 0 180.1 54.2" style="enable-background:new 0 0 180.1 54.2;" xml:space="preserve">
<style type="text/css">
	.st0{fill:#FFFFFF;}
</style>
<g>
	<g>
		<g>
			<g>
				<path class="st0" d="M24.4,6.3h6l-9.9,11.8l4.3,14.5h-6.2l-3.4-13.5h-0.1l-2.9,13.5H6.8l5.6-26.3h5.5l-2.4,11.2h0.1L24.4,6.3z"
					/>
				<path class="st0" d="M41.8,29.2c-0.2,1.1-0.3,2.3-0.5,3.4h-4.8l0.3-2.4h-0.1c-1.5,1.9-3.2,2.8-5.4,2.8c-3.6,0-4.3-2.7-3.6-5.9
					c1.3-6.1,6-6.3,10.8-6.3l0.3-1.4c0.3-1.6,0.4-2.7-1.5-2.7c-1.8,0-2.2,1.3-2.5,2.8h-5c0.5-2.2,1.5-3.6,2.8-4.5
					c1.4-0.9,3.1-1.2,5.1-1.2c6.5,0,6.8,2.8,6,6.2L41.8,29.2z M32.8,26.9c-0.3,1.3-0.4,2.9,1.3,2.9c3,0,3.4-4.1,3.8-6.1
					C35.4,23.8,33.5,23.6,32.8,26.9z"/>
				<path class="st0" d="M54,16.1L54,16.1c1.4-1.6,2.9-2.2,4.9-2.2c2.4,0,4.3,1.5,3.7,4l-3.1,14.7h-5.1L57,19.9
					c0.3-1.6,0.3-2.9-1.3-2.9c-1.6,0-2.2,1.3-2.5,2.9l-2.7,12.7h-5.1l3.9-18.4h5.1L54,16.1z"/>
				<path class="st0" d="M69.1,6.3h5.1l-2,9.6h0.1c1.4-1.6,2.8-2.1,4.6-2.1c5.2,0,3.8,5.7,3,9.4C79.1,27.1,78,33,72.7,33
					c-2,0-3.3-0.6-3.8-2.4h-0.1l-0.4,2h-4.9L69.1,6.3z M74.9,23.3c0.8-3.7,1.4-6.2-0.9-6.2c-2.1,0-2.6,2.5-3.4,6.2
					c-1,4.6-1.1,6.6,0.7,6.6C73.2,29.8,73.9,27.9,74.9,23.3z"/>
				<path class="st0" d="M87.3,32.6h-5.1l3.9-18.4h5.1L87.3,32.6z"/>
				<path class="st0" d="M97.1,26.7c-0.2,0.8-0.3,1.6-0.2,2.2c0.2,0.6,0.7,0.9,1.7,0.9c1,0,2-0.7,2.3-1.9c0.8-3.9-8.4-3-7.1-8.9
					c0.8-4,5-5.2,8.3-5.2c3.5,0,6.3,1.7,5.2,5.6h-5c0.3-1.3,0.3-2,0-2.4c-0.3-0.3-0.7-0.4-1.2-0.4c-1.1,0-1.9,0.7-2.2,2
					c-0.6,2.9,8.4,2.8,7.2,8.7c-0.7,3.2-3.8,5.6-8.1,5.6c-4.5,0-7.2-1.1-5.8-6.3H97.1z"/>
			</g>
		</g>
		<g>
			<g>
				<path class="st0" d="M116.6,43.1c0.4-1.7,0.8-4.5,3.6-4.5c2.3,0,1.7,2,1.6,2.5H121c0.3-1,0.1-1.9-1-1.9c-1.9,0-2.2,1.7-2.7,3.9
					c-0.5,2.2-0.8,3.9,1,3.9c1,0,1.6-0.9,1.8-2h0.8c-0.1,0.6-0.7,2.7-2.8,2.7C115.5,47.7,116.3,44.8,116.6,43.1z"/>
				<path class="st0" d="M124.7,46.7L124.7,46.7c-0.5,0.6-1.2,0.9-1.9,0.9c-1.1,0-1.5-0.7-1.3-1.8c0.5-2.1,2.6-1.9,3.8-2l0.1-0.5
					c0.2-0.9,0-1.4-0.9-1.4c-0.7,0-1.3,0.3-1.4,1.1h-0.8c0.3-1.2,1.3-1.6,2.4-1.6c0.6,0,1.9,0.1,1.6,1.6l-0.7,3.1
					c-0.1,0.4-0.2,0.8-0.3,1.5h-0.7L124.7,46.7z M125.1,44.4c-1,0-2.6-0.1-2.9,1.4c-0.1,0.7,0.1,1.3,0.8,1.3c0.8,0,1.7-0.7,1.8-1.5
					L125.1,44.4z"/>
				<path class="st0" d="M127,47.5h-0.7l1.3-6.1h0.7l-0.2,0.7h0c0.5-0.5,1-0.9,1.7-0.9c1.5,0,1.4,1.1,1.3,1.9l-0.9,4.3h-0.7l0.9-4.3
					c0.2-0.7,0-1.4-0.8-1.4c-0.7,0-1.4,0.4-1.7,1.8L127,47.5z"/>
				<path class="st0" d="M131.9,47.5h-0.7l1.3-6.1h0.7l-0.2,0.7h0c0.5-0.5,1-0.9,1.7-0.9c1.5,0,1.4,1.1,1.3,1.9l-0.9,4.3h-0.7
					l0.9-4.3c0.2-0.7,0-1.4-0.8-1.4c-0.7,0-1.4,0.4-1.7,1.8L131.9,47.5z"/>
				<path class="st0" d="M139.5,46.7L139.5,46.7c-0.5,0.6-1.2,0.9-1.9,0.9c-1.1,0-1.5-0.7-1.3-1.8c0.5-2.1,2.6-1.9,3.8-2l0.1-0.5
					c0.2-0.9,0-1.4-0.9-1.4c-0.7,0-1.3,0.3-1.4,1.1H137c0.3-1.2,1.3-1.6,2.4-1.6c0.6,0,1.9,0.1,1.6,1.6l-0.7,3.1
					c-0.1,0.4-0.2,0.8-0.3,1.5h-0.7L139.5,46.7z M139.9,44.4c-1,0-2.6-0.1-2.9,1.4c-0.1,0.7,0.1,1.3,0.8,1.3c0.8,0,1.7-0.7,1.8-1.5
					L139.9,44.4z"/>
				<path class="st0" d="M141,47.5c0.1-0.2,0.2-0.4,0.2-0.6l1.7-8.1h0.7l-0.7,3.3l0,0c0.5-0.6,1-0.8,1.7-0.8c2,0,1.4,2.1,1.1,3.2
					c-0.3,1.3-0.8,3.2-2.6,3.2c-0.7,0-1.2-0.3-1.4-0.9h0l-0.2,0.7H141z M143.2,47c1.3,0,1.6-1.1,1.9-2.6c0.3-1.4,0.5-2.6-0.8-2.6
					c-1.2,0-1.7,1.6-1.8,2.5C142.3,45.3,141.9,47,143.2,47z"/>
				<path class="st0" d="M146.2,47.5l1.3-6.1h0.7l-1.3,6.1H146.2z M147.8,39.7l0.2-0.9h0.9l-0.2,0.9H147.8z"/>
				<path class="st0" d="M151.6,46.7L151.6,46.7c-0.5,0.6-1,0.9-1.8,0.9c-1.8,0-1.5-1.8-1.2-3.2c0.2-1.2,0.7-3.2,2.5-3.2
					c0.6,0,1,0.3,1.3,0.7l0,0l0.7-3.2h0.7l-1.6,7.5c-0.1,0.6-0.2,1-0.2,1.2h-0.7L151.6,46.7z M151.9,45l0.2-1.1
					c0.1-0.4,0.4-2.1-0.9-2.1c-1.3,0-1.6,1.2-1.9,2.6c-0.5,2.3,0,2.6,0.8,2.6C150.9,47,151.6,46.5,151.9,45z"/>
				<path class="st0" d="M153.4,47.5l1.3-6.1h0.7l-1.3,6.1H153.4z M155,39.7l0.2-0.9h0.9l-0.2,0.9H155z"/>
				<path class="st0" d="M155.8,45.1l0.3-1.4c0.2-0.8,0.5-2.4,2.6-2.4c2.1,0,1.8,1.6,1.6,2.4l-0.3,1.4c-0.3,1.6-1.1,2.5-2.6,2.5
					C155.8,47.6,155.4,46.7,155.8,45.1z M158.9,46.2c0.2-0.3,0.4-1.4,0.5-1.8c0.4-1.8,0.4-2.6-0.8-2.6c-1.2,0-1.5,0.8-1.9,2.6
					c-0.1,0.4-0.3,1.5-0.2,1.8c0,0.1,0.1,0.8,1.1,0.8C158.5,47,158.8,46.4,158.9,46.2z"/>
				<path class="st0" d="M160.6,47.5l1.9-8.7h0.7l-1.9,8.7H160.6z"/>
			</g>
		</g>
		<g>
			<g>
				<path class="st0" d="M114.1,17c-0.2,1.1-1.3,2-2.4,2c-1.1,0-1.8-0.9-1.6-2c0.2-1.1,1.3-2,2.4-2C113.6,15,114.3,15.9,114.1,17z
					 M113.7,17c0.2-0.9-0.4-1.6-1.3-1.6c-0.9,0-1.8,0.7-2,1.6c-0.2,0.9,0.4,1.6,1.3,1.6C112.6,18.6,113.5,17.9,113.7,17z
					 M111.6,18.2l-0.5,0l0.5-2.3l1,0c0.4,0,0.5,0.2,0.5,0.6c-0.1,0.3-0.2,0.5-0.6,0.6l0,0c0.1,0,0.4,0,0.4,0.4
					c0,0.2-0.1,0.6-0.1,0.7l-0.5,0c0-0.1,0-0.3,0-0.5c0.1-0.3,0.1-0.5-0.3-0.5l-0.1,0L111.6,18.2z M111.8,16.9l0.2,0
					c0.2,0,0.3-0.2,0.3-0.3c0-0.2,0-0.3-0.2-0.3l-0.2,0L111.8,16.9z"/>
			</g>
		</g>
		<path class="st0" d="M116.2,19.5c1.5-6.9,2.9-13.5,11.9-13.5c5.6,0,7.2,3.1,5.8,8.7h-5.4c0.7-3.5,0.4-4.8-1.2-4.8
			c-3.1,0-4.1,2.9-5.5,9.6c-1.4,6.7-1.6,9.6,1.4,9.6c2.5,0,3.1-3.3,3.6-5.3h5.4c-1.5,7-4.8,9.3-9.9,9.3
			C113.3,33,114.8,26.4,116.2,19.5z"/>
		<path class="st0" d="M134,32.6l5.6-26.2h9.7c4.2,0,7.4,1.2,6.2,6.8c-0.6,3-2.6,5.2-5.7,5.8l0,0.1c3.8,0.5,4.3,3.1,3.5,6.6
			c-1.4,6.6-7.2,6.9-9.6,6.9H134z M140.3,28.6h3.1c1.2,0,3.8,0,4.6-3.7c0.5-2.3-0.1-3.7-2.8-3.7h-3.2L140.3,28.6z M142.7,17.1h3.7
			c1.2,0,3-0.8,3.6-3.3c0.4-1.9-0.6-3.3-2.4-3.3h-3.4L142.7,17.1z"/>
		<path class="st0" d="M92.2,8.5c-0.2,1.4-1.5,2.6-2.9,2.6c-1.4,0-2.5-1.2-2.3-2.6c0.2-1.4,1.5-2.6,2.9-2.6
			C91.4,5.9,92.4,7.1,92.2,8.5z"/>
		<g>
			<g>
				<path class="st0" d="M175.9,19.6c-0.8,4-2.2,13.1-11.5,13.1h-8.8l0.9-4.1l0.9-0.5l5.3-3l-0.6,3l-0.1,0.6h2.6
					c0.9,0,1.6-0.2,2.3-0.6c1-0.6,1.8-1.9,2.4-3.8c0.4-1.2,0.8-2.8,1.2-4.6c1-4.8,1.9-9-1.9-9h-2.8c-0.1,0.2-0.2,0.4-0.3,0.6
					c-0.5,0.8-1.2,1.3-1.5,1.6c-0.4,0.3-1.1,0.7-2,1.1c-0.4,0.2-0.7,0.4-1,0.5c-0.2,0.1-0.5,0.2-0.7,0.4l-0.2,0.1l0,0h0
					c-0.2,0.1-0.4,0.2-0.6,0.3c0,0,0,0,0,0c0,0-0.1,0-0.1,0.1l0.9-4.1l1-4.6h9.1C177.3,6.8,177.6,11.5,175.9,19.6z"/>
			</g>
		</g>
	</g>
	<g>
		<path class="st0" d="M166.2,12.7v6.8c0,1.1-0.6,2.2-1.6,2.8l-8,4.7c0,0,0.8-6.1,6.6-8.6c0,0-5.2,0.5-6.5,5c0,0-1.2-4.4,3.3-6.7
			C160,16.7,166.1,13.7,166.2,12.7z"/>
	</g>
</g>
</svg>
