<?xml version="1.0" encoding="utf-8"?>
<!-- Generator: Adobe Illustrator 25.0.0, SVG Export Plug-In . SVG Version: 6.00 Build 0)  -->
<svg version="1.1" id="Capa_1" xmlns="http://www.w3.org/2000/svg" xmlns:xlink="http://www.w3.org/1999/xlink" x="0px" y="0px"
	 viewBox="0 0 200.7 76.6" style="enable-background:new 0 0 200.7 76.6;" xml:space="preserve">
<style type="text/css">
	.st0{opacity:0.5;fill:#FFFFFF;}
	.st1{opacity:0.75;fill:#FFFFFF;}
	.st2{fill:#FFFFFF;}
</style>
<g>
	<g>
		<g>
			<path id="XMLID_00000111908027349372732580000007527836051618228377_" class="st0" d="M52.9,49.4H6.3L1.8,70.1
				C3,64.7,8.6,59.7,14.3,59.7h36.3c2.9,0,5.7-2.2,6.3-5.1C57.6,51.8,55.7,49.4,52.9,49.4 M46.5,28.7H10.6L6.3,49.4
				c1.2-5.7,6.9-10.3,12.5-10.3h25.6c2.9,0,5.7-2.2,6.3-5.1C51.2,31.1,49.4,28.7,46.5,28.7 M61.6,8H15l-4.4,20.7
				c1.2-5.7,6.9-10.3,12.5-10.3h36.4c2.9,0,5.7-2.4,6.3-5.1C66.4,10.4,64.5,8,61.6,8"/>
			<path id="XMLID_00000045618263375555956550000003710988002509489313_" class="st1" d="M42.1,49.4H6.3L1.8,70.1
				C3,64.7,8.6,59.7,14.3,59.7h25.6c2.9,0,5.7-2.2,6.3-5.1C46.7,51.8,45,49.4,42.1,49.4 M35.8,28.7H10.7L6.3,49.4
				c1.2-5.7,6.9-10.3,12.5-10.3h14.8c2.9,0,5.7-2.2,6.3-5.1C40.4,31.1,38.6,28.7,35.8,28.7 M50.8,8H15l-4.4,20.7
				c1.2-5.7,6.9-10.3,12.5-10.3h25.6c2.9,0,5.7-2.4,6.3-5.1C55.6,10.4,53.7,8,50.8,8"/>
			<path id="XMLID_00000080917846348496158510000004900432822780847756_" class="st2" d="M31.3,49.4H6.3L1.8,70.1
				C3,64.7,8.6,59.7,14.3,59.7h14.8c2.9,0,5.7-2.2,6.3-5.1C36.1,51.8,34.2,49.4,31.3,49.4 M25,28.7H10.6L6.3,49.4
				c1.2-5.7,6.9-10.3,12.5-10.3h4c2.9,0,5.7-2.2,6.3-5.1C29.6,31.1,27.9,28.7,25,28.7 M40.2,8H15.1l-4.4,20.7
				c1.2-5.7,6.9-10.3,12.5-10.3H38c2.9,0,5.7-2.4,6.3-5.1C44.9,10.4,43.1,8,40.2,8"/>
		</g>
		<path class="st2" d="M84.2,14.7h26.4L112,8H77.7L66.7,59.7h34.8l1.5-6.7H76l3.4-16.1h25.1l1.5-6.7H80.9L84.2,14.7z M118,8
			L107,59.7h7.9L126,8H118z M147.2,21.5c-11.6,0-18.9,6.2-21.5,18.6c-1.5,6.9-0.9,12,1.8,15.3c2.4,2.9,6.3,4.4,11.7,4.4
			c5.5,0,10.3-1.6,14.4-4.7l0.3-0.1l1.6-7.4l-1.6,1.2c-3.7,2.9-8.3,4.4-13.5,4.4c-3.2,0-5.3-0.8-6.5-2.2c-1.3-1.6-1.6-4-0.9-7.3
			h11.2c9.1,0,14.5-3.6,16.1-10.7c0.7-3.2,0.3-5.8-1.2-7.6C157,22.6,153,21.5,147.2,21.5z M152.4,32.4c-0.7,2.9-2.9,4.2-7,4.2h-10.8
			c1.8-5.8,5.7-8.6,11.6-8.6c2.9,0,4.9,0.5,5.8,1.6C152.4,30.3,152.5,31.2,152.4,32.4z M198.7,22.9c-3.6-1.1-7.9-1.6-12.9-1.6
			c-12.7,0-20.4,6.6-23.2,19.5c-1.6,7.4-1.2,12.5,1.3,15.6c1.7,2.1,4.5,3.3,8,3.3c5,0,9.5-2.4,13.3-6.9l-0.9,6.9h7.1l7.8-36.5
			L198.7,22.9z M186.9,44.1c-3.7,5.7-7.9,8.4-12.5,8.4c-1.6,0-2.6-0.4-3.4-1.5c-1.5-1.7-1.6-5.1-0.5-10.2c1.8-8.7,6.3-12.9,14-12.9
			c2.8,0,4.7,0.1,5.8,0.5L186.9,44.1z"/>
	</g>
</g>
</svg>
