<?xml version="1.0" encoding="utf-8"?>
<!-- Generator: Adobe Illustrator 26.0.0, SVG Export Plug-In . SVG Version: 6.00 Build 0)  -->
<svg version="1.1" id="Capa_1" xmlns="http://www.w3.org/2000/svg" xmlns:xlink="http://www.w3.org/1999/xlink" x="0px" y="0px"
	 viewBox="0 0 300 39" style="enable-background:new 0 0 300 39;" xml:space="preserve">
<style type="text/css">
	.st0{fill:#FEFEFE;}
	.st1{fill:#FFFFFF;}
	.st2{opacity:0.35;fill:#FFFFFF;enable-background:new    ;}
	.st3{opacity:0.6;fill:#FFFFFF;enable-background:new    ;}
</style>
<g>
	<g>
		<g>
			<path class="st0" d="M215,35.5l3.3-5.3h0.8l1.2,5.3h-0.7l-0.4-1.7h-1.8l0.3-0.5h1.3l-0.5-2.4l-2.8,4.6
				C215.8,35.5,215,35.5,215,35.5z"/>
			<path class="st0" d="M223.4,35.5l0.1-0.9c-0.4,0.6-0.9,0.9-1.5,0.9c-0.9,0-1.2-0.6-0.9-1.9c0.3-1.3,1.1-2,2.3-2
				c0.2,0,0.5,0,0.7,0l0.3-1.4h0.7l-1.1,5.3H223.4z M223.3,32.2c-0.8,0-1.3,0.5-1.5,1.4c-0.2,0.9,0,1.3,0.5,1.3c0.5,0,1-0.3,1.4-0.9
				l0.3-1.7C223.9,32.2,223.7,32.2,223.3,32.2z"/>
			<path class="st0" d="M227.2,33.8H226c-0.1,0.8,0.1,1.2,0.9,1.2c0.6,0,1.1-0.2,1.5-0.5l-0.1,0.5c-0.4,0.3-0.9,0.5-1.5,0.5
				c-1.2,0-1.6-0.7-1.4-2c0.3-1.3,1-1.9,2.2-1.9c1,0,1.4,0.4,1.3,1.1C228.7,33.4,228.2,33.8,227.2,33.8z M227.4,33.2
				c0.5,0,0.7-0.2,0.8-0.5c0.1-0.4-0.2-0.5-0.7-0.5c-0.7,0-1.1,0.3-1.3,1.1C226.1,33.2,227.4,33.2,227.4,33.2z"/>
			<path class="st0" d="M229.9,35.5h-0.7l1.1-5.3h0.7L229.9,35.5z"/>
			<path class="st0" d="M233.6,35.5l0.1-0.9c-0.4,0.6-0.9,0.9-1.5,0.9c-0.9,0-1.2-0.6-0.9-1.9c0.3-1.3,1-2,2.3-2c0.5,0,1,0,1.3,0.2
				l-0.7,3.7L233.6,35.5L233.6,35.5z M233.4,32.2c-0.8,0-1.3,0.5-1.5,1.4c-0.2,0.9,0,1.3,0.5,1.3c0.5,0,1-0.3,1.4-0.9l0.3-1.7
				C234,32.2,233.8,32.2,233.4,32.2z"/>
			<path class="st0" d="M236.1,31.6h0.6l-0.2,1.2c0.5-0.8,1.1-1.2,1.8-1.2c0.7,0,1,0.4,0.8,1.3l-0.5,2.6h-0.7l0.5-2.6
				c0.1-0.5-0.1-0.7-0.5-0.7c-0.5,0-1,0.4-1.6,1.2l-0.4,2.1h-0.7L236.1,31.6z"/>
			<path class="st0" d="M241.1,31l0,0.6h1.1l-0.1,0.6h-0.9l-0.4,2.2c-0.1,0.4,0.1,0.5,0.4,0.5h0.5l-0.1,0.6h-0.6
				c-0.6,0-0.9-0.3-0.8-1l0.7-3.5L241.1,31L241.1,31z"/>
			<path class="st0" d="M244.3,33.8h-1.2c-0.1,0.8,0.1,1.2,0.9,1.2c0.6,0,1.1-0.2,1.5-0.5l-0.1,0.5c-0.4,0.3-0.9,0.5-1.5,0.5
				c-1.2,0-1.6-0.7-1.4-2c0.2-1.3,1-1.9,2.2-1.9c1,0,1.4,0.4,1.3,1.1C245.8,33.4,245.2,33.8,244.3,33.8z M244.4,33.2
				c0.5,0,0.7-0.2,0.8-0.5c0.1-0.4-0.2-0.5-0.7-0.5c-0.7,0-1.1,0.3-1.3,1.1C243.2,33.2,244.4,33.2,244.4,33.2z"/>
			<path class="st0" d="M249.5,35.5c-1.1,0-1.5-0.7-1.2-2c0.3-1.3,1-1.9,2.2-1.9c0.4,0,0.7,0,1,0.1l-0.1,0.6
				c-0.3-0.1-0.6-0.1-1.1-0.1c-0.8,0-1.2,0.5-1.4,1.3c-0.2,1,0,1.4,0.7,1.4c0.5,0,0.9-0.2,1.3-0.5l-0.1,0.5
				C250.5,35.3,250.1,35.5,249.5,35.5z"/>
			<path class="st0" d="M254,31.6c1.2,0,1.6,0.6,1.4,1.9s-1,1.9-2.2,1.9c-1.2,0-1.6-0.7-1.4-1.9C252.1,32.3,252.9,31.6,254,31.6z
				 M254.7,33.5c0.2-0.9-0.1-1.4-0.8-1.4c-0.7,0-1.2,0.5-1.4,1.4c-0.2,0.9,0.1,1.4,0.8,1.4C254.1,35,254.6,34.5,254.7,33.5z"/>
			<path class="st0" d="M256.7,31.6h0.6l-0.2,1.2c0.5-0.8,1.1-1.2,1.8-1.2s1,0.4,0.8,1.3l-0.5,2.6h-0.7l0.5-2.6
				c0.1-0.5-0.1-0.7-0.5-0.7c-0.5,0-1,0.4-1.5,1.2l-0.4,2.1h-0.7L256.7,31.6z"/>
			<path class="st0" d="M263.6,31l0,0.6h1l-0.1,0.6h-0.9l-0.5,2.2c-0.1,0.4,0,0.5,0.4,0.5h0.5l-0.1,0.6h-0.6c-0.6,0-0.9-0.3-0.8-1
				l0.7-3.5L263.6,31L263.6,31z"/>
			<path class="st0" d="M268.1,35.5h-0.6l0.2-1.2c-0.5,0.8-1.1,1.2-1.8,1.2s-1-0.4-0.8-1.3l0.5-2.6h0.7l-0.5,2.6
				c-0.1,0.5,0.1,0.7,0.5,0.7c0.5,0,1-0.4,1.5-1.2l0.4-2.1h0.7L268.1,35.5z"/>
			<path class="st0" d="M272,31.6l0.5,3l1.7-3h0.7l-2.4,3.9H272l-0.7-3.9C271.3,31.6,272,31.6,272,31.6z"/>
			<path class="st0" d="M275.5,35.5h-0.7l0.8-3.9h0.7L275.5,35.5z M276.4,30.9h-0.7l0.1-0.6h0.7L276.4,30.9z"/>
			<path class="st0" d="M279.2,35.5l0.1-0.9c-0.4,0.6-0.9,0.9-1.5,0.9c-0.9,0-1.2-0.6-0.9-1.9c0.3-1.3,1-2,2.3-2c0.2,0,0.5,0,0.7,0
				l0.3-1.4h0.7l-1.1,5.3H279.2z M279.1,32.2c-0.8,0-1.3,0.5-1.5,1.4c-0.2,0.9,0,1.3,0.5,1.3c0.5,0,1-0.3,1.4-0.9l0.3-1.7
				C279.7,32.2,279.4,32.2,279.1,32.2z"/>
			<path class="st0" d="M283.5,35.5l0.1-0.9c-0.4,0.6-0.9,0.9-1.5,0.9c-0.9,0-1.2-0.6-0.9-1.9c0.3-1.3,1-2,2.3-2c0.5,0,1,0,1.3,0.2
				l-0.7,3.7L283.5,35.5L283.5,35.5z M283.3,32.2c-0.8,0-1.3,0.5-1.5,1.4c-0.2,0.9,0,1.3,0.5,1.3c0.5,0,1-0.3,1.4-0.9l0.3-1.7
				C283.9,32.2,283.7,32.2,283.3,32.2z"/>
		</g>
	</g>
	<g>
		<path class="st1" d="M247,8.1h9.7l0.5-2.5h-12.6l-4.1,19h12.8l0.5-2.5H244l1.3-5.9h9.2l0.5-2.4h-9.2L247,8.1z M259.4,5.7l-4.1,19
			h2.9l4.1-19C262.3,5.7,259.4,5.7,259.4,5.7z M270.1,10.6c-4.3,0-6.9,2.3-7.9,6.8c-0.5,2.5-0.3,4.4,0.7,5.6
			c0.9,1.1,2.3,1.6,4.3,1.6c2,0,3.8-0.6,5.3-1.7l0.1-0.1l0.6-2.7l-0.6,0.4c-1.4,1.1-3,1.6-4.9,1.6c-1.1,0-1.9-0.3-2.4-0.8
			c-0.5-0.6-0.6-1.5-0.4-2.7h4.1c3.4,0,5.3-1.3,5.9-3.9c0.2-1.2,0.1-2.1-0.5-2.8C273.7,11,272.2,10.6,270.1,10.6z M272,14.6
			c-0.2,1.1-1.1,1.6-2.6,1.6h-4c0.7-2.1,2.1-3.2,4.3-3.2c1.1,0,1.8,0.2,2.1,0.6C272,13.9,272.1,14.2,272,14.6z M289,11.1
			c-1.3-0.4-2.9-0.6-4.8-0.6c-4.6,0-7.5,2.4-8.5,7.2c-0.6,2.7-0.4,4.6,0.5,5.7c0.6,0.8,1.6,1.2,3,1.2c1.8,0,3.5-0.9,4.9-2.5
			l-0.3,2.5h2.6l2.9-13.4L289,11.1z M284.7,18.9c-1.3,2.1-2.9,3.1-4.6,3.1c-0.6,0-1-0.2-1.3-0.5c-0.5-0.6-0.6-1.9-0.2-3.7
			c0.7-3.2,2.4-4.7,5.1-4.7c1,0,1.7,0.1,2.1,0.2L284.7,18.9z"/>
		<g>
			<path class="st2" d="M228.4,17.1h3.9c1.1,0,2.1-0.8,2.3-1.9c0.2-1.1-0.4-1.9-1.5-1.9h-3.9c1.1,0,1.7,0.8,1.5,1.9
				C230.5,16.2,229.4,17.1,228.4,17.1z M235.5,20.9h-3.9c1,0,1.7,0.9,1.5,1.9s-1.3,1.9-2.3,1.9h3.9c1.1,0,2.1-0.8,2.3-1.9
				C237.2,21.7,236.5,20.9,235.5,20.9z M238.7,5.7h-3.9c1.1,0,1.7,0.8,1.5,1.9c-0.2,1.1-1.2,1.9-2.3,1.9h3.9c1.1,0,2.1-0.9,2.3-1.9
				C240.4,6.5,239.8,5.7,238.7,5.7z"/>
			<path id="XMLID_49_" class="st1" d="M227.6,20.9h-9.2l-1.6,7.6c0.4-2,2.5-3.8,4.6-3.8h5.4c1.1,0,2.1-0.8,2.3-1.9
				C229.3,21.7,228.6,20.9,227.6,20.9 M225.2,13.3H220l-1.6,7.6c0.4-2.1,2.5-3.8,4.6-3.8h1.5c1.1,0,2.1-0.8,2.3-1.9
				C227,14.1,226.3,13.3,225.2,13.3 M230.8,5.7h-9.2l-1.6,7.6c0.4-2.1,2.5-3.8,4.6-3.8h5.4c1.1,0,2.1-0.9,2.3-1.9
				C232.5,6.5,231.9,5.7,230.8,5.7"/>
			<path class="st3" d="M224.4,17.1h3.9c1.1,0,2.1-0.8,2.3-1.9c0.2-1.1-0.4-1.9-1.5-1.9h-3.9c1.1,0,1.7,0.8,1.5,1.9
				C226.5,16.2,225.5,17.1,224.4,17.1z M234.8,5.7h-3.9c1.1,0,1.7,0.8,1.5,1.9c-0.2,1.1-1.2,1.9-2.3,1.9h3.9c1.1,0,2.1-0.9,2.3-1.9
				C236.5,6.5,235.8,5.7,234.8,5.7z M231.5,20.9h-3.9c1,0,1.7,0.9,1.5,1.9c-0.2,1-1.3,1.9-2.3,1.9h3.9c1.1,0,2.1-0.8,2.3-1.9
				C233.3,21.7,232.6,20.9,231.5,20.9z"/>
		</g>
	</g>
</g>
</svg>
